{
  "header": {
    "PPQ": 384,
    "timeSignature": [
      2,
      4
    ],
    "bpm": 36.00001440000576,
    "name": "control track"
  },
  "startTime": 0,
  "duration": 243.3332360000047,
  "tracks": [
    {
      "startTime": 0,
      "duration": 0,
      "length": 0,
      "notes": [],
      "controlChanges": {},
      "id": 0,
      "name": "control track"
    },
    {
      "startTime": 0,
      "duration": 243.3332360000047,
      "length": 1042,
      "notes": [
        {
          "name": "C4",
          "midi": 60,
          "time": 0,
          "velocity": 0.7086614173228346,
          "duration": 1.666666
        },
        {
          "name": "G#3",
          "midi": 56,
          "time": 0,
          "velocity": 0.7086614173228346,
          "duration": 0.4166665
        },
        {
          "name": "D#3",
          "midi": 51,
          "time": 0.4166665,
          "velocity": 0.7086614173228346,
          "duration": 0.4166665
        },
        {
          "name": "G#3",
          "midi": 56,
          "time": 0.833333,
          "velocity": 0.7086614173228346,
          "duration": 0.41666649999999994
        },
        {
          "name": "D#3",
          "midi": 51,
          "time": 1.2499995,
          "velocity": 0.7086614173228346,
          "duration": 0.41666650000000005
        },
        {
          "name": "A#3",
          "midi": 58,
          "time": 1.666666,
          "velocity": 0.7086614173228346,
          "duration": 1.6666659999999995
        },
        {
          "name": "G3",
          "midi": 55,
          "time": 1.666666,
          "velocity": 0.7086614173228346,
          "duration": 0.41666650000000005
        },
        {
          "name": "D#3",
          "midi": 51,
          "time": 2.0833325,
          "velocity": 0.7086614173228346,
          "duration": 0.41666649999999983
        },
        {
          "name": "G3",
          "midi": 55,
          "time": 2.499999,
          "velocity": 0.7086614173228346,
          "duration": 0.41666649999999983
        },
        {
          "name": "D#3",
          "midi": 51,
          "time": 2.9166654999999997,
          "velocity": 0.7086614173228346,
          "duration": 0.41666649999999983
        },
        {
          "name": "G#3",
          "midi": 56,
          "time": 3.3333319999999995,
          "velocity": 0.7086614173228346,
          "duration": 0.41666649999999983
        },
        {
          "name": "D#4",
          "midi": 63,
          "time": 3.3333319999999995,
          "velocity": 0.7086614173228346,
          "duration": 2.499998999999999
        },
        {
          "name": "D#3",
          "midi": 51,
          "time": 3.7499984999999993,
          "velocity": 0.7086614173228346,
          "duration": 0.41666649999999983
        },
        {
          "name": "G#3",
          "midi": 56,
          "time": 4.166664999999999,
          "velocity": 0.7086614173228346,
          "duration": 0.41666649999999983
        },
        {
          "name": "D#3",
          "midi": 51,
          "time": 4.583331499999999,
          "velocity": 0.7086614173228346,
          "duration": 0.41666649999999983
        },
        {
          "name": "A#3",
          "midi": 58,
          "time": 4.999997999999999,
          "velocity": 0.7086614173228346,
          "duration": 0.41666649999999983
        },
        {
          "name": "D#3",
          "midi": 51,
          "time": 5.416664499999999,
          "velocity": 0.7086614173228346,
          "duration": 0.41666649999999983
        },
        {
          "name": "C#4",
          "midi": 61,
          "time": 5.8333309999999985,
          "velocity": 0.7086614173228346,
          "duration": 0.8333329999999997
        },
        {
          "name": "A#3",
          "midi": 58,
          "time": 5.8333309999999985,
          "velocity": 0.7086614173228346,
          "duration": 0.41666649999999983
        },
        {
          "name": "D#3",
          "midi": 51,
          "time": 6.249997499999998,
          "velocity": 0.7086614173228346,
          "duration": 0.41666649999999983
        },
        {
          "name": "C4",
          "midi": 60,
          "time": 6.666663999999998,
          "velocity": 0.7086614173228346,
          "duration": 0.8333329999999997
        },
        {
          "name": "G#3",
          "midi": 56,
          "time": 6.666663999999998,
          "velocity": 0.7086614173228346,
          "duration": 0.41666649999999983
        },
        {
          "name": "D#3",
          "midi": 51,
          "time": 7.083330499999998,
          "velocity": 0.7086614173228346,
          "duration": 0.41666649999999983
        },
        {
          "name": "D#4",
          "midi": 63,
          "time": 7.499996999999998,
          "velocity": 0.7086614173228346,
          "duration": 0.8333330000000005
        },
        {
          "name": "A#3",
          "midi": 58,
          "time": 7.499996999999998,
          "velocity": 0.7086614173228346,
          "duration": 0.41666649999999983
        },
        {
          "name": "D#3",
          "midi": 51,
          "time": 7.916663499999998,
          "velocity": 0.7086614173228346,
          "duration": 0.4166665000000007
        },
        {
          "name": "G#4",
          "midi": 68,
          "time": 8.333329999999998,
          "velocity": 0.7086614173228346,
          "duration": 0.8333329999999997
        },
        {
          "name": "C4",
          "midi": 60,
          "time": 8.333329999999998,
          "velocity": 0.7086614173228346,
          "duration": 0.41666649999999983
        },
        {
          "name": "G#3",
          "midi": 56,
          "time": 8.749996499999998,
          "velocity": 0.7086614173228346,
          "duration": 0.41666649999999983
        },
        {
          "name": "A#4",
          "midi": 70,
          "time": 9.166662999999998,
          "velocity": 0.7086614173228346,
          "duration": 0.8333329999999997
        },
        {
          "name": "D4",
          "midi": 62,
          "time": 9.166662999999998,
          "velocity": 0.7086614173228346,
          "duration": 0.41666649999999983
        },
        {
          "name": "G#3",
          "midi": 56,
          "time": 9.583329499999998,
          "velocity": 0.7086614173228346,
          "duration": 0.41666649999999983
        },
        {
          "name": "D#4",
          "midi": 63,
          "time": 9.999995999999998,
          "velocity": 0.7086614173228346,
          "duration": 2.499998999999999
        },
        {
          "name": "G3",
          "midi": 55,
          "time": 9.999995999999998,
          "velocity": 0.7086614173228346,
          "duration": 0.41666649999999983
        },
        {
          "name": "A#3",
          "midi": 58,
          "time": 10.416662499999997,
          "velocity": 0.7086614173228346,
          "duration": 0.41666649999999983
        },
        {
          "name": "G3",
          "midi": 55,
          "time": 10.833328999999997,
          "velocity": 0.7086614173228346,
          "duration": 0.41666649999999983
        },
        {
          "name": "A#3",
          "midi": 58,
          "time": 11.249995499999997,
          "velocity": 0.7086614173228346,
          "duration": 0.41666649999999983
        },
        {
          "name": "G3",
          "midi": 55,
          "time": 11.666661999999997,
          "velocity": 0.7086614173228346,
          "duration": 0.41666649999999983
        },
        {
          "name": "A#3",
          "midi": 58,
          "time": 12.083328499999997,
          "velocity": 0.7086614173228346,
          "duration": 0.41666649999999983
        },
        {
          "name": "E4",
          "midi": 64,
          "time": 12.499994999999997,
          "velocity": 0.7086614173228346,
          "duration": 0.8333329999999997
        },
        {
          "name": "G3",
          "midi": 55,
          "time": 12.499994999999997,
          "velocity": 0.7086614173228346,
          "duration": 0.41666649999999983
        },
        {
          "name": "A#3",
          "midi": 58,
          "time": 12.916661499999996,
          "velocity": 0.7086614173228346,
          "duration": 0.41666649999999983
        },
        {
          "name": "F4",
          "midi": 65,
          "time": 13.333327999999996,
          "velocity": 0.7086614173228346,
          "duration": 1.6666659999999993
        },
        {
          "name": "G3",
          "midi": 55,
          "time": 13.333327999999996,
          "velocity": 0.7086614173228346,
          "duration": 0.41666649999999983
        },
        {
          "name": "A#3",
          "midi": 58,
          "time": 13.749994499999996,
          "velocity": 0.7086614173228346,
          "duration": 0.41666649999999983
        },
        {
          "name": "G3",
          "midi": 55,
          "time": 14.166660999999996,
          "velocity": 0.7086614173228346,
          "duration": 0.41666649999999983
        },
        {
          "name": "A#3",
          "midi": 58,
          "time": 14.583327499999996,
          "velocity": 0.7086614173228346,
          "duration": 0.41666649999999983
        },
        {
          "name": "A#3",
          "midi": 58,
          "time": 14.999993999999996,
          "velocity": 0.7086614173228346,
          "duration": 1.2499994999999995
        },
        {
          "name": "G3",
          "midi": 55,
          "time": 14.999993999999996,
          "velocity": 0.7086614173228346,
          "duration": 0.41666649999999983
        },
        {
          "name": "D#3",
          "midi": 51,
          "time": 15.416660499999995,
          "velocity": 0.7086614173228346,
          "duration": 0.41666649999999983
        },
        {
          "name": "G3",
          "midi": 55,
          "time": 15.833326999999995,
          "velocity": 0.7086614173228346,
          "duration": 0.41666649999999983
        },
        {
          "name": "D#3",
          "midi": 51,
          "time": 16.249993499999995,
          "velocity": 0.7086614173228346,
          "duration": 0.41666649999999805
        },
        {
          "name": "C4",
          "midi": 60,
          "time": 16.249993499999995,
          "velocity": 0.7086614173228346,
          "duration": 0.20833324999999903
        },
        {
          "name": "C#4",
          "midi": 61,
          "time": 16.458326749999994,
          "velocity": 0.7086614173228346,
          "duration": 0.20833324999999903
        },
        {
          "name": "D#4",
          "midi": 63,
          "time": 16.666659999999993,
          "velocity": 0.7086614173228346,
          "duration": 1.6666660000000064
        },
        {
          "name": "G#3",
          "midi": 56,
          "time": 16.666659999999993,
          "velocity": 0.7086614173228346,
          "duration": 0.4166665000000016
        },
        {
          "name": "D#3",
          "midi": 51,
          "time": 17.083326499999995,
          "velocity": 0.7086614173228346,
          "duration": 0.4166665000000016
        },
        {
          "name": "G#3",
          "midi": 56,
          "time": 17.499992999999996,
          "velocity": 0.7086614173228346,
          "duration": 0.4166665000000016
        },
        {
          "name": "D#3",
          "midi": 51,
          "time": 17.916659499999998,
          "velocity": 0.7086614173228346,
          "duration": 0.4166665000000016
        },
        {
          "name": "A3",
          "midi": 57,
          "time": 18.333326,
          "velocity": 0.7086614173228346,
          "duration": 1.6666660000000064
        },
        {
          "name": "D#3",
          "midi": 51,
          "time": 18.333326,
          "velocity": 0.7086614173228346,
          "duration": 0.4166665000000016
        },
        {
          "name": "C3",
          "midi": 48,
          "time": 18.7499925,
          "velocity": 0.7086614173228346,
          "duration": 0.4166665000000016
        },
        {
          "name": "D#3",
          "midi": 51,
          "time": 19.166659000000003,
          "velocity": 0.7086614173228346,
          "duration": 0.4166665000000016
        },
        {
          "name": "C3",
          "midi": 48,
          "time": 19.583325500000004,
          "velocity": 0.7086614173228346,
          "duration": 0.4166665000000016
        },
        {
          "name": "C#4",
          "midi": 61,
          "time": 19.999992000000006,
          "velocity": 0.7086614173228346,
          "duration": 1.6666660000000064
        },
        {
          "name": "F3",
          "midi": 53,
          "time": 19.999992000000006,
          "velocity": 0.7086614173228346,
          "duration": 0.4166665000000016
        },
        {
          "name": "C#3",
          "midi": 49,
          "time": 20.416658500000008,
          "velocity": 0.7086614173228346,
          "duration": 0.4166665000000016
        },
        {
          "name": "F3",
          "midi": 53,
          "time": 20.83332500000001,
          "velocity": 0.7086614173228346,
          "duration": 0.4166665000000016
        },
        {
          "name": "C#3",
          "midi": 49,
          "time": 21.24999150000001,
          "velocity": 0.7086614173228346,
          "duration": 0.4166665000000016
        },
        {
          "name": "C#3",
          "midi": 49,
          "time": 21.666658000000012,
          "velocity": 0.7086614173228346,
          "duration": 0.4166665000000016
        },
        {
          "name": "C4",
          "midi": 60,
          "time": 21.666658000000012,
          "velocity": 0.7086614173228346,
          "duration": 0.4166665000000016
        },
        {
          "name": "A#3",
          "midi": 58,
          "time": 22.083324500000014,
          "velocity": 0.7086614173228346,
          "duration": 0.4166665000000016
        },
        {
          "name": "C#3",
          "midi": 49,
          "time": 22.083324500000014,
          "velocity": 0.7086614173228346,
          "duration": 0.4166665000000016
        },
        {
          "name": "G#3",
          "midi": 56,
          "time": 22.499991000000016,
          "velocity": 0.7086614173228346,
          "duration": 0.4166665000000016
        },
        {
          "name": "C#3",
          "midi": 49,
          "time": 22.499991000000016,
          "velocity": 0.7086614173228346,
          "duration": 0.4166665000000016
        },
        {
          "name": "G3",
          "midi": 55,
          "time": 22.916657500000017,
          "velocity": 0.7086614173228346,
          "duration": 0.4166665000000016
        },
        {
          "name": "C#3",
          "midi": 49,
          "time": 22.916657500000017,
          "velocity": 0.7086614173228346,
          "duration": 0.4166665000000016
        },
        {
          "name": "C#3",
          "midi": 49,
          "time": 23.33332400000002,
          "velocity": 0.7086614173228346,
          "duration": 0.4166665000000016
        },
        {
          "name": "G3",
          "midi": 55,
          "time": 23.33332400000002,
          "velocity": 0.7086614173228346,
          "duration": 1.6666660000000064
        },
        {
          "name": "A#3",
          "midi": 58,
          "time": 23.33332400000002,
          "velocity": 0.7086614173228346,
          "duration": 1.6666660000000064
        },
        {
          "name": "D#3",
          "midi": 51,
          "time": 23.74999050000002,
          "velocity": 0.7086614173228346,
          "duration": 0.4166665000000016
        },
        {
          "name": "C#3",
          "midi": 49,
          "time": 24.166657000000022,
          "velocity": 0.7086614173228346,
          "duration": 0.4166665000000016
        },
        {
          "name": "D#3",
          "midi": 51,
          "time": 24.583323500000024,
          "velocity": 0.7086614173228346,
          "duration": 0.4166665000000016
        },
        {
          "name": "G#3",
          "midi": 56,
          "time": 24.999990000000025,
          "velocity": 0.7086614173228346,
          "duration": 0.5555553333333307
        },
        {
          "name": "C3",
          "midi": 48,
          "time": 24.999990000000025,
          "velocity": 0.7086614173228346,
          "duration": 0.27777766666666537
        },
        {
          "name": "D#3",
          "midi": 51,
          "time": 25.27776766666669,
          "velocity": 0.7086614173228346,
          "duration": 0.27777766666666537
        },
        {
          "name": "G#3",
          "midi": 56,
          "time": 25.555545333333356,
          "velocity": 0.7086614173228346,
          "duration": 0.27777766666666537
        },
        {
          "name": "C4",
          "midi": 60,
          "time": 25.83332300000002,
          "velocity": 0.7086614173228346,
          "duration": 0.27777766666666537
        },
        {
          "name": "D#4",
          "midi": 63,
          "time": 26.111100666666687,
          "velocity": 0.7086614173228346,
          "duration": 0.27777766666666537
        },
        {
          "name": "G#4",
          "midi": 68,
          "time": 26.388878333333352,
          "velocity": 0.7086614173228346,
          "duration": 0.27777766666666537
        },
        {
          "name": "C5",
          "midi": 72,
          "time": 26.666656000000017,
          "velocity": 0.7086614173228346,
          "duration": 1.6666660000000064
        },
        {
          "name": "C4",
          "midi": 60,
          "time": 26.666656000000017,
          "velocity": 0.7086614173228346,
          "duration": 0.4166665000000016
        },
        {
          "name": "D#4",
          "midi": 63,
          "time": 27.08332250000002,
          "velocity": 0.7086614173228346,
          "duration": 0.4166665000000016
        },
        {
          "name": "C4",
          "midi": 60,
          "time": 27.49998900000002,
          "velocity": 0.7086614173228346,
          "duration": 0.4166665000000016
        },
        {
          "name": "D#4",
          "midi": 63,
          "time": 27.916655500000022,
          "velocity": 0.7086614173228346,
          "duration": 0.4166665000000016
        },
        {
          "name": "A#4",
          "midi": 70,
          "time": 28.333322000000024,
          "velocity": 0.7086614173228346,
          "duration": 1.6666660000000064
        },
        {
          "name": "A#3",
          "midi": 58,
          "time": 28.333322000000024,
          "velocity": 0.7086614173228346,
          "duration": 0.4166665000000016
        },
        {
          "name": "D#4",
          "midi": 63,
          "time": 28.749988500000025,
          "velocity": 0.7086614173228346,
          "duration": 0.4166665000000016
        },
        {
          "name": "A#3",
          "midi": 58,
          "time": 29.166655000000027,
          "velocity": 0.7086614173228346,
          "duration": 0.4166665000000016
        },
        {
          "name": "D#4",
          "midi": 63,
          "time": 29.58332150000003,
          "velocity": 0.7086614173228346,
          "duration": 0.4166665000000016
        },
        {
          "name": "D#5",
          "midi": 75,
          "time": 29.99998800000003,
          "velocity": 0.7086614173228346,
          "duration": 2.4999990000000025
        },
        {
          "name": "D#4",
          "midi": 63,
          "time": 29.99998800000003,
          "velocity": 0.7086614173228346,
          "duration": 0.4166665000000016
        },
        {
          "name": "G#4",
          "midi": 68,
          "time": 30.416654500000032,
          "velocity": 0.7086614173228346,
          "duration": 0.4166665000000016
        },
        {
          "name": "D#4",
          "midi": 63,
          "time": 30.833321000000034,
          "velocity": 0.7086614173228346,
          "duration": 0.4166665000000016
        },
        {
          "name": "G#4",
          "midi": 68,
          "time": 31.249987500000035,
          "velocity": 0.7086614173228346,
          "duration": 0.4166665000000016
        },
        {
          "name": "D#4",
          "midi": 63,
          "time": 31.666654000000037,
          "velocity": 0.7086614173228346,
          "duration": 0.41666649999999805
        },
        {
          "name": "A#4",
          "midi": 70,
          "time": 32.083320500000035,
          "velocity": 0.7086614173228346,
          "duration": 0.41666649999999805
        },
        {
          "name": "C#5",
          "midi": 73,
          "time": 32.49998700000003,
          "velocity": 0.7086614173228346,
          "duration": 0.8333329999999961
        },
        {
          "name": "D#4",
          "midi": 63,
          "time": 32.49998700000003,
          "velocity": 0.7086614173228346,
          "duration": 0.41666649999999805
        },
        {
          "name": "A#4",
          "midi": 70,
          "time": 32.91665350000003,
          "velocity": 0.7086614173228346,
          "duration": 0.41666649999999805
        },
        {
          "name": "D#4",
          "midi": 63,
          "time": 33.33332000000003,
          "velocity": 0.7086614173228346,
          "duration": 0.41666649999999805
        },
        {
          "name": "C5",
          "midi": 72,
          "time": 33.33332000000003,
          "velocity": 0.7086614173228346,
          "duration": 0.8333329999999961
        },
        {
          "name": "G#4",
          "midi": 68,
          "time": 33.74998650000003,
          "velocity": 0.7086614173228346,
          "duration": 0.41666649999999805
        },
        {
          "name": "D#5",
          "midi": 75,
          "time": 34.166653000000025,
          "velocity": 0.7086614173228346,
          "duration": 0.8333329999999961
        },
        {
          "name": "D#4",
          "midi": 63,
          "time": 34.166653000000025,
          "velocity": 0.7086614173228346,
          "duration": 0.41666649999999805
        },
        {
          "name": "A#4",
          "midi": 70,
          "time": 34.58331950000002,
          "velocity": 0.7086614173228346,
          "duration": 0.41666649999999805
        },
        {
          "name": "G#5",
          "midi": 80,
          "time": 34.99998600000002,
          "velocity": 0.7086614173228346,
          "duration": 0.8333329999999961
        },
        {
          "name": "G#4",
          "midi": 68,
          "time": 34.99998600000002,
          "velocity": 0.7086614173228346,
          "duration": 0.41666649999999805
        },
        {
          "name": "C5",
          "midi": 72,
          "time": 35.41665250000002,
          "velocity": 0.7086614173228346,
          "duration": 0.41666649999999805
        },
        {
          "name": "A#5",
          "midi": 82,
          "time": 35.83331900000002,
          "velocity": 0.7086614173228346,
          "duration": 0.8333329999999961
        },
        {
          "name": "G#4",
          "midi": 68,
          "time": 35.83331900000002,
          "velocity": 0.7086614173228346,
          "duration": 0.41666649999999805
        },
        {
          "name": "D5",
          "midi": 74,
          "time": 36.249985500000015,
          "velocity": 0.7086614173228346,
          "duration": 0.41666649999999805
        },
        {
          "name": "D#5",
          "midi": 75,
          "time": 36.66665200000001,
          "velocity": 0.7086614173228346,
          "duration": 2.4999989999999883
        },
        {
          "name": "G4",
          "midi": 67,
          "time": 36.66665200000001,
          "velocity": 0.7086614173228346,
          "duration": 0.41666649999999805
        },
        {
          "name": "A#4",
          "midi": 70,
          "time": 37.08331850000001,
          "velocity": 0.7086614173228346,
          "duration": 0.41666649999999805
        },
        {
          "name": "G4",
          "midi": 67,
          "time": 37.49998500000001,
          "velocity": 0.7086614173228346,
          "duration": 0.41666649999999805
        },
        {
          "name": "A#4",
          "midi": 70,
          "time": 37.91665150000001,
          "velocity": 0.7086614173228346,
          "duration": 0.41666649999999805
        },
        {
          "name": "G4",
          "midi": 67,
          "time": 38.333318000000006,
          "velocity": 0.7086614173228346,
          "duration": 0.41666649999999805
        },
        {
          "name": "A#4",
          "midi": 70,
          "time": 38.749984500000004,
          "velocity": 0.7086614173228346,
          "duration": 0.41666649999999805
        },
        {
          "name": "E5",
          "midi": 76,
          "time": 39.166651,
          "velocity": 0.7086614173228346,
          "duration": 0.8333329999999961
        },
        {
          "name": "G4",
          "midi": 67,
          "time": 39.166651,
          "velocity": 0.7086614173228346,
          "duration": 0.41666649999999805
        },
        {
          "name": "A#4",
          "midi": 70,
          "time": 39.5833175,
          "velocity": 0.7086614173228346,
          "duration": 0.41666649999999805
        },
        {
          "name": "F5",
          "midi": 77,
          "time": 39.999984,
          "velocity": 0.7086614173228346,
          "duration": 1.6666659999999922
        },
        {
          "name": "G4",
          "midi": 67,
          "time": 39.999984,
          "velocity": 0.7086614173228346,
          "duration": 0.41666649999999805
        },
        {
          "name": "A#4",
          "midi": 70,
          "time": 40.416650499999996,
          "velocity": 0.7086614173228346,
          "duration": 0.41666649999999805
        },
        {
          "name": "G4",
          "midi": 67,
          "time": 40.833316999999994,
          "velocity": 0.7086614173228346,
          "duration": 0.41666649999999805
        },
        {
          "name": "A#4",
          "midi": 70,
          "time": 41.24998349999999,
          "velocity": 0.7086614173228346,
          "duration": 0.41666649999999805
        },
        {
          "name": "A#4",
          "midi": 70,
          "time": 41.66664999999999,
          "velocity": 0.7086614173228346,
          "duration": 1.2499994999999942
        },
        {
          "name": "G4",
          "midi": 67,
          "time": 41.66664999999999,
          "velocity": 0.7086614173228346,
          "duration": 0.41666649999999805
        },
        {
          "name": "D#4",
          "midi": 63,
          "time": 42.08331649999999,
          "velocity": 0.7086614173228346,
          "duration": 0.41666649999999805
        },
        {
          "name": "G4",
          "midi": 67,
          "time": 42.499982999999986,
          "velocity": 0.7086614173228346,
          "duration": 0.41666649999999805
        },
        {
          "name": "C5",
          "midi": 72,
          "time": 42.916649499999984,
          "velocity": 0.7086614173228346,
          "duration": 0.20833325000000258
        },
        {
          "name": "D#4",
          "midi": 63,
          "time": 42.916649499999984,
          "velocity": 0.7086614173228346,
          "duration": 0.41666650000000516
        },
        {
          "name": "C#5",
          "midi": 73,
          "time": 43.12498274999999,
          "velocity": 0.7086614173228346,
          "duration": 0.20833325000000258
        },
        {
          "name": "D#5",
          "midi": 75,
          "time": 43.33331599999999,
          "velocity": 0.7086614173228346,
          "duration": 1.6666659999999922
        },
        {
          "name": "G#4",
          "midi": 68,
          "time": 43.33331599999999,
          "velocity": 0.7086614173228346,
          "duration": 0.41666649999999805
        },
        {
          "name": "D#4",
          "midi": 63,
          "time": 43.74998249999999,
          "velocity": 0.7086614173228346,
          "duration": 0.41666649999999805
        },
        {
          "name": "G#4",
          "midi": 68,
          "time": 44.166648999999985,
          "velocity": 0.7086614173228346,
          "duration": 0.41666649999999805
        },
        {
          "name": "D#4",
          "midi": 63,
          "time": 44.58331549999998,
          "velocity": 0.7086614173228346,
          "duration": 0.41666649999999805
        },
        {
          "name": "A4",
          "midi": 69,
          "time": 44.99998199999998,
          "velocity": 0.7086614173228346,
          "duration": 1.6666659999999922
        },
        {
          "name": "D#4",
          "midi": 63,
          "time": 44.99998199999998,
          "velocity": 0.7086614173228346,
          "duration": 0.41666649999999805
        },
        {
          "name": "C4",
          "midi": 60,
          "time": 45.41664849999998,
          "velocity": 0.7086614173228346,
          "duration": 0.41666649999999805
        },
        {
          "name": "D#4",
          "midi": 63,
          "time": 45.83331499999998,
          "velocity": 0.7086614173228346,
          "duration": 0.41666649999999805
        },
        {
          "name": "C4",
          "midi": 60,
          "time": 46.249981499999976,
          "velocity": 0.7086614173228346,
          "duration": 0.41666649999999805
        },
        {
          "name": "C#5",
          "midi": 73,
          "time": 46.666647999999974,
          "velocity": 0.7086614173228346,
          "duration": 1.6666659999999922
        },
        {
          "name": "F4",
          "midi": 65,
          "time": 46.666647999999974,
          "velocity": 0.7086614173228346,
          "duration": 0.41666649999999805
        },
        {
          "name": "C#4",
          "midi": 61,
          "time": 47.08331449999997,
          "velocity": 0.7086614173228346,
          "duration": 0.41666649999999805
        },
        {
          "name": "F4",
          "midi": 65,
          "time": 47.49998099999997,
          "velocity": 0.7086614173228346,
          "duration": 0.41666649999999805
        },
        {
          "name": "C#4",
          "midi": 61,
          "time": 47.91664749999997,
          "velocity": 0.7086614173228346,
          "duration": 0.41666649999999805
        },
        {
          "name": "C#4",
          "midi": 61,
          "time": 48.333313999999966,
          "velocity": 0.7086614173228346,
          "duration": 0.41666649999999805
        },
        {
          "name": "C5",
          "midi": 72,
          "time": 48.333313999999966,
          "velocity": 0.7086614173228346,
          "duration": 0.41666649999999805
        },
        {
          "name": "A#4",
          "midi": 70,
          "time": 48.749980499999964,
          "velocity": 0.7086614173228346,
          "duration": 0.41666649999999805
        },
        {
          "name": "C#4",
          "midi": 61,
          "time": 48.749980499999964,
          "velocity": 0.7086614173228346,
          "duration": 0.41666649999999805
        },
        {
          "name": "G#4",
          "midi": 68,
          "time": 49.16664699999996,
          "velocity": 0.7086614173228346,
          "duration": 0.41666649999999805
        },
        {
          "name": "C#4",
          "midi": 61,
          "time": 49.16664699999996,
          "velocity": 0.7086614173228346,
          "duration": 0.41666649999999805
        },
        {
          "name": "G4",
          "midi": 67,
          "time": 49.58331349999996,
          "velocity": 0.7086614173228346,
          "duration": 0.41666649999999805
        },
        {
          "name": "C#4",
          "midi": 61,
          "time": 49.58331349999996,
          "velocity": 0.7086614173228346,
          "duration": 0.41666649999999805
        },
        {
          "name": "A#4",
          "midi": 70,
          "time": 49.99997999999996,
          "velocity": 0.7086614173228346,
          "duration": 1.6666659999999922
        },
        {
          "name": "C#4",
          "midi": 61,
          "time": 49.99997999999996,
          "velocity": 0.7086614173228346,
          "duration": 0.41666649999999805
        },
        {
          "name": "D#4",
          "midi": 63,
          "time": 50.416646499999956,
          "velocity": 0.7086614173228346,
          "duration": 0.41666649999999805
        },
        {
          "name": "C#4",
          "midi": 61,
          "time": 50.833312999999954,
          "velocity": 0.7086614173228346,
          "duration": 0.41666649999999805
        },
        {
          "name": "D#4",
          "midi": 63,
          "time": 51.24997949999995,
          "velocity": 0.7086614173228346,
          "duration": 0.41666649999999805
        },
        {
          "name": "G#4",
          "midi": 68,
          "time": 51.66664599999995,
          "velocity": 0.7086614173228346,
          "duration": 0.8333330000000032
        },
        {
          "name": "C4",
          "midi": 60,
          "time": 51.66664599999995,
          "velocity": 0.7086614173228346,
          "duration": 0.8333330000000032
        },
        {
          "name": "C4",
          "midi": 60,
          "time": 53.124978749999954,
          "velocity": 0.7086614173228346,
          "duration": 0.20833325000000258
        },
        {
          "name": "C5",
          "midi": 72,
          "time": 53.33331199999996,
          "velocity": 0.7086614173228346,
          "duration": 2.0833324999999974
        },
        {
          "name": "G#5",
          "midi": 80,
          "time": 55.416644499999954,
          "velocity": 0.7086614173228346,
          "duration": 0.41666649999999805
        },
        {
          "name": "G5",
          "midi": 79,
          "time": 55.83331099999995,
          "velocity": 0.7086614173228346,
          "duration": 0.41666649999999805
        },
        {
          "name": "F5",
          "midi": 77,
          "time": 56.24997749999995,
          "velocity": 0.7086614173228346,
          "duration": 0.41666649999999805
        },
        {
          "name": "C6",
          "midi": 84,
          "time": 56.66664399999995,
          "velocity": 0.7086614173228346,
          "duration": 2.0833324999999974
        },
        {
          "name": "G#5",
          "midi": 80,
          "time": 58.749976499999946,
          "velocity": 0.7086614173228346,
          "duration": 0.41666649999999805
        },
        {
          "name": "G5",
          "midi": 79,
          "time": 59.166642999999944,
          "velocity": 0.7086614173228346,
          "duration": 0.41666649999999805
        },
        {
          "name": "F5",
          "midi": 77,
          "time": 59.58330949999994,
          "velocity": 0.7086614173228346,
          "duration": 0.41666649999999805
        },
        {
          "name": "C5",
          "midi": 72,
          "time": 59.99997599999994,
          "velocity": 0.7086614173228346,
          "duration": 2.0833324999999974
        },
        {
          "name": "G#5",
          "midi": 80,
          "time": 62.08330849999994,
          "velocity": 0.7086614173228346,
          "duration": 0.41666649999999805
        },
        {
          "name": "G5",
          "midi": 79,
          "time": 62.499974999999935,
          "velocity": 0.7086614173228346,
          "duration": 0.41666649999999805
        },
        {
          "name": "F5",
          "midi": 77,
          "time": 62.91664149999993,
          "velocity": 0.7086614173228346,
          "duration": 0.41666649999999805
        },
        {
          "name": "D#5",
          "midi": 75,
          "time": 63.33330799999993,
          "velocity": 0.7086614173228346,
          "duration": 0.8333329999999961
        },
        {
          "name": "D5",
          "midi": 74,
          "time": 64.16664099999993,
          "velocity": 0.7086614173228346,
          "duration": 1.6666660000000064
        },
        {
          "name": "F5",
          "midi": 77,
          "time": 65.83330699999993,
          "velocity": 0.7086614173228346,
          "duration": 0.6249997500000006
        },
        {
          "name": "D#5",
          "midi": 75,
          "time": 66.45830674999993,
          "velocity": 0.7086614173228346,
          "duration": 0.20833324999999547
        },
        {
          "name": "D#5",
          "midi": 75,
          "time": 66.66663999999993,
          "velocity": 0.7086614173228346,
          "duration": 1.6666660000000064
        },
        {
          "name": "F4",
          "midi": 65,
          "time": 68.33330599999994,
          "velocity": 0.7086614173228346,
          "duration": 1.2499995000000013
        },
        {
          "name": "G#4",
          "midi": 68,
          "time": 69.58330549999994,
          "velocity": 0.7086614173228346,
          "duration": 0.20833324999999547
        },
        {
          "name": "C5",
          "midi": 72,
          "time": 69.79163874999993,
          "velocity": 0.7086614173228346,
          "duration": 0.16059021354166703
        },
        {
          "name": "B4",
          "midi": 71,
          "time": 69.9522289635416,
          "velocity": 0.7086614173228346,
          "duration": 0.0130208281249935
        },
        {
          "name": "C5",
          "midi": 72,
          "time": 69.9652497916666,
          "velocity": 0.7086614173228346,
          "duration": 0.0130208281249935
        },
        {
          "name": "D5",
          "midi": 74,
          "time": 69.98261089583325,
          "velocity": 0.7086614173228346,
          "duration": 0.0130208281249935
        },
        {
          "name": "C5",
          "midi": 72,
          "time": 69.9999719999999,
          "velocity": 0.7086614173228346,
          "duration": 0.20833324999999547
        },
        {
          "name": "A#4",
          "midi": 70,
          "time": 70.2083052499999,
          "velocity": 0.7086614173228346,
          "duration": 0.20833324999999547
        },
        {
          "name": "G5",
          "midi": 79,
          "time": 70.41663849999989,
          "velocity": 0.7086614173228346,
          "duration": 0.8333329999999961
        },
        {
          "name": "F5",
          "midi": 77,
          "time": 71.24997149999989,
          "velocity": 0.7086614173228346,
          "duration": 0.20833324999999547
        },
        {
          "name": "D#5",
          "midi": 75,
          "time": 71.45830474999988,
          "velocity": 0.7086614173228346,
          "duration": 0.20833324999999547
        },
        {
          "name": "D5",
          "midi": 74,
          "time": 71.66663799999988,
          "velocity": 0.7086614173228346,
          "duration": 0.20833324999999547
        },
        {
          "name": "C5",
          "midi": 72,
          "time": 71.87497124999987,
          "velocity": 0.7086614173228346,
          "duration": 0.20833324999999547
        },
        {
          "name": "A#4",
          "midi": 70,
          "time": 72.08330449999987,
          "velocity": 0.7086614173228346,
          "duration": 0.20833324999999547
        },
        {
          "name": "A4",
          "midi": 69,
          "time": 72.29163774999986,
          "velocity": 0.7086614173228346,
          "duration": 0.20833324999999547
        },
        {
          "name": "C5",
          "midi": 72,
          "time": 72.49997099999986,
          "velocity": 0.7086614173228346,
          "duration": 0.20833324999999547
        },
        {
          "name": "A#4",
          "midi": 70,
          "time": 72.70830424999986,
          "velocity": 0.7086614173228346,
          "duration": 0.20833324999999547
        },
        {
          "name": "G#4",
          "midi": 68,
          "time": 72.91663749999985,
          "velocity": 0.7086614173228346,
          "duration": 0.20833324999999547
        },
        {
          "name": "F4",
          "midi": 65,
          "time": 73.12497074999985,
          "velocity": 0.7086614173228346,
          "duration": 0.20833324999999547
        },
        {
          "name": "D#4",
          "midi": 63,
          "time": 73.33330399999984,
          "velocity": 0.7086614173228346,
          "duration": 0.8333329999999961
        },
        {
          "name": "A#3",
          "midi": 58,
          "time": 74.58330349999984,
          "velocity": 0.7086614173228346,
          "duration": 0.41666650000000516
        },
        {
          "name": "G3",
          "midi": 55,
          "time": 74.99996999999985,
          "velocity": 0.7086614173228346,
          "duration": 0.41666650000000516
        },
        {
          "name": "A#3",
          "midi": 58,
          "time": 75.41663649999985,
          "velocity": 0.7086614173228346,
          "duration": 0.41666650000000516
        },
        {
          "name": "G3",
          "midi": 55,
          "time": 75.83330299999986,
          "velocity": 0.7086614173228346,
          "duration": 0.41666650000000516
        },
        {
          "name": "D#3",
          "midi": 51,
          "time": 76.24996949999986,
          "velocity": 0.7086614173228346,
          "duration": 0.41666650000000516
        },
        {
          "name": "G#3",
          "midi": 56,
          "time": 76.66663599999987,
          "velocity": 0.7086614173228346,
          "duration": 0.8333330000000103
        },
        {
          "name": "F3",
          "midi": 53,
          "time": 76.66663599999987,
          "velocity": 0.7086614173228346,
          "duration": 0.8333330000000103
        },
        {
          "name": "D#3",
          "midi": 51,
          "time": 76.66663599999987,
          "velocity": 0.7086614173228346,
          "duration": 0.41666650000000516
        },
        {
          "name": "D3",
          "midi": 50,
          "time": 77.08330249999987,
          "velocity": 0.7086614173228346,
          "duration": 0.41666650000000516
        },
        {
          "name": "D3",
          "midi": 50,
          "time": 77.49996899999988,
          "velocity": 0.7086614173228346,
          "duration": 0.41666650000000516
        },
        {
          "name": "F3",
          "midi": 53,
          "time": 77.49996899999988,
          "velocity": 0.7086614173228346,
          "duration": 0.8333330000000103
        },
        {
          "name": "G#3",
          "midi": 56,
          "time": 77.49996899999988,
          "velocity": 0.7086614173228346,
          "duration": 0.8333330000000103
        },
        {
          "name": "C3",
          "midi": 48,
          "time": 77.91663549999988,
          "velocity": 0.7086614173228346,
          "duration": 0.41666650000000516
        },
        {
          "name": "G#3",
          "midi": 56,
          "time": 78.33330199999989,
          "velocity": 0.7086614173228346,
          "duration": 0.8333330000000103
        },
        {
          "name": "F3",
          "midi": 53,
          "time": 78.33330199999989,
          "velocity": 0.7086614173228346,
          "duration": 0.8333330000000103
        },
        {
          "name": "C3",
          "midi": 48,
          "time": 78.33330199999989,
          "velocity": 0.7086614173228346,
          "duration": 0.41666650000000516
        },
        {
          "name": "B2",
          "midi": 47,
          "time": 78.7499684999999,
          "velocity": 0.7086614173228346,
          "duration": 0.41666650000000516
        },
        {
          "name": "G#3",
          "midi": 56,
          "time": 79.1666349999999,
          "velocity": 0.7086614173228346,
          "duration": 0.8333330000000103
        },
        {
          "name": "F3",
          "midi": 53,
          "time": 79.1666349999999,
          "velocity": 0.7086614173228346,
          "duration": 0.8333330000000103
        },
        {
          "name": "D3",
          "midi": 50,
          "time": 79.1666349999999,
          "velocity": 0.7086614173228346,
          "duration": 0.8333330000000103
        },
        {
          "name": "B2",
          "midi": 47,
          "time": 79.1666349999999,
          "velocity": 0.7086614173228346,
          "duration": 0.41666650000000516
        },
        {
          "name": "A#2",
          "midi": 46,
          "time": 79.5833014999999,
          "velocity": 0.7086614173228346,
          "duration": 0.41666650000000516
        },
        {
          "name": "G3",
          "midi": 55,
          "time": 79.99996799999991,
          "velocity": 0.7086614173228346,
          "duration": 0.8333329999999961
        },
        {
          "name": "D#3",
          "midi": 51,
          "time": 79.99996799999991,
          "velocity": 0.7086614173228346,
          "duration": 0.8333329999999961
        },
        {
          "name": "A#2",
          "midi": 46,
          "time": 79.99996799999991,
          "velocity": 0.7086614173228346,
          "duration": 0.8333329999999961
        },
        {
          "name": "A#3",
          "midi": 58,
          "time": 82.49996699999991,
          "velocity": 0.7086614173228346,
          "duration": 0.6249997500000006
        },
        {
          "name": "D#4",
          "midi": 63,
          "time": 83.12496674999991,
          "velocity": 0.7086614173228346,
          "duration": 0.20833324999999547
        },
        {
          "name": "D#4",
          "midi": 63,
          "time": 83.33329999999991,
          "velocity": 0.7086614173228346,
          "duration": 0.41666650000000516
        },
        {
          "name": "G#3",
          "midi": 56,
          "time": 83.33329999999991,
          "velocity": 0.7086614173228346,
          "duration": 1.6666660000000206
        },
        {
          "name": "F3",
          "midi": 53,
          "time": 83.33329999999991,
          "velocity": 0.7086614173228346,
          "duration": 1.6666660000000206
        },
        {
          "name": "D4",
          "midi": 62,
          "time": 83.74996649999991,
          "velocity": 0.7086614173228346,
          "duration": 0.41666650000000516
        },
        {
          "name": "D4",
          "midi": 62,
          "time": 84.16663299999992,
          "velocity": 0.7086614173228346,
          "duration": 0.41666650000000516
        },
        {
          "name": "C4",
          "midi": 60,
          "time": 84.58329949999992,
          "velocity": 0.7086614173228346,
          "duration": 0.41666650000000516
        },
        {
          "name": "C4",
          "midi": 60,
          "time": 84.99996599999993,
          "velocity": 0.7086614173228346,
          "duration": 0.41666650000000516
        },
        {
          "name": "G#3",
          "midi": 56,
          "time": 84.99996599999993,
          "velocity": 0.7086614173228346,
          "duration": 1.6666660000000206
        },
        {
          "name": "F3",
          "midi": 53,
          "time": 84.99996599999993,
          "velocity": 0.7086614173228346,
          "duration": 1.6666660000000206
        },
        {
          "name": "B3",
          "midi": 59,
          "time": 85.41663249999993,
          "velocity": 0.7086614173228346,
          "duration": 0.41666650000000516
        },
        {
          "name": "B3",
          "midi": 59,
          "time": 85.83329899999994,
          "velocity": 0.7086614173228346,
          "duration": 0.41666650000000516
        },
        {
          "name": "A#3",
          "midi": 58,
          "time": 86.24996549999994,
          "velocity": 0.7086614173228346,
          "duration": 0.41666650000000516
        },
        {
          "name": "A#3",
          "midi": 58,
          "time": 86.66663199999995,
          "velocity": 0.7086614173228346,
          "duration": 6.6666640000000825
        },
        {
          "name": "G3",
          "midi": 55,
          "time": 86.66663199999995,
          "velocity": 0.7086614173228346,
          "duration": 6.6666640000000825
        },
        {
          "name": "F3",
          "midi": 53,
          "time": 86.66663199999995,
          "velocity": 0.7086614173228346,
          "duration": 0.41666650000000516
        },
        {
          "name": "E3",
          "midi": 52,
          "time": 87.08329849999996,
          "velocity": 0.7086614173228346,
          "duration": 0.41666650000000516
        },
        {
          "name": "E3",
          "midi": 52,
          "time": 87.49996499999996,
          "velocity": 0.7086614173228346,
          "duration": 0.41666650000000516
        },
        {
          "name": "D#3",
          "midi": 51,
          "time": 87.91663149999997,
          "velocity": 0.7086614173228346,
          "duration": 0.41666650000000516
        },
        {
          "name": "D#3",
          "midi": 51,
          "time": 88.33329799999997,
          "velocity": 0.7086614173228346,
          "duration": 0.41666650000000516
        },
        {
          "name": "D3",
          "midi": 50,
          "time": 88.74996449999998,
          "velocity": 0.7086614173228346,
          "duration": 0.41666650000000516
        },
        {
          "name": "D3",
          "midi": 50,
          "time": 89.16663099999998,
          "velocity": 0.7086614173228346,
          "duration": 0.41666650000000516
        },
        {
          "name": "D#3",
          "midi": 51,
          "time": 89.58329749999999,
          "velocity": 0.7086614173228346,
          "duration": 0.41666650000000516
        },
        {
          "name": "D#3",
          "midi": 51,
          "time": 89.99996399999999,
          "velocity": 0.7086614173228346,
          "duration": 0.41666650000000516
        },
        {
          "name": "E3",
          "midi": 52,
          "time": 90.4166305,
          "velocity": 0.7086614173228346,
          "duration": 0.41666650000000516
        },
        {
          "name": "E3",
          "midi": 52,
          "time": 90.833297,
          "velocity": 0.7086614173228346,
          "duration": 0.41666650000000516
        },
        {
          "name": "D#3",
          "midi": 51,
          "time": 91.2499635,
          "velocity": 0.7086614173228346,
          "duration": 0.41666650000000516
        },
        {
          "name": "D#3",
          "midi": 51,
          "time": 91.66663000000001,
          "velocity": 0.7086614173228346,
          "duration": 0.41666650000000516
        },
        {
          "name": "D3",
          "midi": 50,
          "time": 92.08329650000002,
          "velocity": 0.7086614173228346,
          "duration": 0.41666650000000516
        },
        {
          "name": "D3",
          "midi": 50,
          "time": 92.49996300000002,
          "velocity": 0.7086614173228346,
          "duration": 0.41666650000000516
        },
        {
          "name": "C#3",
          "midi": 49,
          "time": 92.91662950000003,
          "velocity": 0.7086614173228346,
          "duration": 0.41666650000000516
        },
        {
          "name": "C4",
          "midi": 60,
          "time": 93.33329600000003,
          "velocity": 0.7086614173228346,
          "duration": 1.6666660000000206
        },
        {
          "name": "G#3",
          "midi": 56,
          "time": 93.33329600000003,
          "velocity": 0.7086614173228346,
          "duration": 0.8333330000000103
        },
        {
          "name": "C3",
          "midi": 48,
          "time": 93.33329600000003,
          "velocity": 0.7086614173228346,
          "duration": 0.41666650000000516
        },
        {
          "name": "D#3",
          "midi": 51,
          "time": 93.74996250000004,
          "velocity": 0.7086614173228346,
          "duration": 0.41666650000000516
        },
        {
          "name": "G#3",
          "midi": 56,
          "time": 94.16662900000004,
          "velocity": 0.7086614173228346,
          "duration": 0.8333330000000103
        },
        {
          "name": "D#3",
          "midi": 51,
          "time": 94.58329550000005,
          "velocity": 0.7086614173228346,
          "duration": 0.41666650000000516
        },
        {
          "name": "G3",
          "midi": 55,
          "time": 94.99996200000005,
          "velocity": 0.7086614173228346,
          "duration": 0.41666650000000516
        },
        {
          "name": "A#3",
          "midi": 58,
          "time": 94.99996200000005,
          "velocity": 0.7086614173228346,
          "duration": 1.6666660000000206
        },
        {
          "name": "D#3",
          "midi": 51,
          "time": 95.41662850000006,
          "velocity": 0.7086614173228346,
          "duration": 0.41666650000000516
        },
        {
          "name": "G3",
          "midi": 55,
          "time": 95.83329500000006,
          "velocity": 0.7086614173228346,
          "duration": 0.41666650000000516
        },
        {
          "name": "D#3",
          "midi": 51,
          "time": 96.24996150000007,
          "velocity": 0.7086614173228346,
          "duration": 0.41666650000000516
        },
        {
          "name": "D#4",
          "midi": 63,
          "time": 96.66662800000007,
          "velocity": 0.7086614173228346,
          "duration": 2.499999000000031
        },
        {
          "name": "G#3",
          "midi": 56,
          "time": 96.66662800000007,
          "velocity": 0.7086614173228346,
          "duration": 0.41666650000000516
        },
        {
          "name": "D#3",
          "midi": 51,
          "time": 97.08329450000008,
          "velocity": 0.7086614173228346,
          "duration": 0.41666650000000516
        },
        {
          "name": "G#3",
          "midi": 56,
          "time": 97.49996100000008,
          "velocity": 0.7086614173228346,
          "duration": 0.41666650000000516
        },
        {
          "name": "D#3",
          "midi": 51,
          "time": 97.91662750000009,
          "velocity": 0.7086614173228346,
          "duration": 0.41666650000000516
        },
        {
          "name": "A#3",
          "midi": 58,
          "time": 98.3332940000001,
          "velocity": 0.7086614173228346,
          "duration": 0.41666650000000516
        },
        {
          "name": "D#3",
          "midi": 51,
          "time": 98.7499605000001,
          "velocity": 0.7086614173228346,
          "duration": 0.41666650000000516
        },
        {
          "name": "C#4",
          "midi": 61,
          "time": 99.1666270000001,
          "velocity": 0.7086614173228346,
          "duration": 0.8333330000000103
        },
        {
          "name": "A#3",
          "midi": 58,
          "time": 99.1666270000001,
          "velocity": 0.7086614173228346,
          "duration": 0.41666650000000516
        },
        {
          "name": "D#3",
          "midi": 51,
          "time": 99.58329350000011,
          "velocity": 0.7086614173228346,
          "duration": 0.41666650000000516
        },
        {
          "name": "C4",
          "midi": 60,
          "time": 99.99996000000012,
          "velocity": 0.7086614173228346,
          "duration": 0.8333330000000103
        },
        {
          "name": "G#3",
          "midi": 56,
          "time": 99.99996000000012,
          "velocity": 0.7086614173228346,
          "duration": 0.41666650000000516
        },
        {
          "name": "D#3",
          "midi": 51,
          "time": 100.41662650000012,
          "velocity": 0.7086614173228346,
          "duration": 0.41666650000000516
        },
        {
          "name": "D#4",
          "midi": 63,
          "time": 100.83329300000013,
          "velocity": 0.7086614173228346,
          "duration": 0.8333330000000103
        },
        {
          "name": "A#3",
          "midi": 58,
          "time": 100.83329300000013,
          "velocity": 0.7086614173228346,
          "duration": 0.41666650000000516
        },
        {
          "name": "D#3",
          "midi": 51,
          "time": 101.24995950000013,
          "velocity": 0.7086614173228346,
          "duration": 0.41666650000000516
        },
        {
          "name": "G#4",
          "midi": 68,
          "time": 101.66662600000014,
          "velocity": 0.7086614173228346,
          "duration": 0.8333330000000103
        },
        {
          "name": "C4",
          "midi": 60,
          "time": 101.66662600000014,
          "velocity": 0.7086614173228346,
          "duration": 0.41666650000000516
        },
        {
          "name": "G#3",
          "midi": 56,
          "time": 102.08329250000014,
          "velocity": 0.7086614173228346,
          "duration": 0.41666650000000516
        },
        {
          "name": "A#4",
          "midi": 70,
          "time": 102.49995900000015,
          "velocity": 0.7086614173228346,
          "duration": 0.8333330000000103
        },
        {
          "name": "D4",
          "midi": 62,
          "time": 102.49995900000015,
          "velocity": 0.7086614173228346,
          "duration": 0.41666650000000516
        },
        {
          "name": "G#3",
          "midi": 56,
          "time": 102.91662550000015,
          "velocity": 0.7086614173228346,
          "duration": 0.41666650000000516
        },
        {
          "name": "D#4",
          "midi": 63,
          "time": 103.33329200000016,
          "velocity": 0.7086614173228346,
          "duration": 2.499999000000031
        },
        {
          "name": "G3",
          "midi": 55,
          "time": 103.33329200000016,
          "velocity": 0.7086614173228346,
          "duration": 0.41666650000000516
        },
        {
          "name": "A#3",
          "midi": 58,
          "time": 103.74995850000016,
          "velocity": 0.7086614173228346,
          "duration": 0.41666650000000516
        },
        {
          "name": "G3",
          "midi": 55,
          "time": 104.16662500000017,
          "velocity": 0.7086614173228346,
          "duration": 0.41666650000000516
        },
        {
          "name": "A#3",
          "midi": 58,
          "time": 104.58329150000017,
          "velocity": 0.7086614173228346,
          "duration": 0.41666650000000516
        },
        {
          "name": "G3",
          "midi": 55,
          "time": 104.99995800000018,
          "velocity": 0.7086614173228346,
          "duration": 0.41666650000000516
        },
        {
          "name": "A#3",
          "midi": 58,
          "time": 105.41662450000018,
          "velocity": 0.7086614173228346,
          "duration": 0.41666650000000516
        },
        {
          "name": "G3",
          "midi": 55,
          "time": 105.83329100000019,
          "velocity": 0.7086614173228346,
          "duration": 0.41666650000000516
        },
        {
          "name": "E4",
          "midi": 64,
          "time": 105.83329100000019,
          "velocity": 0.7086614173228346,
          "duration": 0.8333330000000103
        },
        {
          "name": "A#3",
          "midi": 58,
          "time": 106.24995750000019,
          "velocity": 0.7086614173228346,
          "duration": 0.41666650000000516
        },
        {
          "name": "F4",
          "midi": 65,
          "time": 106.6666240000002,
          "velocity": 0.7086614173228346,
          "duration": 1.6666660000000206
        },
        {
          "name": "G3",
          "midi": 55,
          "time": 106.6666240000002,
          "velocity": 0.7086614173228346,
          "duration": 0.41666650000000516
        },
        {
          "name": "A#3",
          "midi": 58,
          "time": 107.0832905000002,
          "velocity": 0.7086614173228346,
          "duration": 0.41666650000000516
        },
        {
          "name": "G3",
          "midi": 55,
          "time": 107.49995700000021,
          "velocity": 0.7086614173228346,
          "duration": 0.41666650000000516
        },
        {
          "name": "A#3",
          "midi": 58,
          "time": 107.91662350000021,
          "velocity": 0.7086614173228346,
          "duration": 0.41666650000000516
        },
        {
          "name": "G3",
          "midi": 55,
          "time": 108.33329000000022,
          "velocity": 0.7086614173228346,
          "duration": 0.41666650000000516
        },
        {
          "name": "A#3",
          "midi": 58,
          "time": 108.33329000000022,
          "velocity": 0.7086614173228346,
          "duration": 1.2499995000000155
        },
        {
          "name": "D#3",
          "midi": 51,
          "time": 108.74995650000022,
          "velocity": 0.7086614173228346,
          "duration": 0.41666650000000516
        },
        {
          "name": "G3",
          "midi": 55,
          "time": 109.16662300000023,
          "velocity": 0.7086614173228346,
          "duration": 0.41666650000000516
        },
        {
          "name": "C4",
          "midi": 60,
          "time": 109.58328950000023,
          "velocity": 0.7086614173228346,
          "duration": 0.20833324999999547
        },
        {
          "name": "D#3",
          "midi": 51,
          "time": 109.58328950000023,
          "velocity": 0.7086614173228346,
          "duration": 0.41666649999999095
        },
        {
          "name": "C#4",
          "midi": 61,
          "time": 109.79162275000023,
          "velocity": 0.7086614173228346,
          "duration": 0.20833324999999547
        },
        {
          "name": "D#4",
          "midi": 63,
          "time": 109.99995600000022,
          "velocity": 0.7086614173228346,
          "duration": 1.6666660000000206
        },
        {
          "name": "G#3",
          "midi": 56,
          "time": 109.99995600000022,
          "velocity": 0.7086614173228346,
          "duration": 0.41666650000000516
        },
        {
          "name": "D#3",
          "midi": 51,
          "time": 110.41662250000023,
          "velocity": 0.7086614173228346,
          "duration": 0.41666650000000516
        },
        {
          "name": "G#3",
          "midi": 56,
          "time": 110.83328900000024,
          "velocity": 0.7086614173228346,
          "duration": 0.41666650000000516
        },
        {
          "name": "D#3",
          "midi": 51,
          "time": 111.24995550000024,
          "velocity": 0.7086614173228346,
          "duration": 0.41666650000000516
        },
        {
          "name": "A3",
          "midi": 57,
          "time": 111.66662200000025,
          "velocity": 0.7086614173228346,
          "duration": 1.6666660000000206
        },
        {
          "name": "D#3",
          "midi": 51,
          "time": 111.66662200000025,
          "velocity": 0.7086614173228346,
          "duration": 0.41666650000000516
        },
        {
          "name": "C3",
          "midi": 48,
          "time": 112.08328850000025,
          "velocity": 0.7086614173228346,
          "duration": 0.41666650000000516
        },
        {
          "name": "D#3",
          "midi": 51,
          "time": 112.49995500000026,
          "velocity": 0.7086614173228346,
          "duration": 0.41666650000000516
        },
        {
          "name": "C3",
          "midi": 48,
          "time": 112.91662150000026,
          "velocity": 0.7086614173228346,
          "duration": 0.41666650000000516
        },
        {
          "name": "F3",
          "midi": 53,
          "time": 113.33328800000027,
          "velocity": 0.7086614173228346,
          "duration": 0.41666650000000516
        },
        {
          "name": "C#4",
          "midi": 61,
          "time": 113.33328800000027,
          "velocity": 0.7086614173228346,
          "duration": 1.6666660000000206
        },
        {
          "name": "C#3",
          "midi": 49,
          "time": 113.74995450000027,
          "velocity": 0.7086614173228346,
          "duration": 0.41666650000000516
        },
        {
          "name": "F3",
          "midi": 53,
          "time": 114.16662100000028,
          "velocity": 0.7086614173228346,
          "duration": 0.41666650000000516
        },
        {
          "name": "C#3",
          "midi": 49,
          "time": 114.58328750000028,
          "velocity": 0.7086614173228346,
          "duration": 0.41666650000000516
        },
        {
          "name": "C4",
          "midi": 60,
          "time": 114.99995400000029,
          "velocity": 0.7086614173228346,
          "duration": 0.41666650000000516
        },
        {
          "name": "C#3",
          "midi": 49,
          "time": 114.99995400000029,
          "velocity": 0.7086614173228346,
          "duration": 0.41666650000000516
        },
        {
          "name": "A#3",
          "midi": 58,
          "time": 115.41662050000029,
          "velocity": 0.7086614173228346,
          "duration": 0.41666650000000516
        },
        {
          "name": "C#3",
          "midi": 49,
          "time": 115.41662050000029,
          "velocity": 0.7086614173228346,
          "duration": 0.41666650000000516
        },
        {
          "name": "G#3",
          "midi": 56,
          "time": 115.8332870000003,
          "velocity": 0.7086614173228346,
          "duration": 0.41666650000000516
        },
        {
          "name": "C#3",
          "midi": 49,
          "time": 115.8332870000003,
          "velocity": 0.7086614173228346,
          "duration": 0.41666650000000516
        },
        {
          "name": "G3",
          "midi": 55,
          "time": 116.2499535000003,
          "velocity": 0.7086614173228346,
          "duration": 0.41666650000000516
        },
        {
          "name": "C#3",
          "midi": 49,
          "time": 116.2499535000003,
          "velocity": 0.7086614173228346,
          "duration": 0.41666650000000516
        },
        {
          "name": "A#3",
          "midi": 58,
          "time": 116.66662000000031,
          "velocity": 0.7086614173228346,
          "duration": 1.6666660000000206
        },
        {
          "name": "G3",
          "midi": 55,
          "time": 116.66662000000031,
          "velocity": 0.7086614173228346,
          "duration": 1.6666660000000206
        },
        {
          "name": "C#3",
          "midi": 49,
          "time": 116.66662000000031,
          "velocity": 0.7086614173228346,
          "duration": 0.41666650000000516
        },
        {
          "name": "D#3",
          "midi": 51,
          "time": 117.08328650000031,
          "velocity": 0.7086614173228346,
          "duration": 0.41666650000000516
        },
        {
          "name": "C#3",
          "midi": 49,
          "time": 117.49995300000032,
          "velocity": 0.7086614173228346,
          "duration": 0.41666650000000516
        },
        {
          "name": "D#3",
          "midi": 51,
          "time": 117.91661950000032,
          "velocity": 0.7086614173228346,
          "duration": 0.41666650000000516
        },
        {
          "name": "G#3",
          "midi": 56,
          "time": 118.33328600000033,
          "velocity": 0.7086614173228346,
          "duration": 0.8333329999999961
        },
        {
          "name": "C3",
          "midi": 48,
          "time": 118.33328600000033,
          "velocity": 0.7086614173228346,
          "duration": 0.8333329999999961
        },
        {
          "name": "D#4",
          "midi": 63,
          "time": 119.16661900000032,
          "velocity": 0.7086614173228346,
          "duration": 0.8333329999999961
        },
        {
          "name": "G#4",
          "midi": 68,
          "time": 119.99995200000032,
          "velocity": 0.7086614173228346,
          "duration": 0.8333329999999961
        },
        {
          "name": "D#4",
          "midi": 63,
          "time": 119.99995200000032,
          "velocity": 0.7086614173228346,
          "duration": 0.27777766666666537
        },
        {
          "name": "B3",
          "midi": 59,
          "time": 119.99995200000032,
          "velocity": 0.7086614173228346,
          "duration": 0.27777766666666537
        },
        {
          "name": "B3",
          "midi": 59,
          "time": 120.27772966666699,
          "velocity": 0.7086614173228346,
          "duration": 0.27777766666666537
        },
        {
          "name": "D#4",
          "midi": 63,
          "time": 120.27772966666699,
          "velocity": 0.7086614173228346,
          "duration": 0.27777766666666537
        },
        {
          "name": "D#4",
          "midi": 63,
          "time": 120.55550733333365,
          "velocity": 0.7086614173228346,
          "duration": 0.27777766666666537
        },
        {
          "name": "B3",
          "midi": 59,
          "time": 120.55550733333365,
          "velocity": 0.7086614173228346,
          "duration": 0.27777766666666537
        },
        {
          "name": "B4",
          "midi": 71,
          "time": 120.83328500000032,
          "velocity": 0.7086614173228346,
          "duration": 0.8333329999999961
        },
        {
          "name": "D#4",
          "midi": 63,
          "time": 120.83328500000032,
          "velocity": 0.7086614173228346,
          "duration": 0.27777766666666537
        },
        {
          "name": "B3",
          "midi": 59,
          "time": 120.83328500000032,
          "velocity": 0.7086614173228346,
          "duration": 0.27777766666666537
        },
        {
          "name": "D#4",
          "midi": 63,
          "time": 121.11106266666698,
          "velocity": 0.7086614173228346,
          "duration": 0.27777766666666537
        },
        {
          "name": "B3",
          "midi": 59,
          "time": 121.11106266666698,
          "velocity": 0.7086614173228346,
          "duration": 0.27777766666666537
        },
        {
          "name": "B3",
          "midi": 59,
          "time": 121.38884033333365,
          "velocity": 0.7086614173228346,
          "duration": 0.27777766666666537
        },
        {
          "name": "D#4",
          "midi": 63,
          "time": 121.38884033333365,
          "velocity": 0.7086614173228346,
          "duration": 0.27777766666666537
        },
        {
          "name": "A#4",
          "midi": 70,
          "time": 121.66661800000031,
          "velocity": 0.7086614173228346,
          "duration": 0.8333329999999961
        },
        {
          "name": "D#4",
          "midi": 63,
          "time": 121.66661800000031,
          "velocity": 0.7086614173228346,
          "duration": 0.27777766666666537
        },
        {
          "name": "B3",
          "midi": 59,
          "time": 121.66661800000031,
          "velocity": 0.7086614173228346,
          "duration": 0.27777766666666537
        },
        {
          "name": "D#4",
          "midi": 63,
          "time": 121.94439566666698,
          "velocity": 0.7086614173228346,
          "duration": 0.27777766666666537
        },
        {
          "name": "B3",
          "midi": 59,
          "time": 121.94439566666698,
          "velocity": 0.7086614173228346,
          "duration": 0.27777766666666537
        },
        {
          "name": "D#4",
          "midi": 63,
          "time": 122.22217333333364,
          "velocity": 0.7086614173228346,
          "duration": 0.27777766666666537
        },
        {
          "name": "B3",
          "midi": 59,
          "time": 122.22217333333364,
          "velocity": 0.7086614173228346,
          "duration": 0.27777766666666537
        },
        {
          "name": "G#4",
          "midi": 68,
          "time": 122.49995100000031,
          "velocity": 0.7086614173228346,
          "duration": 0.8333329999999961
        },
        {
          "name": "D#4",
          "midi": 63,
          "time": 122.49995100000031,
          "velocity": 0.7086614173228346,
          "duration": 0.27777766666666537
        },
        {
          "name": "B3",
          "midi": 59,
          "time": 122.49995100000031,
          "velocity": 0.7086614173228346,
          "duration": 0.27777766666666537
        },
        {
          "name": "D#4",
          "midi": 63,
          "time": 122.77772866666697,
          "velocity": 0.7086614173228346,
          "duration": 0.27777766666666537
        },
        {
          "name": "B3",
          "midi": 59,
          "time": 122.77772866666697,
          "velocity": 0.7086614173228346,
          "duration": 0.27777766666666537
        },
        {
          "name": "D#4",
          "midi": 63,
          "time": 123.05550633333364,
          "velocity": 0.7086614173228346,
          "duration": 0.27777766666666537
        },
        {
          "name": "B3",
          "midi": 59,
          "time": 123.05550633333364,
          "velocity": 0.7086614173228346,
          "duration": 0.27777766666666537
        },
        {
          "name": "C#4",
          "midi": 61,
          "time": 123.3332840000003,
          "velocity": 0.7086614173228346,
          "duration": 0.27777766666666537
        },
        {
          "name": "D#4",
          "midi": 63,
          "time": 123.3332840000003,
          "velocity": 0.7086614173228346,
          "duration": 0.27777766666666537
        },
        {
          "name": "G4",
          "midi": 67,
          "time": 123.3332840000003,
          "velocity": 0.7086614173228346,
          "duration": 0.8333329999999961
        },
        {
          "name": "D#4",
          "midi": 63,
          "time": 123.61106166666697,
          "velocity": 0.7086614173228346,
          "duration": 0.27777766666666537
        },
        {
          "name": "C#4",
          "midi": 61,
          "time": 123.61106166666697,
          "velocity": 0.7086614173228346,
          "duration": 0.27777766666666537
        },
        {
          "name": "D#4",
          "midi": 63,
          "time": 123.88883933333364,
          "velocity": 0.7086614173228346,
          "duration": 0.27777766666666537
        },
        {
          "name": "C#4",
          "midi": 61,
          "time": 123.88883933333364,
          "velocity": 0.7086614173228346,
          "duration": 0.27777766666666537
        },
        {
          "name": "C#5",
          "midi": 73,
          "time": 124.1666170000003,
          "velocity": 0.7086614173228346,
          "duration": 0.8333329999999961
        },
        {
          "name": "D#4",
          "midi": 63,
          "time": 124.1666170000003,
          "velocity": 0.7086614173228346,
          "duration": 0.27777766666666537
        },
        {
          "name": "C#4",
          "midi": 61,
          "time": 124.1666170000003,
          "velocity": 0.7086614173228346,
          "duration": 0.27777766666666537
        },
        {
          "name": "D#4",
          "midi": 63,
          "time": 124.44439466666697,
          "velocity": 0.7086614173228346,
          "duration": 0.27777766666666537
        },
        {
          "name": "C#4",
          "midi": 61,
          "time": 124.44439466666697,
          "velocity": 0.7086614173228346,
          "duration": 0.27777766666666537
        },
        {
          "name": "D#4",
          "midi": 63,
          "time": 124.72217233333363,
          "velocity": 0.7086614173228346,
          "duration": 0.27777766666666537
        },
        {
          "name": "C#4",
          "midi": 61,
          "time": 124.72217233333363,
          "velocity": 0.7086614173228346,
          "duration": 0.27777766666666537
        },
        {
          "name": "D#4",
          "midi": 63,
          "time": 124.9999500000003,
          "velocity": 0.7086614173228346,
          "duration": 0.27777766666666537
        },
        {
          "name": "C#4",
          "midi": 61,
          "time": 124.9999500000003,
          "velocity": 0.7086614173228346,
          "duration": 0.27777766666666537
        },
        {
          "name": "C#4",
          "midi": 61,
          "time": 125.27772766666696,
          "velocity": 0.7086614173228346,
          "duration": 0.27777766666666537
        },
        {
          "name": "D#4",
          "midi": 63,
          "time": 125.27772766666696,
          "velocity": 0.7086614173228346,
          "duration": 0.27777766666666537
        },
        {
          "name": "D#4",
          "midi": 63,
          "time": 125.55550533333363,
          "velocity": 0.7086614173228346,
          "duration": 0.27777766666666537
        },
        {
          "name": "C#4",
          "midi": 61,
          "time": 125.55550533333363,
          "velocity": 0.7086614173228346,
          "duration": 0.27777766666666537
        },
        {
          "name": "D#4",
          "midi": 63,
          "time": 125.83328300000029,
          "velocity": 0.7086614173228346,
          "duration": 0.27777766666666537
        },
        {
          "name": "C#4",
          "midi": 61,
          "time": 125.83328300000029,
          "velocity": 0.7086614173228346,
          "duration": 0.27777766666666537
        },
        {
          "name": "D#4",
          "midi": 63,
          "time": 126.11106066666696,
          "velocity": 0.7086614173228346,
          "duration": 0.27777766666666537
        },
        {
          "name": "C#4",
          "midi": 61,
          "time": 126.11106066666696,
          "velocity": 0.7086614173228346,
          "duration": 0.27777766666666537
        },
        {
          "name": "C#4",
          "midi": 61,
          "time": 126.38883833333362,
          "velocity": 0.7086614173228346,
          "duration": 0.27777766666666537
        },
        {
          "name": "D#4",
          "midi": 63,
          "time": 126.38883833333362,
          "velocity": 0.7086614173228346,
          "duration": 0.27777766666666537
        },
        {
          "name": "G#4",
          "midi": 68,
          "time": 126.66661600000029,
          "velocity": 0.7086614173228346,
          "duration": 0.8333329999999961
        },
        {
          "name": "D#4",
          "midi": 63,
          "time": 126.66661600000029,
          "velocity": 0.7086614173228346,
          "duration": 0.27777766666666537
        },
        {
          "name": "B3",
          "midi": 59,
          "time": 126.66661600000029,
          "velocity": 0.7086614173228346,
          "duration": 0.27777766666666537
        },
        {
          "name": "D#4",
          "midi": 63,
          "time": 126.94439366666695,
          "velocity": 0.7086614173228346,
          "duration": 0.27777766666666537
        },
        {
          "name": "B3",
          "midi": 59,
          "time": 126.94439366666695,
          "velocity": 0.7086614173228346,
          "duration": 0.27777766666666537
        },
        {
          "name": "D#4",
          "midi": 63,
          "time": 127.22217133333362,
          "velocity": 0.7086614173228346,
          "duration": 0.27777766666666537
        },
        {
          "name": "B3",
          "midi": 59,
          "time": 127.22217133333362,
          "velocity": 0.7086614173228346,
          "duration": 0.27777766666666537
        },
        {
          "name": "B3",
          "midi": 59,
          "time": 127.49994900000029,
          "velocity": 0.7086614173228346,
          "duration": 0.27777766666666537
        },
        {
          "name": "D#4",
          "midi": 63,
          "time": 127.49994900000029,
          "velocity": 0.7086614173228346,
          "duration": 0.27777766666666537
        },
        {
          "name": "B4",
          "midi": 71,
          "time": 127.49994900000029,
          "velocity": 0.7086614173228346,
          "duration": 0.8333330000000245
        },
        {
          "name": "D#4",
          "midi": 63,
          "time": 127.77772666666695,
          "velocity": 0.7086614173228346,
          "duration": 0.2777776666666796
        },
        {
          "name": "B3",
          "midi": 59,
          "time": 127.77772666666695,
          "velocity": 0.7086614173228346,
          "duration": 0.2777776666666796
        },
        {
          "name": "D#4",
          "midi": 63,
          "time": 128.05550433333363,
          "velocity": 0.7086614173228346,
          "duration": 0.2777776666666796
        },
        {
          "name": "B3",
          "midi": 59,
          "time": 128.05550433333363,
          "velocity": 0.7086614173228346,
          "duration": 0.2777776666666796
        },
        {
          "name": "B3",
          "midi": 59,
          "time": 128.3332820000003,
          "velocity": 0.7086614173228346,
          "duration": 0.2777776666666796
        },
        {
          "name": "D#4",
          "midi": 63,
          "time": 128.3332820000003,
          "velocity": 0.7086614173228346,
          "duration": 0.2777776666666796
        },
        {
          "name": "A#4",
          "midi": 70,
          "time": 128.3332820000003,
          "velocity": 0.7086614173228346,
          "duration": 0.8333330000000387
        },
        {
          "name": "D#4",
          "midi": 63,
          "time": 128.611059666667,
          "velocity": 0.7086614173228346,
          "duration": 0.2777776666666796
        },
        {
          "name": "B3",
          "midi": 59,
          "time": 128.611059666667,
          "velocity": 0.7086614173228346,
          "duration": 0.2777776666666796
        },
        {
          "name": "D#4",
          "midi": 63,
          "time": 128.88883733333367,
          "velocity": 0.7086614173228346,
          "duration": 0.2777776666666796
        },
        {
          "name": "B3",
          "midi": 59,
          "time": 128.88883733333367,
          "velocity": 0.7086614173228346,
          "duration": 0.2777776666666796
        },
        {
          "name": "G#4",
          "midi": 68,
          "time": 129.16661500000035,
          "velocity": 0.7086614173228346,
          "duration": 0.8333330000000387
        },
        {
          "name": "D#4",
          "midi": 63,
          "time": 129.16661500000035,
          "velocity": 0.7086614173228346,
          "duration": 0.2777776666666796
        },
        {
          "name": "B3",
          "midi": 59,
          "time": 129.16661500000035,
          "velocity": 0.7086614173228346,
          "duration": 0.2777776666666796
        },
        {
          "name": "B3",
          "midi": 59,
          "time": 129.44439266666703,
          "velocity": 0.7086614173228346,
          "duration": 0.2777776666666796
        },
        {
          "name": "D#4",
          "midi": 63,
          "time": 129.44439266666703,
          "velocity": 0.7086614173228346,
          "duration": 0.2777776666666796
        },
        {
          "name": "D#4",
          "midi": 63,
          "time": 129.7221703333337,
          "velocity": 0.7086614173228346,
          "duration": 0.2777776666666796
        },
        {
          "name": "B3",
          "midi": 59,
          "time": 129.7221703333337,
          "velocity": 0.7086614173228346,
          "duration": 0.2777776666666796
        },
        {
          "name": "G#4",
          "midi": 68,
          "time": 129.9999480000004,
          "velocity": 0.7086614173228346,
          "duration": 0.8333330000000387
        },
        {
          "name": "D#4",
          "midi": 63,
          "time": 129.9999480000004,
          "velocity": 0.7086614173228346,
          "duration": 0.2777776666666796
        },
        {
          "name": "A#3",
          "midi": 58,
          "time": 129.9999480000004,
          "velocity": 0.7086614173228346,
          "duration": 0.2777776666666796
        },
        {
          "name": "D#4",
          "midi": 63,
          "time": 130.27772566666707,
          "velocity": 0.7086614173228346,
          "duration": 0.2777776666666796
        },
        {
          "name": "A#3",
          "midi": 58,
          "time": 130.27772566666707,
          "velocity": 0.7086614173228346,
          "duration": 0.2777776666666796
        },
        {
          "name": "D#4",
          "midi": 63,
          "time": 130.55550333333375,
          "velocity": 0.7086614173228346,
          "duration": 0.2777776666666796
        },
        {
          "name": "A#3",
          "midi": 58,
          "time": 130.55550333333375,
          "velocity": 0.7086614173228346,
          "duration": 0.2777776666666796
        },
        {
          "name": "G4",
          "midi": 67,
          "time": 130.83328100000043,
          "velocity": 0.7086614173228346,
          "duration": 0.8333330000000387
        },
        {
          "name": "D#4",
          "midi": 63,
          "time": 130.83328100000043,
          "velocity": 0.7086614173228346,
          "duration": 0.2777776666666796
        },
        {
          "name": "A#3",
          "midi": 58,
          "time": 130.83328100000043,
          "velocity": 0.7086614173228346,
          "duration": 0.2777776666666796
        },
        {
          "name": "D#4",
          "midi": 63,
          "time": 131.1110586666671,
          "velocity": 0.7086614173228346,
          "duration": 0.2777776666666796
        },
        {
          "name": "A#3",
          "midi": 58,
          "time": 131.1110586666671,
          "velocity": 0.7086614173228346,
          "duration": 0.2777776666666796
        },
        {
          "name": "A#3",
          "midi": 58,
          "time": 131.38883633333378,
          "velocity": 0.7086614173228346,
          "duration": 0.2777776666666796
        },
        {
          "name": "D#4",
          "midi": 63,
          "time": 131.38883633333378,
          "velocity": 0.7086614173228346,
          "duration": 0.2777776666666796
        },
        {
          "name": "D#4",
          "midi": 63,
          "time": 131.66661400000046,
          "velocity": 0.7086614173228346,
          "duration": 0.2777776666666796
        },
        {
          "name": "A#3",
          "midi": 58,
          "time": 131.66661400000046,
          "velocity": 0.7086614173228346,
          "duration": 0.2777776666666796
        },
        {
          "name": "G3",
          "midi": 55,
          "time": 131.66661400000046,
          "velocity": 0.7086614173228346,
          "duration": 0.2777776666666796
        },
        {
          "name": "D#4",
          "midi": 63,
          "time": 131.94439166666714,
          "velocity": 0.7086614173228346,
          "duration": 0.2777776666666796
        },
        {
          "name": "A#3",
          "midi": 58,
          "time": 131.94439166666714,
          "velocity": 0.7086614173228346,
          "duration": 0.2777776666666796
        },
        {
          "name": "G3",
          "midi": 55,
          "time": 131.94439166666714,
          "velocity": 0.7086614173228346,
          "duration": 0.2777776666666796
        },
        {
          "name": "G3",
          "midi": 55,
          "time": 132.22216933333382,
          "velocity": 0.7086614173228346,
          "duration": 0.2777776666666796
        },
        {
          "name": "A#3",
          "midi": 58,
          "time": 132.22216933333382,
          "velocity": 0.7086614173228346,
          "duration": 0.2777776666666796
        },
        {
          "name": "D#4",
          "midi": 63,
          "time": 132.22216933333382,
          "velocity": 0.7086614173228346,
          "duration": 0.2777776666666796
        },
        {
          "name": "D#4",
          "midi": 63,
          "time": 132.4999470000005,
          "velocity": 0.7086614173228346,
          "duration": 0.2777776666666796
        },
        {
          "name": "A#3",
          "midi": 58,
          "time": 132.4999470000005,
          "velocity": 0.7086614173228346,
          "duration": 0.2777776666666796
        },
        {
          "name": "G3",
          "midi": 55,
          "time": 132.4999470000005,
          "velocity": 0.7086614173228346,
          "duration": 0.2777776666666796
        },
        {
          "name": "D#4",
          "midi": 63,
          "time": 132.77772466666718,
          "velocity": 0.7086614173228346,
          "duration": 0.2777776666666796
        },
        {
          "name": "A#3",
          "midi": 58,
          "time": 132.77772466666718,
          "velocity": 0.7086614173228346,
          "duration": 0.2777776666666796
        },
        {
          "name": "G3",
          "midi": 55,
          "time": 132.77772466666718,
          "velocity": 0.7086614173228346,
          "duration": 0.2777776666666796
        },
        {
          "name": "G3",
          "midi": 55,
          "time": 133.05550233333386,
          "velocity": 0.7086614173228346,
          "duration": 0.2777776666666796
        },
        {
          "name": "A#3",
          "midi": 58,
          "time": 133.05550233333386,
          "velocity": 0.7086614173228346,
          "duration": 0.2777776666666796
        },
        {
          "name": "D#4",
          "midi": 63,
          "time": 133.05550233333386,
          "velocity": 0.7086614173228346,
          "duration": 0.2777776666666796
        },
        {
          "name": "G#4",
          "midi": 68,
          "time": 133.33328000000054,
          "velocity": 0.7086614173228346,
          "duration": 0.8333330000000387
        },
        {
          "name": "D#4",
          "midi": 63,
          "time": 133.33328000000054,
          "velocity": 0.7086614173228346,
          "duration": 0.2777776666666796
        },
        {
          "name": "B3",
          "midi": 59,
          "time": 133.33328000000054,
          "velocity": 0.7086614173228346,
          "duration": 0.2777776666666796
        },
        {
          "name": "D#4",
          "midi": 63,
          "time": 133.61105766666722,
          "velocity": 0.7086614173228346,
          "duration": 0.2777776666666796
        },
        {
          "name": "B3",
          "midi": 59,
          "time": 133.61105766666722,
          "velocity": 0.7086614173228346,
          "duration": 0.2777776666666796
        },
        {
          "name": "B3",
          "midi": 59,
          "time": 133.8888353333339,
          "velocity": 0.7086614173228346,
          "duration": 0.2777776666666796
        },
        {
          "name": "D#4",
          "midi": 63,
          "time": 133.8888353333339,
          "velocity": 0.7086614173228346,
          "duration": 0.2777776666666796
        },
        {
          "name": "B4",
          "midi": 71,
          "time": 134.16661300000058,
          "velocity": 0.7086614173228346,
          "duration": 0.8333330000000387
        },
        {
          "name": "D#4",
          "midi": 63,
          "time": 134.16661300000058,
          "velocity": 0.7086614173228346,
          "duration": 0.2777776666666796
        },
        {
          "name": "B3",
          "midi": 59,
          "time": 134.16661300000058,
          "velocity": 0.7086614173228346,
          "duration": 0.2777776666666796
        },
        {
          "name": "D#4",
          "midi": 63,
          "time": 134.44439066666726,
          "velocity": 0.7086614173228346,
          "duration": 0.2777776666666796
        },
        {
          "name": "B3",
          "midi": 59,
          "time": 134.44439066666726,
          "velocity": 0.7086614173228346,
          "duration": 0.2777776666666796
        },
        {
          "name": "D#4",
          "midi": 63,
          "time": 134.72216833333394,
          "velocity": 0.7086614173228346,
          "duration": 0.2777776666666796
        },
        {
          "name": "B3",
          "midi": 59,
          "time": 134.72216833333394,
          "velocity": 0.7086614173228346,
          "duration": 0.2777776666666796
        },
        {
          "name": "B3",
          "midi": 59,
          "time": 134.99994600000062,
          "velocity": 0.7086614173228346,
          "duration": 0.2777776666666796
        },
        {
          "name": "D#4",
          "midi": 63,
          "time": 134.99994600000062,
          "velocity": 0.7086614173228346,
          "duration": 0.2777776666666796
        },
        {
          "name": "A#4",
          "midi": 70,
          "time": 134.99994600000062,
          "velocity": 0.7086614173228346,
          "duration": 0.8333330000000387
        },
        {
          "name": "D#4",
          "midi": 63,
          "time": 135.2777236666673,
          "velocity": 0.7086614173228346,
          "duration": 0.2777776666666796
        },
        {
          "name": "B3",
          "midi": 59,
          "time": 135.2777236666673,
          "velocity": 0.7086614173228346,
          "duration": 0.2777776666666796
        },
        {
          "name": "D#4",
          "midi": 63,
          "time": 135.55550133333398,
          "velocity": 0.7086614173228346,
          "duration": 0.2777776666666796
        },
        {
          "name": "B3",
          "midi": 59,
          "time": 135.55550133333398,
          "velocity": 0.7086614173228346,
          "duration": 0.2777776666666796
        },
        {
          "name": "G#4",
          "midi": 68,
          "time": 135.83327900000066,
          "velocity": 0.7086614173228346,
          "duration": 0.8333330000000387
        },
        {
          "name": "D#4",
          "midi": 63,
          "time": 135.83327900000066,
          "velocity": 0.7086614173228346,
          "duration": 0.2777776666666796
        },
        {
          "name": "B3",
          "midi": 59,
          "time": 135.83327900000066,
          "velocity": 0.7086614173228346,
          "duration": 0.2777776666666796
        },
        {
          "name": "D#4",
          "midi": 63,
          "time": 136.11105666666734,
          "velocity": 0.7086614173228346,
          "duration": 0.2777776666666796
        },
        {
          "name": "B3",
          "midi": 59,
          "time": 136.11105666666734,
          "velocity": 0.7086614173228346,
          "duration": 0.2777776666666796
        },
        {
          "name": "D#4",
          "midi": 63,
          "time": 136.38883433333402,
          "velocity": 0.7086614173228346,
          "duration": 0.2777776666666796
        },
        {
          "name": "B3",
          "midi": 59,
          "time": 136.38883433333402,
          "velocity": 0.7086614173228346,
          "duration": 0.2777776666666796
        },
        {
          "name": "F#5",
          "midi": 78,
          "time": 136.6666120000007,
          "velocity": 0.7086614173228346,
          "duration": 1.11111066666669
        },
        {
          "name": "F#4",
          "midi": 66,
          "time": 136.6666120000007,
          "velocity": 0.7086614173228346,
          "duration": 0.8333330000000103
        },
        {
          "name": "D#5",
          "midi": 75,
          "time": 137.7777226666674,
          "velocity": 0.7086614173228346,
          "duration": 0.2777776666666796
        },
        {
          "name": "B4",
          "midi": 71,
          "time": 138.05550033333407,
          "velocity": 0.7086614173228346,
          "duration": 0.2777776666666796
        },
        {
          "name": "B5",
          "midi": 83,
          "time": 138.33327800000075,
          "velocity": 0.7086614173228346,
          "duration": 1.11111066666669
        },
        {
          "name": "B4",
          "midi": 71,
          "time": 138.33327800000075,
          "velocity": 0.7086614173228346,
          "duration": 0.8333330000000103
        },
        {
          "name": "G#5",
          "midi": 80,
          "time": 139.44438866666744,
          "velocity": 0.7086614173228346,
          "duration": 0.2777776666666796
        },
        {
          "name": "E5",
          "midi": 76,
          "time": 139.72216633333412,
          "velocity": 0.7086614173228346,
          "duration": 0.2777776666666796
        },
        {
          "name": "E6",
          "midi": 88,
          "time": 139.9999440000008,
          "velocity": 0.7086614173228346,
          "duration": 1.11111066666669
        },
        {
          "name": "E5",
          "midi": 76,
          "time": 139.9999440000008,
          "velocity": 0.7086614173228346,
          "duration": 0.8333330000000103
        },
        {
          "name": "C#6",
          "midi": 85,
          "time": 141.11105466666748,
          "velocity": 0.7086614173228346,
          "duration": 0.2777776666666796
        },
        {
          "name": "A#5",
          "midi": 82,
          "time": 141.38883233333416,
          "velocity": 0.7086614173228346,
          "duration": 0.2777776666666796
        },
        {
          "name": "B5",
          "midi": 83,
          "time": 141.66661000000084,
          "velocity": 0.7086614173228346,
          "duration": 0.8333330000000103
        },
        {
          "name": "B4",
          "midi": 71,
          "time": 141.66661000000084,
          "velocity": 0.7086614173228346,
          "duration": 0.8333330000000103
        },
        {
          "name": "F#3",
          "midi": 54,
          "time": 142.49994300000085,
          "velocity": 0.7086614173228346,
          "duration": 0.8333330000000103
        },
        {
          "name": "A3",
          "midi": 57,
          "time": 142.49994300000085,
          "velocity": 0.7086614173228346,
          "duration": 0.8333330000000103
        },
        {
          "name": "B3",
          "midi": 59,
          "time": 142.49994300000085,
          "velocity": 0.7086614173228346,
          "duration": 0.8333330000000103
        },
        {
          "name": "D#4",
          "midi": 63,
          "time": 142.49994300000085,
          "velocity": 0.7086614173228346,
          "duration": 0.8333330000000103
        },
        {
          "name": "E4",
          "midi": 64,
          "time": 143.33327600000086,
          "velocity": 0.7086614173228346,
          "duration": 0.2777776666666796
        },
        {
          "name": "B3",
          "midi": 59,
          "time": 143.33327600000086,
          "velocity": 0.7086614173228346,
          "duration": 0.2777776666666796
        },
        {
          "name": "G#3",
          "midi": 56,
          "time": 143.33327600000086,
          "velocity": 0.7086614173228346,
          "duration": 0.2777776666666796
        },
        {
          "name": "B3",
          "midi": 59,
          "time": 143.61105366666754,
          "velocity": 0.7086614173228346,
          "duration": 0.2777776666666796
        },
        {
          "name": "G#3",
          "midi": 56,
          "time": 143.61105366666754,
          "velocity": 0.7086614173228346,
          "duration": 0.2777776666666796
        },
        {
          "name": "B3",
          "midi": 59,
          "time": 143.88883133333422,
          "velocity": 0.7086614173228346,
          "duration": 0.2777776666666796
        },
        {
          "name": "G#3",
          "midi": 56,
          "time": 143.88883133333422,
          "velocity": 0.7086614173228346,
          "duration": 0.2777776666666796
        },
        {
          "name": "B3",
          "midi": 59,
          "time": 144.1666090000009,
          "velocity": 0.7086614173228346,
          "duration": 0.2777776666666796
        },
        {
          "name": "G#3",
          "midi": 56,
          "time": 144.1666090000009,
          "velocity": 0.7086614173228346,
          "duration": 0.2777776666666796
        },
        {
          "name": "B3",
          "midi": 59,
          "time": 144.44438666666758,
          "velocity": 0.7086614173228346,
          "duration": 0.2777776666666796
        },
        {
          "name": "G#3",
          "midi": 56,
          "time": 144.44438666666758,
          "velocity": 0.7086614173228346,
          "duration": 0.2777776666666796
        },
        {
          "name": "B3",
          "midi": 59,
          "time": 144.72216433333426,
          "velocity": 0.7086614173228346,
          "duration": 0.2777776666666796
        },
        {
          "name": "G#3",
          "midi": 56,
          "time": 144.72216433333426,
          "velocity": 0.7086614173228346,
          "duration": 0.2777776666666796
        },
        {
          "name": "G#3",
          "midi": 56,
          "time": 144.99994200000094,
          "velocity": 0.7086614173228346,
          "duration": 0.2777776666666796
        },
        {
          "name": "B3",
          "midi": 59,
          "time": 144.99994200000094,
          "velocity": 0.7086614173228346,
          "duration": 0.2777776666666796
        },
        {
          "name": "B3",
          "midi": 59,
          "time": 145.27771966666762,
          "velocity": 0.7086614173228346,
          "duration": 0.2777776666666796
        },
        {
          "name": "G#3",
          "midi": 56,
          "time": 145.27771966666762,
          "velocity": 0.7086614173228346,
          "duration": 0.2777776666666796
        },
        {
          "name": "B3",
          "midi": 59,
          "time": 145.5554973333343,
          "velocity": 0.7086614173228346,
          "duration": 0.2777776666666796
        },
        {
          "name": "G#3",
          "midi": 56,
          "time": 145.5554973333343,
          "velocity": 0.7086614173228346,
          "duration": 0.2777776666666796
        },
        {
          "name": "B3",
          "midi": 59,
          "time": 145.83327500000098,
          "velocity": 0.7086614173228346,
          "duration": 0.2777776666666796
        },
        {
          "name": "G#3",
          "midi": 56,
          "time": 145.83327500000098,
          "velocity": 0.7086614173228346,
          "duration": 0.2777776666666796
        },
        {
          "name": "G#3",
          "midi": 56,
          "time": 146.11105266666766,
          "velocity": 0.7086614173228346,
          "duration": 0.2777776666666796
        },
        {
          "name": "B3",
          "midi": 59,
          "time": 146.11105266666766,
          "velocity": 0.7086614173228346,
          "duration": 0.2777776666666796
        },
        {
          "name": "B3",
          "midi": 59,
          "time": 146.38883033333434,
          "velocity": 0.7086614173228346,
          "duration": 0.2777776666666796
        },
        {
          "name": "G#3",
          "midi": 56,
          "time": 146.38883033333434,
          "velocity": 0.7086614173228346,
          "duration": 0.2777776666666796
        },
        {
          "name": "E4",
          "midi": 64,
          "time": 146.66660800000102,
          "velocity": 0.7086614173228346,
          "duration": 0.8333330000000387
        },
        {
          "name": "B3",
          "midi": 59,
          "time": 146.66660800000102,
          "velocity": 0.7086614173228346,
          "duration": 0.2777776666666796
        },
        {
          "name": "G#3",
          "midi": 56,
          "time": 146.66660800000102,
          "velocity": 0.7086614173228346,
          "duration": 0.2777776666666796
        },
        {
          "name": "B3",
          "midi": 59,
          "time": 146.9443856666677,
          "velocity": 0.7086614173228346,
          "duration": 0.2777776666666796
        },
        {
          "name": "G#3",
          "midi": 56,
          "time": 146.9443856666677,
          "velocity": 0.7086614173228346,
          "duration": 0.2777776666666796
        },
        {
          "name": "G#3",
          "midi": 56,
          "time": 147.22216333333438,
          "velocity": 0.7086614173228346,
          "duration": 0.2777776666666796
        },
        {
          "name": "B3",
          "midi": 59,
          "time": 147.22216333333438,
          "velocity": 0.7086614173228346,
          "duration": 0.2777776666666796
        },
        {
          "name": "G#4",
          "midi": 68,
          "time": 147.49994100000106,
          "velocity": 0.7086614173228346,
          "duration": 0.8333330000000387
        },
        {
          "name": "B3",
          "midi": 59,
          "time": 147.49994100000106,
          "velocity": 0.7086614173228346,
          "duration": 0.2777776666666796
        },
        {
          "name": "G#3",
          "midi": 56,
          "time": 147.49994100000106,
          "velocity": 0.7086614173228346,
          "duration": 0.2777776666666796
        },
        {
          "name": "B3",
          "midi": 59,
          "time": 147.77771866666774,
          "velocity": 0.7086614173228346,
          "duration": 0.2777776666666796
        },
        {
          "name": "G#3",
          "midi": 56,
          "time": 147.77771866666774,
          "velocity": 0.7086614173228346,
          "duration": 0.2777776666666796
        },
        {
          "name": "B3",
          "midi": 59,
          "time": 148.05549633333442,
          "velocity": 0.7086614173228346,
          "duration": 0.2777776666666796
        },
        {
          "name": "G#3",
          "midi": 56,
          "time": 148.05549633333442,
          "velocity": 0.7086614173228346,
          "duration": 0.2777776666666796
        },
        {
          "name": "F#4",
          "midi": 66,
          "time": 148.3332740000011,
          "velocity": 0.7086614173228346,
          "duration": 0.8333330000000387
        },
        {
          "name": "B3",
          "midi": 59,
          "time": 148.3332740000011,
          "velocity": 0.7086614173228346,
          "duration": 0.2777776666666796
        },
        {
          "name": "G#3",
          "midi": 56,
          "time": 148.3332740000011,
          "velocity": 0.7086614173228346,
          "duration": 0.2777776666666796
        },
        {
          "name": "B3",
          "midi": 59,
          "time": 148.61105166666778,
          "velocity": 0.7086614173228346,
          "duration": 0.2777776666666796
        },
        {
          "name": "G#3",
          "midi": 56,
          "time": 148.61105166666778,
          "velocity": 0.7086614173228346,
          "duration": 0.2777776666666796
        },
        {
          "name": "B3",
          "midi": 59,
          "time": 148.88882933333446,
          "velocity": 0.7086614173228346,
          "duration": 0.2777776666666796
        },
        {
          "name": "G#3",
          "midi": 56,
          "time": 148.88882933333446,
          "velocity": 0.7086614173228346,
          "duration": 0.2777776666666796
        },
        {
          "name": "G#3",
          "midi": 56,
          "time": 149.16660700000114,
          "velocity": 0.7086614173228346,
          "duration": 0.2777776666666796
        },
        {
          "name": "B3",
          "midi": 59,
          "time": 149.16660700000114,
          "velocity": 0.7086614173228346,
          "duration": 0.2777776666666796
        },
        {
          "name": "E4",
          "midi": 64,
          "time": 149.16660700000114,
          "velocity": 0.7086614173228346,
          "duration": 0.8333330000000387
        },
        {
          "name": "B3",
          "midi": 59,
          "time": 149.44438466666782,
          "velocity": 0.7086614173228346,
          "duration": 0.2777776666666796
        },
        {
          "name": "G#3",
          "midi": 56,
          "time": 149.44438466666782,
          "velocity": 0.7086614173228346,
          "duration": 0.2777776666666796
        },
        {
          "name": "B3",
          "midi": 59,
          "time": 149.7221623333345,
          "velocity": 0.7086614173228346,
          "duration": 0.2777776666666796
        },
        {
          "name": "G#3",
          "midi": 56,
          "time": 149.7221623333345,
          "velocity": 0.7086614173228346,
          "duration": 0.2777776666666796
        },
        {
          "name": "A3",
          "midi": 57,
          "time": 149.99994000000117,
          "velocity": 0.7086614173228346,
          "duration": 0.2777776666666796
        },
        {
          "name": "B3",
          "midi": 59,
          "time": 149.99994000000117,
          "velocity": 0.7086614173228346,
          "duration": 0.2777776666666796
        },
        {
          "name": "D#4",
          "midi": 63,
          "time": 149.99994000000117,
          "velocity": 0.7086614173228346,
          "duration": 0.8333330000000387
        },
        {
          "name": "B3",
          "midi": 59,
          "time": 150.27771766666785,
          "velocity": 0.7086614173228346,
          "duration": 0.2777776666666796
        },
        {
          "name": "A3",
          "midi": 57,
          "time": 150.27771766666785,
          "velocity": 0.7086614173228346,
          "duration": 0.2777776666666796
        },
        {
          "name": "B3",
          "midi": 59,
          "time": 150.55549533333453,
          "velocity": 0.7086614173228346,
          "duration": 0.2777776666666796
        },
        {
          "name": "A3",
          "midi": 57,
          "time": 150.55549533333453,
          "velocity": 0.7086614173228346,
          "duration": 0.2777776666666796
        },
        {
          "name": "A4",
          "midi": 69,
          "time": 150.8332730000012,
          "velocity": 0.7086614173228346,
          "duration": 0.8333330000000387
        },
        {
          "name": "B3",
          "midi": 59,
          "time": 150.8332730000012,
          "velocity": 0.7086614173228346,
          "duration": 0.2777776666666796
        },
        {
          "name": "A3",
          "midi": 57,
          "time": 150.8332730000012,
          "velocity": 0.7086614173228346,
          "duration": 0.2777776666666796
        },
        {
          "name": "A3",
          "midi": 57,
          "time": 151.1110506666679,
          "velocity": 0.7086614173228346,
          "duration": 0.2777776666666796
        },
        {
          "name": "B3",
          "midi": 59,
          "time": 151.1110506666679,
          "velocity": 0.7086614173228346,
          "duration": 0.2777776666666796
        },
        {
          "name": "B3",
          "midi": 59,
          "time": 151.38882833333457,
          "velocity": 0.7086614173228346,
          "duration": 0.2777776666666796
        },
        {
          "name": "A3",
          "midi": 57,
          "time": 151.38882833333457,
          "velocity": 0.7086614173228346,
          "duration": 0.2777776666666796
        },
        {
          "name": "B3",
          "midi": 59,
          "time": 151.66660600000125,
          "velocity": 0.7086614173228346,
          "duration": 0.2777776666666796
        },
        {
          "name": "A3",
          "midi": 57,
          "time": 151.66660600000125,
          "velocity": 0.7086614173228346,
          "duration": 0.2777776666666796
        },
        {
          "name": "B3",
          "midi": 59,
          "time": 151.94438366666793,
          "velocity": 0.7086614173228346,
          "duration": 0.2777776666666796
        },
        {
          "name": "A3",
          "midi": 57,
          "time": 151.94438366666793,
          "velocity": 0.7086614173228346,
          "duration": 0.2777776666666796
        },
        {
          "name": "B3",
          "midi": 59,
          "time": 152.2221613333346,
          "velocity": 0.7086614173228346,
          "duration": 0.2777776666666796
        },
        {
          "name": "A3",
          "midi": 57,
          "time": 152.2221613333346,
          "velocity": 0.7086614173228346,
          "duration": 0.2777776666666796
        },
        {
          "name": "B3",
          "midi": 59,
          "time": 152.4999390000013,
          "velocity": 0.7086614173228346,
          "duration": 0.2777776666666796
        },
        {
          "name": "A3",
          "midi": 57,
          "time": 152.4999390000013,
          "velocity": 0.7086614173228346,
          "duration": 0.2777776666666796
        },
        {
          "name": "B3",
          "midi": 59,
          "time": 152.77771666666797,
          "velocity": 0.7086614173228346,
          "duration": 0.2777776666666796
        },
        {
          "name": "A3",
          "midi": 57,
          "time": 152.77771666666797,
          "velocity": 0.7086614173228346,
          "duration": 0.2777776666666796
        },
        {
          "name": "B3",
          "midi": 59,
          "time": 153.05549433333465,
          "velocity": 0.7086614173228346,
          "duration": 0.2777776666666796
        },
        {
          "name": "A3",
          "midi": 57,
          "time": 153.05549433333465,
          "velocity": 0.7086614173228346,
          "duration": 0.2777776666666796
        },
        {
          "name": "G#3",
          "midi": 56,
          "time": 153.33327200000133,
          "velocity": 0.7086614173228346,
          "duration": 0.2777776666666796
        },
        {
          "name": "B3",
          "midi": 59,
          "time": 153.33327200000133,
          "velocity": 0.7086614173228346,
          "duration": 0.2777776666666796
        },
        {
          "name": "E4",
          "midi": 64,
          "time": 153.33327200000133,
          "velocity": 0.7086614173228346,
          "duration": 0.8333330000000387
        },
        {
          "name": "B3",
          "midi": 59,
          "time": 153.611049666668,
          "velocity": 0.7086614173228346,
          "duration": 0.2777776666666796
        },
        {
          "name": "G#3",
          "midi": 56,
          "time": 153.611049666668,
          "velocity": 0.7086614173228346,
          "duration": 0.2777776666666796
        },
        {
          "name": "B3",
          "midi": 59,
          "time": 153.8888273333347,
          "velocity": 0.7086614173228346,
          "duration": 0.2777776666666796
        },
        {
          "name": "G#3",
          "midi": 56,
          "time": 153.8888273333347,
          "velocity": 0.7086614173228346,
          "duration": 0.2777776666666796
        },
        {
          "name": "G#3",
          "midi": 56,
          "time": 154.16660500000137,
          "velocity": 0.7086614173228346,
          "duration": 0.2777776666666796
        },
        {
          "name": "B3",
          "midi": 59,
          "time": 154.16660500000137,
          "velocity": 0.7086614173228346,
          "duration": 0.2777776666666796
        },
        {
          "name": "G#4",
          "midi": 68,
          "time": 154.16660500000137,
          "velocity": 0.7086614173228346,
          "duration": 0.8333330000000387
        },
        {
          "name": "B3",
          "midi": 59,
          "time": 154.44438266666805,
          "velocity": 0.7086614173228346,
          "duration": 0.2777776666666796
        },
        {
          "name": "G#3",
          "midi": 56,
          "time": 154.44438266666805,
          "velocity": 0.7086614173228346,
          "duration": 0.2777776666666796
        },
        {
          "name": "B3",
          "midi": 59,
          "time": 154.72216033333473,
          "velocity": 0.7086614173228346,
          "duration": 0.2777776666666796
        },
        {
          "name": "G#3",
          "midi": 56,
          "time": 154.72216033333473,
          "velocity": 0.7086614173228346,
          "duration": 0.2777776666666796
        },
        {
          "name": "E4",
          "midi": 64,
          "time": 154.9999380000014,
          "velocity": 0.7086614173228346,
          "duration": 0.8333330000000387
        },
        {
          "name": "B3",
          "midi": 59,
          "time": 154.9999380000014,
          "velocity": 0.7086614173228346,
          "duration": 0.2777776666666796
        },
        {
          "name": "G#3",
          "midi": 56,
          "time": 154.9999380000014,
          "velocity": 0.7086614173228346,
          "duration": 0.2777776666666796
        },
        {
          "name": "G#3",
          "midi": 56,
          "time": 155.2777156666681,
          "velocity": 0.7086614173228346,
          "duration": 0.2777776666666796
        },
        {
          "name": "B3",
          "midi": 59,
          "time": 155.2777156666681,
          "velocity": 0.7086614173228346,
          "duration": 0.2777776666666796
        },
        {
          "name": "B3",
          "midi": 59,
          "time": 155.55549333333477,
          "velocity": 0.7086614173228346,
          "duration": 0.2777776666666796
        },
        {
          "name": "G#3",
          "midi": 56,
          "time": 155.55549333333477,
          "velocity": 0.7086614173228346,
          "duration": 0.2777776666666796
        },
        {
          "name": "D#4",
          "midi": 63,
          "time": 155.83327100000145,
          "velocity": 0.7086614173228346,
          "duration": 0.8333330000000387
        },
        {
          "name": "B3",
          "midi": 59,
          "time": 155.83327100000145,
          "velocity": 0.7086614173228346,
          "duration": 0.2777776666666796
        },
        {
          "name": "G#3",
          "midi": 56,
          "time": 155.83327100000145,
          "velocity": 0.7086614173228346,
          "duration": 0.2777776666666796
        },
        {
          "name": "B3",
          "midi": 59,
          "time": 156.11104866666813,
          "velocity": 0.7086614173228346,
          "duration": 0.2777776666666796
        },
        {
          "name": "G#3",
          "midi": 56,
          "time": 156.11104866666813,
          "velocity": 0.7086614173228346,
          "duration": 0.2777776666666796
        },
        {
          "name": "B3",
          "midi": 59,
          "time": 156.3888263333348,
          "velocity": 0.7086614173228346,
          "duration": 0.2777776666666796
        },
        {
          "name": "G#3",
          "midi": 56,
          "time": 156.3888263333348,
          "velocity": 0.7086614173228346,
          "duration": 0.2777776666666796
        },
        {
          "name": "D4",
          "midi": 62,
          "time": 156.66660400000148,
          "velocity": 0.7086614173228346,
          "duration": 2.499999000000116
        },
        {
          "name": "B3",
          "midi": 59,
          "time": 156.66660400000148,
          "velocity": 0.7086614173228346,
          "duration": 0.2777776666666796
        },
        {
          "name": "G#3",
          "midi": 56,
          "time": 156.66660400000148,
          "velocity": 0.7086614173228346,
          "duration": 0.2777776666666796
        },
        {
          "name": "D3",
          "midi": 50,
          "time": 156.66660400000148,
          "velocity": 0.7086614173228346,
          "duration": 0.2777776666666796
        },
        {
          "name": "D3",
          "midi": 50,
          "time": 156.94438166666816,
          "velocity": 0.7086614173228346,
          "duration": 0.2777776666666796
        },
        {
          "name": "G#3",
          "midi": 56,
          "time": 156.94438166666816,
          "velocity": 0.7086614173228346,
          "duration": 0.2777776666666796
        },
        {
          "name": "B3",
          "midi": 59,
          "time": 156.94438166666816,
          "velocity": 0.7086614173228346,
          "duration": 0.2777776666666796
        },
        {
          "name": "B3",
          "midi": 59,
          "time": 157.22215933333484,
          "velocity": 0.7086614173228346,
          "duration": 0.2777776666666796
        },
        {
          "name": "G#3",
          "midi": 56,
          "time": 157.22215933333484,
          "velocity": 0.7086614173228346,
          "duration": 0.2777776666666796
        },
        {
          "name": "D3",
          "midi": 50,
          "time": 157.22215933333484,
          "velocity": 0.7086614173228346,
          "duration": 0.2777776666666796
        },
        {
          "name": "B3",
          "midi": 59,
          "time": 157.49993700000152,
          "velocity": 0.7086614173228346,
          "duration": 0.2777776666666796
        },
        {
          "name": "G#3",
          "midi": 56,
          "time": 157.49993700000152,
          "velocity": 0.7086614173228346,
          "duration": 0.2777776666666796
        },
        {
          "name": "D3",
          "midi": 50,
          "time": 157.49993700000152,
          "velocity": 0.7086614173228346,
          "duration": 0.2777776666666796
        },
        {
          "name": "D3",
          "midi": 50,
          "time": 157.7777146666682,
          "velocity": 0.7086614173228346,
          "duration": 0.2777776666666796
        },
        {
          "name": "G#3",
          "midi": 56,
          "time": 157.7777146666682,
          "velocity": 0.7086614173228346,
          "duration": 0.2777776666666796
        },
        {
          "name": "B3",
          "midi": 59,
          "time": 157.7777146666682,
          "velocity": 0.7086614173228346,
          "duration": 0.2777776666666796
        },
        {
          "name": "B3",
          "midi": 59,
          "time": 158.05549233333488,
          "velocity": 0.7086614173228346,
          "duration": 0.2777776666666796
        },
        {
          "name": "G#3",
          "midi": 56,
          "time": 158.05549233333488,
          "velocity": 0.7086614173228346,
          "duration": 0.2777776666666796
        },
        {
          "name": "D3",
          "midi": 50,
          "time": 158.05549233333488,
          "velocity": 0.7086614173228346,
          "duration": 0.2777776666666796
        },
        {
          "name": "B3",
          "midi": 59,
          "time": 158.33327000000156,
          "velocity": 0.7086614173228346,
          "duration": 0.2777776666666796
        },
        {
          "name": "G#3",
          "midi": 56,
          "time": 158.33327000000156,
          "velocity": 0.7086614173228346,
          "duration": 0.2777776666666796
        },
        {
          "name": "D3",
          "midi": 50,
          "time": 158.33327000000156,
          "velocity": 0.7086614173228346,
          "duration": 0.2777776666666796
        },
        {
          "name": "D3",
          "midi": 50,
          "time": 158.61104766666824,
          "velocity": 0.7086614173228346,
          "duration": 0.2777776666666796
        },
        {
          "name": "G#3",
          "midi": 56,
          "time": 158.61104766666824,
          "velocity": 0.7086614173228346,
          "duration": 0.2777776666666796
        },
        {
          "name": "B3",
          "midi": 59,
          "time": 158.61104766666824,
          "velocity": 0.7086614173228346,
          "duration": 0.2777776666666796
        },
        {
          "name": "B3",
          "midi": 59,
          "time": 158.88882533333492,
          "velocity": 0.7086614173228346,
          "duration": 0.2777776666666796
        },
        {
          "name": "G#3",
          "midi": 56,
          "time": 158.88882533333492,
          "velocity": 0.7086614173228346,
          "duration": 0.2777776666666796
        },
        {
          "name": "D3",
          "midi": 50,
          "time": 158.88882533333492,
          "velocity": 0.7086614173228346,
          "duration": 0.2777776666666796
        },
        {
          "name": "D3",
          "midi": 50,
          "time": 159.1666030000016,
          "velocity": 0.7086614173228346,
          "duration": 0.2777776666666796
        },
        {
          "name": "G#3",
          "midi": 56,
          "time": 159.1666030000016,
          "velocity": 0.7086614173228346,
          "duration": 0.2777776666666796
        },
        {
          "name": "B3",
          "midi": 59,
          "time": 159.1666030000016,
          "velocity": 0.7086614173228346,
          "duration": 0.2777776666666796
        },
        {
          "name": "D4",
          "midi": 62,
          "time": 159.1666030000016,
          "velocity": 0.7086614173228346,
          "duration": 0.8333330000000387
        },
        {
          "name": "B3",
          "midi": 59,
          "time": 159.44438066666828,
          "velocity": 0.7086614173228346,
          "duration": 0.2777776666666796
        },
        {
          "name": "G#3",
          "midi": 56,
          "time": 159.44438066666828,
          "velocity": 0.7086614173228346,
          "duration": 0.2777776666666796
        },
        {
          "name": "D3",
          "midi": 50,
          "time": 159.44438066666828,
          "velocity": 0.7086614173228346,
          "duration": 0.2777776666666796
        },
        {
          "name": "B3",
          "midi": 59,
          "time": 159.72215833333496,
          "velocity": 0.7086614173228346,
          "duration": 0.2777776666666796
        },
        {
          "name": "G#3",
          "midi": 56,
          "time": 159.72215833333496,
          "velocity": 0.7086614173228346,
          "duration": 0.2777776666666796
        },
        {
          "name": "D3",
          "midi": 50,
          "time": 159.72215833333496,
          "velocity": 0.7086614173228346,
          "duration": 0.2777776666666796
        },
        {
          "name": "D3",
          "midi": 50,
          "time": 159.99993600000164,
          "velocity": 0.7086614173228346,
          "duration": 0.2777776666666796
        },
        {
          "name": "G#3",
          "midi": 56,
          "time": 159.99993600000164,
          "velocity": 0.7086614173228346,
          "duration": 0.2777776666666796
        },
        {
          "name": "B3",
          "midi": 59,
          "time": 159.99993600000164,
          "velocity": 0.7086614173228346,
          "duration": 0.2777776666666796
        },
        {
          "name": "D4",
          "midi": 62,
          "time": 159.99993600000164,
          "velocity": 0.7086614173228346,
          "duration": 2.499999000000116
        },
        {
          "name": "B3",
          "midi": 59,
          "time": 160.27771366666832,
          "velocity": 0.7086614173228346,
          "duration": 0.2777776666666796
        },
        {
          "name": "G#3",
          "midi": 56,
          "time": 160.27771366666832,
          "velocity": 0.7086614173228346,
          "duration": 0.2777776666666796
        },
        {
          "name": "D3",
          "midi": 50,
          "time": 160.27771366666832,
          "velocity": 0.7086614173228346,
          "duration": 0.2777776666666796
        },
        {
          "name": "B3",
          "midi": 59,
          "time": 160.555491333335,
          "velocity": 0.7086614173228346,
          "duration": 0.2777776666666796
        },
        {
          "name": "G#3",
          "midi": 56,
          "time": 160.555491333335,
          "velocity": 0.7086614173228346,
          "duration": 0.2777776666666796
        },
        {
          "name": "D3",
          "midi": 50,
          "time": 160.555491333335,
          "velocity": 0.7086614173228346,
          "duration": 0.2777776666666796
        },
        {
          "name": "B3",
          "midi": 59,
          "time": 160.83326900000168,
          "velocity": 0.7086614173228346,
          "duration": 0.2777776666666796
        },
        {
          "name": "G#3",
          "midi": 56,
          "time": 160.83326900000168,
          "velocity": 0.7086614173228346,
          "duration": 0.2777776666666796
        },
        {
          "name": "D3",
          "midi": 50,
          "time": 160.83326900000168,
          "velocity": 0.7086614173228346,
          "duration": 0.2777776666666796
        },
        {
          "name": "B3",
          "midi": 59,
          "time": 161.11104666666836,
          "velocity": 0.7086614173228346,
          "duration": 0.2777776666666796
        },
        {
          "name": "G#3",
          "midi": 56,
          "time": 161.11104666666836,
          "velocity": 0.7086614173228346,
          "duration": 0.2777776666666796
        },
        {
          "name": "D3",
          "midi": 50,
          "time": 161.11104666666836,
          "velocity": 0.7086614173228346,
          "duration": 0.2777776666666796
        },
        {
          "name": "D3",
          "midi": 50,
          "time": 161.38882433333504,
          "velocity": 0.7086614173228346,
          "duration": 0.2777776666666796
        },
        {
          "name": "G#3",
          "midi": 56,
          "time": 161.38882433333504,
          "velocity": 0.7086614173228346,
          "duration": 0.2777776666666796
        },
        {
          "name": "B3",
          "midi": 59,
          "time": 161.38882433333504,
          "velocity": 0.7086614173228346,
          "duration": 0.2777776666666796
        },
        {
          "name": "B3",
          "midi": 59,
          "time": 161.66660200000172,
          "velocity": 0.7086614173228346,
          "duration": 0.2777776666666796
        },
        {
          "name": "G#3",
          "midi": 56,
          "time": 161.66660200000172,
          "velocity": 0.7086614173228346,
          "duration": 0.2777776666666796
        },
        {
          "name": "D3",
          "midi": 50,
          "time": 161.66660200000172,
          "velocity": 0.7086614173228346,
          "duration": 0.2777776666666796
        },
        {
          "name": "B3",
          "midi": 59,
          "time": 161.9443796666684,
          "velocity": 0.7086614173228346,
          "duration": 0.2777776666666796
        },
        {
          "name": "G#3",
          "midi": 56,
          "time": 161.9443796666684,
          "velocity": 0.7086614173228346,
          "duration": 0.2777776666666796
        },
        {
          "name": "D3",
          "midi": 50,
          "time": 161.9443796666684,
          "velocity": 0.7086614173228346,
          "duration": 0.2777776666666796
        },
        {
          "name": "B3",
          "midi": 59,
          "time": 162.22215733333508,
          "velocity": 0.7086614173228346,
          "duration": 0.2777776666666796
        },
        {
          "name": "G#3",
          "midi": 56,
          "time": 162.22215733333508,
          "velocity": 0.7086614173228346,
          "duration": 0.2777776666666796
        },
        {
          "name": "D3",
          "midi": 50,
          "time": 162.22215733333508,
          "velocity": 0.7086614173228346,
          "duration": 0.2777776666666796
        },
        {
          "name": "D4",
          "midi": 62,
          "time": 162.49993500000176,
          "velocity": 0.7086614173228346,
          "duration": 0.8333330000000387
        },
        {
          "name": "B3",
          "midi": 59,
          "time": 162.49993500000176,
          "velocity": 0.7086614173228346,
          "duration": 0.2777776666666796
        },
        {
          "name": "G#3",
          "midi": 56,
          "time": 162.49993500000176,
          "velocity": 0.7086614173228346,
          "duration": 0.2777776666666796
        },
        {
          "name": "D3",
          "midi": 50,
          "time": 162.49993500000176,
          "velocity": 0.7086614173228346,
          "duration": 0.2777776666666796
        },
        {
          "name": "D3",
          "midi": 50,
          "time": 162.77771266666844,
          "velocity": 0.7086614173228346,
          "duration": 0.2777776666666796
        },
        {
          "name": "G#3",
          "midi": 56,
          "time": 162.77771266666844,
          "velocity": 0.7086614173228346,
          "duration": 0.2777776666666796
        },
        {
          "name": "B3",
          "midi": 59,
          "time": 162.77771266666844,
          "velocity": 0.7086614173228346,
          "duration": 0.2777776666666796
        },
        {
          "name": "B3",
          "midi": 59,
          "time": 163.05549033333511,
          "velocity": 0.7086614173228346,
          "duration": 0.2777776666666796
        },
        {
          "name": "G#3",
          "midi": 56,
          "time": 163.05549033333511,
          "velocity": 0.7086614173228346,
          "duration": 0.2777776666666796
        },
        {
          "name": "D3",
          "midi": 50,
          "time": 163.05549033333511,
          "velocity": 0.7086614173228346,
          "duration": 0.2777776666666796
        },
        {
          "name": "C#4",
          "midi": 61,
          "time": 163.3332680000018,
          "velocity": 0.7086614173228346,
          "duration": 2.499999000000116
        },
        {
          "name": "A#3",
          "midi": 58,
          "time": 163.3332680000018,
          "velocity": 0.7086614173228346,
          "duration": 0.2777776666666796
        },
        {
          "name": "G#3",
          "midi": 56,
          "time": 163.3332680000018,
          "velocity": 0.7086614173228346,
          "duration": 0.2777776666666796
        },
        {
          "name": "C#3",
          "midi": 49,
          "time": 163.3332680000018,
          "velocity": 0.7086614173228346,
          "duration": 0.2777776666666796
        },
        {
          "name": "C#3",
          "midi": 49,
          "time": 163.61104566666847,
          "velocity": 0.7086614173228346,
          "duration": 0.2777776666666796
        },
        {
          "name": "G#3",
          "midi": 56,
          "time": 163.61104566666847,
          "velocity": 0.7086614173228346,
          "duration": 0.2777776666666796
        },
        {
          "name": "A#3",
          "midi": 58,
          "time": 163.61104566666847,
          "velocity": 0.7086614173228346,
          "duration": 0.2777776666666796
        },
        {
          "name": "A#3",
          "midi": 58,
          "time": 163.88882333333515,
          "velocity": 0.7086614173228346,
          "duration": 0.2777776666666796
        },
        {
          "name": "G#3",
          "midi": 56,
          "time": 163.88882333333515,
          "velocity": 0.7086614173228346,
          "duration": 0.2777776666666796
        },
        {
          "name": "C#3",
          "midi": 49,
          "time": 163.88882333333515,
          "velocity": 0.7086614173228346,
          "duration": 0.2777776666666796
        },
        {
          "name": "A#3",
          "midi": 58,
          "time": 164.16660100000183,
          "velocity": 0.7086614173228346,
          "duration": 0.2777776666666796
        },
        {
          "name": "G#3",
          "midi": 56,
          "time": 164.16660100000183,
          "velocity": 0.7086614173228346,
          "duration": 0.2777776666666796
        },
        {
          "name": "C#3",
          "midi": 49,
          "time": 164.16660100000183,
          "velocity": 0.7086614173228346,
          "duration": 0.2777776666666796
        },
        {
          "name": "C#3",
          "midi": 49,
          "time": 164.4443786666685,
          "velocity": 0.7086614173228346,
          "duration": 0.2777776666666796
        },
        {
          "name": "G#3",
          "midi": 56,
          "time": 164.4443786666685,
          "velocity": 0.7086614173228346,
          "duration": 0.2777776666666796
        },
        {
          "name": "A#3",
          "midi": 58,
          "time": 164.4443786666685,
          "velocity": 0.7086614173228346,
          "duration": 0.2777776666666796
        },
        {
          "name": "A#3",
          "midi": 58,
          "time": 164.7221563333352,
          "velocity": 0.7086614173228346,
          "duration": 0.2777776666666796
        },
        {
          "name": "G#3",
          "midi": 56,
          "time": 164.7221563333352,
          "velocity": 0.7086614173228346,
          "duration": 0.2777776666666796
        },
        {
          "name": "C#3",
          "midi": 49,
          "time": 164.7221563333352,
          "velocity": 0.7086614173228346,
          "duration": 0.2777776666666796
        },
        {
          "name": "A#3",
          "midi": 58,
          "time": 164.99993400000187,
          "velocity": 0.7086614173228346,
          "duration": 0.2777776666666796
        },
        {
          "name": "G3",
          "midi": 55,
          "time": 164.99993400000187,
          "velocity": 0.7086614173228346,
          "duration": 0.2777776666666796
        },
        {
          "name": "C#3",
          "midi": 49,
          "time": 164.99993400000187,
          "velocity": 0.7086614173228346,
          "duration": 0.2777776666666796
        },
        {
          "name": "A#3",
          "midi": 58,
          "time": 165.27771166666855,
          "velocity": 0.7086614173228346,
          "duration": 0.2777776666666796
        },
        {
          "name": "G3",
          "midi": 55,
          "time": 165.27771166666855,
          "velocity": 0.7086614173228346,
          "duration": 0.2777776666666796
        },
        {
          "name": "C#3",
          "midi": 49,
          "time": 165.27771166666855,
          "velocity": 0.7086614173228346,
          "duration": 0.2777776666666796
        },
        {
          "name": "A#3",
          "midi": 58,
          "time": 165.55548933333523,
          "velocity": 0.7086614173228346,
          "duration": 0.2777776666666796
        },
        {
          "name": "G3",
          "midi": 55,
          "time": 165.55548933333523,
          "velocity": 0.7086614173228346,
          "duration": 0.2777776666666796
        },
        {
          "name": "C#3",
          "midi": 49,
          "time": 165.55548933333523,
          "velocity": 0.7086614173228346,
          "duration": 0.2777776666666796
        },
        {
          "name": "C#3",
          "midi": 49,
          "time": 165.8332670000019,
          "velocity": 0.7086614173228346,
          "duration": 0.2777776666666796
        },
        {
          "name": "D#3",
          "midi": 51,
          "time": 165.8332670000019,
          "velocity": 0.7086614173228346,
          "duration": 0.2777776666666796
        },
        {
          "name": "G3",
          "midi": 55,
          "time": 165.8332670000019,
          "velocity": 0.7086614173228346,
          "duration": 0.2777776666666796
        },
        {
          "name": "A#3",
          "midi": 58,
          "time": 165.8332670000019,
          "velocity": 0.7086614173228346,
          "duration": 0.2777776666666796
        },
        {
          "name": "C#4",
          "midi": 61,
          "time": 165.8332670000019,
          "velocity": 0.7086614173228346,
          "duration": 0.8333330000000387
        },
        {
          "name": "A#3",
          "midi": 58,
          "time": 166.1110446666686,
          "velocity": 0.7086614173228346,
          "duration": 0.2777776666666796
        },
        {
          "name": "G3",
          "midi": 55,
          "time": 166.1110446666686,
          "velocity": 0.7086614173228346,
          "duration": 0.2777776666666796
        },
        {
          "name": "D#3",
          "midi": 51,
          "time": 166.1110446666686,
          "velocity": 0.7086614173228346,
          "duration": 0.2777776666666796
        },
        {
          "name": "C#3",
          "midi": 49,
          "time": 166.1110446666686,
          "velocity": 0.7086614173228346,
          "duration": 0.2777776666666796
        },
        {
          "name": "C#3",
          "midi": 49,
          "time": 166.38882233333527,
          "velocity": 0.7086614173228346,
          "duration": 0.2777776666666796
        },
        {
          "name": "D#3",
          "midi": 51,
          "time": 166.38882233333527,
          "velocity": 0.7086614173228346,
          "duration": 0.2777776666666796
        },
        {
          "name": "G3",
          "midi": 55,
          "time": 166.38882233333527,
          "velocity": 0.7086614173228346,
          "duration": 0.2777776666666796
        },
        {
          "name": "A#3",
          "midi": 58,
          "time": 166.38882233333527,
          "velocity": 0.7086614173228346,
          "duration": 0.2777776666666796
        },
        {
          "name": "C4",
          "midi": 60,
          "time": 166.66660000000195,
          "velocity": 0.7086614173228346,
          "duration": 1.6666660000000775
        },
        {
          "name": "C3",
          "midi": 48,
          "time": 166.66660000000195,
          "velocity": 0.7086614173228346,
          "duration": 0.2777776666666796
        },
        {
          "name": "D#3",
          "midi": 51,
          "time": 166.94437766666863,
          "velocity": 0.7086614173228346,
          "duration": 0.2777776666666796
        },
        {
          "name": "D#3",
          "midi": 51,
          "time": 167.2221553333353,
          "velocity": 0.7086614173228346,
          "duration": 0.2777776666666796
        },
        {
          "name": "G#3",
          "midi": 56,
          "time": 167.499933000002,
          "velocity": 0.7086614173228346,
          "duration": 0.2777776666666796
        },
        {
          "name": "D#3",
          "midi": 51,
          "time": 167.77771066666867,
          "velocity": 0.7086614173228346,
          "duration": 0.2777776666666796
        },
        {
          "name": "D#3",
          "midi": 51,
          "time": 168.05548833333535,
          "velocity": 0.7086614173228346,
          "duration": 0.2777776666666796
        },
        {
          "name": "A#3",
          "midi": 58,
          "time": 168.33326600000203,
          "velocity": 0.7086614173228346,
          "duration": 1.6666660000000775
        },
        {
          "name": "G3",
          "midi": 55,
          "time": 168.33326600000203,
          "velocity": 0.7086614173228346,
          "duration": 0.2777776666666796
        },
        {
          "name": "D#3",
          "midi": 51,
          "time": 168.6110436666687,
          "velocity": 0.7086614173228346,
          "duration": 0.2777776666666796
        },
        {
          "name": "D#3",
          "midi": 51,
          "time": 168.8888213333354,
          "velocity": 0.7086614173228346,
          "duration": 0.2777776666666796
        },
        {
          "name": "G3",
          "midi": 55,
          "time": 169.16659900000207,
          "velocity": 0.7086614173228346,
          "duration": 0.2777776666666796
        },
        {
          "name": "D#3",
          "midi": 51,
          "time": 169.44437666666875,
          "velocity": 0.7086614173228346,
          "duration": 0.2777776666666796
        },
        {
          "name": "D#3",
          "midi": 51,
          "time": 169.72215433333542,
          "velocity": 0.7086614173228346,
          "duration": 0.2777776666666796
        },
        {
          "name": "D#4",
          "midi": 63,
          "time": 169.9999320000021,
          "velocity": 0.7086614173228346,
          "duration": 2.499999000000116
        },
        {
          "name": "G#3",
          "midi": 56,
          "time": 169.9999320000021,
          "velocity": 0.7086614173228346,
          "duration": 0.2777776666666796
        },
        {
          "name": "D#3",
          "midi": 51,
          "time": 170.27770966666878,
          "velocity": 0.7086614173228346,
          "duration": 0.2777776666666796
        },
        {
          "name": "D#3",
          "midi": 51,
          "time": 170.55548733333546,
          "velocity": 0.7086614173228346,
          "duration": 0.2777776666666796
        },
        {
          "name": "G#3",
          "midi": 56,
          "time": 170.83326500000214,
          "velocity": 0.7086614173228346,
          "duration": 0.2777776666666796
        },
        {
          "name": "D#3",
          "midi": 51,
          "time": 171.11104266666882,
          "velocity": 0.7086614173228346,
          "duration": 0.2777776666666796
        },
        {
          "name": "D#3",
          "midi": 51,
          "time": 171.3888203333355,
          "velocity": 0.7086614173228346,
          "duration": 0.2777776666666796
        },
        {
          "name": "A#3",
          "midi": 58,
          "time": 171.66659800000218,
          "velocity": 0.7086614173228346,
          "duration": 0.2777776666666796
        },
        {
          "name": "D#3",
          "midi": 51,
          "time": 171.94437566666886,
          "velocity": 0.7086614173228346,
          "duration": 0.2777776666666796
        },
        {
          "name": "D#3",
          "midi": 51,
          "time": 172.22215333333554,
          "velocity": 0.7086614173228346,
          "duration": 0.2777776666666796
        },
        {
          "name": "C#4",
          "midi": 61,
          "time": 172.49993100000222,
          "velocity": 0.7086614173228346,
          "duration": 0.8333330000000387
        },
        {
          "name": "A#3",
          "midi": 58,
          "time": 172.49993100000222,
          "velocity": 0.7086614173228346,
          "duration": 0.2777776666666796
        },
        {
          "name": "D#3",
          "midi": 51,
          "time": 172.7777086666689,
          "velocity": 0.7086614173228346,
          "duration": 0.2777776666666796
        },
        {
          "name": "D#3",
          "midi": 51,
          "time": 173.05548633333558,
          "velocity": 0.7086614173228346,
          "duration": 0.2777776666666796
        },
        {
          "name": "C4",
          "midi": 60,
          "time": 173.33326400000226,
          "velocity": 0.7086614173228346,
          "duration": 0.8333330000000387
        },
        {
          "name": "G#3",
          "midi": 56,
          "time": 173.33326400000226,
          "velocity": 0.7086614173228346,
          "duration": 0.2777776666666796
        },
        {
          "name": "D#3",
          "midi": 51,
          "time": 173.61104166666894,
          "velocity": 0.7086614173228346,
          "duration": 0.2777776666666796
        },
        {
          "name": "D#3",
          "midi": 51,
          "time": 173.88881933333562,
          "velocity": 0.7086614173228346,
          "duration": 0.2777776666666796
        },
        {
          "name": "D#4",
          "midi": 63,
          "time": 174.1665970000023,
          "velocity": 0.7086614173228346,
          "duration": 0.8333330000000387
        },
        {
          "name": "A#3",
          "midi": 58,
          "time": 174.1665970000023,
          "velocity": 0.7086614173228346,
          "duration": 0.2777776666666796
        },
        {
          "name": "D#3",
          "midi": 51,
          "time": 174.44437466666898,
          "velocity": 0.7086614173228346,
          "duration": 0.2777776666666796
        },
        {
          "name": "D#3",
          "midi": 51,
          "time": 174.72215233333566,
          "velocity": 0.7086614173228346,
          "duration": 0.2777776666666796
        },
        {
          "name": "G#4",
          "midi": 68,
          "time": 174.99993000000234,
          "velocity": 0.7086614173228346,
          "duration": 0.8333330000000387
        },
        {
          "name": "C4",
          "midi": 60,
          "time": 174.99993000000234,
          "velocity": 0.7086614173228346,
          "duration": 0.2777776666666796
        },
        {
          "name": "G#3",
          "midi": 56,
          "time": 175.27770766666902,
          "velocity": 0.7086614173228346,
          "duration": 0.2777776666666796
        },
        {
          "name": "G#3",
          "midi": 56,
          "time": 175.5554853333357,
          "velocity": 0.7086614173228346,
          "duration": 0.2777776666666796
        },
        {
          "name": "A#4",
          "midi": 70,
          "time": 175.83326300000238,
          "velocity": 0.7086614173228346,
          "duration": 0.8333330000000387
        },
        {
          "name": "D4",
          "midi": 62,
          "time": 175.83326300000238,
          "velocity": 0.7086614173228346,
          "duration": 0.2777776666666796
        },
        {
          "name": "G#3",
          "midi": 56,
          "time": 176.11104066666906,
          "velocity": 0.7086614173228346,
          "duration": 0.2777776666666796
        },
        {
          "name": "G#3",
          "midi": 56,
          "time": 176.38881833333573,
          "velocity": 0.7086614173228346,
          "duration": 0.2777776666666796
        },
        {
          "name": "D#4",
          "midi": 63,
          "time": 176.66659600000241,
          "velocity": 0.7086614173228346,
          "duration": 2.499999000000116
        },
        {
          "name": "G3",
          "midi": 55,
          "time": 176.66659600000241,
          "velocity": 0.7086614173228346,
          "duration": 0.2777776666666796
        },
        {
          "name": "A#3",
          "midi": 58,
          "time": 176.9443736666691,
          "velocity": 0.7086614173228346,
          "duration": 0.2777776666666796
        },
        {
          "name": "A#3",
          "midi": 58,
          "time": 177.22215133333577,
          "velocity": 0.7086614173228346,
          "duration": 0.2777776666666796
        },
        {
          "name": "G3",
          "midi": 55,
          "time": 177.49992900000245,
          "velocity": 0.7086614173228346,
          "duration": 0.2777776666666796
        },
        {
          "name": "A#3",
          "midi": 58,
          "time": 177.77770666666913,
          "velocity": 0.7086614173228346,
          "duration": 0.2777776666666796
        },
        {
          "name": "A#3",
          "midi": 58,
          "time": 178.0554843333358,
          "velocity": 0.7086614173228346,
          "duration": 0.2777776666666796
        },
        {
          "name": "G3",
          "midi": 55,
          "time": 178.3332620000025,
          "velocity": 0.7086614173228346,
          "duration": 0.2777776666666796
        },
        {
          "name": "A#3",
          "midi": 58,
          "time": 178.61103966666917,
          "velocity": 0.7086614173228346,
          "duration": 0.2777776666666796
        },
        {
          "name": "A#3",
          "midi": 58,
          "time": 178.88881733333585,
          "velocity": 0.7086614173228346,
          "duration": 0.2777776666666796
        },
        {
          "name": "G3",
          "midi": 55,
          "time": 179.16659500000253,
          "velocity": 0.7086614173228346,
          "duration": 0.2777776666666796
        },
        {
          "name": "E4",
          "midi": 64,
          "time": 179.16659500000253,
          "velocity": 0.7086614173228346,
          "duration": 0.8333330000000387
        },
        {
          "name": "A#3",
          "midi": 58,
          "time": 179.4443726666692,
          "velocity": 0.7086614173228346,
          "duration": 0.2777776666666796
        },
        {
          "name": "A#3",
          "midi": 58,
          "time": 179.7221503333359,
          "velocity": 0.7086614173228346,
          "duration": 0.2777776666666796
        },
        {
          "name": "F4",
          "midi": 65,
          "time": 179.99992800000257,
          "velocity": 0.7086614173228346,
          "duration": 1.6666660000000775
        },
        {
          "name": "G3",
          "midi": 55,
          "time": 179.99992800000257,
          "velocity": 0.7086614173228346,
          "duration": 0.2777776666666796
        },
        {
          "name": "A#3",
          "midi": 58,
          "time": 180.27770566666925,
          "velocity": 0.7086614173228346,
          "duration": 0.2777776666666796
        },
        {
          "name": "A#3",
          "midi": 58,
          "time": 180.55548333333593,
          "velocity": 0.7086614173228346,
          "duration": 0.2777776666666796
        },
        {
          "name": "G3",
          "midi": 55,
          "time": 180.8332610000026,
          "velocity": 0.7086614173228346,
          "duration": 0.2777776666666796
        },
        {
          "name": "A#3",
          "midi": 58,
          "time": 181.1110386666693,
          "velocity": 0.7086614173228346,
          "duration": 0.2777776666666796
        },
        {
          "name": "A#3",
          "midi": 58,
          "time": 181.38881633333597,
          "velocity": 0.7086614173228346,
          "duration": 0.2777776666666796
        },
        {
          "name": "A#3",
          "midi": 58,
          "time": 181.66659400000265,
          "velocity": 0.7086614173228346,
          "duration": 1.249999500000058
        },
        {
          "name": "G3",
          "midi": 55,
          "time": 181.66659400000265,
          "velocity": 0.7086614173228346,
          "duration": 0.2777776666666796
        },
        {
          "name": "D#3",
          "midi": 51,
          "time": 181.94437166666933,
          "velocity": 0.7086614173228346,
          "duration": 0.2777776666666796
        },
        {
          "name": "D#3",
          "midi": 51,
          "time": 182.222149333336,
          "velocity": 0.7086614173228346,
          "duration": 0.2777776666666796
        },
        {
          "name": "G3",
          "midi": 55,
          "time": 182.49992700000269,
          "velocity": 0.7086614173228346,
          "duration": 0.2777776666666796
        },
        {
          "name": "D#3",
          "midi": 51,
          "time": 182.77770466666936,
          "velocity": 0.7086614173228346,
          "duration": 0.2777776666666796
        },
        {
          "name": "C4",
          "midi": 60,
          "time": 182.9165935000027,
          "velocity": 0.7086614173228346,
          "duration": 0.20833325000000968
        },
        {
          "name": "D#3",
          "midi": 51,
          "time": 183.05548233333604,
          "velocity": 0.7086614173228346,
          "duration": 0.2777776666666796
        },
        {
          "name": "C#4",
          "midi": 61,
          "time": 183.12492675000271,
          "velocity": 0.7086614173228346,
          "duration": 0.20833325000000968
        },
        {
          "name": "D#4",
          "midi": 63,
          "time": 183.33326000000272,
          "velocity": 0.7086614173228346,
          "duration": 1.6666660000000775
        },
        {
          "name": "G#3",
          "midi": 56,
          "time": 183.33326000000272,
          "velocity": 0.7086614173228346,
          "duration": 0.2777776666666796
        },
        {
          "name": "D#3",
          "midi": 51,
          "time": 183.6110376666694,
          "velocity": 0.7086614173228346,
          "duration": 0.2777776666666796
        },
        {
          "name": "D#3",
          "midi": 51,
          "time": 183.88881533333608,
          "velocity": 0.7086614173228346,
          "duration": 0.2777776666666796
        },
        {
          "name": "G#3",
          "midi": 56,
          "time": 184.16659300000276,
          "velocity": 0.7086614173228346,
          "duration": 0.2777776666666796
        },
        {
          "name": "D#3",
          "midi": 51,
          "time": 184.44437066666944,
          "velocity": 0.7086614173228346,
          "duration": 0.2777776666666796
        },
        {
          "name": "D#3",
          "midi": 51,
          "time": 184.72214833333612,
          "velocity": 0.7086614173228346,
          "duration": 0.2777776666666796
        },
        {
          "name": "A3",
          "midi": 57,
          "time": 184.9999260000028,
          "velocity": 0.7086614173228346,
          "duration": 1.6666660000000775
        },
        {
          "name": "D#3",
          "midi": 51,
          "time": 184.9999260000028,
          "velocity": 0.7086614173228346,
          "duration": 0.2777776666666796
        },
        {
          "name": "C3",
          "midi": 48,
          "time": 185.27770366666948,
          "velocity": 0.7086614173228346,
          "duration": 0.2777776666666796
        },
        {
          "name": "C3",
          "midi": 48,
          "time": 185.55548133333616,
          "velocity": 0.7086614173228346,
          "duration": 0.2777776666666796
        },
        {
          "name": "D#3",
          "midi": 51,
          "time": 185.83325900000284,
          "velocity": 0.7086614173228346,
          "duration": 0.2777776666666796
        },
        {
          "name": "C3",
          "midi": 48,
          "time": 186.11103666666952,
          "velocity": 0.7086614173228346,
          "duration": 0.2777776666666796
        },
        {
          "name": "C3",
          "midi": 48,
          "time": 186.3888143333362,
          "velocity": 0.7086614173228346,
          "duration": 0.2777776666666796
        },
        {
          "name": "F3",
          "midi": 53,
          "time": 186.66659200000288,
          "velocity": 0.7086614173228346,
          "duration": 0.2777776666666796
        },
        {
          "name": "C#4",
          "midi": 61,
          "time": 186.66659200000288,
          "velocity": 0.7086614173228346,
          "duration": 1.6666660000000775
        },
        {
          "name": "C#3",
          "midi": 49,
          "time": 186.94436966666956,
          "velocity": 0.7086614173228346,
          "duration": 0.2777776666666796
        },
        {
          "name": "C#3",
          "midi": 49,
          "time": 187.22214733333624,
          "velocity": 0.7086614173228346,
          "duration": 0.2777776666666796
        },
        {
          "name": "F3",
          "midi": 53,
          "time": 187.49992500000292,
          "velocity": 0.7086614173228346,
          "duration": 0.2777776666666796
        },
        {
          "name": "C#3",
          "midi": 49,
          "time": 187.7777026666696,
          "velocity": 0.7086614173228346,
          "duration": 0.2777776666666796
        },
        {
          "name": "C#3",
          "midi": 49,
          "time": 188.05548033333628,
          "velocity": 0.7086614173228346,
          "duration": 0.2777776666666796
        },
        {
          "name": "C#4",
          "midi": 61,
          "time": 188.33325800000296,
          "velocity": 0.7086614173228346,
          "duration": 0.2777776666666796
        },
        {
          "name": "G3",
          "midi": 55,
          "time": 188.33325800000296,
          "velocity": 0.7086614173228346,
          "duration": 0.2777776666666796
        },
        {
          "name": "C#3",
          "midi": 49,
          "time": 188.61103566666964,
          "velocity": 0.7086614173228346,
          "duration": 0.2777776666666796
        },
        {
          "name": "C4",
          "midi": 60,
          "time": 188.61103566666964,
          "velocity": 0.7086614173228346,
          "duration": 0.2777776666666796
        },
        {
          "name": "A#3",
          "midi": 58,
          "time": 188.88881333333632,
          "velocity": 0.7086614173228346,
          "duration": 0.2777776666666796
        },
        {
          "name": "C#3",
          "midi": 49,
          "time": 188.88881333333632,
          "velocity": 0.7086614173228346,
          "duration": 0.2777776666666796
        },
        {
          "name": "A#3",
          "midi": 58,
          "time": 189.166591000003,
          "velocity": 0.7086614173228346,
          "duration": 0.2777776666666796
        },
        {
          "name": "C#3",
          "midi": 49,
          "time": 189.166591000003,
          "velocity": 0.7086614173228346,
          "duration": 0.2777776666666796
        },
        {
          "name": "G#3",
          "midi": 56,
          "time": 189.44436866666967,
          "velocity": 0.7086614173228346,
          "duration": 0.2777776666666796
        },
        {
          "name": "C#3",
          "midi": 49,
          "time": 189.44436866666967,
          "velocity": 0.7086614173228346,
          "duration": 0.2777776666666796
        },
        {
          "name": "C#3",
          "midi": 49,
          "time": 189.72214633333635,
          "velocity": 0.7086614173228346,
          "duration": 0.2777776666666796
        },
        {
          "name": "G3",
          "midi": 55,
          "time": 189.72214633333635,
          "velocity": 0.7086614173228346,
          "duration": 0.2777776666666796
        },
        {
          "name": "A#3",
          "midi": 58,
          "time": 189.99992400000303,
          "velocity": 0.7086614173228346,
          "duration": 1.6666660000000775
        },
        {
          "name": "G3",
          "midi": 55,
          "time": 189.99992400000303,
          "velocity": 0.7086614173228346,
          "duration": 1.6666660000000775
        },
        {
          "name": "C#3",
          "midi": 49,
          "time": 189.99992400000303,
          "velocity": 0.7086614173228346,
          "duration": 0.2777776666666796
        },
        {
          "name": "D#3",
          "midi": 51,
          "time": 190.2777016666697,
          "velocity": 0.7086614173228346,
          "duration": 0.2777776666666796
        },
        {
          "name": "D#3",
          "midi": 51,
          "time": 190.5554793333364,
          "velocity": 0.7086614173228346,
          "duration": 0.2777776666666796
        },
        {
          "name": "C#3",
          "midi": 49,
          "time": 190.83325700000307,
          "velocity": 0.7086614173228346,
          "duration": 0.2777776666666796
        },
        {
          "name": "D#3",
          "midi": 51,
          "time": 191.11103466666975,
          "velocity": 0.7086614173228346,
          "duration": 0.2777776666666796
        },
        {
          "name": "D#3",
          "midi": 51,
          "time": 191.38881233333643,
          "velocity": 0.7086614173228346,
          "duration": 0.2777776666666796
        },
        {
          "name": "G#3",
          "midi": 56,
          "time": 191.6665900000031,
          "velocity": 0.7086614173228346,
          "duration": 0.5555553333333592
        },
        {
          "name": "C3",
          "midi": 48,
          "time": 191.6665900000031,
          "velocity": 0.7086614173228346,
          "duration": 0.2777776666666796
        },
        {
          "name": "D#3",
          "midi": 51,
          "time": 191.9443676666698,
          "velocity": 0.7086614173228346,
          "duration": 0.2777776666666796
        },
        {
          "name": "G#3",
          "midi": 56,
          "time": 192.22214533333647,
          "velocity": 0.7086614173228346,
          "duration": 0.2777776666666796
        },
        {
          "name": "C4",
          "midi": 60,
          "time": 192.49992300000315,
          "velocity": 0.7086614173228346,
          "duration": 0.2777776666666796
        },
        {
          "name": "D#4",
          "midi": 63,
          "time": 192.77770066666983,
          "velocity": 0.7086614173228346,
          "duration": 0.2777776666666796
        },
        {
          "name": "G#4",
          "midi": 68,
          "time": 193.0554783333365,
          "velocity": 0.7086614173228346,
          "duration": 0.2777776666666796
        },
        {
          "name": "C4",
          "midi": 60,
          "time": 193.3332560000032,
          "velocity": 0.7086614173228346,
          "duration": 0.2777776666666796
        },
        {
          "name": "C5",
          "midi": 72,
          "time": 193.3332560000032,
          "velocity": 0.7086614173228346,
          "duration": 1.6666660000000775
        },
        {
          "name": "D#4",
          "midi": 63,
          "time": 193.61103366666987,
          "velocity": 0.7086614173228346,
          "duration": 0.2777776666666796
        },
        {
          "name": "D#4",
          "midi": 63,
          "time": 193.88881133333655,
          "velocity": 0.7086614173228346,
          "duration": 0.2777776666666796
        },
        {
          "name": "C4",
          "midi": 60,
          "time": 194.16658900000323,
          "velocity": 0.7086614173228346,
          "duration": 0.2777776666666796
        },
        {
          "name": "D#4",
          "midi": 63,
          "time": 194.4443666666699,
          "velocity": 0.7086614173228346,
          "duration": 0.2777776666666796
        },
        {
          "name": "D#4",
          "midi": 63,
          "time": 194.7221443333366,
          "velocity": 0.7086614173228346,
          "duration": 0.2777776666666796
        },
        {
          "name": "A#4",
          "midi": 70,
          "time": 194.99992200000327,
          "velocity": 0.7086614173228346,
          "duration": 1.6666660000000775
        },
        {
          "name": "A#3",
          "midi": 58,
          "time": 194.99992200000327,
          "velocity": 0.7086614173228346,
          "duration": 0.2777776666666796
        },
        {
          "name": "D#4",
          "midi": 63,
          "time": 195.27769966666995,
          "velocity": 0.7086614173228346,
          "duration": 0.2777776666666796
        },
        {
          "name": "D#4",
          "midi": 63,
          "time": 195.55547733333663,
          "velocity": 0.7086614173228346,
          "duration": 0.2777776666666796
        },
        {
          "name": "A#3",
          "midi": 58,
          "time": 195.8332550000033,
          "velocity": 0.7086614173228346,
          "duration": 0.2777776666666796
        },
        {
          "name": "D#4",
          "midi": 63,
          "time": 196.11103266666998,
          "velocity": 0.7086614173228346,
          "duration": 0.2777776666666796
        },
        {
          "name": "D#4",
          "midi": 63,
          "time": 196.38881033333666,
          "velocity": 0.7086614173228346,
          "duration": 0.2777776666666796
        },
        {
          "name": "D#5",
          "midi": 75,
          "time": 196.66658800000334,
          "velocity": 0.7086614173228346,
          "duration": 2.499999000000116
        },
        {
          "name": "D#4",
          "midi": 63,
          "time": 196.66658800000334,
          "velocity": 0.7086614173228346,
          "duration": 0.2777776666666796
        },
        {
          "name": "G#4",
          "midi": 68,
          "time": 196.94436566667002,
          "velocity": 0.7086614173228346,
          "duration": 0.2777776666666796
        },
        {
          "name": "G#4",
          "midi": 68,
          "time": 197.2221433333367,
          "velocity": 0.7086614173228346,
          "duration": 0.2777776666666796
        },
        {
          "name": "D#4",
          "midi": 63,
          "time": 197.49992100000338,
          "velocity": 0.7086614173228346,
          "duration": 0.2777776666666796
        },
        {
          "name": "G#4",
          "midi": 68,
          "time": 197.77769866667006,
          "velocity": 0.7086614173228346,
          "duration": 0.2777776666666796
        },
        {
          "name": "G#4",
          "midi": 68,
          "time": 198.05547633333674,
          "velocity": 0.7086614173228346,
          "duration": 0.2777776666666796
        },
        {
          "name": "D#4",
          "midi": 63,
          "time": 198.33325400000342,
          "velocity": 0.7086614173228346,
          "duration": 0.2777776666666796
        },
        {
          "name": "A#4",
          "midi": 70,
          "time": 198.6110316666701,
          "velocity": 0.7086614173228346,
          "duration": 0.2777776666666796
        },
        {
          "name": "A#4",
          "midi": 70,
          "time": 198.88880933333678,
          "velocity": 0.7086614173228346,
          "duration": 0.2777776666666796
        },
        {
          "name": "C#5",
          "midi": 73,
          "time": 199.16658700000346,
          "velocity": 0.7086614173228346,
          "duration": 0.8333330000000387
        },
        {
          "name": "D#4",
          "midi": 63,
          "time": 199.16658700000346,
          "velocity": 0.7086614173228346,
          "duration": 0.2777776666666796
        },
        {
          "name": "A#4",
          "midi": 70,
          "time": 199.44436466667014,
          "velocity": 0.7086614173228346,
          "duration": 0.2777776666666796
        },
        {
          "name": "A#4",
          "midi": 70,
          "time": 199.72214233333682,
          "velocity": 0.7086614173228346,
          "duration": 0.2777776666666796
        },
        {
          "name": "C5",
          "midi": 72,
          "time": 199.9999200000035,
          "velocity": 0.7086614173228346,
          "duration": 0.8333330000000387
        },
        {
          "name": "D#4",
          "midi": 63,
          "time": 199.9999200000035,
          "velocity": 0.7086614173228346,
          "duration": 0.2777776666666796
        },
        {
          "name": "G#4",
          "midi": 68,
          "time": 200.27769766667018,
          "velocity": 0.7086614173228346,
          "duration": 0.2777776666666796
        },
        {
          "name": "G#4",
          "midi": 68,
          "time": 200.55547533333686,
          "velocity": 0.7086614173228346,
          "duration": 0.2777776666666796
        },
        {
          "name": "D#4",
          "midi": 63,
          "time": 200.83325300000354,
          "velocity": 0.7086614173228346,
          "duration": 0.2777776666666796
        },
        {
          "name": "D#5",
          "midi": 75,
          "time": 200.83325300000354,
          "velocity": 0.7086614173228346,
          "duration": 0.8333330000000387
        },
        {
          "name": "A#4",
          "midi": 70,
          "time": 201.11103066667022,
          "velocity": 0.7086614173228346,
          "duration": 0.2777776666666796
        },
        {
          "name": "A#4",
          "midi": 70,
          "time": 201.3888083333369,
          "velocity": 0.7086614173228346,
          "duration": 0.2777776666666796
        },
        {
          "name": "G#5",
          "midi": 80,
          "time": 201.66658600000358,
          "velocity": 0.7086614173228346,
          "duration": 0.8333330000000387
        },
        {
          "name": "G#4",
          "midi": 68,
          "time": 201.66658600000358,
          "velocity": 0.7086614173228346,
          "duration": 0.2777776666666796
        },
        {
          "name": "C5",
          "midi": 72,
          "time": 201.94436366667026,
          "velocity": 0.7086614173228346,
          "duration": 0.2777776666666796
        },
        {
          "name": "C5",
          "midi": 72,
          "time": 202.22214133333694,
          "velocity": 0.7086614173228346,
          "duration": 0.2777776666666796
        },
        {
          "name": "G#4",
          "midi": 68,
          "time": 202.49991900000362,
          "velocity": 0.7086614173228346,
          "duration": 0.2777776666666796
        },
        {
          "name": "A#5",
          "midi": 82,
          "time": 202.49991900000362,
          "velocity": 0.7086614173228346,
          "duration": 0.8333330000000387
        },
        {
          "name": "D5",
          "midi": 74,
          "time": 202.7776966666703,
          "velocity": 0.7086614173228346,
          "duration": 0.2777776666666796
        },
        {
          "name": "D5",
          "midi": 74,
          "time": 203.05547433333697,
          "velocity": 0.7086614173228346,
          "duration": 0.2777776666666796
        },
        {
          "name": "D#5",
          "midi": 75,
          "time": 203.33325200000365,
          "velocity": 0.7086614173228346,
          "duration": 2.499999000000116
        },
        {
          "name": "G4",
          "midi": 67,
          "time": 203.33325200000365,
          "velocity": 0.7086614173228346,
          "duration": 0.2777776666666796
        },
        {
          "name": "A#4",
          "midi": 70,
          "time": 203.61102966667033,
          "velocity": 0.7086614173228346,
          "duration": 0.2777776666666796
        },
        {
          "name": "A#4",
          "midi": 70,
          "time": 203.888807333337,
          "velocity": 0.7086614173228346,
          "duration": 0.2777776666666796
        },
        {
          "name": "G4",
          "midi": 67,
          "time": 204.1665850000037,
          "velocity": 0.7086614173228346,
          "duration": 0.2777776666666796
        },
        {
          "name": "A#4",
          "midi": 70,
          "time": 204.44436266667037,
          "velocity": 0.7086614173228346,
          "duration": 0.2777776666666796
        },
        {
          "name": "A#4",
          "midi": 70,
          "time": 204.72214033333705,
          "velocity": 0.7086614173228346,
          "duration": 0.2777776666666796
        },
        {
          "name": "G4",
          "midi": 67,
          "time": 204.99991800000373,
          "velocity": 0.7086614173228346,
          "duration": 0.2777776666666796
        },
        {
          "name": "A#4",
          "midi": 70,
          "time": 205.2776956666704,
          "velocity": 0.7086614173228346,
          "duration": 0.2777776666666796
        },
        {
          "name": "A#4",
          "midi": 70,
          "time": 205.5554733333371,
          "velocity": 0.7086614173228346,
          "duration": 0.2777776666666796
        },
        {
          "name": "E5",
          "midi": 76,
          "time": 205.83325100000377,
          "velocity": 0.7086614173228346,
          "duration": 0.8333330000000387
        },
        {
          "name": "G4",
          "midi": 67,
          "time": 205.83325100000377,
          "velocity": 0.7086614173228346,
          "duration": 0.2777776666666796
        },
        {
          "name": "A#4",
          "midi": 70,
          "time": 206.11102866667045,
          "velocity": 0.7086614173228346,
          "duration": 0.2777776666666796
        },
        {
          "name": "A#4",
          "midi": 70,
          "time": 206.38880633333713,
          "velocity": 0.7086614173228346,
          "duration": 0.2777776666666796
        },
        {
          "name": "F5",
          "midi": 77,
          "time": 206.6665840000038,
          "velocity": 0.7086614173228346,
          "duration": 1.6666660000000775
        },
        {
          "name": "G4",
          "midi": 67,
          "time": 206.6665840000038,
          "velocity": 0.7086614173228346,
          "duration": 0.2777776666666796
        },
        {
          "name": "A#4",
          "midi": 70,
          "time": 206.9443616666705,
          "velocity": 0.7086614173228346,
          "duration": 0.2777776666666796
        },
        {
          "name": "A#4",
          "midi": 70,
          "time": 207.22213933333717,
          "velocity": 0.7086614173228346,
          "duration": 0.2777776666666796
        },
        {
          "name": "G4",
          "midi": 67,
          "time": 207.49991700000385,
          "velocity": 0.7086614173228346,
          "duration": 0.2777776666666796
        },
        {
          "name": "A#4",
          "midi": 70,
          "time": 207.77769466667053,
          "velocity": 0.7086614173228346,
          "duration": 0.2777776666666796
        },
        {
          "name": "A#4",
          "midi": 70,
          "time": 208.0554723333372,
          "velocity": 0.7086614173228346,
          "duration": 0.2777776666666796
        },
        {
          "name": "G4",
          "midi": 67,
          "time": 208.3332500000039,
          "velocity": 0.7086614173228346,
          "duration": 0.2777776666666796
        },
        {
          "name": "A#4",
          "midi": 70,
          "time": 208.3332500000039,
          "velocity": 0.7086614173228346,
          "duration": 1.249999500000058
        },
        {
          "name": "D#4",
          "midi": 63,
          "time": 208.61102766667057,
          "velocity": 0.7086614173228346,
          "duration": 0.2777776666666796
        },
        {
          "name": "D#4",
          "midi": 63,
          "time": 208.88880533333725,
          "velocity": 0.7086614173228346,
          "duration": 0.2777776666666796
        },
        {
          "name": "G4",
          "midi": 67,
          "time": 209.16658300000393,
          "velocity": 0.7086614173228346,
          "duration": 0.2777776666666796
        },
        {
          "name": "D#4",
          "midi": 63,
          "time": 209.4443606666706,
          "velocity": 0.7086614173228346,
          "duration": 0.2777776666666796
        },
        {
          "name": "C5",
          "midi": 72,
          "time": 209.58324950000394,
          "velocity": 0.7086614173228346,
          "duration": 0.20833325000000968
        },
        {
          "name": "D#4",
          "midi": 63,
          "time": 209.72213833333728,
          "velocity": 0.7086614173228346,
          "duration": 0.2777776666666796
        },
        {
          "name": "C#5",
          "midi": 73,
          "time": 209.79158275000395,
          "velocity": 0.7086614173228346,
          "duration": 0.20833325000000968
        },
        {
          "name": "G#4",
          "midi": 68,
          "time": 209.99991600000396,
          "velocity": 0.7086614173228346,
          "duration": 0.2777776666666796
        },
        {
          "name": "D#5",
          "midi": 75,
          "time": 209.99991600000396,
          "velocity": 0.7086614173228346,
          "duration": 1.6666660000000775
        },
        {
          "name": "D#4",
          "midi": 63,
          "time": 210.27769366667064,
          "velocity": 0.7086614173228346,
          "duration": 0.2777776666666796
        },
        {
          "name": "D#4",
          "midi": 63,
          "time": 210.55547133333732,
          "velocity": 0.7086614173228346,
          "duration": 0.2777776666666796
        },
        {
          "name": "G#4",
          "midi": 68,
          "time": 210.833249000004,
          "velocity": 0.7086614173228346,
          "duration": 0.2777776666666796
        },
        {
          "name": "D#4",
          "midi": 63,
          "time": 211.11102666667068,
          "velocity": 0.7086614173228346,
          "duration": 0.2777776666666796
        },
        {
          "name": "D#4",
          "midi": 63,
          "time": 211.38880433333736,
          "velocity": 0.7086614173228346,
          "duration": 0.2777776666666796
        },
        {
          "name": "A4",
          "midi": 69,
          "time": 211.66658200000404,
          "velocity": 0.7086614173228346,
          "duration": 1.6666660000000775
        },
        {
          "name": "D#4",
          "midi": 63,
          "time": 211.66658200000404,
          "velocity": 0.7086614173228346,
          "duration": 0.2777776666666796
        },
        {
          "name": "C4",
          "midi": 60,
          "time": 211.94435966667072,
          "velocity": 0.7086614173228346,
          "duration": 0.2777776666666796
        },
        {
          "name": "C4",
          "midi": 60,
          "time": 212.2221373333374,
          "velocity": 0.7086614173228346,
          "duration": 0.2777776666666796
        },
        {
          "name": "D#4",
          "midi": 63,
          "time": 212.49991500000408,
          "velocity": 0.7086614173228346,
          "duration": 0.2777776666666796
        },
        {
          "name": "C4",
          "midi": 60,
          "time": 212.77769266667076,
          "velocity": 0.7086614173228346,
          "duration": 0.2777776666666796
        },
        {
          "name": "C4",
          "midi": 60,
          "time": 213.05547033333744,
          "velocity": 0.7086614173228346,
          "duration": 0.2777776666666796
        },
        {
          "name": "C#5",
          "midi": 73,
          "time": 213.33324800000412,
          "velocity": 0.7086614173228346,
          "duration": 1.6666660000000775
        },
        {
          "name": "F4",
          "midi": 65,
          "time": 213.33324800000412,
          "velocity": 0.7086614173228346,
          "duration": 0.2777776666666796
        },
        {
          "name": "C#4",
          "midi": 61,
          "time": 213.6110256666708,
          "velocity": 0.7086614173228346,
          "duration": 0.2777776666666796
        },
        {
          "name": "C#4",
          "midi": 61,
          "time": 213.88880333333748,
          "velocity": 0.7086614173228346,
          "duration": 0.2777776666666796
        },
        {
          "name": "F4",
          "midi": 65,
          "time": 214.16658100000416,
          "velocity": 0.7086614173228346,
          "duration": 0.2777776666666796
        },
        {
          "name": "C#4",
          "midi": 61,
          "time": 214.44435866667084,
          "velocity": 0.7086614173228346,
          "duration": 0.2777776666666796
        },
        {
          "name": "C#4",
          "midi": 61,
          "time": 214.72213633333752,
          "velocity": 0.7086614173228346,
          "duration": 0.2777776666666796
        },
        {
          "name": "C#5",
          "midi": 73,
          "time": 214.9999140000042,
          "velocity": 0.7086614173228346,
          "duration": 0.2777776666666796
        },
        {
          "name": "G4",
          "midi": 67,
          "time": 214.9999140000042,
          "velocity": 0.7086614173228346,
          "duration": 0.2777776666666796
        },
        {
          "name": "C5",
          "midi": 72,
          "time": 215.27769166667088,
          "velocity": 0.7086614173228346,
          "duration": 0.2777776666666796
        },
        {
          "name": "C#4",
          "midi": 61,
          "time": 215.27769166667088,
          "velocity": 0.7086614173228346,
          "duration": 0.2777776666666796
        },
        {
          "name": "C#4",
          "midi": 61,
          "time": 215.55546933333756,
          "velocity": 0.7086614173228346,
          "duration": 0.2777776666666796
        },
        {
          "name": "A#4",
          "midi": 70,
          "time": 215.55546933333756,
          "velocity": 0.7086614173228346,
          "duration": 0.2777776666666796
        },
        {
          "name": "A#4",
          "midi": 70,
          "time": 215.83324700000423,
          "velocity": 0.7086614173228346,
          "duration": 0.2777776666666796
        },
        {
          "name": "C#4",
          "midi": 61,
          "time": 215.83324700000423,
          "velocity": 0.7086614173228346,
          "duration": 0.2777776666666796
        },
        {
          "name": "G#4",
          "midi": 68,
          "time": 216.11102466667091,
          "velocity": 0.7086614173228346,
          "duration": 0.2777776666666796
        },
        {
          "name": "C#4",
          "midi": 61,
          "time": 216.11102466667091,
          "velocity": 0.7086614173228346,
          "duration": 0.2777776666666796
        },
        {
          "name": "G4",
          "midi": 67,
          "time": 216.3888023333376,
          "velocity": 0.7086614173228346,
          "duration": 0.2777776666666796
        },
        {
          "name": "C#4",
          "midi": 61,
          "time": 216.3888023333376,
          "velocity": 0.7086614173228346,
          "duration": 0.2777776666666796
        },
        {
          "name": "G#4",
          "midi": 68,
          "time": 216.66658000000427,
          "velocity": 0.7086614173228346,
          "duration": 0.8333330000000103
        },
        {
          "name": "C4",
          "midi": 60,
          "time": 216.66658000000427,
          "velocity": 0.7086614173228346,
          "duration": 0.8333330000000103
        },
        {
          "name": "D#5",
          "midi": 75,
          "time": 219.16657900000428,
          "velocity": 0.7086614173228346,
          "duration": 0.6249997500000006
        },
        {
          "name": "E5",
          "midi": 76,
          "time": 219.79157875000428,
          "velocity": 0.7086614173228346,
          "duration": 0.20833325000000968
        },
        {
          "name": "F5",
          "midi": 77,
          "time": 219.9999120000043,
          "velocity": 0.7086614173228346,
          "duration": 1.1111106666666615
        },
        {
          "name": "D#5",
          "midi": 75,
          "time": 221.11102266667095,
          "velocity": 0.7086614173228346,
          "duration": 0.2777776666666796
        },
        {
          "name": "C#5",
          "midi": 73,
          "time": 221.38880033333763,
          "velocity": 0.7086614173228346,
          "duration": 0.2777776666666796
        },
        {
          "name": "C5",
          "midi": 72,
          "time": 221.6665780000043,
          "velocity": 0.7086614173228346,
          "duration": 0.2777776666666796
        },
        {
          "name": "A#4",
          "midi": 70,
          "time": 221.944355666671,
          "velocity": 0.7086614173228346,
          "duration": 0.2777776666666796
        },
        {
          "name": "G#4",
          "midi": 68,
          "time": 222.22213333333767,
          "velocity": 0.7086614173228346,
          "duration": 0.2777776666666796
        },
        {
          "name": "G4",
          "midi": 67,
          "time": 222.49991100000435,
          "velocity": 0.7086614173228346,
          "duration": 0.20833325000000968
        },
        {
          "name": "C#5",
          "midi": 73,
          "time": 222.70824425000436,
          "velocity": 0.7086614173228346,
          "duration": 0.20833325000000968
        },
        {
          "name": "A#4",
          "midi": 70,
          "time": 222.91657750000437,
          "velocity": 0.7086614173228346,
          "duration": 0.20833325000000968
        },
        {
          "name": "G4",
          "midi": 67,
          "time": 223.12491075000437,
          "velocity": 0.7086614173228346,
          "duration": 0.20833325000000968
        },
        {
          "name": "G#4",
          "midi": 68,
          "time": 223.33324400000438,
          "velocity": 0.7086614173228346,
          "duration": 0.6249997500000006
        },
        {
          "name": "C5",
          "midi": 72,
          "time": 223.95824375000439,
          "velocity": 0.7086614173228346,
          "duration": 0.20833325000000968
        },
        {
          "name": "D#4",
          "midi": 63,
          "time": 224.1665770000044,
          "velocity": 0.7086614173228346,
          "duration": 0.8333330000000103
        },
        {
          "name": "D#5",
          "midi": 75,
          "time": 225.83324300000442,
          "velocity": 0.7086614173228346,
          "duration": 0.6249997500000006
        },
        {
          "name": "D#6",
          "midi": 87,
          "time": 225.83324300000442,
          "velocity": 0.7086614173228346,
          "duration": 0.6249997500000006
        },
        {
          "name": "E6",
          "midi": 88,
          "time": 226.45824275000442,
          "velocity": 0.7086614173228346,
          "duration": 0.20833325000000968
        },
        {
          "name": "E5",
          "midi": 76,
          "time": 226.45824275000442,
          "velocity": 0.7086614173228346,
          "duration": 0.20833325000000968
        },
        {
          "name": "F6",
          "midi": 89,
          "time": 226.66657600000443,
          "velocity": 0.7086614173228346,
          "duration": 1.1111106666666615
        },
        {
          "name": "F5",
          "midi": 77,
          "time": 226.66657600000443,
          "velocity": 0.7086614173228346,
          "duration": 1.1111106666666615
        },
        {
          "name": "D#5",
          "midi": 75,
          "time": 227.7776866666711,
          "velocity": 0.7086614173228346,
          "duration": 0.2777776666666796
        },
        {
          "name": "D#6",
          "midi": 87,
          "time": 227.7776866666711,
          "velocity": 0.7086614173228346,
          "duration": 0.2777776666666796
        },
        {
          "name": "C#6",
          "midi": 85,
          "time": 228.05546433333777,
          "velocity": 0.7086614173228346,
          "duration": 0.2777776666666796
        },
        {
          "name": "C#5",
          "midi": 73,
          "time": 228.05546433333777,
          "velocity": 0.7086614173228346,
          "duration": 0.2777776666666796
        },
        {
          "name": "C6",
          "midi": 84,
          "time": 228.33324200000445,
          "velocity": 0.7086614173228346,
          "duration": 0.2777776666666796
        },
        {
          "name": "C5",
          "midi": 72,
          "time": 228.33324200000445,
          "velocity": 0.7086614173228346,
          "duration": 0.2777776666666796
        },
        {
          "name": "A#5",
          "midi": 82,
          "time": 228.61101966667113,
          "velocity": 0.7086614173228346,
          "duration": 0.2777776666666796
        },
        {
          "name": "A#4",
          "midi": 70,
          "time": 228.61101966667113,
          "velocity": 0.7086614173228346,
          "duration": 0.2777776666666796
        },
        {
          "name": "G#5",
          "midi": 80,
          "time": 228.8887973333378,
          "velocity": 0.7086614173228346,
          "duration": 0.2777776666666796
        },
        {
          "name": "G#4",
          "midi": 68,
          "time": 228.8887973333378,
          "velocity": 0.7086614173228346,
          "duration": 0.2777776666666796
        },
        {
          "name": "G5",
          "midi": 79,
          "time": 229.16657500000449,
          "velocity": 0.7086614173228346,
          "duration": 0.2777776666666796
        },
        {
          "name": "G4",
          "midi": 67,
          "time": 229.16657500000449,
          "velocity": 0.7086614173228346,
          "duration": 0.2777776666666796
        },
        {
          "name": "C#6",
          "midi": 85,
          "time": 229.44435266667116,
          "velocity": 0.7086614173228346,
          "duration": 0.2777776666666796
        },
        {
          "name": "C#5",
          "midi": 73,
          "time": 229.44435266667116,
          "velocity": 0.7086614173228346,
          "duration": 0.2777776666666796
        },
        {
          "name": "G5",
          "midi": 79,
          "time": 229.72213033333784,
          "velocity": 0.7086614173228346,
          "duration": 0.2777776666666796
        },
        {
          "name": "G4",
          "midi": 67,
          "time": 229.72213033333784,
          "velocity": 0.7086614173228346,
          "duration": 0.2777776666666796
        },
        {
          "name": "G#4",
          "midi": 68,
          "time": 229.99990800000452,
          "velocity": 0.7086614173228346,
          "duration": 0.6423608541666681
        },
        {
          "name": "G#5",
          "midi": 80,
          "time": 229.99990800000452,
          "velocity": 0.7086614173228346,
          "duration": 0.6423608541666681
        },
        {
          "name": "D#5",
          "midi": 75,
          "time": 231.4756018541712,
          "velocity": 0.7086614173228346,
          "duration": 0.18663186979165403
        },
        {
          "name": "C#5",
          "midi": 73,
          "time": 231.66657400000452,
          "velocity": 0.7086614173228346,
          "duration": 0.2777776666666796
        },
        {
          "name": "C5",
          "midi": 72,
          "time": 231.9443516666712,
          "velocity": 0.7086614173228346,
          "duration": 0.2777776666666796
        },
        {
          "name": "C#5",
          "midi": 73,
          "time": 232.22212933333788,
          "velocity": 0.7086614173228346,
          "duration": 0.2777776666666796
        },
        {
          "name": "F5",
          "midi": 77,
          "time": 232.49990700000455,
          "velocity": 0.7086614173228346,
          "duration": 0.2777776666666796
        },
        {
          "name": "D#5",
          "midi": 75,
          "time": 232.77768466667123,
          "velocity": 0.7086614173228346,
          "duration": 0.2777776666666796
        },
        {
          "name": "C#5",
          "midi": 73,
          "time": 233.0554623333379,
          "velocity": 0.7086614173228346,
          "duration": 0.2777776666666796
        },
        {
          "name": "C5",
          "midi": 72,
          "time": 233.3332400000046,
          "velocity": 0.7086614173228346,
          "duration": 0.6423608541666681
        },
        {
          "name": "C5",
          "midi": 72,
          "time": 234.80893385417127,
          "velocity": 0.7086614173228346,
          "duration": 0.18663186979165403
        },
        {
          "name": "A#4",
          "midi": 70,
          "time": 234.9999060000046,
          "velocity": 0.7086614173228346,
          "duration": 0.2777776666666796
        },
        {
          "name": "G4",
          "midi": 67,
          "time": 234.9999060000046,
          "velocity": 0.7086614173228346,
          "duration": 1.6666660000000775
        },
        {
          "name": "A4",
          "midi": 69,
          "time": 235.27768366667127,
          "velocity": 0.7086614173228346,
          "duration": 0.2777776666666796
        },
        {
          "name": "A#4",
          "midi": 70,
          "time": 235.55546133333795,
          "velocity": 0.7086614173228346,
          "duration": 0.2777776666666796
        },
        {
          "name": "C#5",
          "midi": 73,
          "time": 235.83323900000462,
          "velocity": 0.7086614173228346,
          "duration": 0.2777776666666796
        },
        {
          "name": "C5",
          "midi": 72,
          "time": 236.1110166666713,
          "velocity": 0.7086614173228346,
          "duration": 0.2777776666666796
        },
        {
          "name": "A#4",
          "midi": 70,
          "time": 236.38879433333798,
          "velocity": 0.7086614173228346,
          "duration": 0.08680552083333737
        },
        {
          "name": "G#4",
          "midi": 68,
          "time": 236.66657200000466,
          "velocity": 0.7086614173228346,
          "duration": 0.8333330000000103
        },
        {
          "name": "C4",
          "midi": 60,
          "time": 238.14226585417134,
          "velocity": 0.7086614173228346,
          "duration": 0.18663186979165403
        },
        {
          "name": "A#3",
          "midi": 58,
          "time": 238.33323800000466,
          "velocity": 0.7086614173228346,
          "duration": 0.2777776666666796
        },
        {
          "name": "G3",
          "midi": 55,
          "time": 238.33323800000466,
          "velocity": 0.7086614173228346,
          "duration": 1.6666660000000775
        },
        {
          "name": "A3",
          "midi": 57,
          "time": 238.61101566667134,
          "velocity": 0.7086614173228346,
          "duration": 0.2777776666666796
        },
        {
          "name": "A#3",
          "midi": 58,
          "time": 238.88879333333801,
          "velocity": 0.7086614173228346,
          "duration": 0.2777776666666796
        },
        {
          "name": "C#4",
          "midi": 61,
          "time": 239.1665710000047,
          "velocity": 0.7086614173228346,
          "duration": 0.2777776666666796
        },
        {
          "name": "C4",
          "midi": 60,
          "time": 239.44434866667137,
          "velocity": 0.7086614173228346,
          "duration": 0.2777776666666796
        },
        {
          "name": "A#3",
          "midi": 58,
          "time": 239.72212633333805,
          "velocity": 0.7086614173228346,
          "duration": 0.2777776666666796
        },
        {
          "name": "G#3",
          "midi": 56,
          "time": 239.99990400000473,
          "velocity": 0.7086614173228346,
          "duration": 0.41666649999999095
        },
        {
          "name": "G#3",
          "midi": 56,
          "time": 240.83323700000471,
          "velocity": 0.7086614173228346,
          "duration": 0.41666649999999095
        },
        {
          "name": "D#3",
          "midi": 51,
          "time": 240.83323700000471,
          "velocity": 0.7086614173228346,
          "duration": 0.41666649999999095
        },
        {
          "name": "C3",
          "midi": 48,
          "time": 240.83323700000471,
          "velocity": 0.7086614173228346,
          "duration": 0.41666649999999095
        },
        {
          "name": "G#3",
          "midi": 56,
          "time": 241.6665700000047,
          "velocity": 0.7086614173228346,
          "duration": 1.6666659999999922
        },
        {
          "name": "C3",
          "midi": 48,
          "time": 241.6665700000047,
          "velocity": 0.7086614173228346,
          "duration": 1.6666659999999922
        },
        {
          "name": "G#2",
          "midi": 44,
          "time": 241.6665700000047,
          "velocity": 0.7086614173228346,
          "duration": 1.6666659999999922
        }
      ],
      "controlChanges": {},
      "id": 1,
      "name": "up:VA",
      "instrumentNumber": 0,
      "instrument": "acoustic grand piano",
      "instrumentFamily": "piano",
      "channelNumber": 0,
      "isPercussion": false
    },
    {
      "startTime": 0,
      "duration": 243.33323600000207,
      "length": 587,
      "notes": [
        {
          "name": "G#2",
          "midi": 44,
          "time": 0,
          "velocity": 0.7086614173228346,
          "duration": 1.666666
        },
        {
          "name": "C#3",
          "midi": 49,
          "time": 1.666666,
          "velocity": 0.7086614173228346,
          "duration": 1.666666
        },
        {
          "name": "C3",
          "midi": 48,
          "time": 3.333332,
          "velocity": 0.7086614173228346,
          "duration": 1.6666659999999998
        },
        {
          "name": "G2",
          "midi": 43,
          "time": 4.999998,
          "velocity": 0.7086614173228346,
          "duration": 1.6666660000000002
        },
        {
          "name": "G#2",
          "midi": 44,
          "time": 6.666664,
          "velocity": 0.7086614173228346,
          "duration": 0.8333329999999997
        },
        {
          "name": "G2",
          "midi": 43,
          "time": 7.499997,
          "velocity": 0.7086614173228346,
          "duration": 0.8333330000000005
        },
        {
          "name": "F2",
          "midi": 41,
          "time": 8.33333,
          "velocity": 0.7086614173228346,
          "duration": 0.8333329999999997
        },
        {
          "name": "F3",
          "midi": 53,
          "time": 9.166663,
          "velocity": 0.7086614173228346,
          "duration": 0.8333329999999997
        },
        {
          "name": "D#3",
          "midi": 51,
          "time": 9.999996,
          "velocity": 0.7086614173228346,
          "duration": 1.6666659999999993
        },
        {
          "name": "D#2",
          "midi": 39,
          "time": 11.666661999999999,
          "velocity": 0.7086614173228346,
          "duration": 1.6666659999999993
        },
        {
          "name": "C#2",
          "midi": 37,
          "time": 13.333327999999998,
          "velocity": 0.7086614173228346,
          "duration": 1.6666659999999993
        },
        {
          "name": "C#3",
          "midi": 49,
          "time": 14.999993999999997,
          "velocity": 0.7086614173228346,
          "duration": 1.6666659999999993
        },
        {
          "name": "C3",
          "midi": 48,
          "time": 16.666659999999997,
          "velocity": 0.7086614173228346,
          "duration": 1.6666659999999993
        },
        {
          "name": "F2",
          "midi": 41,
          "time": 18.333325999999996,
          "velocity": 0.7086614173228346,
          "duration": 1.6666659999999993
        },
        {
          "name": "A#1",
          "midi": 34,
          "time": 19.999991999999995,
          "velocity": 0.7086614173228346,
          "duration": 1.6666659999999993
        },
        {
          "name": "D#2",
          "midi": 39,
          "time": 21.666657999999995,
          "velocity": 0.7086614173228346,
          "duration": 1.6666659999999993
        },
        {
          "name": "G#1",
          "midi": 32,
          "time": 23.333323999999994,
          "velocity": 0.7086614173228346,
          "duration": 0.8333329999999997
        },
        {
          "name": "G#2",
          "midi": 44,
          "time": 24.166656999999994,
          "velocity": 0.7086614173228346,
          "duration": 0.8333329999999997
        },
        {
          "name": "G#1",
          "midi": 32,
          "time": 24.999989999999993,
          "velocity": 0.7086614173228346,
          "duration": 0.8333329999999997
        },
        {
          "name": "G#3",
          "midi": 56,
          "time": 26.666655999999993,
          "velocity": 0.7086614173228346,
          "duration": 0.4166665000000016
        },
        {
          "name": "G#2",
          "midi": 44,
          "time": 26.666655999999993,
          "velocity": 0.7086614173228346,
          "duration": 1.6666660000000064
        },
        {
          "name": "D#3",
          "midi": 51,
          "time": 27.083322499999994,
          "velocity": 0.7086614173228346,
          "duration": 0.4166665000000016
        },
        {
          "name": "G#3",
          "midi": 56,
          "time": 27.499988999999996,
          "velocity": 0.7086614173228346,
          "duration": 0.4166665000000016
        },
        {
          "name": "D#3",
          "midi": 51,
          "time": 27.916655499999997,
          "velocity": 0.7086614173228346,
          "duration": 0.4166665000000016
        },
        {
          "name": "G3",
          "midi": 55,
          "time": 28.333322,
          "velocity": 0.7086614173228346,
          "duration": 0.4166665000000016
        },
        {
          "name": "C#3",
          "midi": 49,
          "time": 28.333322,
          "velocity": 0.7086614173228346,
          "duration": 1.6666660000000064
        },
        {
          "name": "D#3",
          "midi": 51,
          "time": 28.7499885,
          "velocity": 0.7086614173228346,
          "duration": 0.4166665000000016
        },
        {
          "name": "G3",
          "midi": 55,
          "time": 29.166655000000002,
          "velocity": 0.7086614173228346,
          "duration": 0.4166665000000016
        },
        {
          "name": "D#3",
          "midi": 51,
          "time": 29.583321500000004,
          "velocity": 0.7086614173228346,
          "duration": 0.4166665000000016
        },
        {
          "name": "G#3",
          "midi": 56,
          "time": 29.999988000000005,
          "velocity": 0.7086614173228346,
          "duration": 0.4166665000000016
        },
        {
          "name": "C3",
          "midi": 48,
          "time": 29.999988000000005,
          "velocity": 0.7086614173228346,
          "duration": 1.6666660000000064
        },
        {
          "name": "D#3",
          "midi": 51,
          "time": 30.416654500000007,
          "velocity": 0.7086614173228346,
          "duration": 0.4166665000000016
        },
        {
          "name": "G#3",
          "midi": 56,
          "time": 30.83332100000001,
          "velocity": 0.7086614173228346,
          "duration": 0.4166665000000016
        },
        {
          "name": "D#3",
          "midi": 51,
          "time": 31.24998750000001,
          "velocity": 0.7086614173228346,
          "duration": 0.4166665000000016
        },
        {
          "name": "G3",
          "midi": 55,
          "time": 31.666654000000012,
          "velocity": 0.7086614173228346,
          "duration": 0.4166665000000016
        },
        {
          "name": "G2",
          "midi": 43,
          "time": 31.666654000000012,
          "velocity": 0.7086614173228346,
          "duration": 1.6666659999999958
        },
        {
          "name": "D#3",
          "midi": 51,
          "time": 32.08332050000001,
          "velocity": 0.7086614173228346,
          "duration": 0.41666649999999805
        },
        {
          "name": "G3",
          "midi": 55,
          "time": 32.49998700000001,
          "velocity": 0.7086614173228346,
          "duration": 0.41666649999999805
        },
        {
          "name": "D#3",
          "midi": 51,
          "time": 32.91665350000001,
          "velocity": 0.7086614173228346,
          "duration": 0.41666649999999805
        },
        {
          "name": "G#3",
          "midi": 56,
          "time": 33.33332000000001,
          "velocity": 0.7086614173228346,
          "duration": 0.41666649999999805
        },
        {
          "name": "G#2",
          "midi": 44,
          "time": 33.33332000000001,
          "velocity": 0.7086614173228346,
          "duration": 0.8333329999999961
        },
        {
          "name": "D#3",
          "midi": 51,
          "time": 33.749986500000006,
          "velocity": 0.7086614173228346,
          "duration": 0.41666649999999805
        },
        {
          "name": "G3",
          "midi": 55,
          "time": 34.166653000000004,
          "velocity": 0.7086614173228346,
          "duration": 0.41666649999999805
        },
        {
          "name": "G2",
          "midi": 43,
          "time": 34.166653000000004,
          "velocity": 0.7086614173228346,
          "duration": 0.8333329999999961
        },
        {
          "name": "D#3",
          "midi": 51,
          "time": 34.5833195,
          "velocity": 0.7086614173228346,
          "duration": 0.41666649999999805
        },
        {
          "name": "F3",
          "midi": 53,
          "time": 34.999986,
          "velocity": 0.7086614173228346,
          "duration": 0.41666649999999805
        },
        {
          "name": "F2",
          "midi": 41,
          "time": 34.999986,
          "velocity": 0.7086614173228346,
          "duration": 0.8333329999999961
        },
        {
          "name": "G#2",
          "midi": 44,
          "time": 35.4166525,
          "velocity": 0.7086614173228346,
          "duration": 0.41666649999999805
        },
        {
          "name": "F3",
          "midi": 53,
          "time": 35.833318999999996,
          "velocity": 0.7086614173228346,
          "duration": 0.41666649999999805
        },
        {
          "name": "F2",
          "midi": 41,
          "time": 35.833318999999996,
          "velocity": 0.7086614173228346,
          "duration": 0.8333329999999961
        },
        {
          "name": "G#2",
          "midi": 44,
          "time": 36.249985499999994,
          "velocity": 0.7086614173228346,
          "duration": 0.41666649999999805
        },
        {
          "name": "D#2",
          "midi": 39,
          "time": 36.66665199999999,
          "velocity": 0.7086614173228346,
          "duration": 0.41666649999999805
        },
        {
          "name": "G2",
          "midi": 43,
          "time": 37.08331849999999,
          "velocity": 0.7086614173228346,
          "duration": 0.41666649999999805
        },
        {
          "name": "A#2",
          "midi": 46,
          "time": 37.49998499999999,
          "velocity": 0.7086614173228346,
          "duration": 0.41666649999999805
        },
        {
          "name": "D#3",
          "midi": 51,
          "time": 37.916651499999986,
          "velocity": 0.7086614173228346,
          "duration": 0.41666649999999805
        },
        {
          "name": "G3",
          "midi": 55,
          "time": 38.333317999999984,
          "velocity": 0.7086614173228346,
          "duration": 0.41666649999999805
        },
        {
          "name": "A#3",
          "midi": 58,
          "time": 38.74998449999998,
          "velocity": 0.7086614173228346,
          "duration": 0.41666649999999805
        },
        {
          "name": "G3",
          "midi": 55,
          "time": 39.16665099999998,
          "velocity": 0.7086614173228346,
          "duration": 0.41666649999999805
        },
        {
          "name": "A#3",
          "midi": 58,
          "time": 39.58331749999998,
          "velocity": 0.7086614173228346,
          "duration": 0.41666649999999805
        },
        {
          "name": "C#2",
          "midi": 37,
          "time": 39.999983999999976,
          "velocity": 0.7086614173228346,
          "duration": 0.41666649999999805
        },
        {
          "name": "G2",
          "midi": 43,
          "time": 40.416650499999974,
          "velocity": 0.7086614173228346,
          "duration": 0.41666649999999805
        },
        {
          "name": "A#2",
          "midi": 46,
          "time": 40.83331699999997,
          "velocity": 0.7086614173228346,
          "duration": 0.41666649999999805
        },
        {
          "name": "C#3",
          "midi": 49,
          "time": 41.24998349999997,
          "velocity": 0.7086614173228346,
          "duration": 0.41666649999999805
        },
        {
          "name": "G3",
          "midi": 55,
          "time": 41.66664999999997,
          "velocity": 0.7086614173228346,
          "duration": 0.41666649999999805
        },
        {
          "name": "A#3",
          "midi": 58,
          "time": 42.08331649999997,
          "velocity": 0.7086614173228346,
          "duration": 0.41666649999999805
        },
        {
          "name": "G3",
          "midi": 55,
          "time": 42.499982999999965,
          "velocity": 0.7086614173228346,
          "duration": 0.41666649999999805
        },
        {
          "name": "C#3",
          "midi": 49,
          "time": 42.91664949999996,
          "velocity": 0.7086614173228346,
          "duration": 0.41666649999999805
        },
        {
          "name": "C3",
          "midi": 48,
          "time": 43.33331599999996,
          "velocity": 0.7086614173228346,
          "duration": 0.8333329999999961
        },
        {
          "name": "D#3",
          "midi": 51,
          "time": 43.74998249999996,
          "velocity": 0.7086614173228346,
          "duration": 0.41666649999999805
        },
        {
          "name": "C3",
          "midi": 48,
          "time": 44.16664899999996,
          "velocity": 0.7086614173228346,
          "duration": 0.8333329999999961
        },
        {
          "name": "D#3",
          "midi": 51,
          "time": 44.583315499999955,
          "velocity": 0.7086614173228346,
          "duration": 0.41666649999999805
        },
        {
          "name": "C3",
          "midi": 48,
          "time": 44.99998199999995,
          "velocity": 0.7086614173228346,
          "duration": 0.41666649999999805
        },
        {
          "name": "F2",
          "midi": 41,
          "time": 44.99998199999995,
          "velocity": 0.7086614173228346,
          "duration": 1.6666659999999922
        },
        {
          "name": "F3",
          "midi": 53,
          "time": 45.41664849999995,
          "velocity": 0.7086614173228346,
          "duration": 0.41666649999999805
        },
        {
          "name": "C3",
          "midi": 48,
          "time": 45.83331499999995,
          "velocity": 0.7086614173228346,
          "duration": 0.41666649999999805
        },
        {
          "name": "F3",
          "midi": 53,
          "time": 46.24998149999995,
          "velocity": 0.7086614173228346,
          "duration": 0.41666649999999805
        },
        {
          "name": "C#3",
          "midi": 49,
          "time": 46.666647999999945,
          "velocity": 0.7086614173228346,
          "duration": 0.41666649999999805
        },
        {
          "name": "A#2",
          "midi": 46,
          "time": 46.666647999999945,
          "velocity": 0.7086614173228346,
          "duration": 1.6666659999999922
        },
        {
          "name": "F3",
          "midi": 53,
          "time": 47.08331449999994,
          "velocity": 0.7086614173228346,
          "duration": 0.41666649999999805
        },
        {
          "name": "C#3",
          "midi": 49,
          "time": 47.49998099999994,
          "velocity": 0.7086614173228346,
          "duration": 0.41666649999999805
        },
        {
          "name": "F3",
          "midi": 53,
          "time": 47.91664749999994,
          "velocity": 0.7086614173228346,
          "duration": 0.41666649999999805
        },
        {
          "name": "A#2",
          "midi": 46,
          "time": 48.33331399999994,
          "velocity": 0.7086614173228346,
          "duration": 0.41666649999999805
        },
        {
          "name": "D#2",
          "midi": 39,
          "time": 48.33331399999994,
          "velocity": 0.7086614173228346,
          "duration": 1.6666659999999922
        },
        {
          "name": "D#3",
          "midi": 51,
          "time": 48.749980499999936,
          "velocity": 0.7086614173228346,
          "duration": 0.41666649999999805
        },
        {
          "name": "A#2",
          "midi": 46,
          "time": 49.166646999999934,
          "velocity": 0.7086614173228346,
          "duration": 0.41666649999999805
        },
        {
          "name": "D#3",
          "midi": 51,
          "time": 49.58331349999993,
          "velocity": 0.7086614173228346,
          "duration": 0.41666649999999805
        },
        {
          "name": "G#2",
          "midi": 44,
          "time": 49.99997999999993,
          "velocity": 0.7086614173228346,
          "duration": 2.4999989999999954
        },
        {
          "name": "D#3",
          "midi": 51,
          "time": 50.41664649999993,
          "velocity": 0.7086614173228346,
          "duration": 0.41666649999999805
        },
        {
          "name": "G3",
          "midi": 55,
          "time": 50.833312999999926,
          "velocity": 0.7086614173228346,
          "duration": 0.41666649999999805
        },
        {
          "name": "D#3",
          "midi": 51,
          "time": 51.249979499999924,
          "velocity": 0.7086614173228346,
          "duration": 0.41666649999999805
        },
        {
          "name": "G#3",
          "midi": 56,
          "time": 51.66664599999992,
          "velocity": 0.7086614173228346,
          "duration": 0.8333330000000032
        },
        {
          "name": "C4",
          "midi": 60,
          "time": 53.749978499999926,
          "velocity": 0.7086614173228346,
          "duration": 0.41666649999999805
        },
        {
          "name": "C4",
          "midi": 60,
          "time": 54.166644999999924,
          "velocity": 0.7086614173228346,
          "duration": 0.41666649999999805
        },
        {
          "name": "C4",
          "midi": 60,
          "time": 54.58331149999992,
          "velocity": 0.7086614173228346,
          "duration": 0.41666649999999805
        },
        {
          "name": "C4",
          "midi": 60,
          "time": 54.99997799999992,
          "velocity": 0.7086614173228346,
          "duration": 0.41666649999999805
        },
        {
          "name": "C4",
          "midi": 60,
          "time": 55.41664449999992,
          "velocity": 0.7086614173228346,
          "duration": 0.41666649999999805
        },
        {
          "name": "C4",
          "midi": 60,
          "time": 55.83331099999992,
          "velocity": 0.7086614173228346,
          "duration": 0.41666649999999805
        },
        {
          "name": "C4",
          "midi": 60,
          "time": 56.249977499999915,
          "velocity": 0.7086614173228346,
          "duration": 0.41666649999999805
        },
        {
          "name": "C4",
          "midi": 60,
          "time": 56.66664399999991,
          "velocity": 0.7086614173228346,
          "duration": 0.41666649999999805
        },
        {
          "name": "G3",
          "midi": 55,
          "time": 56.66664399999991,
          "velocity": 0.7086614173228346,
          "duration": 0.41666649999999805
        },
        {
          "name": "E3",
          "midi": 52,
          "time": 56.66664399999991,
          "velocity": 0.7086614173228346,
          "duration": 0.41666649999999805
        },
        {
          "name": "C4",
          "midi": 60,
          "time": 57.08331049999991,
          "velocity": 0.7086614173228346,
          "duration": 0.41666649999999805
        },
        {
          "name": "G3",
          "midi": 55,
          "time": 57.08331049999991,
          "velocity": 0.7086614173228346,
          "duration": 0.41666649999999805
        },
        {
          "name": "E3",
          "midi": 52,
          "time": 57.08331049999991,
          "velocity": 0.7086614173228346,
          "duration": 0.41666649999999805
        },
        {
          "name": "E3",
          "midi": 52,
          "time": 57.49997699999991,
          "velocity": 0.7086614173228346,
          "duration": 0.41666649999999805
        },
        {
          "name": "G3",
          "midi": 55,
          "time": 57.49997699999991,
          "velocity": 0.7086614173228346,
          "duration": 0.41666649999999805
        },
        {
          "name": "C4",
          "midi": 60,
          "time": 57.49997699999991,
          "velocity": 0.7086614173228346,
          "duration": 0.41666649999999805
        },
        {
          "name": "C4",
          "midi": 60,
          "time": 57.91664349999991,
          "velocity": 0.7086614173228346,
          "duration": 0.41666649999999805
        },
        {
          "name": "G3",
          "midi": 55,
          "time": 57.91664349999991,
          "velocity": 0.7086614173228346,
          "duration": 0.41666649999999805
        },
        {
          "name": "E3",
          "midi": 52,
          "time": 57.91664349999991,
          "velocity": 0.7086614173228346,
          "duration": 0.41666649999999805
        },
        {
          "name": "C4",
          "midi": 60,
          "time": 58.333309999999905,
          "velocity": 0.7086614173228346,
          "duration": 0.41666649999999805
        },
        {
          "name": "G#3",
          "midi": 56,
          "time": 58.333309999999905,
          "velocity": 0.7086614173228346,
          "duration": 0.41666649999999805
        },
        {
          "name": "F3",
          "midi": 53,
          "time": 58.333309999999905,
          "velocity": 0.7086614173228346,
          "duration": 0.41666649999999805
        },
        {
          "name": "F3",
          "midi": 53,
          "time": 58.7499764999999,
          "velocity": 0.7086614173228346,
          "duration": 0.41666649999999805
        },
        {
          "name": "G#3",
          "midi": 56,
          "time": 58.7499764999999,
          "velocity": 0.7086614173228346,
          "duration": 0.41666649999999805
        },
        {
          "name": "C4",
          "midi": 60,
          "time": 58.7499764999999,
          "velocity": 0.7086614173228346,
          "duration": 0.41666649999999805
        },
        {
          "name": "C4",
          "midi": 60,
          "time": 59.1666429999999,
          "velocity": 0.7086614173228346,
          "duration": 0.41666649999999805
        },
        {
          "name": "G#3",
          "midi": 56,
          "time": 59.1666429999999,
          "velocity": 0.7086614173228346,
          "duration": 0.41666649999999805
        },
        {
          "name": "F3",
          "midi": 53,
          "time": 59.1666429999999,
          "velocity": 0.7086614173228346,
          "duration": 0.41666649999999805
        },
        {
          "name": "C4",
          "midi": 60,
          "time": 59.5833094999999,
          "velocity": 0.7086614173228346,
          "duration": 0.41666649999999805
        },
        {
          "name": "G#3",
          "midi": 56,
          "time": 59.5833094999999,
          "velocity": 0.7086614173228346,
          "duration": 0.41666649999999805
        },
        {
          "name": "F3",
          "midi": 53,
          "time": 59.5833094999999,
          "velocity": 0.7086614173228346,
          "duration": 0.41666649999999805
        },
        {
          "name": "G3",
          "midi": 55,
          "time": 59.9999759999999,
          "velocity": 0.7086614173228346,
          "duration": 0.41666649999999805
        },
        {
          "name": "A#3",
          "midi": 58,
          "time": 59.9999759999999,
          "velocity": 0.7086614173228346,
          "duration": 0.41666649999999805
        },
        {
          "name": "E4",
          "midi": 64,
          "time": 59.9999759999999,
          "velocity": 0.7086614173228346,
          "duration": 0.41666649999999805
        },
        {
          "name": "E4",
          "midi": 64,
          "time": 60.416642499999895,
          "velocity": 0.7086614173228346,
          "duration": 0.41666649999999805
        },
        {
          "name": "A#3",
          "midi": 58,
          "time": 60.416642499999895,
          "velocity": 0.7086614173228346,
          "duration": 0.41666649999999805
        },
        {
          "name": "G3",
          "midi": 55,
          "time": 60.416642499999895,
          "velocity": 0.7086614173228346,
          "duration": 0.41666649999999805
        },
        {
          "name": "E4",
          "midi": 64,
          "time": 60.83330899999989,
          "velocity": 0.7086614173228346,
          "duration": 0.41666649999999805
        },
        {
          "name": "A#3",
          "midi": 58,
          "time": 60.83330899999989,
          "velocity": 0.7086614173228346,
          "duration": 0.41666649999999805
        },
        {
          "name": "G3",
          "midi": 55,
          "time": 60.83330899999989,
          "velocity": 0.7086614173228346,
          "duration": 0.41666649999999805
        },
        {
          "name": "G3",
          "midi": 55,
          "time": 61.24997549999989,
          "velocity": 0.7086614173228346,
          "duration": 0.41666649999999805
        },
        {
          "name": "A#3",
          "midi": 58,
          "time": 61.24997549999989,
          "velocity": 0.7086614173228346,
          "duration": 0.41666649999999805
        },
        {
          "name": "E4",
          "midi": 64,
          "time": 61.24997549999989,
          "velocity": 0.7086614173228346,
          "duration": 0.41666649999999805
        },
        {
          "name": "F4",
          "midi": 65,
          "time": 61.66664199999989,
          "velocity": 0.7086614173228346,
          "duration": 0.41666649999999805
        },
        {
          "name": "C4",
          "midi": 60,
          "time": 61.66664199999989,
          "velocity": 0.7086614173228346,
          "duration": 0.41666649999999805
        },
        {
          "name": "G#3",
          "midi": 56,
          "time": 61.66664199999989,
          "velocity": 0.7086614173228346,
          "duration": 0.41666649999999805
        },
        {
          "name": "F4",
          "midi": 65,
          "time": 62.08330849999989,
          "velocity": 0.7086614173228346,
          "duration": 0.41666649999999805
        },
        {
          "name": "C4",
          "midi": 60,
          "time": 62.08330849999989,
          "velocity": 0.7086614173228346,
          "duration": 0.41666649999999805
        },
        {
          "name": "G#3",
          "midi": 56,
          "time": 62.08330849999989,
          "velocity": 0.7086614173228346,
          "duration": 0.41666649999999805
        },
        {
          "name": "F4",
          "midi": 65,
          "time": 62.499974999999885,
          "velocity": 0.7086614173228346,
          "duration": 0.41666649999999805
        },
        {
          "name": "C4",
          "midi": 60,
          "time": 62.499974999999885,
          "velocity": 0.7086614173228346,
          "duration": 0.41666649999999805
        },
        {
          "name": "G#3",
          "midi": 56,
          "time": 62.499974999999885,
          "velocity": 0.7086614173228346,
          "duration": 0.41666649999999805
        },
        {
          "name": "G#3",
          "midi": 56,
          "time": 62.91664149999988,
          "velocity": 0.7086614173228346,
          "duration": 0.41666649999999805
        },
        {
          "name": "C4",
          "midi": 60,
          "time": 62.91664149999988,
          "velocity": 0.7086614173228346,
          "duration": 0.41666649999999805
        },
        {
          "name": "F4",
          "midi": 65,
          "time": 62.91664149999988,
          "velocity": 0.7086614173228346,
          "duration": 0.41666649999999805
        },
        {
          "name": "G#4",
          "midi": 68,
          "time": 63.33330799999988,
          "velocity": 0.7086614173228346,
          "duration": 0.41666649999999805
        },
        {
          "name": "F4",
          "midi": 65,
          "time": 63.33330799999988,
          "velocity": 0.7086614173228346,
          "duration": 0.41666649999999805
        },
        {
          "name": "A#3",
          "midi": 58,
          "time": 63.33330799999988,
          "velocity": 0.7086614173228346,
          "duration": 0.41666649999999805
        },
        {
          "name": "G#4",
          "midi": 68,
          "time": 63.74997449999988,
          "velocity": 0.7086614173228346,
          "duration": 0.41666650000000516
        },
        {
          "name": "F4",
          "midi": 65,
          "time": 63.74997449999988,
          "velocity": 0.7086614173228346,
          "duration": 0.41666650000000516
        },
        {
          "name": "A#3",
          "midi": 58,
          "time": 63.74997449999988,
          "velocity": 0.7086614173228346,
          "duration": 0.41666650000000516
        },
        {
          "name": "A#3",
          "midi": 58,
          "time": 64.16664099999988,
          "velocity": 0.7086614173228346,
          "duration": 0.41666650000000516
        },
        {
          "name": "F4",
          "midi": 65,
          "time": 64.16664099999988,
          "velocity": 0.7086614173228346,
          "duration": 0.41666650000000516
        },
        {
          "name": "G#4",
          "midi": 68,
          "time": 64.16664099999988,
          "velocity": 0.7086614173228346,
          "duration": 0.41666650000000516
        },
        {
          "name": "G#4",
          "midi": 68,
          "time": 64.58330749999989,
          "velocity": 0.7086614173228346,
          "duration": 0.41666650000000516
        },
        {
          "name": "F4",
          "midi": 65,
          "time": 64.58330749999989,
          "velocity": 0.7086614173228346,
          "duration": 0.41666650000000516
        },
        {
          "name": "A#3",
          "midi": 58,
          "time": 64.58330749999989,
          "velocity": 0.7086614173228346,
          "duration": 0.41666650000000516
        },
        {
          "name": "G#4",
          "midi": 68,
          "time": 64.9999739999999,
          "velocity": 0.7086614173228346,
          "duration": 0.41666650000000516
        },
        {
          "name": "F4",
          "midi": 65,
          "time": 64.9999739999999,
          "velocity": 0.7086614173228346,
          "duration": 0.41666650000000516
        },
        {
          "name": "B3",
          "midi": 59,
          "time": 64.9999739999999,
          "velocity": 0.7086614173228346,
          "duration": 0.41666650000000516
        },
        {
          "name": "B3",
          "midi": 59,
          "time": 65.4166404999999,
          "velocity": 0.7086614173228346,
          "duration": 0.41666650000000516
        },
        {
          "name": "F4",
          "midi": 65,
          "time": 65.4166404999999,
          "velocity": 0.7086614173228346,
          "duration": 0.41666650000000516
        },
        {
          "name": "G#4",
          "midi": 68,
          "time": 65.4166404999999,
          "velocity": 0.7086614173228346,
          "duration": 0.41666650000000516
        },
        {
          "name": "G#4",
          "midi": 68,
          "time": 65.8333069999999,
          "velocity": 0.7086614173228346,
          "duration": 0.41666650000000516
        },
        {
          "name": "D4",
          "midi": 62,
          "time": 65.8333069999999,
          "velocity": 0.7086614173228346,
          "duration": 0.41666650000000516
        },
        {
          "name": "B3",
          "midi": 59,
          "time": 65.8333069999999,
          "velocity": 0.7086614173228346,
          "duration": 0.41666650000000516
        },
        {
          "name": "G#4",
          "midi": 68,
          "time": 66.24997349999991,
          "velocity": 0.7086614173228346,
          "duration": 0.41666650000000516
        },
        {
          "name": "D4",
          "midi": 62,
          "time": 66.24997349999991,
          "velocity": 0.7086614173228346,
          "duration": 0.41666650000000516
        },
        {
          "name": "B3",
          "midi": 59,
          "time": 66.24997349999991,
          "velocity": 0.7086614173228346,
          "duration": 0.41666650000000516
        },
        {
          "name": "C4",
          "midi": 60,
          "time": 66.66663999999992,
          "velocity": 0.7086614173228346,
          "duration": 0.41666650000000516
        },
        {
          "name": "D#4",
          "midi": 63,
          "time": 66.66663999999992,
          "velocity": 0.7086614173228346,
          "duration": 0.41666650000000516
        },
        {
          "name": "G4",
          "midi": 67,
          "time": 66.66663999999992,
          "velocity": 0.7086614173228346,
          "duration": 0.41666650000000516
        },
        {
          "name": "G4",
          "midi": 67,
          "time": 67.08330649999992,
          "velocity": 0.7086614173228346,
          "duration": 0.41666650000000516
        },
        {
          "name": "D#4",
          "midi": 63,
          "time": 67.08330649999992,
          "velocity": 0.7086614173228346,
          "duration": 0.41666650000000516
        },
        {
          "name": "C4",
          "midi": 60,
          "time": 67.08330649999992,
          "velocity": 0.7086614173228346,
          "duration": 0.41666650000000516
        },
        {
          "name": "G4",
          "midi": 67,
          "time": 67.49997299999993,
          "velocity": 0.7086614173228346,
          "duration": 0.41666650000000516
        },
        {
          "name": "D#4",
          "midi": 63,
          "time": 67.49997299999993,
          "velocity": 0.7086614173228346,
          "duration": 0.41666650000000516
        },
        {
          "name": "C4",
          "midi": 60,
          "time": 67.49997299999993,
          "velocity": 0.7086614173228346,
          "duration": 0.41666650000000516
        },
        {
          "name": "C4",
          "midi": 60,
          "time": 67.91663949999993,
          "velocity": 0.7086614173228346,
          "duration": 0.41666650000000516
        },
        {
          "name": "D#4",
          "midi": 63,
          "time": 67.91663949999993,
          "velocity": 0.7086614173228346,
          "duration": 0.41666650000000516
        },
        {
          "name": "G4",
          "midi": 67,
          "time": 67.91663949999993,
          "velocity": 0.7086614173228346,
          "duration": 0.41666650000000516
        },
        {
          "name": "D#4",
          "midi": 63,
          "time": 68.33330599999994,
          "velocity": 0.7086614173228346,
          "duration": 0.41666650000000516
        },
        {
          "name": "G#3",
          "midi": 56,
          "time": 68.33330599999994,
          "velocity": 0.7086614173228346,
          "duration": 0.41666650000000516
        },
        {
          "name": "D#4",
          "midi": 63,
          "time": 68.74997249999994,
          "velocity": 0.7086614173228346,
          "duration": 0.41666650000000516
        },
        {
          "name": "G#3",
          "midi": 56,
          "time": 68.74997249999994,
          "velocity": 0.7086614173228346,
          "duration": 0.41666650000000516
        },
        {
          "name": "D#4",
          "midi": 63,
          "time": 69.16663899999995,
          "velocity": 0.7086614173228346,
          "duration": 0.41666650000000516
        },
        {
          "name": "G#3",
          "midi": 56,
          "time": 69.16663899999995,
          "velocity": 0.7086614173228346,
          "duration": 0.41666650000000516
        },
        {
          "name": "D#4",
          "midi": 63,
          "time": 69.58330549999995,
          "velocity": 0.7086614173228346,
          "duration": 0.41666650000000516
        },
        {
          "name": "G#3",
          "midi": 56,
          "time": 69.58330549999995,
          "velocity": 0.7086614173228346,
          "duration": 0.41666650000000516
        },
        {
          "name": "A#3",
          "midi": 58,
          "time": 70.41663849999996,
          "velocity": 0.7086614173228346,
          "duration": 0.41666650000000516
        },
        {
          "name": "D#4",
          "midi": 63,
          "time": 70.41663849999996,
          "velocity": 0.7086614173228346,
          "duration": 0.41666650000000516
        },
        {
          "name": "G4",
          "midi": 67,
          "time": 70.41663849999996,
          "velocity": 0.7086614173228346,
          "duration": 0.41666650000000516
        },
        {
          "name": "G4",
          "midi": 67,
          "time": 70.83330499999997,
          "velocity": 0.7086614173228346,
          "duration": 0.41666650000000516
        },
        {
          "name": "D#4",
          "midi": 63,
          "time": 70.83330499999997,
          "velocity": 0.7086614173228346,
          "duration": 0.41666650000000516
        },
        {
          "name": "A#3",
          "midi": 58,
          "time": 70.83330499999997,
          "velocity": 0.7086614173228346,
          "duration": 0.41666650000000516
        },
        {
          "name": "G4",
          "midi": 67,
          "time": 71.24997149999997,
          "velocity": 0.7086614173228346,
          "duration": 0.41666650000000516
        },
        {
          "name": "D#4",
          "midi": 63,
          "time": 71.24997149999997,
          "velocity": 0.7086614173228346,
          "duration": 0.41666650000000516
        },
        {
          "name": "A#3",
          "midi": 58,
          "time": 71.24997149999997,
          "velocity": 0.7086614173228346,
          "duration": 0.41666650000000516
        },
        {
          "name": "A#2",
          "midi": 46,
          "time": 72.08330449999998,
          "velocity": 0.7086614173228346,
          "duration": 0.41666650000000516
        },
        {
          "name": "D3",
          "midi": 50,
          "time": 72.08330449999998,
          "velocity": 0.7086614173228346,
          "duration": 0.41666650000000516
        },
        {
          "name": "G#3",
          "midi": 56,
          "time": 72.08330449999998,
          "velocity": 0.7086614173228346,
          "duration": 0.41666650000000516
        },
        {
          "name": "G#3",
          "midi": 56,
          "time": 72.49997099999999,
          "velocity": 0.7086614173228346,
          "duration": 0.41666650000000516
        },
        {
          "name": "D3",
          "midi": 50,
          "time": 72.49997099999999,
          "velocity": 0.7086614173228346,
          "duration": 0.41666650000000516
        },
        {
          "name": "A#2",
          "midi": 46,
          "time": 72.49997099999999,
          "velocity": 0.7086614173228346,
          "duration": 0.41666650000000516
        },
        {
          "name": "G#3",
          "midi": 56,
          "time": 72.9166375,
          "velocity": 0.7086614173228346,
          "duration": 0.41666650000000516
        },
        {
          "name": "D3",
          "midi": 50,
          "time": 72.9166375,
          "velocity": 0.7086614173228346,
          "duration": 0.41666650000000516
        },
        {
          "name": "A#2",
          "midi": 46,
          "time": 72.9166375,
          "velocity": 0.7086614173228346,
          "duration": 0.41666650000000516
        },
        {
          "name": "D#3",
          "midi": 51,
          "time": 73.333304,
          "velocity": 0.7086614173228346,
          "duration": 0.8333329999999961
        },
        {
          "name": "G3",
          "midi": 55,
          "time": 73.333304,
          "velocity": 0.7086614173228346,
          "duration": 0.8333329999999961
        },
        {
          "name": "A#1",
          "midi": 34,
          "time": 76.666636,
          "velocity": 0.7086614173228346,
          "duration": 3.3333319999999986
        },
        {
          "name": "D#2",
          "midi": 39,
          "time": 79.999968,
          "velocity": 0.7086614173228346,
          "duration": 0.8333329999999961
        },
        {
          "name": "A#2",
          "midi": 46,
          "time": 81.2499675,
          "velocity": 0.7086614173228346,
          "duration": 0.41666650000000516
        },
        {
          "name": "G2",
          "midi": 43,
          "time": 81.666634,
          "velocity": 0.7086614173228346,
          "duration": 0.41666650000000516
        },
        {
          "name": "A#2",
          "midi": 46,
          "time": 82.0833005,
          "velocity": 0.7086614173228346,
          "duration": 0.41666650000000516
        },
        {
          "name": "G2",
          "midi": 43,
          "time": 82.49996700000001,
          "velocity": 0.7086614173228346,
          "duration": 0.41666650000000516
        },
        {
          "name": "D#2",
          "midi": 39,
          "time": 82.91663350000002,
          "velocity": 0.7086614173228346,
          "duration": 0.41666650000000516
        },
        {
          "name": "A#1",
          "midi": 34,
          "time": 83.33330000000002,
          "velocity": 0.7086614173228346,
          "duration": 1.6666660000000064
        },
        {
          "name": "A#2",
          "midi": 46,
          "time": 84.99996600000003,
          "velocity": 0.7086614173228346,
          "duration": 1.6666660000000064
        },
        {
          "name": "D#2",
          "midi": 39,
          "time": 86.66663200000004,
          "velocity": 0.7086614173228346,
          "duration": 6.666663999999997
        },
        {
          "name": "G#2",
          "midi": 44,
          "time": 93.33329600000003,
          "velocity": 0.7086614173228346,
          "duration": 1.6666660000000064
        },
        {
          "name": "G#1",
          "midi": 32,
          "time": 93.33329600000003,
          "velocity": 0.7086614173228346,
          "duration": 1.6666660000000064
        },
        {
          "name": "C#3",
          "midi": 49,
          "time": 94.99996200000004,
          "velocity": 0.7086614173228346,
          "duration": 1.6666660000000064
        },
        {
          "name": "C3",
          "midi": 48,
          "time": 96.66662800000005,
          "velocity": 0.7086614173228346,
          "duration": 1.6666660000000064
        },
        {
          "name": "G2",
          "midi": 43,
          "time": 98.33329400000005,
          "velocity": 0.7086614173228346,
          "duration": 1.6666660000000064
        },
        {
          "name": "G#2",
          "midi": 44,
          "time": 99.99996000000006,
          "velocity": 0.7086614173228346,
          "duration": 0.8333329999999961
        },
        {
          "name": "G2",
          "midi": 43,
          "time": 100.83329300000005,
          "velocity": 0.7086614173228346,
          "duration": 0.8333329999999961
        },
        {
          "name": "F2",
          "midi": 41,
          "time": 101.66662600000005,
          "velocity": 0.7086614173228346,
          "duration": 0.8333329999999961
        },
        {
          "name": "F3",
          "midi": 53,
          "time": 102.49995900000005,
          "velocity": 0.7086614173228346,
          "duration": 0.8333329999999961
        },
        {
          "name": "D#3",
          "midi": 51,
          "time": 103.33329200000004,
          "velocity": 0.7086614173228346,
          "duration": 1.6666660000000064
        },
        {
          "name": "D#2",
          "midi": 39,
          "time": 104.99995800000005,
          "velocity": 0.7086614173228346,
          "duration": 1.6666660000000064
        },
        {
          "name": "C#2",
          "midi": 37,
          "time": 106.66662400000006,
          "velocity": 0.7086614173228346,
          "duration": 1.6666660000000064
        },
        {
          "name": "C#3",
          "midi": 49,
          "time": 108.33329000000006,
          "velocity": 0.7086614173228346,
          "duration": 1.6666660000000064
        },
        {
          "name": "C3",
          "midi": 48,
          "time": 109.99995600000007,
          "velocity": 0.7086614173228346,
          "duration": 1.6666660000000064
        },
        {
          "name": "F2",
          "midi": 41,
          "time": 111.66662200000007,
          "velocity": 0.7086614173228346,
          "duration": 1.6666660000000064
        },
        {
          "name": "A#1",
          "midi": 34,
          "time": 113.33328800000008,
          "velocity": 0.7086614173228346,
          "duration": 1.6666660000000064
        },
        {
          "name": "D#2",
          "midi": 39,
          "time": 114.99995400000009,
          "velocity": 0.7086614173228346,
          "duration": 1.6666660000000064
        },
        {
          "name": "G#1",
          "midi": 32,
          "time": 116.6666200000001,
          "velocity": 0.7086614173228346,
          "duration": 0.8333329999999961
        },
        {
          "name": "G#2",
          "midi": 44,
          "time": 117.49995300000009,
          "velocity": 0.7086614173228346,
          "duration": 0.8333329999999961
        },
        {
          "name": "G#1",
          "midi": 32,
          "time": 118.33328600000009,
          "velocity": 0.7086614173228346,
          "duration": 0.8333329999999961
        },
        {
          "name": "G#3",
          "midi": 56,
          "time": 119.99995200000008,
          "velocity": 0.7086614173228346,
          "duration": 1.6666660000000064
        },
        {
          "name": "G#2",
          "midi": 44,
          "time": 119.99995200000008,
          "velocity": 0.7086614173228346,
          "duration": 1.6666660000000064
        },
        {
          "name": "A#3",
          "midi": 58,
          "time": 123.33328400000009,
          "velocity": 0.7086614173228346,
          "duration": 1.1111106666666615
        },
        {
          "name": "A#3",
          "midi": 58,
          "time": 124.44439466666675,
          "velocity": 0.7086614173228346,
          "duration": 0.27777766666666537
        },
        {
          "name": "A3",
          "midi": 57,
          "time": 124.72217233333342,
          "velocity": 0.7086614173228346,
          "duration": 0.27777766666666537
        },
        {
          "name": "A#3",
          "midi": 58,
          "time": 124.99995000000008,
          "velocity": 0.7086614173228346,
          "duration": 0.27777766666666537
        },
        {
          "name": "A#3",
          "midi": 58,
          "time": 125.27772766666675,
          "velocity": 0.7086614173228346,
          "duration": 0.27777766666666537
        },
        {
          "name": "G#3",
          "midi": 56,
          "time": 125.55550533333341,
          "velocity": 0.7086614173228346,
          "duration": 0.27777766666666537
        },
        {
          "name": "G3",
          "midi": 55,
          "time": 125.83328300000008,
          "velocity": 0.7086614173228346,
          "duration": 0.27777766666666537
        },
        {
          "name": "F3",
          "midi": 53,
          "time": 126.11106066666675,
          "velocity": 0.7086614173228346,
          "duration": 0.27777766666666537
        },
        {
          "name": "D#3",
          "midi": 51,
          "time": 126.38883833333341,
          "velocity": 0.7086614173228346,
          "duration": 0.27777766666666537
        },
        {
          "name": "G#3",
          "midi": 56,
          "time": 126.66661600000008,
          "velocity": 0.7086614173228346,
          "duration": 0.8333329999999961
        },
        {
          "name": "D#3",
          "midi": 51,
          "time": 129.99994800000007,
          "velocity": 0.7086614173228346,
          "duration": 1.1111106666666615
        },
        {
          "name": "D#3",
          "midi": 51,
          "time": 131.11105866666674,
          "velocity": 0.7086614173228346,
          "duration": 0.2777776666666796
        },
        {
          "name": "D3",
          "midi": 50,
          "time": 131.38883633333342,
          "velocity": 0.7086614173228346,
          "duration": 0.2777776666666796
        },
        {
          "name": "D#3",
          "midi": 51,
          "time": 131.6666140000001,
          "velocity": 0.7086614173228346,
          "duration": 0.2777776666666796
        },
        {
          "name": "E3",
          "midi": 52,
          "time": 131.94439166666677,
          "velocity": 0.7086614173228346,
          "duration": 0.2777776666666796
        },
        {
          "name": "D#3",
          "midi": 51,
          "time": 132.22216933333345,
          "velocity": 0.7086614173228346,
          "duration": 0.2777776666666796
        },
        {
          "name": "C#3",
          "midi": 49,
          "time": 132.49994700000013,
          "velocity": 0.7086614173228346,
          "duration": 0.2777776666666796
        },
        {
          "name": "B2",
          "midi": 47,
          "time": 132.7777246666668,
          "velocity": 0.7086614173228346,
          "duration": 0.2777776666666796
        },
        {
          "name": "A#2",
          "midi": 46,
          "time": 133.0555023333335,
          "velocity": 0.7086614173228346,
          "duration": 0.2777776666666796
        },
        {
          "name": "G#2",
          "midi": 44,
          "time": 133.33328000000017,
          "velocity": 0.7086614173228346,
          "duration": 0.8333330000000103
        },
        {
          "name": "A2",
          "midi": 45,
          "time": 136.66661200000019,
          "velocity": 0.7086614173228346,
          "duration": 0.2777776666666796
        },
        {
          "name": "B2",
          "midi": 47,
          "time": 136.66661200000019,
          "velocity": 0.7086614173228346,
          "duration": 0.2777776666666796
        },
        {
          "name": "D#3",
          "midi": 51,
          "time": 136.66661200000019,
          "velocity": 0.7086614173228346,
          "duration": 0.2777776666666796
        },
        {
          "name": "F#3",
          "midi": 54,
          "time": 136.66661200000019,
          "velocity": 0.7086614173228346,
          "duration": 0.2777776666666796
        },
        {
          "name": "F#3",
          "midi": 54,
          "time": 136.94438966666686,
          "velocity": 0.7086614173228346,
          "duration": 0.2777776666666796
        },
        {
          "name": "D#3",
          "midi": 51,
          "time": 136.94438966666686,
          "velocity": 0.7086614173228346,
          "duration": 0.2777776666666796
        },
        {
          "name": "B2",
          "midi": 47,
          "time": 136.94438966666686,
          "velocity": 0.7086614173228346,
          "duration": 0.2777776666666796
        },
        {
          "name": "A2",
          "midi": 45,
          "time": 136.94438966666686,
          "velocity": 0.7086614173228346,
          "duration": 0.2777776666666796
        },
        {
          "name": "A2",
          "midi": 45,
          "time": 137.22216733333354,
          "velocity": 0.7086614173228346,
          "duration": 0.2777776666666796
        },
        {
          "name": "B2",
          "midi": 47,
          "time": 137.22216733333354,
          "velocity": 0.7086614173228346,
          "duration": 0.2777776666666796
        },
        {
          "name": "D#3",
          "midi": 51,
          "time": 137.22216733333354,
          "velocity": 0.7086614173228346,
          "duration": 0.2777776666666796
        },
        {
          "name": "F#3",
          "midi": 54,
          "time": 137.22216733333354,
          "velocity": 0.7086614173228346,
          "duration": 0.2777776666666796
        },
        {
          "name": "F#3",
          "midi": 54,
          "time": 137.49994500000022,
          "velocity": 0.7086614173228346,
          "duration": 0.2777776666666796
        },
        {
          "name": "D#3",
          "midi": 51,
          "time": 137.49994500000022,
          "velocity": 0.7086614173228346,
          "duration": 0.2777776666666796
        },
        {
          "name": "B2",
          "midi": 47,
          "time": 137.49994500000022,
          "velocity": 0.7086614173228346,
          "duration": 0.2777776666666796
        },
        {
          "name": "A2",
          "midi": 45,
          "time": 137.49994500000022,
          "velocity": 0.7086614173228346,
          "duration": 0.2777776666666796
        },
        {
          "name": "F#3",
          "midi": 54,
          "time": 137.7777226666669,
          "velocity": 0.7086614173228346,
          "duration": 0.2777776666666796
        },
        {
          "name": "D#3",
          "midi": 51,
          "time": 137.7777226666669,
          "velocity": 0.7086614173228346,
          "duration": 0.2777776666666796
        },
        {
          "name": "B2",
          "midi": 47,
          "time": 137.7777226666669,
          "velocity": 0.7086614173228346,
          "duration": 0.2777776666666796
        },
        {
          "name": "A2",
          "midi": 45,
          "time": 137.7777226666669,
          "velocity": 0.7086614173228346,
          "duration": 0.2777776666666796
        },
        {
          "name": "A2",
          "midi": 45,
          "time": 138.05550033333358,
          "velocity": 0.7086614173228346,
          "duration": 0.2777776666666796
        },
        {
          "name": "B2",
          "midi": 47,
          "time": 138.05550033333358,
          "velocity": 0.7086614173228346,
          "duration": 0.2777776666666796
        },
        {
          "name": "D#3",
          "midi": 51,
          "time": 138.05550033333358,
          "velocity": 0.7086614173228346,
          "duration": 0.2777776666666796
        },
        {
          "name": "F#3",
          "midi": 54,
          "time": 138.05550033333358,
          "velocity": 0.7086614173228346,
          "duration": 0.2777776666666796
        },
        {
          "name": "G#3",
          "midi": 56,
          "time": 138.33327800000026,
          "velocity": 0.7086614173228346,
          "duration": 0.2777776666666796
        },
        {
          "name": "E3",
          "midi": 52,
          "time": 138.33327800000026,
          "velocity": 0.7086614173228346,
          "duration": 0.2777776666666796
        },
        {
          "name": "B2",
          "midi": 47,
          "time": 138.33327800000026,
          "velocity": 0.7086614173228346,
          "duration": 0.2777776666666796
        },
        {
          "name": "G#2",
          "midi": 44,
          "time": 138.33327800000026,
          "velocity": 0.7086614173228346,
          "duration": 0.2777776666666796
        },
        {
          "name": "G#2",
          "midi": 44,
          "time": 138.61105566666694,
          "velocity": 0.7086614173228346,
          "duration": 0.2777776666666796
        },
        {
          "name": "B2",
          "midi": 47,
          "time": 138.61105566666694,
          "velocity": 0.7086614173228346,
          "duration": 0.2777776666666796
        },
        {
          "name": "E3",
          "midi": 52,
          "time": 138.61105566666694,
          "velocity": 0.7086614173228346,
          "duration": 0.2777776666666796
        },
        {
          "name": "G#3",
          "midi": 56,
          "time": 138.61105566666694,
          "velocity": 0.7086614173228346,
          "duration": 0.2777776666666796
        },
        {
          "name": "G#3",
          "midi": 56,
          "time": 138.88883333333362,
          "velocity": 0.7086614173228346,
          "duration": 0.2777776666666796
        },
        {
          "name": "E3",
          "midi": 52,
          "time": 138.88883333333362,
          "velocity": 0.7086614173228346,
          "duration": 0.2777776666666796
        },
        {
          "name": "B2",
          "midi": 47,
          "time": 138.88883333333362,
          "velocity": 0.7086614173228346,
          "duration": 0.2777776666666796
        },
        {
          "name": "G#2",
          "midi": 44,
          "time": 138.88883333333362,
          "velocity": 0.7086614173228346,
          "duration": 0.2777776666666796
        },
        {
          "name": "G#3",
          "midi": 56,
          "time": 139.1666110000003,
          "velocity": 0.7086614173228346,
          "duration": 0.2777776666666796
        },
        {
          "name": "E3",
          "midi": 52,
          "time": 139.1666110000003,
          "velocity": 0.7086614173228346,
          "duration": 0.2777776666666796
        },
        {
          "name": "B2",
          "midi": 47,
          "time": 139.1666110000003,
          "velocity": 0.7086614173228346,
          "duration": 0.2777776666666796
        },
        {
          "name": "G#2",
          "midi": 44,
          "time": 139.1666110000003,
          "velocity": 0.7086614173228346,
          "duration": 0.2777776666666796
        },
        {
          "name": "G#2",
          "midi": 44,
          "time": 139.44438866666698,
          "velocity": 0.7086614173228346,
          "duration": 0.2777776666666796
        },
        {
          "name": "B2",
          "midi": 47,
          "time": 139.44438866666698,
          "velocity": 0.7086614173228346,
          "duration": 0.2777776666666796
        },
        {
          "name": "E3",
          "midi": 52,
          "time": 139.44438866666698,
          "velocity": 0.7086614173228346,
          "duration": 0.2777776666666796
        },
        {
          "name": "G#3",
          "midi": 56,
          "time": 139.44438866666698,
          "velocity": 0.7086614173228346,
          "duration": 0.2777776666666796
        },
        {
          "name": "G#3",
          "midi": 56,
          "time": 139.72216633333366,
          "velocity": 0.7086614173228346,
          "duration": 0.2777776666666796
        },
        {
          "name": "E3",
          "midi": 52,
          "time": 139.72216633333366,
          "velocity": 0.7086614173228346,
          "duration": 0.2777776666666796
        },
        {
          "name": "B2",
          "midi": 47,
          "time": 139.72216633333366,
          "velocity": 0.7086614173228346,
          "duration": 0.2777776666666796
        },
        {
          "name": "G#2",
          "midi": 44,
          "time": 139.72216633333366,
          "velocity": 0.7086614173228346,
          "duration": 0.2777776666666796
        },
        {
          "name": "C#3",
          "midi": 49,
          "time": 139.99994400000034,
          "velocity": 0.7086614173228346,
          "duration": 0.2777776666666796
        },
        {
          "name": "E3",
          "midi": 52,
          "time": 139.99994400000034,
          "velocity": 0.7086614173228346,
          "duration": 0.2777776666666796
        },
        {
          "name": "F#3",
          "midi": 54,
          "time": 139.99994400000034,
          "velocity": 0.7086614173228346,
          "duration": 0.2777776666666796
        },
        {
          "name": "A#3",
          "midi": 58,
          "time": 139.99994400000034,
          "velocity": 0.7086614173228346,
          "duration": 0.2777776666666796
        },
        {
          "name": "A#3",
          "midi": 58,
          "time": 140.27772166666702,
          "velocity": 0.7086614173228346,
          "duration": 0.2777776666666796
        },
        {
          "name": "F#3",
          "midi": 54,
          "time": 140.27772166666702,
          "velocity": 0.7086614173228346,
          "duration": 0.2777776666666796
        },
        {
          "name": "E3",
          "midi": 52,
          "time": 140.27772166666702,
          "velocity": 0.7086614173228346,
          "duration": 0.2777776666666796
        },
        {
          "name": "C#3",
          "midi": 49,
          "time": 140.27772166666702,
          "velocity": 0.7086614173228346,
          "duration": 0.2777776666666796
        },
        {
          "name": "A#3",
          "midi": 58,
          "time": 140.5554993333337,
          "velocity": 0.7086614173228346,
          "duration": 0.2777776666666796
        },
        {
          "name": "F#3",
          "midi": 54,
          "time": 140.5554993333337,
          "velocity": 0.7086614173228346,
          "duration": 0.2777776666666796
        },
        {
          "name": "E3",
          "midi": 52,
          "time": 140.5554993333337,
          "velocity": 0.7086614173228346,
          "duration": 0.2777776666666796
        },
        {
          "name": "C#3",
          "midi": 49,
          "time": 140.5554993333337,
          "velocity": 0.7086614173228346,
          "duration": 0.2777776666666796
        },
        {
          "name": "A#3",
          "midi": 58,
          "time": 140.83327700000038,
          "velocity": 0.7086614173228346,
          "duration": 0.2777776666666796
        },
        {
          "name": "F#3",
          "midi": 54,
          "time": 140.83327700000038,
          "velocity": 0.7086614173228346,
          "duration": 0.2777776666666796
        },
        {
          "name": "E3",
          "midi": 52,
          "time": 140.83327700000038,
          "velocity": 0.7086614173228346,
          "duration": 0.2777776666666796
        },
        {
          "name": "C#3",
          "midi": 49,
          "time": 140.83327700000038,
          "velocity": 0.7086614173228346,
          "duration": 0.2777776666666796
        },
        {
          "name": "C#3",
          "midi": 49,
          "time": 141.11105466666706,
          "velocity": 0.7086614173228346,
          "duration": 0.2777776666666796
        },
        {
          "name": "E3",
          "midi": 52,
          "time": 141.11105466666706,
          "velocity": 0.7086614173228346,
          "duration": 0.2777776666666796
        },
        {
          "name": "F#3",
          "midi": 54,
          "time": 141.11105466666706,
          "velocity": 0.7086614173228346,
          "duration": 0.2777776666666796
        },
        {
          "name": "A#3",
          "midi": 58,
          "time": 141.11105466666706,
          "velocity": 0.7086614173228346,
          "duration": 0.2777776666666796
        },
        {
          "name": "A#3",
          "midi": 58,
          "time": 141.38883233333374,
          "velocity": 0.7086614173228346,
          "duration": 0.2777776666666796
        },
        {
          "name": "F#3",
          "midi": 54,
          "time": 141.38883233333374,
          "velocity": 0.7086614173228346,
          "duration": 0.2777776666666796
        },
        {
          "name": "E3",
          "midi": 52,
          "time": 141.38883233333374,
          "velocity": 0.7086614173228346,
          "duration": 0.2777776666666796
        },
        {
          "name": "C#3",
          "midi": 49,
          "time": 141.38883233333374,
          "velocity": 0.7086614173228346,
          "duration": 0.2777776666666796
        },
        {
          "name": "B2",
          "midi": 47,
          "time": 141.66661000000042,
          "velocity": 0.7086614173228346,
          "duration": 0.2777776666666796
        },
        {
          "name": "E3",
          "midi": 52,
          "time": 141.66661000000042,
          "velocity": 0.7086614173228346,
          "duration": 0.2777776666666796
        },
        {
          "name": "G#3",
          "midi": 56,
          "time": 141.66661000000042,
          "velocity": 0.7086614173228346,
          "duration": 0.2777776666666796
        },
        {
          "name": "B3",
          "midi": 59,
          "time": 141.66661000000042,
          "velocity": 0.7086614173228346,
          "duration": 0.2777776666666796
        },
        {
          "name": "B3",
          "midi": 59,
          "time": 141.9443876666671,
          "velocity": 0.7086614173228346,
          "duration": 0.2777776666666796
        },
        {
          "name": "G#3",
          "midi": 56,
          "time": 141.9443876666671,
          "velocity": 0.7086614173228346,
          "duration": 0.2777776666666796
        },
        {
          "name": "E3",
          "midi": 52,
          "time": 141.9443876666671,
          "velocity": 0.7086614173228346,
          "duration": 0.2777776666666796
        },
        {
          "name": "B2",
          "midi": 47,
          "time": 141.9443876666671,
          "velocity": 0.7086614173228346,
          "duration": 0.2777776666666796
        },
        {
          "name": "B3",
          "midi": 59,
          "time": 142.22216533333378,
          "velocity": 0.7086614173228346,
          "duration": 0.2777776666666796
        },
        {
          "name": "G#3",
          "midi": 56,
          "time": 142.22216533333378,
          "velocity": 0.7086614173228346,
          "duration": 0.2777776666666796
        },
        {
          "name": "E3",
          "midi": 52,
          "time": 142.22216533333378,
          "velocity": 0.7086614173228346,
          "duration": 0.2777776666666796
        },
        {
          "name": "B2",
          "midi": 47,
          "time": 142.22216533333378,
          "velocity": 0.7086614173228346,
          "duration": 0.2777776666666796
        },
        {
          "name": "B1",
          "midi": 35,
          "time": 142.49994300000046,
          "velocity": 0.7086614173228346,
          "duration": 0.2777776666666796
        },
        {
          "name": "B2",
          "midi": 47,
          "time": 142.49994300000046,
          "velocity": 0.7086614173228346,
          "duration": 0.2777776666666796
        },
        {
          "name": "B2",
          "midi": 47,
          "time": 142.77772066666714,
          "velocity": 0.7086614173228346,
          "duration": 0.2777776666666796
        },
        {
          "name": "B1",
          "midi": 35,
          "time": 142.77772066666714,
          "velocity": 0.7086614173228346,
          "duration": 0.2777776666666796
        },
        {
          "name": "B2",
          "midi": 47,
          "time": 143.05549833333382,
          "velocity": 0.7086614173228346,
          "duration": 0.2777776666666796
        },
        {
          "name": "B1",
          "midi": 35,
          "time": 143.05549833333382,
          "velocity": 0.7086614173228346,
          "duration": 0.2777776666666796
        },
        {
          "name": "E3",
          "midi": 52,
          "time": 143.3332760000005,
          "velocity": 0.7086614173228346,
          "duration": 0.8333330000000103
        },
        {
          "name": "E2",
          "midi": 40,
          "time": 143.3332760000005,
          "velocity": 0.7086614173228346,
          "duration": 0.8333330000000103
        },
        {
          "name": "E3",
          "midi": 52,
          "time": 146.6666080000005,
          "velocity": 0.7086614173228346,
          "duration": 1.6666659999999922
        },
        {
          "name": "E2",
          "midi": 40,
          "time": 146.6666080000005,
          "velocity": 0.7086614173228346,
          "duration": 1.6666659999999922
        },
        {
          "name": "F#3",
          "midi": 54,
          "time": 149.9999400000005,
          "velocity": 0.7086614173228346,
          "duration": 1.1111106666666615
        },
        {
          "name": "F#3",
          "midi": 54,
          "time": 151.11105066666715,
          "velocity": 0.7086614173228346,
          "duration": 0.2777776666666796
        },
        {
          "name": "F3",
          "midi": 53,
          "time": 151.38882833333383,
          "velocity": 0.7086614173228346,
          "duration": 0.2777776666666796
        },
        {
          "name": "F#3",
          "midi": 54,
          "time": 151.6666060000005,
          "velocity": 0.7086614173228346,
          "duration": 0.2777776666666796
        },
        {
          "name": "F#3",
          "midi": 54,
          "time": 151.9443836666672,
          "velocity": 0.7086614173228346,
          "duration": 0.2777776666666796
        },
        {
          "name": "E3",
          "midi": 52,
          "time": 152.22216133333387,
          "velocity": 0.7086614173228346,
          "duration": 0.2777776666666796
        },
        {
          "name": "D#3",
          "midi": 51,
          "time": 152.49993900000055,
          "velocity": 0.7086614173228346,
          "duration": 0.2777776666666796
        },
        {
          "name": "C#3",
          "midi": 49,
          "time": 152.77771666666723,
          "velocity": 0.7086614173228346,
          "duration": 0.2777776666666796
        },
        {
          "name": "B2",
          "midi": 47,
          "time": 153.0554943333339,
          "velocity": 0.7086614173228346,
          "duration": 0.2777776666666796
        },
        {
          "name": "E3",
          "midi": 52,
          "time": 153.3332720000006,
          "velocity": 0.7086614173228346,
          "duration": 0.8333330000000103
        },
        {
          "name": "F1",
          "midi": 29,
          "time": 156.94438166666725,
          "velocity": 0.7086614173228346,
          "duration": 0.2777776666666796
        },
        {
          "name": "G#1",
          "midi": 32,
          "time": 157.22215933333393,
          "velocity": 0.7086614173228346,
          "duration": 0.2777776666666796
        },
        {
          "name": "B1",
          "midi": 35,
          "time": 157.4999370000006,
          "velocity": 0.7086614173228346,
          "duration": 0.2777776666666796
        },
        {
          "name": "D2",
          "midi": 38,
          "time": 157.7777146666673,
          "velocity": 0.7086614173228346,
          "duration": 0.2777776666666796
        },
        {
          "name": "F2",
          "midi": 41,
          "time": 158.05549233333397,
          "velocity": 0.7086614173228346,
          "duration": 0.2777776666666796
        },
        {
          "name": "G#2",
          "midi": 44,
          "time": 158.33327000000065,
          "velocity": 0.7086614173228346,
          "duration": 0.8333330000000103
        },
        {
          "name": "F1",
          "midi": 29,
          "time": 160.27771366666732,
          "velocity": 0.7086614173228346,
          "duration": 0.2777776666666796
        },
        {
          "name": "G#1",
          "midi": 32,
          "time": 160.555491333334,
          "velocity": 0.7086614173228346,
          "duration": 0.2777776666666796
        },
        {
          "name": "B1",
          "midi": 35,
          "time": 160.83326900000068,
          "velocity": 0.7086614173228346,
          "duration": 0.2777776666666796
        },
        {
          "name": "D2",
          "midi": 38,
          "time": 161.11104666666736,
          "velocity": 0.7086614173228346,
          "duration": 0.2777776666666796
        },
        {
          "name": "F2",
          "midi": 41,
          "time": 161.38882433333404,
          "velocity": 0.7086614173228346,
          "duration": 0.2777776666666796
        },
        {
          "name": "G#2",
          "midi": 44,
          "time": 161.66660200000072,
          "velocity": 0.7086614173228346,
          "duration": 0.8333330000000103
        },
        {
          "name": "E2",
          "midi": 40,
          "time": 163.6110456666674,
          "velocity": 0.7086614173228346,
          "duration": 0.2777776666666796
        },
        {
          "name": "G#2",
          "midi": 44,
          "time": 163.88882333333407,
          "velocity": 0.7086614173228346,
          "duration": 0.2777776666666796
        },
        {
          "name": "A#2",
          "midi": 46,
          "time": 164.16660100000075,
          "velocity": 0.7086614173228346,
          "duration": 0.8333330000000103
        },
        {
          "name": "D#2",
          "midi": 39,
          "time": 165.27771166666744,
          "velocity": 0.7086614173228346,
          "duration": 0.2777776666666796
        },
        {
          "name": "G2",
          "midi": 43,
          "time": 165.55548933333412,
          "velocity": 0.7086614173228346,
          "duration": 0.2777776666666796
        },
        {
          "name": "A#2",
          "midi": 46,
          "time": 165.8332670000008,
          "velocity": 0.7086614173228346,
          "duration": 0.8333330000000103
        },
        {
          "name": "G#2",
          "midi": 44,
          "time": 166.6666000000008,
          "velocity": 0.7086614173228346,
          "duration": 1.6666659999999922
        },
        {
          "name": "G#1",
          "midi": 32,
          "time": 166.6666000000008,
          "velocity": 0.7086614173228346,
          "duration": 1.6666659999999922
        },
        {
          "name": "C#3",
          "midi": 49,
          "time": 168.3332660000008,
          "velocity": 0.7086614173228346,
          "duration": 1.6666659999999922
        },
        {
          "name": "C3",
          "midi": 48,
          "time": 169.9999320000008,
          "velocity": 0.7086614173228346,
          "duration": 1.6666659999999922
        },
        {
          "name": "G2",
          "midi": 43,
          "time": 171.6665980000008,
          "velocity": 0.7086614173228346,
          "duration": 1.6666659999999922
        },
        {
          "name": "G#2",
          "midi": 44,
          "time": 173.33326400000078,
          "velocity": 0.7086614173228346,
          "duration": 0.8333330000000103
        },
        {
          "name": "G2",
          "midi": 43,
          "time": 174.1665970000008,
          "velocity": 0.7086614173228346,
          "duration": 0.8333330000000103
        },
        {
          "name": "F2",
          "midi": 41,
          "time": 174.9999300000008,
          "velocity": 0.7086614173228346,
          "duration": 0.8333330000000103
        },
        {
          "name": "F3",
          "midi": 53,
          "time": 175.8332630000008,
          "velocity": 0.7086614173228346,
          "duration": 0.8333330000000103
        },
        {
          "name": "D#3",
          "midi": 51,
          "time": 176.66659600000082,
          "velocity": 0.7086614173228346,
          "duration": 1.6666659999999922
        },
        {
          "name": "D#2",
          "midi": 39,
          "time": 178.33326200000081,
          "velocity": 0.7086614173228346,
          "duration": 1.6666659999999922
        },
        {
          "name": "C#2",
          "midi": 37,
          "time": 179.9999280000008,
          "velocity": 0.7086614173228346,
          "duration": 1.6666659999999922
        },
        {
          "name": "C#3",
          "midi": 49,
          "time": 181.6665940000008,
          "velocity": 0.7086614173228346,
          "duration": 1.6666659999999922
        },
        {
          "name": "C3",
          "midi": 48,
          "time": 183.3332600000008,
          "velocity": 0.7086614173228346,
          "duration": 1.6666659999999922
        },
        {
          "name": "F2",
          "midi": 41,
          "time": 184.99992600000078,
          "velocity": 0.7086614173228346,
          "duration": 1.6666659999999922
        },
        {
          "name": "A#1",
          "midi": 34,
          "time": 186.66659200000078,
          "velocity": 0.7086614173228346,
          "duration": 1.6666659999999922
        },
        {
          "name": "D#2",
          "midi": 39,
          "time": 188.33325800000077,
          "velocity": 0.7086614173228346,
          "duration": 1.6666659999999922
        },
        {
          "name": "G#1",
          "midi": 32,
          "time": 189.99992400000076,
          "velocity": 0.7086614173228346,
          "duration": 0.8333330000000103
        },
        {
          "name": "G#2",
          "midi": 44,
          "time": 190.83325700000077,
          "velocity": 0.7086614173228346,
          "duration": 0.8333330000000103
        },
        {
          "name": "G#1",
          "midi": 32,
          "time": 191.66659000000078,
          "velocity": 0.7086614173228346,
          "duration": 0.8333330000000103
        },
        {
          "name": "G#3",
          "midi": 56,
          "time": 193.3332560000008,
          "velocity": 0.7086614173228346,
          "duration": 0.2777776666666796
        },
        {
          "name": "G#2",
          "midi": 44,
          "time": 193.3332560000008,
          "velocity": 0.7086614173228346,
          "duration": 1.6666660000000775
        },
        {
          "name": "D#3",
          "midi": 51,
          "time": 193.61103366666748,
          "velocity": 0.7086614173228346,
          "duration": 0.2777776666666796
        },
        {
          "name": "D#3",
          "midi": 51,
          "time": 193.88881133333416,
          "velocity": 0.7086614173228346,
          "duration": 0.2777776666666796
        },
        {
          "name": "G#3",
          "midi": 56,
          "time": 194.16658900000084,
          "velocity": 0.7086614173228346,
          "duration": 0.2777776666666796
        },
        {
          "name": "D#3",
          "midi": 51,
          "time": 194.44436666666752,
          "velocity": 0.7086614173228346,
          "duration": 0.2777776666666796
        },
        {
          "name": "D#3",
          "midi": 51,
          "time": 194.7221443333342,
          "velocity": 0.7086614173228346,
          "duration": 0.2777776666666796
        },
        {
          "name": "C#3",
          "midi": 49,
          "time": 194.99992200000088,
          "velocity": 0.7086614173228346,
          "duration": 1.6666660000000775
        },
        {
          "name": "G3",
          "midi": 55,
          "time": 194.99992200000088,
          "velocity": 0.7086614173228346,
          "duration": 0.2777776666666796
        },
        {
          "name": "D#3",
          "midi": 51,
          "time": 195.27769966666756,
          "velocity": 0.7086614173228346,
          "duration": 0.2777776666666796
        },
        {
          "name": "D#3",
          "midi": 51,
          "time": 195.55547733333424,
          "velocity": 0.7086614173228346,
          "duration": 0.2777776666666796
        },
        {
          "name": "G3",
          "midi": 55,
          "time": 195.83325500000092,
          "velocity": 0.7086614173228346,
          "duration": 0.2777776666666796
        },
        {
          "name": "D#3",
          "midi": 51,
          "time": 196.1110326666676,
          "velocity": 0.7086614173228346,
          "duration": 0.2777776666666796
        },
        {
          "name": "D#3",
          "midi": 51,
          "time": 196.38881033333428,
          "velocity": 0.7086614173228346,
          "duration": 0.2777776666666796
        },
        {
          "name": "G#3",
          "midi": 56,
          "time": 196.66658800000096,
          "velocity": 0.7086614173228346,
          "duration": 0.2777776666666796
        },
        {
          "name": "C3",
          "midi": 48,
          "time": 196.66658800000096,
          "velocity": 0.7086614173228346,
          "duration": 1.6666660000000775
        },
        {
          "name": "D#3",
          "midi": 51,
          "time": 196.94436566666764,
          "velocity": 0.7086614173228346,
          "duration": 0.2777776666666796
        },
        {
          "name": "D#3",
          "midi": 51,
          "time": 197.22214333333432,
          "velocity": 0.7086614173228346,
          "duration": 0.2777776666666796
        },
        {
          "name": "G#3",
          "midi": 56,
          "time": 197.499921000001,
          "velocity": 0.7086614173228346,
          "duration": 0.2777776666666796
        },
        {
          "name": "D#3",
          "midi": 51,
          "time": 197.77769866666767,
          "velocity": 0.7086614173228346,
          "duration": 0.2777776666666796
        },
        {
          "name": "D#3",
          "midi": 51,
          "time": 198.05547633333435,
          "velocity": 0.7086614173228346,
          "duration": 0.2777776666666796
        },
        {
          "name": "G3",
          "midi": 55,
          "time": 198.33325400000103,
          "velocity": 0.7086614173228346,
          "duration": 0.2777776666666796
        },
        {
          "name": "G2",
          "midi": 43,
          "time": 198.33325400000103,
          "velocity": 0.7086614173228346,
          "duration": 1.6666660000000775
        },
        {
          "name": "D#3",
          "midi": 51,
          "time": 198.6110316666677,
          "velocity": 0.7086614173228346,
          "duration": 0.2777776666666796
        },
        {
          "name": "D#3",
          "midi": 51,
          "time": 198.8888093333344,
          "velocity": 0.7086614173228346,
          "duration": 0.2777776666666796
        },
        {
          "name": "G3",
          "midi": 55,
          "time": 199.16658700000107,
          "velocity": 0.7086614173228346,
          "duration": 0.2777776666666796
        },
        {
          "name": "D#3",
          "midi": 51,
          "time": 199.44436466666775,
          "velocity": 0.7086614173228346,
          "duration": 0.2777776666666796
        },
        {
          "name": "D#3",
          "midi": 51,
          "time": 199.72214233333443,
          "velocity": 0.7086614173228346,
          "duration": 0.2777776666666796
        },
        {
          "name": "G#3",
          "midi": 56,
          "time": 199.9999200000011,
          "velocity": 0.7086614173228346,
          "duration": 0.2777776666666796
        },
        {
          "name": "G#2",
          "midi": 44,
          "time": 199.9999200000011,
          "velocity": 0.7086614173228346,
          "duration": 0.8333330000000387
        },
        {
          "name": "D#3",
          "midi": 51,
          "time": 200.2776976666678,
          "velocity": 0.7086614173228346,
          "duration": 0.2777776666666796
        },
        {
          "name": "D#3",
          "midi": 51,
          "time": 200.55547533333447,
          "velocity": 0.7086614173228346,
          "duration": 0.2777776666666796
        },
        {
          "name": "G3",
          "midi": 55,
          "time": 200.83325300000115,
          "velocity": 0.7086614173228346,
          "duration": 0.2777776666666796
        },
        {
          "name": "G2",
          "midi": 43,
          "time": 200.83325300000115,
          "velocity": 0.7086614173228346,
          "duration": 0.8333330000000387
        },
        {
          "name": "D#3",
          "midi": 51,
          "time": 201.11103066666783,
          "velocity": 0.7086614173228346,
          "duration": 0.2777776666666796
        },
        {
          "name": "D#3",
          "midi": 51,
          "time": 201.3888083333345,
          "velocity": 0.7086614173228346,
          "duration": 0.2777776666666796
        },
        {
          "name": "F3",
          "midi": 53,
          "time": 201.6665860000012,
          "velocity": 0.7086614173228346,
          "duration": 0.2777776666666796
        },
        {
          "name": "F2",
          "midi": 41,
          "time": 201.6665860000012,
          "velocity": 0.7086614173228346,
          "duration": 0.8333330000000387
        },
        {
          "name": "G#2",
          "midi": 44,
          "time": 201.94436366666787,
          "velocity": 0.7086614173228346,
          "duration": 0.2777776666666796
        },
        {
          "name": "G#2",
          "midi": 44,
          "time": 202.22214133333455,
          "velocity": 0.7086614173228346,
          "duration": 0.2777776666666796
        },
        {
          "name": "F3",
          "midi": 53,
          "time": 202.49991900000123,
          "velocity": 0.7086614173228346,
          "duration": 0.2777776666666796
        },
        {
          "name": "F2",
          "midi": 41,
          "time": 202.49991900000123,
          "velocity": 0.7086614173228346,
          "duration": 0.8333330000000387
        },
        {
          "name": "G#2",
          "midi": 44,
          "time": 202.7776966666679,
          "velocity": 0.7086614173228346,
          "duration": 0.2777776666666796
        },
        {
          "name": "G#2",
          "midi": 44,
          "time": 203.0554743333346,
          "velocity": 0.7086614173228346,
          "duration": 0.2777776666666796
        },
        {
          "name": "D#2",
          "midi": 39,
          "time": 203.33325200000127,
          "velocity": 0.7086614173228346,
          "duration": 0.2777776666666796
        },
        {
          "name": "G2",
          "midi": 43,
          "time": 203.61102966666795,
          "velocity": 0.7086614173228346,
          "duration": 0.2777776666666796
        },
        {
          "name": "A#2",
          "midi": 46,
          "time": 203.88880733333463,
          "velocity": 0.7086614173228346,
          "duration": 0.2777776666666796
        },
        {
          "name": "D#3",
          "midi": 51,
          "time": 204.1665850000013,
          "velocity": 0.7086614173228346,
          "duration": 0.2777776666666796
        },
        {
          "name": "G3",
          "midi": 55,
          "time": 204.44436266666798,
          "velocity": 0.7086614173228346,
          "duration": 0.2777776666666796
        },
        {
          "name": "A#3",
          "midi": 58,
          "time": 204.72214033333466,
          "velocity": 0.7086614173228346,
          "duration": 0.2777776666666796
        },
        {
          "name": "D#4",
          "midi": 63,
          "time": 204.99991800000134,
          "velocity": 0.7086614173228346,
          "duration": 1.6666659999999922
        },
        {
          "name": "C#2",
          "midi": 37,
          "time": 206.66658400000134,
          "velocity": 0.7086614173228346,
          "duration": 0.2777776666666796
        },
        {
          "name": "G2",
          "midi": 43,
          "time": 206.94436166666802,
          "velocity": 0.7086614173228346,
          "duration": 0.2777776666666796
        },
        {
          "name": "A#2",
          "midi": 46,
          "time": 207.2221393333347,
          "velocity": 0.7086614173228346,
          "duration": 0.2777776666666796
        },
        {
          "name": "C#3",
          "midi": 49,
          "time": 207.49991700000137,
          "velocity": 0.7086614173228346,
          "duration": 0.2777776666666796
        },
        {
          "name": "G3",
          "midi": 55,
          "time": 207.77769466666805,
          "velocity": 0.7086614173228346,
          "duration": 0.2777776666666796
        },
        {
          "name": "A#3",
          "midi": 58,
          "time": 208.05547233333473,
          "velocity": 0.7086614173228346,
          "duration": 0.2777776666666796
        },
        {
          "name": "C#4",
          "midi": 61,
          "time": 208.3332500000014,
          "velocity": 0.7086614173228346,
          "duration": 1.6666659999999922
        },
        {
          "name": "C4",
          "midi": 60,
          "time": 209.9999160000014,
          "velocity": 0.7086614173228346,
          "duration": 1.6666659999999922
        },
        {
          "name": "F3",
          "midi": 53,
          "time": 211.6665820000014,
          "velocity": 0.7086614173228346,
          "duration": 1.6666659999999922
        },
        {
          "name": "A#2",
          "midi": 46,
          "time": 213.3332480000014,
          "velocity": 0.7086614173228346,
          "duration": 1.6666659999999922
        },
        {
          "name": "D#2",
          "midi": 39,
          "time": 214.99991400000138,
          "velocity": 0.7086614173228346,
          "duration": 0.8333330000000387
        },
        {
          "name": "A#2",
          "midi": 46,
          "time": 214.99991400000138,
          "velocity": 0.7086614173228346,
          "duration": 0.2777776666666796
        },
        {
          "name": "D#3",
          "midi": 51,
          "time": 215.27769166666806,
          "velocity": 0.7086614173228346,
          "duration": 0.2777776666666796
        },
        {
          "name": "D#3",
          "midi": 51,
          "time": 215.55546933333474,
          "velocity": 0.7086614173228346,
          "duration": 0.2777776666666796
        },
        {
          "name": "D#2",
          "midi": 39,
          "time": 215.83324700000142,
          "velocity": 0.7086614173228346,
          "duration": 0.8333330000000387
        },
        {
          "name": "D#3",
          "midi": 51,
          "time": 216.1110246666681,
          "velocity": 0.7086614173228346,
          "duration": 0.2777776666666796
        },
        {
          "name": "D#3",
          "midi": 51,
          "time": 216.38880233333478,
          "velocity": 0.7086614173228346,
          "duration": 0.2777776666666796
        },
        {
          "name": "G#2",
          "midi": 44,
          "time": 216.66658000000146,
          "velocity": 0.7086614173228346,
          "duration": 0.2777776666666796
        },
        {
          "name": "D#3",
          "midi": 51,
          "time": 216.94435766666814,
          "velocity": 0.7086614173228346,
          "duration": 0.2777776666666796
        },
        {
          "name": "D#3",
          "midi": 51,
          "time": 217.22213533333482,
          "velocity": 0.7086614173228346,
          "duration": 0.2777776666666796
        },
        {
          "name": "D#3",
          "midi": 51,
          "time": 217.4999130000015,
          "velocity": 0.7086614173228346,
          "duration": 0.2777776666666796
        },
        {
          "name": "D#3",
          "midi": 51,
          "time": 217.77769066666818,
          "velocity": 0.7086614173228346,
          "duration": 0.2777776666666796
        },
        {
          "name": "D#3",
          "midi": 51,
          "time": 218.05546833333486,
          "velocity": 0.7086614173228346,
          "duration": 0.2777776666666796
        },
        {
          "name": "D#3",
          "midi": 51,
          "time": 218.33324600000154,
          "velocity": 0.7086614173228346,
          "duration": 0.2777776666666796
        },
        {
          "name": "D#3",
          "midi": 51,
          "time": 218.61102366666822,
          "velocity": 0.7086614173228346,
          "duration": 0.2777776666666796
        },
        {
          "name": "D#3",
          "midi": 51,
          "time": 218.8888013333349,
          "velocity": 0.7086614173228346,
          "duration": 0.2777776666666796
        },
        {
          "name": "D#3",
          "midi": 51,
          "time": 219.16657900000158,
          "velocity": 0.7086614173228346,
          "duration": 0.2777776666666796
        },
        {
          "name": "D#3",
          "midi": 51,
          "time": 219.44435666666826,
          "velocity": 0.7086614173228346,
          "duration": 0.2777776666666796
        },
        {
          "name": "D#3",
          "midi": 51,
          "time": 219.72213433333494,
          "velocity": 0.7086614173228346,
          "duration": 0.2777776666666796
        },
        {
          "name": "D#2",
          "midi": 39,
          "time": 219.99991200000161,
          "velocity": 0.7086614173228346,
          "duration": 0.2777776666666796
        },
        {
          "name": "C#3",
          "midi": 49,
          "time": 219.99991200000161,
          "velocity": 0.7086614173228346,
          "duration": 0.2777776666666796
        },
        {
          "name": "D#3",
          "midi": 51,
          "time": 219.99991200000161,
          "velocity": 0.7086614173228346,
          "duration": 0.2777776666666796
        },
        {
          "name": "D#3",
          "midi": 51,
          "time": 220.2776896666683,
          "velocity": 0.7086614173228346,
          "duration": 0.2777776666666796
        },
        {
          "name": "C#3",
          "midi": 49,
          "time": 220.2776896666683,
          "velocity": 0.7086614173228346,
          "duration": 0.2777776666666796
        },
        {
          "name": "D#2",
          "midi": 39,
          "time": 220.2776896666683,
          "velocity": 0.7086614173228346,
          "duration": 0.2777776666666796
        },
        {
          "name": "D#3",
          "midi": 51,
          "time": 220.55546733333497,
          "velocity": 0.7086614173228346,
          "duration": 0.2777776666666796
        },
        {
          "name": "C#3",
          "midi": 49,
          "time": 220.55546733333497,
          "velocity": 0.7086614173228346,
          "duration": 0.2777776666666796
        },
        {
          "name": "D#2",
          "midi": 39,
          "time": 220.55546733333497,
          "velocity": 0.7086614173228346,
          "duration": 0.2777776666666796
        },
        {
          "name": "D#2",
          "midi": 39,
          "time": 220.83324500000165,
          "velocity": 0.7086614173228346,
          "duration": 0.2777776666666796
        },
        {
          "name": "C#3",
          "midi": 49,
          "time": 220.83324500000165,
          "velocity": 0.7086614173228346,
          "duration": 0.2777776666666796
        },
        {
          "name": "D#3",
          "midi": 51,
          "time": 220.83324500000165,
          "velocity": 0.7086614173228346,
          "duration": 0.2777776666666796
        },
        {
          "name": "D#3",
          "midi": 51,
          "time": 221.11102266666833,
          "velocity": 0.7086614173228346,
          "duration": 0.2777776666666796
        },
        {
          "name": "C#3",
          "midi": 49,
          "time": 221.11102266666833,
          "velocity": 0.7086614173228346,
          "duration": 0.2777776666666796
        },
        {
          "name": "D#2",
          "midi": 39,
          "time": 221.11102266666833,
          "velocity": 0.7086614173228346,
          "duration": 0.2777776666666796
        },
        {
          "name": "D#3",
          "midi": 51,
          "time": 221.388800333335,
          "velocity": 0.7086614173228346,
          "duration": 0.2777776666666796
        },
        {
          "name": "C#3",
          "midi": 49,
          "time": 221.388800333335,
          "velocity": 0.7086614173228346,
          "duration": 0.2777776666666796
        },
        {
          "name": "D#2",
          "midi": 39,
          "time": 221.388800333335,
          "velocity": 0.7086614173228346,
          "duration": 0.2777776666666796
        },
        {
          "name": "D#2",
          "midi": 39,
          "time": 221.6665780000017,
          "velocity": 0.7086614173228346,
          "duration": 0.2777776666666796
        },
        {
          "name": "C#3",
          "midi": 49,
          "time": 221.6665780000017,
          "velocity": 0.7086614173228346,
          "duration": 0.2777776666666796
        },
        {
          "name": "D#3",
          "midi": 51,
          "time": 221.6665780000017,
          "velocity": 0.7086614173228346,
          "duration": 0.2777776666666796
        },
        {
          "name": "D#3",
          "midi": 51,
          "time": 221.94435566666837,
          "velocity": 0.7086614173228346,
          "duration": 0.2777776666666796
        },
        {
          "name": "C#3",
          "midi": 49,
          "time": 221.94435566666837,
          "velocity": 0.7086614173228346,
          "duration": 0.2777776666666796
        },
        {
          "name": "D#2",
          "midi": 39,
          "time": 221.94435566666837,
          "velocity": 0.7086614173228346,
          "duration": 0.2777776666666796
        },
        {
          "name": "D#3",
          "midi": 51,
          "time": 222.22213333333505,
          "velocity": 0.7086614173228346,
          "duration": 0.2777776666666796
        },
        {
          "name": "C#3",
          "midi": 49,
          "time": 222.22213333333505,
          "velocity": 0.7086614173228346,
          "duration": 0.2777776666666796
        },
        {
          "name": "D#2",
          "midi": 39,
          "time": 222.22213333333505,
          "velocity": 0.7086614173228346,
          "duration": 0.2777776666666796
        },
        {
          "name": "D#2",
          "midi": 39,
          "time": 222.49991100000173,
          "velocity": 0.7086614173228346,
          "duration": 0.2777776666666796
        },
        {
          "name": "C#3",
          "midi": 49,
          "time": 222.49991100000173,
          "velocity": 0.7086614173228346,
          "duration": 0.2777776666666796
        },
        {
          "name": "D#3",
          "midi": 51,
          "time": 222.49991100000173,
          "velocity": 0.7086614173228346,
          "duration": 0.2777776666666796
        },
        {
          "name": "D#3",
          "midi": 51,
          "time": 222.7776886666684,
          "velocity": 0.7086614173228346,
          "duration": 0.2777776666666796
        },
        {
          "name": "C#3",
          "midi": 49,
          "time": 222.7776886666684,
          "velocity": 0.7086614173228346,
          "duration": 0.2777776666666796
        },
        {
          "name": "D#2",
          "midi": 39,
          "time": 222.7776886666684,
          "velocity": 0.7086614173228346,
          "duration": 0.2777776666666796
        },
        {
          "name": "D#3",
          "midi": 51,
          "time": 223.0554663333351,
          "velocity": 0.7086614173228346,
          "duration": 0.2777776666666796
        },
        {
          "name": "C#3",
          "midi": 49,
          "time": 223.0554663333351,
          "velocity": 0.7086614173228346,
          "duration": 0.2777776666666796
        },
        {
          "name": "D#2",
          "midi": 39,
          "time": 223.0554663333351,
          "velocity": 0.7086614173228346,
          "duration": 0.2777776666666796
        },
        {
          "name": "G#2",
          "midi": 44,
          "time": 223.33324400000177,
          "velocity": 0.7086614173228346,
          "duration": 0.2777776666666796
        },
        {
          "name": "C3",
          "midi": 48,
          "time": 223.33324400000177,
          "velocity": 0.7086614173228346,
          "duration": 0.2777776666666796
        },
        {
          "name": "D#3",
          "midi": 51,
          "time": 223.33324400000177,
          "velocity": 0.7086614173228346,
          "duration": 0.2777776666666796
        },
        {
          "name": "D#3",
          "midi": 51,
          "time": 223.61102166666845,
          "velocity": 0.7086614173228346,
          "duration": 0.2777776666666796
        },
        {
          "name": "D#3",
          "midi": 51,
          "time": 223.88879933333513,
          "velocity": 0.7086614173228346,
          "duration": 0.2777776666666796
        },
        {
          "name": "D#3",
          "midi": 51,
          "time": 224.1665770000018,
          "velocity": 0.7086614173228346,
          "duration": 0.2777776666666796
        },
        {
          "name": "D#3",
          "midi": 51,
          "time": 224.4443546666685,
          "velocity": 0.7086614173228346,
          "duration": 0.2777776666666796
        },
        {
          "name": "D#3",
          "midi": 51,
          "time": 224.72213233333517,
          "velocity": 0.7086614173228346,
          "duration": 0.2777776666666796
        },
        {
          "name": "D#3",
          "midi": 51,
          "time": 224.99991000000185,
          "velocity": 0.7086614173228346,
          "duration": 0.2777776666666796
        },
        {
          "name": "D#3",
          "midi": 51,
          "time": 225.27768766666853,
          "velocity": 0.7086614173228346,
          "duration": 0.2777776666666796
        },
        {
          "name": "D#3",
          "midi": 51,
          "time": 225.5554653333352,
          "velocity": 0.7086614173228346,
          "duration": 0.2777776666666796
        },
        {
          "name": "D#3",
          "midi": 51,
          "time": 225.8332430000019,
          "velocity": 0.7086614173228346,
          "duration": 0.2777776666666796
        },
        {
          "name": "D#3",
          "midi": 51,
          "time": 226.11102066666857,
          "velocity": 0.7086614173228346,
          "duration": 0.2777776666666796
        },
        {
          "name": "D#3",
          "midi": 51,
          "time": 226.38879833333525,
          "velocity": 0.7086614173228346,
          "duration": 0.2777776666666796
        },
        {
          "name": "D#3",
          "midi": 51,
          "time": 226.66657600000192,
          "velocity": 0.7086614173228346,
          "duration": 0.2777776666666796
        },
        {
          "name": "C#3",
          "midi": 49,
          "time": 226.66657600000192,
          "velocity": 0.7086614173228346,
          "duration": 0.2777776666666796
        },
        {
          "name": "D#2",
          "midi": 39,
          "time": 226.66657600000192,
          "velocity": 0.7086614173228346,
          "duration": 0.2777776666666796
        },
        {
          "name": "D#3",
          "midi": 51,
          "time": 226.9443536666686,
          "velocity": 0.7086614173228346,
          "duration": 0.2777776666666796
        },
        {
          "name": "C#3",
          "midi": 49,
          "time": 226.9443536666686,
          "velocity": 0.7086614173228346,
          "duration": 0.2777776666666796
        },
        {
          "name": "D#2",
          "midi": 39,
          "time": 226.9443536666686,
          "velocity": 0.7086614173228346,
          "duration": 0.2777776666666796
        },
        {
          "name": "D#2",
          "midi": 39,
          "time": 227.22213133333528,
          "velocity": 0.7086614173228346,
          "duration": 0.2777776666666796
        },
        {
          "name": "C#3",
          "midi": 49,
          "time": 227.22213133333528,
          "velocity": 0.7086614173228346,
          "duration": 0.2777776666666796
        },
        {
          "name": "D#3",
          "midi": 51,
          "time": 227.22213133333528,
          "velocity": 0.7086614173228346,
          "duration": 0.2777776666666796
        },
        {
          "name": "D#3",
          "midi": 51,
          "time": 227.49990900000196,
          "velocity": 0.7086614173228346,
          "duration": 0.2777776666666796
        },
        {
          "name": "C#3",
          "midi": 49,
          "time": 227.49990900000196,
          "velocity": 0.7086614173228346,
          "duration": 0.2777776666666796
        },
        {
          "name": "D#2",
          "midi": 39,
          "time": 227.49990900000196,
          "velocity": 0.7086614173228346,
          "duration": 0.2777776666666796
        },
        {
          "name": "D#3",
          "midi": 51,
          "time": 227.77768666666864,
          "velocity": 0.7086614173228346,
          "duration": 0.2777776666666796
        },
        {
          "name": "C#3",
          "midi": 49,
          "time": 227.77768666666864,
          "velocity": 0.7086614173228346,
          "duration": 0.2777776666666796
        },
        {
          "name": "D#2",
          "midi": 39,
          "time": 227.77768666666864,
          "velocity": 0.7086614173228346,
          "duration": 0.2777776666666796
        },
        {
          "name": "D#2",
          "midi": 39,
          "time": 228.05546433333532,
          "velocity": 0.7086614173228346,
          "duration": 0.2777776666666796
        },
        {
          "name": "C#3",
          "midi": 49,
          "time": 228.05546433333532,
          "velocity": 0.7086614173228346,
          "duration": 0.2777776666666796
        },
        {
          "name": "D#3",
          "midi": 51,
          "time": 228.05546433333532,
          "velocity": 0.7086614173228346,
          "duration": 0.2777776666666796
        },
        {
          "name": "D#3",
          "midi": 51,
          "time": 228.333242000002,
          "velocity": 0.7086614173228346,
          "duration": 0.2777776666666796
        },
        {
          "name": "C#3",
          "midi": 49,
          "time": 228.333242000002,
          "velocity": 0.7086614173228346,
          "duration": 0.2777776666666796
        },
        {
          "name": "D#2",
          "midi": 39,
          "time": 228.333242000002,
          "velocity": 0.7086614173228346,
          "duration": 0.2777776666666796
        },
        {
          "name": "D#3",
          "midi": 51,
          "time": 228.61101966666868,
          "velocity": 0.7086614173228346,
          "duration": 0.2777776666666796
        },
        {
          "name": "C#3",
          "midi": 49,
          "time": 228.61101966666868,
          "velocity": 0.7086614173228346,
          "duration": 0.2777776666666796
        },
        {
          "name": "D#2",
          "midi": 39,
          "time": 228.61101966666868,
          "velocity": 0.7086614173228346,
          "duration": 0.2777776666666796
        },
        {
          "name": "D#2",
          "midi": 39,
          "time": 228.88879733333536,
          "velocity": 0.7086614173228346,
          "duration": 0.2777776666666796
        },
        {
          "name": "C#3",
          "midi": 49,
          "time": 228.88879733333536,
          "velocity": 0.7086614173228346,
          "duration": 0.2777776666666796
        },
        {
          "name": "D#3",
          "midi": 51,
          "time": 228.88879733333536,
          "velocity": 0.7086614173228346,
          "duration": 0.2777776666666796
        },
        {
          "name": "D#3",
          "midi": 51,
          "time": 229.16657500000204,
          "velocity": 0.7086614173228346,
          "duration": 0.2777776666666796
        },
        {
          "name": "C#3",
          "midi": 49,
          "time": 229.16657500000204,
          "velocity": 0.7086614173228346,
          "duration": 0.2777776666666796
        },
        {
          "name": "D#2",
          "midi": 39,
          "time": 229.16657500000204,
          "velocity": 0.7086614173228346,
          "duration": 0.2777776666666796
        },
        {
          "name": "D#3",
          "midi": 51,
          "time": 229.44435266666872,
          "velocity": 0.7086614173228346,
          "duration": 0.2777776666666796
        },
        {
          "name": "C#3",
          "midi": 49,
          "time": 229.44435266666872,
          "velocity": 0.7086614173228346,
          "duration": 0.2777776666666796
        },
        {
          "name": "D#2",
          "midi": 39,
          "time": 229.44435266666872,
          "velocity": 0.7086614173228346,
          "duration": 0.2777776666666796
        },
        {
          "name": "D#2",
          "midi": 39,
          "time": 229.7221303333354,
          "velocity": 0.7086614173228346,
          "duration": 0.2777776666666796
        },
        {
          "name": "C#3",
          "midi": 49,
          "time": 229.7221303333354,
          "velocity": 0.7086614173228346,
          "duration": 0.2777776666666796
        },
        {
          "name": "D#3",
          "midi": 51,
          "time": 229.7221303333354,
          "velocity": 0.7086614173228346,
          "duration": 0.2777776666666796
        },
        {
          "name": "D#3",
          "midi": 51,
          "time": 229.99990800000208,
          "velocity": 0.7086614173228346,
          "duration": 0.8333330000000103
        },
        {
          "name": "C3",
          "midi": 48,
          "time": 229.99990800000208,
          "velocity": 0.7086614173228346,
          "duration": 0.8333330000000103
        },
        {
          "name": "G#2",
          "midi": 44,
          "time": 229.99990800000208,
          "velocity": 0.7086614173228346,
          "duration": 0.8333330000000103
        },
        {
          "name": "G4",
          "midi": 67,
          "time": 231.6665740000021,
          "velocity": 0.7086614173228346,
          "duration": 1.6666659999999922
        },
        {
          "name": "D#4",
          "midi": 63,
          "time": 231.6665740000021,
          "velocity": 0.7086614173228346,
          "duration": 1.6666659999999922
        },
        {
          "name": "G#4",
          "midi": 68,
          "time": 233.3332400000021,
          "velocity": 0.7086614173228346,
          "duration": 0.8333330000000103
        },
        {
          "name": "G#3",
          "midi": 56,
          "time": 233.3332400000021,
          "velocity": 0.7086614173228346,
          "duration": 0.8333330000000103
        },
        {
          "name": "D#3",
          "midi": 51,
          "time": 234.9999060000021,
          "velocity": 0.7086614173228346,
          "duration": 1.6666659999999922
        },
        {
          "name": "C#4",
          "midi": 61,
          "time": 234.9999060000021,
          "velocity": 0.7086614173228346,
          "duration": 1.6666659999999922
        },
        {
          "name": "C4",
          "midi": 60,
          "time": 236.6665720000021,
          "velocity": 0.7086614173228346,
          "duration": 0.8333330000000103
        },
        {
          "name": "G#3",
          "midi": 56,
          "time": 236.6665720000021,
          "velocity": 0.7086614173228346,
          "duration": 0.8333330000000103
        },
        {
          "name": "C#3",
          "midi": 49,
          "time": 238.33323800000213,
          "velocity": 0.7086614173228346,
          "duration": 1.6666659999999922
        },
        {
          "name": "D#2",
          "midi": 39,
          "time": 238.33323800000213,
          "velocity": 0.7086614173228346,
          "duration": 1.6666659999999922
        },
        {
          "name": "C3",
          "midi": 48,
          "time": 239.99990400000212,
          "velocity": 0.7086614173228346,
          "duration": 0.41666649999999095
        },
        {
          "name": "G#2",
          "midi": 44,
          "time": 239.99990400000212,
          "velocity": 0.7086614173228346,
          "duration": 0.41666649999999095
        },
        {
          "name": "G#1",
          "midi": 32,
          "time": 240.8332370000021,
          "velocity": 0.7086614173228346,
          "duration": 0.41666649999999095
        },
        {
          "name": "G#1",
          "midi": 32,
          "time": 241.66657000000208,
          "velocity": 0.7086614173228346,
          "duration": 1.6666659999999922
        }
      ],
      "controlChanges": {},
      "id": 2,
      "name": "down:",
      "instrumentNumber": 0,
      "instrument": "acoustic grand piano",
      "instrumentFamily": "piano",
      "channelNumber": 1,
      "isPercussion": false
    }
  ]
}