{"header":{"PPQ":480,"bpm":80,"timeSignature":[4,4]},"tracks":[{"name":"YOU'RE BEAUTIFUL","notes":[{"name":"F#2","midi":42,"time":3.0000000000000004,"velocity":0.4251968503937008,"duration":0.34375},{"name":"F#2","midi":42,"time":3.7500000000000004,"velocity":0.3464566929133858,"duration":0.3531249999999999},{"name":"F#2","midi":42,"time":4.5,"velocity":0.4330708661417323,"duration":0.36562499999999964},{"name":"G3","midi":55,"time":4.875,"velocity":0.8267716535433071,"duration":0.3562500000000002},{"name":"G3","midi":55,"time":4.875,"velocity":0.8267716535433071,"duration":0.3562500000000002},{"name":"G3","midi":55,"time":5.25,"velocity":0.5905511811023622,"duration":0.19218750000000018},{"name":"D#4","midi":63,"time":5.25,"velocity":0.8267716535433071,"duration":0.17812499999999964},{"name":"D#4","midi":63,"time":5.25,"velocity":0.8267716535433071,"duration":0.17812499999999964},{"name":"F3","midi":53,"time":5.4375,"velocity":0.1968503937007874,"duration":0.09843750000000018},{"name":"D4","midi":62,"time":5.4375,"velocity":0.7795275590551181,"duration":0.3156249999999998},{"name":"D4","midi":62,"time":5.4375,"velocity":0.7795275590551181,"duration":0.3156249999999998},{"name":"D#4","midi":63,"time":5.8125,"velocity":0.8503937007874016,"duration":0.84375},{"name":"D#4","midi":63,"time":5.8125,"velocity":0.8503937007874016,"duration":1.4343750000000002},{"name":"G4","midi":67,"time":5.9984375,"velocity":0.6850393700787402,"duration":0.6671874999999998},{"name":"D#3","midi":51,"time":6,"velocity":0.5669291338582677,"duration":0.3015625000000002},{"name":"G3","midi":55,"time":6,"velocity":0.5511811023622047,"duration":0.6593749999999998},{"name":"D#4","midi":63,"time":6,"velocity":0.6614173228346457,"duration":1.6125000000000007},{"name":"A#4","midi":70,"time":6,"velocity":0.6850393700787402,"duration":0.65625},{"name":"D#3","midi":51,"time":6.375,"velocity":0.33858267716535434,"duration":0.3312499999999998},{"name":"D#3","midi":51,"time":6.75,"velocity":0.5511811023622047,"duration":0.9625000000000021},{"name":"F3","midi":53,"time":6.75,"velocity":0.3779527559055118,"duration":0.42343750000000036},{"name":"D#4","midi":63,"time":6.75,"velocity":0.6850393700787402,"duration":1.0406250000000021},{"name":"G4","midi":67,"time":6.75,"velocity":0.6850393700787402,"duration":0.5140625000000005},{"name":"A#4","midi":70,"time":6.7515625,"velocity":0.6456692913385826,"duration":0.4953124999999998},{"name":"G3","midi":55,"time":7.125,"velocity":0.5984251968503937,"duration":0.700000000000002},{"name":"A#4","midi":70,"time":7.312500000000001,"velocity":0.6299212598425197,"duration":0.3171875000000002},{"name":"D#4","midi":63,"time":7.312500000000001,"velocity":0.5196850393700787,"duration":0.47812500000000124},{"name":"G4","midi":67,"time":7.312500000000001,"velocity":0.6614173228346457,"duration":0.32656250000000053},{"name":"A#4","midi":70,"time":7.685937500000001,"velocity":0.47244094488188976,"duration":0.1828125000000007},{"name":"D#4","midi":63,"time":7.687500000000002,"velocity":0.47244094488188976,"duration":0.1828125000000007},{"name":"G4","midi":67,"time":7.687500000000002,"velocity":0.47244094488188976,"duration":0.1828125000000007},{"name":"G4","midi":67,"time":7.871875000000003,"velocity":0.7322834645669292,"duration":0.5593750000000011},{"name":"A#4","midi":70,"time":7.873437500000003,"velocity":0.7322834645669292,"duration":0.5578125000000007},{"name":"D#3","midi":51,"time":7.8750000000000036,"velocity":0.4330708661417323,"duration":0.3515625},{"name":"F3","midi":53,"time":7.8750000000000036,"velocity":0.5196850393700787,"duration":0.31093749999999964},{"name":"D#4","midi":63,"time":7.8750000000000036,"velocity":0.6299212598425197,"duration":0.5546875},{"name":"G3","midi":55,"time":7.8750000000000036,"velocity":0.7795275590551181,"duration":0.36875000000000036},{"name":"G3","midi":55,"time":7.8750000000000036,"velocity":0.7795275590551181,"duration":0.36875000000000036},{"name":"D#3","midi":51,"time":8.250000000000004,"velocity":0.5196850393700787,"duration":0.3015624999999993},{"name":"G3","midi":55,"time":8.250000000000004,"velocity":0.5826771653543307,"duration":0.7046875000000004},{"name":"D#4","midi":63,"time":8.250000000000004,"velocity":0.8267716535433071,"duration":0.1796875},{"name":"D#4","midi":63,"time":8.250000000000004,"velocity":0.8267716535433071,"duration":0.1796875},{"name":"G4","midi":67,"time":8.437500000000004,"velocity":0.6614173228346457,"duration":0.18124999999999858},{"name":"D#4","midi":63,"time":8.437500000000004,"velocity":0.5039370078740157,"duration":0.1843749999999993},{"name":"A#4","midi":70,"time":8.437500000000004,"velocity":0.5669291338582677,"duration":0.18124999999999858},{"name":"D4","midi":62,"time":8.437500000000004,"velocity":0.7795275590551181,"duration":0.296875},{"name":"D4","midi":62,"time":8.437500000000004,"velocity":0.7795275590551181,"duration":0.296875},{"name":"D#4","midi":63,"time":8.623437500000003,"velocity":0.5984251968503937,"duration":0.1828125000000007},{"name":"D#3","midi":51,"time":8.625000000000004,"velocity":0.5354330708661418,"duration":0.4093750000000007},{"name":"G4","midi":67,"time":8.625000000000004,"velocity":0.5826771653543307,"duration":0.1828125000000007},{"name":"A#4","midi":70,"time":8.625000000000004,"velocity":0.7007874015748031,"duration":0.1828125000000007},{"name":"A#4","midi":70,"time":8.810937500000005,"velocity":0.47244094488188976,"duration":0.1843749999999993},{"name":"D#4","midi":63,"time":8.812500000000005,"velocity":0.47244094488188976,"duration":0.1296874999999993},{"name":"G4","midi":67,"time":8.812500000000005,"velocity":0.47244094488188976,"duration":0.17499999999999893},{"name":"D#4","midi":63,"time":8.812500000000005,"velocity":0.8031496062992126,"duration":0.5218749999999996},{"name":"D#4","midi":63,"time":8.812500000000005,"velocity":0.8031496062992126,"duration":0.5218749999999996},{"name":"A#2","midi":46,"time":9.000000000000004,"velocity":0.5039370078740157,"duration":0.2609375000000007},{"name":"D3","midi":50,"time":9.000000000000004,"velocity":0.5826771653543307,"duration":0.7218750000000007},{"name":"F4","midi":65,"time":9.000000000000004,"velocity":0.6850393700787402,"duration":0.6500000000000021},{"name":"A#4","midi":70,"time":9.000000000000004,"velocity":0.6614173228346457,"duration":0.6562500000000018},{"name":"D4","midi":62,"time":9.001562500000004,"velocity":0.6614173228346457,"duration":0.6531250000000011},{"name":"A#2","midi":46,"time":9.375000000000005,"velocity":0.5039370078740157,"duration":0.3015624999999993},{"name":"F4","midi":65,"time":9.375000000000005,"velocity":0.8031496062992126,"duration":0.8640625000000011},{"name":"F4","midi":65,"time":9.375000000000005,"velocity":0.8031496062992126,"duration":1.2484375000000014},{"name":"A#4","midi":70,"time":9.746875000000005,"velocity":0.7086614173228346,"duration":0.4843750000000018},{"name":"A#2","midi":46,"time":9.750000000000005,"velocity":0.48031496062992124,"duration":0.2953125000000014},{"name":"C3","midi":48,"time":9.750000000000005,"velocity":0.5039370078740157,"duration":0.2921875000000007},{"name":"F4","midi":65,"time":9.751562500000006,"velocity":0.6850393700787402,"duration":1.0312500000000018},{"name":"D4","midi":62,"time":9.751562500000006,"velocity":0.6850393700787402,"duration":0.49375000000000036},{"name":"A#2","midi":46,"time":10.125000000000007,"velocity":0.4566929133858268,"duration":0.5859375},{"name":"D3","midi":50,"time":10.125000000000007,"velocity":0.5984251968503937,"duration":0.7109375},{"name":"F4","midi":65,"time":10.312500000000005,"velocity":0.5984251968503937,"duration":0.5812500000000025},{"name":"D4","midi":62,"time":10.312500000000005,"velocity":0.6850393700787402,"duration":0.46250000000000213},{"name":"A#4","midi":70,"time":10.312500000000005,"velocity":0.6850393700787402,"duration":0.3078125000000007},{"name":"F4","midi":65,"time":10.687500000000007,"velocity":0.4015748031496063,"duration":0.2062500000000007},{"name":"A#4","midi":70,"time":10.687500000000007,"velocity":0.5039370078740157,"duration":0.078125},{"name":"D4","midi":62,"time":10.871875000000006,"velocity":0.6850393700787402,"duration":0.5578125000000025},{"name":"A#2","midi":46,"time":10.875000000000007,"velocity":0.3700787401574803,"duration":0.28125},{"name":"C3","midi":48,"time":10.875000000000007,"velocity":0.48031496062992124,"duration":0.3718749999999993},{"name":"F4","midi":65,"time":10.875000000000007,"velocity":0.6299212598425197,"duration":0.5531250000000014},{"name":"A#4","midi":70,"time":10.875000000000007,"velocity":0.6850393700787402,"duration":0.5578125000000025},{"name":"D#4","midi":63,"time":10.875000000000007,"velocity":0.7795275590551181,"duration":0.4093750000000007},{"name":"D#4","midi":63,"time":10.875000000000007,"velocity":0.7795275590551181,"duration":0.4093750000000007},{"name":"A#2","midi":46,"time":11.250000000000007,"velocity":0.5354330708661418,"duration":0.27031250000000107},{"name":"D3","midi":50,"time":11.250000000000007,"velocity":0.5984251968503937,"duration":0.4296875},{"name":"D4","midi":62,"time":11.250000000000007,"velocity":0.6614173228346457,"duration":0.3703125000000007},{"name":"D4","midi":62,"time":11.250000000000007,"velocity":0.6614173228346457,"duration":0.40625},{"name":"D4","midi":62,"time":11.437500000000009,"velocity":0.4566929133858268,"duration":0.21874999999999822},{"name":"F4","midi":65,"time":11.437500000000009,"velocity":0.48031496062992124,"duration":0.18124999999999858},{"name":"A#4","midi":70,"time":11.437500000000009,"velocity":0.5039370078740157,"duration":0.18281249999999893},{"name":"A#2","midi":46,"time":11.625000000000007,"velocity":0.5511811023622047,"duration":0.34531250000000036},{"name":"A#2","midi":46,"time":11.625000000000007,"velocity":0.5826771653543307,"duration":0.359375},{"name":"D4","midi":62,"time":11.625000000000007,"velocity":0.6456692913385826,"duration":0.1828125000000007},{"name":"F4","midi":65,"time":11.625000000000007,"velocity":0.5511811023622047,"duration":0.1828125000000007},{"name":"A#4","midi":70,"time":11.625000000000007,"velocity":0.6850393700787402,"duration":0.18125000000000036},{"name":"D#4","midi":63,"time":11.625000000000007,"velocity":0.8267716535433071,"duration":1.123437499999996},{"name":"D#4","midi":63,"time":11.625000000000007,"velocity":0.8267716535433071,"duration":1.9203124999999979},{"name":"F4","midi":65,"time":11.812500000000007,"velocity":0.5669291338582677,"duration":0.11875000000000036},{"name":"A#4","midi":70,"time":11.812500000000007,"velocity":0.6141732283464567,"duration":0.11562499999999964},{"name":"D4","midi":62,"time":11.812500000000007,"velocity":0.5196850393700787,"duration":0.1015625},{"name":"C3","midi":48,"time":12.000000000000007,"velocity":0.5826771653543307,"duration":0.3359375},{"name":"G3","midi":55,"time":12.000000000000007,"velocity":0.5984251968503937,"duration":0.33750000000000036},{"name":"C4","midi":60,"time":12.000000000000007,"velocity":0.5984251968503937,"duration":0.6718749999999982},{"name":"A#4","midi":70,"time":12.000000000000007,"velocity":0.7086614173228346,"duration":0.5749999999999993},{"name":"D#4","midi":63,"time":12.001562500000007,"velocity":0.6456692913385826,"duration":1.5437499999999975},{"name":"C3","midi":48,"time":12.375000000000007,"velocity":0.6141732283464567,"duration":0.3093749999999975},{"name":"G3","midi":55,"time":12.375000000000007,"velocity":0.5039370078740157,"duration":0.4203124999999961},{"name":"C4","midi":60,"time":12.748437500000003,"velocity":0.6299212598425197,"duration":0.49843749999999964},{"name":"C3","midi":48,"time":12.750000000000004,"velocity":0.5984251968503937,"duration":1.0250000000000004},{"name":"F3","midi":53,"time":12.750000000000004,"velocity":0.6614173228346457,"duration":0.4109374999999993},{"name":"A#4","midi":70,"time":12.750000000000004,"velocity":0.7086614173228346,"duration":0.47499999999999964},{"name":"D#4","midi":63,"time":12.750000000000004,"velocity":0.5669291338582677,"duration":0.8546875000000007},{"name":"G3","midi":55,"time":13.125000000000004,"velocity":0.6614173228346457,"duration":0.7546875000000028},{"name":"A#4","midi":70,"time":13.312500000000004,"velocity":0.6850393700787402,"duration":0.45937499999999964},{"name":"C4","midi":60,"time":13.312500000000004,"velocity":0.6299212598425197,"duration":0.4499999999999993},{"name":"D#4","midi":63,"time":13.687500000000004,"velocity":0.48031496062992124,"duration":0.09062500000000107},{"name":"C3","midi":48,"time":13.875000000000005,"velocity":0.6299212598425197,"duration":0.670312500000005},{"name":"F3","midi":53,"time":13.875000000000005,"velocity":0.5984251968503937,"duration":0.3656250000000014},{"name":"D#4","midi":63,"time":13.875000000000005,"velocity":0.6614173228346457,"duration":0.5109375000000025},{"name":"C4","midi":60,"time":13.875000000000005,"velocity":0.7086614173228346,"duration":0.5000000000000018},{"name":"G3","midi":55,"time":13.875000000000005,"velocity":0.8503937007874016,"duration":0.776562500000006},{"name":"G3","midi":55,"time":13.875000000000005,"velocity":0.8503937007874016,"duration":0.8031250000000068},{"name":"A#4","midi":70,"time":13.876562500000006,"velocity":0.7086614173228346,"duration":0.5500000000000025},{"name":"G3","midi":55,"time":14.250000000000007,"velocity":0.6614173228346457,"duration":0.428125000000005},{"name":"A#4","midi":70,"time":14.437500000000009,"velocity":0.44881889763779526,"duration":0.17968750000000178},{"name":"C4","midi":60,"time":14.437500000000009,"velocity":0.5039370078740157,"duration":0.17968750000000178},{"name":"D#4","midi":63,"time":14.437500000000009,"velocity":0.4645669291338583,"duration":0.17968750000000178},{"name":"C3","midi":48,"time":14.62500000000001,"velocity":0.5511811023622047,"duration":0.3984375000000018},{"name":"G#3","midi":56,"time":14.62500000000001,"velocity":0.5984251968503937,"duration":1.0765625000000014},{"name":"C4","midi":60,"time":14.62500000000001,"velocity":0.3937007874015748,"duration":0.17968750000000178},{"name":"D#4","midi":63,"time":14.62500000000001,"velocity":0.5196850393700787,"duration":0.17968750000000178},{"name":"A#4","midi":70,"time":14.62500000000001,"velocity":0.5354330708661418,"duration":0.17968750000000178},{"name":"G#3","midi":56,"time":14.62500000000001,"velocity":0.8267716535433071,"duration":2.1374999999999957},{"name":"G#3","midi":56,"time":14.62500000000001,"velocity":0.8267716535433071,"duration":2.1374999999999957},{"name":"C4","midi":60,"time":14.812500000000012,"velocity":0.36220472440944884,"duration":0.10624999999999929},{"name":"A#4","midi":70,"time":14.812500000000012,"velocity":0.29133858267716534,"duration":0.08437499999999964},{"name":"D#4","midi":63,"time":14.812500000000012,"velocity":0.3464566929133858,"duration":0.10781249999999964},{"name":"C4","midi":60,"time":14.998437500000012,"velocity":0.7559055118110236,"duration":0.6640625},{"name":"A#4","midi":70,"time":14.998437500000012,"velocity":0.7795275590551181,"duration":0.6421875000000004},{"name":"D#3","midi":51,"time":15.000000000000012,"velocity":0.5039370078740157,"duration":1.0046874999999975},{"name":"D#4","midi":63,"time":15.000000000000012,"velocity":0.7086614173228346,"duration":0.6906249999999989},{"name":"A#4","midi":70,"time":15.748437500000012,"velocity":0.7559055118110236,"duration":0.524999999999995},{"name":"D#4","midi":63,"time":15.748437500000012,"velocity":0.6614173228346457,"duration":0.5218749999999979},{"name":"G3","midi":55,"time":15.750000000000012,"velocity":0.48031496062992124,"duration":0.4453124999999982},{"name":"C4","midi":60,"time":15.750000000000012,"velocity":0.5511811023622047,"duration":0.5218749999999961},{"name":"D#3","midi":51,"time":16.12500000000001,"velocity":0.48031496062992124,"duration":1.0499999999999936},{"name":"G#3","midi":56,"time":16.12500000000001,"velocity":0.4881889763779528,"duration":0.7015624999999979},{"name":"A#4","midi":70,"time":16.31093750000001,"velocity":0.6614173228346457,"duration":0.4656249999999993},{"name":"C4","midi":60,"time":16.312500000000007,"velocity":0.6614173228346457,"duration":0.3000000000000007},{"name":"D#4","midi":63,"time":16.312500000000007,"velocity":0.6614173228346457,"duration":0.2953125000000014},{"name":"C4","midi":60,"time":16.687500000000007,"velocity":0.36220472440944884,"duration":0.08281249999999929},{"name":"D#4","midi":63,"time":16.687500000000007,"velocity":0.23622047244094488,"duration":0.0546875},{"name":"G3","midi":55,"time":16.875000000000007,"velocity":0.5354330708661418,"duration":0.35624999999999574},{"name":"C4","midi":60,"time":16.875000000000007,"velocity":0.6299212598425197,"duration":0.47343749999999574},{"name":"A#4","midi":70,"time":16.875000000000007,"velocity":0.7086614173228346,"duration":0.5578124999999936},{"name":"G3","midi":55,"time":16.875000000000007,"velocity":0.8267716535433071,"duration":0.35624999999999574},{"name":"G3","midi":55,"time":16.875000000000007,"velocity":0.8267716535433071,"duration":0.45312499999999645},{"name":"D#4","midi":63,"time":16.876562500000006,"velocity":0.6299212598425197,"duration":0.5124999999999957},{"name":"D#3","midi":51,"time":17.250000000000004,"velocity":0.4566929133858268,"duration":0.7656249999999964},{"name":"G#3","midi":56,"time":17.250000000000004,"velocity":0.5669291338582677,"duration":0.41874999999999574},{"name":"D#4","midi":63,"time":17.250000000000004,"velocity":0.8267716535433071,"duration":0.17812499999999787},{"name":"D#4","midi":63,"time":17.250000000000004,"velocity":0.8267716535433071,"duration":0.17812499999999787},{"name":"D#4","midi":63,"time":17.4375,"velocity":0.3858267716535433,"duration":0.1828125000000007},{"name":"C4","midi":60,"time":17.4375,"velocity":0.4015748031496063,"duration":0.1828125000000007},{"name":"A#4","midi":70,"time":17.4375,"velocity":0.4094488188976378,"duration":0.1828125000000007},{"name":"D4","midi":62,"time":17.4375,"velocity":0.7795275590551181,"duration":0.3156250000000007},{"name":"D4","midi":62,"time":17.4375,"velocity":0.7795275590551181,"duration":0.3156250000000007},{"name":"G3","midi":55,"time":17.625,"velocity":0.4566929133858268,"duration":0.3359375},{"name":"A#4","midi":70,"time":17.625,"velocity":0.7086614173228346,"duration":0.2890625},{"name":"C4","midi":60,"time":17.625,"velocity":0.6614173228346457,"duration":0.15781250000000213},{"name":"D#4","midi":63,"time":17.625,"velocity":0.6614173228346457,"duration":0.1593750000000007},{"name":"D#4","midi":63,"time":17.8125,"velocity":0.5196850393700787,"duration":0.10468750000000071},{"name":"C4","midi":60,"time":17.8125,"velocity":0.2992125984251969,"duration":0.10468750000000071},{"name":"D#4","midi":63,"time":17.8125,"velocity":0.8503937007874016,"duration":0.9328125000000007},{"name":"D#4","midi":63,"time":17.8125,"velocity":0.8503937007874016,"duration":1.500000000000007},{"name":"G4","midi":67,"time":17.9984375,"velocity":0.6850393700787402,"duration":0.6906250000000007},{"name":"D#3","midi":51,"time":18,"velocity":0.5669291338582677,"duration":0.3015624999999993},{"name":"G3","midi":55,"time":18,"velocity":0.5511811023622047,"duration":0.6593750000000007},{"name":"D#4","midi":63,"time":18,"velocity":0.6614173228346457,"duration":1.68437500000001},{"name":"A#4","midi":70,"time":18,"velocity":0.6850393700787402,"duration":0.7484375000000014},{"name":"G4","midi":67,"time":18.375,"velocity":0.8031496062992126,"duration":0.3656250000000014},{"name":"D#3","midi":51,"time":18.375,"velocity":0.33858267716535434,"duration":0.3312500000000007},{"name":"A#4","midi":70,"time":18.75,"velocity":0.8031496062992126,"duration":0.2296875000000007},{"name":"D#3","midi":51,"time":18.75,"velocity":0.5511811023622047,"duration":0.9625000000000057},{"name":"F3","midi":53,"time":18.75,"velocity":0.3779527559055118,"duration":0.4234375000000057},{"name":"D#4","midi":63,"time":18.75,"velocity":0.6850393700787402,"duration":0.9578125000000064},{"name":"G4","midi":67,"time":18.75,"velocity":0.6850393700787402,"duration":0.404687500000005},{"name":"A#4","midi":70,"time":18.7515625,"velocity":0.6456692913385826,"duration":0.5578125000000078},{"name":"G4","midi":67,"time":18.9375,"velocity":0.7795275590551181,"duration":0.365625000000005},{"name":"G3","midi":55,"time":19.125000000000004,"velocity":0.5984251968503937,"duration":0.7000000000000028},{"name":"A#4","midi":70,"time":19.312500000000007,"velocity":0.8267716535433071,"duration":0.20937500000000142},{"name":"A#4","midi":70,"time":19.312500000000007,"velocity":0.6299212598425197,"duration":0.36875000000000213},{"name":"D#4","midi":63,"time":19.312500000000007,"velocity":0.5196850393700787,"duration":0.4781249999999986},{"name":"G4","midi":67,"time":19.312500000000007,"velocity":0.6614173228346457,"duration":0.36875000000000213},{"name":"D#4","midi":63,"time":19.500000000000007,"velocity":0.7086614173228346,"duration":0.2906249999999986},{"name":"A#4","midi":70,"time":19.68593750000001,"velocity":0.47244094488188976,"duration":0.18281249999999716},{"name":"D#4","midi":63,"time":19.687500000000007,"velocity":0.6456692913385826,"duration":0.18281249999999716},{"name":"D#4","midi":63,"time":19.687500000000007,"velocity":0.47244094488188976,"duration":0.3046874999999929},{"name":"G4","midi":67,"time":19.687500000000007,"velocity":0.47244094488188976,"duration":0.18281249999999716},{"name":"G4","midi":67,"time":19.871875000000003,"velocity":0.7322834645669292,"duration":0.5593749999999957},{"name":"A#4","midi":70,"time":19.8734375,"velocity":0.7322834645669292,"duration":0.5578124999999972},{"name":"D#3","midi":51,"time":19.875,"velocity":0.4330708661417323,"duration":0.3515625},{"name":"F3","midi":53,"time":19.875,"velocity":0.5196850393700787,"duration":0.3109375000000014},{"name":"D#4","midi":63,"time":19.875,"velocity":0.6299212598425197,"duration":0.5546875},{"name":"G3","midi":55,"time":19.875,"velocity":0.7795275590551181,"duration":0.3687499999999986},{"name":"G3","midi":55,"time":19.875,"velocity":0.7795275590551181,"duration":0.3687499999999986},{"name":"D#3","midi":51,"time":20.25,"velocity":0.5196850393700787,"duration":0.3015624999999993},{"name":"G3","midi":55,"time":20.25,"velocity":0.5826771653543307,"duration":0.7046874999999915},{"name":"D#4","midi":63,"time":20.25,"velocity":0.8267716535433071,"duration":0.1796875},{"name":"D#4","midi":63,"time":20.25,"velocity":0.8267716535433071,"duration":0.1796875},{"name":"G4","midi":67,"time":20.4375,"velocity":0.6614173228346457,"duration":0.18124999999999858},{"name":"D#4","midi":63,"time":20.4375,"velocity":0.5039370078740157,"duration":0.1843749999999993},{"name":"A#4","midi":70,"time":20.4375,"velocity":0.5669291338582677,"duration":0.18124999999999858},{"name":"D4","midi":62,"time":20.4375,"velocity":0.7795275590551181,"duration":0.29687499999999645},{"name":"D4","midi":62,"time":20.4375,"velocity":0.7795275590551181,"duration":0.29687499999999645},{"name":"D#4","midi":63,"time":20.623437499999998,"velocity":0.5984251968503937,"duration":0.18281249999999716},{"name":"D#3","midi":51,"time":20.624999999999996,"velocity":0.5354330708661418,"duration":0.40937499999999005},{"name":"G4","midi":67,"time":20.624999999999996,"velocity":0.5826771653543307,"duration":0.18281249999999716},{"name":"A#4","midi":70,"time":20.624999999999996,"velocity":0.7007874015748031,"duration":0.18281249999999716},{"name":"A#4","midi":70,"time":20.810937499999994,"velocity":0.47244094488188976,"duration":0.18437499999999574},{"name":"D#4","midi":63,"time":20.812499999999993,"velocity":0.47244094488188976,"duration":0.1296874999999993},{"name":"G4","midi":67,"time":20.812499999999993,"velocity":0.47244094488188976,"duration":0.17499999999999716},{"name":"D#4","midi":63,"time":20.812499999999993,"velocity":0.8031496062992126,"duration":0.5218749999999943},{"name":"D#4","midi":63,"time":20.812499999999993,"velocity":0.8031496062992126,"duration":0.5218749999999943},{"name":"A#2","midi":46,"time":20.99999999999999,"velocity":0.5039370078740157,"duration":0.26093749999999716},{"name":"D3","midi":50,"time":20.99999999999999,"velocity":0.5826771653543307,"duration":0.7218749999999936},{"name":"F4","midi":65,"time":20.99999999999999,"velocity":0.6850393700787402,"duration":0.649999999999995},{"name":"A#4","midi":70,"time":20.99999999999999,"velocity":0.6614173228346457,"duration":0.6562499999999929},{"name":"D4","midi":62,"time":21.001562499999988,"velocity":0.6614173228346457,"duration":0.6531249999999957},{"name":"A#2","midi":46,"time":21.374999999999986,"velocity":0.5039370078740157,"duration":0.30156249999999574},{"name":"F4","midi":65,"time":21.374999999999986,"velocity":0.8031496062992126,"duration":0.8640624999999922},{"name":"F4","midi":65,"time":21.374999999999986,"velocity":0.8031496062992126,"duration":1.2484374999999943},{"name":"A#4","midi":70,"time":21.74687499999998,"velocity":0.7086614173228346,"duration":0.48437499999999645},{"name":"A#2","midi":46,"time":21.749999999999982,"velocity":0.48031496062992124,"duration":0.29531249999999787},{"name":"C3","midi":48,"time":21.749999999999982,"velocity":0.5039370078740157,"duration":0.29218749999999716},{"name":"F4","midi":65,"time":21.75156249999998,"velocity":0.6850393700787402,"duration":1.0312499999999964},{"name":"D4","midi":62,"time":21.75156249999998,"velocity":0.6850393700787402,"duration":0.4937499999999986},{"name":"A#2","midi":46,"time":22.12499999999998,"velocity":0.4566929133858268,"duration":0.5859375},{"name":"D3","midi":50,"time":22.12499999999998,"velocity":0.5984251968503937,"duration":0.7109375},{"name":"F4","midi":65,"time":22.31249999999998,"velocity":0.5984251968503937,"duration":0.5812500000000007},{"name":"D4","midi":62,"time":22.31249999999998,"velocity":0.6850393700787402,"duration":0.4624999999999986},{"name":"A#4","midi":70,"time":22.31249999999998,"velocity":0.6850393700787402,"duration":0.3078125000000007},{"name":"F4","midi":65,"time":22.68749999999998,"velocity":0.4015748031496063,"duration":0.2062500000000007},{"name":"A#4","midi":70,"time":22.68749999999998,"velocity":0.5039370078740157,"duration":0.078125},{"name":"D4","midi":62,"time":22.871874999999978,"velocity":0.6850393700787402,"duration":0.5578125000000007},{"name":"A#2","midi":46,"time":22.87499999999998,"velocity":0.3700787401574803,"duration":0.28125},{"name":"C3","midi":48,"time":22.87499999999998,"velocity":0.48031496062992124,"duration":0.3718749999999993},{"name":"F4","midi":65,"time":22.87499999999998,"velocity":0.6299212598425197,"duration":0.5531250000000014},{"name":"A#4","midi":70,"time":22.87499999999998,"velocity":0.6850393700787402,"duration":0.5578125000000007},{"name":"D#4","midi":63,"time":22.87499999999998,"velocity":0.7795275590551181,"duration":0.4093750000000007},{"name":"D#4","midi":63,"time":22.87499999999998,"velocity":0.7795275590551181,"duration":0.4093750000000007},{"name":"A#2","midi":46,"time":23.24999999999998,"velocity":0.5354330708661418,"duration":0.2703124999999993},{"name":"D3","midi":50,"time":23.24999999999998,"velocity":0.5984251968503937,"duration":0.42968749999999645},{"name":"D4","midi":62,"time":23.24999999999998,"velocity":0.6614173228346457,"duration":0.37031249999999716},{"name":"D4","midi":62,"time":23.24999999999998,"velocity":0.6614173228346457,"duration":0.40624999999999645},{"name":"D4","midi":62,"time":23.43749999999998,"velocity":0.4566929133858268,"duration":0.21874999999999645},{"name":"F4","midi":65,"time":23.43749999999998,"velocity":0.48031496062992124,"duration":0.18124999999999858},{"name":"A#4","midi":70,"time":23.43749999999998,"velocity":0.5039370078740157,"duration":0.18281249999999716},{"name":"A#2","midi":46,"time":23.624999999999975,"velocity":0.5511811023622047,"duration":0.3453124999999986},{"name":"A#2","midi":46,"time":23.624999999999975,"velocity":0.5826771653543307,"duration":0.359375},{"name":"D4","midi":62,"time":23.624999999999975,"velocity":0.6456692913385826,"duration":0.18281249999999716},{"name":"F4","midi":65,"time":23.624999999999975,"velocity":0.5511811023622047,"duration":0.18281249999999716},{"name":"A#4","midi":70,"time":23.624999999999975,"velocity":0.6850393700787402,"duration":0.18124999999999858},{"name":"D#4","midi":63,"time":23.624999999999975,"velocity":0.8267716535433071,"duration":1.1234374999999979},{"name":"D#4","midi":63,"time":23.624999999999975,"velocity":0.8267716535433071,"duration":1.9203124999999979},{"name":"F4","midi":65,"time":23.81249999999997,"velocity":0.5669291338582677,"duration":0.11875000000000213},{"name":"A#4","midi":70,"time":23.81249999999997,"velocity":0.6141732283464567,"duration":0.11562500000000142},{"name":"D4","midi":62,"time":23.81249999999997,"velocity":0.5196850393700787,"duration":0.1015625},{"name":"C3","midi":48,"time":23.999999999999975,"velocity":0.5826771653543307,"duration":0.3359375},{"name":"G3","midi":55,"time":23.999999999999975,"velocity":0.5984251968503937,"duration":0.3374999999999986},{"name":"C4","midi":60,"time":23.999999999999975,"velocity":0.5984251968503937,"duration":0.671875},{"name":"A#4","midi":70,"time":23.999999999999975,"velocity":0.7086614173228346,"duration":0.5749999999999993},{"name":"D#4","midi":63,"time":24.001562499999974,"velocity":0.6456692913385826,"duration":1.5437499999999993},{"name":"C3","midi":48,"time":24.374999999999975,"velocity":0.6141732283464567,"duration":0.3093749999999993},{"name":"G3","midi":55,"time":24.374999999999975,"velocity":0.5039370078740157,"duration":0.42031249999999787},{"name":"C4","midi":60,"time":24.748437499999973,"velocity":0.6299212598425197,"duration":0.49843749999999787},{"name":"C3","midi":48,"time":24.74999999999997,"velocity":0.5984251968503937,"duration":1.0249999999999986},{"name":"F3","midi":53,"time":24.74999999999997,"velocity":0.6614173228346457,"duration":0.4109374999999993},{"name":"A#4","midi":70,"time":24.74999999999997,"velocity":0.7086614173228346,"duration":0.47499999999999787},{"name":"D#4","midi":63,"time":24.74999999999997,"velocity":0.5669291338582677,"duration":0.8546875000000007},{"name":"G3","midi":55,"time":25.12499999999997,"velocity":0.6614173228346457,"duration":0.7546874999999993},{"name":"A#4","midi":70,"time":25.31249999999997,"velocity":0.6850393700787402,"duration":0.45937499999999787},{"name":"C4","midi":60,"time":25.31249999999997,"velocity":0.6299212598425197,"duration":0.4499999999999993},{"name":"D#4","midi":63,"time":25.68749999999997,"velocity":0.48031496062992124,"duration":0.09062499999999929},{"name":"C3","midi":48,"time":25.87499999999997,"velocity":0.6299212598425197,"duration":0.6703124999999979},{"name":"F3","midi":53,"time":25.87499999999997,"velocity":0.5984251968503937,"duration":0.36562499999999787},{"name":"D#4","midi":63,"time":25.87499999999997,"velocity":0.6614173228346457,"duration":0.5109374999999972},{"name":"C4","midi":60,"time":25.87499999999997,"velocity":0.7086614173228346,"duration":0.49999999999999645},{"name":"G3","midi":55,"time":25.87499999999997,"velocity":0.8503937007874016,"duration":0.7765624999999936},{"name":"G3","midi":55,"time":25.87499999999997,"velocity":0.8503937007874016,"duration":0.8031249999999943},{"name":"A#4","midi":70,"time":25.87656249999997,"velocity":0.7086614173228346,"duration":0.5562499999999986},{"name":"G3","midi":55,"time":26.249999999999968,"velocity":0.6614173228346457,"duration":0.42812499999999787},{"name":"A#4","midi":70,"time":26.437499999999968,"velocity":0.44881889763779526,"duration":0.1828125000000007},{"name":"C4","midi":60,"time":26.437499999999968,"velocity":0.5039370078740157,"duration":0.1828125000000007},{"name":"D#4","midi":63,"time":26.437499999999968,"velocity":0.4645669291338583,"duration":0.1828125000000007},{"name":"C3","midi":48,"time":26.624999999999968,"velocity":0.5511811023622047,"duration":0.39843749999999645},{"name":"G#3","midi":56,"time":26.624999999999968,"velocity":0.5984251968503937,"duration":1.0765624999999979},{"name":"C4","midi":60,"time":26.624999999999968,"velocity":0.3937007874015748,"duration":0.18281249999999716},{"name":"D#4","midi":63,"time":26.624999999999968,"velocity":0.5196850393700787,"duration":0.18281249999999716},{"name":"A#4","midi":70,"time":26.624999999999968,"velocity":0.5354330708661418,"duration":0.18281249999999716},{"name":"G#3","midi":56,"time":26.624999999999968,"velocity":0.8267716535433071,"duration":2.2015624999999943},{"name":"G#3","midi":56,"time":26.624999999999968,"velocity":0.8267716535433071,"duration":2.5859374999999893},{"name":"C4","midi":60,"time":26.812499999999964,"velocity":0.36220472440944884,"duration":0.10625000000000284},{"name":"A#4","midi":70,"time":26.812499999999964,"velocity":0.29133858267716534,"duration":0.08437500000000142},{"name":"D#4","midi":63,"time":26.812499999999964,"velocity":0.3464566929133858,"duration":0.10781250000000142},{"name":"C4","midi":60,"time":26.998437499999966,"velocity":0.7559055118110236,"duration":0.6640625},{"name":"A#4","midi":70,"time":26.998437499999966,"velocity":0.7795275590551181,"duration":0.6421874999999986},{"name":"D#3","midi":51,"time":26.999999999999964,"velocity":0.5039370078740157,"duration":1.0046874999999993},{"name":"D#4","midi":63,"time":26.999999999999964,"velocity":0.7086614173228346,"duration":0.6906250000000007},{"name":"A#4","midi":70,"time":27.748437499999966,"velocity":0.7559055118110236,"duration":0.524999999999995},{"name":"D#4","midi":63,"time":27.748437499999966,"velocity":0.6614173228346457,"duration":0.5218749999999979},{"name":"G3","midi":55,"time":27.749999999999964,"velocity":0.48031496062992124,"duration":0.4453125},{"name":"C4","midi":60,"time":27.749999999999964,"velocity":0.5511811023622047,"duration":0.5218749999999979},{"name":"D#3","midi":51,"time":28.124999999999964,"velocity":0.48031496062992124,"duration":1.0499999999999936},{"name":"G#3","midi":56,"time":28.124999999999964,"velocity":0.4881889763779528,"duration":1.1124999999999936},{"name":"A#4","midi":70,"time":28.310937499999962,"velocity":0.6614173228346457,"duration":0.4656249999999993},{"name":"C4","midi":60,"time":28.31249999999996,"velocity":0.6614173228346457,"duration":0.3000000000000007},{"name":"D#4","midi":63,"time":28.31249999999996,"velocity":0.6614173228346457,"duration":0.2953125000000014},{"name":"C4","midi":60,"time":28.68749999999996,"velocity":0.36220472440944884,"duration":0.08281249999999929},{"name":"D#4","midi":63,"time":28.68749999999996,"velocity":0.23622047244094488,"duration":0.0546875},{"name":"G3","midi":55,"time":28.87499999999996,"velocity":0.5354330708661418,"duration":0.45312499999999645},{"name":"C4","midi":60,"time":28.87499999999996,"velocity":0.6299212598425197,"duration":0.47343749999999574},{"name":"A#4","midi":70,"time":28.87499999999996,"velocity":0.7086614173228346,"duration":0.5578124999999936},{"name":"D#4","midi":63,"time":28.87656249999996,"velocity":0.6299212598425197,"duration":0.5124999999999957},{"name":"D#3","midi":51,"time":29.249999999999957,"velocity":0.4566929133858268,"duration":0.7656249999999929},{"name":"G#3","midi":56,"time":29.249999999999957,"velocity":0.5669291338582677,"duration":0.41874999999999574},{"name":"D#4","midi":63,"time":29.437499999999954,"velocity":0.3858267716535433,"duration":0.1828125000000007},{"name":"C4","midi":60,"time":29.437499999999954,"velocity":0.4015748031496063,"duration":0.1828125000000007},{"name":"A#4","midi":70,"time":29.437499999999954,"velocity":0.4094488188976378,"duration":0.1828125000000007},{"name":"G3","midi":55,"time":29.624999999999954,"velocity":0.4566929133858268,"duration":0.33593749999999645},{"name":"A#4","midi":70,"time":29.624999999999954,"velocity":0.7086614173228346,"duration":0.28906249999999645},{"name":"C4","midi":60,"time":29.624999999999954,"velocity":0.6614173228346457,"duration":0.15781249999999858},{"name":"D#4","midi":63,"time":29.624999999999954,"velocity":0.6614173228346457,"duration":0.15937499999999716},{"name":"D#4","midi":63,"time":29.81249999999995,"velocity":0.5196850393700787,"duration":0.10468750000000071},{"name":"C4","midi":60,"time":29.81249999999995,"velocity":0.2992125984251969,"duration":0.10468750000000071},{"name":"D#2","midi":39,"time":29.99999999999995,"velocity":0.8267716535433071,"duration":1.5828125000000064},{"name":"G3","midi":55,"time":29.99999999999995,"velocity":0.1889763779527559,"duration":0.67656250000001},{"name":"D#3","midi":51,"time":29.99999999999995,"velocity":0.1889763779527559,"duration":2.981250000000017},{"name":"C2","midi":36,"time":29.99999999999995,"velocity":0.8503937007874016,"duration":0.5843750000000121},{"name":"F#2","midi":42,"time":29.99999999999995,"velocity":0.7401574803149606,"duration":0.11562500000000142},{"name":"A#4","midi":70,"time":29.99999999999995,"velocity":0.49606299212598426,"duration":0.13750000000000284},{"name":"A#4","midi":70,"time":29.99999999999995,"velocity":0.6850393700787402,"duration":0.3453125000000057},{"name":"G4","midi":67,"time":29.99999999999995,"velocity":0.7795275590551181,"duration":0.3203125000000071},{"name":"D#5","midi":75,"time":29.99999999999995,"velocity":0.7322834645669292,"duration":0.3437500000000071},{"name":"G3","midi":55,"time":29.99999999999995,"velocity":0.7795275590551181,"duration":0.7375000000000114},{"name":"D#4","midi":63,"time":29.99999999999995,"velocity":0.7322834645669292,"duration":0.7375000000000114},{"name":"A#3","midi":58,"time":29.99999999999995,"velocity":0.7559055118110236,"duration":0.4531250000000071},{"name":"F#2","midi":42,"time":30.187499999999954,"velocity":0.3858267716535433,"duration":0.06875000000000142},{"name":"A4","midi":69,"time":30.187499999999954,"velocity":0.2992125984251969,"duration":0.10625000000000284},{"name":"G4","midi":67,"time":30.374999999999957,"velocity":0.8740157480314961,"duration":0.28125000000000355},{"name":"F#2","midi":42,"time":30.374999999999957,"velocity":0.5905511811023622,"duration":0.11250000000000071},{"name":"A#4","midi":70,"time":30.374999999999957,"velocity":0.4409448818897638,"duration":0.11875000000000213},{"name":"G4","midi":67,"time":30.374999999999957,"velocity":0.4094488188976378,"duration":0.32031250000000355},{"name":"A#4","midi":70,"time":30.374999999999957,"velocity":0.5039370078740157,"duration":0.22968750000000426},{"name":"D#5","midi":75,"time":30.374999999999957,"velocity":0.2283464566929134,"duration":0.06406249999999858},{"name":"A#3","midi":58,"time":30.374999999999957,"velocity":0.29133858267716534,"duration":0.30468750000000355},{"name":"F#2","midi":42,"time":30.56249999999996,"velocity":0.33070866141732286,"duration":0.05156249999999929},{"name":"A4","midi":69,"time":30.56249999999996,"velocity":0.3937007874015748,"duration":0.10312499999999858},{"name":"A#3","midi":58,"time":30.56249999999996,"velocity":0.4566929133858268,"duration":0.1750000000000007},{"name":"G3","midi":55,"time":30.56249999999996,"velocity":0.3937007874015748,"duration":0.7390624999999993},{"name":"A#4","midi":70,"time":30.74999999999996,"velocity":0.8267716535433071,"duration":0.1171875},{"name":"D2","midi":38,"time":30.74999999999996,"velocity":0.8503937007874016,"duration":0.5046875000000028},{"name":"F#2","midi":42,"time":30.74999999999996,"velocity":0.6771653543307087,"duration":0.10312499999999858},{"name":"A#4","midi":70,"time":30.74999999999996,"velocity":0.4015748031496063,"duration":0.23281250000000142},{"name":"G4","midi":67,"time":30.74999999999996,"velocity":0.6850393700787402,"duration":0.5171875000000021},{"name":"A#4","midi":70,"time":30.74999999999996,"velocity":0.6456692913385826,"duration":0.5046875000000028},{"name":"D#5","midi":75,"time":30.74999999999996,"velocity":0.6850393700787402,"duration":0.48750000000000426},{"name":"A#3","midi":58,"time":30.74999999999996,"velocity":0.5984251968503937,"duration":0.5187500000000007},{"name":"G3","midi":55,"time":30.74999999999996,"velocity":0.7086614173228346,"duration":1.1140624999999957},{"name":"D#4","midi":63,"time":30.74999999999996,"velocity":0.6850393700787402,"duration":0.5515624999999993},{"name":"G4","midi":67,"time":30.93749999999996,"velocity":0.7559055118110236,"duration":0.3937500000000007},{"name":"F#2","midi":42,"time":30.93749999999996,"velocity":0.3228346456692913,"duration":0.06093750000000142},{"name":"A4","midi":69,"time":30.93749999999996,"velocity":0.31496062992125984,"duration":0.11875000000000213},{"name":"F#2","midi":42,"time":31.124999999999964,"velocity":0.5905511811023622,"duration":0.10624999999999929},{"name":"A#4","midi":70,"time":31.124999999999964,"velocity":0.41732283464566927,"duration":0.1328125},{"name":"A#3","midi":58,"time":31.124999999999964,"velocity":0.11023622047244094,"duration":0.17656249999999574},{"name":"A#4","midi":70,"time":31.31249999999996,"velocity":0.8267716535433071,"duration":0.29218749999999716},{"name":"F#2","midi":42,"time":31.31249999999996,"velocity":0.4094488188976378,"duration":0.05937499999999929},{"name":"A4","midi":69,"time":31.31249999999996,"velocity":0.33858267716535434,"duration":0.07656249999999787},{"name":"G4","midi":67,"time":31.31249999999996,"velocity":0.6850393700787402,"duration":0.4828124999999943},{"name":"A#4","midi":70,"time":31.31249999999996,"velocity":0.6614173228346457,"duration":0.31093749999999787},{"name":"D#5","midi":75,"time":31.31249999999996,"velocity":0.7086614173228346,"duration":0.28437499999999716},{"name":"D#4","midi":63,"time":31.31249999999996,"velocity":0.7086614173228346,"duration":0.493749999999995},{"name":"G3","midi":55,"time":31.31249999999996,"velocity":0.6299212598425197,"duration":1.1140624999999993},{"name":"A#3","midi":58,"time":31.31249999999996,"velocity":0.7322834645669292,"duration":0.49999999999999645},{"name":"F#2","midi":42,"time":31.499999999999957,"velocity":0.5905511811023622,"duration":0.10312500000000213},{"name":"A#4","midi":70,"time":31.499999999999957,"velocity":0.41732283464566927,"duration":0.13125000000000142},{"name":"D#2","midi":39,"time":31.687499999999957,"velocity":0.6141732283464567,"duration":0.04374999999999929},{"name":"D#4","midi":63,"time":31.687499999999957,"velocity":0.5196850393700787,"duration":0.1765624999999993},{"name":"C2","midi":36,"time":31.687499999999957,"velocity":0.5984251968503937,"duration":0.046875},{"name":"F#2","midi":42,"time":31.687499999999957,"velocity":0.4330708661417323,"duration":0.07656249999999787},{"name":"A4","midi":69,"time":31.687499999999957,"velocity":0.2125984251968504,"duration":0.15625},{"name":"A#4","midi":70,"time":31.687499999999957,"velocity":0.2440944881889764,"duration":0.09062499999999929},{"name":"D#5","midi":75,"time":31.687499999999957,"velocity":0.14960629921259844,"duration":0.05624999999999858},{"name":"A#3","midi":58,"time":31.687499999999957,"velocity":0.25196850393700787,"duration":0.1765624999999993},{"name":"D#2","midi":39,"time":31.874999999999957,"velocity":0.8267716535433071,"duration":1.20000000000001},{"name":"D#4","midi":63,"time":31.874999999999957,"velocity":0.6850393700787402,"duration":0.39375000000000426},{"name":"C2","midi":36,"time":31.874999999999957,"velocity":0.7795275590551181,"duration":0.23906250000000284},{"name":"F#2","midi":42,"time":31.874999999999957,"velocity":0.5354330708661418,"duration":0.08749999999999858},{"name":"A#4","midi":70,"time":31.874999999999957,"velocity":0.4566929133858268,"duration":0.13593749999999716},{"name":"G4","midi":67,"time":31.874999999999957,"velocity":0.6850393700787402,"duration":0.5578125000000043},{"name":"A#4","midi":70,"time":31.874999999999957,"velocity":0.6614173228346457,"duration":0.5203125000000028},{"name":"D#5","midi":75,"time":31.874999999999957,"velocity":0.7795275590551181,"duration":0.5578125000000043},{"name":"D#4","midi":63,"time":31.874999999999957,"velocity":0.7086614173228346,"duration":0.5515625000000028},{"name":"G3","midi":55,"time":31.874999999999957,"velocity":0.6141732283464567,"duration":0.8609375000000057},{"name":"A#3","midi":58,"time":31.874999999999957,"velocity":0.7086614173228346,"duration":0.5515625000000028},{"name":"F#2","midi":42,"time":32.06249999999996,"velocity":0.4330708661417323,"duration":0.056250000000005684},{"name":"A4","midi":69,"time":32.06249999999996,"velocity":0.2125984251968504,"duration":0.12343750000000853},{"name":"D2","midi":38,"time":32.249999999999964,"velocity":0.8740157480314961,"duration":0.5093749999999986},{"name":"F#2","midi":42,"time":32.249999999999964,"velocity":0.6141732283464567,"duration":0.09687499999999716},{"name":"A#4","midi":70,"time":32.249999999999964,"velocity":0.4251968503937008,"duration":0.18281249999999716},{"name":"F#2","midi":42,"time":32.437499999999964,"velocity":0.3779527559055118,"duration":0.06093750000000142},{"name":"A4","midi":69,"time":32.437499999999964,"velocity":0.3228346456692913,"duration":0.12656249999999858},{"name":"A#4","midi":70,"time":32.437499999999964,"velocity":0.5669291338582677,"duration":0.18281249999999716},{"name":"G4","midi":67,"time":32.437499999999964,"velocity":0.5669291338582677,"duration":0.18281249999999716},{"name":"D#5","midi":75,"time":32.437499999999964,"velocity":0.4566929133858268,"duration":0.18281249999999716},{"name":"D#4","midi":63,"time":32.437499999999964,"velocity":0.44881889763779526,"duration":0.4625000000000057},{"name":"G3","midi":55,"time":32.437499999999964,"velocity":0.18110236220472442,"duration":0.44843750000000426},{"name":"A#3","midi":58,"time":32.437499999999964,"velocity":0.29133858267716534,"duration":0.28437499999999716},{"name":"F#2","midi":42,"time":32.624999999999964,"velocity":0.6141732283464567,"duration":0.08906249999999716},{"name":"A#4","midi":70,"time":32.624999999999964,"velocity":0.4015748031496063,"duration":0.14218749999999858},{"name":"G4","midi":67,"time":32.624999999999964,"velocity":0.6850393700787402,"duration":0.18281249999999716},{"name":"A#4","midi":70,"time":32.624999999999964,"velocity":0.6614173228346457,"duration":0.18281249999999716},{"name":"D#5","midi":75,"time":32.624999999999964,"velocity":0.6614173228346457,"duration":0.18281249999999716},{"name":"A#3","midi":58,"time":32.624999999999964,"velocity":0.5039370078740157,"duration":0.2671875000000057},{"name":"G3","midi":55,"time":32.624999999999964,"velocity":0.4645669291338583,"duration":0.36250000000000426},{"name":"D#4","midi":63,"time":32.624999999999964,"velocity":0.4881889763779528,"duration":0.36406250000000284},{"name":"F#2","midi":42,"time":32.812499999999964,"velocity":0.28346456692913385,"duration":0.06093750000000142},{"name":"A4","midi":69,"time":32.812499999999964,"velocity":0.31496062992125984,"duration":0.13750000000000284},{"name":"G4","midi":67,"time":32.812499999999964,"velocity":0.4015748031496063,"duration":0.11093750000000568},{"name":"D#5","midi":75,"time":32.812499999999964,"velocity":0.33858267716535434,"duration":0.07500000000000284},{"name":"G3","midi":55,"time":32.812499999999964,"velocity":0.2992125984251969,"duration":0.17656250000000284},{"name":"A#3","midi":58,"time":32.812499999999964,"velocity":0.2677165354330709,"duration":0.17656250000000284},{"name":"D2","midi":38,"time":32.999999999999964,"velocity":0.8267716535433071,"duration":1.1859375000000156},{"name":"A#3","midi":58,"time":32.999999999999964,"velocity":0.1889763779527559,"duration":0.6500000000000128},{"name":"F3","midi":53,"time":32.999999999999964,"velocity":0.1889763779527559,"duration":0.7375000000000114},{"name":"C2","midi":36,"time":32.999999999999964,"velocity":0.8740157480314961,"duration":0.32656250000001563},{"name":"F#2","midi":42,"time":32.999999999999964,"velocity":0.6141732283464567,"duration":0.08281250000000284},{"name":"A#4","midi":70,"time":32.999999999999964,"velocity":0.3937007874015748,"duration":0.15781250000000568},{"name":"A#4","midi":70,"time":32.999999999999964,"velocity":0.6850393700787402,"duration":0.26875000000001137},{"name":"D#5","midi":75,"time":32.999999999999964,"velocity":0.7086614173228346,"duration":0.7187500000000142},{"name":"F4","midi":65,"time":32.999999999999964,"velocity":0.6614173228346457,"duration":0.6906250000000114},{"name":"A#3","midi":58,"time":32.999999999999964,"velocity":0.7559055118110236,"duration":0.7375000000000114},{"name":"D#4","midi":63,"time":32.999999999999964,"velocity":0.8503937007874016,"duration":0.7375000000000114},{"name":"F3","midi":53,"time":32.999999999999964,"velocity":0.7086614173228346,"duration":1.22343750000001},{"name":"F#2","midi":42,"time":33.18749999999997,"velocity":0.3858267716535433,"duration":0.06718750000000284},{"name":"A4","midi":69,"time":33.18749999999997,"velocity":0.4015748031496063,"duration":0.1250000000000071},{"name":"G4","midi":67,"time":33.37499999999998,"velocity":0.8503937007874016,"duration":0.33906249999999716},{"name":"F#2","midi":42,"time":33.37499999999998,"velocity":0.6141732283464567,"duration":0.09843750000000284},{"name":"A#4","midi":70,"time":33.37499999999998,"velocity":0.4251968503937008,"duration":0.12968750000000284},{"name":"A#4","midi":70,"time":33.37499999999998,"velocity":0.28346456692913385,"duration":0.14531250000000284},{"name":"F#2","midi":42,"time":33.56249999999998,"velocity":0.29133858267716534,"duration":0.05781249999999716},{"name":"A4","midi":69,"time":33.56249999999998,"velocity":0.3464566929133858,"duration":0.11406249999999574},{"name":"A#4","midi":70,"time":33.56249999999998,"velocity":0.15748031496062992,"duration":0.34687499999999716},{"name":"F3","midi":53,"time":33.56249999999998,"velocity":0.3700787401574803,"duration":1.0687500000000085},{"name":"A#3","midi":58,"time":33.56249999999998,"velocity":0.31496062992125984,"duration":1.0281250000000028},{"name":"A#4","midi":70,"time":33.74999999999998,"velocity":0.7086614173228346,"duration":0.21562500000000284},{"name":"D2","midi":38,"time":33.74999999999998,"velocity":0.8976377952755905,"duration":0.47343749999999574},{"name":"F#2","midi":42,"time":33.74999999999998,"velocity":0.5748031496062992,"duration":0.11874999999999858},{"name":"A#4","midi":70,"time":33.74999999999998,"velocity":0.4409448818897638,"duration":0.4859374999999986},{"name":"F4","midi":65,"time":33.74999999999998,"velocity":0.6141732283464567,"duration":0.5031250000000043},{"name":"F5","midi":77,"time":33.74999999999998,"velocity":0.7559055118110236,"duration":0.4984375000000014},{"name":"A#3","midi":58,"time":33.74999999999998,"velocity":0.6614173228346457,"duration":1.03593750000001},{"name":"F4","midi":65,"time":33.74999999999998,"velocity":0.8031496062992126,"duration":1.023437500000007},{"name":"G4","midi":67,"time":33.93749999999998,"velocity":0.6456692913385826,"duration":0.3218750000000057},{"name":"F#2","midi":42,"time":33.93749999999998,"velocity":0.3464566929133858,"duration":0.07343750000000426},{"name":"A4","midi":69,"time":33.93749999999998,"velocity":0.25196850393700787,"duration":0.12343750000000142},{"name":"F#2","midi":42,"time":34.12499999999998,"velocity":0.5511811023622047,"duration":0.09531249999999858},{"name":"A#4","midi":70,"time":34.12499999999998,"velocity":0.41732283464566927,"duration":0.13750000000000284},{"name":"D2","midi":38,"time":34.31249999999998,"velocity":0.7795275590551181,"duration":0.5531250000000085},{"name":"A#4","midi":70,"time":34.31249999999998,"velocity":0.8267716535433071,"duration":0.3187500000000085},{"name":"C2","midi":36,"time":34.31249999999998,"velocity":0.7086614173228346,"duration":0.1875},{"name":"F#2","midi":42,"time":34.31249999999998,"velocity":0.30708661417322836,"duration":0.05624999999999858},{"name":"A4","midi":69,"time":34.31249999999998,"velocity":0.3543307086614173,"duration":0.11093749999999858},{"name":"F4","midi":65,"time":34.31249999999998,"velocity":0.6614173228346457,"duration":0.5453125000000085},{"name":"A#4","midi":70,"time":34.31249999999998,"velocity":0.6299212598425197,"duration":0.7296875000000114},{"name":"D#5","midi":75,"time":34.31249999999998,"velocity":0.8031496062992126,"duration":0.4593750000000085},{"name":"F3","midi":53,"time":34.31249999999998,"velocity":0.6456692913385826,"duration":0.4609375000000071},{"name":"D#4","midi":63,"time":34.31249999999998,"velocity":0.6456692913385826,"duration":1.2500000000000142},{"name":"A#3","midi":58,"time":34.31249999999998,"velocity":0.7086614173228346,"duration":0.5453125000000085},{"name":"F#2","midi":42,"time":34.49999999999998,"velocity":0.5905511811023622,"duration":0.10312500000000568},{"name":"A#4","midi":70,"time":34.49999999999998,"velocity":0.4015748031496063,"duration":0.856250000000017},{"name":"F#2","midi":42,"time":34.687499999999986,"velocity":0.4645669291338583,"duration":0.0703125},{"name":"A4","midi":69,"time":34.687499999999986,"velocity":0.25196850393700787,"duration":0.11406250000000284},{"name":"A#3","midi":58,"time":34.687499999999986,"velocity":0.3543307086614173,"duration":0.8656250000000085},{"name":"F3","midi":53,"time":34.687499999999986,"velocity":0.23622047244094488,"duration":0.8546875000000114},{"name":"D2","midi":38,"time":34.874999999999986,"velocity":0.7795275590551181,"duration":0.6562500000000142},{"name":"C2","midi":36,"time":34.874999999999986,"velocity":0.8503937007874016,"duration":0.2640625000000085},{"name":"F#2","midi":42,"time":34.874999999999986,"velocity":0.5196850393700787,"duration":0.09218750000000142},{"name":"A#4","midi":70,"time":34.874999999999986,"velocity":0.3228346456692913,"duration":0.5265625000000114},{"name":"F4","midi":65,"time":34.874999999999986,"velocity":0.6614173228346457,"duration":0.46562500000000995},{"name":"F5","midi":77,"time":34.874999999999986,"velocity":0.7322834645669292,"duration":0.4906250000000085},{"name":"F3","midi":53,"time":34.874999999999986,"velocity":0.6850393700787402,"duration":0.7375000000000043},{"name":"A#3","midi":58,"time":34.874999999999986,"velocity":0.7322834645669292,"duration":0.7375000000000043},{"name":"F4","midi":65,"time":34.874999999999986,"velocity":0.8267716535433071,"duration":0.7375000000000043},{"name":"F#2","midi":42,"time":35.06249999999999,"velocity":0.4094488188976378,"duration":0.08906250000000426},{"name":"A4","midi":69,"time":35.06249999999999,"velocity":0.3464566929133858,"duration":0.11093750000000568},{"name":"D2","midi":38,"time":35.25,"velocity":0.8740157480314961,"duration":0.8093749999999957},{"name":"F#2","midi":42,"time":35.25,"velocity":0.5905511811023622,"duration":0.07968749999999858},{"name":"A#4","midi":70,"time":35.25,"velocity":0.4015748031496063,"duration":0.24062500000000142},{"name":"F#2","midi":42,"time":35.4375,"velocity":0.4330708661417323,"duration":0.06093750000000142},{"name":"A4","midi":69,"time":35.4375,"velocity":0.25984251968503935,"duration":0.1249999999999929},{"name":"F4","midi":65,"time":35.4375,"velocity":0.4330708661417323,"duration":0.2828124999999915},{"name":"A#4","midi":70,"time":35.4375,"velocity":0.3228346456692913,"duration":0.12656249999999147},{"name":"D#5","midi":75,"time":35.4375,"velocity":0.5669291338582677,"duration":0.44843749999999716},{"name":"A#3","midi":58,"time":35.4375,"velocity":0.4094488188976378,"duration":0.47968749999999716},{"name":"F3","midi":53,"time":35.4375,"velocity":0.25196850393700787,"duration":0.5531249999999943},{"name":"A#2","midi":46,"time":35.62499999999999,"velocity":0.6299212598425197,"duration":0.21562500000000284},{"name":"A#4","midi":70,"time":35.62499999999999,"velocity":0.33858267716535434,"duration":0.13437499999999858},{"name":"A#4","midi":70,"time":35.62499999999999,"velocity":0.4251968503937008,"duration":0.34687500000000426},{"name":"A#3","midi":58,"time":35.62499999999999,"velocity":0.5984251968503937,"duration":0.3656250000000014},{"name":"F3","midi":53,"time":35.62499999999999,"velocity":0.6141732283464567,"duration":0.38750000000000284},{"name":"D#4","midi":63,"time":35.62499999999999,"velocity":0.5826771653543307,"duration":0.3656250000000014},{"name":"A4","midi":69,"time":35.81249999999999,"velocity":0.3779527559055118,"duration":0.09843750000000284},{"name":"F4","midi":65,"time":35.81249999999999,"velocity":0.48031496062992124,"duration":0.10468750000000426},{"name":"A#3","midi":58,"time":35.81249999999999,"velocity":0.5039370078740157,"duration":0.8609375000000057},{"name":"C2","midi":36,"time":35.99999999999999,"velocity":0.8031496062992126,"duration":0.5843750000000014},{"name":"D#3","midi":51,"time":35.99999999999999,"velocity":0.1889763779527559,"duration":5.873437499999994},{"name":"C2","midi":36,"time":35.99999999999999,"velocity":0.8503937007874016,"duration":1.734375},{"name":"F#2","midi":42,"time":35.99999999999999,"velocity":0.6141732283464567,"duration":0.08281250000000284},{"name":"A#4","midi":70,"time":35.99999999999999,"velocity":0.4409448818897638,"duration":0.171875},{"name":"G4","midi":67,"time":35.99999999999999,"velocity":0.6850393700787402,"duration":0.2953125000000014},{"name":"A#4","midi":70,"time":35.99999999999999,"velocity":0.6141732283464567,"duration":0.27031250000000284},{"name":"D#5","midi":75,"time":35.99999999999999,"velocity":0.6850393700787402,"duration":0.3734375000000014},{"name":"G3","midi":55,"time":35.99999999999999,"velocity":0.7086614173228346,"duration":0.7375000000000043},{"name":"D#4","midi":63,"time":35.99999999999999,"velocity":0.7086614173228346,"duration":0.7375000000000043},{"name":"A#3","midi":58,"time":35.99999999999999,"velocity":0.6614173228346457,"duration":0.7375000000000043},{"name":"F#2","midi":42,"time":36.18749999999999,"velocity":0.3858267716535433,"duration":0.06718750000000284},{"name":"A4","midi":69,"time":36.18749999999999,"velocity":0.2125984251968504,"duration":0.13437499999999858},{"name":"G4","midi":67,"time":36.37499999999999,"velocity":0.8031496062992126,"duration":0.2578125000000071},{"name":"F#2","midi":42,"time":36.37499999999999,"velocity":0.6141732283464567,"duration":0.09843749999999574},{"name":"A#4","midi":70,"time":36.37499999999999,"velocity":0.3543307086614173,"duration":0.14999999999999858},{"name":"G4","midi":67,"time":36.37499999999999,"velocity":0.36220472440944884,"duration":0.3359375000000071},{"name":"A#4","midi":70,"time":36.37499999999999,"velocity":0.2992125984251969,"duration":0.2500000000000071},{"name":"D#5","midi":75,"time":36.37499999999999,"velocity":0.11023622047244094,"duration":0.04062499999999858},{"name":"F#2","midi":42,"time":36.56249999999999,"velocity":0.29133858267716534,"duration":0.05781250000000426},{"name":"A4","midi":69,"time":36.56249999999999,"velocity":0.25984251968503935,"duration":0.1015625000000071},{"name":"A#3","midi":58,"time":36.56249999999999,"velocity":0.2125984251968504,"duration":0.7390625000000028},{"name":"A#4","midi":70,"time":36.75,"velocity":0.8267716535433071,"duration":0.15468750000000142},{"name":"D2","midi":38,"time":36.75,"velocity":0.8503937007874016,"duration":0.5046874999999957},{"name":"F#2","midi":42,"time":36.75,"velocity":0.5748031496062992,"duration":0.11874999999999858},{"name":"A#4","midi":70,"time":36.75,"velocity":0.4251968503937008,"duration":0.3046874999999929},{"name":"G4","midi":67,"time":36.75,"velocity":0.6141732283464567,"duration":0.4765624999999929},{"name":"A#4","midi":70,"time":36.75,"velocity":0.6614173228346457,"duration":0.3749999999999929},{"name":"D#5","midi":75,"time":36.75,"velocity":0.6850393700787402,"duration":0.4906249999999943},{"name":"G3","midi":55,"time":36.75,"velocity":0.6141732283464567,"duration":0.5515624999999957},{"name":"A#3","midi":58,"time":36.75,"velocity":0.6614173228346457,"duration":1.0484374999999915},{"name":"D#4","midi":63,"time":36.75,"velocity":0.7086614173228346,"duration":0.5515624999999957},{"name":"F#2","midi":42,"time":36.9375,"velocity":0.3464566929133858,"duration":0.07343749999999716},{"name":"A4","midi":69,"time":36.9375,"velocity":0.30708661417322836,"duration":0.11562499999999432},{"name":"G4","midi":67,"time":37.12499999999999,"velocity":0.5669291338582677,"duration":0.2109375},{"name":"F#2","midi":42,"time":37.12499999999999,"velocity":0.5511811023622047,"duration":0.09531249999999858},{"name":"A#4","midi":70,"time":37.12499999999999,"velocity":0.4015748031496063,"duration":0.07343749999999716},{"name":"A#4","midi":70,"time":37.12499999999999,"velocity":0.2125984251968504,"duration":0.1484375},{"name":"A#4","midi":70,"time":37.31249999999999,"velocity":0.8267716535433071,"duration":0.32499999999999574},{"name":"F#2","midi":42,"time":37.31249999999999,"velocity":0.30708661417322836,"duration":0.05624999999999858},{"name":"A4","midi":69,"time":37.31249999999999,"velocity":0.3464566929133858,"duration":0.09687499999999716},{"name":"G4","midi":67,"time":37.31249999999999,"velocity":0.6614173228346457,"duration":0.4921875},{"name":"D#5","midi":75,"time":37.31249999999999,"velocity":0.7086614173228346,"duration":0.34687499999999716},{"name":"A#4","midi":70,"time":37.31249999999999,"velocity":0.6850393700787402,"duration":0.3374999999999986},{"name":"G3","midi":55,"time":37.31249999999999,"velocity":0.6850393700787402,"duration":0.5515624999999957},{"name":"D#4","midi":63,"time":37.31249999999999,"velocity":0.7086614173228346,"duration":0.5515624999999957},{"name":"A#3","midi":58,"time":37.31249999999999,"velocity":0.6850393700787402,"duration":0.5515624999999957},{"name":"F#2","midi":42,"time":37.49999999999999,"velocity":0.5905511811023622,"duration":0.10312499999999858},{"name":"A#4","midi":70,"time":37.49999999999999,"velocity":0.4409448818897638,"duration":0.20468749999999858},{"name":"D#4","midi":63,"time":37.68749999999999,"velocity":0.7559055118110236,"duration":0.6890624999999986},{"name":"C2","midi":36,"time":37.68749999999999,"velocity":0.5984251968503937,"duration":0.08906249999999716},{"name":"F#2","midi":42,"time":37.68749999999999,"velocity":0.4645669291338583,"duration":0.0703125},{"name":"A4","midi":69,"time":37.68749999999999,"velocity":0.33070866141732286,"duration":0.09375},{"name":"A#4","midi":70,"time":37.68749999999999,"velocity":0.3543307086614173,"duration":0.10000000000000142},{"name":"D#5","midi":75,"time":37.68749999999999,"velocity":0.3464566929133858,"duration":0.12656249999999858},{"name":"A#3","midi":58,"time":37.68749999999999,"velocity":0.2283464566929134,"duration":0.7390624999999957},{"name":"C2","midi":36,"time":37.874999999999986,"velocity":0.8031496062992126,"duration":0.23906250000000284},{"name":"C2","midi":36,"time":37.874999999999986,"velocity":0.7795275590551181,"duration":1.1906250000000043},{"name":"F#2","midi":42,"time":37.874999999999986,"velocity":0.5196850393700787,"duration":0.09218750000000142},{"name":"A#4","midi":70,"time":37.874999999999986,"velocity":0.4251968503937008,"duration":0.13750000000000284},{"name":"G4","midi":67,"time":37.874999999999986,"velocity":0.6614173228346457,"duration":0.5578125000000043},{"name":"D#5","midi":75,"time":37.874999999999986,"velocity":0.6456692913385826,"duration":0.5578125000000043},{"name":"A#4","midi":70,"time":37.874999999999986,"velocity":0.6850393700787402,"duration":0.5171875000000057},{"name":"D#4","midi":63,"time":37.874999999999986,"velocity":0.7322834645669292,"duration":0.5515625000000028},{"name":"G3","midi":55,"time":37.874999999999986,"velocity":0.7086614173228346,"duration":0.5515625000000028},{"name":"A#3","midi":58,"time":37.874999999999986,"velocity":0.6614173228346457,"duration":0.7421875000000071},{"name":"F#2","midi":42,"time":38.062499999999986,"velocity":0.4094488188976378,"duration":0.08906250000000426},{"name":"A4","midi":69,"time":38.062499999999986,"velocity":0.3937007874015748,"duration":0.08750000000000568},{"name":"D2","midi":38,"time":38.24999999999999,"velocity":0.8740157480314961,"duration":0.5093749999999986},{"name":"F#2","midi":42,"time":38.24999999999999,"velocity":0.5905511811023622,"duration":0.07968749999999858},{"name":"A#4","midi":70,"time":38.24999999999999,"velocity":0.4409448818897638,"duration":0.18281249999999716},{"name":"F#2","midi":42,"time":38.43749999999999,"velocity":0.4330708661417323,"duration":0.06093750000000142},{"name":"A4","midi":69,"time":38.43749999999999,"velocity":0.3228346456692913,"duration":0.07656250000000142},{"name":"G4","midi":67,"time":38.43749999999999,"velocity":0.4645669291338583,"duration":0.18281249999999716},{"name":"A#4","midi":70,"time":38.43749999999999,"velocity":0.5826771653543307,"duration":0.18281249999999716},{"name":"D#5","midi":75,"time":38.43749999999999,"velocity":0.5984251968503937,"duration":0.18281249999999716},{"name":"A#3","midi":58,"time":38.43749999999999,"velocity":0.4015748031496063,"duration":0.4625000000000057},{"name":"G3","midi":55,"time":38.43749999999999,"velocity":0.33858267716535434,"duration":0.1796875},{"name":"D#4","midi":63,"time":38.43749999999999,"velocity":0.33070866141732286,"duration":0.1796875},{"name":"A#2","midi":46,"time":38.62499999999999,"velocity":0.6299212598425197,"duration":0.21562500000000284},{"name":"A#4","midi":70,"time":38.62499999999999,"velocity":0.3779527559055118,"duration":0.15156249999999716},{"name":"G4","midi":67,"time":38.62499999999999,"velocity":0.5826771653543307,"duration":0.18281249999999716},{"name":"A#4","midi":70,"time":38.62499999999999,"velocity":0.6299212598425197,"duration":0.18281249999999716},{"name":"D#5","midi":75,"time":38.62499999999999,"velocity":0.6850393700787402,"duration":0.33125000000000426},{"name":"A#3","midi":58,"time":38.62499999999999,"velocity":0.6850393700787402,"duration":0.3656250000000014},{"name":"G3","midi":55,"time":38.62499999999999,"velocity":0.6141732283464567,"duration":0.3656250000000014},{"name":"D#4","midi":63,"time":38.62499999999999,"velocity":0.5669291338582677,"duration":0.3656250000000014},{"name":"A4","midi":69,"time":38.81249999999999,"velocity":0.41732283464566927,"duration":0.11093750000000568},{"name":"G4","midi":67,"time":38.81249999999999,"velocity":0.5669291338582677,"duration":0.1171875000000071},{"name":"A#4","midi":70,"time":38.81249999999999,"velocity":0.5196850393700787,"duration":0.1250000000000071},{"name":"A#3","midi":58,"time":38.81249999999999,"velocity":0.4881889763779528,"duration":0.30156249999999574},{"name":"G#1","midi":32,"time":38.99999999999999,"velocity":0.8267716535433071,"duration":2.273437499999986},{"name":"G#3","midi":56,"time":38.99999999999999,"velocity":0.1889763779527559,"duration":0.7375000000000043},{"name":"C2","midi":36,"time":38.99999999999999,"velocity":0.8503937007874016,"duration":0.5843750000000014},{"name":"F#2","midi":42,"time":38.99999999999999,"velocity":0.5748031496062992,"duration":0.11874999999999858},{"name":"A#4","midi":70,"time":38.99999999999999,"velocity":0.4015748031496063,"duration":0.12187499999999574},{"name":"D#5","midi":75,"time":38.99999999999999,"velocity":0.7086614173228346,"duration":0.5171874999999986},{"name":"G#4","midi":68,"time":38.99999999999999,"velocity":0.6850393700787402,"duration":0.3125},{"name":"A#4","midi":70,"time":38.99999999999999,"velocity":0.6850393700787402,"duration":0.49531249999999716},{"name":"D#4","midi":63,"time":38.99999999999999,"velocity":0.6456692913385826,"duration":0.7375000000000043},{"name":"C4","midi":60,"time":38.99999999999999,"velocity":0.7086614173228346,"duration":0.7375000000000043},{"name":"G#4","midi":68,"time":38.99999999999999,"velocity":0.7086614173228346,"duration":0.6171875},{"name":"G#3","midi":56,"time":38.99999999999999,"velocity":0.6614173228346457,"duration":1.3015624999999957},{"name":"F#2","midi":42,"time":39.187499999999986,"velocity":0.3464566929133858,"duration":0.07343750000000426},{"name":"A4","midi":69,"time":39.187499999999986,"velocity":0.33858267716535434,"duration":0.06875000000000142},{"name":"G4","midi":67,"time":39.37499999999999,"velocity":0.8740157480314961,"duration":0.31562500000000426},{"name":"F#2","midi":42,"time":39.37499999999999,"velocity":0.5511811023622047,"duration":0.09531249999999858},{"name":"A#4","midi":70,"time":39.37499999999999,"velocity":0.3779527559055118,"duration":0.4937500000000057},{"name":"G#4","midi":68,"time":39.37499999999999,"velocity":0.31496062992125984,"duration":0.36250000000000426},{"name":"F#2","midi":42,"time":39.56249999999999,"velocity":0.30708661417322836,"duration":0.05624999999999858},{"name":"A4","midi":69,"time":39.56249999999999,"velocity":0.3700787401574803,"duration":0.06875000000000142},{"name":"A#4","midi":70,"time":39.75,"velocity":0.8267716535433071,"duration":0.24374999999999858},{"name":"D2","midi":38,"time":39.75,"velocity":0.8503937007874016,"duration":0.5046874999999886},{"name":"F#2","midi":42,"time":39.75,"velocity":0.5905511811023622,"duration":0.10312499999999858},{"name":"A#4","midi":70,"time":39.75,"velocity":0.4251968503937008,"duration":0.5171874999999915},{"name":"D#5","midi":75,"time":39.75,"velocity":0.7086614173228346,"duration":0.43281249999999005},{"name":"G#4","midi":68,"time":39.75,"velocity":0.7795275590551181,"duration":0.45624999999999005},{"name":"G#4","midi":68,"time":39.75,"velocity":0.6141732283464567,"duration":0.5515624999999886},{"name":"C4","midi":60,"time":39.75,"velocity":0.6456692913385826,"duration":0.5515624999999886},{"name":"D#4","midi":63,"time":39.75,"velocity":0.6850393700787402,"duration":0.5515624999999886},{"name":"G#3","midi":56,"time":39.75,"velocity":0.7795275590551181,"duration":1.0328124999999702},{"name":"G4","midi":67,"time":39.9375,"velocity":0.7086614173228346,"duration":0.3531249999999915},{"name":"F#2","midi":42,"time":39.9375,"velocity":0.4645669291338583,"duration":0.0703124999999929},{"name":"A4","midi":69,"time":39.9375,"velocity":0.23622047244094488,"duration":0.06718749999999574},{"name":"F#2","midi":42,"time":40.12499999999999,"velocity":0.5196850393700787,"duration":0.09218749999999432},{"name":"A#4","midi":70,"time":40.12499999999999,"velocity":0.4566929133858268,"duration":0.47968749999998295},{"name":"A#4","midi":70,"time":40.312499999999986,"velocity":0.8267716535433071,"duration":0.2968749999999858},{"name":"C2","midi":36,"time":40.312499999999986,"velocity":0.8267716535433071,"duration":0.11562499999999432},{"name":"F#2","midi":42,"time":40.312499999999986,"velocity":0.4094488188976378,"duration":0.08906249999999716},{"name":"A4","midi":69,"time":40.312499999999986,"velocity":0.3700787401574803,"duration":0.078125},{"name":"G#4","midi":68,"time":40.312499999999986,"velocity":0.6850393700787402,"duration":0.31718749999998863},{"name":"D#5","midi":75,"time":40.312499999999986,"velocity":0.7086614173228346,"duration":0.2953124999999872},{"name":"C4","midi":60,"time":40.312499999999986,"velocity":0.6456692913385826,"duration":0.44218749999998863},{"name":"G#4","midi":68,"time":40.312499999999986,"velocity":0.6614173228346457,"duration":0.4593749999999872},{"name":"G#3","midi":56,"time":40.312499999999986,"velocity":0.7086614173228346,"duration":0.5515624999999886},{"name":"D#4","midi":63,"time":40.312499999999986,"velocity":0.6614173228346457,"duration":0.5515624999999886},{"name":"F#2","midi":42,"time":40.49999999999998,"velocity":0.5905511811023622,"duration":0.07968749999999858},{"name":"A#4","midi":70,"time":40.49999999999998,"velocity":0.4015748031496063,"duration":0.3031249999999943},{"name":"C2","midi":36,"time":40.68749999999997,"velocity":0.5984251968503937,"duration":0.046875},{"name":"F#2","midi":42,"time":40.68749999999997,"velocity":0.4330708661417323,"duration":0.06093750000000142},{"name":"A4","midi":69,"time":40.68749999999997,"velocity":0.2992125984251969,"duration":0.09531249999999858},{"name":"A#4","midi":70,"time":40.68749999999997,"velocity":0.3779527559055118,"duration":0.1484375},{"name":"G#4","midi":68,"time":40.68749999999997,"velocity":0.3858267716535433,"duration":0.17656250000000284},{"name":"G#3","midi":56,"time":40.68749999999997,"velocity":0.2755905511811024,"duration":0.9250000000000185},{"name":"C4","midi":60,"time":40.68749999999997,"velocity":0.31496062992125984,"duration":0.17656250000000284},{"name":"C2","midi":36,"time":40.87499999999997,"velocity":0.7795275590551181,"duration":0.23906250000000284},{"name":"A#2","midi":46,"time":40.87499999999997,"velocity":0.6299212598425197,"duration":0.21562500000000284},{"name":"A#4","midi":70,"time":40.87499999999997,"velocity":0.4566929133858268,"duration":0.14374999999999716},{"name":"D#5","midi":75,"time":40.87499999999997,"velocity":0.7322834645669292,"duration":0.7453125000000185},{"name":"G#4","midi":68,"time":40.87499999999997,"velocity":0.7559055118110236,"duration":0.6468750000000156},{"name":"A#4","midi":70,"time":40.87499999999997,"velocity":0.7322834645669292,"duration":0.45000000000000995},{"name":"G#4","midi":68,"time":40.87499999999997,"velocity":0.6850393700787402,"duration":0.7375000000000185},{"name":"D#4","midi":63,"time":40.87499999999997,"velocity":0.6614173228346457,"duration":0.7375000000000185},{"name":"G#3","midi":56,"time":40.87499999999997,"velocity":0.8031496062992126,"duration":0.9296875000000142},{"name":"C4","midi":60,"time":40.87499999999997,"velocity":0.6850393700787402,"duration":0.629687500000017},{"name":"A4","midi":69,"time":41.06249999999997,"velocity":0.3543307086614173,"duration":0.08906250000000426},{"name":"C2","midi":36,"time":41.24999999999998,"velocity":0.6850393700787402,"duration":0.39375000000001137},{"name":"D#4","midi":63,"time":41.24999999999998,"velocity":0.8976377952755905,"duration":0.4203125000000085},{"name":"D2","midi":38,"time":41.24999999999998,"velocity":0.8740157480314961,"duration":0.5093750000000057},{"name":"F#2","midi":42,"time":41.24999999999998,"velocity":0.5905511811023622,"duration":0.10312500000000568},{"name":"A#4","midi":70,"time":41.24999999999998,"velocity":0.3779527559055118,"duration":0.2593750000000057},{"name":"F#2","midi":42,"time":41.437499999999986,"velocity":0.4645669291338583,"duration":0.0703125},{"name":"A#4","midi":70,"time":41.437499999999986,"velocity":0.4015748031496063,"duration":0.10468750000000426},{"name":"A#4","midi":70,"time":41.437499999999986,"velocity":0.3464566929133858,"duration":0.18281250000000426},{"name":"G#4","midi":68,"time":41.437499999999986,"velocity":0.4566929133858268,"duration":0.18281250000000426},{"name":"C4","midi":60,"time":41.437499999999986,"velocity":0.33858267716535434,"duration":0.17500000000000426},{"name":"D2","midi":38,"time":41.62499999999999,"velocity":0.6456692913385826,"duration":0.3999999999999915},{"name":"A#4","midi":70,"time":41.62499999999999,"velocity":0.8031496062992126,"duration":0.11562499999999432},{"name":"C2","midi":36,"time":41.62499999999999,"velocity":0.8503937007874016,"duration":0.2656249999999929},{"name":"F#2","midi":42,"time":41.62499999999999,"velocity":0.5196850393700787,"duration":0.09218749999999432},{"name":"A#4","midi":70,"time":41.62499999999999,"velocity":0.4251968503937008,"duration":0.1796874999999929},{"name":"A#4","midi":70,"time":41.62499999999999,"velocity":0.6850393700787402,"duration":0.31562499999999005},{"name":"G#4","midi":68,"time":41.62499999999999,"velocity":0.7322834645669292,"duration":0.14999999999999147},{"name":"D#5","midi":75,"time":41.62499999999999,"velocity":0.6850393700787402,"duration":0.16249999999999432},{"name":"G#4","midi":68,"time":41.62499999999999,"velocity":0.6850393700787402,"duration":0.1796874999999929},{"name":"C4","midi":60,"time":41.62499999999999,"velocity":0.7322834645669292,"duration":0.1796874999999929},{"name":"G#3","midi":56,"time":41.62499999999999,"velocity":0.8031496062992126,"duration":0.2968749999999929},{"name":"D#4","midi":63,"time":41.62499999999999,"velocity":0.6850393700787402,"duration":0.1796874999999929},{"name":"F#2","midi":42,"time":41.812499999999986,"velocity":0.4094488188976378,"duration":0.08906249999999716},{"name":"A4","midi":69,"time":41.812499999999986,"velocity":0.4645669291338583,"duration":0.125},{"name":"G#4","midi":68,"time":41.812499999999986,"velocity":0.4881889763779528,"duration":0.09687499999999716},{"name":"D#5","midi":75,"time":41.812499999999986,"velocity":0.5984251968503937,"duration":0.1328125},{"name":"A#4","midi":70,"time":41.812499999999986,"velocity":0.6299212598425197,"duration":0.2906249999999986},{"name":"G#4","midi":68,"time":41.812499999999986,"velocity":0.36220472440944884,"duration":0.125},{"name":"G#3","midi":56,"time":41.812499999999986,"velocity":0.3464566929133858,"duration":0.2421875},{"name":"C4","midi":60,"time":41.812499999999986,"velocity":0.4645669291338583,"duration":0.11249999999999716},{"name":"D#2","midi":39,"time":41.999999999999986,"velocity":0.8267716535433071,"duration":1.5656249999999758},{"name":"G3","midi":55,"time":41.999999999999986,"velocity":0.1968503937007874,"duration":0.32500000000000284},{"name":"D#3","midi":51,"time":41.999999999999986,"velocity":0.1968503937007874,"duration":2.8687499999999915},{"name":"C2","midi":36,"time":41.999999999999986,"velocity":0.8503937007874016,"duration":0.5843749999999872},{"name":"F#2","midi":42,"time":41.999999999999986,"velocity":0.5748031496062992,"duration":0.11874999999999858},{"name":"A#4","midi":70,"time":41.999999999999986,"velocity":0.4566929133858268,"duration":0.11249999999999716},{"name":"G3","midi":55,"time":41.999999999999986,"velocity":0.6456692913385826,"duration":0.6765624999999886},{"name":"D#5","midi":75,"time":41.999999999999986,"velocity":0.7086614173228346,"duration":0.35625000000000284},{"name":"G4","midi":67,"time":41.999999999999986,"velocity":0.6850393700787402,"duration":0.3265625000000014},{"name":"A#4","midi":70,"time":41.999999999999986,"velocity":0.6850393700787402,"duration":0.18125000000000568},{"name":"G3","midi":55,"time":41.999999999999986,"velocity":0.7795275590551181,"duration":0.73749999999999},{"name":"D#4","midi":63,"time":41.999999999999986,"velocity":0.7322834645669292,"duration":0.73749999999999},{"name":"A#3","midi":58,"time":41.999999999999986,"velocity":0.7559055118110236,"duration":0.4531249999999929},{"name":"A#4","midi":70,"time":42.12968749999999,"velocity":0.8503937007874016,"duration":0.19375000000000142},{"name":"A4","midi":69,"time":42.18749999999999,"velocity":0.2125984251968504,"duration":0.10312499999999858},{"name":"A#4","midi":70,"time":42.28906249999999,"velocity":0.7086614173228346,"duration":0.04999999999999716},{"name":"F#2","midi":42,"time":42.374999999999986,"velocity":0.5511811023622047,"duration":0.09531249999999147},{"name":"A#4","midi":70,"time":42.374999999999986,"velocity":0.4566929133858268,"duration":0.11406249999998863},{"name":"G3","midi":55,"time":42.374999999999986,"velocity":0.6456692913385826,"duration":0.4468749999999915},{"name":"D#5","midi":75,"time":42.374999999999986,"velocity":0.4566929133858268,"duration":0.22812499999998437},{"name":"A#4","midi":70,"time":42.374999999999986,"velocity":0.5039370078740157,"duration":0.2109374999999858},{"name":"G4","midi":67,"time":42.374999999999986,"velocity":0.28346456692913385,"duration":0.2796874999999872},{"name":"A#3","midi":58,"time":42.374999999999986,"velocity":0.29133858267716534,"duration":0.3046874999999858},{"name":"A#4","midi":70,"time":42.42656249999998,"velocity":0.6299212598425197,"duration":0.24687499999999574},{"name":"F#2","midi":42,"time":42.56249999999997,"velocity":0.30708661417322836,"duration":0.05624999999999858},{"name":"A4","midi":69,"time":42.56249999999997,"velocity":0.29133858267716534,"duration":0.09687500000000426},{"name":"A#3","midi":58,"time":42.56249999999997,"velocity":0.4566929133858268,"duration":0.17500000000000426},{"name":"G3","midi":55,"time":42.56249999999997,"velocity":0.3937007874015748,"duration":0.7390624999999957},{"name":"G4","midi":67,"time":42.59374999999997,"velocity":0.6456692913385826,"duration":0.10625000000000284},{"name":"A#4","midi":70,"time":42.74999999999998,"velocity":0.8503937007874016,"duration":0.09531249999999858},{"name":"D2","midi":38,"time":42.74999999999998,"velocity":0.8503937007874016,"duration":0.5046874999999886},{"name":"F#2","midi":42,"time":42.74999999999998,"velocity":0.5905511811023622,"duration":0.10312499999999858},{"name":"A#4","midi":70,"time":42.74999999999998,"velocity":0.4015748031496063,"duration":0.29999999999999716},{"name":"F3","midi":53,"time":42.74999999999998,"velocity":0.6299212598425197,"duration":0.44062499999999716},{"name":"D#5","midi":75,"time":42.74999999999998,"velocity":0.7086614173228346,"duration":0.4859374999999915},{"name":"G4","midi":67,"time":42.74999999999998,"velocity":0.6614173228346457,"duration":0.8531249999999844},{"name":"A#4","midi":70,"time":42.74999999999998,"velocity":0.6614173228346457,"duration":0.48906249999998863},{"name":"A#3","midi":58,"time":42.74999999999998,"velocity":0.5984251968503937,"duration":0.51874999999999},{"name":"G3","midi":55,"time":42.74999999999998,"velocity":0.7086614173228346,"duration":1.1140624999999886},{"name":"D#4","midi":63,"time":42.74999999999998,"velocity":0.6850393700787402,"duration":0.5515624999999886},{"name":"F#2","midi":42,"time":42.93749999999998,"velocity":0.4645669291338583,"duration":0.0703125},{"name":"A4","midi":69,"time":42.93749999999998,"velocity":0.33070866141732286,"duration":0.08749999999999858},{"name":"D#4","midi":63,"time":43.12499999999998,"velocity":0.7086614173228346,"duration":0.3031249999999872},{"name":"F#2","midi":42,"time":43.12499999999998,"velocity":0.5196850393700787,"duration":0.09218749999999432},{"name":"A#4","midi":70,"time":43.12499999999998,"velocity":0.3937007874015748,"duration":0.45624999999998295},{"name":"G3","midi":55,"time":43.12499999999998,"velocity":0.5511811023622047,"duration":0.7656249999999858},{"name":"A#3","midi":58,"time":43.12499999999998,"velocity":0.11023622047244094,"duration":0.17656249999998863},{"name":"F#2","midi":42,"time":43.312499999999964,"velocity":0.4094488188976378,"duration":0.08906249999999716},{"name":"A4","midi":69,"time":43.312499999999964,"velocity":0.33858267716535434,"duration":0.1015625},{"name":"D#5","midi":75,"time":43.312499999999964,"velocity":0.7086614173228346,"duration":0.28437499999999716},{"name":"D#4","midi":63,"time":43.312499999999964,"velocity":0.7086614173228346,"duration":0.5515625000000028},{"name":"G3","midi":55,"time":43.312499999999964,"velocity":0.6299212598425197,"duration":1.1140624999999957},{"name":"A#3","midi":58,"time":43.312499999999964,"velocity":0.7322834645669292,"duration":0.5},{"name":"F#2","midi":42,"time":43.499999999999964,"velocity":0.5905511811023622,"duration":0.07968749999999858},{"name":"A#4","midi":70,"time":43.499999999999964,"velocity":0.4251968503937008,"duration":0.11093749999999858},{"name":"D#2","midi":39,"time":43.687499999999964,"velocity":0.48031496062992124,"duration":0.109375},{"name":"C2","midi":36,"time":43.687499999999964,"velocity":0.5984251968503937,"duration":0.046875},{"name":"F#2","midi":42,"time":43.687499999999964,"velocity":0.4330708661417323,"duration":0.06093750000000142},{"name":"A#4","midi":70,"time":43.687499999999964,"velocity":0.4645669291338583,"duration":0.08281250000000284},{"name":"A#4","midi":70,"time":43.687499999999964,"velocity":0.44881889763779526,"duration":0.10625000000000284},{"name":"D#5","midi":75,"time":43.687499999999964,"velocity":0.5354330708661418,"duration":0.09062500000000284},{"name":"G4","midi":67,"time":43.687499999999964,"velocity":0.5196850393700787,"duration":0.09375},{"name":"A#3","midi":58,"time":43.687499999999964,"velocity":0.25196850393700787,"duration":0.17656250000000284},{"name":"D#2","midi":39,"time":43.874999999999964,"velocity":0.6850393700787402,"duration":0.7328125000000014},{"name":"A#2","midi":46,"time":43.874999999999964,"velocity":0.6299212598425197,"duration":0.21562500000000284},{"name":"C2","midi":36,"time":43.874999999999964,"velocity":0.7795275590551181,"duration":0.23906250000000284},{"name":"A4","midi":69,"time":43.874999999999964,"velocity":0.3779527559055118,"duration":0.10625000000000284},{"name":"F3","midi":53,"time":43.874999999999964,"velocity":0.5039370078740157,"duration":0.45624999999999716},{"name":"G4","midi":67,"time":43.874999999999964,"velocity":0.7086614173228346,"duration":0.5578124999999972},{"name":"A#4","midi":70,"time":43.874999999999964,"velocity":0.7086614173228346,"duration":0.2640625000000014},{"name":"D#5","midi":75,"time":43.874999999999964,"velocity":0.7795275590551181,"duration":0.5578124999999972},{"name":"D#4","midi":63,"time":43.874999999999964,"velocity":0.7086614173228346,"duration":0.5515624999999957},{"name":"G3","midi":55,"time":43.874999999999964,"velocity":0.6141732283464567,"duration":0.80937500000001},{"name":"A#3","midi":58,"time":43.874999999999964,"velocity":0.7086614173228346,"duration":0.5515624999999957},{"name":"A#4","midi":70,"time":44.062499999999964,"velocity":0.3779527559055118,"duration":0.3218749999999986},{"name":"D2","midi":38,"time":44.249999999999964,"velocity":0.8740157480314961,"duration":0.5093750000000128},{"name":"F#2","midi":42,"time":44.249999999999964,"velocity":0.5905511811023622,"duration":0.10312499999999858},{"name":"A#4","midi":70,"time":44.249999999999964,"velocity":0.4409448818897638,"duration":0.18281249999999716},{"name":"G3","midi":55,"time":44.249999999999964,"velocity":0.5984251968503937,"duration":0.4859375000000128},{"name":"F#2","midi":42,"time":44.437499999999964,"velocity":0.4645669291338583,"duration":0.0703125},{"name":"A4","midi":69,"time":44.437499999999964,"velocity":0.3464566929133858,"duration":0.10625000000000284},{"name":"G4","midi":67,"time":44.437499999999964,"velocity":0.5039370078740157,"duration":0.18281250000000426},{"name":"A#4","midi":70,"time":44.437499999999964,"velocity":0.6141732283464567,"duration":0.18281250000000426},{"name":"D#5","midi":75,"time":44.437499999999964,"velocity":0.5984251968503937,"duration":0.18281250000000426},{"name":"D#4","midi":63,"time":44.437499999999964,"velocity":0.44881889763779526,"duration":0.4625000000000128},{"name":"G3","midi":55,"time":44.437499999999964,"velocity":0.18110236220472442,"duration":0.44843750000001137},{"name":"A#3","midi":58,"time":44.437499999999964,"velocity":0.29133858267716534,"duration":0.28437500000001137},{"name":"D#2","midi":39,"time":44.62499999999997,"velocity":0.6850393700787402,"duration":0.48906249999999574},{"name":"A#3","midi":58,"time":44.62499999999997,"velocity":0.8267716535433071,"duration":0.11875000000000568},{"name":"F#2","midi":42,"time":44.62499999999997,"velocity":0.5196850393700787,"duration":0.09218750000000142},{"name":"A#4","midi":70,"time":44.62499999999997,"velocity":0.4409448818897638,"duration":0.1171875000000071},{"name":"D#3","midi":51,"time":44.62499999999997,"velocity":0.4094488188976378,"duration":0.4078124999999986},{"name":"G4","midi":67,"time":44.62499999999997,"velocity":0.6141732283464567,"duration":0.18281250000000426},{"name":"A#4","midi":70,"time":44.62499999999997,"velocity":0.6141732283464567,"duration":0.18281250000000426},{"name":"D#5","midi":75,"time":44.62499999999997,"velocity":0.6614173228346457,"duration":0.34843750000000284},{"name":"A#3","midi":58,"time":44.62499999999997,"velocity":0.5039370078740157,"duration":0.2671875000000057},{"name":"G3","midi":55,"time":44.62499999999997,"velocity":0.4645669291338583,"duration":0.36406250000000284},{"name":"D#4","midi":63,"time":44.62499999999997,"velocity":0.4881889763779528,"duration":0.36406250000000284},{"name":"A#3","midi":58,"time":44.81249999999998,"velocity":0.8031496062992126,"duration":0.15312499999999574},{"name":"F#2","midi":42,"time":44.81249999999998,"velocity":0.4094488188976378,"duration":0.08906249999999716},{"name":"A4","midi":69,"time":44.81249999999998,"velocity":0.33070866141732286,"duration":0.09999999999999432},{"name":"A#4","midi":70,"time":44.81249999999998,"velocity":0.4251968503937008,"duration":0.12812499999999716},{"name":"G4","midi":67,"time":44.81249999999998,"velocity":0.48031496062992124,"duration":0.09999999999999432},{"name":"G3","midi":55,"time":44.81249999999998,"velocity":0.2992125984251969,"duration":0.22343749999998863},{"name":"A#3","midi":58,"time":44.81249999999998,"velocity":0.2677165354330709,"duration":0.17656249999999574},{"name":"D2","midi":38,"time":44.99999999999997,"velocity":0.8267716535433071,"duration":1.04999999999999},{"name":"A#3","midi":58,"time":44.99999999999997,"velocity":0.1968503937007874,"duration":0.6499999999999844},{"name":"F3","midi":53,"time":44.99999999999997,"velocity":0.1968503937007874,"duration":0.737499999999983},{"name":"C2","midi":36,"time":44.99999999999997,"velocity":0.8740157480314961,"duration":0.3140624999999915},{"name":"F#2","midi":42,"time":44.99999999999997,"velocity":0.5748031496062992,"duration":0.11874999999999858},{"name":"A#4","midi":70,"time":44.99999999999997,"velocity":0.4566929133858268,"duration":0.11249999999999716},{"name":"D3","midi":50,"time":44.99999999999997,"velocity":0.7559055118110236,"duration":0.3749999999999929},{"name":"D5","midi":74,"time":44.99999999999997,"velocity":0.7322834645669292,"duration":0.6921874999999815},{"name":"A#4","midi":70,"time":44.99999999999997,"velocity":0.7086614173228346,"duration":0.15312499999999574},{"name":"F4","midi":65,"time":44.99999999999997,"velocity":0.6614173228346457,"duration":0.706249999999983},{"name":"A#3","midi":58,"time":44.99999999999997,"velocity":0.7559055118110236,"duration":0.737499999999983},{"name":"D#4","midi":63,"time":44.99999999999997,"velocity":0.8503937007874016,"duration":0.737499999999983},{"name":"F3","midi":53,"time":44.99999999999997,"velocity":0.7086614173228346,"duration":1.2234374999999957},{"name":"A#4","midi":70,"time":45.01406249999997,"velocity":0.8503937007874016,"duration":0.26093749999999005},{"name":"G4","midi":67,"time":45.15937499999996,"velocity":0.7086614173228346,"duration":0.1328125},{"name":"F#2","midi":42,"time":45.187499999999964,"velocity":0.3464566929133858,"duration":0.07343749999999716},{"name":"A#4","midi":70,"time":45.187499999999964,"velocity":0.3543307086614173,"duration":0.17031250000000142},{"name":"A#4","midi":70,"time":45.28437499999996,"velocity":0.7795275590551181,"duration":0.125},{"name":"F#2","midi":42,"time":45.374999999999964,"velocity":0.5511811023622047,"duration":0.09531249999999858},{"name":"A4","midi":69,"time":45.374999999999964,"velocity":0.41732283464566927,"duration":0.11406249999999574},{"name":"D3","midi":50,"time":45.374999999999964,"velocity":0.6299212598425197,"duration":0.38749999999999574},{"name":"A#4","midi":70,"time":45.374999999999964,"velocity":0.5669291338582677,"duration":0.27031249999998863},{"name":"G4","midi":67,"time":45.40781249999996,"velocity":0.7086614173228346,"duration":0.13749999999999574},{"name":"A#4","midi":70,"time":45.548437499999956,"velocity":0.8031496062992126,"duration":0.16562499999999858},{"name":"F#2","midi":42,"time":45.56249999999996,"velocity":0.30708661417322836,"duration":0.05624999999999858},{"name":"A#4","midi":70,"time":45.56249999999996,"velocity":0.33070866141732286,"duration":0.3046875000000071},{"name":"F3","midi":53,"time":45.56249999999996,"velocity":0.3700787401574803,"duration":1.0687500000000085},{"name":"A#3","midi":58,"time":45.56249999999996,"velocity":0.31496062992125984,"duration":1.0281250000000028},{"name":"D2","midi":38,"time":45.74999999999996,"velocity":0.8976377952755905,"duration":1.04375000000001},{"name":"F#2","midi":42,"time":45.74999999999996,"velocity":0.5905511811023622,"duration":0.10312500000000568},{"name":"A#4","midi":70,"time":45.74999999999996,"velocity":0.3779527559055118,"duration":0.3140625000000057},{"name":"C3","midi":48,"time":45.74999999999996,"velocity":0.6141732283464567,"duration":0.37031250000000426},{"name":"F4","midi":65,"time":45.74999999999996,"velocity":0.6614173228346457,"duration":0.4687500000000071},{"name":"D5","midi":74,"time":45.74999999999996,"velocity":0.7795275590551181,"duration":0.4625000000000057},{"name":"A#4","midi":70,"time":45.74999999999996,"velocity":0.7086614173228346,"duration":0.4984375000000085},{"name":"A#3","midi":58,"time":45.74999999999996,"velocity":0.6614173228346457,"duration":1.03593750000001},{"name":"F4","midi":65,"time":45.74999999999996,"velocity":0.8031496062992126,"duration":0.8843750000000057},{"name":"F#2","midi":42,"time":45.937499999999964,"velocity":0.4645669291338583,"duration":0.0703125},{"name":"A4","midi":69,"time":45.937499999999964,"velocity":0.4015748031496063,"duration":0.1015625},{"name":"F#2","midi":42,"time":46.124999999999964,"velocity":0.5196850393700787,"duration":0.09218750000000142},{"name":"A#4","midi":70,"time":46.124999999999964,"velocity":0.4409448818897638,"duration":0.140625},{"name":"D3","midi":50,"time":46.124999999999964,"velocity":0.6141732283464567,"duration":0.7546875000000028},{"name":"F#2","midi":42,"time":46.312499999999964,"velocity":0.4094488188976378,"duration":0.08906249999999716},{"name":"A4","midi":69,"time":46.312499999999964,"velocity":0.3543307086614173,"duration":0.08749999999999858},{"name":"D5","midi":74,"time":46.312499999999964,"velocity":0.7322834645669292,"duration":0.5421875000000043},{"name":"F4","midi":65,"time":46.312499999999964,"velocity":0.5984251968503937,"duration":0.43437500000000284},{"name":"A#4","midi":70,"time":46.312499999999964,"velocity":0.6141732283464567,"duration":0.3140624999999986},{"name":"F3","midi":53,"time":46.312499999999964,"velocity":0.6456692913385826,"duration":0.4609375},{"name":"D#4","midi":63,"time":46.312499999999964,"velocity":0.6456692913385826,"duration":1.2500000000000142},{"name":"A#3","midi":58,"time":46.312499999999964,"velocity":0.7086614173228346,"duration":0.5453125000000014},{"name":"F#2","midi":42,"time":46.499999999999964,"velocity":0.5905511811023622,"duration":0.07968749999999858},{"name":"A#4","midi":70,"time":46.499999999999964,"velocity":0.4409448818897638,"duration":0.13906250000000142},{"name":"F#2","midi":42,"time":46.687499999999964,"velocity":0.4330708661417323,"duration":0.06093750000000142},{"name":"A4","midi":69,"time":46.687499999999964,"velocity":0.31496062992125984,"duration":0.11093750000000568},{"name":"F4","midi":65,"time":46.687499999999964,"velocity":0.11023622047244094,"duration":0.17031250000000142},{"name":"A#4","midi":70,"time":46.687499999999964,"velocity":0.33858267716535434,"duration":0.12187500000000284},{"name":"A#3","midi":58,"time":46.687499999999964,"velocity":0.3543307086614173,"duration":0.8656250000000156},{"name":"F3","midi":53,"time":46.687499999999964,"velocity":0.23622047244094488,"duration":0.8546875000000185},{"name":"D2","midi":38,"time":46.874999999999964,"velocity":0.7559055118110236,"duration":0.7500000000000142},{"name":"A#2","midi":46,"time":46.874999999999964,"velocity":0.6299212598425197,"duration":0.21562500000000995},{"name":"C2","midi":36,"time":46.874999999999964,"velocity":0.8740157480314961,"duration":0.27031250000000995},{"name":"A#4","midi":70,"time":46.874999999999964,"velocity":0.41732283464566927,"duration":0.14375000000000426},{"name":"C3","midi":48,"time":46.874999999999964,"velocity":0.6141732283464567,"duration":0.43281250000001137},{"name":"A#4","midi":70,"time":46.874999999999964,"velocity":0.6614173228346457,"duration":0.5421875000000114},{"name":"D5","midi":74,"time":46.874999999999964,"velocity":0.7559055118110236,"duration":0.5578125000000114},{"name":"F4","midi":65,"time":46.874999999999964,"velocity":0.5984251968503937,"duration":0.5578125000000114},{"name":"F3","midi":53,"time":46.874999999999964,"velocity":0.6850393700787402,"duration":0.7375000000000114},{"name":"A#3","midi":58,"time":46.874999999999964,"velocity":0.7322834645669292,"duration":0.7375000000000114},{"name":"F4","midi":65,"time":46.874999999999964,"velocity":0.8267716535433071,"duration":0.7375000000000114},{"name":"A4","midi":69,"time":47.06249999999997,"velocity":0.31496062992125984,"duration":0.11093750000000568},{"name":"D2","midi":38,"time":47.24999999999998,"velocity":0.8503937007874016,"duration":0.8484375000000028},{"name":"F#2","midi":42,"time":47.24999999999998,"velocity":0.5905511811023622,"duration":0.10312499999999858},{"name":"A#4","midi":70,"time":47.24999999999998,"velocity":0.5196850393700787,"duration":0.18281249999999716},{"name":"D3","midi":50,"time":47.24999999999998,"velocity":0.6850393700787402,"duration":0.3968750000000014},{"name":"F#2","midi":42,"time":47.43749999999998,"velocity":0.4645669291338583,"duration":0.0703125},{"name":"A4","midi":69,"time":47.43749999999998,"velocity":0.2204724409448819,"duration":0.08437500000000142},{"name":"D5","midi":74,"time":47.43749999999998,"velocity":0.5984251968503937,"duration":0.18281249999999716},{"name":"A#4","midi":70,"time":47.43749999999998,"velocity":0.4330708661417323,"duration":0.18281249999999716},{"name":"F4","midi":65,"time":47.43749999999998,"velocity":0.4881889763779528,"duration":0.18281249999999716},{"name":"A#3","midi":58,"time":47.43749999999998,"velocity":0.4094488188976378,"duration":0.47968750000000426},{"name":"F3","midi":53,"time":47.43749999999998,"velocity":0.25196850393700787,"duration":0.5531250000000014},{"name":"D#4","midi":63,"time":47.62499999999998,"velocity":0.7795275590551181,"duration":0.03750000000000142},{"name":"F#2","midi":42,"time":47.62499999999998,"velocity":0.5196850393700787,"duration":0.09218750000000142},{"name":"A#4","midi":70,"time":47.62499999999998,"velocity":0.41732283464566927,"duration":0.13750000000000284},{"name":"A#2","midi":46,"time":47.62499999999998,"velocity":0.5984251968503937,"duration":0.35468750000000426},{"name":"D5","midi":74,"time":47.62499999999998,"velocity":0.7086614173228346,"duration":0.18281250000000426},{"name":"F4","midi":65,"time":47.62499999999998,"velocity":0.44881889763779526,"duration":0.18281250000000426},{"name":"A#4","midi":70,"time":47.62499999999998,"velocity":0.6614173228346457,"duration":0.18281250000000426},{"name":"A#3","midi":58,"time":47.62499999999998,"velocity":0.5984251968503937,"duration":0.3656250000000014},{"name":"F3","midi":53,"time":47.62499999999998,"velocity":0.6141732283464567,"duration":0.3968750000000014},{"name":"D#4","midi":63,"time":47.62499999999998,"velocity":0.5826771653543307,"duration":0.3656250000000014},{"name":"A#4","midi":70,"time":47.812499999999986,"velocity":0.8740157480314961,"duration":0.20937499999999432},{"name":"F#2","midi":42,"time":47.812499999999986,"velocity":0.4094488188976378,"duration":0.08906249999999716},{"name":"A4","midi":69,"time":47.812499999999986,"velocity":0.23622047244094488,"duration":0.09687499999999716},{"name":"D5","midi":74,"time":47.812499999999986,"velocity":0.6614173228346457,"duration":0.18593749999999432},{"name":"F4","midi":65,"time":47.812499999999986,"velocity":0.23622047244094488,"duration":0.21406249999999716},{"name":"A#4","midi":70,"time":47.812499999999986,"velocity":0.4881889763779528,"duration":0.32343749999999716},{"name":"A#3","midi":58,"time":47.812499999999986,"velocity":0.5039370078740157,"duration":0.8609374999999844},{"name":"C2","midi":36,"time":47.99999999999998,"velocity":0.8267716535433071,"duration":0.5843750000000014},{"name":"D#3","midi":51,"time":47.99999999999998,"velocity":0.1968503937007874,"duration":4.842187499999959},{"name":"C2","midi":36,"time":47.99999999999998,"velocity":0.8503937007874016,"duration":1.5671874999999815},{"name":"F#2","midi":42,"time":47.99999999999998,"velocity":0.5748031496062992,"duration":0.11875000000000568},{"name":"A#4","midi":70,"time":47.99999999999998,"velocity":0.48031496062992124,"duration":0.15781250000000568},{"name":"G3","midi":55,"time":47.99999999999998,"velocity":0.6456692913385826,"duration":0.31718750000000284},{"name":"G4","midi":67,"time":47.99999999999998,"velocity":0.6614173228346457,"duration":0.35468749999999716},{"name":"D#5","midi":75,"time":47.99999999999998,"velocity":0.7559055118110236,"duration":0.6531249999999957},{"name":"A#4","midi":70,"time":47.99999999999998,"velocity":0.7086614173228346,"duration":0.3515625},{"name":"G3","midi":55,"time":47.99999999999998,"velocity":0.7086614173228346,"duration":0.73749999999999},{"name":"D#4","midi":63,"time":47.99999999999998,"velocity":0.7086614173228346,"duration":0.73749999999999},{"name":"A#3","midi":58,"time":47.99999999999998,"velocity":0.6614173228346457,"duration":0.73749999999999},{"name":"A#4","midi":70,"time":48.187499999999986,"velocity":0.8267716535433071,"duration":0.2640624999999943},{"name":"F#2","midi":42,"time":48.187499999999986,"velocity":0.3464566929133858,"duration":0.07343749999999716},{"name":"A4","midi":69,"time":48.187499999999986,"velocity":0.23622047244094488,"duration":0.10468749999999716},{"name":"F#2","midi":42,"time":48.37499999999998,"velocity":0.5511811023622047,"duration":0.09531249999999858},{"name":"A#4","midi":70,"time":48.37499999999998,"velocity":0.4015748031496063,"duration":0.13125000000000142},{"name":"G3","midi":55,"time":48.37499999999998,"velocity":0.6456692913385826,"duration":0.4359374999999943},{"name":"A#4","midi":70,"time":48.37499999999998,"velocity":0.5354330708661418,"duration":0.2968749999999929},{"name":"G4","midi":67,"time":48.37499999999998,"velocity":0.2992125984251969,"duration":0.27812499999999574},{"name":"D#4","midi":63,"time":48.56249999999998,"velocity":0.8267716535433071,"duration":0.19687499999999147},{"name":"F#2","midi":42,"time":48.56249999999998,"velocity":0.30708661417322836,"duration":0.05624999999999858},{"name":"A4","midi":69,"time":48.56249999999998,"velocity":0.33858267716535434,"duration":0.0937499999999929},{"name":"A#3","midi":58,"time":48.56249999999998,"velocity":0.2125984251968504,"duration":0.7390624999999886},{"name":"D#4","midi":63,"time":48.74999999999997,"velocity":0.8267716535433071,"duration":0.4921875},{"name":"D2","midi":38,"time":48.74999999999997,"velocity":0.8503937007874016,"duration":0.5046874999999957},{"name":"F#2","midi":42,"time":48.74999999999997,"velocity":0.5905511811023622,"duration":0.10312499999999858},{"name":"A#4","midi":70,"time":48.74999999999997,"velocity":0.29133858267716534,"duration":0.12656249999999858},{"name":"F3","midi":53,"time":48.74999999999997,"velocity":0.6614173228346457,"duration":0.3890625000000014},{"name":"G4","midi":67,"time":48.74999999999997,"velocity":0.6614173228346457,"duration":0.4906250000000014},{"name":"D#5","midi":75,"time":48.74999999999997,"velocity":0.7322834645669292,"duration":0.48750000000000426},{"name":"A#4","midi":70,"time":48.74999999999997,"velocity":0.6850393700787402,"duration":0.5015624999999986},{"name":"G3","midi":55,"time":48.74999999999997,"velocity":0.6141732283464567,"duration":0.5515624999999957},{"name":"A#3","midi":58,"time":48.74999999999997,"velocity":0.6614173228346457,"duration":1.0484374999999844},{"name":"D#4","midi":63,"time":48.74999999999997,"velocity":0.7086614173228346,"duration":0.5515624999999957},{"name":"F#2","midi":42,"time":48.93749999999997,"velocity":0.4645669291338583,"duration":0.0703125},{"name":"A4","midi":69,"time":48.93749999999997,"velocity":0.2755905511811024,"duration":0.10781250000000142},{"name":"F#2","midi":42,"time":49.12499999999997,"velocity":0.5196850393700787,"duration":0.09218750000000142},{"name":"A#4","midi":70,"time":49.12499999999997,"velocity":0.33070866141732286,"duration":0.15156249999999716},{"name":"G3","midi":55,"time":49.12499999999997,"velocity":0.6456692913385826,"duration":0.7390624999999886},{"name":"F#2","midi":42,"time":49.312499999999964,"velocity":0.4094488188976378,"duration":0.08906249999999716},{"name":"A4","midi":69,"time":49.312499999999964,"velocity":0.3937007874015748,"duration":0.09531249999999858},{"name":"G4","midi":67,"time":49.312499999999964,"velocity":0.6614173228346457,"duration":0.29374999999999574},{"name":"D#5","midi":75,"time":49.312499999999964,"velocity":0.7559055118110236,"duration":0.3124999999999929},{"name":"A#4","midi":70,"time":49.312499999999964,"velocity":0.6299212598425197,"duration":0.23749999999999716},{"name":"G3","midi":55,"time":49.312499999999964,"velocity":0.6850393700787402,"duration":0.56562499999999},{"name":"D#4","midi":63,"time":49.312499999999964,"velocity":0.7086614173228346,"duration":0.5515624999999957},{"name":"A#3","midi":58,"time":49.312499999999964,"velocity":0.6850393700787402,"duration":0.5515624999999957},{"name":"A#4","midi":70,"time":49.499999999999964,"velocity":0.8503937007874016,"duration":0.1171874999999929},{"name":"F#2","midi":42,"time":49.499999999999964,"velocity":0.5905511811023622,"duration":0.07968749999999858},{"name":"A#4","midi":70,"time":49.499999999999964,"velocity":0.3464566929133858,"duration":0.13437499999999147},{"name":"C2","midi":36,"time":49.68749999999996,"velocity":0.6299212598425197,"duration":0.046875},{"name":"A#4","midi":70,"time":49.68749999999996,"velocity":0.8976377952755905,"duration":0.125},{"name":"C2","midi":36,"time":49.68749999999996,"velocity":0.5984251968503937,"duration":0.09062500000000284},{"name":"F#2","midi":42,"time":49.68749999999996,"velocity":0.4330708661417323,"duration":0.06093750000000142},{"name":"A4","midi":69,"time":49.68749999999996,"velocity":0.28346456692913385,"duration":0.10000000000000142},{"name":"D#5","midi":75,"time":49.68749999999996,"velocity":0.4251968503937008,"duration":0.109375},{"name":"A#4","midi":70,"time":49.68749999999996,"velocity":0.44881889763779526,"duration":0.3187499999999943},{"name":"G4","midi":67,"time":49.68749999999996,"velocity":0.4881889763779528,"duration":0.11249999999999716},{"name":"A#3","midi":58,"time":49.68749999999996,"velocity":0.2283464566929134,"duration":0.7390624999999957},{"name":"C2","midi":36,"time":49.87499999999996,"velocity":0.6850393700787402,"duration":0.23906249999999574},{"name":"A#2","midi":46,"time":49.87499999999996,"velocity":0.6299212598425197,"duration":0.21562499999999574},{"name":"C2","midi":36,"time":49.87499999999996,"velocity":0.7795275590551181,"duration":0.7625000000000028},{"name":"A#4","midi":70,"time":49.87499999999996,"velocity":0.4251968503937008,"duration":0.13906249999999432},{"name":"F3","midi":53,"time":49.87499999999996,"velocity":0.5826771653543307,"duration":0.453125},{"name":"D#5","midi":75,"time":49.87499999999996,"velocity":0.7086614173228346,"duration":0.5578124999999972},{"name":"G4","midi":67,"time":49.87499999999996,"velocity":0.7322834645669292,"duration":0.5578124999999972},{"name":"A#4","midi":70,"time":49.87499999999996,"velocity":0.7086614173228346,"duration":0.5187499999999972},{"name":"D#4","midi":63,"time":49.87499999999996,"velocity":0.7322834645669292,"duration":0.5515624999999957},{"name":"G3","midi":55,"time":49.87499999999996,"velocity":0.7086614173228346,"duration":0.5515624999999957},{"name":"A#3","midi":58,"time":49.87499999999996,"velocity":0.6614173228346457,"duration":0.7421875},{"name":"D#4","midi":63,"time":50.06249999999995,"velocity":0.8267716535433071,"duration":0.3890625000000085},{"name":"A4","midi":69,"time":50.06249999999995,"velocity":0.2204724409448819,"duration":0.07968750000000568},{"name":"D2","midi":38,"time":50.24999999999996,"velocity":0.8740157480314961,"duration":0.5093749999999986},{"name":"F#2","midi":42,"time":50.24999999999996,"velocity":0.5905511811023622,"duration":0.10312499999999858},{"name":"A#4","midi":70,"time":50.24999999999996,"velocity":0.4645669291338583,"duration":0.18281249999999716},{"name":"G3","midi":55,"time":50.24999999999996,"velocity":0.6850393700787402,"duration":0.3671875},{"name":"F#2","midi":42,"time":50.43749999999996,"velocity":0.4645669291338583,"duration":0.0703125},{"name":"A4","midi":69,"time":50.43749999999996,"velocity":0.25196850393700787,"duration":0.08749999999999858},{"name":"D#5","midi":75,"time":50.43749999999996,"velocity":0.5669291338582677,"duration":0.18281249999999716},{"name":"A#4","midi":70,"time":50.43749999999996,"velocity":0.5039370078740157,"duration":0.18281249999999716},{"name":"G4","midi":67,"time":50.43749999999996,"velocity":0.5196850393700787,"duration":0.18281249999999716},{"name":"A#3","midi":58,"time":50.43749999999996,"velocity":0.4015748031496063,"duration":0.4624999999999986},{"name":"G3","midi":55,"time":50.43749999999996,"velocity":0.33858267716535434,"duration":0.5484375000000057},{"name":"D#4","midi":63,"time":50.43749999999996,"velocity":0.33070866141732286,"duration":0.1796875},{"name":"G1","midi":31,"time":50.62499999999996,"velocity":0.7559055118110236,"duration":0.45625000000000426},{"name":"D#4","midi":63,"time":50.62499999999996,"velocity":0.8267716535433071,"duration":0.06093750000000142},{"name":"F#2","midi":42,"time":50.62499999999996,"velocity":0.5196850393700787,"duration":0.09218750000000142},{"name":"A#4","midi":70,"time":50.62499999999996,"velocity":0.4251968503937008,"duration":0.125},{"name":"A#4","midi":70,"time":50.62499999999996,"velocity":0.6299212598425197,"duration":0.18281249999999716},{"name":"G4","midi":67,"time":50.62499999999996,"velocity":0.5826771653543307,"duration":0.18281249999999716},{"name":"D#5","midi":75,"time":50.62499999999996,"velocity":0.6141732283464567,"duration":0.18281249999999716},{"name":"A#3","midi":58,"time":50.62499999999996,"velocity":0.6850393700787402,"duration":0.3656250000000085},{"name":"G3","midi":55,"time":50.62499999999996,"velocity":0.6141732283464567,"duration":0.3656250000000085},{"name":"D#4","midi":63,"time":50.62499999999996,"velocity":0.5669291338582677,"duration":0.3656250000000085},{"name":"A#4","midi":70,"time":50.81249999999996,"velocity":0.8503937007874016,"duration":0.14375000000000426},{"name":"F#2","midi":42,"time":50.81249999999996,"velocity":0.4094488188976378,"duration":0.08906249999999716},{"name":"A4","midi":69,"time":50.81249999999996,"velocity":0.3464566929133858,"duration":0.10312499999999858},{"name":"G4","midi":67,"time":50.81249999999996,"velocity":0.29133858267716534,"duration":0.13125000000000142},{"name":"A#4","midi":70,"time":50.81249999999996,"velocity":0.25196850393700787,"duration":0.2906250000000057},{"name":"A#3","midi":58,"time":50.81249999999996,"velocity":0.4881889763779528,"duration":0.8609374999999986},{"name":"C2","midi":36,"time":50.999999999999964,"velocity":0.7795275590551181,"duration":0.5843750000000014},{"name":"C2","midi":36,"time":50.999999999999964,"velocity":0.8503937007874016,"duration":1.42812499999998},{"name":"F#2","midi":42,"time":50.999999999999964,"velocity":0.5905511811023622,"duration":0.1328125},{"name":"A#4","midi":70,"time":50.999999999999964,"velocity":0.41732283464566927,"duration":0.3109375000000014},{"name":"G3","midi":55,"time":50.999999999999964,"velocity":0.7559055118110236,"duration":0.34375},{"name":"G4","midi":67,"time":50.999999999999964,"velocity":0.6614173228346457,"duration":0.35468749999999716},{"name":"D#5","midi":75,"time":50.999999999999964,"velocity":0.7559055118110236,"duration":0.6531249999999957},{"name":"A#4","midi":70,"time":50.999999999999964,"velocity":0.7086614173228346,"duration":0.3359375},{"name":"G3","midi":55,"time":50.999999999999964,"velocity":0.7086614173228346,"duration":0.73749999999999},{"name":"D#4","midi":63,"time":50.999999999999964,"velocity":0.7086614173228346,"duration":0.73749999999999},{"name":"A#3","midi":58,"time":50.999999999999964,"velocity":0.6614173228346457,"duration":0.73749999999999},{"name":"F#2","midi":42,"time":51.187499999999964,"velocity":0.3464566929133858,"duration":0.05312500000000142},{"name":"A#4","midi":70,"time":51.187499999999964,"velocity":0.4251968503937008,"duration":0.1640625},{"name":"A#4","midi":70,"time":51.374999999999964,"velocity":0.8031496062992126,"duration":0.2749999999999986},{"name":"F#2","midi":42,"time":51.374999999999964,"velocity":0.5196850393700787,"duration":0.1015625},{"name":"A4","midi":69,"time":51.374999999999964,"velocity":0.33070866141732286,"duration":0.10000000000000142},{"name":"G3","midi":55,"time":51.374999999999964,"velocity":0.5669291338582677,"duration":0.38593749999999005},{"name":"A#4","midi":70,"time":51.374999999999964,"velocity":0.5354330708661418,"duration":0.2968749999999929},{"name":"G4","midi":67,"time":51.374999999999964,"velocity":0.2992125984251969,"duration":0.27812499999999574},{"name":"F#2","midi":42,"time":51.562499999999964,"velocity":0.3543307086614173,"duration":0.04531250000000142},{"name":"A#4","midi":70,"time":51.562499999999964,"velocity":0.4015748031496063,"duration":0.16718749999999005},{"name":"A#3","midi":58,"time":51.562499999999964,"velocity":0.2125984251968504,"duration":0.7390624999999744},{"name":"D#4","midi":63,"time":51.74999999999996,"velocity":0.8503937007874016,"duration":0.39531249999999574},{"name":"D2","midi":38,"time":51.74999999999996,"velocity":0.8503937007874016,"duration":0.5046874999999815},{"name":"F#2","midi":42,"time":51.74999999999996,"velocity":0.5905511811023622,"duration":0.09531249999999858},{"name":"A#4","midi":70,"time":51.74999999999996,"velocity":0.41732283464566927,"duration":0.14999999999999858},{"name":"F3","midi":53,"time":51.74999999999996,"velocity":0.5669291338582677,"duration":0.3593749999999929},{"name":"G4","midi":67,"time":51.74999999999996,"velocity":0.6614173228346457,"duration":0.4906249999999872},{"name":"D#5","midi":75,"time":51.74999999999996,"velocity":0.7322834645669292,"duration":0.48749999999999005},{"name":"A#4","midi":70,"time":51.74999999999996,"velocity":0.6850393700787402,"duration":0.4765624999999929},{"name":"G3","midi":55,"time":51.74999999999996,"velocity":0.6141732283464567,"duration":0.5515624999999815},{"name":"A#3","midi":58,"time":51.74999999999996,"velocity":0.6614173228346457,"duration":1.0484374999999773},{"name":"D#4","midi":63,"time":51.74999999999996,"velocity":0.7086614173228346,"duration":0.5515624999999815},{"name":"F#2","midi":42,"time":51.93749999999996,"velocity":0.3543307086614173,"duration":0.06406249999999858},{"name":"A4","midi":69,"time":51.93749999999996,"velocity":0.3779527559055118,"duration":0.06718749999999574},{"name":"A#4","midi":70,"time":52.12499999999995,"velocity":0.8267716535433071,"duration":0.12656249999999147},{"name":"F#2","midi":42,"time":52.12499999999995,"velocity":0.44881889763779526,"duration":0.10312499999999858},{"name":"A#4","midi":70,"time":52.12499999999995,"velocity":0.3937007874015748,"duration":0.2828124999999915},{"name":"G3","midi":55,"time":52.12499999999995,"velocity":0.6141732283464567,"duration":0.7390624999999886},{"name":"C2","midi":36,"time":52.312499999999936,"velocity":0.8267716535433071,"duration":0.27031250000000995},{"name":"F#2","midi":42,"time":52.312499999999936,"velocity":0.3779527559055118,"duration":0.05937500000000284},{"name":"A#4","midi":70,"time":52.312499999999936,"velocity":0.48031496062992124,"duration":0.3046875000000071},{"name":"G4","midi":67,"time":52.312499999999936,"velocity":0.6614173228346457,"duration":0.29375000000000995},{"name":"D#5","midi":75,"time":52.312499999999936,"velocity":0.7559055118110236,"duration":0.3125000000000071},{"name":"A#4","midi":70,"time":52.312499999999936,"velocity":0.6299212598425197,"duration":0.3062500000000057},{"name":"G3","midi":55,"time":52.312499999999936,"velocity":0.6850393700787402,"duration":0.5515625000000028},{"name":"D#4","midi":63,"time":52.312499999999936,"velocity":0.7086614173228346,"duration":0.5515625000000028},{"name":"A#3","midi":58,"time":52.312499999999936,"velocity":0.6850393700787402,"duration":0.5515625000000028},{"name":"F#2","midi":42,"time":52.49999999999994,"velocity":0.6141732283464567,"duration":0.07656250000000142},{"name":"A#4","midi":70,"time":52.49999999999994,"velocity":0.4251968503937008,"duration":0.12656249999999858},{"name":"C2","midi":36,"time":52.68749999999994,"velocity":0.5984251968503937,"duration":0.046875},{"name":"C2","midi":36,"time":52.68749999999994,"velocity":0.5984251968503937,"duration":0.09843749999999574},{"name":"F#2","midi":42,"time":52.68749999999994,"velocity":0.4330708661417323,"duration":0.0546875},{"name":"A4","midi":69,"time":52.68749999999994,"velocity":0.2755905511811024,"duration":0.07968749999999858},{"name":"D#5","midi":75,"time":52.68749999999994,"velocity":0.4251968503937008,"duration":0.1093749999999929},{"name":"A#4","midi":70,"time":52.68749999999994,"velocity":0.44881889763779526,"duration":0.1249999999999929},{"name":"G4","midi":67,"time":52.68749999999994,"velocity":0.4881889763779528,"duration":0.11249999999999005},{"name":"A#3","midi":58,"time":52.68749999999994,"velocity":0.2283464566929134,"duration":0.7390624999999957},{"name":"C2","midi":36,"time":52.874999999999936,"velocity":0.8031496062992126,"duration":0.23906250000000284},{"name":"F4","midi":65,"time":52.874999999999936,"velocity":0.7795275590551181,"duration":0.6328125000000071},{"name":"F3","midi":53,"time":52.874999999999936,"velocity":0.6614173228346457,"duration":0.5796875000000057},{"name":"F4","midi":65,"time":52.874999999999936,"velocity":0.8503937007874016,"duration":0.6453125000000028},{"name":"C2","midi":36,"time":52.874999999999936,"velocity":0.7795275590551181,"duration":0.7749999999999986},{"name":"A#2","midi":46,"time":52.874999999999936,"velocity":0.8740157480314961,"duration":0.3421875000000014},{"name":"A#4","midi":70,"time":52.874999999999936,"velocity":0.41732283464566927,"duration":0.09375},{"name":"F3","midi":53,"time":52.874999999999936,"velocity":0.8503937007874016,"duration":0.6531250000000028},{"name":"D#5","midi":75,"time":52.874999999999936,"velocity":0.7086614173228346,"duration":0.5578125000000043},{"name":"G4","midi":67,"time":52.874999999999936,"velocity":0.7322834645669292,"duration":0.5578125000000043},{"name":"A#4","midi":70,"time":52.874999999999936,"velocity":0.7086614173228346,"duration":0.47187499999999716},{"name":"D#4","midi":63,"time":52.874999999999936,"velocity":0.7322834645669292,"duration":0.5515625000000028},{"name":"G3","midi":55,"time":52.874999999999936,"velocity":0.7086614173228346,"duration":0.5515625000000028},{"name":"A#3","midi":58,"time":52.874999999999936,"velocity":0.6614173228346457,"duration":0.5937500000000071},{"name":"F4","midi":65,"time":52.874999999999936,"velocity":0.8503937007874016,"duration":0.6453125000000028},{"name":"A4","midi":69,"time":53.062499999999936,"velocity":0.28346456692913385,"duration":0.09062500000000284},{"name":"D2","midi":38,"time":53.249999999999936,"velocity":0.8346456692913385,"duration":0.1015625},{"name":"F#2","midi":42,"time":53.249999999999936,"velocity":0.3858267716535433,"duration":0.09687499999999716},{"name":"A#4","midi":70,"time":53.249999999999936,"velocity":0.48031496062992124,"duration":0.18281250000000426},{"name":"G4","midi":67,"time":53.43749999999994,"velocity":0.6850393700787402,"duration":0.18281249999999005},{"name":"G3","midi":55,"time":53.43749999999994,"velocity":0.6456692913385826,"duration":0.1796874999999929},{"name":"G4","midi":67,"time":53.43749999999994,"velocity":0.6141732283464567,"duration":0.37031249999999005},{"name":"A#2","midi":46,"time":53.43749999999994,"velocity":0.5275590551181102,"duration":0.07968749999999858},{"name":"D2","midi":38,"time":53.43749999999994,"velocity":0.6614173228346457,"duration":0.1015624999999929},{"name":"A#4","midi":70,"time":53.43749999999994,"velocity":0.48031496062992124,"duration":0.12187499999999574},{"name":"G3","midi":55,"time":53.43749999999994,"velocity":0.7795275590551181,"duration":0.5234374999999929},{"name":"D#5","midi":75,"time":53.43749999999994,"velocity":0.5669291338582677,"duration":0.18281249999999005},{"name":"A#4","midi":70,"time":53.43749999999994,"velocity":0.5039370078740157,"duration":0.18281249999999005},{"name":"G4","midi":67,"time":53.43749999999994,"velocity":0.5196850393700787,"duration":0.5062499999999872},{"name":"A#3","midi":58,"time":53.43749999999994,"velocity":0.4015748031496063,"duration":0.1796874999999929},{"name":"G3","midi":55,"time":53.43749999999994,"velocity":0.33858267716535434,"duration":0.5531249999999943},{"name":"D#4","midi":63,"time":53.43749999999994,"velocity":0.33070866141732286,"duration":0.1796874999999929},{"name":"G4","midi":67,"time":53.43749999999994,"velocity":0.6141732283464567,"duration":0.56562499999999},{"name":"G1","midi":31,"time":53.624999999999936,"velocity":0.7795275590551181,"duration":0.4750000000000014},{"name":"A#2","midi":46,"time":53.624999999999936,"velocity":0.5039370078740157,"duration":0.09687499999999716},{"name":"A2","midi":45,"time":53.624999999999936,"velocity":0.7322834645669292,"duration":0.15312499999999574},{"name":"A4","midi":69,"time":53.624999999999936,"velocity":0.3779527559055118,"duration":0.09531249999999858},{"name":"A#4","midi":70,"time":53.624999999999936,"velocity":0.6299212598425197,"duration":0.18281249999999716},{"name":"G4","midi":67,"time":53.624999999999936,"velocity":0.5826771653543307,"duration":0.40156249999999716},{"name":"D#5","midi":75,"time":53.624999999999936,"velocity":0.6141732283464567,"duration":0.18281249999999716},{"name":"A#3","midi":58,"time":53.624999999999936,"velocity":0.6850393700787402,"duration":0.2749999999999986},{"name":"G3","midi":55,"time":53.624999999999936,"velocity":0.6141732283464567,"duration":0.40937499999999716},{"name":"D#4","midi":63,"time":53.624999999999936,"velocity":0.5669291338582677,"duration":0.3656250000000014},{"name":"A#2","midi":46,"time":53.812499999999936,"velocity":0.4566929133858268,"duration":0.07968749999999858},{"name":"G2","midi":43,"time":53.812499999999936,"velocity":0.6614173228346457,"duration":0.12812499999999716},{"name":"A#4","midi":70,"time":53.812499999999936,"velocity":0.4409448818897638,"duration":0.09375},{"name":"G4","midi":67,"time":53.812499999999936,"velocity":0.29133858267716534,"duration":0.21406249999999716},{"name":"A#4","midi":70,"time":53.812499999999936,"velocity":0.25196850393700787,"duration":0.14374999999999716},{"name":"A#3","midi":58,"time":53.812499999999936,"velocity":0.4881889763779528,"duration":0.17812500000000142},{"name":"G#1","midi":32,"time":53.999999999999936,"velocity":0.8740157480314961,"duration":1.1781249999999872},{"name":"D#3","midi":51,"time":53.999999999999936,"velocity":0.7086614173228346,"duration":0.6328124999999929},{"name":"G#3","midi":56,"time":53.999999999999936,"velocity":0.5984251968503937,"duration":0.5515624999999957},{"name":"G#2","midi":44,"time":53.999999999999936,"velocity":0.7086614173228346,"duration":1.2624999999999886},{"name":"C4","midi":60,"time":53.999999999999936,"velocity":0.6456692913385826,"duration":0.73749999999999},{"name":"D#4","midi":63,"time":53.999999999999936,"velocity":0.6614173228346457,"duration":0.2906249999999986},{"name":"G#3","midi":56,"time":53.999999999999936,"velocity":0.3700787401574803,"duration":0.73749999999999},{"name":"C4","midi":60,"time":53.999999999999936,"velocity":0.4645669291338583,"duration":1.0359374999999886},{"name":"D#4","midi":63,"time":53.999999999999936,"velocity":0.6614173228346457,"duration":0.73749999999999},{"name":"A4","midi":69,"time":53.999999999999936,"velocity":0.4015748031496063,"duration":0.125},{"name":"C2","midi":36,"time":53.999999999999936,"velocity":0.9212598425196851,"duration":0.5453124999999943},{"name":"C#3","midi":49,"time":53.999999999999936,"velocity":0.7086614173228346,"duration":0.08437500000000142},{"name":"F#3","midi":54,"time":53.999999999999936,"velocity":0.6771653543307087,"duration":0.07968749999999858},{"name":"C4","midi":60,"time":53.999999999999936,"velocity":0.7086614173228346,"duration":1.2281249999999844},{"name":"G#3","midi":56,"time":53.999999999999936,"velocity":0.7795275590551181,"duration":0.9531249999999929},{"name":"D#4","midi":63,"time":53.999999999999936,"velocity":0.7086614173228346,"duration":1.0546874999999858},{"name":"D#4","midi":63,"time":53.999999999999936,"velocity":0.6614173228346457,"duration":1.2421874999999858},{"name":"F#2","midi":42,"time":54.187499999999936,"velocity":0.4645669291338583,"duration":0.046875},{"name":"A#4","midi":70,"time":54.187499999999936,"velocity":0.4251968503937008,"duration":0.14531249999999574},{"name":"F#3","midi":54,"time":54.187499999999936,"velocity":0.18110236220472442,"duration":0.05312500000000142},{"name":"D#4","midi":63,"time":54.37499999999993,"velocity":0.6456692913385826,"duration":1.0593749999999886},{"name":"D#5","midi":75,"time":54.37499999999993,"velocity":0.8740157480314961,"duration":0.3515625},{"name":"F#3","midi":54,"time":54.37499999999993,"velocity":0.3543307086614173,"duration":0.09218750000000142},{"name":"A4","midi":69,"time":54.37499999999993,"velocity":0.3464566929133858,"duration":0.11406250000000284},{"name":"F#2","midi":42,"time":54.37499999999993,"velocity":0.4330708661417323,"duration":0.07187499999999858},{"name":"D#4","midi":63,"time":54.37499999999993,"velocity":0.6614173228346457,"duration":1.2578124999999858},{"name":"C4","midi":60,"time":54.37499999999993,"velocity":0.6850393700787402,"duration":1.0687499999999872},{"name":"A#4","midi":70,"time":54.37499999999993,"velocity":0.7559055118110236,"duration":0.34687499999999716},{"name":"G#3","midi":56,"time":54.37499999999993,"velocity":0.2440944881889764,"duration":0.8796874999999957},{"name":"F#3","midi":54,"time":54.56249999999993,"velocity":0.29133858267716534,"duration":0.06875000000000142},{"name":"F#2","midi":42,"time":54.56249999999993,"velocity":0.33858267716535434,"duration":0.0390625},{"name":"A#4","midi":70,"time":54.56249999999993,"velocity":0.4409448818897638,"duration":0.36406250000000284},{"name":"A#5","midi":82,"time":54.74999999999993,"velocity":0.8267716535433071,"duration":0.2515624999999986},{"name":"D2","midi":38,"time":54.74999999999993,"velocity":0.8976377952755905,"duration":0.4453124999999929},{"name":"F#2","midi":42,"time":54.74999999999993,"velocity":0.7086614173228346,"duration":0.11093749999999858},{"name":"A4","midi":69,"time":54.74999999999993,"velocity":0.25196850393700787,"duration":0.12343750000000142},{"name":"F#3","midi":54,"time":54.74999999999993,"velocity":0.7007874015748031,"duration":0.08749999999999858},{"name":"G#3","midi":56,"time":54.74999999999993,"velocity":0.7795275590551181,"duration":0.7968749999999929},{"name":"D#4","midi":63,"time":54.74999999999993,"velocity":0.7559055118110236,"duration":0.8828124999999858},{"name":"G5","midi":79,"time":54.93749999999993,"velocity":0.7559055118110236,"duration":0.23124999999999574},{"name":"F#2","midi":42,"time":54.93749999999993,"velocity":0.4251968503937008,"duration":0.05624999999999858},{"name":"F#3","midi":54,"time":54.93749999999993,"velocity":0.2125984251968504,"duration":0.06875000000000142},{"name":"A#4","midi":70,"time":54.93749999999993,"velocity":0.41732283464566927,"duration":0.09531249999999858},{"name":"A#4","midi":70,"time":54.93749999999993,"velocity":0.5196850393700787,"duration":0.13749999999999574},{"name":"D#3","midi":51,"time":55.12499999999992,"velocity":0.3700787401574803,"duration":0.10781250000000142},{"name":"G#3","midi":56,"time":55.12499999999992,"velocity":0.4881889763779528,"duration":0.4468749999999986},{"name":"F#3","midi":54,"time":55.12499999999992,"velocity":0.5196850393700787,"duration":0.09531249999999858},{"name":"A4","midi":69,"time":55.12499999999992,"velocity":0.3543307086614173,"duration":0.11093749999999858},{"name":"F#2","midi":42,"time":55.12499999999992,"velocity":0.5984251968503937,"duration":0.09843749999999574},{"name":"D#4","midi":63,"time":55.12499999999992,"velocity":0.5984251968503937,"duration":0.5484374999999915},{"name":"C4","midi":60,"time":55.12499999999992,"velocity":0.5354330708661418,"duration":0.4078124999999986},{"name":"A#4","midi":70,"time":55.12499999999992,"velocity":0.6614173228346457,"duration":0.13437500000000568},{"name":"G#1","midi":32,"time":55.31249999999992,"velocity":0.5826771653543307,"duration":0.10624999999999574},{"name":"G5","midi":79,"time":55.31249999999992,"velocity":0.8267716535433071,"duration":0.29999999999999716},{"name":"F#2","midi":42,"time":55.31249999999992,"velocity":0.3858267716535433,"duration":0.04843749999999858},{"name":"A#4","midi":70,"time":55.31249999999992,"velocity":0.4015748031496063,"duration":0.13124999999999432},{"name":"F#3","midi":54,"time":55.31249999999992,"velocity":0.29133858267716534,"duration":0.05781249999999716},{"name":"G#3","midi":56,"time":55.31249999999992,"velocity":0.44881889763779526,"duration":0.3609374999999915},{"name":"A#1","midi":34,"time":55.499999999999915,"velocity":0.6850393700787402,"duration":0.33906249999999005},{"name":"A#3","midi":58,"time":55.499999999999915,"velocity":0.5354330708661418,"duration":0.27812499999999574},{"name":"F4","midi":65,"time":55.499999999999915,"velocity":0.48031496062992124,"duration":0.26874999999999716},{"name":"A#2","midi":46,"time":55.499999999999915,"velocity":0.7086614173228346,"duration":1.4515624999999943},{"name":"D4","midi":62,"time":55.499999999999915,"velocity":0.6456692913385826,"duration":0.3343749999999943},{"name":"D#5","midi":75,"time":55.499999999999915,"velocity":0.8267716535433071,"duration":0.34843749999998863},{"name":"A#3","midi":58,"time":55.499999999999915,"velocity":0.4645669291338583,"duration":0.6156249999999872},{"name":"F3","midi":53,"time":55.499999999999915,"velocity":0.36220472440944884,"duration":1.50312499999999},{"name":"A4","midi":69,"time":55.499999999999915,"velocity":0.25196850393700787,"duration":0.11406250000000284},{"name":"C2","midi":36,"time":55.499999999999915,"velocity":0.8267716535433071,"duration":0.22187499999999716},{"name":"F#3","midi":54,"time":55.499999999999915,"velocity":0.5905511811023622,"duration":0.10000000000000142},{"name":"F#2","midi":42,"time":55.499999999999915,"velocity":0.8031496062992126,"duration":0.09062500000000284},{"name":"D4","midi":62,"time":55.499999999999915,"velocity":0.6141732283464567,"duration":0.3359374999999929},{"name":"F4","midi":65,"time":55.499999999999915,"velocity":0.5511811023622047,"duration":0.7390624999999886},{"name":"A#4","midi":70,"time":55.499999999999915,"velocity":0.6456692913385826,"duration":0.35468749999999005},{"name":"F#2","midi":42,"time":55.687499999999915,"velocity":0.3464566929133858,"duration":0.04218749999999716},{"name":"F#3","midi":54,"time":55.687499999999915,"velocity":0.31496062992125984,"duration":0.07343749999999716},{"name":"A#4","midi":70,"time":55.687499999999915,"velocity":0.3228346456692913,"duration":0.1859374999999872},{"name":"A#3","midi":58,"time":55.687499999999915,"velocity":0.6299212598425197,"duration":0.5515624999999886},{"name":"D4","midi":62,"time":55.687499999999915,"velocity":0.6850393700787402,"duration":0.5515624999999886},{"name":"F4","midi":65,"time":55.687499999999915,"velocity":0.6850393700787402,"duration":0.7281249999999915},{"name":"A#1","midi":34,"time":55.8749999999999,"velocity":0.7795275590551181,"duration":0.7406250000000085},{"name":"A#3","midi":58,"time":55.8749999999999,"velocity":0.5984251968503937,"duration":0.6421875000000057},{"name":"F4","midi":65,"time":55.8749999999999,"velocity":0.6614173228346457,"duration":0.92656250000001},{"name":"D4","midi":62,"time":55.8749999999999,"velocity":0.6850393700787402,"duration":0.5281250000000028},{"name":"A4","midi":69,"time":55.8749999999999,"velocity":0.3464566929133858,"duration":0.11093749999999858},{"name":"F#3","midi":54,"time":55.8749999999999,"velocity":0.5511811023622047,"duration":0.10468749999999716},{"name":"C2","midi":36,"time":55.8749999999999,"velocity":0.8740157480314961,"duration":0.3031250000000014},{"name":"F#2","midi":42,"time":55.8749999999999,"velocity":0.5826771653543307,"duration":0.09375},{"name":"C5","midi":72,"time":55.8749999999999,"velocity":0.8031496062992126,"duration":0.5875000000000057},{"name":"D4","midi":62,"time":55.8749999999999,"velocity":0.7795275590551181,"duration":0.6906250000000114},{"name":"A#3","midi":58,"time":55.8749999999999,"velocity":0.48031496062992124,"duration":0.92656250000001},{"name":"F#2","midi":42,"time":56.0624999999999,"velocity":0.31496062992125984,"duration":0.05781250000000426},{"name":"F#3","midi":54,"time":56.0624999999999,"velocity":0.25984251968503935,"duration":0.06562500000000426},{"name":"A#4","midi":70,"time":56.0624999999999,"velocity":0.4015748031496063,"duration":0.15156250000000426},{"name":"A4","midi":69,"time":56.2499999999999,"velocity":0.25984251968503935,"duration":0.125},{"name":"D2","midi":38,"time":56.2499999999999,"velocity":0.8503937007874016,"duration":0.3031250000000085},{"name":"F#3","midi":54,"time":56.2499999999999,"velocity":0.5196850393700787,"duration":0.109375},{"name":"F#2","midi":42,"time":56.2499999999999,"velocity":0.7322834645669292,"duration":0.09843750000000284},{"name":"D4","midi":62,"time":56.2499999999999,"velocity":0.7086614173228346,"duration":0.55156250000001},{"name":"F4","midi":65,"time":56.2499999999999,"velocity":0.6850393700787402,"duration":0.7125000000000057},{"name":"A#3","midi":58,"time":56.2499999999999,"velocity":0.8267716535433071,"duration":0.7421875000000071},{"name":"D#4","midi":63,"time":56.43749999999991,"velocity":0.5039370078740157,"duration":0.16875000000000284},{"name":"F#3","midi":54,"time":56.43749999999991,"velocity":0.2204724409448819,"duration":0.04218749999999716},{"name":"A#4","midi":70,"time":56.43749999999991,"velocity":0.33858267716535434,"duration":0.13437500000000568},{"name":"F#2","midi":42,"time":56.43749999999991,"velocity":0.33858267716535434,"duration":0.05156249999999574},{"name":"A#4","midi":70,"time":56.43749999999991,"velocity":0.7322834645669292,"duration":0.49687500000000284},{"name":"D4","midi":62,"time":56.43749999999991,"velocity":0.7559055118110236,"duration":0.5078125},{"name":"D2","midi":38,"time":56.62499999999991,"velocity":0.8031496062992126,"duration":0.42499999999999716},{"name":"D4","midi":62,"time":56.62499999999991,"velocity":0.4251968503937008,"duration":0.3671875},{"name":"F4","midi":65,"time":56.62499999999991,"velocity":0.7322834645669292,"duration":0.3671875},{"name":"A#3","midi":58,"time":56.62499999999991,"velocity":0.5984251968503937,"duration":0.40312499999999574},{"name":"A4","midi":69,"time":56.62499999999991,"velocity":0.3779527559055118,"duration":0.09843750000000284},{"name":"F#2","midi":42,"time":56.62499999999991,"velocity":0.6614173228346457,"duration":0.0703125},{"name":"F#3","midi":54,"time":56.62499999999991,"velocity":0.6141732283464567,"duration":0.09843750000000284},{"name":"F#3","midi":54,"time":56.81249999999991,"velocity":0.14173228346456693,"duration":0.06093750000000142},{"name":"F#2","midi":42,"time":56.81249999999991,"velocity":0.4094488188976378,"duration":0.04375000000000284},{"name":"A#4","midi":70,"time":56.81249999999991,"velocity":0.4409448818897638,"duration":0.171875},{"name":"A#3","midi":58,"time":56.81249999999991,"velocity":0.4094488188976378,"duration":0.7234374999999957},{"name":"D4","midi":62,"time":56.81249999999991,"velocity":0.44881889763779526,"duration":0.18906249999999858},{"name":"F4","midi":65,"time":56.81249999999991,"velocity":0.3779527559055118,"duration":0.21249999999999858},{"name":"D#2","midi":39,"time":56.99999999999991,"velocity":0.8503937007874016,"duration":1.210937499999993},{"name":"D#3","midi":51,"time":56.99999999999991,"velocity":0.5826771653543307,"duration":1.08124999999999},{"name":"D#2","midi":39,"time":56.99999999999991,"velocity":0.6614173228346457,"duration":1.4281249999999872},{"name":"D#4","midi":63,"time":56.99999999999991,"velocity":0.5984251968503937,"duration":0.060937499999994316},{"name":"G4","midi":67,"time":56.99999999999991,"velocity":0.6850393700787402,"duration":0.09218749999999432},{"name":"A#3","midi":58,"time":56.99999999999991,"velocity":0.6456692913385826,"duration":0.73749999999999},{"name":"G3","midi":55,"time":56.99999999999991,"velocity":0.3779527559055118,"duration":1.8687499999999773},{"name":"F#2","midi":42,"time":56.99999999999991,"velocity":0.8267716535433071,"duration":0.07343749999999716},{"name":"C2","midi":36,"time":56.99999999999991,"velocity":0.8740157480314961,"duration":0.3609374999999915},{"name":"A4","midi":69,"time":56.99999999999991,"velocity":0.2125984251968504,"duration":0.13437499999999147},{"name":"F#3","midi":54,"time":56.99999999999991,"velocity":0.6141732283464567,"duration":0.0937499999999929},{"name":"G4","midi":67,"time":56.99999999999991,"velocity":0.3464566929133858,"duration":0.73749999999999},{"name":"D#4","midi":63,"time":56.99999999999991,"velocity":0.30708661417322836,"duration":0.31562499999999005},{"name":"D#4","midi":63,"time":56.99999999999991,"velocity":0.5354330708661418,"duration":0.73749999999999},{"name":"A#3","midi":58,"time":56.99999999999991,"velocity":0.6614173228346457,"duration":1.3015624999999886},{"name":"G4","midi":67,"time":56.99999999999991,"velocity":0.7795275590551181,"duration":1.023437499999993},{"name":"F#2","midi":42,"time":57.1874999999999,"velocity":0.4881889763779528,"duration":0.04843749999999858},{"name":"A#4","midi":70,"time":57.1874999999999,"velocity":0.3543307086614173,"duration":0.14999999999999858},{"name":"F#3","midi":54,"time":57.1874999999999,"velocity":0.33070866141732286,"duration":0.06562499999999716},{"name":"D#4","midi":63,"time":57.3749999999999,"velocity":0.4251968503937008,"duration":0.41718749999999716},{"name":"G3","midi":55,"time":57.3749999999999,"velocity":0.3858267716535433,"duration":2.468749999999986},{"name":"D#5","midi":75,"time":57.3749999999999,"velocity":0.8740157480314961,"duration":0.3671875},{"name":"F#2","midi":42,"time":57.3749999999999,"velocity":0.5354330708661418,"duration":0.07656250000000142},{"name":"F#3","midi":54,"time":57.3749999999999,"velocity":0.5354330708661418,"duration":0.09531249999999858},{"name":"A4","midi":69,"time":57.3749999999999,"velocity":0.25984251968503935,"duration":0.1015625},{"name":"G4","midi":67,"time":57.3749999999999,"velocity":0.6850393700787402,"duration":0.9265624999999957},{"name":"A#4","midi":70,"time":57.3749999999999,"velocity":0.6850393700787402,"duration":0.3421874999999943},{"name":"D#4","midi":63,"time":57.3749999999999,"velocity":0.6614173228346457,"duration":0.6453125000000028},{"name":"A#3","midi":58,"time":57.3749999999999,"velocity":0.4645669291338583,"duration":1.2374999999999972},{"name":"F#3","midi":54,"time":57.5624999999999,"velocity":0.25984251968503935,"duration":0.060937499999994316},{"name":"A#4","midi":70,"time":57.5624999999999,"velocity":0.4251968503937008,"duration":0.44843750000000426},{"name":"F#2","midi":42,"time":57.5624999999999,"velocity":0.48031496062992124,"duration":0.04218749999999716},{"name":"A#5","midi":82,"time":57.7499999999999,"velocity":0.7795275590551181,"duration":0.25468750000000284},{"name":"F#2","midi":42,"time":57.7499999999999,"velocity":0.7322834645669292,"duration":0.07499999999999574},{"name":"A4","midi":69,"time":57.7499999999999,"velocity":0.30708661417322836,"duration":0.11562500000000142},{"name":"D2","midi":38,"time":57.7499999999999,"velocity":0.8976377952755905,"duration":0.3984375},{"name":"F#3","midi":54,"time":57.7499999999999,"velocity":0.6141732283464567,"duration":0.10312499999999858},{"name":"D#4","midi":63,"time":57.7499999999999,"velocity":0.6456692913385826,"duration":0.5515624999999957},{"name":"G4","midi":67,"time":57.7499999999999,"velocity":0.7086614173228346,"duration":0.8843749999999986},{"name":"A#3","midi":58,"time":57.7499999999999,"velocity":0.8031496062992126,"duration":0.9281250000000014},{"name":"D#4","midi":63,"time":57.9374999999999,"velocity":0.5826771653543307,"duration":0.6937500000000014},{"name":"G5","midi":79,"time":57.9374999999999,"velocity":0.8031496062992126,"duration":0.22187499999999716},{"name":"F#2","midi":42,"time":57.9374999999999,"velocity":0.4566929133858268,"duration":0.046875},{"name":"F#3","midi":54,"time":57.9374999999999,"velocity":0.1889763779527559,"duration":0.07343750000000426},{"name":"A#4","midi":70,"time":57.9374999999999,"velocity":0.4015748031496063,"duration":0.1484375},{"name":"F#3","midi":54,"time":58.1249999999999,"velocity":0.5039370078740157,"duration":0.12968749999999574},{"name":"F#2","midi":42,"time":58.1249999999999,"velocity":0.5196850393700787,"duration":0.08749999999999858},{"name":"A4","midi":69,"time":58.1249999999999,"velocity":0.3464566929133858,"duration":0.09687499999999716},{"name":"G4","midi":67,"time":58.1249999999999,"velocity":0.6614173228346457,"duration":0.5531250000000014},{"name":"A#4","midi":70,"time":58.1249999999999,"velocity":0.7086614173228346,"duration":0.32499999999999574},{"name":"D#4","midi":63,"time":58.1249999999999,"velocity":0.6141732283464567,"duration":0.6031249999999986},{"name":"D#2","midi":39,"time":58.31249999999989,"velocity":0.5984251968503937,"duration":0.4906250000000014},{"name":"G5","midi":79,"time":58.31249999999989,"velocity":0.8267716535433071,"duration":0.3062500000000057},{"name":"F#3","midi":54,"time":58.31249999999989,"velocity":0.2283464566929134,"duration":0.06406249999999858},{"name":"A#4","midi":70,"time":58.31249999999989,"velocity":0.4409448818897638,"duration":0.265625},{"name":"C2","midi":36,"time":58.31249999999989,"velocity":0.8267716535433071,"duration":0.17812500000000142},{"name":"F#2","midi":42,"time":58.31249999999989,"velocity":0.4645669291338583,"duration":0.05781249999999716},{"name":"A#3","midi":58,"time":58.31249999999989,"velocity":0.5826771653543307,"duration":0.5546874999999929},{"name":"G4","midi":67,"time":58.31249999999989,"velocity":0.6456692913385826,"duration":0.45625000000000426},{"name":"D#2","midi":39,"time":58.49999999999989,"velocity":0.7322834645669292,"duration":1.1421874999999915},{"name":"D#3","midi":51,"time":58.49999999999989,"velocity":0.28346456692913385,"duration":1.382812499999993},{"name":"D#5","midi":75,"time":58.49999999999989,"velocity":0.7795275590551181,"duration":0.3062499999999986},{"name":"F#2","midi":42,"time":58.49999999999989,"velocity":0.6850393700787402,"duration":0.09531249999999858},{"name":"F#3","midi":54,"time":58.49999999999989,"velocity":0.6535433070866141,"duration":0.10000000000000142},{"name":"A4","midi":69,"time":58.49999999999989,"velocity":0.33070866141732286,"duration":0.09375},{"name":"F#2","midi":42,"time":58.6874999999999,"velocity":0.5039370078740157,"duration":0.04999999999999716},{"name":"F#3","midi":54,"time":58.6874999999999,"velocity":0.2047244094488189,"duration":0.04062499999999858},{"name":"A#4","midi":70,"time":58.6874999999999,"velocity":0.4251968503937008,"duration":0.13749999999998863},{"name":"G4","midi":67,"time":58.6874999999999,"velocity":0.3858267716535433,"duration":0.1796874999999858},{"name":"D#4","midi":63,"time":58.6874999999999,"velocity":0.29133858267716534,"duration":0.2656249999999858},{"name":"A#3","midi":58,"time":58.6874999999999,"velocity":0.5196850393700787,"duration":0.5531249999999872},{"name":"G4","midi":67,"time":58.6874999999999,"velocity":0.5039370078740157,"duration":0.2484374999999872},{"name":"D#2","midi":39,"time":58.874999999999886,"velocity":0.7795275590551181,"duration":1.0296875000000014},{"name":"F4","midi":65,"time":58.874999999999886,"velocity":0.7795275590551181,"duration":0.5609375000000014},{"name":"F3","midi":53,"time":58.874999999999886,"velocity":0.4015748031496063,"duration":0.5843750000000014},{"name":"F4","midi":65,"time":58.874999999999886,"velocity":0.7795275590551181,"duration":0.6218750000000028},{"name":"C2","midi":36,"time":58.874999999999886,"velocity":0.8976377952755905,"duration":0.19687499999999858},{"name":"A#2","midi":46,"time":58.874999999999886,"velocity":0.7795275590551181,"duration":0.17343749999999858},{"name":"F#3","midi":54,"time":58.874999999999886,"velocity":0.6141732283464567,"duration":0.09375},{"name":"A4","midi":69,"time":58.874999999999886,"velocity":0.3937007874015748,"duration":0.08749999999999858},{"name":"G4","midi":67,"time":58.874999999999886,"velocity":0.7322834645669292,"duration":0.3656250000000014},{"name":"D#4","midi":63,"time":58.874999999999886,"velocity":0.7086614173228346,"duration":0.6328125},{"name":"A#4","midi":70,"time":58.874999999999886,"velocity":0.7322834645669292,"duration":0.3296874999999986},{"name":"G4","midi":67,"time":58.874999999999886,"velocity":0.6299212598425197,"duration":0.6343749999999986},{"name":"A#3","midi":58,"time":58.874999999999886,"velocity":0.6850393700787402,"duration":1.0375000000000014},{"name":"F4","midi":65,"time":58.874999999999886,"velocity":0.7795275590551181,"duration":0.6218750000000028},{"name":"F#3","midi":54,"time":59.062499999999886,"velocity":0.2755905511811024,"duration":0.05781249999999716},{"name":"A#4","midi":70,"time":59.062499999999886,"velocity":0.4409448818897638,"duration":0.45781249999999574},{"name":"F#2","midi":42,"time":59.249999999999886,"velocity":0.5511811023622047,"duration":0.05312500000000142},{"name":"A4","midi":69,"time":59.249999999999886,"velocity":0.3228346456692913,"duration":0.07656250000000142},{"name":"F#3","midi":54,"time":59.249999999999886,"velocity":0.6141732283464567,"duration":0.10000000000000142},{"name":"D2","midi":38,"time":59.249999999999886,"velocity":0.8976377952755905,"duration":0.3031249999999943},{"name":"A#3","midi":58,"time":59.249999999999886,"velocity":0.7795275590551181,"duration":0.7375000000000043},{"name":"G4","midi":67,"time":59.249999999999886,"velocity":0.7086614173228346,"duration":0.7296875000000043},{"name":"G4","midi":67,"time":59.437499999999886,"velocity":0.7559055118110236,"duration":0.5500000000000043},{"name":"G3","midi":55,"time":59.437499999999886,"velocity":0.4645669291338583,"duration":0.5812500000000043},{"name":"G4","midi":67,"time":59.437499999999886,"velocity":0.6850393700787402,"duration":0.5859375000000071},{"name":"F#3","midi":54,"time":59.437499999999886,"velocity":0.2125984251968504,"duration":0.05937500000000284},{"name":"F#2","midi":42,"time":59.437499999999886,"velocity":0.4881889763779528,"duration":0.05312500000000142},{"name":"A#4","midi":70,"time":59.437499999999886,"velocity":0.3779527559055118,"duration":0.15156249999999716},{"name":"G4","midi":67,"time":59.437499999999886,"velocity":0.6850393700787402,"duration":0.6250000000000071},{"name":"A#1","midi":34,"time":59.624999999999886,"velocity":0.7559055118110236,"duration":0.4140625000000071},{"name":"C2","midi":36,"time":59.624999999999886,"velocity":0.7086614173228346,"duration":0.08749999999999858},{"name":"A4","midi":69,"time":59.624999999999886,"velocity":0.41732283464566927,"duration":0.11093749999999858},{"name":"A#2","midi":46,"time":59.624999999999886,"velocity":0.7086614173228346,"duration":0.17343749999999858},{"name":"F#3","midi":54,"time":59.624999999999886,"velocity":0.6141732283464567,"duration":0.10000000000000142},{"name":"G4","midi":67,"time":59.624999999999886,"velocity":0.6614173228346457,"duration":0.4375000000000071},{"name":"A#4","midi":70,"time":59.624999999999886,"velocity":0.5354330708661418,"duration":0.35468750000000426},{"name":"D#4","midi":63,"time":59.624999999999886,"velocity":0.6614173228346457,"duration":0.34843750000000284},{"name":"F#3","midi":54,"time":59.812499999999886,"velocity":0.23622047244094488,"duration":0.04999999999999716},{"name":"A#3","midi":58,"time":59.812499999999886,"velocity":0.4094488188976378,"duration":0.24062500000000853},{"name":"G#1","midi":32,"time":59.99999999999989,"velocity":0.8740157480314961,"duration":1.1781249999999872},{"name":"G#2","midi":44,"time":59.99999999999989,"velocity":0.6850393700787402,"duration":1.1703124999999872},{"name":"G#3","midi":56,"time":59.99999999999989,"velocity":0.6456692913385826,"duration":0.6046874999999972},{"name":"D#3","midi":51,"time":59.99999999999989,"velocity":0.6299212598425197,"duration":0.8218749999999915},{"name":"C4","midi":60,"time":59.99999999999989,"velocity":0.6456692913385826,"duration":0.3359375},{"name":"C4","midi":60,"time":59.99999999999989,"velocity":0.44881889763779526,"duration":0.73749999999999},{"name":"G#3","midi":56,"time":59.99999999999989,"velocity":0.3700787401574803,"duration":0.73749999999999},{"name":"D#4","midi":63,"time":59.99999999999989,"velocity":0.7322834645669292,"duration":0.73749999999999},{"name":"A4","midi":69,"time":59.99999999999989,"velocity":0.4015748031496063,"duration":0.125},{"name":"F#2","midi":42,"time":59.99999999999989,"velocity":0.8267716535433071,"duration":0.08281250000000284},{"name":"F#3","midi":54,"time":59.99999999999989,"velocity":0.7007874015748031,"duration":0.09218750000000142},{"name":"C2","midi":36,"time":59.99999999999989,"velocity":0.9212598425196851,"duration":0.5453125000000014},{"name":"C4","midi":60,"time":59.99999999999989,"velocity":0.3937007874015748,"duration":1.2953124999999872},{"name":"D#4","midi":63,"time":59.99999999999989,"velocity":0.4566929133858268,"duration":1.2812499999999858},{"name":"D#4","midi":63,"time":59.99999999999989,"velocity":0.6299212598425197,"duration":1.3187499999999872},{"name":"C4","midi":60,"time":59.99999999999989,"velocity":0.6614173228346457,"duration":1.4078124999999844},{"name":"G#3","midi":56,"time":59.99999999999989,"velocity":0.8031496062992126,"duration":0.8890624999999943},{"name":"D#4","midi":63,"time":59.99999999999989,"velocity":0.7322834645669292,"duration":1.612499999999983},{"name":"F#3","midi":54,"time":60.18749999999989,"velocity":0.2440944881889764,"duration":0.06562499999999716},{"name":"A#4","midi":70,"time":60.18749999999989,"velocity":0.4251968503937008,"duration":0.14531250000000284},{"name":"F#2","midi":42,"time":60.18749999999989,"velocity":0.6299212598425197,"duration":0.09375},{"name":"D#4","midi":63,"time":60.37499999999989,"velocity":0.6299212598425197,"duration":1.237499999999983},{"name":"D#5","midi":75,"time":60.37499999999989,"velocity":0.9212598425196851,"duration":0.3359374999999929},{"name":"A4","midi":69,"time":60.37499999999989,"velocity":0.3464566929133858,"duration":0.11406250000000284},{"name":"F#3","midi":54,"time":60.37499999999989,"velocity":0.5511811023622047,"duration":0.10468750000000426},{"name":"F#2","midi":42,"time":60.37499999999989,"velocity":0.4645669291338583,"duration":0.09062500000000284},{"name":"C4","midi":60,"time":60.37499999999989,"velocity":0.6614173228346457,"duration":1.042187499999983},{"name":"A#4","midi":70,"time":60.37499999999989,"velocity":0.8031496062992126,"duration":0.34687499999999005},{"name":"G#3","midi":56,"time":60.37499999999989,"velocity":0.4330708661417323,"duration":0.9187499999999886},{"name":"A#4","midi":70,"time":60.56249999999989,"velocity":0.4409448818897638,"duration":0.34843749999999574},{"name":"F#2","midi":42,"time":60.56249999999989,"velocity":0.4645669291338583,"duration":0.053124999999994316},{"name":"F#3","midi":54,"time":60.56249999999989,"velocity":0.3858267716535433,"duration":0.056249999999991473},{"name":"A#5","midi":82,"time":60.749999999999886,"velocity":0.8740157480314961,"duration":0.2265625},{"name":"F#3","midi":54,"time":60.749999999999886,"velocity":0.6771653543307087,"duration":0.11093749999999858},{"name":"F#2","midi":42,"time":60.749999999999886,"velocity":0.8267716535433071,"duration":0.07968749999999858},{"name":"A4","midi":69,"time":60.749999999999886,"velocity":0.25196850393700787,"duration":0.12343750000000142},{"name":"D2","midi":38,"time":60.749999999999886,"velocity":0.8976377952755905,"duration":0.4453124999999929},{"name":"G#3","midi":56,"time":60.749999999999886,"velocity":0.6299212598425197,"duration":0.7593749999999844},{"name":"C4","midi":60,"time":60.749999999999886,"velocity":0.7322834645669292,"duration":0.7656249999999858},{"name":"D#4","midi":63,"time":60.749999999999886,"velocity":0.7322834645669292,"duration":0.9234374999999915},{"name":"G5","midi":79,"time":60.937499999999886,"velocity":0.8031496062992126,"duration":0.2718749999999943},{"name":"F#3","midi":54,"time":60.937499999999886,"velocity":0.2677165354330709,"duration":0.05624999999999858},{"name":"A#4","midi":70,"time":60.937499999999886,"velocity":0.41732283464566927,"duration":0.13749999999999574},{"name":"F#2","midi":42,"time":60.937499999999886,"velocity":0.2677165354330709,"duration":0.0546875},{"name":"G#3","midi":56,"time":61.12499999999988,"velocity":0.3858267716535433,"duration":0.4203124999999943},{"name":"D#3","midi":51,"time":61.12499999999988,"velocity":0.4330708661417323,"duration":0.08281250000000284},{"name":"F#2","midi":42,"time":61.12499999999988,"velocity":0.6456692913385826,"duration":0.07500000000000284},{"name":"A4","midi":69,"time":61.12499999999988,"velocity":0.3543307086614173,"duration":0.11093749999999858},{"name":"F#3","midi":54,"time":61.12499999999988,"velocity":0.5669291338582677,"duration":0.10000000000000142},{"name":"A#4","midi":70,"time":61.12499999999988,"velocity":0.6850393700787402,"duration":0.3187499999999943},{"name":"G#1","midi":32,"time":61.31249999999988,"velocity":0.5826771653543307,"duration":0.10624999999999574},{"name":"G5","midi":79,"time":61.31249999999988,"velocity":0.8031496062992126,"duration":0.4984375000000085},{"name":"F#3","midi":54,"time":61.31249999999988,"velocity":0.33858267716535434,"duration":0.046875},{"name":"F#2","midi":42,"time":61.31249999999988,"velocity":0.4015748031496063,"duration":0.04062499999999858},{"name":"A#4","midi":70,"time":61.31249999999988,"velocity":0.4015748031496063,"duration":0.15781249999999147},{"name":"C4","midi":60,"time":61.31249999999988,"velocity":0.33070866141732286,"duration":0.3609374999999986},{"name":"G#3","midi":56,"time":61.31249999999988,"velocity":0.5039370078740157,"duration":0.3609374999999986},{"name":"A#1","midi":34,"time":61.49999999999987,"velocity":0.6850393700787402,"duration":0.3390625000000185},{"name":"A#2","midi":46,"time":61.49999999999987,"velocity":0.7322834645669292,"duration":0.49687500000001705},{"name":"F4","midi":65,"time":61.49999999999987,"velocity":0.5984251968503937,"duration":0.31718750000001705},{"name":"D4","midi":62,"time":61.49999999999987,"velocity":0.6456692913385826,"duration":0.3625000000000185},{"name":"A#3","midi":58,"time":61.49999999999987,"velocity":0.5354330708661418,"duration":0.3671875000000213},{"name":"A#3","midi":58,"time":61.49999999999987,"velocity":0.4409448818897638,"duration":0.7406250000000085},{"name":"F3","midi":53,"time":61.49999999999987,"velocity":0.33858267716535434,"duration":1.4109374999999886},{"name":"F#2","midi":42,"time":61.49999999999987,"velocity":0.7559055118110236,"duration":0.07343750000000426},{"name":"A4","midi":69,"time":61.49999999999987,"velocity":0.25196850393700787,"duration":0.11406250000000284},{"name":"C2","midi":36,"time":61.49999999999987,"velocity":0.8267716535433071,"duration":0.22187500000001137},{"name":"F#3","midi":54,"time":61.49999999999987,"velocity":0.6771653543307087,"duration":0.10468750000000426},{"name":"D4","midi":62,"time":61.49999999999987,"velocity":0.6614173228346457,"duration":0.3671875000000213},{"name":"F4","midi":65,"time":61.49999999999987,"velocity":0.7559055118110236,"duration":0.3671875000000213},{"name":"A#4","midi":70,"time":61.49999999999987,"velocity":0.6850393700787402,"duration":0.3546875000000185},{"name":"F#2","midi":42,"time":61.68749999999988,"velocity":0.5511811023622047,"duration":0.06406250000000568},{"name":"A#4","midi":70,"time":61.68749999999988,"velocity":0.3228346456692913,"duration":0.2125000000000128},{"name":"F#3","midi":54,"time":61.68749999999988,"velocity":0.33858267716535434,"duration":0.048437500000005684},{"name":"A#3","midi":58,"time":61.68749999999988,"velocity":0.4881889763779528,"duration":1.206249999999983},{"name":"D4","midi":62,"time":61.68749999999988,"velocity":0.6456692913385826,"duration":0.5531250000000014},{"name":"F4","midi":65,"time":61.68749999999988,"velocity":0.5511811023622047,"duration":0.5531250000000014},{"name":"A#1","midi":34,"time":61.87499999999989,"velocity":0.7795275590551181,"duration":0.7406249999999801},{"name":"F4","midi":65,"time":61.87499999999989,"velocity":0.7322834645669292,"duration":0.6796874999999858},{"name":"A#5","midi":82,"time":61.87499999999989,"velocity":0.8267716535433071,"duration":0.7437499999999773},{"name":"F4","midi":65,"time":61.87499999999989,"velocity":0.6850393700787402,"duration":0.9999999999999716},{"name":"A4","midi":69,"time":61.87499999999989,"velocity":0.3464566929133858,"duration":0.11093749999999858},{"name":"F#3","midi":54,"time":61.87499999999989,"velocity":0.6141732283464567,"duration":0.10624999999999574},{"name":"A#2","midi":46,"time":61.87499999999989,"velocity":0.7795275590551181,"duration":1.0359374999999673},{"name":"C2","midi":36,"time":61.87499999999989,"velocity":0.8740157480314961,"duration":0.3031249999999872},{"name":"D4","midi":62,"time":61.87499999999989,"velocity":0.6850393700787402,"duration":0.5093749999999844},{"name":"C5","midi":72,"time":61.87499999999989,"velocity":0.7559055118110236,"duration":0.737499999999983},{"name":"D4","midi":62,"time":61.87499999999989,"velocity":0.4566929133858268,"duration":0.6187499999999844},{"name":"A#3","midi":58,"time":61.87499999999989,"velocity":0.6141732283464567,"duration":1.0671874999999673},{"name":"F4","midi":65,"time":61.87499999999989,"velocity":0.5196850393700787,"duration":1.0249999999999702},{"name":"F4","midi":65,"time":61.87499999999989,"velocity":0.6850393700787402,"duration":1.0265624999999687},{"name":"A#4","midi":70,"time":62.062499999999886,"velocity":0.4015748031496063,"duration":0.15156249999999716},{"name":"F#3","midi":54,"time":62.062499999999886,"velocity":0.28346456692913385,"duration":0.04218749999999716},{"name":"F#3","midi":54,"time":62.24999999999988,"velocity":0.7165354330708661,"duration":0.10312499999999858},{"name":"D2","midi":38,"time":62.24999999999988,"velocity":0.8503937007874016,"duration":0.3031250000000014},{"name":"F#2","midi":42,"time":62.24999999999988,"velocity":0.5984251968503937,"duration":0.06562499999999716},{"name":"A4","midi":69,"time":62.24999999999988,"velocity":0.25984251968503935,"duration":0.125},{"name":"D4","midi":62,"time":62.24999999999988,"velocity":0.7795275590551181,"duration":0.6687499999999815},{"name":"F4","midi":65,"time":62.24999999999988,"velocity":0.7086614173228346,"duration":0.651562499999983},{"name":"A#3","midi":58,"time":62.24999999999988,"velocity":0.8740157480314961,"duration":0.7374999999999758},{"name":"A#4","midi":70,"time":62.43749999999988,"velocity":0.33858267716535434,"duration":0.13437499999999858},{"name":"F#3","midi":54,"time":62.43749999999988,"velocity":0.25984251968503935,"duration":0.0703125},{"name":"F#2","midi":42,"time":62.43749999999988,"velocity":0.48031496062992124,"duration":0.0546875},{"name":"D2","midi":38,"time":62.62499999999987,"velocity":0.8031496062992126,"duration":0.42499999999999005},{"name":"F3","midi":53,"time":62.62499999999987,"velocity":0.36220472440944884,"duration":0.37031249999998295},{"name":"D4","midi":62,"time":62.62499999999987,"velocity":0.4566929133858268,"duration":0.3140624999999915},{"name":"D#5","midi":75,"time":62.62499999999987,"velocity":0.8503937007874016,"duration":1.0374999999999943},{"name":"F#3","midi":54,"time":62.62499999999987,"velocity":0.6141732283464567,"duration":0.1015625},{"name":"A4","midi":69,"time":62.62499999999987,"velocity":0.3779527559055118,"duration":0.09843750000000284},{"name":"F#2","midi":42,"time":62.62499999999987,"velocity":0.7086614173228346,"duration":0.0703125},{"name":"F4","midi":65,"time":62.62499999999987,"velocity":0.5039370078740157,"duration":0.36249999999998295},{"name":"A#4","midi":70,"time":62.62499999999987,"velocity":0.6456692913385826,"duration":0.3593749999999858},{"name":"D4","midi":62,"time":62.62499999999987,"velocity":0.5984251968503937,"duration":0.36249999999998295},{"name":"F#3","midi":54,"time":62.81249999999987,"velocity":0.2125984251968504,"duration":0.04999999999999716},{"name":"A#4","midi":70,"time":62.81249999999987,"velocity":0.4409448818897638,"duration":0.3437499999999929},{"name":"F#2","midi":42,"time":62.81249999999987,"velocity":0.5354330708661418,"duration":0.060937499999994316},{"name":"A#3","midi":58,"time":62.81249999999987,"velocity":0.2992125984251969,"duration":0.8390624999999972},{"name":"D#2","midi":39,"time":62.99999999999986,"velocity":0.8503937007874016,"duration":1.0703125000000142},{"name":"G4","midi":67,"time":62.99999999999986,"velocity":0.7086614173228346,"duration":0.7375000000000114},{"name":"A#3","midi":58,"time":62.99999999999986,"velocity":0.6614173228346457,"duration":0.7375000000000114},{"name":"D#3","midi":51,"time":62.99999999999986,"velocity":0.5826771653543307,"duration":0.9390625000000128},{"name":"D#4","midi":63,"time":62.99999999999986,"velocity":0.6299212598425197,"duration":0.6000000000000085},{"name":"D#2","midi":39,"time":62.99999999999986,"velocity":0.6850393700787402,"duration":1.4281250000000085},{"name":"G3","midi":55,"time":62.99999999999986,"velocity":0.44881889763779526,"duration":1.3625000000000114},{"name":"G4","midi":67,"time":62.99999999999986,"velocity":0.6456692913385826,"duration":0.8359375000000142},{"name":"C2","midi":36,"time":62.99999999999986,"velocity":0.9212598425196851,"duration":0.5015625000000057},{"name":"A4","midi":69,"time":62.99999999999986,"velocity":0.2125984251968504,"duration":0.13437500000000568},{"name":"F#2","midi":42,"time":62.99999999999986,"velocity":0.7795275590551181,"duration":0.08750000000000568},{"name":"F#3","midi":54,"time":62.99999999999986,"velocity":0.6771653543307087,"duration":0.0937500000000071},{"name":"A#3","midi":58,"time":62.99999999999986,"velocity":0.8031496062992126,"duration":1.5906250000000028},{"name":"G4","midi":67,"time":62.99999999999986,"velocity":0.7086614173228346,"duration":1.5921875000000085},{"name":"D#4","midi":63,"time":62.99999999999986,"velocity":0.7086614173228346,"duration":0.7375000000000114},{"name":"G4","midi":67,"time":62.99999999999986,"velocity":0.6456692913385826,"duration":1.6468750000000085},{"name":"F#3","midi":54,"time":63.187499999999865,"velocity":0.2755905511811024,"duration":0.04062499999999858},{"name":"F#2","midi":42,"time":63.187499999999865,"velocity":0.5196850393700787,"duration":0.04999999999999716},{"name":"A#4","midi":70,"time":63.187499999999865,"velocity":0.3543307086614173,"duration":0.14999999999999858},{"name":"A4","midi":69,"time":63.374999999999865,"velocity":0.25984251968503935,"duration":0.1015625},{"name":"F#2","midi":42,"time":63.374999999999865,"velocity":0.6456692913385826,"duration":0.078125},{"name":"F#3","midi":54,"time":63.374999999999865,"velocity":0.5905511811023622,"duration":0.09375},{"name":"G4","midi":67,"time":63.374999999999865,"velocity":0.7086614173228346,"duration":1.2718750000000014},{"name":"A#4","midi":70,"time":63.374999999999865,"velocity":0.6850393700787402,"duration":0.3421875000000014},{"name":"D#4","midi":63,"time":63.374999999999865,"velocity":0.7086614173228346,"duration":0.4468750000000057},{"name":"A#3","midi":58,"time":63.374999999999865,"velocity":0.4645669291338583,"duration":1.2984375000000128},{"name":"F#2","midi":42,"time":63.562499999999865,"velocity":0.3464566929133858,"duration":0.05000000000000426},{"name":"A#4","midi":70,"time":63.562499999999865,"velocity":0.4251968503937008,"duration":0.47187500000000426},{"name":"F#3","midi":54,"time":63.562499999999865,"velocity":0.1968503937007874,"duration":0.06562500000000426},{"name":"D#4","midi":63,"time":63.74999999999987,"velocity":0.5196850393700787,"duration":0.5890624999999972},{"name":"G3","midi":55,"time":63.74999999999987,"velocity":0.3464566929133858,"duration":0.9015624999999972},{"name":"A4","midi":69,"time":63.74999999999987,"velocity":0.30708661417322836,"duration":0.11562500000000142},{"name":"F#2","midi":42,"time":63.74999999999987,"velocity":0.7795275590551181,"duration":0.07968749999999858},{"name":"F#3","midi":54,"time":63.74999999999987,"velocity":0.6535433070866141,"duration":0.09218750000000142},{"name":"D2","midi":38,"time":63.74999999999987,"velocity":0.8740157480314961,"duration":0.3499999999999943},{"name":"D#4","midi":63,"time":63.74999999999987,"velocity":0.5669291338582677,"duration":0.9234375000000057},{"name":"A#3","midi":58,"time":63.74999999999987,"velocity":0.8031496062992126,"duration":0.9281250000000085},{"name":"G4","midi":67,"time":63.74999999999987,"velocity":0.7322834645669292,"duration":0.9234375000000057},{"name":"F#3","midi":54,"time":63.93749999999987,"velocity":0.2677165354330709,"duration":0.05312500000000142},{"name":"F#2","midi":42,"time":63.93749999999987,"velocity":0.3858267716535433,"duration":0.05781250000000426},{"name":"A#4","midi":70,"time":63.93749999999987,"velocity":0.4015748031496063,"duration":0.1484375},{"name":"D#2","midi":39,"time":64.12499999999987,"velocity":0.6614173228346457,"duration":0.7453124999999972},{"name":"F#3","midi":54,"time":64.12499999999987,"velocity":0.6377952755905512,"duration":0.09531249999999147},{"name":"A4","midi":69,"time":64.12499999999987,"velocity":0.3464566929133858,"duration":0.09687499999999716},{"name":"F#2","midi":42,"time":64.12499999999987,"velocity":0.5511811023622047,"duration":0.08906249999999716},{"name":"A#4","midi":70,"time":64.12499999999987,"velocity":0.5826771653543307,"duration":0.32499999999998863},{"name":"G4","midi":67,"time":64.12499999999987,"velocity":0.6850393700787402,"duration":0.7421875},{"name":"D#4","midi":63,"time":64.12499999999987,"velocity":0.6850393700787402,"duration":0.5734375000000114},{"name":"F#2","midi":42,"time":64.31249999999987,"velocity":0.4094488188976378,"duration":0.0625},{"name":"C2","midi":36,"time":64.31249999999987,"velocity":0.6141732283464567,"duration":0.0625},{"name":"F#3","midi":54,"time":64.31249999999987,"velocity":0.23622047244094488,"duration":0.046875},{"name":"A#4","midi":70,"time":64.31249999999987,"velocity":0.4409448818897638,"duration":0.34062500000000284},{"name":"A#3","midi":58,"time":64.31249999999987,"velocity":0.5039370078740157,"duration":0.5546875},{"name":"D#2","midi":39,"time":64.49999999999986,"velocity":0.7086614173228346,"duration":1.0718750000000057},{"name":"D#3","midi":51,"time":64.49999999999986,"velocity":0.4566929133858268,"duration":1.3343750000000085},{"name":"D#4","midi":63,"time":64.49999999999986,"velocity":0.4881889763779528,"duration":0.31875000000002274},{"name":"G3","midi":55,"time":64.49999999999986,"velocity":0.33858267716535434,"duration":0.40156250000001137},{"name":"F#2","midi":42,"time":64.49999999999986,"velocity":0.7086614173228346,"duration":0.09375000000001421},{"name":"C2","midi":36,"time":64.49999999999986,"velocity":0.8503937007874016,"duration":0.24531250000002558},{"name":"A4","midi":69,"time":64.49999999999986,"velocity":0.33070866141732286,"duration":0.09375000000001421},{"name":"F#3","midi":54,"time":64.49999999999986,"velocity":0.6141732283464567,"duration":0.08906249999999716},{"name":"F#2","midi":42,"time":64.68749999999989,"velocity":0.4251968503937008,"duration":0.056249999999991473},{"name":"A#4","midi":70,"time":64.68749999999989,"velocity":0.4251968503937008,"duration":0.13749999999998863},{"name":"F#3","midi":54,"time":64.68749999999989,"velocity":0.23622047244094488,"duration":0.04218749999999716},{"name":"A#3","midi":58,"time":64.68749999999989,"velocity":0.5196850393700787,"duration":0.5531249999999659},{"name":"G4","midi":67,"time":64.68749999999989,"velocity":0.31496062992125984,"duration":0.5531249999999659},{"name":"A#2","midi":46,"time":64.87499999999987,"velocity":0.6614173228346457,"duration":0.1328124999999858},{"name":"F4","midi":65,"time":64.87499999999987,"velocity":0.8503937007874016,"duration":0.5609374999999801},{"name":"F3","midi":53,"time":64.87499999999987,"velocity":0.7086614173228346,"duration":0.4218749999999858},{"name":"F3","midi":53,"time":64.87499999999987,"velocity":0.44881889763779526,"duration":0.5406249999999773},{"name":"F4","midi":65,"time":64.87499999999987,"velocity":0.7322834645669292,"duration":0.5609374999999801},{"name":"A4","midi":69,"time":64.87499999999987,"velocity":0.3937007874015748,"duration":0.08749999999999147},{"name":"F#3","midi":54,"time":64.87499999999987,"velocity":0.6377952755905512,"duration":0.08749999999999147},{"name":"C2","midi":36,"time":64.87499999999987,"velocity":0.7795275590551181,"duration":0.19062499999998295},{"name":"A#2","midi":46,"time":64.87499999999987,"velocity":0.8267716535433071,"duration":0.37968749999998863},{"name":"D#4","midi":63,"time":64.87499999999987,"velocity":0.7322834645669292,"duration":0.3656249999999801},{"name":"A#4","midi":70,"time":64.87499999999987,"velocity":0.7795275590551181,"duration":0.32968749999997726},{"name":"G4","midi":67,"time":64.87499999999987,"velocity":0.6850393700787402,"duration":0.6640624999999858},{"name":"A#3","midi":58,"time":64.87499999999987,"velocity":0.7086614173228346,"duration":0.9000000000000057},{"name":"D#4","midi":63,"time":64.87499999999987,"velocity":0.7086614173228346,"duration":0.4296874999999858},{"name":"F4","midi":65,"time":64.87499999999987,"velocity":0.7322834645669292,"duration":0.5781249999999858},{"name":"F#3","midi":54,"time":65.06249999999986,"velocity":0.23622047244094488,"duration":0.07187499999999147},{"name":"A#4","midi":70,"time":65.06249999999986,"velocity":0.4409448818897638,"duration":0.3031249999999943},{"name":"D#2","midi":39,"time":65.24999999999986,"velocity":0.6614173228346457,"duration":0.6421874999999915},{"name":"F#3","midi":54,"time":65.24999999999986,"velocity":0.6377952755905512,"duration":0.09218749999999432},{"name":"A#2","midi":46,"time":65.24999999999986,"velocity":0.5196850393700787,"duration":0.078125},{"name":"D2","midi":38,"time":65.24999999999986,"velocity":0.8976377952755905,"duration":0.35468750000001137},{"name":"A4","midi":69,"time":65.24999999999986,"velocity":0.3228346456692913,"duration":0.07656249999999432},{"name":"A#3","midi":58,"time":65.24999999999986,"velocity":0.7086614173228346,"duration":0.7375000000000114},{"name":"G4","midi":67,"time":65.24999999999986,"velocity":0.7086614173228346,"duration":0.7000000000000028},{"name":"G4","midi":67,"time":65.43749999999986,"velocity":0.8267716535433071,"duration":0.5500000000000114},{"name":"G3","midi":55,"time":65.43749999999986,"velocity":0.5039370078740157,"duration":0.5140625000000085},{"name":"G3","midi":55,"time":65.43749999999986,"velocity":0.4881889763779528,"duration":0.5640625000000199},{"name":"G4","midi":67,"time":65.43749999999986,"velocity":0.7795275590551181,"duration":0.5703125000000142},{"name":"A#4","midi":70,"time":65.43749999999986,"velocity":0.3779527559055118,"duration":0.15156250000001137},{"name":"F#3","midi":54,"time":65.43749999999986,"velocity":0.1889763779527559,"duration":0.05937500000000284},{"name":"D#4","midi":63,"time":65.43749999999986,"velocity":0.3543307086614173,"duration":0.07187500000000568},{"name":"G4","midi":67,"time":65.43749999999986,"velocity":0.7795275590551181,"duration":0.6468750000000227},{"name":"D#2","midi":39,"time":65.62499999999987,"velocity":0.7322834645669292,"duration":0.40156249999999716},{"name":"D#5","midi":75,"time":65.62499999999987,"velocity":0.8503937007874016,"duration":0.21718749999999432},{"name":"F#3","midi":54,"time":65.62499999999987,"velocity":0.6141732283464567,"duration":0.08437500000000853},{"name":"A4","midi":69,"time":65.62499999999987,"velocity":0.41732283464566927,"duration":0.11093750000000568},{"name":"C2","midi":36,"time":65.62499999999987,"velocity":0.7795275590551181,"duration":0.09062500000000284},{"name":"F#2","midi":42,"time":65.62499999999987,"velocity":0.8031496062992126,"duration":0.0625},{"name":"G4","midi":67,"time":65.62499999999987,"velocity":0.6141732283464567,"duration":0.4593750000000085},{"name":"D#4","midi":63,"time":65.62499999999987,"velocity":0.5984251968503937,"duration":0.3203124999999858},{"name":"A#4","midi":70,"time":65.62499999999987,"velocity":0.6850393700787402,"duration":0.3109374999999801},{"name":"A#3","midi":58,"time":65.62499999999987,"velocity":0.5826771653543307,"duration":0.3968749999999943},{"name":"A#5","midi":82,"time":65.81249999999987,"velocity":0.9212598425196851,"duration":0.6015625000000142},{"name":"F#2","midi":42,"time":65.81249999999987,"velocity":0.5196850393700787,"duration":0.05156249999998863},{"name":"F#3","midi":54,"time":65.81249999999987,"velocity":0.30708661417322836,"duration":0.06562499999998295},{"name":"G#1","midi":32,"time":65.99999999999987,"velocity":0.8503937007874016,"duration":1.275000000000034},{"name":"D#4","midi":63,"time":65.99999999999987,"velocity":0.6614173228346457,"duration":0.6140625000000313},{"name":"G#2","midi":44,"time":65.99999999999987,"velocity":0.7559055118110236,"duration":1.1312500000000227},{"name":"C4","midi":60,"time":65.99999999999987,"velocity":0.6299212598425197,"duration":0.3140625000000199},{"name":"G#3","midi":56,"time":65.99999999999987,"velocity":0.5984251968503937,"duration":0.42500000000001137},{"name":"C4","midi":60,"time":65.99999999999987,"velocity":0.44881889763779526,"duration":0.6265625000000341},{"name":"G#3","midi":56,"time":65.99999999999987,"velocity":0.4409448818897638,"duration":1.084375000000037},{"name":"D#4","midi":63,"time":65.99999999999987,"velocity":0.7559055118110236,"duration":1.056250000000034},{"name":"F#2","midi":42,"time":65.99999999999987,"velocity":0.7559055118110236,"duration":0.08906250000001137},{"name":"A4","midi":69,"time":65.99999999999987,"velocity":0.4015748031496063,"duration":0.1250000000000142},{"name":"C2","midi":36,"time":65.99999999999987,"velocity":0.9212598425196851,"duration":0.5453125000000227},{"name":"F#3","midi":54,"time":65.99999999999987,"velocity":0.7007874015748031,"duration":0.078125},{"name":"D#4","midi":63,"time":65.99999999999987,"velocity":0.4566929133858268,"duration":1.1781250000000227},{"name":"C4","midi":60,"time":65.99999999999987,"velocity":0.4330708661417323,"duration":0.7375000000000256},{"name":"C4","midi":60,"time":65.99999999999987,"velocity":0.7086614173228346,"duration":0.8921875000000341},{"name":"G#4","midi":68,"time":65.99999999999987,"velocity":0.7322834645669292,"duration":0.7375000000000256},{"name":"D#4","midi":63,"time":65.99999999999987,"velocity":0.7559055118110236,"duration":1.1781250000000227},{"name":"F#3","midi":54,"time":66.18749999999989,"velocity":0.29133858267716534,"duration":0.053125000000008527},{"name":"A#4","midi":70,"time":66.18749999999989,"velocity":0.4251968503937008,"duration":0.14531250000000284},{"name":"F#2","midi":42,"time":66.18749999999989,"velocity":0.5354330708661418,"duration":0.05156250000000284},{"name":"G5","midi":79,"time":66.37499999999989,"velocity":0.8267716535433071,"duration":0.7281250000000199},{"name":"F#2","midi":42,"time":66.37499999999989,"velocity":0.6141732283464567,"duration":0.08281250000000284},{"name":"F#3","midi":54,"time":66.37499999999989,"velocity":0.5511811023622047,"duration":0.08437500000000853},{"name":"A4","midi":69,"time":66.37499999999989,"velocity":0.3464566929133858,"duration":0.11406250000000284},{"name":"C4","midi":60,"time":66.37499999999989,"velocity":0.7322834645669292,"duration":0.645312500000017},{"name":"A#4","midi":70,"time":66.37499999999989,"velocity":0.7322834645669292,"duration":0.34687500000001137},{"name":"C4","midi":60,"time":66.37499999999989,"velocity":0.5354330708661418,"duration":0.903125000000017},{"name":"G#3","midi":56,"time":66.5624999999999,"velocity":0.25196850393700787,"duration":0.6500000000000057},{"name":"A#4","midi":70,"time":66.5624999999999,"velocity":0.4409448818897638,"duration":0.484375},{"name":"F#2","midi":42,"time":66.5624999999999,"velocity":0.5354330708661418,"duration":0.05937500000000284},{"name":"F#3","midi":54,"time":66.5624999999999,"velocity":0.25196850393700787,"duration":0.09062500000000284},{"name":"D#4","midi":63,"time":66.7499999999999,"velocity":0.36220472440944884,"duration":0.5656249999999972},{"name":"D#3","midi":51,"time":66.7499999999999,"velocity":0.3464566929133858,"duration":0.30937500000000284},{"name":"D2","midi":38,"time":66.7499999999999,"velocity":0.8976377952755905,"duration":0.4453125},{"name":"F#3","midi":54,"time":66.7499999999999,"velocity":0.7007874015748031,"duration":0.07968750000000568},{"name":"F#2","midi":42,"time":66.7499999999999,"velocity":0.8267716535433071,"duration":0.08437500000000853},{"name":"A4","midi":69,"time":66.7499999999999,"velocity":0.25196850393700787,"duration":0.12343750000000853},{"name":"C4","midi":60,"time":66.7499999999999,"velocity":0.7795275590551181,"duration":0.6078124999999943},{"name":"D#4","midi":63,"time":66.7499999999999,"velocity":0.6614173228346457,"duration":0.6031249999999915},{"name":"G#4","midi":68,"time":66.7499999999999,"velocity":0.7559055118110236,"duration":0.9234375000000199},{"name":"F#2","midi":42,"time":66.9374999999999,"velocity":0.5039370078740157,"duration":0.05937500000000284},{"name":"F#3","midi":54,"time":66.9374999999999,"velocity":0.33070866141732286,"duration":0.06406250000000568},{"name":"A#4","midi":70,"time":66.9374999999999,"velocity":0.41732283464566927,"duration":0.13750000000000284},{"name":"C4","midi":60,"time":66.9374999999999,"velocity":0.31496062992125984,"duration":0.5578124999999972},{"name":"G#3","midi":56,"time":67.1249999999999,"velocity":0.2047244094488189,"duration":0.42500000000001137},{"name":"D#5","midi":75,"time":67.1249999999999,"velocity":0.8976377952755905,"duration":0.528125000000017},{"name":"F#3","midi":54,"time":67.1249999999999,"velocity":0.6141732283464567,"duration":0.08281250000000284},{"name":"A4","midi":69,"time":67.1249999999999,"velocity":0.3543307086614173,"duration":0.11093750000000568},{"name":"F#2","midi":42,"time":67.1249999999999,"velocity":0.6141732283464567,"duration":0.078125},{"name":"C4","midi":60,"time":67.1249999999999,"velocity":0.5984251968503937,"duration":0.41093750000001705},{"name":"D#4","midi":63,"time":67.1249999999999,"velocity":0.6299212598425197,"duration":0.5484375000000199},{"name":"A#4","midi":70,"time":67.1249999999999,"velocity":0.7322834645669292,"duration":0.3187499999999943},{"name":"G#1","midi":32,"time":67.3124999999999,"velocity":0.5984251968503937,"duration":0.21406250000001137},{"name":"F#3","midi":54,"time":67.3124999999999,"velocity":0.2677165354330709,"duration":0.053124999999994316},{"name":"F#2","midi":42,"time":67.3124999999999,"velocity":0.48031496062992124,"duration":0.04999999999999716},{"name":"A#4","midi":70,"time":67.3124999999999,"velocity":0.4015748031496063,"duration":0.15781249999999147},{"name":"C4","midi":60,"time":67.3124999999999,"velocity":0.5039370078740157,"duration":0.3609375000000199},{"name":"A#1","midi":34,"time":67.4999999999999,"velocity":0.6456692913385826,"duration":0.33906250000001137},{"name":"A#3","midi":58,"time":67.4999999999999,"velocity":0.5826771653543307,"duration":0.41093750000000284},{"name":"A#2","midi":46,"time":67.4999999999999,"velocity":0.7322834645669292,"duration":0.5062500000000085},{"name":"D4","midi":62,"time":67.4999999999999,"velocity":0.6614173228346457,"duration":0.3437500000000142},{"name":"A#3","midi":58,"time":67.4999999999999,"velocity":0.44881889763779526,"duration":0.6531250000000028},{"name":"F3","midi":53,"time":67.4999999999999,"velocity":0.3779527559055118,"duration":1.371875000000017},{"name":"F4","midi":65,"time":67.4999999999999,"velocity":0.5511811023622047,"duration":0.739062500000017},{"name":"F#2","midi":42,"time":67.4999999999999,"velocity":0.7086614173228346,"duration":0.08906250000001137},{"name":"A4","midi":69,"time":67.4999999999999,"velocity":0.25196850393700787,"duration":0.11406250000001705},{"name":"F#3","midi":54,"time":67.4999999999999,"velocity":0.5669291338582677,"duration":0.08593750000001421},{"name":"C2","midi":36,"time":67.4999999999999,"velocity":0.8267716535433071,"duration":0.22187500000001137},{"name":"F4","midi":65,"time":67.4999999999999,"velocity":0.6850393700787402,"duration":1.3546875000000256},{"name":"D4","midi":62,"time":67.4999999999999,"velocity":0.6614173228346457,"duration":0.6343750000000057},{"name":"A#4","midi":70,"time":67.4999999999999,"velocity":0.5196850393700787,"duration":0.35468750000001137},{"name":"F4","midi":65,"time":67.4999999999999,"velocity":0.5511811023622047,"duration":1.4875000000000114},{"name":"F#2","midi":42,"time":67.68749999999991,"velocity":0.2992125984251969,"duration":0.05781249999999716},{"name":"F#3","midi":54,"time":67.68749999999991,"velocity":0.4015748031496063,"duration":0.05781249999999716},{"name":"A#4","midi":70,"time":67.68749999999991,"velocity":0.3228346456692913,"duration":0.18124999999999147},{"name":"D4","midi":62,"time":67.68749999999991,"velocity":0.5826771653543307,"duration":0.4859374999999915},{"name":"A#3","midi":58,"time":67.68749999999991,"velocity":0.5826771653543307,"duration":0.5421874999999972},{"name":"F4","midi":65,"time":67.68749999999991,"velocity":0.5196850393700787,"duration":1.3515625},{"name":"A#1","midi":34,"time":67.8749999999999,"velocity":0.6850393700787402,"duration":0.7328125000000227},{"name":"A4","midi":69,"time":67.8749999999999,"velocity":0.3464566929133858,"duration":0.11093750000000568},{"name":"F#3","midi":54,"time":67.8749999999999,"velocity":0.6377952755905512,"duration":0.08437500000000853},{"name":"C2","midi":36,"time":67.8749999999999,"velocity":0.8740157480314961,"duration":0.3031250000000085},{"name":"A#2","midi":46,"time":67.8749999999999,"velocity":0.7795275590551181,"duration":1.00156250000002},{"name":"C5","midi":72,"time":67.8749999999999,"velocity":0.8267716535433071,"duration":0.7593750000000341},{"name":"D4","midi":62,"time":67.8749999999999,"velocity":0.7795275590551181,"duration":0.36406250000001705},{"name":"A#3","midi":58,"time":67.8749999999999,"velocity":0.5984251968503937,"duration":0.36406250000001705},{"name":"D4","midi":62,"time":67.8749999999999,"velocity":0.5984251968503937,"duration":0.6640625000000284},{"name":"A#3","midi":58,"time":68.06249999999991,"velocity":0.1968503937007874,"duration":0.8234374999999972},{"name":"F#3","midi":54,"time":68.06249999999991,"velocity":0.2047244094488189,"duration":0.06874999999999432},{"name":"A#4","midi":70,"time":68.06249999999991,"velocity":0.4015748031496063,"duration":0.15156249999999716},{"name":"F3","midi":53,"time":68.24999999999991,"velocity":0.4330708661417323,"duration":0.6593749999999972},{"name":"D#4","midi":63,"time":68.24999999999991,"velocity":0.5984251968503937,"duration":0.6531250000000028},{"name":"A#3","midi":58,"time":68.24999999999991,"velocity":0.4330708661417323,"duration":0.6843750000000028},{"name":"F#3","midi":54,"time":68.24999999999991,"velocity":0.6141732283464567,"duration":0.078125},{"name":"F#2","midi":42,"time":68.24999999999991,"velocity":0.5984251968503937,"duration":0.08750000000000568},{"name":"A4","midi":69,"time":68.24999999999991,"velocity":0.25984251968503935,"duration":0.125},{"name":"D2","midi":38,"time":68.24999999999991,"velocity":0.8503937007874016,"duration":0.3031250000000085},{"name":"D4","midi":62,"time":68.24999999999991,"velocity":0.7322834645669292,"duration":0.582812500000017},{"name":"F4","midi":65,"time":68.24999999999991,"velocity":0.6614173228346457,"duration":0.7890625},{"name":"A#3","midi":58,"time":68.24999999999991,"velocity":0.8031496062992126,"duration":0.7374999999999972},{"name":"A#4","midi":70,"time":68.43749999999991,"velocity":0.33858267716535434,"duration":0.13437500000000568},{"name":"F#3","midi":54,"time":68.43749999999991,"velocity":0.28346456692913385,"duration":0.08437500000000853},{"name":"F#2","midi":42,"time":68.43749999999991,"velocity":0.5039370078740157,"duration":0.05156250000000284},{"name":"D2","midi":38,"time":68.62499999999993,"velocity":0.6850393700787402,"duration":0.37187499999998863},{"name":"D#5","midi":75,"time":68.62499999999993,"velocity":0.8976377952755905,"duration":0.1171875},{"name":"F#3","midi":54,"time":68.62499999999993,"velocity":0.5905511811023622,"duration":0.0859375},{"name":"F#2","midi":42,"time":68.62499999999993,"velocity":0.7559055118110236,"duration":0.07500000000000284},{"name":"A4","midi":69,"time":68.62499999999993,"velocity":0.3779527559055118,"duration":0.09843750000000284},{"name":"A#4","midi":70,"time":68.62499999999993,"velocity":0.5984251968503937,"duration":0.21875},{"name":"D4","midi":62,"time":68.62499999999993,"velocity":0.5669291338582677,"duration":0.36249999999998295},{"name":"D#5","midi":75,"time":68.81249999999993,"velocity":0.8267716535433071,"duration":0.17656249999998863},{"name":"A#4","midi":70,"time":68.81249999999993,"velocity":0.4409448818897638,"duration":0.1718749999999858},{"name":"F#2","midi":42,"time":68.81249999999993,"velocity":0.6141732283464567,"duration":0.053124999999994316},{"name":"F#3","midi":54,"time":68.81249999999993,"velocity":0.2125984251968504,"duration":0.06718749999998863},{"name":"A#3","midi":58,"time":68.81249999999993,"velocity":0.4251968503937008,"duration":0.2874999999999943},{"name":"D#2","midi":39,"time":68.99999999999991,"velocity":0.8740157480314961,"duration":0.39531250000001705},{"name":"G4","midi":67,"time":68.99999999999991,"velocity":0.6850393700787402,"duration":0.5234375000000142},{"name":"D#4","midi":63,"time":68.99999999999991,"velocity":0.6456692913385826,"duration":0.4750000000000085},{"name":"A#3","midi":58,"time":68.99999999999991,"velocity":0.6456692913385826,"duration":0.4375000000000142},{"name":"D#2","midi":39,"time":68.99999999999991,"velocity":0.6456692913385826,"duration":0.770312500000017},{"name":"D#3","midi":51,"time":68.99999999999991,"velocity":0.5354330708661418,"duration":0.36406250000001705},{"name":"A#5","midi":82,"time":68.99999999999991,"velocity":0.8740157480314961,"duration":0.3046875000000142},{"name":"D#4","midi":63,"time":68.99999999999991,"velocity":0.47244094488188976,"duration":0.582812500000017},{"name":"G3","midi":55,"time":68.99999999999991,"velocity":0.3543307086614173,"duration":0.6234375000000085},{"name":"G4","midi":67,"time":68.99999999999991,"velocity":0.5984251968503937,"duration":0.6640625000000142},{"name":"A4","midi":69,"time":68.99999999999991,"velocity":0.2125984251968504,"duration":0.13437500000000568},{"name":"C2","midi":36,"time":68.99999999999991,"velocity":0.8740157480314961,"duration":0.3062500000000199},{"name":"F#2","midi":42,"time":68.99999999999991,"velocity":0.7795275590551181,"duration":0.08124999999999716},{"name":"F#3","midi":54,"time":68.99999999999991,"velocity":0.6377952755905512,"duration":0.08281250000000284},{"name":"A#4","midi":70,"time":68.99999999999991,"velocity":0.6850393700787402,"duration":0.3375000000000199},{"name":"G4","midi":67,"time":68.99999999999991,"velocity":0.7086614173228346,"duration":0.7375000000000114},{"name":"D#4","midi":63,"time":68.99999999999991,"velocity":0.6850393700787402,"duration":0.6406250000000142},{"name":"G4","midi":67,"time":68.99999999999991,"velocity":0.6850393700787402,"duration":0.7515625000000199},{"name":"D#4","midi":63,"time":68.99999999999991,"velocity":0.7559055118110236,"duration":0.7375000000000114},{"name":"A#3","midi":58,"time":68.99999999999991,"velocity":0.8267716535433071,"duration":0.6328125000000142},{"name":"G4","midi":67,"time":68.99999999999991,"velocity":0.5984251968503937,"duration":0.7515625000000199},{"name":"F#3","midi":54,"time":69.18749999999991,"velocity":0.1968503937007874,"duration":0.06406250000000568},{"name":"A#4","midi":70,"time":69.18749999999991,"velocity":0.3543307086614173,"duration":0.3734375000000085},{"name":"F#2","midi":42,"time":69.18749999999991,"velocity":0.4330708661417323,"duration":0.06875000000000853},{"name":"G5","midi":79,"time":69.37499999999993,"velocity":0.8503937007874016,"duration":0.40312500000000284},{"name":"F#3","midi":54,"time":69.37499999999993,"velocity":0.5669291338582677,"duration":0.08124999999999716},{"name":"A4","midi":69,"time":69.37499999999993,"velocity":0.25984251968503935,"duration":0.1015625},{"name":"F#2","midi":42,"time":69.37499999999993,"velocity":0.4251968503937008,"duration":0.08906249999999716},{"name":"A#3","midi":58,"time":69.37499999999993,"velocity":0.25196850393700787,"duration":0.29218749999999716},{"name":"A#4","midi":70,"time":69.56249999999993,"velocity":0.4251968503937008,"duration":0.15468749999999432},{"name":"F#2","midi":42,"time":69.56249999999993,"velocity":0.3464566929133858,"duration":0.07500000000000284},{"name":"F#3","midi":54,"time":69.56249999999993,"velocity":0.30708661417322836,"duration":0.046875},{"name":"D#4","midi":63,"time":69.56249999999993,"velocity":0.33858267716535434,"duration":0.20000000000000284},{"name":"A#3","midi":58,"time":69.56249999999993,"velocity":0.4094488188976378,"duration":0.17499999999999716},{"name":"D2","midi":38,"time":69.74999999999993,"velocity":0.8267716535433071,"duration":0.27812499999998863},{"name":"F4","midi":65,"time":69.74999999999993,"velocity":0.6456692913385826,"duration":0.34375},{"name":"D4","midi":62,"time":69.74999999999993,"velocity":0.6614173228346457,"duration":0.3187499999999943},{"name":"A#3","midi":58,"time":69.74999999999993,"velocity":0.5826771653543307,"duration":0.37031250000001137},{"name":"D2","midi":38,"time":69.74999999999993,"velocity":0.6850393700787402,"duration":0.3609375000000057},{"name":"D3","midi":50,"time":69.74999999999993,"velocity":0.5984251968503937,"duration":0.3515625},{"name":"D#5","midi":75,"time":69.74999999999993,"velocity":0.8740157480314961,"duration":0.3343749999999943},{"name":"D4","midi":62,"time":69.74999999999993,"velocity":0.47244094488188976,"duration":0.8062500000000341},{"name":"A#3","midi":58,"time":69.74999999999993,"velocity":0.4251968503937008,"duration":0.7687500000000256},{"name":"F3","midi":53,"time":69.74999999999993,"velocity":0.4251968503937008,"duration":0.7968750000000284},{"name":"F4","midi":65,"time":69.74999999999993,"velocity":0.6456692913385826,"duration":0.4640625000000256},{"name":"A#2","midi":46,"time":69.74999999999993,"velocity":0.8031496062992126,"duration":0.16249999999999432},{"name":"F#3","midi":54,"time":69.74999999999993,"velocity":0.6377952755905512,"duration":0.078125},{"name":"A4","midi":69,"time":69.74999999999993,"velocity":0.30708661417322836,"duration":0.11562499999999432},{"name":"D2","midi":38,"time":69.74999999999993,"velocity":0.8740157480314961,"duration":0.49687500000003126},{"name":"A#4","midi":70,"time":69.74999999999993,"velocity":0.7559055118110236,"duration":0.3359375},{"name":"F4","midi":65,"time":69.74999999999993,"velocity":0.7086614173228346,"duration":0.6671875000000256},{"name":"D4","midi":62,"time":69.74999999999993,"velocity":0.7322834645669292,"duration":0.9234375000000483},{"name":"A#3","midi":58,"time":69.74999999999993,"velocity":0.7559055118110236,"duration":0.8406250000000313},{"name":"F4","midi":65,"time":69.74999999999993,"velocity":0.6850393700787402,"duration":0.8296875000000341},{"name":"F4","midi":65,"time":69.74999999999993,"velocity":0.6456692913385826,"duration":0.8296875000000341},{"name":"A#4","midi":70,"time":69.93749999999993,"velocity":0.4015748031496063,"duration":0.4875000000000256},{"name":"F#3","midi":54,"time":69.93749999999993,"velocity":0.28346456692913385,"duration":0.07656249999999432},{"name":"D#5","midi":75,"time":70.12499999999994,"velocity":0.8503937007874016,"duration":0.7453125000000256},{"name":"A4","midi":69,"time":70.12499999999994,"velocity":0.3464566929133858,"duration":0.09687500000001137},{"name":"F#3","midi":54,"time":70.12499999999994,"velocity":0.5196850393700787,"duration":0.08750000000000568},{"name":"A#2","midi":46,"time":70.12499999999994,"velocity":0.8031496062992126,"duration":0.1406250000000142},{"name":"D2","midi":38,"time":70.31249999999996,"velocity":0.6850393700787402,"duration":0.21406249999999716},{"name":"A#4","midi":70,"time":70.31249999999996,"velocity":0.4409448818897638,"duration":0.13750000000000284},{"name":"C2","midi":36,"time":70.31249999999996,"velocity":0.48031496062992124,"duration":0.05937500000000284},{"name":"F#3","midi":54,"time":70.31249999999996,"velocity":0.2047244094488189,"duration":0.05781249999999716},{"name":"F4","midi":65,"time":70.31249999999996,"velocity":0.5039370078740157,"duration":0.3609375000000199},{"name":"A#3","midi":58,"time":70.31249999999996,"velocity":0.6141732283464567,"duration":0.3609375000000199},{"name":"C2","midi":36,"time":70.49999999999996,"velocity":0.8031496062992126,"duration":0.33281250000001705},{"name":"G3","midi":55,"time":70.49999999999996,"velocity":0.5196850393700787,"duration":1.5406250000000057},{"name":"C4","midi":60,"time":70.49999999999996,"velocity":0.6456692913385826,"duration":0.3671875000000142},{"name":"D#4","midi":63,"time":70.49999999999996,"velocity":0.6850393700787402,"duration":0.3671875000000142},{"name":"C3","midi":48,"time":70.49999999999996,"velocity":0.6299212598425197,"duration":1.5140625000000085},{"name":"C2","midi":36,"time":70.49999999999996,"velocity":0.7086614173228346,"duration":1.29062500000002},{"name":"G3","midi":55,"time":70.49999999999996,"velocity":0.3858267716535433,"duration":2.971874999999997},{"name":"C4","midi":60,"time":70.49999999999996,"velocity":0.4881889763779528,"duration":0.7406250000000085},{"name":"D#4","midi":63,"time":70.49999999999996,"velocity":0.6299212598425197,"duration":0.7406250000000085},{"name":"F#3","midi":54,"time":70.49999999999996,"velocity":0.6771653543307087,"duration":0.08437500000000853},{"name":"C2","midi":36,"time":70.49999999999996,"velocity":0.8740157480314961,"duration":1.4859375000000057},{"name":"A4","midi":69,"time":70.49999999999996,"velocity":0.33070866141732286,"duration":0.09375000000001421},{"name":"F#2","midi":42,"time":70.49999999999996,"velocity":0.7795275590551181,"duration":0.09218750000000853},{"name":"A#4","midi":70,"time":70.49999999999996,"velocity":0.6299212598425197,"duration":0.32500000000001705},{"name":"G4","midi":67,"time":70.49999999999996,"velocity":0.7086614173228346,"duration":0.3671875000000142},{"name":"D#4","midi":63,"time":70.49999999999996,"velocity":0.6299212598425197,"duration":0.7578125000000142},{"name":"F#3","midi":54,"time":70.68749999999997,"velocity":0.2125984251968504,"duration":0.046875},{"name":"A#4","midi":70,"time":70.68749999999997,"velocity":0.4251968503937008,"duration":0.3218750000000057},{"name":"F#2","midi":42,"time":70.68749999999997,"velocity":0.4251968503937008,"duration":0.06406250000000568},{"name":"C4","midi":60,"time":70.68749999999997,"velocity":0.6299212598425197,"duration":1.2078124999999886},{"name":"D#4","midi":63,"time":70.68749999999997,"velocity":0.5984251968503937,"duration":0.8718750000000028},{"name":"G4","midi":67,"time":70.68749999999997,"velocity":0.5826771653543307,"duration":0.22812500000000568},{"name":"F#3","midi":54,"time":70.87499999999997,"velocity":0.5354330708661418,"duration":0.08125000000001137},{"name":"F#2","midi":42,"time":70.87499999999997,"velocity":0.6614173228346457,"duration":0.07343750000001137},{"name":"A4","midi":69,"time":70.87499999999997,"velocity":0.3937007874015748,"duration":0.08750000000000568},{"name":"C4","midi":60,"time":70.87499999999997,"velocity":0.6850393700787402,"duration":1.1124999999999972},{"name":"G4","midi":67,"time":70.87499999999997,"velocity":0.7322834645669292,"duration":0.3656249999999943},{"name":"D#4","midi":63,"time":70.87499999999997,"velocity":0.6850393700787402,"duration":0.9515624999999943},{"name":"A#4","midi":70,"time":71.06249999999997,"velocity":0.4409448818897638,"duration":0.14218749999999147},{"name":"F#2","midi":42,"time":71.06249999999997,"velocity":0.4251968503937008,"duration":0.05781249999999716},{"name":"F#3","midi":54,"time":71.06249999999997,"velocity":0.18110236220472442,"duration":0.09999999999999432},{"name":"G4","midi":67,"time":71.06249999999997,"velocity":0.6850393700787402,"duration":0.9249999999999972},{"name":"A#4","midi":70,"time":71.06249999999997,"velocity":0.5826771653543307,"duration":0.5125000000000028},{"name":"D#4","midi":63,"time":71.06249999999997,"velocity":0.5826771653543307,"duration":0.8562499999999886},{"name":"D3","midi":50,"time":71.23749999999997,"velocity":0.5511811023622047,"duration":0.10625000000000284},{"name":"A4","midi":69,"time":71.24999999999997,"velocity":0.3228346456692913,"duration":0.07656249999999432},{"name":"D2","midi":38,"time":71.24999999999997,"velocity":0.8740157480314961,"duration":0.22187499999999716},{"name":"F#2","midi":42,"time":71.24999999999997,"velocity":0.7795275590551181,"duration":0.10468749999999716},{"name":"F#3","midi":54,"time":71.24999999999997,"velocity":0.6535433070866141,"duration":0.07656249999999432},{"name":"C4","midi":60,"time":71.24999999999997,"velocity":0.7322834645669292,"duration":0.7828124999999915},{"name":"G4","midi":67,"time":71.24999999999997,"velocity":0.7086614173228346,"duration":1.4609374999999858},{"name":"D#4","midi":63,"time":71.24999999999997,"velocity":0.5669291338582677,"duration":0.7374999999999972},{"name":"D4","midi":62,"time":71.27187499999997,"velocity":0.6850393700787402,"duration":0.10625000000000284},{"name":"D#4","midi":63,"time":71.29687499999997,"velocity":0.7795275590551181,"duration":0.7390624999999886},{"name":"D#3","midi":51,"time":71.30312499999997,"velocity":0.5354330708661418,"duration":0.6703124999999943},{"name":"A#4","midi":70,"time":71.43749999999997,"velocity":0.3779527559055118,"duration":0.15156249999999716},{"name":"F#3","midi":54,"time":71.43749999999997,"velocity":0.23622047244094488,"duration":0.04999999999999716},{"name":"F#2","midi":42,"time":71.43749999999997,"velocity":0.29133858267716534,"duration":0.06562499999999716},{"name":"F#2","midi":42,"time":71.62499999999997,"velocity":0.6614173228346457,"duration":0.07968750000000568},{"name":"A4","midi":69,"time":71.62499999999997,"velocity":0.41732283464566927,"duration":0.11093750000000568},{"name":"F#3","midi":54,"time":71.62499999999997,"velocity":0.5905511811023622,"duration":0.08125000000001137},{"name":"C2","midi":36,"time":71.81249999999997,"velocity":0.8267716535433071,"duration":0.21249999999999147},{"name":"F#3","midi":54,"time":71.81249999999997,"velocity":0.28346456692913385,"duration":0.03906249999998579},{"name":"F#2","midi":42,"time":71.81249999999997,"velocity":0.33070866141732286,"duration":0.04374999999998863},{"name":"C2","midi":36,"time":71.81249999999997,"velocity":0.8503937007874016,"duration":0.3343749999999943},{"name":"C4","midi":60,"time":71.81249999999997,"velocity":0.44881889763779526,"duration":0.924999999999983},{"name":"A#4","midi":70,"time":71.82968749999996,"velocity":0.8031496062992126,"duration":0.5078125000000142},{"name":"C3","midi":48,"time":71.99999999999997,"velocity":0.4881889763779528,"duration":0.49531249999999716},{"name":"D4","midi":62,"time":71.99999999999997,"velocity":0.5826771653543307,"duration":0.5281250000000028},{"name":"C2","midi":36,"time":71.99999999999997,"velocity":0.5984251968503937,"duration":0.24531249999999716},{"name":"F#2","midi":42,"time":71.99999999999997,"velocity":0.6850393700787402,"duration":0.08593749999998579},{"name":"F#3","midi":54,"time":71.99999999999997,"velocity":0.6141732283464567,"duration":0.09062499999998863},{"name":"A4","midi":69,"time":71.99999999999997,"velocity":0.2125984251968504,"duration":0.13437499999999147},{"name":"C4","midi":60,"time":71.99999999999997,"velocity":0.6614173228346457,"duration":1.3171874999999744},{"name":"G4","midi":67,"time":71.99999999999997,"velocity":0.6850393700787402,"duration":0.737499999999983},{"name":"D3","midi":50,"time":72.03593749999996,"velocity":0.3700787401574803,"duration":0.08750000000000568},{"name":"D#3","midi":51,"time":72.06406249999996,"velocity":0.5039370078740157,"duration":1.50624999999998},{"name":"C2","midi":36,"time":72.18749999999997,"velocity":0.6850393700787402,"duration":0.07656250000000853},{"name":"D#4","midi":63,"time":72.18749999999997,"velocity":0.5826771653543307,"duration":0.14687500000000853},{"name":"C2","midi":36,"time":72.18749999999997,"velocity":0.6456692913385826,"duration":0.40156249999999716},{"name":"A#4","midi":70,"time":72.18749999999997,"velocity":0.3543307086614173,"duration":0.23281249999999432},{"name":"F#2","midi":42,"time":72.18749999999997,"velocity":0.4015748031496063,"duration":0.05937500000000284},{"name":"F#3","midi":54,"time":72.18749999999997,"velocity":0.2992125984251969,"duration":0.04999999999999716},{"name":"D#4","midi":63,"time":72.18749999999997,"velocity":0.3464566929133858,"duration":0.4140625},{"name":"A#4","midi":70,"time":72.18749999999997,"velocity":0.4015748031496063,"duration":0.5296874999999801},{"name":"C2","midi":36,"time":72.37499999999997,"velocity":0.7795275590551181,"duration":0.7265625},{"name":"A#4","midi":70,"time":72.37499999999997,"velocity":0.7086614173228346,"duration":0.7109375},{"name":"F#3","midi":54,"time":72.37499999999997,"velocity":0.5511811023622047,"duration":0.07968749999999147},{"name":"A4","midi":69,"time":72.37499999999997,"velocity":0.25984251968503935,"duration":0.1015625},{"name":"F#2","midi":42,"time":72.37499999999997,"velocity":0.5826771653543307,"duration":0.08437499999999432},{"name":"C2","midi":36,"time":72.37499999999997,"velocity":0.8503937007874016,"duration":0.8343749999999943},{"name":"F#3","midi":54,"time":72.56249999999997,"velocity":0.25984251968503935,"duration":0.053124999999994316},{"name":"A#4","midi":70,"time":72.56249999999997,"velocity":0.4251968503937008,"duration":0.6124999999999972},{"name":"F#2","midi":42,"time":72.56249999999997,"velocity":0.4645669291338583,"duration":0.05937499999998863},{"name":"D#4","midi":63,"time":72.56249999999997,"velocity":0.2283464566929134,"duration":0.3921875000000057},{"name":"C3","midi":48,"time":72.74999999999996,"velocity":0.4330708661417323,"duration":0.6468749999999943},{"name":"F#3","midi":54,"time":72.74999999999996,"velocity":0.6535433070866141,"duration":0.07968750000000568},{"name":"A4","midi":69,"time":72.74999999999996,"velocity":0.30708661417322836,"duration":0.11562500000000853},{"name":"D2","midi":38,"time":72.74999999999996,"velocity":0.8976377952755905,"duration":0.2203125000000199},{"name":"A#2","midi":46,"time":72.74999999999996,"velocity":0.8267716535433071,"duration":0.10625000000000284},{"name":"G4","midi":67,"time":72.74999999999996,"velocity":0.4015748031496063,"duration":0.4781249999999915},{"name":"D#4","midi":63,"time":72.74999999999996,"velocity":0.5511811023622047,"duration":0.45000000000001705},{"name":"A#4","midi":70,"time":72.74999999999996,"velocity":0.7322834645669292,"duration":0.5703124999999858},{"name":"C4","midi":60,"time":72.74999999999996,"velocity":0.7086614173228346,"duration":0.6234374999999943},{"name":"G4","midi":67,"time":72.74999999999996,"velocity":0.7322834645669292,"duration":0.6390624999999943},{"name":"A#4","midi":70,"time":72.93749999999997,"velocity":0.4015748031496063,"duration":0.44687499999997726},{"name":"F#3","midi":54,"time":72.93749999999997,"velocity":0.25984251968503935,"duration":0.06406250000000568},{"name":"G1","midi":31,"time":73.12499999999997,"velocity":0.8031496062992126,"duration":0.3953124999999744},{"name":"C4","midi":60,"time":73.12499999999997,"velocity":0.5354330708661418,"duration":0.37187499999998863},{"name":"C5","midi":72,"time":73.12499999999997,"velocity":0.8740157480314961,"duration":0.18437499999997442},{"name":"F#2","midi":42,"time":73.12499999999997,"velocity":0.6456692913385826,"duration":0.09062499999998863},{"name":"A4","midi":69,"time":73.12499999999997,"velocity":0.3464566929133858,"duration":0.09687499999998295},{"name":"F#3","midi":54,"time":73.12499999999997,"velocity":0.5354330708661418,"duration":0.08124999999999716},{"name":"C2","midi":36,"time":73.12499999999997,"velocity":0.7559055118110236,"duration":0.2734374999999858},{"name":"D4","midi":62,"time":73.31249999999994,"velocity":0.5039370078740157,"duration":0.12812500000001137},{"name":"D5","midi":74,"time":73.31249999999994,"velocity":0.8503937007874016,"duration":0.20156250000000853},{"name":"A#4","midi":70,"time":73.31249999999994,"velocity":0.4409448818897638,"duration":0.13750000000001705},{"name":"F#2","midi":42,"time":73.31249999999994,"velocity":0.6456692913385826,"duration":0.04999999999999716},{"name":"F#3","midi":54,"time":73.31249999999994,"velocity":0.33070866141732286,"duration":0.05937500000000284},{"name":"G4","midi":67,"time":73.31249999999994,"velocity":0.4330708661417323,"duration":0.9171875000000114},{"name":"C4","midi":60,"time":73.31249999999994,"velocity":0.3937007874015748,"duration":0.4359375000000085},{"name":"G#1","midi":32,"time":73.49999999999996,"velocity":0.8740157480314961,"duration":1.4906250000000085},{"name":"D#4","midi":63,"time":73.49999999999996,"velocity":0.6614173228346457,"duration":0.651562499999983},{"name":"G#2","midi":44,"time":73.49999999999996,"velocity":0.7086614173228346,"duration":1.2656250000000142},{"name":"C4","midi":60,"time":73.49999999999996,"velocity":0.6141732283464567,"duration":0.38593749999999716},{"name":"D#5","midi":75,"time":73.49999999999996,"velocity":0.9212598425196851,"duration":0.3375000000000057},{"name":"C4","midi":60,"time":73.49999999999996,"velocity":0.4094488188976378,"duration":0.6718749999999858},{"name":"G#3","midi":56,"time":73.49999999999996,"velocity":0.4015748031496063,"duration":0.296875},{"name":"C2","midi":36,"time":73.49999999999996,"velocity":0.8740157480314961,"duration":0.3218750000000057},{"name":"F#3","midi":54,"time":73.49999999999996,"velocity":0.6771653543307087,"duration":0.08749999999999147},{"name":"F#2","midi":42,"time":73.49999999999996,"velocity":0.8031496062992126,"duration":0.08749999999999147},{"name":"A4","midi":69,"time":73.49999999999996,"velocity":0.4015748031496063,"duration":0.12499999999998579},{"name":"D#4","midi":63,"time":73.49999999999996,"velocity":0.44881889763779526,"duration":1.160937500000017},{"name":"C4","midi":60,"time":73.49999999999996,"velocity":0.4251968503937008,"duration":0.6890624999999915},{"name":"D#4","midi":63,"time":73.49999999999996,"velocity":0.6456692913385826,"duration":1.4734375000000028},{"name":"C4","midi":60,"time":73.49999999999996,"velocity":0.6850393700787402,"duration":0.7296874999999972},{"name":"G#3","midi":56,"time":73.49999999999996,"velocity":0.8503937007874016,"duration":0.5999999999999943},{"name":"A#4","midi":70,"time":73.68749999999994,"velocity":0.4251968503937008,"duration":0.14531250000001705},{"name":"F#3","midi":54,"time":73.68749999999994,"velocity":0.30708661417322836,"duration":0.056250000000005684},{"name":"F#2","midi":42,"time":73.68749999999994,"velocity":0.5984251968503937,"duration":0.05156250000000284},{"name":"C4","midi":60,"time":73.87499999999996,"velocity":0.3543307086614173,"duration":0.43437500000000284},{"name":"G5","midi":79,"time":73.87499999999996,"velocity":0.8503937007874016,"duration":0.3499999999999943},{"name":"F#3","midi":54,"time":73.87499999999996,"velocity":0.48031496062992124,"duration":0.08124999999999716},{"name":"A4","midi":69,"time":73.87499999999996,"velocity":0.3464566929133858,"duration":0.11406250000000284},{"name":"F#2","midi":42,"time":73.87499999999996,"velocity":0.6614173228346457,"duration":0.07968749999999147},{"name":"C4","midi":60,"time":73.87499999999996,"velocity":0.3858267716535433,"duration":0.8218750000000199},{"name":"G#3","midi":56,"time":73.87499999999996,"velocity":0.5039370078740157,"duration":0.6718750000000142},{"name":"F#3","midi":54,"time":74.06249999999996,"velocity":0.23622047244094488,"duration":0.07812499999998579},{"name":"F#2","midi":42,"time":74.06249999999996,"velocity":0.5511811023622047,"duration":0.05156249999998863},{"name":"A#4","midi":70,"time":74.06249999999996,"velocity":0.4409448818897638,"duration":0.15937499999999716},{"name":"G#3","midi":56,"time":74.24999999999996,"velocity":0.5196850393700787,"duration":0.7421875000000142},{"name":"A#4","midi":70,"time":74.24999999999996,"velocity":0.7086614173228346,"duration":0.32343750000001137},{"name":"F5","midi":77,"time":74.24999999999996,"velocity":0.7795275590551181,"duration":0.2734375000000142},{"name":"A#4","midi":70,"time":74.24999999999996,"velocity":0.6850393700787402,"duration":0.32500000000001705},{"name":"D2","midi":38,"time":74.24999999999996,"velocity":0.8740157480314961,"duration":0.26093750000001137},{"name":"A4","midi":69,"time":74.24999999999996,"velocity":0.25196850393700787,"duration":0.12343750000000853},{"name":"F#2","midi":42,"time":74.24999999999996,"velocity":0.8031496062992126,"duration":0.0859375},{"name":"F#3","midi":54,"time":74.24999999999996,"velocity":0.6141732283464567,"duration":0.08750000000000568},{"name":"D#4","midi":63,"time":74.24999999999996,"velocity":0.6850393700787402,"duration":0.7984375000000057},{"name":"C4","midi":60,"time":74.24999999999996,"velocity":0.7086614173228346,"duration":0.46718750000002274},{"name":"A#4","midi":70,"time":74.24999999999996,"velocity":0.7559055118110236,"duration":0.6937500000000085},{"name":"C4","midi":60,"time":74.24999999999996,"velocity":0.5984251968503937,"duration":0.606250000000017},{"name":"G#3","midi":56,"time":74.24999999999996,"velocity":0.7086614173228346,"duration":0.7437500000000199},{"name":"G#4","midi":68,"time":74.24999999999996,"velocity":0.7322834645669292,"duration":0.9234375000000199},{"name":"A#4","midi":70,"time":74.24999999999996,"velocity":0.6850393700787402,"duration":1.020312500000017},{"name":"A#4","midi":70,"time":74.43749999999997,"velocity":0.41732283464566927,"duration":0.9171874999999972},{"name":"F#3","midi":54,"time":74.43749999999997,"velocity":0.2125984251968504,"duration":0.060937499999994316},{"name":"F#2","midi":42,"time":74.43749999999997,"velocity":0.29133858267716534,"duration":0.05781249999999716},{"name":"C4","midi":60,"time":74.62499999999997,"velocity":0.4015748031496063,"duration":0.30781249999999716},{"name":"D#3","midi":51,"time":74.62499999999997,"velocity":0.44881889763779526,"duration":0.3187499999999943},{"name":"F5","midi":77,"time":74.62499999999997,"velocity":0.8740157480314961,"duration":0.7234375000000028},{"name":"F#2","midi":42,"time":74.62499999999997,"velocity":0.6614173228346457,"duration":0.08281250000000284},{"name":"A4","midi":69,"time":74.62499999999997,"velocity":0.3543307086614173,"duration":0.11093750000000568},{"name":"F#3","midi":54,"time":74.62499999999997,"velocity":0.5354330708661418,"duration":0.07656250000000853},{"name":"F#3","midi":54,"time":74.81249999999997,"velocity":0.31496062992125984,"duration":0.05781249999999716},{"name":"A#4","midi":70,"time":74.81249999999997,"velocity":0.4015748031496063,"duration":0.6812500000000057},{"name":"F#2","midi":42,"time":74.81249999999997,"velocity":0.5511811023622047,"duration":0.05156250000000284},{"name":"C4","midi":60,"time":74.81249999999997,"velocity":0.28346456692913385,"duration":0.22968749999999716},{"name":"G#3","midi":56,"time":74.81249999999997,"velocity":0.4330708661417323,"duration":0.3609375000000057},{"name":"C4","midi":60,"time":74.81249999999997,"velocity":0.2677165354330709,"duration":0.3609375000000057},{"name":"A#1","midi":34,"time":74.99999999999997,"velocity":0.8031496062992126,"duration":0.3359375},{"name":"D4","midi":62,"time":74.99999999999997,"velocity":0.6456692913385826,"duration":0.5546875},{"name":"A#2","midi":46,"time":74.99999999999997,"velocity":0.6614173228346457,"duration":1.049999999999983},{"name":"F4","midi":65,"time":74.99999999999997,"velocity":0.6850393700787402,"duration":0.7390624999999886},{"name":"F3","midi":53,"time":74.99999999999997,"velocity":0.3700787401574803,"duration":1.36562499999998},{"name":"A#3","midi":58,"time":74.99999999999997,"velocity":0.5354330708661418,"duration":0.6124999999999972},{"name":"F#3","midi":54,"time":74.99999999999997,"velocity":0.7007874015748031,"duration":0.08124999999999716},{"name":"A4","midi":69,"time":74.99999999999997,"velocity":0.25196850393700787,"duration":0.11406250000000284},{"name":"C2","midi":36,"time":74.99999999999997,"velocity":0.8503937007874016,"duration":0.22031250000000568},{"name":"F#2","midi":42,"time":74.99999999999997,"velocity":0.7795275590551181,"duration":0.11249999999999716},{"name":"A#4","midi":70,"time":75.18749999999997,"velocity":0.3228346456692913,"duration":0.3062500000000057},{"name":"F#2","midi":42,"time":75.18749999999997,"velocity":0.2677165354330709,"duration":0.06718750000000284},{"name":"F#3","midi":54,"time":75.18749999999997,"velocity":0.14173228346456693,"duration":0.040625000000005684},{"name":"A#3","midi":58,"time":75.18749999999997,"velocity":0.5669291338582677,"duration":0.48906249999998863},{"name":"D4","midi":62,"time":75.18749999999997,"velocity":0.5984251968503937,"duration":0.5515624999999886},{"name":"F4","midi":65,"time":75.18749999999997,"velocity":0.5826771653543307,"duration":0.6499999999999915},{"name":"A#1","midi":34,"time":75.37499999999997,"velocity":0.7559055118110236,"duration":0.6859374999999801},{"name":"A#3","midi":58,"time":75.37499999999997,"velocity":0.4094488188976378,"duration":0.36406249999998863},{"name":"D5","midi":74,"time":75.37499999999997,"velocity":0.8976377952755905,"duration":0.4281249999999801},{"name":"F#2","midi":42,"time":75.37499999999997,"velocity":0.6614173228346457,"duration":0.10312500000000568},{"name":"F#3","midi":54,"time":75.37499999999997,"velocity":0.5354330708661418,"duration":0.07500000000000284},{"name":"A4","midi":69,"time":75.37499999999997,"velocity":0.3464566929133858,"duration":0.11093750000000568},{"name":"C2","midi":36,"time":75.37499999999997,"velocity":0.8503937007874016,"duration":0.19843749999999716},{"name":"F4","midi":65,"time":75.37499999999997,"velocity":0.6850393700787402,"duration":0.9359374999999801},{"name":"D4","midi":62,"time":75.37499999999997,"velocity":0.6850393700787402,"duration":0.44062499999998295},{"name":"A#4","midi":70,"time":75.37499999999997,"velocity":0.6850393700787402,"duration":0.33906249999998295},{"name":"A#3","midi":58,"time":75.37499999999997,"velocity":0.6614173228346457,"duration":0.6328124999999858},{"name":"F#2","midi":42,"time":75.56249999999997,"velocity":0.4645669291338583,"duration":0.07187499999999147},{"name":"A#4","midi":70,"time":75.56249999999997,"velocity":0.4015748031496063,"duration":0.3374999999999915},{"name":"F#3","midi":54,"time":75.56249999999997,"velocity":0.3543307086614173,"duration":0.06874999999999432},{"name":"D4","midi":62,"time":75.74999999999996,"velocity":0.5826771653543307,"duration":0.2578125},{"name":"F3","midi":53,"time":75.74999999999996,"velocity":0.6141732283464567,"duration":0.7343749999999858},{"name":"C5","midi":72,"time":75.74999999999996,"velocity":0.8267716535433071,"duration":0.3374999999999915},{"name":"A#3","midi":58,"time":75.74999999999996,"velocity":0.6456692913385826,"duration":0.6421874999999915},{"name":"D2","midi":38,"time":75.74999999999996,"velocity":0.8976377952755905,"duration":0.2874999999999943},{"name":"F#2","midi":42,"time":75.74999999999996,"velocity":0.7086614173228346,"duration":0.09375},{"name":"A4","midi":69,"time":75.74999999999996,"velocity":0.25984251968503935,"duration":0.125},{"name":"F#3","midi":54,"time":75.74999999999996,"velocity":0.6535433070866141,"duration":0.08281250000000284},{"name":"D4","midi":62,"time":75.74999999999996,"velocity":0.5354330708661418,"duration":0.31562499999999716},{"name":"F4","midi":65,"time":75.74999999999996,"velocity":0.6141732283464567,"duration":0.5687499999999943},{"name":"A#3","midi":58,"time":75.74999999999996,"velocity":0.7795275590551181,"duration":0.737499999999983},{"name":"D4","midi":62,"time":75.74999999999996,"velocity":0.6456692913385826,"duration":0.3593749999999858},{"name":"C4","midi":60,"time":75.93749999999996,"velocity":0.3464566929133858,"duration":0.1953124999999858},{"name":"F#3","midi":54,"time":75.93749999999996,"velocity":0.3464566929133858,"duration":0.07343749999999716},{"name":"F#2","midi":42,"time":75.93749999999996,"velocity":0.5669291338582677,"duration":0.08437499999999432},{"name":"A#4","midi":70,"time":75.93749999999996,"velocity":0.33858267716535434,"duration":0.13437499999999147},{"name":"F4","midi":65,"time":75.93749999999996,"velocity":0.2440944881889764,"duration":0.4828124999999943},{"name":"D4","midi":62,"time":75.93749999999996,"velocity":0.3937007874015748,"duration":0.3734374999999943},{"name":"D#4","midi":63,"time":75.93749999999996,"velocity":0.3464566929133858,"duration":0.1953124999999858},{"name":"A#1","midi":34,"time":76.12499999999994,"velocity":0.5354330708661418,"duration":0.18437500000000284},{"name":"C4","midi":60,"time":76.12499999999994,"velocity":0.3858267716535433,"duration":0.15312500000000284},{"name":"C5","midi":72,"time":76.12499999999994,"velocity":0.8740157480314961,"duration":0.9953124999999972},{"name":"D4","midi":62,"time":76.12499999999994,"velocity":0.5039370078740157,"duration":0.2796875000000085},{"name":"A4","midi":69,"time":76.12499999999994,"velocity":0.3779527559055118,"duration":0.09843750000000284},{"name":"F#3","midi":54,"time":76.12499999999994,"velocity":0.5511811023622047,"duration":0.078125},{"name":"A#2","midi":46,"time":76.12499999999994,"velocity":0.7559055118110236,"duration":0.09375},{"name":"A#4","midi":70,"time":76.12499999999994,"velocity":0.6614173228346457,"duration":0.23593750000000568},{"name":"D4","midi":62,"time":76.12499999999994,"velocity":0.6456692913385826,"duration":0.34843750000000284},{"name":"F4","midi":65,"time":76.12499999999994,"velocity":0.5039370078740157,"duration":0.36249999999999716},{"name":"C2","midi":36,"time":76.31249999999996,"velocity":0.5984251968503937,"duration":0.12812499999999716},{"name":"D4","midi":62,"time":76.31249999999996,"velocity":0.48031496062992124,"duration":0.17499999999998295},{"name":"C4","midi":60,"time":76.31249999999996,"velocity":0.48031496062992124,"duration":0.13906249999999432},{"name":"A#4","midi":70,"time":76.31249999999996,"velocity":0.4409448818897638,"duration":0.1718749999999858},{"name":"F#3","midi":54,"time":76.31249999999996,"velocity":0.2755905511811024,"duration":0.07187499999999147},{"name":"A#3","midi":58,"time":76.31249999999996,"velocity":0.3700787401574803,"duration":0.17656249999998863},{"name":"D#4","midi":63,"time":76.31249999999996,"velocity":0.48031496062992124,"duration":0.13906249999999432},{"name":"C2","midi":36,"time":76.49999999999994,"velocity":0.8503937007874016,"duration":0.3046875000000142},{"name":"C3","midi":48,"time":76.49999999999994,"velocity":0.6141732283464567,"duration":1.296875},{"name":"C2","midi":36,"time":76.49999999999994,"velocity":0.8031496062992126,"duration":1.2000000000000028},{"name":"D#4","midi":63,"time":76.49999999999994,"velocity":0.6850393700787402,"duration":0.6468749999999943},{"name":"C4","midi":60,"time":76.49999999999994,"velocity":0.6614173228346457,"duration":0.6953125},{"name":"G3","midi":55,"time":76.49999999999994,"velocity":0.5039370078740157,"duration":0.7609374999999972},{"name":"C4","midi":60,"time":76.49999999999994,"velocity":0.5669291338582677,"duration":0.7374999999999972},{"name":"A4","midi":69,"time":76.49999999999994,"velocity":0.2125984251968504,"duration":0.13437500000000568},{"name":"F#2","midi":42,"time":76.49999999999994,"velocity":0.8267716535433071,"duration":0.0859375},{"name":"F#3","midi":54,"time":76.49999999999994,"velocity":0.6535433070866141,"duration":0.07968750000000568},{"name":"C2","midi":36,"time":76.49999999999994,"velocity":0.8740157480314961,"duration":1.4187500000000028},{"name":"D#4","midi":63,"time":76.49999999999994,"velocity":0.6456692913385826,"duration":0.65625},{"name":"G4","midi":67,"time":76.49999999999994,"velocity":0.6850393700787402,"duration":0.7374999999999972},{"name":"C4","midi":60,"time":76.49999999999994,"velocity":0.7322834645669292,"duration":1.4093749999999972},{"name":"F#3","midi":54,"time":76.68749999999996,"velocity":0.31496062992125984,"duration":0.06406250000000568},{"name":"F#2","midi":42,"time":76.68749999999996,"velocity":0.48031496062992124,"duration":0.056250000000005684},{"name":"A#4","midi":70,"time":76.68749999999996,"velocity":0.3543307086614173,"duration":0.15000000000000568},{"name":"G3","midi":55,"time":76.87499999999996,"velocity":0.4015748031496063,"duration":0.38593749999998295},{"name":"G3","midi":55,"time":76.87499999999996,"velocity":0.44881889763779526,"duration":1.018749999999983},{"name":"F#3","midi":54,"time":76.87499999999996,"velocity":0.5039370078740157,"duration":0.07656249999999432},{"name":"F#2","midi":42,"time":76.87499999999996,"velocity":0.6614173228346457,"duration":0.08749999999999147},{"name":"A4","midi":69,"time":76.87499999999996,"velocity":0.25984251968503935,"duration":0.10156249999998579},{"name":"D#4","midi":63,"time":76.87499999999996,"velocity":0.25984251968503935,"duration":0.36249999999998295},{"name":"G4","midi":67,"time":76.87499999999996,"velocity":0.29133858267716534,"duration":1.2984375000000057},{"name":"C4","midi":60,"time":76.87499999999996,"velocity":0.4015748031496063,"duration":1.2093749999999943},{"name":"G3","midi":55,"time":76.87499999999996,"velocity":0.44881889763779526,"duration":1.978125000000034},{"name":"A#4","midi":70,"time":77.06249999999994,"velocity":0.4251968503937008,"duration":0.15468749999999432},{"name":"F#2","midi":42,"time":77.06249999999994,"velocity":0.33858267716535434,"duration":0.060937499999994316},{"name":"F#3","midi":54,"time":77.06249999999994,"velocity":0.2755905511811024,"duration":0.05781249999999716},{"name":"D#4","midi":63,"time":77.24999999999994,"velocity":0.4330708661417323,"duration":0.40156249999999716},{"name":"D#4","midi":63,"time":77.24999999999994,"velocity":0.8267716535433071,"duration":0.40156249999999716},{"name":"D2","midi":38,"time":77.24999999999994,"velocity":0.8976377952755905,"duration":0.20468750000000568},{"name":"F#2","midi":42,"time":77.24999999999994,"velocity":0.7322834645669292,"duration":0.09218749999999432},{"name":"A4","midi":69,"time":77.24999999999994,"velocity":0.30708661417322836,"duration":0.11562499999999432},{"name":"F#3","midi":54,"time":77.24999999999994,"velocity":0.6535433070866141,"duration":0.07343749999999716},{"name":"D#4","midi":63,"time":77.24999999999994,"velocity":0.7086614173228346,"duration":0.49531250000001137},{"name":"A#4","midi":70,"time":77.24999999999994,"velocity":0.7322834645669292,"duration":0.3359375},{"name":"C4","midi":60,"time":77.24999999999994,"velocity":0.7322834645669292,"duration":0.9234375000000199},{"name":"G4","midi":67,"time":77.24999999999994,"velocity":0.8031496062992126,"duration":1.01718750000002},{"name":"D#4","midi":63,"time":77.24999999999994,"velocity":0.8267716535433071,"duration":0.6749999999999972},{"name":"F#3","midi":54,"time":77.43749999999994,"velocity":0.2047244094488189,"duration":0.03593750000000284},{"name":"A#4","midi":70,"time":77.43749999999994,"velocity":0.4015748031496063,"duration":0.3296875000000057},{"name":"F#2","midi":42,"time":77.43749999999994,"velocity":0.4645669291338583,"duration":0.07187500000000568},{"name":"D4","midi":62,"time":77.62499999999994,"velocity":0.8031496062992126,"duration":0.7515625000000341},{"name":"F#3","midi":54,"time":77.62499999999994,"velocity":0.5511811023622047,"duration":0.07500000000000284},{"name":"F#2","midi":42,"time":77.62499999999994,"velocity":0.7322834645669292,"duration":0.07656250000000853},{"name":"A4","midi":69,"time":77.62499999999994,"velocity":0.3464566929133858,"duration":0.09687500000001137},{"name":"D4","midi":62,"time":77.62499999999994,"velocity":0.8031496062992126,"duration":0.7515625000000341},{"name":"C2","midi":36,"time":77.81249999999994,"velocity":0.7795275590551181,"duration":0.3203125000000142},{"name":"C2","midi":36,"time":77.81249999999994,"velocity":0.7322834645669292,"duration":0.41093750000001705},{"name":"F#2","midi":42,"time":77.81249999999994,"velocity":0.5669291338582677,"duration":0.05937500000000284},{"name":"F#3","midi":54,"time":77.81249999999994,"velocity":0.25984251968503935,"duration":0.04999999999999716},{"name":"A#4","midi":70,"time":77.81249999999994,"velocity":0.4409448818897638,"duration":0.13750000000000284},{"name":"C4","midi":60,"time":77.81249999999994,"velocity":0.5669291338582677,"duration":0.5546875000000284},{"name":"C4","midi":60,"time":77.99999999999994,"velocity":0.5984251968503937,"duration":0.46875000000004263},{"name":"D#4","midi":63,"time":77.99999999999994,"velocity":0.6299212598425197,"duration":0.28593750000001705},{"name":"C3","midi":48,"time":77.99999999999994,"velocity":0.5196850393700787,"duration":1.3875000000000455},{"name":"A4","midi":69,"time":77.99999999999994,"velocity":0.33070866141732286,"duration":0.09375000000001421},{"name":"F#2","midi":42,"time":77.99999999999994,"velocity":0.7086614173228346,"duration":0.09687500000001137},{"name":"F#3","midi":54,"time":77.99999999999994,"velocity":0.5748031496062992,"duration":0.07968750000000568},{"name":"D#4","midi":63,"time":77.99999999999994,"velocity":0.5984251968503937,"duration":0.3671875000000284},{"name":"A#4","midi":70,"time":77.99999999999994,"velocity":0.6614173228346457,"duration":0.32500000000001705},{"name":"C2","midi":36,"time":78.18749999999996,"velocity":0.6456692913385826,"duration":0.109375},{"name":"F#3","midi":54,"time":78.18749999999996,"velocity":0.25196850393700787,"duration":0.060937500000008527},{"name":"F#2","midi":42,"time":78.18749999999996,"velocity":0.4645669291338583,"duration":0.06562500000001137},{"name":"A#4","midi":70,"time":78.18749999999996,"velocity":0.4251968503937008,"duration":0.17812500000000853},{"name":"C2","midi":36,"time":78.18749999999996,"velocity":0.5354330708661418,"duration":0.22968750000002558},{"name":"D#4","midi":63,"time":78.18749999999996,"velocity":0.3858267716535433,"duration":0.2281250000000199},{"name":"G4","midi":67,"time":78.18749999999996,"velocity":0.44881889763779526,"duration":0.1796875000000142},{"name":"C4","midi":60,"time":78.18749999999996,"velocity":0.2677165354330709,"duration":0.5531250000000227},{"name":"C2","midi":36,"time":78.37499999999997,"velocity":0.8031496062992126,"duration":0.1718750000000142},{"name":"G3","midi":55,"time":78.37499999999997,"velocity":0.3858267716535433,"duration":1.1187500000000057},{"name":"D#4","midi":63,"time":78.37499999999997,"velocity":0.7795275590551181,"duration":0.2640625000000085},{"name":"A4","midi":69,"time":78.37499999999997,"velocity":0.3937007874015748,"duration":0.0875000000000199},{"name":"A#2","midi":46,"time":78.37499999999997,"velocity":0.7795275590551181,"duration":0.1109375000000199},{"name":"C2","midi":36,"time":78.37499999999997,"velocity":0.8740157480314961,"duration":0.7875000000000227},{"name":"F#3","midi":54,"time":78.37499999999997,"velocity":0.5905511811023622,"duration":0.07812500000001421},{"name":"G4","midi":67,"time":78.37499999999997,"velocity":0.4330708661417323,"duration":0.3656250000000085},{"name":"D#4","midi":63,"time":78.37499999999997,"velocity":0.2440944881889764,"duration":0.3656250000000085},{"name":"D#4","midi":63,"time":78.37499999999997,"velocity":0.7322834645669292,"duration":0.5093750000000199},{"name":"G4","midi":67,"time":78.37499999999997,"velocity":0.7559055118110236,"duration":0.7093750000000227},{"name":"C4","midi":60,"time":78.37499999999997,"velocity":0.7322834645669292,"duration":0.9562500000000114},{"name":"D#4","midi":63,"time":78.37499999999997,"velocity":0.7795275590551181,"duration":0.6453125000000313},{"name":"A#4","midi":70,"time":78.56249999999999,"velocity":0.4409448818897638,"duration":0.14218749999999147},{"name":"F#3","midi":54,"time":78.56249999999999,"velocity":0.2125984251968504,"duration":0.07343749999999716},{"name":"C2","midi":36,"time":78.74999999999999,"velocity":0.7086614173228346,"duration":0.46406250000001137},{"name":"D#4","midi":63,"time":78.74999999999999,"velocity":0.5826771653543307,"duration":0.27656250000001137},{"name":"C4","midi":60,"time":78.74999999999999,"velocity":0.5511811023622047,"duration":0.5921874999999943},{"name":"C5","midi":72,"time":78.74999999999999,"velocity":0.8976377952755905,"duration":0.18593750000000853},{"name":"C3","midi":48,"time":78.74999999999999,"velocity":0.3858267716535433,"duration":0.734375},{"name":"F#3","midi":54,"time":78.74999999999999,"velocity":0.5354330708661418,"duration":0.07656250000000853},{"name":"A4","midi":69,"time":78.74999999999999,"velocity":0.3228346456692913,"duration":0.07656250000000853},{"name":"D2","midi":38,"time":78.74999999999999,"velocity":0.8976377952755905,"duration":0.2031250000000142},{"name":"F#2","midi":42,"time":78.74999999999999,"velocity":0.4881889763779528,"duration":0.05937500000000284},{"name":"A#4","midi":70,"time":78.74999999999999,"velocity":0.6614173228346457,"duration":0.3187500000000085},{"name":"D#4","midi":63,"time":78.74999999999999,"velocity":0.6456692913385826,"duration":0.4468750000000057},{"name":"G4","midi":67,"time":78.74999999999999,"velocity":0.7795275590551181,"duration":0.4703125000000057},{"name":"C4","midi":60,"time":78.74999999999999,"velocity":0.7086614173228346,"duration":0.640625},{"name":"G3","midi":55,"time":78.9375,"velocity":0.44881889763779526,"duration":0.6015624999999716},{"name":"D5","midi":74,"time":78.9375,"velocity":0.8503937007874016,"duration":0.3828124999999858},{"name":"F#2","midi":42,"time":78.9375,"velocity":0.5196850393700787,"duration":0.07500000000000284},{"name":"F#3","midi":54,"time":78.9375,"velocity":0.2204724409448819,"duration":0.06718750000000284},{"name":"A#4","midi":70,"time":78.9375,"velocity":0.3779527559055118,"duration":0.15156249999999716},{"name":"D#4","midi":63,"time":78.9375,"velocity":0.3937007874015748,"duration":0.5046874999999886},{"name":"D4","midi":62,"time":78.9375,"velocity":0.5826771653543307,"duration":0.17812499999999432},{"name":"A#1","midi":34,"time":79.125,"velocity":0.7795275590551181,"duration":0.39218749999997726},{"name":"F#2","midi":42,"time":79.125,"velocity":0.5984251968503937,"duration":0.06718749999998863},{"name":"A4","midi":69,"time":79.125,"velocity":0.41732283464566927,"duration":0.11093749999999147},{"name":"F#3","midi":54,"time":79.125,"velocity":0.5748031496062992,"duration":0.07968749999999147},{"name":"C2","midi":36,"time":79.125,"velocity":0.8031496062992126,"duration":0.3343749999999943},{"name":"G4","midi":67,"time":79.125,"velocity":0.48031496062992124,"duration":0.3265624999999943},{"name":"A#4","midi":70,"time":79.125,"velocity":0.4566929133858268,"duration":0.10624999999998863},{"name":"D#4","midi":63,"time":79.125,"velocity":0.44881889763779526,"duration":0.3203124999999858},{"name":"C4","midi":60,"time":79.125,"velocity":0.48031496062992124,"duration":0.32499999999998863},{"name":"D#5","midi":75,"time":79.31249999999999,"velocity":0.8740157480314961,"duration":0.5140624999999943},{"name":"F#2","midi":42,"time":79.31249999999999,"velocity":0.5511811023622047,"duration":0.040624999999991473},{"name":"F#3","midi":54,"time":79.31249999999999,"velocity":0.23622047244094488,"duration":0.06562499999999716},{"name":"A#4","midi":70,"time":79.31249999999999,"velocity":0.5196850393700787,"duration":0.14531250000000284},{"name":"G4","midi":67,"time":79.31249999999999,"velocity":0.5669291338582677,"duration":0.17499999999999716},{"name":"D#4","midi":63,"time":79.31249999999999,"velocity":0.4330708661417323,"duration":0.171875},{"name":"C4","midi":60,"time":79.31249999999999,"velocity":0.5039370078740157,"duration":0.17499999999999716},{"name":"A#3","midi":58,"time":79.31249999999999,"velocity":0.48031496062992124,"duration":0.16093750000000284},{"name":"G#1","midi":32,"time":79.49999999999997,"velocity":0.8503937007874016,"duration":1.4578125000000313},{"name":"G#3","midi":56,"time":79.49999999999997,"velocity":0.5826771653543307,"duration":0.48750000000001137},{"name":"D#3","midi":51,"time":79.49999999999997,"velocity":0.5826771653543307,"duration":0.528125000000017},{"name":"G#2","midi":44,"time":79.49999999999997,"velocity":0.6614173228346457,"duration":1.1593750000000398},{"name":"C4","midi":60,"time":79.49999999999997,"velocity":0.6614173228346457,"duration":0.3265625000000085},{"name":"D#4","midi":63,"time":79.49999999999997,"velocity":0.6614173228346457,"duration":0.6890625000000057},{"name":"G#3","midi":56,"time":79.49999999999997,"velocity":0.44881889763779526,"duration":0.9687500000000284},{"name":"D#3","midi":51,"time":79.49999999999997,"velocity":0.4330708661417323,"duration":1.521875000000037},{"name":"C2","midi":36,"time":79.49999999999997,"velocity":0.8976377952755905,"duration":0.27656250000001137},{"name":"F#3","midi":54,"time":79.49999999999997,"velocity":0.6141732283464567,"duration":0.0859375},{"name":"F#2","midi":42,"time":79.49999999999997,"velocity":0.7795275590551181,"duration":0.0859375},{"name":"A4","midi":69,"time":79.49999999999997,"velocity":0.4015748031496063,"duration":0.125},{"name":"C4","midi":60,"time":79.49999999999997,"velocity":0.5826771653543307,"duration":0.5703125000000142},{"name":"D#4","midi":63,"time":79.49999999999997,"velocity":0.6456692913385826,"duration":0.7375000000000114},{"name":"C4","midi":60,"time":79.49999999999997,"velocity":0.7086614173228346,"duration":0.6250000000000142},{"name":"D#4","midi":63,"time":79.49999999999997,"velocity":0.6850393700787402,"duration":1.1437500000000398},{"name":"G#4","midi":68,"time":79.49999999999997,"velocity":0.8031496062992126,"duration":0.7375000000000114},{"name":"F#3","midi":54,"time":79.68749999999997,"velocity":0.2125984251968504,"duration":0.07187500000000568},{"name":"F#2","midi":42,"time":79.68749999999997,"velocity":0.3543307086614173,"duration":0.06406250000000568},{"name":"A#4","midi":70,"time":79.68749999999997,"velocity":0.4251968503937008,"duration":0.14531250000000284},{"name":"C4","midi":60,"time":79.87499999999997,"velocity":0.3858267716535433,"duration":0.2906250000000057},{"name":"G5","midi":79,"time":79.87499999999997,"velocity":0.8503937007874016,"duration":0.4000000000000199},{"name":"F#2","midi":42,"time":79.87499999999997,"velocity":0.6141732283464567,"duration":0.078125},{"name":"F#3","midi":54,"time":79.87499999999997,"velocity":0.5905511811023622,"duration":0.07968750000000568},{"name":"A4","midi":69,"time":79.87499999999997,"velocity":0.3464566929133858,"duration":0.11406250000001705},{"name":"C4","midi":60,"time":79.87499999999997,"velocity":0.5511811023622047,"duration":0.36250000000001137},{"name":"A#4","midi":70,"time":80.06249999999999,"velocity":0.4409448818897638,"duration":0.15937499999999716},{"name":"F#2","midi":42,"time":80.06249999999999,"velocity":0.5826771653543307,"duration":0.06562499999999716},{"name":"F#3","midi":54,"time":80.06249999999999,"velocity":0.2125984251968504,"duration":0.056250000000005684},{"name":"C4","midi":60,"time":80.24999999999999,"velocity":0.5354330708661418,"duration":0.27187500000002274},{"name":"G#3","midi":56,"time":80.24999999999999,"velocity":0.3858267716535433,"duration":0.8062500000000199},{"name":"A#4","midi":70,"time":80.24999999999999,"velocity":0.7322834645669292,"duration":0.32500000000001705},{"name":"F5","midi":77,"time":80.24999999999999,"velocity":0.7795275590551181,"duration":0.2828125000000199},{"name":"A#4","midi":70,"time":80.24999999999999,"velocity":0.8740157480314961,"duration":0.35000000000002274},{"name":"F#2","midi":42,"time":80.24999999999999,"velocity":0.8267716535433071,"duration":0.07656250000000853},{"name":"A4","midi":69,"time":80.24999999999999,"velocity":0.25196850393700787,"duration":0.12343750000000853},{"name":"F#3","midi":54,"time":80.24999999999999,"velocity":0.6141732283464567,"duration":0.08593750000001421},{"name":"D2","midi":38,"time":80.24999999999999,"velocity":0.9212598425196851,"duration":0.3062500000000199},{"name":"D#4","midi":63,"time":80.24999999999999,"velocity":0.5196850393700787,"duration":0.6031250000000341},{"name":"C4","midi":60,"time":80.24999999999999,"velocity":0.6141732283464567,"duration":0.607812500000037},{"name":"A#4","midi":70,"time":80.24999999999999,"velocity":0.7322834645669292,"duration":0.5953125000000341},{"name":"C4","midi":60,"time":80.24999999999999,"velocity":0.7086614173228346,"duration":0.6703125000000227},{"name":"D#4","midi":63,"time":80.24999999999999,"velocity":0.6850393700787402,"duration":0.9234375000000341},{"name":"G#4","midi":68,"time":80.24999999999999,"velocity":0.7322834645669292,"duration":0.9234375000000341},{"name":"A#4","midi":70,"time":80.24999999999999,"velocity":0.8740157480314961,"duration":0.6937500000000227},{"name":"F#2","midi":42,"time":80.4375,"velocity":0.3464566929133858,"duration":0.0703125},{"name":"A#4","midi":70,"time":80.4375,"velocity":0.41732283464566927,"duration":0.9171875000000256},{"name":"F#3","midi":54,"time":80.4375,"velocity":0.14173228346456693,"duration":0.07500000000000284},{"name":"F5","midi":77,"time":80.62500000000001,"velocity":0.8740157480314961,"duration":0.5531250000000085},{"name":"F#3","midi":54,"time":80.62500000000001,"velocity":0.5905511811023622,"duration":0.08281250000000284},{"name":"F#2","midi":42,"time":80.62500000000001,"velocity":0.6614173228346457,"duration":0.0859375},{"name":"A4","midi":69,"time":80.62500000000001,"velocity":0.3543307086614173,"duration":0.11093750000000568},{"name":"F#2","midi":42,"time":80.81250000000001,"velocity":0.4645669291338583,"duration":0.078125},{"name":"F#3","midi":54,"time":80.81250000000001,"velocity":0.30708661417322836,"duration":0.048437500000005684},{"name":"A#4","midi":70,"time":80.81250000000001,"velocity":0.4015748031496063,"duration":0.8421875000000227},{"name":"C4","midi":60,"time":80.81250000000001,"velocity":0.31496062992125984,"duration":0.3609375000000057},{"name":"A#1","midi":34,"time":81,"velocity":0.8503937007874016,"duration":1.1562500000000426},{"name":"D4","midi":62,"time":81,"velocity":0.6614173228346457,"duration":0.6968750000000483},{"name":"A#2","midi":46,"time":81,"velocity":0.6614173228346457,"duration":0.521875000000037},{"name":"F3","midi":53,"time":81,"velocity":0.6456692913385826,"duration":0.6484375000000426},{"name":"A#3","midi":58,"time":81,"velocity":0.5669291338582677,"duration":0.6640625000000426},{"name":"F4","midi":65,"time":81,"velocity":0.6299212598425197,"duration":0.7390625000000597},{"name":"F3","midi":53,"time":81,"velocity":0.4881889763779528,"duration":1.4343750000000455},{"name":"A#3","midi":58,"time":81,"velocity":0.5984251968503937,"duration":0.7390625000000597},{"name":"F#2","midi":42,"time":81,"velocity":0.7322834645669292,"duration":0.08281250000001705},{"name":"A4","midi":69,"time":81,"velocity":0.25196850393700787,"duration":0.11406250000001705},{"name":"C2","midi":36,"time":81,"velocity":0.8503937007874016,"duration":0.1250000000000142},{"name":"F#3","midi":54,"time":81,"velocity":0.6141732283464567,"duration":0.08125000000001137},{"name":"F4","midi":65,"time":81,"velocity":0.6299212598425197,"duration":1.2656250000000426},{"name":"D4","midi":62,"time":81,"velocity":0.6456692913385826,"duration":0.7390625000000597},{"name":"A#4","midi":70,"time":81,"velocity":0.5984251968503937,"duration":0.654687500000037},{"name":"F#3","midi":54,"time":81.18750000000003,"velocity":0.23622047244094488,"duration":0.08906249999999716},{"name":"A#4","midi":70,"time":81.18750000000003,"velocity":0.3228346456692913,"duration":0.5265625000000256},{"name":"F#2","midi":42,"time":81.18750000000003,"velocity":0.4330708661417323,"duration":0.06562499999999716},{"name":"D4","midi":62,"time":81.18750000000003,"velocity":0.5669291338582677,"duration":0.9921875000000142},{"name":"A#3","midi":58,"time":81.18750000000003,"velocity":0.6614173228346457,"duration":1.2625000000000313},{"name":"F4","midi":65,"time":81.18750000000003,"velocity":0.5826771653543307,"duration":1.2265625000000142},{"name":"D5","midi":74,"time":81.37500000000003,"velocity":0.9212598425196851,"duration":0.746875000000017},{"name":"G4","midi":67,"time":81.37500000000003,"velocity":0.5826771653543307,"duration":0.6812500000000199},{"name":"B2","midi":47,"time":81.37500000000003,"velocity":0.9212598425196851,"duration":0.22187500000001137},{"name":"A#2","midi":46,"time":81.37500000000003,"velocity":0.7559055118110236,"duration":0.8515625000000142},{"name":"A4","midi":69,"time":81.37500000000003,"velocity":0.3464566929133858,"duration":0.11093750000000568},{"name":"F#3","midi":54,"time":81.37500000000003,"velocity":0.5748031496062992,"duration":0.0859375},{"name":"D4","midi":62,"time":81.37500000000003,"velocity":0.5039370078740157,"duration":0.8046875000000142},{"name":"A#3","midi":58,"time":81.37500000000003,"velocity":0.6456692913385826,"duration":1.0750000000000313},{"name":"A#4","midi":70,"time":81.56250000000004,"velocity":0.4015748031496063,"duration":0.5093750000000057},{"name":"F#3","midi":54,"time":81.56250000000004,"velocity":0.2204724409448819,"duration":0.07343749999999716},{"name":"F3","midi":53,"time":81.75000000000006,"velocity":0.4645669291338583,"duration":0.7750000000000057},{"name":"D#4","midi":63,"time":81.75000000000006,"velocity":0.8503937007874016,"duration":0.1875},{"name":"A4","midi":69,"time":81.75000000000006,"velocity":0.25984251968503935,"duration":0.125},{"name":"F#3","midi":54,"time":81.75000000000006,"velocity":0.5354330708661418,"duration":0.0859375},{"name":"D2","midi":38,"time":81.75000000000006,"velocity":0.8267716535433071,"duration":0.0859375},{"name":"F#2","midi":42,"time":81.75000000000006,"velocity":0.6850393700787402,"duration":0.10625000000000284},{"name":"F4","midi":65,"time":81.75000000000006,"velocity":0.6299212598425197,"duration":0.6984374999999972},{"name":"D4","midi":62,"time":81.75000000000006,"velocity":0.8031496062992126,"duration":0.5328124999999915},{"name":"A#3","midi":58,"time":81.75000000000006,"velocity":0.8267716535433071,"duration":0.7703125000000028},{"name":"D#4","midi":63,"time":81.75000000000006,"velocity":0.8503937007874016,"duration":0.1875},{"name":"D4","midi":62,"time":81.93750000000006,"velocity":0.6456692913385826,"duration":0.4984374999999943},{"name":"F#3","midi":54,"time":81.93750000000006,"velocity":0.1968503937007874,"duration":0.04999999999999716},{"name":"A#4","midi":70,"time":81.93750000000006,"velocity":0.33858267716535434,"duration":0.18437499999998863},{"name":"D2","midi":38,"time":81.93750000000006,"velocity":0.8503937007874016,"duration":0.08906249999999716},{"name":"D4","midi":62,"time":81.93750000000006,"velocity":0.6456692913385826,"duration":0.5093749999999915},{"name":"D2","midi":38,"time":82.12500000000004,"velocity":0.6614173228346457,"duration":0.41875000000001705},{"name":"D#5","midi":75,"time":82.12500000000004,"velocity":0.8740157480314961,"duration":0.8671875000000284},{"name":"D#4","midi":63,"time":82.12500000000004,"velocity":0.5511811023622047,"duration":0.6515625000000256},{"name":"A4","midi":69,"time":82.12500000000004,"velocity":0.3779527559055118,"duration":0.09843750000000284},{"name":"F#3","midi":54,"time":82.12500000000004,"velocity":0.6141732283464567,"duration":0.08750000000000568},{"name":"A#2","midi":46,"time":82.12500000000004,"velocity":0.6850393700787402,"duration":0.31562500000001137},{"name":"G2","midi":43,"time":82.12500000000004,"velocity":0.8976377952755905,"duration":0.1875},{"name":"D#4","midi":63,"time":82.31250000000004,"velocity":0.8267716535433071,"duration":0.8453125000000341},{"name":"A#4","midi":70,"time":82.31250000000004,"velocity":0.4409448818897638,"duration":0.1718750000000142},{"name":"F#3","midi":54,"time":82.31250000000004,"velocity":0.2204724409448819,"duration":0.05937500000000284},{"name":"D#4","midi":63,"time":82.31250000000004,"velocity":0.8267716535433071,"duration":0.889062500000037},{"name":"D#2","midi":39,"time":82.50000000000006,"velocity":0.8976377952755905,"duration":1.2109375000000284},{"name":"D#4","midi":63,"time":82.50000000000006,"velocity":0.6141732283464567,"duration":0.8203125000000284},{"name":"G4","midi":67,"time":82.50000000000006,"velocity":0.7086614173228346,"duration":0.4531250000000142},{"name":"A#3","midi":58,"time":82.50000000000006,"velocity":0.7086614173228346,"duration":0.3531250000000057},{"name":"D#2","midi":39,"time":82.50000000000006,"velocity":0.6614173228346457,"duration":1.5984375000000313},{"name":"D#3","midi":51,"time":82.50000000000006,"velocity":0.6456692913385826,"duration":0.9765625000000284},{"name":"G3","midi":55,"time":82.50000000000006,"velocity":0.5984251968503937,"duration":2.2468750000000597},{"name":"A#3","midi":58,"time":82.50000000000006,"velocity":0.6141732283464567,"duration":0.6250000000000142},{"name":"D#5","midi":75,"time":82.50000000000006,"velocity":0.5984251968503937,"duration":3.0093750000000625},{"name":"D#4","midi":63,"time":82.50000000000006,"velocity":0.5354330708661418,"duration":0.8203125000000284},{"name":"C2","midi":36,"time":82.50000000000006,"velocity":0.8976377952755905,"duration":0.34062500000000284},{"name":"C#3","midi":49,"time":82.50000000000006,"velocity":0.7559055118110236,"duration":0.10312500000000568},{"name":"A4","midi":69,"time":82.50000000000006,"velocity":0.2125984251968504,"duration":0.13437500000000568},{"name":"F#3","midi":54,"time":82.50000000000006,"velocity":0.6535433070866141,"duration":0.07968750000000568},{"name":"D#3","midi":51,"time":82.50000000000006,"velocity":0.5669291338582677,"duration":2.5765625000000654},{"name":"G4","midi":67,"time":82.50000000000006,"velocity":0.6850393700787402,"duration":0.6671875000000256},{"name":"D#4","midi":63,"time":82.50000000000006,"velocity":0.6614173228346457,"duration":1.246875000000017},{"name":"A#4","midi":70,"time":82.50000000000006,"velocity":0.6850393700787402,"duration":0.3375000000000057},{"name":"G4","midi":67,"time":82.50000000000006,"velocity":0.6141732283464567,"duration":1.1078125000000227},{"name":"A#3","midi":58,"time":82.50000000000006,"velocity":0.7795275590551181,"duration":1.2062500000000256},{"name":"D#4","midi":63,"time":82.50000000000006,"velocity":0.7086614173228346,"duration":1.5843750000000227},{"name":"G5","midi":79,"time":82.50000000000006,"velocity":0.5669291338582677,"duration":3.012500000000074},{"name":"D#6","midi":87,"time":82.50000000000006,"velocity":0.6850393700787402,"duration":3.078125000000071},{"name":"D#5","midi":75,"time":82.50000000000006,"velocity":0.5196850393700787,"duration":3.057812500000068},{"name":"F#2","midi":42,"time":82.68750000000006,"velocity":0.5354330708661418,"duration":0.06406250000000568},{"name":"F#3","midi":54,"time":82.68750000000006,"velocity":0.31496062992125984,"duration":0.06406250000000568},{"name":"A#4","midi":70,"time":82.68750000000006,"velocity":0.3543307086614173,"duration":0.4703125000000199},{"name":"F#3","midi":54,"time":82.87500000000006,"velocity":0.5039370078740157,"duration":0.07656250000000853},{"name":"A4","midi":69,"time":82.87500000000006,"velocity":0.25984251968503935,"duration":0.10156250000001421},{"name":"F#2","midi":42,"time":82.87500000000006,"velocity":0.4566929133858268,"duration":0.06718750000000284},{"name":"A#3","midi":58,"time":82.87500000000006,"velocity":0.4330708661417323,"duration":1.2140625000000256},{"name":"F#3","midi":54,"time":83.06250000000007,"velocity":0.2755905511811024,"duration":0.05781249999999716},{"name":"A#4","midi":70,"time":83.06250000000007,"velocity":0.4251968503937008,"duration":0.15468750000000853},{"name":"F#2","midi":42,"time":83.06250000000007,"velocity":0.23622047244094488,"duration":0.046875},{"name":"A4","midi":69,"time":83.25000000000009,"velocity":0.30708661417322836,"duration":0.11562499999999432},{"name":"F#2","midi":42,"time":83.25000000000009,"velocity":0.8503937007874016,"duration":0.109375},{"name":"F#3","midi":54,"time":83.25000000000009,"velocity":0.6535433070866141,"duration":0.07343749999999716},{"name":"D2","midi":38,"time":83.25000000000009,"velocity":0.8976377952755905,"duration":0.45000000000000284},{"name":"D#4","midi":63,"time":83.25000000000009,"velocity":0.6850393700787402,"duration":0.8624999999999972},{"name":"G4","midi":67,"time":83.25000000000009,"velocity":0.6850393700787402,"duration":0.5140624999999943},{"name":"D#4","midi":63,"time":83.25000000000009,"velocity":0.5669291338582677,"duration":1.0453125000000085},{"name":"G4","midi":67,"time":83.25000000000009,"velocity":0.5984251968503937,"duration":0.8296874999999915},{"name":"A#3","midi":58,"time":83.25000000000009,"velocity":0.7322834645669292,"duration":1.0375000000000085},{"name":"A#4","midi":70,"time":83.25156250000009,"velocity":0.6456692913385826,"duration":0.3343749999999943},{"name":"F#3","midi":54,"time":83.43750000000009,"velocity":0.2047244094488189,"duration":0.03593750000000284},{"name":"A#4","midi":70,"time":83.43750000000009,"velocity":0.4015748031496063,"duration":0.30937499999998863},{"name":"F#2","midi":42,"time":83.43750000000009,"velocity":0.4566929133858268,"duration":0.0703125},{"name":"F#2","midi":42,"time":83.62500000000009,"velocity":0.4015748031496063,"duration":0.09999999999999432},{"name":"F#3","midi":54,"time":83.62500000000009,"velocity":0.5511811023622047,"duration":0.07500000000000284},{"name":"A4","midi":69,"time":83.62500000000009,"velocity":0.3464566929133858,"duration":0.09687499999999716},{"name":"D#2","midi":39,"time":83.81250000000009,"velocity":0.6614173228346457,"duration":0.4687500000000142},{"name":"F#3","midi":54,"time":83.81250000000009,"velocity":0.25984251968503935,"duration":0.04999999999999716},{"name":"A#4","midi":70,"time":83.81250000000009,"velocity":0.4409448818897638,"duration":0.13749999999998863},{"name":"F#2","midi":42,"time":83.81250000000009,"velocity":0.4645669291338583,"duration":0.06406249999999147},{"name":"C2","midi":36,"time":83.81250000000009,"velocity":0.6299212598425197,"duration":0.09062499999998863},{"name":"A#4","midi":70,"time":83.81250000000009,"velocity":0.6299212598425197,"duration":0.3187499999999943},{"name":"D#4","midi":63,"time":83.81250000000009,"velocity":0.5196850393700787,"duration":0.5578124999999972},{"name":"G4","midi":67,"time":83.81250000000009,"velocity":0.6614173228346457,"duration":0.3265624999999943},{"name":"G4","midi":67,"time":83.81250000000009,"velocity":0.6614173228346457,"duration":0.5593750000000028},{"name":"A#3","midi":58,"time":83.81250000000009,"velocity":0.7559055118110236,"duration":0.7625000000000313},{"name":"D#3","midi":51,"time":84.00000000000007,"velocity":0.4330708661417323,"duration":1.510937500000054},{"name":"F#3","midi":54,"time":84.00000000000007,"velocity":0.5748031496062992,"duration":0.07968750000000568},{"name":"A4","midi":69,"time":84.00000000000007,"velocity":0.33070866141732286,"duration":0.09375000000001421},{"name":"F#2","midi":42,"time":84.00000000000007,"velocity":0.8267716535433071,"duration":0.1328125000000142},{"name":"D#2","midi":39,"time":84.18750000000009,"velocity":0.5826771653543307,"duration":0.9062500000000426},{"name":"F#2","midi":42,"time":84.18750000000009,"velocity":0.3228346456692913,"duration":0.07812500000001421},{"name":"C2","midi":36,"time":84.18750000000009,"velocity":0.6614173228346457,"duration":0.05000000000001137},{"name":"F#3","midi":54,"time":84.18750000000009,"velocity":0.25196850393700787,"duration":0.060937500000008527},{"name":"A#4","midi":70,"time":84.18750000000009,"velocity":0.4251968503937008,"duration":0.13750000000000284},{"name":"A#4","midi":70,"time":84.18750000000009,"velocity":0.47244094488188976,"duration":0.18281249999999716},{"name":"D#4","midi":63,"time":84.18750000000009,"velocity":0.47244094488188976,"duration":0.3906250000000284},{"name":"A#3","midi":58,"time":84.18750000000009,"velocity":0.5669291338582677,"duration":0.865625000000037},{"name":"D#4","midi":63,"time":84.18750000000009,"velocity":0.3779527559055118,"duration":0.7421875000000284},{"name":"G4","midi":67,"time":84.18906250000009,"velocity":0.47244094488188976,"duration":0.7437500000000341},{"name":"G4","midi":67,"time":84.3734375000001,"velocity":0.7322834645669292,"duration":0.6656250000000341},{"name":"A#4","midi":70,"time":84.3734375000001,"velocity":0.7322834645669292,"duration":0.3312500000000256},{"name":"D#2","midi":39,"time":84.3750000000001,"velocity":0.8267716535433071,"duration":0.7843750000000256},{"name":"G3","midi":55,"time":84.3750000000001,"velocity":0.9212598425196851,"duration":0.37187500000001705},{"name":"F#2","midi":42,"time":84.3750000000001,"velocity":0.5039370078740157,"duration":0.10000000000000853},{"name":"A4","midi":69,"time":84.3750000000001,"velocity":0.3937007874015748,"duration":0.08750000000000568},{"name":"F#3","midi":54,"time":84.3750000000001,"velocity":0.5905511811023622,"duration":0.078125},{"name":"C2","midi":36,"time":84.3750000000001,"velocity":0.8976377952755905,"duration":0.23125000000001705},{"name":"D#4","midi":63,"time":84.3750000000001,"velocity":0.6299212598425197,"duration":0.5718750000000341},{"name":"A#3","midi":58,"time":84.3750000000001,"velocity":0.7559055118110236,"duration":1.0453125000000085},{"name":"D#4","midi":63,"time":84.3750000000001,"velocity":0.6850393700787402,"duration":0.5718750000000341},{"name":"G4","midi":67,"time":84.3750000000001,"velocity":0.8031496062992126,"duration":0.7437500000000341},{"name":"G3","midi":55,"time":84.3750000000001,"velocity":0.9212598425196851,"duration":1.0921875000000085},{"name":"F#3","midi":54,"time":84.56250000000011,"velocity":0.2125984251968504,"duration":0.07343750000001137},{"name":"A#4","midi":70,"time":84.56250000000011,"velocity":0.4409448818897638,"duration":0.3687500000000057},{"name":"F#2","midi":42,"time":84.56250000000011,"velocity":0.4330708661417323,"duration":0.06406250000000568},{"name":"F#3","midi":54,"time":84.75000000000011,"velocity":0.5354330708661418,"duration":0.07656249999999432},{"name":"A#2","midi":46,"time":84.75000000000011,"velocity":0.8031496062992126,"duration":0.13593749999999716},{"name":"D2","midi":38,"time":84.75000000000011,"velocity":0.8740157480314961,"duration":0.34062500000001705},{"name":"A4","midi":69,"time":84.75000000000011,"velocity":0.3228346456692913,"duration":0.07656249999999432},{"name":"D#4","midi":63,"time":84.76093750000011,"velocity":0.8740157480314961,"duration":0.3281250000000142},{"name":"D#4","midi":63,"time":84.76093750000011,"velocity":0.8740157480314961,"duration":0.3609375000000199},{"name":"F#3","midi":54,"time":84.93750000000013,"velocity":0.2204724409448819,"duration":0.06718750000000284},{"name":"A#4","midi":70,"time":84.93750000000013,"velocity":0.3779527559055118,"duration":0.15156249999999716},{"name":"G4","midi":67,"time":84.93750000000013,"velocity":0.6614173228346457,"duration":0.1875},{"name":"D#4","midi":63,"time":84.93750000000013,"velocity":0.5039370078740157,"duration":0.37031249999998295},{"name":"A#4","midi":70,"time":84.93750000000013,"velocity":0.5669291338582677,"duration":0.18125000000000568},{"name":"D4","midi":62,"time":84.98125000000013,"velocity":0.8740157480314961,"duration":0.32343749999998295},{"name":"D4","midi":62,"time":84.98125000000013,"velocity":0.8740157480314961,"duration":0.32343749999998295},{"name":"A#1","midi":34,"time":85.12500000000013,"velocity":0.8031496062992126,"duration":0.41718749999999716},{"name":"A#2","midi":46,"time":85.12500000000013,"velocity":0.6456692913385826,"duration":0.09531249999999147},{"name":"F#3","midi":54,"time":85.12500000000013,"velocity":0.5748031496062992,"duration":0.07968749999999147},{"name":"A4","midi":69,"time":85.12500000000013,"velocity":0.41732283464566927,"duration":0.11093749999999147},{"name":"D#4","midi":63,"time":85.12500000000013,"velocity":0.5984251968503937,"duration":0.24531249999998295},{"name":"G4","midi":67,"time":85.12500000000013,"velocity":0.5826771653543307,"duration":0.18281249999998295},{"name":"A#4","midi":70,"time":85.12500000000013,"velocity":0.7007874015748031,"duration":0.18281249999998295},{"name":"D#4","midi":63,"time":85.12500000000013,"velocity":0.4881889763779528,"duration":0.3093749999999744},{"name":"G4","midi":67,"time":85.12500000000013,"velocity":0.5984251968503937,"duration":0.24531249999998295},{"name":"A#3","midi":58,"time":85.12500000000013,"velocity":0.4881889763779528,"duration":1.0124999999999886},{"name":"F#3","midi":54,"time":85.31250000000011,"velocity":0.23622047244094488,"duration":0.06562499999999716},{"name":"A#4","midi":70,"time":85.31250000000011,"velocity":0.47244094488188976,"duration":0.18437500000000284},{"name":"D#4","midi":63,"time":85.31250000000011,"velocity":0.47244094488188976,"duration":0.12968749999998863},{"name":"G4","midi":67,"time":85.31250000000011,"velocity":0.47244094488188976,"duration":0.17499999999999716},{"name":"D#4","midi":63,"time":85.35468750000011,"velocity":0.8976377952755905,"duration":0.5109375000000114},{"name":"D#4","midi":63,"time":85.35468750000011,"velocity":0.8976377952755905,"duration":0.5109375000000114},{"name":"D2","midi":38,"time":85.50000000000011,"velocity":0.8503937007874016,"duration":1.3031250000000227},{"name":"D4","midi":62,"time":85.50000000000011,"velocity":0.6456692913385826,"duration":0.6515625000000114},{"name":"F4","midi":65,"time":85.50000000000011,"velocity":0.6614173228346457,"duration":0.47968750000001137},{"name":"D3","midi":50,"time":85.50000000000011,"velocity":0.5984251968503937,"duration":2.39375000000004},{"name":"A#3","midi":58,"time":85.50000000000011,"velocity":0.6456692913385826,"duration":1.76718750000002},{"name":"D2","midi":38,"time":85.50000000000011,"velocity":0.7086614173228346,"duration":2.39375000000004},{"name":"F3","midi":53,"time":85.50000000000011,"velocity":0.5984251968503937,"duration":3.0093750000000483},{"name":"D4","midi":62,"time":85.50000000000011,"velocity":0.5984251968503937,"duration":0.6562500000000142},{"name":"D5","midi":74,"time":85.50000000000011,"velocity":0.5669291338582677,"duration":1.9281250000000227},{"name":"F#2","midi":42,"time":85.50000000000011,"velocity":0.7559055118110236,"duration":0.0953125000000199},{"name":"C2","midi":36,"time":85.50000000000011,"velocity":0.8740157480314961,"duration":0.5734375000000114},{"name":"A4","midi":69,"time":85.50000000000011,"velocity":0.4015748031496063,"duration":0.1250000000000142},{"name":"F#3","midi":54,"time":85.50000000000011,"velocity":0.6141732283464567,"duration":0.08593750000001421},{"name":"D3","midi":50,"time":85.50000000000011,"velocity":0.5511811023622047,"duration":2.9687500000000426},{"name":"F4","midi":65,"time":85.50000000000011,"velocity":0.6850393700787402,"duration":0.6500000000000057},{"name":"A#4","midi":70,"time":85.50000000000011,"velocity":0.6614173228346457,"duration":0.33281250000001705},{"name":"D4","midi":62,"time":85.50000000000011,"velocity":0.7086614173228346,"duration":1.212500000000034},{"name":"F4","midi":65,"time":85.50000000000011,"velocity":0.6850393700787402,"duration":1.1531250000000313},{"name":"A#3","midi":58,"time":85.50000000000011,"velocity":0.8031496062992126,"duration":2.3562500000000455},{"name":"F5","midi":77,"time":85.50000000000011,"velocity":0.5354330708661418,"duration":3.042187500000054},{"name":"D6","midi":86,"time":85.50000000000011,"velocity":0.5984251968503937,"duration":3.050000000000054},{"name":"D5","midi":74,"time":85.50000000000011,"velocity":0.6141732283464567,"duration":3.021875000000051},{"name":"D4","midi":62,"time":85.50312500000011,"velocity":0.6614173228346457,"duration":1.2421875000000284},{"name":"A#4","midi":70,"time":85.68750000000013,"velocity":0.4251968503937008,"duration":0.46875},{"name":"F#3","midi":54,"time":85.68750000000013,"velocity":0.2125984251968504,"duration":0.07187500000000568},{"name":"F#2","midi":42,"time":85.68750000000013,"velocity":0.4881889763779528,"duration":0.06406250000000568},{"name":"F#3","midi":54,"time":85.87500000000013,"velocity":0.5905511811023622,"duration":0.07968749999999147},{"name":"A4","midi":69,"time":85.87500000000013,"velocity":0.3464566929133858,"duration":0.11406250000000284},{"name":"F#2","midi":42,"time":85.87500000000013,"velocity":0.5826771653543307,"duration":0.07343749999999716},{"name":"F4","midi":65,"time":85.90468750000012,"velocity":0.8503937007874016,"duration":0.8343750000000227},{"name":"F4","midi":65,"time":85.90468750000012,"velocity":0.8503937007874016,"duration":1.1953125000000142},{"name":"A#4","midi":70,"time":86.06250000000013,"velocity":0.4409448818897638,"duration":0.15937499999999716},{"name":"F#3","midi":54,"time":86.06250000000013,"velocity":0.2125984251968504,"duration":0.056249999999991473},{"name":"F#2","midi":42,"time":86.06250000000013,"velocity":0.36220472440944884,"duration":0.048437499999991473},{"name":"A#4","midi":70,"time":86.24843750000012,"velocity":0.7086614173228346,"duration":0.32656250000002274},{"name":"D2","midi":38,"time":86.25000000000013,"velocity":0.8976377952755905,"duration":1.840625000000017},{"name":"A4","midi":69,"time":86.25000000000013,"velocity":0.25196850393700787,"duration":0.12343749999999432},{"name":"F#3","midi":54,"time":86.25000000000013,"velocity":0.6141732283464567,"duration":0.0859375},{"name":"F#2","midi":42,"time":86.25000000000013,"velocity":0.8267716535433071,"duration":0.11093749999999147},{"name":"F4","midi":65,"time":86.25000000000013,"velocity":0.6614173228346457,"duration":0.8734374999999943},{"name":"D4","midi":62,"time":86.25000000000013,"velocity":0.7322834645669292,"duration":0.8375000000000199},{"name":"A#3","midi":58,"time":86.25000000000013,"velocity":0.7086614173228346,"duration":1.8156250000000256},{"name":"F4","midi":65,"time":86.25156250000013,"velocity":0.6850393700787402,"duration":1.03125},{"name":"D4","midi":62,"time":86.25156250000013,"velocity":0.6850393700787402,"duration":1.015625},{"name":"A#4","midi":70,"time":86.43750000000013,"velocity":0.41732283464566927,"duration":0.29531250000002274},{"name":"F#2","midi":42,"time":86.43750000000013,"velocity":0.3228346456692913,"duration":0.0625},{"name":"F#3","midi":54,"time":86.43750000000013,"velocity":0.14173228346456693,"duration":0.07500000000000284},{"name":"A4","midi":69,"time":86.62500000000014,"velocity":0.3543307086614173,"duration":0.11093750000000568},{"name":"F#3","midi":54,"time":86.62500000000014,"velocity":0.5905511811023622,"duration":0.08281250000000284},{"name":"F#2","midi":42,"time":86.62500000000014,"velocity":0.5669291338582677,"duration":0.09531250000000568},{"name":"F#2","midi":42,"time":86.81250000000014,"velocity":0.36220472440944884,"duration":0.05156250000000284},{"name":"A#4","midi":70,"time":86.81250000000014,"velocity":0.4015748031496063,"duration":0.13125000000000853},{"name":"F#3","midi":54,"time":86.81250000000014,"velocity":0.30708661417322836,"duration":0.048437500000005684},{"name":"F4","midi":65,"time":86.81250000000014,"velocity":0.5984251968503937,"duration":0.4999999999999858},{"name":"D4","midi":62,"time":86.81250000000014,"velocity":0.6850393700787402,"duration":0.4624999999999915},{"name":"A#4","midi":70,"time":86.81250000000014,"velocity":0.6850393700787402,"duration":0.30781249999998295},{"name":"D4","midi":62,"time":86.81250000000014,"velocity":0.6614173228346457,"duration":0.9281250000000085},{"name":"F4","midi":65,"time":86.81250000000014,"velocity":0.7322834645669292,"duration":0.4999999999999858},{"name":"A4","midi":69,"time":87.00000000000016,"velocity":0.25196850393700787,"duration":0.11406249999997442},{"name":"F#2","midi":42,"time":87.00000000000016,"velocity":0.8267716535433071,"duration":0.11718749999997158},{"name":"F#3","midi":54,"time":87.00000000000016,"velocity":0.6141732283464567,"duration":0.08124999999999716},{"name":"A#4","midi":70,"time":87.18750000000013,"velocity":0.3228346456692913,"duration":0.078125},{"name":"F#3","midi":54,"time":87.18750000000013,"velocity":0.23622047244094488,"duration":0.08906250000001137},{"name":"F#2","midi":42,"time":87.18750000000013,"velocity":0.4330708661417323,"duration":0.0703125},{"name":"F4","midi":65,"time":87.18750000000013,"velocity":0.4015748031496063,"duration":0.662500000000037},{"name":"A#4","midi":70,"time":87.18750000000013,"velocity":0.5039370078740157,"duration":0.16718750000001137},{"name":"D4","midi":62,"time":87.18750000000013,"velocity":0.2992125984251969,"duration":0.7437500000000199},{"name":"D4","midi":62,"time":87.37343750000014,"velocity":0.6850393700787402,"duration":0.746875000000017},{"name":"A#4","midi":70,"time":87.37500000000014,"velocity":0.5669291338582677,"duration":0.33906249999999716},{"name":"C2","midi":36,"time":87.37500000000014,"velocity":0.7795275590551181,"duration":0.14374999999999716},{"name":"F#2","midi":42,"time":87.37500000000014,"velocity":0.5826771653543307,"duration":0.10468749999999716},{"name":"A4","midi":69,"time":87.37500000000014,"velocity":0.3464566929133858,"duration":0.11093749999999147},{"name":"F#3","midi":54,"time":87.37500000000014,"velocity":0.5748031496062992,"duration":0.0859375},{"name":"F4","midi":65,"time":87.37500000000014,"velocity":0.6299212598425197,"duration":0.5312500000000142},{"name":"A#4","midi":70,"time":87.37500000000014,"velocity":0.6850393700787402,"duration":0.5578125000000114},{"name":"D4","midi":62,"time":87.37500000000014,"velocity":0.7559055118110236,"duration":0.746875000000017},{"name":"A#3","midi":58,"time":87.37500000000014,"velocity":0.6456692913385826,"duration":0.8546875000000256},{"name":"F4","midi":65,"time":87.37500000000014,"velocity":0.6850393700787402,"duration":0.5531250000000085},{"name":"D#4","midi":63,"time":87.37812500000014,"velocity":0.9212598425196851,"duration":0.37968750000001705},{"name":"D#4","midi":63,"time":87.37812500000014,"velocity":0.9212598425196851,"duration":0.37968750000001705},{"name":"A#4","midi":70,"time":87.56250000000014,"velocity":0.4015748031496063,"duration":0.5093750000000057},{"name":"F#3","midi":54,"time":87.56250000000014,"velocity":0.2204724409448819,"duration":0.07343749999999716},{"name":"F#2","midi":42,"time":87.56250000000014,"velocity":0.33858267716535434,"duration":0.078125},{"name":"D4","midi":62,"time":87.73906250000014,"velocity":0.8976377952755905,"duration":0.3828125000000142},{"name":"D4","midi":62,"time":87.73906250000014,"velocity":0.8976377952755905,"duration":0.4859375000000199},{"name":"A4","midi":69,"time":87.75000000000016,"velocity":0.25984251968503935,"duration":0.125},{"name":"F#3","midi":54,"time":87.75000000000016,"velocity":0.5354330708661418,"duration":0.0859375},{"name":"D2","midi":38,"time":87.75000000000016,"velocity":0.9212598425196851,"duration":0.3609374999999915},{"name":"F#2","midi":42,"time":87.75000000000016,"velocity":0.8031496062992126,"duration":0.09843750000000284},{"name":"F#2","midi":42,"time":87.93750000000016,"velocity":0.5984251968503937,"duration":0.06562499999999716},{"name":"A#4","midi":70,"time":87.93750000000016,"velocity":0.33858267716535434,"duration":0.18281249999999716},{"name":"F#3","midi":54,"time":87.93750000000016,"velocity":0.1968503937007874,"duration":0.04999999999999716},{"name":"D4","midi":62,"time":87.93750000000016,"velocity":0.4566929133858268,"duration":0.37031250000001137},{"name":"F4","midi":65,"time":87.93750000000016,"velocity":0.48031496062992124,"duration":0.18124999999999147},{"name":"A#4","midi":70,"time":87.93750000000016,"velocity":0.5039370078740157,"duration":0.3687500000000057},{"name":"D2","midi":38,"time":88.12500000000016,"velocity":0.8267716535433071,"duration":0.3531250000000057},{"name":"A#2","midi":46,"time":88.12500000000016,"velocity":0.7795275590551181,"duration":0.07500000000000284},{"name":"C2","midi":36,"time":88.12500000000016,"velocity":0.3464566929133858,"duration":0.05937500000000284},{"name":"A4","midi":69,"time":88.12500000000016,"velocity":0.3779527559055118,"duration":0.09843750000000284},{"name":"F#3","midi":54,"time":88.12500000000016,"velocity":0.6141732283464567,"duration":0.08750000000000568},{"name":"D4","midi":62,"time":88.12500000000016,"velocity":0.6456692913385826,"duration":0.2890625000000142},{"name":"F4","midi":65,"time":88.12500000000016,"velocity":0.5511811023622047,"duration":0.18281250000001137},{"name":"A#4","midi":70,"time":88.12500000000016,"velocity":0.6850393700787402,"duration":0.3031250000000085},{"name":"A#3","midi":58,"time":88.12500000000016,"velocity":0.5669291338582677,"duration":0.36250000000001137},{"name":"F4","midi":65,"time":88.12500000000016,"velocity":0.6141732283464567,"duration":0.3062500000000057},{"name":"D#4","midi":63,"time":88.14375000000015,"velocity":0.8740157480314961,"duration":1.0562500000000057},{"name":"D#4","midi":63,"time":88.14375000000015,"velocity":0.8740157480314961,"duration":1.106250000000017},{"name":"A#4","midi":70,"time":88.31250000000017,"velocity":0.4409448818897638,"duration":0.12656249999999147},{"name":"F#3","midi":54,"time":88.31250000000017,"velocity":0.2204724409448819,"duration":0.05937500000000284},{"name":"F4","midi":65,"time":88.31250000000017,"velocity":0.5669291338582677,"duration":0.16718749999999716},{"name":"A#4","midi":70,"time":88.31250000000017,"velocity":0.6141732283464567,"duration":0.171875},{"name":"D4","midi":62,"time":88.31250000000017,"velocity":0.5196850393700787,"duration":0.18281249999999716},{"name":"C2","midi":36,"time":88.50000000000017,"velocity":0.8267716535433071,"duration":0.6218749999999886},{"name":"C3","midi":48,"time":88.50000000000017,"velocity":0.6850393700787402,"duration":2.285937500000017},{"name":"D#4","midi":63,"time":88.50000000000017,"velocity":0.6299212598425197,"duration":1.5890625000000114},{"name":"A#3","midi":58,"time":88.50000000000017,"velocity":0.6456692913385826,"duration":2.3281250000000284},{"name":"G3","midi":55,"time":88.50000000000017,"velocity":0.5826771653543307,"duration":2.3421875000000227},{"name":"C2","midi":36,"time":88.50000000000017,"velocity":0.7559055118110236,"duration":2.0140625000000227},{"name":"D#4","midi":63,"time":88.50000000000017,"velocity":0.3858267716535433,"duration":1.6046875000000114},{"name":"G3","midi":55,"time":88.50000000000017,"velocity":0.3543307086614173,"duration":2.6375000000000455},{"name":"C4","midi":60,"time":88.50000000000017,"velocity":0.4645669291338583,"duration":0.6453124999999886},{"name":"C5","midi":72,"time":88.50000000000017,"velocity":0.6614173228346457,"duration":5.845312500000148},{"name":"F#3","midi":54,"time":88.50000000000017,"velocity":0.6535433070866141,"duration":0.07968749999999147},{"name":"C2","midi":36,"time":88.50000000000017,"velocity":0.9212598425196851,"duration":2.15781250000002},{"name":"A4","midi":69,"time":88.50000000000017,"velocity":0.2125984251968504,"duration":0.13437499999999147},{"name":"F#2","midi":42,"time":88.50000000000017,"velocity":0.8267716535433071,"duration":0.09218749999999432},{"name":"G3","midi":55,"time":88.50000000000017,"velocity":0.6141732283464567,"duration":2.6375000000000455},{"name":"C4","midi":60,"time":88.50000000000017,"velocity":0.5984251968503937,"duration":0.6718749999999858},{"name":"A#4","midi":70,"time":88.50000000000017,"velocity":0.7086614173228346,"duration":0.3374999999999915},{"name":"C4","midi":60,"time":88.50000000000017,"velocity":0.6141732283464567,"duration":1.2390624999999886},{"name":"A#4","midi":70,"time":88.50000000000017,"velocity":0.7086614173228346,"duration":0.526562499999983},{"name":"D#4","midi":63,"time":88.50000000000017,"velocity":0.6614173228346457,"duration":1.7781250000000028},{"name":"C6","midi":84,"time":88.50000000000017,"velocity":0.7086614173228346,"duration":5.9171875000001535},{"name":"G5","midi":79,"time":88.50000000000017,"velocity":0.5826771653543307,"duration":2.9968750000000313},{"name":"D#5","midi":75,"time":88.50000000000017,"velocity":0.6141732283464567,"duration":5.134375000000077},{"name":"D#4","midi":63,"time":88.50312500000017,"velocity":0.6456692913385826,"duration":1.7890625},{"name":"F#2","midi":42,"time":88.68750000000016,"velocity":0.4015748031496063,"duration":0.05937500000000284},{"name":"A#4","midi":70,"time":88.68750000000016,"velocity":0.3543307086614173,"duration":0.38750000000000284},{"name":"F#3","midi":54,"time":88.68750000000016,"velocity":0.31496062992125984,"duration":0.06406250000000568},{"name":"F#2","midi":42,"time":88.87500000000016,"velocity":0.5196850393700787,"duration":0.09218749999999432},{"name":"F#3","midi":54,"time":88.87500000000016,"velocity":0.5039370078740157,"duration":0.07656249999999432},{"name":"A4","midi":69,"time":88.87500000000016,"velocity":0.25984251968503935,"duration":0.1015625},{"name":"F#2","midi":42,"time":89.06250000000016,"velocity":0.29133858267716534,"duration":0.0546875},{"name":"F#3","midi":54,"time":89.06250000000016,"velocity":0.2755905511811024,"duration":0.05781249999999716},{"name":"A#4","midi":70,"time":89.06250000000016,"velocity":0.4251968503937008,"duration":0.15468750000000853},{"name":"F#3","midi":54,"time":89.25000000000017,"velocity":0.6535433070866141,"duration":0.07343749999999716},{"name":"A4","midi":69,"time":89.25000000000017,"velocity":0.30708661417322836,"duration":0.11562499999999432},{"name":"D2","midi":38,"time":89.25000000000017,"velocity":0.8976377952755905,"duration":0.6703124999999943},{"name":"F#2","midi":42,"time":89.25000000000017,"velocity":0.8267716535433071,"duration":0.07968749999999147},{"name":"C4","midi":60,"time":89.25000000000017,"velocity":0.6299212598425197,"duration":0.4984374999999943},{"name":"A#4","midi":70,"time":89.25000000000017,"velocity":0.7086614173228346,"duration":0.3359374999999858},{"name":"D#4","midi":63,"time":89.25000000000017,"velocity":0.5669291338582677,"duration":1.0421874999999972},{"name":"D#4","midi":63,"time":89.25000000000017,"velocity":0.5984251968503937,"duration":1.0453124999999943},{"name":"A#4","midi":70,"time":89.25000000000017,"velocity":0.7559055118110236,"duration":0.4234374999999915},{"name":"C4","midi":60,"time":89.25000000000017,"velocity":0.7322834645669292,"duration":1.0015625000000057},{"name":"F#2","midi":42,"time":89.43750000000016,"velocity":0.30708661417322836,"duration":0.06874999999999432},{"name":"A#4","midi":70,"time":89.43750000000016,"velocity":0.4015748031496063,"duration":0.2875000000000085},{"name":"F#3","midi":54,"time":89.43750000000016,"velocity":0.2047244094488189,"duration":0.03593749999998863},{"name":"F#2","midi":42,"time":89.62500000000016,"velocity":0.5826771653543307,"duration":0.10781250000000853},{"name":"F#3","midi":54,"time":89.62500000000016,"velocity":0.5511811023622047,"duration":0.07500000000000284},{"name":"A4","midi":69,"time":89.62500000000016,"velocity":0.3464566929133858,"duration":0.09687500000001137},{"name":"F#2","midi":42,"time":89.81250000000017,"velocity":0.44881889763779526,"duration":0.05781249999999716},{"name":"A#4","midi":70,"time":89.81250000000017,"velocity":0.4409448818897638,"duration":0.13749999999998863},{"name":"F#3","midi":54,"time":89.81250000000017,"velocity":0.25984251968503935,"duration":0.04999999999999716},{"name":"A#4","midi":70,"time":89.81250000000017,"velocity":0.6850393700787402,"duration":0.37968750000000284},{"name":"C4","midi":60,"time":89.81250000000017,"velocity":0.6299212598425197,"duration":0.45000000000000284},{"name":"C4","midi":60,"time":89.81250000000017,"velocity":0.7322834645669292,"duration":0.8906250000000142},{"name":"A#4","midi":70,"time":89.81250000000017,"velocity":0.7322834645669292,"duration":0.4593750000000085},{"name":"F#2","midi":42,"time":90.00000000000017,"velocity":0.6614173228346457,"duration":0.11562500000000853},{"name":"F#3","midi":54,"time":90.00000000000017,"velocity":0.5748031496062992,"duration":0.07968750000000568},{"name":"A4","midi":69,"time":90.00000000000017,"velocity":0.33070866141732286,"duration":0.09375000000001421},{"name":"F#3","midi":54,"time":90.18750000000017,"velocity":0.25196850393700787,"duration":0.060937500000008527},{"name":"F#2","midi":42,"time":90.18750000000017,"velocity":0.4015748031496063,"duration":0.0703125},{"name":"A#4","midi":70,"time":90.18750000000017,"velocity":0.4251968503937008,"duration":0.13750000000000284},{"name":"D#4","midi":63,"time":90.18750000000017,"velocity":0.48031496062992124,"duration":0.6562500000000284},{"name":"D#4","midi":63,"time":90.18750000000017,"velocity":0.44881889763779526,"duration":0.6984375000000256},{"name":"G3","midi":55,"time":90.37500000000018,"velocity":0.9448818897637795,"duration":1.0093750000000057},{"name":"F#3","midi":54,"time":90.37500000000018,"velocity":0.5905511811023622,"duration":0.078125},{"name":"C2","midi":36,"time":90.37500000000018,"velocity":0.7322834645669292,"duration":0.7765625000000256},{"name":"A4","midi":69,"time":90.37500000000018,"velocity":0.3937007874015748,"duration":0.08750000000000568},{"name":"A#2","midi":46,"time":90.37500000000018,"velocity":0.7559055118110236,"duration":0.13906250000000853},{"name":"D#4","midi":63,"time":90.37500000000018,"velocity":0.6614173228346457,"duration":0.6937500000000227},{"name":"C4","midi":60,"time":90.37500000000018,"velocity":0.7086614173228346,"duration":0.5000000000000142},{"name":"C4","midi":60,"time":90.37500000000018,"velocity":0.6456692913385826,"duration":0.7140625000000256},{"name":"D#4","midi":63,"time":90.37500000000018,"velocity":0.6850393700787402,"duration":0.7421875000000284},{"name":"A#4","midi":70,"time":90.37500000000018,"velocity":0.7322834645669292,"duration":0.3296875000000057},{"name":"G3","midi":55,"time":90.37500000000018,"velocity":0.9448818897637795,"duration":1.1328125000000142},{"name":"A#4","midi":70,"time":90.37656250000019,"velocity":0.7086614173228346,"duration":0.5500000000000114},{"name":"F#3","midi":54,"time":90.5625000000002,"velocity":0.2125984251968504,"duration":0.07343749999999716},{"name":"A#4","midi":70,"time":90.5625000000002,"velocity":0.4409448818897638,"duration":0.5265625000000114},{"name":"F#3","midi":54,"time":90.75000000000018,"velocity":0.5354330708661418,"duration":0.07656250000000853},{"name":"D2","midi":38,"time":90.75000000000018,"velocity":0.9448818897637795,"duration":0.35000000000002274},{"name":"A4","midi":69,"time":90.75000000000018,"velocity":0.3228346456692913,"duration":0.07656250000000853},{"name":"A#2","midi":46,"time":90.75000000000018,"velocity":0.6850393700787402,"duration":0.09843750000001705},{"name":"C4","midi":60,"time":90.75000000000018,"velocity":0.5196850393700787,"duration":0.3671875000000284},{"name":"F#3","midi":54,"time":90.9375000000002,"velocity":0.2204724409448819,"duration":0.06718750000000284},{"name":"A#4","midi":70,"time":90.9375000000002,"velocity":0.3779527559055118,"duration":0.1796875000000142},{"name":"A#4","midi":70,"time":90.9375000000002,"velocity":0.44881889763779526,"duration":0.22968750000001137},{"name":"C4","midi":60,"time":90.9375000000002,"velocity":0.5039370078740157,"duration":0.3671875},{"name":"D#4","midi":63,"time":90.9375000000002,"velocity":0.4645669291338583,"duration":0.3671875},{"name":"G1","midi":31,"time":91.12500000000021,"velocity":0.8031496062992126,"duration":0.43437499999998863},{"name":"G#3","midi":56,"time":91.12500000000021,"velocity":0.8976377952755905,"duration":1.9078124999999773},{"name":"C2","midi":36,"time":91.12500000000021,"velocity":0.6299212598425197,"duration":0.06406249999999147},{"name":"A4","midi":69,"time":91.12500000000021,"velocity":0.41732283464566927,"duration":0.11093749999999147},{"name":"F#3","midi":54,"time":91.12500000000021,"velocity":0.5748031496062992,"duration":0.07968749999999147},{"name":"C4","midi":60,"time":91.12500000000021,"velocity":0.3937007874015748,"duration":0.2109374999999858},{"name":"D#4","midi":63,"time":91.12500000000021,"velocity":0.5196850393700787,"duration":0.2953124999999801},{"name":"A#4","midi":70,"time":91.12500000000021,"velocity":0.5354330708661418,"duration":0.1796874999999858},{"name":"C4","midi":60,"time":91.12500000000021,"velocity":0.2755905511811024,"duration":0.2937499999999744},{"name":"D#4","midi":63,"time":91.12500000000021,"velocity":0.4645669291338583,"duration":1.065624999999983},{"name":"G#3","midi":56,"time":91.12500000000021,"velocity":0.8976377952755905,"duration":1.9078124999999773},{"name":"F#3","midi":54,"time":91.3125000000002,"velocity":0.23622047244094488,"duration":0.06562499999999716},{"name":"C4","midi":60,"time":91.3125000000002,"velocity":0.36220472440944884,"duration":0.828125},{"name":"A#4","midi":70,"time":91.3125000000002,"velocity":0.29133858267716534,"duration":0.08437499999999432},{"name":"D#4","midi":63,"time":91.3125000000002,"velocity":0.3464566929133858,"duration":0.8796875000000028},{"name":"G#1","midi":32,"time":91.5000000000002,"velocity":0.8740157480314961,"duration":2.203125000000057},{"name":"A#3","midi":58,"time":91.5000000000002,"velocity":0.5984251968503937,"duration":1.2531249999999972},{"name":"D#4","midi":63,"time":91.5000000000002,"velocity":0.5826771653543307,"duration":1.2703125000000028},{"name":"D#3","midi":51,"time":91.5000000000002,"velocity":0.6456692913385826,"duration":2.712500000000105},{"name":"G#2","midi":44,"time":91.5000000000002,"velocity":0.6850393700787402,"duration":2.7500000000000995},{"name":"G#3","midi":56,"time":91.5000000000002,"velocity":0.5196850393700787,"duration":1.5718749999999915},{"name":"G#3","midi":56,"time":91.5000000000002,"velocity":0.6614173228346457,"duration":2.893750000000111},{"name":"C2","midi":36,"time":91.5000000000002,"velocity":0.8976377952755905,"duration":0.34062500000000284},{"name":"F#2","midi":42,"time":91.5000000000002,"velocity":0.8267716535433071,"duration":0.09062500000000284},{"name":"A4","midi":69,"time":91.5000000000002,"velocity":0.4015748031496063,"duration":0.125},{"name":"F#3","midi":54,"time":91.5000000000002,"velocity":0.6141732283464567,"duration":0.0859375},{"name":"G#3","midi":56,"time":91.5000000000002,"velocity":0.5826771653543307,"duration":2.9156250000001194},{"name":"C4","midi":60,"time":91.5000000000002,"velocity":0.7559055118110236,"duration":0.6640625},{"name":"A#4","midi":70,"time":91.5000000000002,"velocity":0.7795275590551181,"duration":0.33281250000000284},{"name":"D#4","midi":63,"time":91.5000000000002,"velocity":0.7086614173228346,"duration":1.2812500000000142},{"name":"C4","midi":60,"time":91.5000000000002,"velocity":0.6614173228346457,"duration":1.2343749999999858},{"name":"A#4","midi":70,"time":91.5000000000002,"velocity":0.7795275590551181,"duration":0.5171875000000057},{"name":"G#5","midi":80,"time":91.5000000000002,"velocity":0.5669291338582677,"duration":2.960937500000128},{"name":"F#3","midi":54,"time":91.6875000000002,"velocity":0.2125984251968504,"duration":0.07187500000000568},{"name":"F#2","midi":42,"time":91.6875000000002,"velocity":0.4645669291338583,"duration":0.0546875},{"name":"A#4","midi":70,"time":91.6875000000002,"velocity":0.4251968503937008,"duration":0.4546875000000057},{"name":"F#3","midi":54,"time":91.8750000000002,"velocity":0.5905511811023622,"duration":0.07968750000000568},{"name":"F#2","midi":42,"time":91.8750000000002,"velocity":0.5511811023622047,"duration":0.07187500000000568},{"name":"A4","midi":69,"time":91.8750000000002,"velocity":0.3464566929133858,"duration":0.11406250000000284},{"name":"F#2","midi":42,"time":92.0625000000002,"velocity":0.5039370078740157,"duration":0.05937500000000284},{"name":"A#4","midi":70,"time":92.0625000000002,"velocity":0.4409448818897638,"duration":0.15937499999999716},{"name":"F#3","midi":54,"time":92.0625000000002,"velocity":0.2125984251968504,"duration":0.056250000000005684},{"name":"A#4","midi":70,"time":92.2484375000002,"velocity":0.7559055118110236,"duration":0.3265624999999943},{"name":"D#4","midi":63,"time":92.2484375000002,"velocity":0.6614173228346457,"duration":0.8515625},{"name":"D2","midi":38,"time":92.2500000000002,"velocity":0.8976377952755905,"duration":0.4499999999999744},{"name":"F#2","midi":42,"time":92.2500000000002,"velocity":0.8267716535433071,"duration":0.1015625},{"name":"A4","midi":69,"time":92.2500000000002,"velocity":0.25196850393700787,"duration":0.12343749999999432},{"name":"F#3","midi":54,"time":92.2500000000002,"velocity":0.6141732283464567,"duration":0.0859375},{"name":"C4","midi":60,"time":92.2500000000002,"velocity":0.5511811023622047,"duration":0.5218750000000085},{"name":"D#4","midi":63,"time":92.2500000000002,"velocity":0.5511811023622047,"duration":0.8578124999999943},{"name":"A#4","midi":70,"time":92.2500000000002,"velocity":0.7795275590551181,"duration":0.42499999999998295},{"name":"C4","midi":60,"time":92.2500000000002,"velocity":0.7559055118110236,"duration":0.8624999999999972},{"name":"A#4","midi":70,"time":92.4375000000002,"velocity":0.41732283464566927,"duration":0.3359375000000142},{"name":"F#3","midi":54,"time":92.4375000000002,"velocity":0.14173228346456693,"duration":0.07499999999998863},{"name":"F#2","midi":42,"time":92.4375000000002,"velocity":0.1889763779527559,"duration":0.07031249999998579},{"name":"F#3","midi":54,"time":92.62500000000018,"velocity":0.5905511811023622,"duration":0.08281249999998863},{"name":"F#2","midi":42,"time":92.62500000000018,"velocity":0.5669291338582677,"duration":0.09999999999999432},{"name":"A4","midi":69,"time":92.62500000000018,"velocity":0.3543307086614173,"duration":0.11093750000000568},{"name":"C2","midi":36,"time":92.81250000000021,"velocity":0.8031496062992126,"duration":0.09062500000000284},{"name":"F#3","midi":54,"time":92.81250000000021,"velocity":0.30708661417322836,"duration":0.048437500000005684},{"name":"A#4","midi":70,"time":92.81250000000021,"velocity":0.4015748031496063,"duration":0.13124999999999432},{"name":"F#2","midi":42,"time":92.81250000000021,"velocity":0.4881889763779528,"duration":0.0625},{"name":"A#4","midi":70,"time":92.81250000000021,"velocity":0.6614173228346457,"duration":0.3656250000000085},{"name":"C4","midi":60,"time":92.81250000000021,"velocity":0.6614173228346457,"duration":0.3109374999999943},{"name":"D#4","midi":63,"time":92.81250000000021,"velocity":0.6614173228346457,"duration":0.2968749999999858},{"name":"C4","midi":60,"time":92.81250000000021,"velocity":0.6456692913385826,"duration":0.328125},{"name":"A#4","midi":70,"time":92.81250000000021,"velocity":0.7322834645669292,"duration":0.46562500000001705},{"name":"D#4","midi":63,"time":92.81250000000021,"velocity":0.6456692913385826,"duration":0.4296875000000142},{"name":"C4","midi":60,"time":93.0000000000002,"velocity":0.3228346456692913,"duration":0.2593750000000341},{"name":"A4","midi":69,"time":93.0000000000002,"velocity":0.25196850393700787,"duration":0.11406250000000284},{"name":"F#2","midi":42,"time":93.0000000000002,"velocity":0.7322834645669292,"duration":0.11875000000000568},{"name":"F#3","midi":54,"time":93.0000000000002,"velocity":0.6141732283464567,"duration":0.08124999999999716},{"name":"F#2","midi":42,"time":93.18750000000023,"velocity":0.4645669291338583,"duration":0.07187500000000568},{"name":"C2","midi":36,"time":93.18750000000023,"velocity":0.8582677165354331,"duration":0.04999999999999716},{"name":"F#3","midi":54,"time":93.18750000000023,"velocity":0.23622047244094488,"duration":0.08906249999999716},{"name":"A#4","midi":70,"time":93.18750000000023,"velocity":0.3228346456692913,"duration":0.16718749999999716},{"name":"C4","midi":60,"time":93.18750000000023,"velocity":0.36220472440944884,"duration":0.08281250000000284},{"name":"D#4","midi":63,"time":93.18750000000023,"velocity":0.23622047244094488,"duration":0.10468749999999716},{"name":"D#4","midi":63,"time":93.18750000000023,"velocity":0.44881889763779526,"duration":0.701562500000037},{"name":"C4","midi":60,"time":93.18750000000023,"velocity":0.2125984251968504,"duration":0.6609375000000313},{"name":"G4","midi":67,"time":93.37500000000023,"velocity":0.7322834645669292,"duration":0.1421875000000199},{"name":"D#5","midi":75,"time":93.37500000000023,"velocity":0.8503937007874016,"duration":0.5578125000000398},{"name":"A4","midi":69,"time":93.37500000000023,"velocity":0.3464566929133858,"duration":0.1109375000000199},{"name":"A#2","midi":46,"time":93.37500000000023,"velocity":0.6850393700787402,"duration":0.1421875000000199},{"name":"F#3","midi":54,"time":93.37500000000023,"velocity":0.5748031496062992,"duration":0.08593750000001421},{"name":"C2","midi":36,"time":93.37500000000023,"velocity":0.8976377952755905,"duration":0.23125000000001705},{"name":"C4","midi":60,"time":93.37500000000023,"velocity":0.6299212598425197,"duration":0.6703125000000654},{"name":"D#4","midi":63,"time":93.37500000000023,"velocity":0.7086614173228346,"duration":0.7281250000000625},{"name":"C4","midi":60,"time":93.37500000000023,"velocity":0.6299212598425197,"duration":0.7453125000000682},{"name":"A#4","midi":70,"time":93.37500000000023,"velocity":0.7559055118110236,"duration":0.3390625000000256},{"name":"G4","midi":67,"time":93.37500000000023,"velocity":0.5984251968503937,"duration":0.3140625000000199},{"name":"A#4","midi":70,"time":93.37656250000023,"velocity":0.7086614173228346,"duration":0.5578125000000398},{"name":"D#4","midi":63,"time":93.37656250000023,"velocity":0.6299212598425197,"duration":0.7437500000000625},{"name":"A#4","midi":70,"time":93.56250000000024,"velocity":0.4015748031496063,"duration":0.4078125000000341},{"name":"F#3","midi":54,"time":93.56250000000024,"velocity":0.2204724409448819,"duration":0.07343750000001137},{"name":"A#1","midi":34,"time":93.75000000000026,"velocity":0.7795275590551181,"duration":0.4343750000000597},{"name":"G4","midi":67,"time":93.75000000000026,"velocity":0.8267716535433071,"duration":0.2203125000000199},{"name":"D#5","midi":75,"time":93.75000000000026,"velocity":0.8740157480314961,"duration":2.556250000000034},{"name":"D2","midi":38,"time":93.75000000000026,"velocity":0.8740157480314961,"duration":0.34062500000003126},{"name":"A#2","midi":46,"time":93.75000000000026,"velocity":0.8031496062992126,"duration":0.13750000000000284},{"name":"A4","midi":69,"time":93.75000000000026,"velocity":0.25984251968503935,"duration":0.125},{"name":"F#3","midi":54,"time":93.75000000000026,"velocity":0.5354330708661418,"duration":0.0859375},{"name":"G4","midi":67,"time":93.75000000000026,"velocity":0.5196850393700787,"duration":0.2656250000000284},{"name":"F4","midi":65,"time":93.93750000000027,"velocity":0.5984251968503937,"duration":0.1890625000000341},{"name":"A#5","midi":82,"time":93.93750000000027,"velocity":0.8267716535433071,"duration":0.8593750000000284},{"name":"F#3","midi":54,"time":93.93750000000027,"velocity":0.1968503937007874,"duration":0.05000000000001137},{"name":"A#4","midi":70,"time":93.93750000000027,"velocity":0.33858267716535434,"duration":0.1343750000000199},{"name":"D#4","midi":63,"time":93.93750000000027,"velocity":0.3858267716535433,"duration":0.21718750000003695},{"name":"C4","midi":60,"time":93.93750000000027,"velocity":0.4015748031496063,"duration":0.3453125000000341},{"name":"A#4","midi":70,"time":93.93750000000027,"velocity":0.4094488188976378,"duration":0.18281250000002558},{"name":"F4","midi":65,"time":93.93750000000027,"velocity":0.5039370078740157,"duration":0.25000000000004263},{"name":"D2","midi":38,"time":94.1250000000003,"velocity":0.7559055118110236,"duration":0.4234375000000199},{"name":"D#4","midi":63,"time":94.1250000000003,"velocity":0.7322834645669292,"duration":0.15937500000001137},{"name":"A4","midi":69,"time":94.1250000000003,"velocity":0.3779527559055118,"duration":0.09843750000000284},{"name":"F#3","midi":54,"time":94.1250000000003,"velocity":0.6141732283464567,"duration":0.08750000000000568},{"name":"C2","midi":36,"time":94.1250000000003,"velocity":0.8503937007874016,"duration":0.22343750000001705},{"name":"F#2","midi":42,"time":94.1250000000003,"velocity":0.4881889763779528,"duration":0.05468750000001421},{"name":"A#4","midi":70,"time":94.1250000000003,"velocity":0.7086614173228346,"duration":0.2890625000000142},{"name":"C4","midi":60,"time":94.1250000000003,"velocity":0.6614173228346457,"duration":0.1812500000000199},{"name":"D#4","midi":63,"time":94.1250000000003,"velocity":0.6614173228346457,"duration":0.2265625000000142},{"name":"D#4","midi":63,"time":94.1250000000003,"velocity":0.5354330708661418,"duration":0.2921875000000256},{"name":"A#4","midi":70,"time":94.31250000000031,"velocity":0.4409448818897638,"duration":0.1718750000000142},{"name":"F#3","midi":54,"time":94.31250000000031,"velocity":0.2204724409448819,"duration":0.05937500000000284},{"name":"D2","midi":38,"time":94.31250000000031,"velocity":0.9291338582677166,"duration":0.7468749999999886},{"name":"F#2","midi":42,"time":94.31250000000031,"velocity":0.5196850393700787,"duration":0.056250000000005684},{"name":"D#4","midi":63,"time":94.31250000000031,"velocity":0.5196850393700787,"duration":0.12343750000000853},{"name":"C4","midi":60,"time":94.31250000000031,"velocity":0.2992125984251969,"duration":0.10468750000001137},{"name":"D#2","midi":39,"time":94.50000000000033,"velocity":0.8031496062992126,"duration":1.6062499999999744},{"name":"A#3","midi":58,"time":94.50000000000033,"velocity":0.5826771653543307,"duration":1.1921874999999602},{"name":"D#4","midi":63,"time":94.50000000000033,"velocity":0.5984251968503937,"duration":0.9499999999999744},{"name":"D#2","midi":39,"time":94.50000000000033,"velocity":0.6850393700787402,"duration":1.764062499999966},{"name":"G4","midi":67,"time":94.50000000000033,"velocity":0.6299212598425197,"duration":0.6484374999999574},{"name":"C2","midi":36,"time":94.50000000000033,"velocity":0.8503937007874016,"duration":0.5843749999999659},{"name":"F#2","midi":42,"time":94.50000000000033,"velocity":0.7401574803149606,"duration":0.1156249999999801},{"name":"A#4","midi":70,"time":94.50000000000033,"velocity":0.49606299212598426,"duration":0.13749999999997442},{"name":"D#4","midi":63,"time":94.50000000000033,"velocity":0.7086614173228346,"duration":1.8937499999999545},{"name":"A#3","midi":58,"time":94.50000000000033,"velocity":0.8031496062992126,"duration":1.9171874999999545},{"name":"G4","midi":67,"time":94.50000000000033,"velocity":0.7086614173228346,"duration":1.8906249999999574},{"name":"A#5","midi":82,"time":94.50000000000033,"velocity":0.5669291338582677,"duration":1.2156249999999602},{"name":"G5","midi":79,"time":94.50000000000033,"velocity":0.5669291338582677,"duration":1.7578124999999716},{"name":"F#2","midi":42,"time":94.68750000000031,"velocity":0.3858267716535433,"duration":0.06874999999999432},{"name":"A4","midi":69,"time":94.68750000000031,"velocity":0.2992125984251969,"duration":0.10624999999998863},{"name":"A#5","midi":82,"time":94.8750000000003,"velocity":0.8740157480314961,"duration":1.3828125},{"name":"F#2","midi":42,"time":94.8750000000003,"velocity":0.5905511811023622,"duration":0.11250000000001137},{"name":"A#4","midi":70,"time":94.8750000000003,"velocity":0.4409448818897638,"duration":0.11875000000000568},{"name":"F#2","midi":42,"time":95.0625000000003,"velocity":0.33070866141732286,"duration":0.05156249999998863},{"name":"A4","midi":69,"time":95.0625000000003,"velocity":0.3937007874015748,"duration":0.10312499999999147},{"name":"F#2","midi":42,"time":95.2500000000003,"velocity":0.6771653543307087,"duration":0.10312500000000568},{"name":"A#4","midi":70,"time":95.2500000000003,"velocity":0.4015748031496063,"duration":0.1171875},{"name":"D2","midi":38,"time":95.2500000000003,"velocity":0.9291338582677166,"duration":0.5046874999999886},{"name":"F#2","midi":42,"time":95.4375000000003,"velocity":0.3228346456692913,"duration":0.060937499999994316},{"name":"A4","midi":69,"time":95.4375000000003,"velocity":0.31496062992125984,"duration":0.11875000000000568},{"name":"D#5","midi":75,"time":95.6250000000003,"velocity":0.8031496062992126,"duration":0.7624999999999886},{"name":"F#2","midi":42,"time":95.6250000000003,"velocity":0.5905511811023622,"duration":0.10624999999998863},{"name":"A#4","midi":70,"time":95.6250000000003,"velocity":0.41732283464566927,"duration":0.12968749999998863},{"name":"F#2","midi":42,"time":95.81250000000028,"velocity":0.4094488188976378,"duration":0.05937500000000284},{"name":"A4","midi":69,"time":95.81250000000028,"velocity":0.33858267716535434,"duration":0.07656250000000853},{"name":"F#2","midi":42,"time":96.0000000000003,"velocity":0.5905511811023622,"duration":0.10312500000000568},{"name":"A#4","midi":70,"time":96.0000000000003,"velocity":0.41732283464566927,"duration":0.12343750000000853},{"name":"D#2","midi":39,"time":96.1875000000003,"velocity":0.4881889763779528,"duration":0.5890625000000114},{"name":"C2","midi":36,"time":96.1875000000003,"velocity":0.5984251968503937,"duration":0.046875},{"name":"F#2","midi":42,"time":96.1875000000003,"velocity":0.4330708661417323,"duration":0.07656249999999432},{"name":"A4","midi":69,"time":96.1875000000003,"velocity":0.2125984251968504,"duration":0.1562499999999858},{"name":"D#2","midi":39,"time":96.37500000000028,"velocity":0.6850393700787402,"duration":0.9578125000000028},{"name":"C2","midi":36,"time":96.37500000000028,"velocity":0.7795275590551181,"duration":0.23906250000001705},{"name":"F#2","midi":42,"time":96.37500000000028,"velocity":0.5354330708661418,"duration":0.08750000000000568},{"name":"A#4","midi":70,"time":96.37500000000028,"velocity":0.4566929133858268,"duration":0.13593750000001137},{"name":"F#2","midi":42,"time":96.5625000000003,"velocity":0.4330708661417323,"duration":0.056250000000005684},{"name":"A4","midi":69,"time":96.5625000000003,"velocity":0.2125984251968504,"duration":0.12343750000000853},{"name":"A#2","midi":46,"time":96.75000000000031,"velocity":0.6850393700787402,"duration":0.4218749999999858},{"name":"D#4","midi":63,"time":96.75000000000031,"velocity":0.5669291338582677,"duration":0.6249999999999716},{"name":"G4","midi":67,"time":96.75000000000031,"velocity":0.5826771653543307,"duration":0.6171874999999716},{"name":"D#3","midi":51,"time":96.75000000000031,"velocity":0.5984251968503937,"duration":0.6046874999999687},{"name":"A#3","midi":58,"time":96.75000000000031,"velocity":0.5669291338582677,"duration":0.6421874999999773},{"name":"F#2","midi":42,"time":96.75000000000031,"velocity":0.6141732283464567,"duration":0.09687499999999716},{"name":"A#4","midi":70,"time":96.75000000000031,"velocity":0.4251968503937008,"duration":0.14531250000000284},{"name":"D2","midi":38,"time":96.75000000000031,"velocity":0.9606299212598425,"duration":0.5093749999999773},{"name":"G4","midi":67,"time":96.75000000000031,"velocity":0.6456692913385826,"duration":0.6578124999999773},{"name":"D#4","midi":63,"time":96.75000000000031,"velocity":0.6141732283464567,"duration":0.6578124999999773},{"name":"A#3","midi":58,"time":96.75000000000031,"velocity":0.7795275590551181,"duration":0.6718749999999716},{"name":"F#2","midi":42,"time":96.93750000000031,"velocity":0.3779527559055118,"duration":0.060937499999994316},{"name":"A4","midi":69,"time":96.93750000000031,"velocity":0.3228346456692913,"duration":0.12656249999999147},{"name":"D#2","midi":39,"time":97.1250000000003,"velocity":0.6141732283464567,"duration":0.3984374999999858},{"name":"D#5","midi":75,"time":97.1250000000003,"velocity":0.7322834645669292,"duration":0.0625},{"name":"F#2","midi":42,"time":97.1250000000003,"velocity":0.6141732283464567,"duration":0.08906249999999716},{"name":"A#4","midi":70,"time":97.1250000000003,"velocity":0.4015748031496063,"duration":0.14218749999999147},{"name":"D#5","midi":75,"time":97.31250000000028,"velocity":0.7795275590551181,"duration":0.08906250000001137},{"name":"F#2","midi":42,"time":97.31250000000028,"velocity":0.28346456692913385,"duration":0.060937499999994316},{"name":"A4","midi":69,"time":97.31250000000028,"velocity":0.31496062992125984,"duration":0.13750000000000284},{"name":"D2","midi":38,"time":97.50000000000028,"velocity":0.7795275590551181,"duration":1.18593749999998},{"name":"D2","midi":38,"time":97.50000000000028,"velocity":0.5984251968503937,"duration":1.7875000000000227},{"name":"D3","midi":50,"time":97.50000000000028,"velocity":0.5511811023622047,"duration":1.4968749999999886},{"name":"F4","midi":65,"time":97.50000000000028,"velocity":0.5826771653543307,"duration":0.8249999999999886},{"name":"D4","midi":62,"time":97.50000000000028,"velocity":0.6299212598425197,"duration":0.831249999999983},{"name":"A#3","midi":58,"time":97.50000000000028,"velocity":0.4881889763779528,"duration":0.9390624999999915},{"name":"A#5","midi":82,"time":97.50000000000028,"velocity":0.7795275590551181,"duration":0.22499999999999432},{"name":"C2","midi":36,"time":97.50000000000028,"velocity":0.8740157480314961,"duration":0.3265624999999801},{"name":"F#2","midi":42,"time":97.50000000000028,"velocity":0.6141732283464567,"duration":0.08281250000000284},{"name":"A#4","midi":70,"time":97.50000000000028,"velocity":0.3937007874015748,"duration":0.15781250000000568},{"name":"F4","midi":65,"time":97.50000000000028,"velocity":0.6299212598425197,"duration":1.385937499999983},{"name":"D4","midi":62,"time":97.50000000000028,"velocity":0.6614173228346457,"duration":1.4703124999999773},{"name":"A#3","midi":58,"time":97.50000000000028,"velocity":0.7086614173228346,"duration":1.5015624999999915},{"name":"F#2","midi":42,"time":97.68750000000028,"velocity":0.3858267716535433,"duration":0.06718749999998863},{"name":"A4","midi":69,"time":97.68750000000028,"velocity":0.4015748031496063,"duration":0.12499999999998579},{"name":"A#5","midi":82,"time":97.87500000000027,"velocity":0.8031496062992126,"duration":0.7359375000000057},{"name":"F#2","midi":42,"time":97.87500000000027,"velocity":0.6141732283464567,"duration":0.09843750000000284},{"name":"A#4","midi":70,"time":97.87500000000027,"velocity":0.4251968503937008,"duration":0.14531250000000284},{"name":"F#2","midi":42,"time":98.06250000000027,"velocity":0.29133858267716534,"duration":0.05781249999999716},{"name":"A4","midi":69,"time":98.06250000000027,"velocity":0.3464566929133858,"duration":0.11406250000000284},{"name":"F#2","midi":42,"time":98.25000000000027,"velocity":0.5748031496062992,"duration":0.11874999999999147},{"name":"A#4","midi":70,"time":98.25000000000027,"velocity":0.4409448818897638,"duration":0.15937499999999716},{"name":"D2","midi":38,"time":98.25000000000027,"velocity":0.984251968503937,"duration":1.5281250000000313},{"name":"F#2","midi":42,"time":98.43750000000027,"velocity":0.3464566929133858,"duration":0.07343750000001137},{"name":"A4","midi":69,"time":98.43750000000027,"velocity":0.25196850393700787,"duration":0.12343750000000853},{"name":"D#5","midi":75,"time":98.62500000000027,"velocity":0.8267716535433071,"duration":0.6343750000000341},{"name":"F#2","midi":42,"time":98.62500000000027,"velocity":0.5511811023622047,"duration":0.09531249999999147},{"name":"A#4","midi":70,"time":98.62500000000027,"velocity":0.41732283464566927,"duration":0.13749999999998863},{"name":"C2","midi":36,"time":98.81250000000026,"velocity":0.7086614173228346,"duration":0.1875000000000142},{"name":"F#2","midi":42,"time":98.81250000000026,"velocity":0.30708661417322836,"duration":0.056250000000005684},{"name":"A4","midi":69,"time":98.81250000000026,"velocity":0.3543307086614173,"duration":0.11093750000000568},{"name":"F#2","midi":42,"time":99.00000000000027,"velocity":0.5905511811023622,"duration":0.1031250000000199},{"name":"A#4","midi":70,"time":99.00000000000027,"velocity":0.4015748031496063,"duration":0.13125000000002274},{"name":"F#2","midi":42,"time":99.1875000000003,"velocity":0.4645669291338583,"duration":0.0703125},{"name":"A4","midi":69,"time":99.1875000000003,"velocity":0.25196850393700787,"duration":0.11406250000000284},{"name":"D2","midi":38,"time":99.37500000000031,"velocity":0.6299212598425197,"duration":0.43281249999998295},{"name":"F4","midi":65,"time":99.37500000000031,"velocity":0.6614173228346457,"duration":0.6203124999999972},{"name":"D4","midi":62,"time":99.37500000000031,"velocity":0.7086614173228346,"duration":0.6187499999999915},{"name":"A#3","midi":58,"time":99.37500000000031,"velocity":0.5984251968503937,"duration":0.6109374999999915},{"name":"C2","midi":36,"time":99.37500000000031,"velocity":0.8503937007874016,"duration":0.2640624999999943},{"name":"F#2","midi":42,"time":99.37500000000031,"velocity":0.5196850393700787,"duration":0.09218749999999432},{"name":"A#4","midi":70,"time":99.37500000000031,"velocity":0.3228346456692913,"duration":0.16718749999999716},{"name":"D4","midi":62,"time":99.37500000000031,"velocity":0.7559055118110236,"duration":1.1125000000000114},{"name":"A#3","midi":58,"time":99.37500000000031,"velocity":0.7086614173228346,"duration":1.1187500000000057},{"name":"F4","midi":65,"time":99.37500000000031,"velocity":0.7086614173228346,"duration":1.1109375000000057},{"name":"F#2","midi":42,"time":99.56250000000031,"velocity":0.4094488188976378,"duration":0.08906249999999716},{"name":"A4","midi":69,"time":99.56250000000031,"velocity":0.3464566929133858,"duration":0.11093749999999147},{"name":"A#2","midi":46,"time":99.7500000000003,"velocity":0.7322834645669292,"duration":0.4156250000000199},{"name":"F#2","midi":42,"time":99.7500000000003,"velocity":0.5905511811023622,"duration":0.07968749999999147},{"name":"A#4","midi":70,"time":99.7500000000003,"velocity":0.4015748031496063,"duration":0.15156249999999716},{"name":"D2","midi":38,"time":99.7500000000003,"velocity":0.9606299212598425,"duration":0.2812500000000142},{"name":"F#2","midi":42,"time":99.9375000000003,"velocity":0.4330708661417323,"duration":0.060937500000008527},{"name":"A4","midi":69,"time":99.9375000000003,"velocity":0.25984251968503935,"duration":0.1250000000000142},{"name":"D2","midi":38,"time":100.12500000000031,"velocity":0.6850393700787402,"duration":0.375},{"name":"D#5","midi":75,"time":100.12500000000031,"velocity":0.7795275590551181,"duration":0.08906250000001137},{"name":"A#2","midi":46,"time":100.12500000000031,"velocity":0.6299212598425197,"duration":0.21562500000000284},{"name":"A#4","midi":70,"time":100.12500000000031,"velocity":0.33858267716535434,"duration":0.13437500000000568},{"name":"D#5","midi":75,"time":100.31250000000031,"velocity":0.7086614173228346,"duration":0.09687499999999716},{"name":"A4","midi":69,"time":100.31250000000031,"velocity":0.3779527559055118,"duration":0.09843750000000284},{"name":"C2","midi":36,"time":100.50000000000031,"velocity":0.8267716535433071,"duration":0.5843749999999801},{"name":"D#4","midi":63,"time":100.50000000000031,"velocity":0.5669291338582677,"duration":2.3984374999998437},{"name":"C4","midi":60,"time":100.50000000000031,"velocity":0.5984251968503937,"duration":2.3843749999998494},{"name":"G3","midi":55,"time":100.50000000000031,"velocity":0.4645669291338583,"duration":2.2874999999998664},{"name":"C3","midi":48,"time":100.50000000000031,"velocity":0.5984251968503937,"duration":2.945312499999872},{"name":"D#5","midi":75,"time":100.50000000000031,"velocity":0.8267716535433071,"duration":0.24843749999999432},{"name":"C2","midi":36,"time":100.50000000000031,"velocity":0.8503937007874016,"duration":1.7343749999999005},{"name":"F#2","midi":42,"time":100.50000000000031,"velocity":0.6141732283464567,"duration":0.08281250000000284},{"name":"A#4","midi":70,"time":100.50000000000031,"velocity":0.4409448818897638,"duration":0.171875},{"name":"G3","midi":55,"time":100.50000000000031,"velocity":0.5354330708661418,"duration":2.9843749999998863},{"name":"D#4","midi":63,"time":100.50000000000031,"velocity":0.5826771653543307,"duration":2.9828124999998806},{"name":"C4","midi":60,"time":100.50000000000031,"velocity":0.5511811023622047,"duration":2.978124999999878},{"name":"C5","midi":72,"time":100.50000000000031,"velocity":0.3858267716535433,"duration":2.2515624999998636},{"name":"D#5","midi":75,"time":100.50000000000031,"velocity":0.44881889763779526,"duration":0.7453124999999687},{"name":"F#2","midi":42,"time":100.68750000000031,"velocity":0.3858267716535433,"duration":0.06718749999998863},{"name":"A4","midi":69,"time":100.68750000000031,"velocity":0.2125984251968504,"duration":0.13437499999999147},{"name":"D#5","midi":75,"time":100.8750000000003,"velocity":0.8031496062992126,"duration":1.448437499999912},{"name":"F#2","midi":42,"time":100.8750000000003,"velocity":0.6141732283464567,"duration":0.09843750000000284},{"name":"A#4","midi":70,"time":100.8750000000003,"velocity":0.3543307086614173,"duration":0.15000000000000568},{"name":"F#2","midi":42,"time":101.0625000000003,"velocity":0.29133858267716534,"duration":0.05781249999999716},{"name":"A4","midi":69,"time":101.0625000000003,"velocity":0.25984251968503935,"duration":0.1015625},{"name":"F5","midi":77,"time":101.25000000000028,"velocity":0.8031496062992126,"duration":0.4203124999999517},{"name":"F#2","midi":42,"time":101.25000000000028,"velocity":0.5748031496062992,"duration":0.11874999999997726},{"name":"A#4","midi":70,"time":101.25000000000028,"velocity":0.4251968503937008,"duration":0.1546874999999801},{"name":"D2","midi":38,"time":101.25000000000028,"velocity":0.9291338582677166,"duration":0.5046874999999602},{"name":"F#2","midi":42,"time":101.43750000000026,"velocity":0.3464566929133858,"duration":0.07343749999999716},{"name":"A4","midi":69,"time":101.43750000000026,"velocity":0.30708661417322836,"duration":0.11562499999999432},{"name":"D#5","midi":75,"time":101.62500000000024,"velocity":0.8503937007874016,"duration":1.2953124999999233},{"name":"F#2","midi":42,"time":101.62500000000024,"velocity":0.5511811023622047,"duration":0.09531249999999147},{"name":"A#4","midi":70,"time":101.62500000000024,"velocity":0.4015748031496063,"duration":0.1484375000000142},{"name":"F#2","midi":42,"time":101.81250000000026,"velocity":0.30708661417322836,"duration":0.056249999999991473},{"name":"A4","midi":69,"time":101.81250000000026,"velocity":0.3464566929133858,"duration":0.09687499999998295},{"name":"F#2","midi":42,"time":102.00000000000023,"velocity":0.5905511811023622,"duration":0.10312499999999147},{"name":"A#4","midi":70,"time":102.00000000000023,"velocity":0.4409448818897638,"duration":0.13749999999998863},{"name":"C2","midi":36,"time":102.18750000000021,"velocity":0.5984251968503937,"duration":0.4265624999999602},{"name":"F#2","midi":42,"time":102.18750000000021,"velocity":0.4645669291338583,"duration":0.0703125},{"name":"A4","midi":69,"time":102.18750000000021,"velocity":0.33070866141732286,"duration":0.09375},{"name":"C2","midi":36,"time":102.3750000000002,"velocity":0.7795275590551181,"duration":0.7515624999999773},{"name":"F#2","midi":42,"time":102.3750000000002,"velocity":0.5196850393700787,"duration":0.09218749999999432},{"name":"A#4","midi":70,"time":102.3750000000002,"velocity":0.4251968503937008,"duration":0.13749999999998863},{"name":"C5","midi":72,"time":102.56250000000018,"velocity":0.8267716535433071,"duration":0.5437499999999886},{"name":"F#2","midi":42,"time":102.56250000000018,"velocity":0.4094488188976378,"duration":0.08906249999999716},{"name":"A4","midi":69,"time":102.56250000000018,"velocity":0.3937007874015748,"duration":0.08749999999999147},{"name":"D#5","midi":75,"time":102.75000000000017,"velocity":0.8031496062992126,"duration":0.3125},{"name":"F#2","midi":42,"time":102.75000000000017,"velocity":0.5905511811023622,"duration":0.07968750000000568},{"name":"A#4","midi":70,"time":102.75000000000017,"velocity":0.4409448818897638,"duration":0.14218749999999147},{"name":"D2","midi":38,"time":102.75000000000017,"velocity":0.9606299212598425,"duration":0.5093750000000057},{"name":"C5","midi":72,"time":102.93750000000017,"velocity":0.8031496062992126,"duration":0.49687500000001705},{"name":"F#2","midi":42,"time":102.93750000000017,"velocity":0.4330708661417323,"duration":0.060937499999994316},{"name":"A4","midi":69,"time":102.93750000000017,"velocity":0.3228346456692913,"duration":0.07656249999999432},{"name":"G1","midi":31,"time":103.12500000000017,"velocity":0.8031496062992126,"duration":0.3921875000000341},{"name":"A#2","midi":46,"time":103.12500000000017,"velocity":0.6299212598425197,"duration":0.21562500000001705},{"name":"A#4","midi":70,"time":103.12500000000017,"velocity":0.3779527559055118,"duration":0.15156250000001137},{"name":"A4","midi":69,"time":103.31250000000018,"velocity":0.41732283464566927,"duration":0.11093750000000568},{"name":"G#1","midi":32,"time":103.5000000000002,"velocity":0.8976377952755905,"duration":2.3156249999998693},{"name":"D#4","midi":63,"time":103.5000000000002,"velocity":0.5826771653543307,"duration":2.9421874999998323},{"name":"G#2","midi":44,"time":103.5000000000002,"velocity":0.6299212598425197,"duration":2.9062499999998295},{"name":"C4","midi":60,"time":103.5000000000002,"velocity":0.5826771653543307,"duration":2.939062499999835},{"name":"G#3","midi":56,"time":103.5000000000002,"velocity":0.4645669291338583,"duration":2.9531249999998437},{"name":"A#3","midi":58,"time":103.5000000000002,"velocity":0.5354330708661418,"duration":2.9328124999998266},{"name":"C2","midi":36,"time":103.5000000000002,"velocity":0.8503937007874016,"duration":0.5843749999999659},{"name":"F#2","midi":42,"time":103.5000000000002,"velocity":0.5748031496062992,"duration":0.11875000000000568},{"name":"A#4","midi":70,"time":103.5000000000002,"velocity":0.4015748031496063,"duration":0.12187500000000284},{"name":"C4","midi":60,"time":103.5000000000002,"velocity":0.5354330708661418,"duration":2.9703124999998494},{"name":"D#4","midi":63,"time":103.5000000000002,"velocity":0.5196850393700787,"duration":2.9703124999998494},{"name":"G#3","midi":56,"time":103.5000000000002,"velocity":0.6614173228346457,"duration":2.9578124999998465},{"name":"D#5","midi":75,"time":103.5000000000002,"velocity":0.5826771653543307,"duration":2.546874999999872},{"name":"G#5","midi":80,"time":103.5000000000002,"velocity":0.6141732283464567,"duration":2.904687499999824},{"name":"A#4","midi":70,"time":103.5000000000002,"velocity":0.3464566929133858,"duration":0.49531249999998295},{"name":"F#2","midi":42,"time":103.6875000000002,"velocity":0.3464566929133858,"duration":0.07343749999999716},{"name":"A4","midi":69,"time":103.6875000000002,"velocity":0.33858267716535434,"duration":0.06874999999999432},{"name":"F#2","midi":42,"time":103.87500000000018,"velocity":0.5511811023622047,"duration":0.09531249999999147},{"name":"A#4","midi":70,"time":103.87500000000018,"velocity":0.3779527559055118,"duration":0.49374999999996305},{"name":"F#2","midi":42,"time":104.06250000000017,"velocity":0.30708661417322836,"duration":0.056249999999991473},{"name":"A4","midi":69,"time":104.06250000000017,"velocity":0.3700787401574803,"duration":0.06874999999999432},{"name":"G5","midi":79,"time":104.25000000000016,"velocity":0.8740157480314961,"duration":0.30781249999996874},{"name":"F#2","midi":42,"time":104.25000000000016,"velocity":0.5905511811023622,"duration":0.10312499999999147},{"name":"A#4","midi":70,"time":104.25000000000016,"velocity":0.4251968503937008,"duration":0.517187499999963},{"name":"D2","midi":38,"time":104.25000000000016,"velocity":0.9291338582677166,"duration":0.5046874999999602},{"name":"F#2","midi":42,"time":104.43750000000014,"velocity":0.4645669291338583,"duration":0.07031249999998579},{"name":"A4","midi":69,"time":104.43750000000014,"velocity":0.23622047244094488,"duration":0.06718749999998863},{"name":"G5","midi":79,"time":104.62500000000011,"velocity":0.7795275590551181,"duration":0.3578124999999801},{"name":"F#2","midi":42,"time":104.62500000000011,"velocity":0.5196850393700787,"duration":0.09218749999999432},{"name":"A#4","midi":70,"time":104.62500000000011,"velocity":0.4566929133858268,"duration":0.4843749999999716},{"name":"C2","midi":36,"time":104.81250000000011,"velocity":0.8267716535433071,"duration":0.1156249999999801},{"name":"F#2","midi":42,"time":104.81250000000011,"velocity":0.4094488188976378,"duration":0.08906249999998295},{"name":"A4","midi":69,"time":104.81250000000011,"velocity":0.3700787401574803,"duration":0.07812499999998579},{"name":"A#5","midi":82,"time":105.0000000000001,"velocity":0.8503937007874016,"duration":0.3890624999999801},{"name":"F#2","midi":42,"time":105.0000000000001,"velocity":0.5905511811023622,"duration":0.07968749999999147},{"name":"A#4","midi":70,"time":105.0000000000001,"velocity":0.4015748031496063,"duration":0.4843749999999858},{"name":"C2","midi":36,"time":105.18750000000007,"velocity":0.5984251968503937,"duration":0.046875},{"name":"F#2","midi":42,"time":105.18750000000007,"velocity":0.4330708661417323,"duration":0.060937500000008527},{"name":"A4","midi":69,"time":105.18750000000007,"velocity":0.2992125984251969,"duration":0.0953125000000199},{"name":"D#5","midi":75,"time":105.37500000000009,"velocity":0.8031496062992126,"duration":0.9937499999999488},{"name":"C2","midi":36,"time":105.37500000000009,"velocity":0.7795275590551181,"duration":0.23906249999998863},{"name":"A#2","midi":46,"time":105.37500000000009,"velocity":0.6299212598425197,"duration":0.21562499999998863},{"name":"A#4","midi":70,"time":105.37500000000009,"velocity":0.4566929133858268,"duration":0.14374999999999716},{"name":"A4","midi":69,"time":105.56250000000007,"velocity":0.3543307086614173,"duration":0.08906249999999716},{"name":"A#1","midi":34,"time":105.75000000000006,"velocity":0.7559055118110236,"duration":0.4124999999999943},{"name":"F#2","midi":42,"time":105.75000000000006,"velocity":0.5905511811023622,"duration":0.1031250000000199},{"name":"A#4","midi":70,"time":105.75000000000006,"velocity":0.3779527559055118,"duration":0.07500000000001705},{"name":"D2","midi":38,"time":105.75000000000006,"velocity":0.9606299212598425,"duration":0.5093749999999915},{"name":"F#2","midi":42,"time":105.93750000000007,"velocity":0.4645669291338583,"duration":0.0703125},{"name":"A#4","midi":70,"time":105.93750000000007,"velocity":0.4015748031496063,"duration":0.07187500000000568},{"name":"D2","midi":38,"time":106.12500000000006,"velocity":0.6614173228346457,"duration":0.3999999999999915},{"name":"D#5","midi":75,"time":106.12500000000006,"velocity":0.8740157480314961,"duration":0.7624999999999744},{"name":"C2","midi":36,"time":106.12500000000006,"velocity":0.8503937007874016,"duration":0.2656249999999716},{"name":"F#2","midi":42,"time":106.12500000000006,"velocity":0.5196850393700787,"duration":0.09218749999999432},{"name":"A#4","midi":70,"time":106.12500000000006,"velocity":0.4251968503937008,"duration":0.11562499999999432},{"name":"F#2","midi":42,"time":106.31250000000004,"velocity":0.4094488188976378,"duration":0.08906249999998295},{"name":"A4","midi":69,"time":106.31250000000004,"velocity":0.4645669291338583,"duration":0.12499999999998579},{"name":"D#2","midi":39,"time":106.50000000000004,"velocity":0.8740157480314961,"duration":2.220312499999963},{"name":"D#3","midi":51,"time":106.50000000000004,"velocity":0.4645669291338583,"duration":0.4437499999999943},{"name":"D#2","midi":39,"time":106.50000000000004,"velocity":0.5984251968503937,"duration":2.2656249999999716},{"name":"A#4","midi":70,"time":106.50000000000004,"velocity":0.6299212598425197,"duration":0.10312500000000568},{"name":"G4","midi":67,"time":106.50000000000004,"velocity":0.5984251968503937,"duration":2.2687499999999687},{"name":"D#4","midi":63,"time":106.50000000000004,"velocity":0.5669291338582677,"duration":2.2968749999999574},{"name":"C2","midi":36,"time":106.50000000000004,"velocity":0.8503937007874016,"duration":0.5843749999999943},{"name":"F#2","midi":42,"time":106.50000000000004,"velocity":0.5748031496062992,"duration":0.11875000000000568},{"name":"A#4","midi":70,"time":106.50000000000004,"velocity":0.4566929133858268,"duration":0.48906250000000284},{"name":"D#3","midi":51,"time":106.50000000000004,"velocity":0.5826771653543307,"duration":2.2031249999999574},{"name":"D#4","midi":63,"time":106.50000000000004,"velocity":0.5511811023622047,"duration":2.3390624999999545},{"name":"G4","midi":67,"time":106.50000000000004,"velocity":0.6614173228346457,"duration":2.290624999999963},{"name":"A#3","midi":58,"time":106.50000000000004,"velocity":0.5984251968503937,"duration":2.264062499999966},{"name":"A4","midi":69,"time":106.68750000000004,"velocity":0.2125984251968504,"duration":0.10312499999999147},{"name":"F5","midi":77,"time":106.87500000000003,"velocity":0.8503937007874016,"duration":0.7734374999999574},{"name":"F#2","midi":42,"time":106.87500000000003,"velocity":0.5511811023622047,"duration":0.09531250000000568},{"name":"A#4","midi":70,"time":106.87500000000003,"velocity":0.4566929133858268,"duration":0.47031249999997726},{"name":"G3","midi":55,"time":106.87500000000003,"velocity":0.33070866141732286,"duration":0.37031249999998295},{"name":"F#2","midi":42,"time":107.06250000000004,"velocity":0.30708661417322836,"duration":0.056249999999991473},{"name":"A4","midi":69,"time":107.06250000000004,"velocity":0.29133858267716534,"duration":0.09687499999998295},{"name":"F#2","midi":42,"time":107.25000000000001,"velocity":0.5905511811023622,"duration":0.10312499999999147},{"name":"A#4","midi":70,"time":107.25000000000001,"velocity":0.4015748031496063,"duration":0.4890624999999602},{"name":"D2","midi":38,"time":107.25000000000001,"velocity":0.9291338582677166,"duration":0.5046874999999602},{"name":"F3","midi":53,"time":107.25000000000001,"velocity":0.5039370078740157,"duration":0.3984374999999716},{"name":"F#2","midi":42,"time":107.4375,"velocity":0.4645669291338583,"duration":0.07031249999998579},{"name":"A4","midi":69,"time":107.4375,"velocity":0.33070866141732286,"duration":0.08749999999999147},{"name":"D#5","midi":75,"time":107.62499999999999,"velocity":0.8503937007874016,"duration":0.45624999999999716},{"name":"F#2","midi":42,"time":107.62499999999999,"velocity":0.5196850393700787,"duration":0.09218749999999432},{"name":"A#4","midi":70,"time":107.62499999999999,"velocity":0.3937007874015748,"duration":0.45624999999999716},{"name":"G3","midi":55,"time":107.62499999999999,"velocity":0.5669291338582677,"duration":0.7484374999999943},{"name":"F#2","midi":42,"time":107.81249999999997,"velocity":0.4094488188976378,"duration":0.08906249999999716},{"name":"A4","midi":69,"time":107.81249999999997,"velocity":0.33858267716535434,"duration":0.1015625},{"name":"F#2","midi":42,"time":107.99999999999997,"velocity":0.5905511811023622,"duration":0.07968750000000568},{"name":"A#4","midi":70,"time":107.99999999999997,"velocity":0.4251968503937008,"duration":0.27031250000000284},{"name":"C2","midi":36,"time":108.18749999999999,"velocity":0.5984251968503937,"duration":0.046875},{"name":"F#2","midi":42,"time":108.18749999999999,"velocity":0.4330708661417323,"duration":0.060937499999994316},{"name":"A#4","midi":70,"time":108.18749999999999,"velocity":0.4645669291338583,"duration":0.26093749999999716},{"name":"A#4","midi":70,"time":108.37499999999999,"velocity":0.8503937007874016,"duration":0.2640625000000085},{"name":"A#2","midi":46,"time":108.37499999999999,"velocity":0.6299212598425197,"duration":0.21562500000000284},{"name":"C2","midi":36,"time":108.37499999999999,"velocity":0.7795275590551181,"duration":0.23906250000000284},{"name":"A4","midi":69,"time":108.37499999999999,"velocity":0.3779527559055118,"duration":0.10625000000000284},{"name":"F3","midi":53,"time":108.37499999999999,"velocity":0.5039370078740157,"duration":0.37968750000001705},{"name":"A#4","midi":70,"time":108.56249999999999,"velocity":0.8267716535433071,"duration":0.25312500000001137},{"name":"A#4","midi":70,"time":108.56249999999999,"velocity":0.3779527559055118,"duration":0.3218750000000057},{"name":"A#1","midi":34,"time":108.75,"velocity":0.7559055118110236,"duration":0.3765624999999915},{"name":"F#2","midi":42,"time":108.75,"velocity":0.5905511811023622,"duration":0.10312499999999147},{"name":"A#4","midi":70,"time":108.75,"velocity":0.4409448818897638,"duration":0.4921875},{"name":"D2","midi":38,"time":108.75,"velocity":0.9606299212598425,"duration":0.5093750000000057},{"name":"G3","midi":55,"time":108.75,"velocity":0.5984251968503937,"duration":0.6953125},{"name":"F#2","midi":42,"time":108.93749999999999,"velocity":0.4645669291338583,"duration":0.0703125},{"name":"A4","midi":69,"time":108.93749999999999,"velocity":0.3464566929133858,"duration":0.10625000000000284},{"name":"D#2","midi":39,"time":109.12499999999999,"velocity":0.7086614173228346,"duration":0.4281250000000085},{"name":"F#2","midi":42,"time":109.12499999999999,"velocity":0.5196850393700787,"duration":0.09218750000000853},{"name":"A#4","midi":70,"time":109.12499999999999,"velocity":0.4409448818897638,"duration":0.3593750000000142},{"name":"F#2","midi":42,"time":109.3125,"velocity":0.4094488188976378,"duration":0.08906249999999716},{"name":"A4","midi":69,"time":109.3125,"velocity":0.33070866141732286,"duration":0.09999999999999432},{"name":"D2","midi":38,"time":109.5,"velocity":0.8031496062992126,"duration":0.8578124999999801},{"name":"D3","midi":50,"time":109.5,"velocity":0.5511811023622047,"duration":0.7218749999999687},{"name":"D2","midi":38,"time":109.5,"velocity":0.6141732283464567,"duration":1.049999999999983},{"name":"D4","midi":62,"time":109.5,"velocity":0.5826771653543307,"duration":1.4703125000000057},{"name":"A#3","midi":58,"time":109.5,"velocity":0.5354330708661418,"duration":1.53125},{"name":"F4","midi":65,"time":109.5,"velocity":0.6141732283464567,"duration":1.4812500000000028},{"name":"D#5","midi":75,"time":109.5,"velocity":0.8740157480314961,"duration":0.3828124999999716},{"name":"C2","midi":36,"time":109.5,"velocity":0.8740157480314961,"duration":0.31406249999997726},{"name":"F#2","midi":42,"time":109.5,"velocity":0.5748031496062992,"duration":0.11874999999999147},{"name":"A#4","midi":70,"time":109.5,"velocity":0.4566929133858268,"duration":0.11249999999999716},{"name":"D3","midi":50,"time":109.5,"velocity":0.5826771653543307,"duration":1.5546875},{"name":"D4","midi":62,"time":109.5,"velocity":0.5669291338582677,"duration":2.214062499999997},{"name":"A#3","midi":58,"time":109.5,"velocity":0.5669291338582677,"duration":2.182812499999997},{"name":"F4","midi":65,"time":109.5,"velocity":0.6614173228346457,"duration":2.1859374999999943},{"name":"F#2","midi":42,"time":109.68749999999999,"velocity":0.3464566929133858,"duration":0.07343749999999716},{"name":"A#4","midi":70,"time":109.68749999999999,"velocity":0.3543307086614173,"duration":0.08749999999999147},{"name":"F5","midi":77,"time":109.87499999999997,"velocity":0.8031496062992126,"duration":0.36249999999999716},{"name":"F#2","midi":42,"time":109.87499999999997,"velocity":0.5511811023622047,"duration":0.09531250000000568},{"name":"A4","midi":69,"time":109.87499999999997,"velocity":0.41732283464566927,"duration":0.11406250000000284},{"name":"F#2","midi":42,"time":110.06249999999997,"velocity":0.30708661417322836,"duration":0.056250000000005684},{"name":"A#4","midi":70,"time":110.06249999999997,"velocity":0.33070866141732286,"duration":0.08281250000000284},{"name":"C2","midi":36,"time":110.24999999999997,"velocity":0.5039370078740157,"duration":0.3906250000000142},{"name":"D#5","midi":75,"time":110.24999999999997,"velocity":0.7795275590551181,"duration":0.41250000000002274},{"name":"F#2","midi":42,"time":110.24999999999997,"velocity":0.5905511811023622,"duration":0.10312500000000568},{"name":"A#4","midi":70,"time":110.24999999999997,"velocity":0.3779527559055118,"duration":0.11718750000001421},{"name":"D2","midi":38,"time":110.24999999999997,"velocity":0.984251968503937,"duration":1.5281250000000313},{"name":"C3","midi":48,"time":110.24999999999997,"velocity":0.4251968503937008,"duration":0.40312500000001705},{"name":"F#2","midi":42,"time":110.43749999999999,"velocity":0.4645669291338583,"duration":0.0703125},{"name":"A4","midi":69,"time":110.43749999999999,"velocity":0.4015748031496063,"duration":0.1015625},{"name":"D2","midi":38,"time":110.62499999999999,"velocity":0.6850393700787402,"duration":1.5000000000000284},{"name":"A#4","midi":70,"time":110.62499999999999,"velocity":0.8031496062992126,"duration":0.1406250000000142},{"name":"F#2","midi":42,"time":110.62499999999999,"velocity":0.5196850393700787,"duration":0.09218750000000853},{"name":"A#4","midi":70,"time":110.62499999999999,"velocity":0.4409448818897638,"duration":0.4765625000000142},{"name":"D3","midi":50,"time":110.62499999999999,"velocity":0.5826771653543307,"duration":0.7796874999999943},{"name":"F#2","midi":42,"time":110.8125,"velocity":0.4094488188976378,"duration":0.08906250000001137},{"name":"A4","midi":69,"time":110.8125,"velocity":0.3543307086614173,"duration":0.08750000000000568},{"name":"F#2","midi":42,"time":111,"velocity":0.5905511811023622,"duration":0.07968750000000568},{"name":"A#4","midi":70,"time":111,"velocity":0.4409448818897638,"duration":0.13906249999999432},{"name":"F#2","midi":42,"time":111.1875,"velocity":0.4330708661417323,"duration":0.060937499999994316},{"name":"A4","midi":69,"time":111.1875,"velocity":0.31496062992125984,"duration":0.11093749999999147},{"name":"A#4","midi":70,"time":111.37499999999999,"velocity":0.8976377952755905,"duration":0.14374999999999716},{"name":"A#2","midi":46,"time":111.37499999999999,"velocity":0.6299212598425197,"duration":0.21562500000000284},{"name":"C2","midi":36,"time":111.37499999999999,"velocity":0.8740157480314961,"duration":0.27031250000000284},{"name":"A#4","midi":70,"time":111.37499999999999,"velocity":0.41732283464566927,"duration":0.5421875000000256},{"name":"C3","midi":48,"time":111.37499999999999,"velocity":0.1732283464566929,"duration":0.35625000000001705},{"name":"A4","midi":69,"time":111.56249999999999,"velocity":0.31496062992125984,"duration":0.11093750000000568},{"name":"A#1","midi":34,"time":111.75,"velocity":0.6850393700787402,"duration":0.3656250000000085},{"name":"F4","midi":65,"time":111.75,"velocity":0.6456692913385826,"duration":0.7453124999999972},{"name":"D4","midi":62,"time":111.75,"velocity":0.6299212598425197,"duration":0.7328124999999943},{"name":"A#3","midi":58,"time":111.75,"velocity":0.6299212598425197,"duration":0.7328124999999943},{"name":"F#2","midi":42,"time":111.75,"velocity":0.5905511811023622,"duration":0.10312500000000568},{"name":"A#4","midi":70,"time":111.75,"velocity":0.5196850393700787,"duration":0.4390625000000057},{"name":"D2","midi":38,"time":111.75,"velocity":0.9291338582677166,"duration":0.4156250000000057},{"name":"D3","midi":50,"time":111.75,"velocity":0.5984251968503937,"duration":0.4125000000000085},{"name":"F#2","midi":42,"time":111.93750000000001,"velocity":0.4645669291338583,"duration":0.0703125},{"name":"A4","midi":69,"time":111.93750000000001,"velocity":0.2204724409448819,"duration":0.08437499999999432},{"name":"D2","midi":38,"time":112.12500000000001,"velocity":0.6141732283464567,"duration":0.33906249999998295},{"name":"F#2","midi":42,"time":112.12500000000001,"velocity":0.5196850393700787,"duration":0.09218749999999432},{"name":"A#4","midi":70,"time":112.12500000000001,"velocity":0.41732283464566927,"duration":0.13749999999998863},{"name":"A#2","midi":46,"time":112.12500000000001,"velocity":0.2677165354330709,"duration":0.33281249999998863},{"name":"F#2","midi":42,"time":112.3125,"velocity":0.4094488188976378,"duration":0.08906249999999716},{"name":"A4","midi":69,"time":112.3125,"velocity":0.23622047244094488,"duration":0.09687499999999716},{"name":"C2","midi":36,"time":112.5,"velocity":0.8267716535433071,"duration":0.5843749999999943},{"name":"C3","midi":48,"time":112.5,"velocity":0.3228346456692913,"duration":1.5843749999999943},{"name":"C4","midi":60,"time":112.5,"velocity":0.5511811023622047,"duration":1.3218749999999915},{"name":"D#4","midi":63,"time":112.5,"velocity":0.5826771653543307,"duration":0.7624999999999744},{"name":"G3","midi":55,"time":112.5,"velocity":0.5196850393700787,"duration":1.8687499999999773},{"name":"D#5","midi":75,"time":112.5,"velocity":0.8740157480314961,"duration":0.28593750000000284},{"name":"C2","midi":36,"time":112.5,"velocity":0.8503937007874016,"duration":1.7343749999999858},{"name":"F#2","midi":42,"time":112.5,"velocity":0.5748031496062992,"duration":0.11875000000000568},{"name":"A#4","midi":70,"time":112.5,"velocity":0.48031496062992124,"duration":0.15781250000000568},{"name":"D#3","midi":51,"time":112.5,"velocity":0.5039370078740157,"duration":0.3343749999999943},{"name":"D#4","midi":63,"time":112.5,"velocity":0.5984251968503937,"duration":1.5281249999999886},{"name":"C4","midi":60,"time":112.5,"velocity":0.6456692913385826,"duration":1.7703124999999886},{"name":"C5","midi":72,"time":112.5,"velocity":0.3858267716535433,"duration":2.60624999999996},{"name":"D#5","midi":75,"time":112.5,"velocity":0.44881889763779526,"duration":0.7671874999999773},{"name":"F#2","midi":42,"time":112.6875,"velocity":0.3464566929133858,"duration":0.07343749999999716},{"name":"A4","midi":69,"time":112.6875,"velocity":0.23622047244094488,"duration":0.10468749999999716},{"name":"D#5","midi":75,"time":112.875,"velocity":0.8503937007874016,"duration":1.4234374999999773},{"name":"F#2","midi":42,"time":112.875,"velocity":0.5511811023622047,"duration":0.09531250000000568},{"name":"A#4","midi":70,"time":112.875,"velocity":0.4015748031496063,"duration":0.13125000000000853},{"name":"D#3","midi":51,"time":112.875,"velocity":0.5196850393700787,"duration":0.3640624999999744},{"name":"F#2","midi":42,"time":113.0625,"velocity":0.30708661417322836,"duration":0.056249999999991473},{"name":"A4","midi":69,"time":113.0625,"velocity":0.33858267716535434,"duration":0.09374999999998579},{"name":"F5","midi":77,"time":113.24999999999997,"velocity":0.8267716535433071,"duration":0.3046875},{"name":"F#2","midi":42,"time":113.24999999999997,"velocity":0.5905511811023622,"duration":0.1031250000000199},{"name":"A#4","midi":70,"time":113.24999999999997,"velocity":0.29133858267716534,"duration":0.1265625000000199},{"name":"D2","midi":38,"time":113.24999999999997,"velocity":0.9291338582677166,"duration":0.5046875000000028},{"name":"F3","midi":53,"time":113.24999999999997,"velocity":0.5511811023622047,"duration":0.39531249999998863},{"name":"D4","midi":62,"time":113.24999999999997,"velocity":0.5511811023622047,"duration":0.40312499999998863},{"name":"F#2","midi":42,"time":113.43749999999999,"velocity":0.4645669291338583,"duration":0.07031249999998579},{"name":"A4","midi":69,"time":113.43749999999999,"velocity":0.2755905511811024,"duration":0.1078124999999801},{"name":"F5","midi":77,"time":113.62499999999996,"velocity":0.8267716535433071,"duration":0.38125000000002274},{"name":"F#2","midi":42,"time":113.62499999999996,"velocity":0.5196850393700787,"duration":0.09218750000000853},{"name":"A#4","midi":70,"time":113.62499999999996,"velocity":0.33070866141732286,"duration":0.15156250000002558},{"name":"G3","midi":55,"time":113.62499999999996,"velocity":0.5669291338582677,"duration":1.7328125000000085},{"name":"D#4","midi":63,"time":113.62499999999996,"velocity":0.44881889763779526,"duration":0.6750000000000256},{"name":"F#2","midi":42,"time":113.81249999999999,"velocity":0.4094488188976378,"duration":0.08906249999999716},{"name":"A4","midi":69,"time":113.81249999999999,"velocity":0.3937007874015748,"duration":0.09531250000000568},{"name":"D#5","midi":75,"time":113.99999999999999,"velocity":0.8267716535433071,"duration":0.6609374999999744},{"name":"F#2","midi":42,"time":113.99999999999999,"velocity":0.5905511811023622,"duration":0.07968750000000568},{"name":"A#4","midi":70,"time":113.99999999999999,"velocity":0.3464566929133858,"duration":0.13437500000000568},{"name":"D#4","midi":63,"time":113.99999999999999,"velocity":0.5669291338582677,"duration":0.5156249999999716},{"name":"C2","midi":36,"time":114.18749999999999,"velocity":0.5984251968503937,"duration":0.4265624999999744},{"name":"F#2","midi":42,"time":114.18749999999999,"velocity":0.4330708661417323,"duration":0.060937500000008527},{"name":"A4","midi":69,"time":114.18749999999999,"velocity":0.28346456692913385,"duration":0.09999999999999432},{"name":"D4","midi":62,"time":114.37499999999997,"velocity":0.5039370078740157,"duration":0.7843749999999972},{"name":"D#5","midi":75,"time":114.37499999999997,"velocity":0.8503937007874016,"duration":0.6874999999999858},{"name":"A#2","midi":46,"time":114.37499999999997,"velocity":0.6299212598425197,"duration":0.21562499999998863},{"name":"C2","midi":36,"time":114.37499999999997,"velocity":0.7795275590551181,"duration":0.3125},{"name":"A#4","midi":70,"time":114.37499999999997,"velocity":0.4251968503937008,"duration":0.1390624999999801},{"name":"F3","midi":53,"time":114.37499999999997,"velocity":0.4881889763779528,"duration":0.35468749999999716},{"name":"F4","midi":65,"time":114.37499999999997,"velocity":0.6141732283464567,"duration":0.5374999999999943},{"name":"A4","midi":69,"time":114.56249999999996,"velocity":0.2204724409448819,"duration":0.07968750000000568},{"name":"C2","midi":36,"time":114.74999999999997,"velocity":0.6614173228346457,"duration":0.4046874999999943},{"name":"D#5","midi":75,"time":114.74999999999997,"velocity":0.8267716535433071,"duration":0.3531249999999915},{"name":"F#2","midi":42,"time":114.74999999999997,"velocity":0.5905511811023622,"duration":0.10312499999999147},{"name":"A#4","midi":70,"time":114.74999999999997,"velocity":0.4645669291338583,"duration":0.14374999999999716},{"name":"D2","midi":38,"time":114.74999999999997,"velocity":0.9606299212598425,"duration":0.5093750000000057},{"name":"G3","midi":55,"time":114.74999999999997,"velocity":0.5511811023622047,"duration":0.8656249999999801},{"name":"F#2","midi":42,"time":114.93749999999996,"velocity":0.4645669291338583,"duration":0.0703125},{"name":"A4","midi":69,"time":114.93749999999996,"velocity":0.25196850393700787,"duration":0.08750000000000568},{"name":"G1","midi":31,"time":115.12499999999996,"velocity":0.6850393700787402,"duration":0.3687499999999915},{"name":"C4","midi":60,"time":115.12499999999996,"velocity":0.4566929133858268,"duration":0.49531249999999716},{"name":"D#4","midi":63,"time":115.12499999999996,"velocity":0.5511811023622047,"duration":0.5187499999999972},{"name":"C3","midi":48,"time":115.12499999999996,"velocity":0.23622047244094488,"duration":0.4453124999999858},{"name":"A#5","midi":82,"time":115.12499999999996,"velocity":0.8503937007874016,"duration":0.609375},{"name":"F#2","midi":42,"time":115.12499999999996,"velocity":0.5196850393700787,"duration":0.09218750000000853},{"name":"A#4","midi":70,"time":115.12499999999996,"velocity":0.4251968503937008,"duration":0.1250000000000142},{"name":"G4","midi":67,"time":115.12499999999996,"velocity":0.6299212598425197,"duration":0.23281250000000853},{"name":"F#2","midi":42,"time":115.31249999999997,"velocity":0.4094488188976378,"duration":0.08906249999998295},{"name":"A4","midi":69,"time":115.31249999999997,"velocity":0.3464566929133858,"duration":0.10312499999997726},{"name":"C2","midi":36,"time":115.49999999999994,"velocity":0.8031496062992126,"duration":0.5843750000000085},{"name":"G3","midi":55,"time":115.49999999999994,"velocity":0.3464566929133858,"duration":0.3437500000000142},{"name":"D#4","midi":63,"time":115.49999999999994,"velocity":0.48031496062992124,"duration":1.4578125000000313},{"name":"C4","midi":60,"time":115.49999999999994,"velocity":0.4094488188976378,"duration":1.821875000000034},{"name":"C2","midi":36,"time":115.49999999999994,"velocity":0.8503937007874016,"duration":1.428125000000037},{"name":"F#2","midi":42,"time":115.49999999999994,"velocity":0.5905511811023622,"duration":0.1328125000000142},{"name":"A#4","midi":70,"time":115.49999999999994,"velocity":0.41732283464566927,"duration":0.10312500000000568},{"name":"G3","midi":55,"time":115.49999999999994,"velocity":0.5826771653543307,"duration":0.7656250000000142},{"name":"C4","midi":60,"time":115.49999999999994,"velocity":0.3543307086614173,"duration":1.9453125000000284},{"name":"D#4","midi":63,"time":115.49999999999994,"velocity":0.3543307086614173,"duration":1.8281250000000284},{"name":"F#2","midi":42,"time":115.68749999999996,"velocity":0.3464566929133858,"duration":0.053124999999994316},{"name":"A#4","midi":70,"time":115.68749999999996,"velocity":0.4251968503937008,"duration":0.12343749999999432},{"name":"A#5","midi":82,"time":115.87499999999996,"velocity":0.8503937007874016,"duration":0.29218749999999716},{"name":"F#2","midi":42,"time":115.87499999999996,"velocity":0.5196850393700787,"duration":0.1015625},{"name":"A4","midi":69,"time":115.87499999999996,"velocity":0.33070866141732286,"duration":0.09999999999999432},{"name":"G3","midi":55,"time":115.87499999999996,"velocity":0.5984251968503937,"duration":1.0921875000000227},{"name":"F#2","midi":42,"time":116.06249999999996,"velocity":0.3543307086614173,"duration":0.045312499999994316},{"name":"A#4","midi":70,"time":116.06249999999996,"velocity":0.4015748031496063,"duration":0.08749999999999147},{"name":"A#5","midi":82,"time":116.24999999999996,"velocity":0.8503937007874016,"duration":0.3906250000000142},{"name":"F#2","midi":42,"time":116.24999999999996,"velocity":0.5905511811023622,"duration":0.09531250000000568},{"name":"A#4","midi":70,"time":116.24999999999996,"velocity":0.41732283464566927,"duration":0.15000000000000568},{"name":"D2","midi":38,"time":116.24999999999996,"velocity":0.9291338582677166,"duration":0.504687500000017},{"name":"F3","midi":53,"time":116.24999999999996,"velocity":0.5511811023622047,"duration":0.3500000000000085},{"name":"F#2","midi":42,"time":116.43749999999996,"velocity":0.3543307086614173,"duration":0.06406250000000568},{"name":"A4","midi":69,"time":116.43749999999996,"velocity":0.3779527559055118,"duration":0.06718750000000284},{"name":"D#5","midi":75,"time":116.62499999999997,"velocity":0.8267716535433071,"duration":0.6796875},{"name":"F#2","midi":42,"time":116.62499999999997,"velocity":0.44881889763779526,"duration":0.10312500000000568},{"name":"A#4","midi":70,"time":116.62499999999997,"velocity":0.3937007874015748,"duration":0.1015625},{"name":"G3","midi":55,"time":116.62499999999997,"velocity":0.5039370078740157,"duration":0.6062500000000028},{"name":"C2","midi":36,"time":116.81249999999997,"velocity":0.8267716535433071,"duration":0.421875},{"name":"F#2","midi":42,"time":116.81249999999997,"velocity":0.3779527559055118,"duration":0.05937500000000284},{"name":"A#4","midi":70,"time":116.81249999999997,"velocity":0.48031496062992124,"duration":0.09531250000000568},{"name":"F#2","midi":42,"time":116.99999999999999,"velocity":0.6141732283464567,"duration":0.07656249999999432},{"name":"A#4","midi":70,"time":116.99999999999999,"velocity":0.4251968503937008,"duration":0.12656249999999147},{"name":"D#3","midi":51,"time":116.99999999999999,"velocity":0.48031496062992124,"duration":0.36406249999998863},{"name":"C2","midi":36,"time":117.18749999999997,"velocity":0.5984251968503937,"duration":0.42656250000000284},{"name":"F#2","midi":42,"time":117.18749999999997,"velocity":0.4330708661417323,"duration":0.0546875},{"name":"A4","midi":69,"time":117.18749999999997,"velocity":0.2755905511811024,"duration":0.07968750000000568},{"name":"F3","midi":53,"time":117.37499999999997,"velocity":0.44881889763779526,"duration":0.43437500000001705},{"name":"F4","midi":65,"time":117.37499999999997,"velocity":0.44881889763779526,"duration":0.5812500000000114},{"name":"C2","midi":36,"time":117.37499999999997,"velocity":0.7795275590551181,"duration":0.7531250000000114},{"name":"A#2","midi":46,"time":117.37499999999997,"velocity":0.8740157480314961,"duration":0.3421875000000085},{"name":"A#4","midi":70,"time":117.37499999999997,"velocity":0.41732283464566927,"duration":0.09375},{"name":"F3","midi":53,"time":117.37499999999997,"velocity":0.5354330708661418,"duration":0.5859375000000142},{"name":"F4","midi":65,"time":117.37499999999997,"velocity":0.7086614173228346,"duration":0.5812500000000114},{"name":"A4","midi":69,"time":117.56249999999997,"velocity":0.28346456692913385,"duration":0.09062500000000284},{"name":"F#2","midi":42,"time":117.74999999999999,"velocity":0.3858267716535433,"duration":0.09687499999999716},{"name":"A#4","midi":70,"time":117.74999999999999,"velocity":0.48031496062992124,"duration":0.09687499999999716},{"name":"D2","midi":38,"time":117.74999999999999,"velocity":0.9133858267716536,"duration":0.1015625},{"name":"G3","midi":55,"time":117.93749999999999,"velocity":0.5039370078740157,"duration":0.390625},{"name":"G4","midi":67,"time":117.93749999999999,"velocity":0.5039370078740157,"duration":0.3765625000000057},{"name":"A#2","midi":46,"time":117.93749999999999,"velocity":0.5275590551181102,"duration":0.07968750000000568},{"name":"A#4","midi":70,"time":117.93749999999999,"velocity":0.48031496062992124,"duration":0.12187500000000284},{"name":"D2","midi":38,"time":117.93749999999999,"velocity":0.7244094488188977,"duration":0.1015625},{"name":"G3","midi":55,"time":117.93749999999999,"velocity":0.5669291338582677,"duration":0.4437499999999943},{"name":"G4","midi":67,"time":117.93749999999999,"velocity":0.7322834645669292,"duration":0.3984375},{"name":"G1","midi":31,"time":118.12499999999999,"velocity":0.7322834645669292,"duration":0.4078124999999915},{"name":"A#2","midi":46,"time":118.12499999999999,"velocity":0.5039370078740157,"duration":0.09687499999999716},{"name":"A2","midi":45,"time":118.12499999999999,"velocity":0.7322834645669292,"duration":0.15312500000000284},{"name":"A4","midi":69,"time":118.12499999999999,"velocity":0.3779527559055118,"duration":0.09531249999999147},{"name":"A#2","midi":46,"time":118.31249999999999,"velocity":0.4566929133858268,"duration":0.07968749999999147},{"name":"G2","midi":43,"time":118.31249999999999,"velocity":0.6614173228346457,"duration":0.12812499999998295},{"name":"A#4","midi":70,"time":118.31249999999999,"velocity":0.4409448818897638,"duration":0.09374999999998579},{"name":"G#1","midi":32,"time":118.49999999999997,"velocity":0.8740157480314961,"duration":1.1781250000000085},{"name":"D#3","midi":51,"time":118.49999999999997,"velocity":0.7086614173228346,"duration":0.6328125},{"name":"G#3","midi":56,"time":118.49999999999997,"velocity":0.5984251968503937,"duration":0.5515625000000028},{"name":"G#2","midi":44,"time":118.49999999999997,"velocity":0.7086614173228346,"duration":1.262500000000017},{"name":"C4","midi":60,"time":118.49999999999997,"velocity":0.6456692913385826,"duration":0.7374999999999972},{"name":"D#4","midi":63,"time":118.49999999999997,"velocity":0.6614173228346457,"duration":0.2906250000000057},{"name":"G#3","midi":56,"time":118.49999999999997,"velocity":0.3700787401574803,"duration":0.7374999999999972},{"name":"C4","midi":60,"time":118.49999999999997,"velocity":0.4645669291338583,"duration":1.0359375000000028},{"name":"C5","midi":72,"time":118.49999999999997,"velocity":0.6299212598425197,"duration":1.5781250000000284},{"name":"D#4","midi":63,"time":118.49999999999997,"velocity":0.6141732283464567,"duration":0.7374999999999972},{"name":"D#4","midi":63,"time":118.49999999999997,"velocity":0.6614173228346457,"duration":1.0546875},{"name":"C#3","midi":49,"time":118.49999999999997,"velocity":0.7086614173228346,"duration":0.08437500000000853},{"name":"F#3","midi":54,"time":118.49999999999997,"velocity":0.6771653543307087,"duration":0.07968750000000568},{"name":"A4","midi":69,"time":118.49999999999997,"velocity":0.4015748031496063,"duration":0.1250000000000142},{"name":"C2","midi":36,"time":118.49999999999997,"velocity":0.9212598425196851,"duration":0.5453125000000085},{"name":"C4","midi":60,"time":118.49999999999997,"velocity":0.7086614173228346,"duration":1.22812500000002},{"name":"G#3","midi":56,"time":118.49999999999997,"velocity":0.7795275590551181,"duration":0.953125},{"name":"D#4","midi":63,"time":118.49999999999997,"velocity":0.7086614173228346,"duration":1.2421875000000142},{"name":"D#4","midi":63,"time":118.49999999999997,"velocity":0.6614173228346457,"duration":1.4343750000000313},{"name":"F#3","midi":54,"time":118.68749999999999,"velocity":0.18110236220472442,"duration":0.053124999999994316},{"name":"A#4","midi":70,"time":118.68749999999999,"velocity":0.4251968503937008,"duration":0.14531249999998863},{"name":"F#2","midi":42,"time":118.68749999999999,"velocity":0.4645669291338583,"duration":0.046875},{"name":"D#4","midi":63,"time":118.87499999999997,"velocity":0.6456692913385826,"duration":1.2578125000000426},{"name":"D#5","midi":75,"time":118.87499999999997,"velocity":0.8740157480314961,"duration":0.3515625},{"name":"F#3","midi":54,"time":118.87499999999997,"velocity":0.3543307086614173,"duration":0.09218750000000853},{"name":"A4","midi":69,"time":118.87499999999997,"velocity":0.3464566929133858,"duration":0.11406250000000284},{"name":"F#2","midi":42,"time":118.87499999999997,"velocity":0.4330708661417323,"duration":0.07187500000000568},{"name":"D#4","midi":63,"time":118.87499999999997,"velocity":0.6614173228346457,"duration":1.2578125000000426},{"name":"C4","midi":60,"time":118.87499999999997,"velocity":0.6850393700787402,"duration":1.068750000000037},{"name":"A#4","midi":70,"time":118.87499999999997,"velocity":0.7559055118110236,"duration":0.34687499999999716},{"name":"G#3","midi":56,"time":118.87499999999997,"velocity":0.2440944881889764,"duration":0.879687500000017},{"name":"F#3","midi":54,"time":119.06249999999997,"velocity":0.29133858267716534,"duration":0.06874999999999432},{"name":"F#2","midi":42,"time":119.06249999999997,"velocity":0.33858267716535434,"duration":0.0390625},{"name":"A#4","midi":70,"time":119.06249999999997,"velocity":0.4409448818897638,"duration":0.36406250000000284},{"name":"A#5","midi":82,"time":119.24999999999997,"velocity":0.8267716535433071,"duration":0.2515625000000057},{"name":"F#3","midi":54,"time":119.24999999999997,"velocity":0.7007874015748031,"duration":0.08750000000000568},{"name":"A4","midi":69,"time":119.24999999999997,"velocity":0.25196850393700787,"duration":0.12343750000000853},{"name":"D2","midi":38,"time":119.24999999999997,"velocity":0.8976377952755905,"duration":0.4453125000000142},{"name":"F#2","midi":42,"time":119.24999999999997,"velocity":0.7086614173228346,"duration":0.11093750000000568},{"name":"G#3","midi":56,"time":119.24999999999997,"velocity":0.7795275590551181,"duration":0.7968750000000284},{"name":"D#4","midi":63,"time":119.24999999999997,"velocity":0.7559055118110236,"duration":0.9078125000000483},{"name":"G5","midi":79,"time":119.43749999999997,"velocity":0.7559055118110236,"duration":0.23125000000000284},{"name":"A#4","midi":70,"time":119.43749999999997,"velocity":0.41732283464566927,"duration":0.09531250000000568},{"name":"F#3","midi":54,"time":119.43749999999997,"velocity":0.2125984251968504,"duration":0.06875000000000853},{"name":"F#2","midi":42,"time":119.43749999999997,"velocity":0.4251968503937008,"duration":0.056250000000005684},{"name":"A#4","midi":70,"time":119.43749999999997,"velocity":0.5196850393700787,"duration":0.13750000000000284},{"name":"D#3","midi":51,"time":119.62499999999997,"velocity":0.3700787401574803,"duration":0.10781250000002274},{"name":"G#3","midi":56,"time":119.62499999999997,"velocity":0.4881889763779528,"duration":0.4468750000000341},{"name":"F#3","midi":54,"time":119.62499999999997,"velocity":0.5196850393700787,"duration":0.0953125000000199},{"name":"A4","midi":69,"time":119.62499999999997,"velocity":0.3543307086614173,"duration":0.1109375000000199},{"name":"F#2","midi":42,"time":119.62499999999997,"velocity":0.5984251968503937,"duration":0.09843750000001705},{"name":"D#4","midi":63,"time":119.62499999999997,"velocity":0.5984251968503937,"duration":0.5484375000000483},{"name":"C4","midi":60,"time":119.62499999999997,"velocity":0.5354330708661418,"duration":0.4078125000000341},{"name":"A#4","midi":70,"time":119.62499999999997,"velocity":0.6614173228346457,"duration":0.1343750000000199},{"name":"G#1","midi":32,"time":119.81249999999999,"velocity":0.5826771653543307,"duration":0.10625000000001705},{"name":"G5","midi":79,"time":119.81249999999999,"velocity":0.8267716535433071,"duration":0.3000000000000256},{"name":"F#2","midi":42,"time":119.81249999999999,"velocity":0.3858267716535433,"duration":0.048437500000005684},{"name":"A#4","midi":70,"time":119.81249999999999,"velocity":0.4015748031496063,"duration":0.13125000000002274},{"name":"F#3","midi":54,"time":119.81249999999999,"velocity":0.29133858267716534,"duration":0.05781250000001137},{"name":"G#3","midi":56,"time":119.81249999999999,"velocity":0.44881889763779526,"duration":0.3609375000000341},{"name":"A#1","midi":34,"time":120,"velocity":0.6850393700787402,"duration":0.3390625000000398},{"name":"A#3","midi":58,"time":120,"velocity":0.5354330708661418,"duration":0.27812500000003126},{"name":"F4","midi":65,"time":120,"velocity":0.48031496062992124,"duration":0.2687500000000256},{"name":"A#2","midi":46,"time":120,"velocity":0.7086614173228346,"duration":1.451562500000037},{"name":"D4","midi":62,"time":120,"velocity":0.6456692913385826,"duration":0.33437500000003695},{"name":"D#5","midi":75,"time":120,"velocity":0.8267716535433071,"duration":0.3484375000000455},{"name":"A#3","midi":58,"time":120,"velocity":0.4645669291338583,"duration":0.6156250000000227},{"name":"F3","midi":53,"time":120,"velocity":0.36220472440944884,"duration":1.5031250000000398},{"name":"A#4","midi":70,"time":120,"velocity":0.5826771653543307,"duration":0.3546875000000398},{"name":"D4","midi":62,"time":120,"velocity":0.48031496062992124,"duration":0.33593750000004263},{"name":"F#3","midi":54,"time":120,"velocity":0.5905511811023622,"duration":0.10000000000000853},{"name":"C2","midi":36,"time":120,"velocity":0.8267716535433071,"duration":0.22187500000002558},{"name":"A4","midi":69,"time":120,"velocity":0.25196850393700787,"duration":0.11406250000001705},{"name":"F#2","midi":42,"time":120,"velocity":0.8031496062992126,"duration":0.09062500000000284},{"name":"D4","midi":62,"time":120,"velocity":0.6141732283464567,"duration":0.5203125000000313},{"name":"F4","midi":65,"time":120,"velocity":0.5511811023622047,"duration":0.7390625000000313},{"name":"A#4","midi":70,"time":120,"velocity":0.6456692913385826,"duration":0.37343750000003695},{"name":"F#2","midi":42,"time":120.18750000000001,"velocity":0.3464566929133858,"duration":0.04218750000001137},{"name":"A#4","midi":70,"time":120.18750000000001,"velocity":0.3228346456692913,"duration":0.2593750000000341},{"name":"F#3","midi":54,"time":120.18750000000001,"velocity":0.31496062992125984,"duration":0.07343750000001137},{"name":"A#3","midi":58,"time":120.18750000000001,"velocity":0.6299212598425197,"duration":0.551562500000017},{"name":"D4","midi":62,"time":120.18750000000001,"velocity":0.6850393700787402,"duration":0.551562500000017},{"name":"F4","midi":65,"time":120.18750000000001,"velocity":0.6850393700787402,"duration":0.7281250000000199},{"name":"A#1","midi":34,"time":120.37500000000004,"velocity":0.7795275590551181,"duration":0.7406250000000085},{"name":"A#3","midi":58,"time":120.37500000000004,"velocity":0.5984251968503937,"duration":0.6421875000000057},{"name":"F4","midi":65,"time":120.37500000000004,"velocity":0.6614173228346457,"duration":0.926562500000017},{"name":"D4","midi":62,"time":120.37500000000004,"velocity":0.6850393700787402,"duration":0.5281249999999886},{"name":"C5","midi":72,"time":120.37500000000004,"velocity":0.5826771653543307,"duration":0.4390624999999915},{"name":"D#4","midi":63,"time":120.37500000000004,"velocity":0.44881889763779526,"duration":0.5359374999999886},{"name":"A4","midi":69,"time":120.37500000000004,"velocity":0.3464566929133858,"duration":0.11093749999999147},{"name":"F#2","midi":42,"time":120.37500000000004,"velocity":0.5826771653543307,"duration":0.09375},{"name":"C2","midi":36,"time":120.37500000000004,"velocity":0.8740157480314961,"duration":0.3031249999999801},{"name":"F#3","midi":54,"time":120.37500000000004,"velocity":0.5511811023622047,"duration":0.10468749999999716},{"name":"C5","midi":72,"time":120.37500000000004,"velocity":0.8031496062992126,"duration":0.5874999999999915},{"name":"D4","midi":62,"time":120.37500000000004,"velocity":0.7795275590551181,"duration":0.6906250000000114},{"name":"A#3","midi":58,"time":120.37500000000004,"velocity":0.48031496062992124,"duration":0.926562500000017},{"name":"F#2","midi":42,"time":120.56250000000003,"velocity":0.31496062992125984,"duration":0.05781249999999716},{"name":"F#3","midi":54,"time":120.56250000000003,"velocity":0.25984251968503935,"duration":0.06562499999999716},{"name":"A#4","midi":70,"time":120.56250000000003,"velocity":0.4015748031496063,"duration":0.15156249999999716},{"name":"D5","midi":74,"time":120.75000000000003,"velocity":0.5826771653543307,"duration":0.8437500000000284},{"name":"F4","midi":65,"time":120.75000000000003,"velocity":0.4330708661417323,"duration":0.7125000000000057},{"name":"A4","midi":69,"time":120.75000000000003,"velocity":0.25984251968503935,"duration":0.125},{"name":"D2","midi":38,"time":120.75000000000003,"velocity":0.8503937007874016,"duration":0.30312500000002274},{"name":"F#3","midi":54,"time":120.75000000000003,"velocity":0.5196850393700787,"duration":0.109375},{"name":"F#2","midi":42,"time":120.75000000000003,"velocity":0.7322834645669292,"duration":0.09843750000000284},{"name":"D4","midi":62,"time":120.75000000000003,"velocity":0.7086614173228346,"duration":0.5515625000000313},{"name":"F4","midi":65,"time":120.75000000000003,"velocity":0.6850393700787402,"duration":0.7421875},{"name":"A#3","midi":58,"time":120.75000000000003,"velocity":0.8267716535433071,"duration":0.7421875},{"name":"D#4","midi":63,"time":120.93750000000003,"velocity":0.5039370078740157,"duration":0.16875000000001705},{"name":"F#3","midi":54,"time":120.93750000000003,"velocity":0.2204724409448819,"duration":0.04218750000001137},{"name":"A#4","midi":70,"time":120.93750000000003,"velocity":0.33858267716535434,"duration":0.1343750000000199},{"name":"F#2","midi":42,"time":120.93750000000003,"velocity":0.33858267716535434,"duration":0.05156250000001705},{"name":"A#4","midi":70,"time":120.93750000000003,"velocity":0.7322834645669292,"duration":0.49687500000001705},{"name":"D4","midi":62,"time":120.93750000000003,"velocity":0.7559055118110236,"duration":0.5078125000000142},{"name":"D2","midi":38,"time":121.12500000000006,"velocity":0.8031496062992126,"duration":0.42499999999998295},{"name":"D4","midi":62,"time":121.12500000000006,"velocity":0.4251968503937008,"duration":0.3671874999999716},{"name":"F4","midi":65,"time":121.12500000000006,"velocity":0.7322834645669292,"duration":0.3984374999999858},{"name":"A#3","midi":58,"time":121.12500000000006,"velocity":0.5984251968503937,"duration":0.40312499999998863},{"name":"A4","midi":69,"time":121.12500000000006,"velocity":0.3779527559055118,"duration":0.09843750000000284},{"name":"F#3","midi":54,"time":121.12500000000006,"velocity":0.6141732283464567,"duration":0.09843750000000284},{"name":"F#2","midi":42,"time":121.12500000000006,"velocity":0.6614173228346457,"duration":0.0703125},{"name":"F#3","midi":54,"time":121.31250000000006,"velocity":0.14173228346456693,"duration":0.060937499999994316},{"name":"F#2","midi":42,"time":121.31250000000006,"velocity":0.4094488188976378,"duration":0.04374999999998863},{"name":"A#4","midi":70,"time":121.31250000000006,"velocity":0.4409448818897638,"duration":0.17187499999997158},{"name":"A#3","midi":58,"time":121.31250000000006,"velocity":0.4094488188976378,"duration":0.7234374999999886},{"name":"D4","midi":62,"time":121.31250000000006,"velocity":0.44881889763779526,"duration":0.18906249999997726},{"name":"F4","midi":65,"time":121.31250000000006,"velocity":0.3779527559055118,"duration":0.21249999999999147},{"name":"D#2","midi":39,"time":121.50000000000003,"velocity":0.8503937007874016,"duration":1.2109375000000284},{"name":"D#3","midi":51,"time":121.50000000000003,"velocity":0.5826771653543307,"duration":1.0812500000000256},{"name":"D#2","midi":39,"time":121.50000000000003,"velocity":0.6614173228346457,"duration":1.428125000000037},{"name":"D#4","midi":63,"time":121.50000000000003,"velocity":0.5984251968503937,"duration":0.060937500000008527},{"name":"G4","midi":67,"time":121.50000000000003,"velocity":0.6850393700787402,"duration":0.09218750000002274},{"name":"A#3","midi":58,"time":121.50000000000003,"velocity":0.6456692913385826,"duration":0.7375000000000114},{"name":"G3","midi":55,"time":121.50000000000003,"velocity":0.3779527559055118,"duration":1.8687500000000625},{"name":"D#5","midi":75,"time":121.50000000000003,"velocity":0.5196850393700787,"duration":0.7421875000000142},{"name":"G4","midi":67,"time":121.50000000000003,"velocity":0.3543307086614173,"duration":0.7375000000000114},{"name":"F#2","midi":42,"time":121.50000000000003,"velocity":0.8267716535433071,"duration":0.07343750000001137},{"name":"C2","midi":36,"time":121.50000000000003,"velocity":0.8740157480314961,"duration":0.3609375000000341},{"name":"A4","midi":69,"time":121.50000000000003,"velocity":0.2125984251968504,"duration":0.1343750000000341},{"name":"F#3","midi":54,"time":121.50000000000003,"velocity":0.6141732283464567,"duration":0.09375000000002842},{"name":"G4","midi":67,"time":121.50000000000003,"velocity":0.3464566929133858,"duration":1.0234375000000284},{"name":"D#4","midi":63,"time":121.50000000000003,"velocity":0.30708661417322836,"duration":0.3156250000000398},{"name":"D#4","midi":63,"time":121.50000000000003,"velocity":0.5354330708661418,"duration":0.7375000000000114},{"name":"A#3","midi":58,"time":121.50000000000003,"velocity":0.6614173228346457,"duration":1.3015625000000455},{"name":"G4","midi":67,"time":121.50000000000003,"velocity":0.7795275590551181,"duration":1.3015625000000455},{"name":"F#2","midi":42,"time":121.68750000000006,"velocity":0.4881889763779528,"duration":0.048437500000005684},{"name":"A#4","midi":70,"time":121.68750000000006,"velocity":0.3543307086614173,"duration":0.15000000000000568},{"name":"F#3","midi":54,"time":121.68750000000006,"velocity":0.33070866141732286,"duration":0.06562500000001137},{"name":"D#4","midi":63,"time":121.87500000000006,"velocity":0.4251968503937008,"duration":0.41718749999998295},{"name":"G3","midi":55,"time":121.87500000000006,"velocity":0.3858267716535433,"duration":2.4687500000000426},{"name":"D#5","midi":75,"time":121.87500000000006,"velocity":0.8740157480314961,"duration":1.431250000000034},{"name":"A4","midi":69,"time":121.87500000000006,"velocity":0.25984251968503935,"duration":0.10156249999998579},{"name":"F#3","midi":54,"time":121.87500000000006,"velocity":0.5354330708661418,"duration":0.09531249999999147},{"name":"F#2","midi":42,"time":121.87500000000006,"velocity":0.5354330708661418,"duration":0.07656249999999432},{"name":"G4","midi":67,"time":121.87500000000006,"velocity":0.6850393700787402,"duration":1.25937500000002},{"name":"A#4","midi":70,"time":121.87500000000006,"velocity":0.6850393700787402,"duration":0.3421874999999801},{"name":"D#4","midi":63,"time":121.87500000000006,"velocity":0.6614173228346457,"duration":0.6453125000000028},{"name":"A#3","midi":58,"time":121.87500000000006,"velocity":0.4645669291338583,"duration":1.2375000000000256},{"name":"F#2","midi":42,"time":122.06250000000004,"velocity":0.48031496062992124,"duration":0.04218749999999716},{"name":"A#4","midi":70,"time":122.06250000000004,"velocity":0.4251968503937008,"duration":0.44843750000001137},{"name":"F#3","midi":54,"time":122.06250000000004,"velocity":0.25984251968503935,"duration":0.060937499999994316},{"name":"A#5","midi":82,"time":122.25000000000004,"velocity":0.7795275590551181,"duration":0.25468750000001705},{"name":"A4","midi":69,"time":122.25000000000004,"velocity":0.30708661417322836,"duration":0.11562500000000853},{"name":"F#2","midi":42,"time":122.25000000000004,"velocity":0.7322834645669292,"duration":0.07500000000000284},{"name":"D2","midi":38,"time":122.25000000000004,"velocity":0.8976377952755905,"duration":0.3984375000000142},{"name":"F#3","midi":54,"time":122.25000000000004,"velocity":0.6141732283464567,"duration":0.10312500000000568},{"name":"D#4","midi":63,"time":122.25000000000004,"velocity":0.6456692913385826,"duration":0.5515625000000313},{"name":"G4","midi":67,"time":122.25000000000004,"velocity":0.7086614173228346,"duration":0.928125000000037},{"name":"A#3","midi":58,"time":122.25000000000004,"velocity":0.8031496062992126,"duration":0.928125000000037},{"name":"D#4","midi":63,"time":122.43750000000006,"velocity":0.5826771653543307,"duration":0.6937500000000227},{"name":"G5","midi":79,"time":122.43750000000006,"velocity":0.8031496062992126,"duration":0.22187499999999716},{"name":"F#2","midi":42,"time":122.43750000000006,"velocity":0.4566929133858268,"duration":0.046875},{"name":"F#3","midi":54,"time":122.43750000000006,"velocity":0.1889763779527559,"duration":0.07343749999999716},{"name":"A#4","midi":70,"time":122.43750000000006,"velocity":0.4015748031496063,"duration":0.1484375},{"name":"A4","midi":69,"time":122.62500000000006,"velocity":0.3464566929133858,"duration":0.09687500000001137},{"name":"F#2","midi":42,"time":122.62500000000006,"velocity":0.5196850393700787,"duration":0.08750000000000568},{"name":"F#3","midi":54,"time":122.62500000000006,"velocity":0.5039370078740157,"duration":0.12968750000001705},{"name":"G4","midi":67,"time":122.62500000000006,"velocity":0.6614173228346457,"duration":0.6437500000000398},{"name":"A#4","midi":70,"time":122.62500000000006,"velocity":0.7086614173228346,"duration":0.32500000000000284},{"name":"D#4","midi":63,"time":122.62500000000006,"velocity":0.6141732283464567,"duration":0.6031250000000341},{"name":"D#2","midi":39,"time":122.81250000000007,"velocity":0.5984251968503937,"duration":0.49062500000002274},{"name":"G5","midi":79,"time":122.81250000000007,"velocity":0.8267716535433071,"duration":0.3062500000000057},{"name":"C2","midi":36,"time":122.81250000000007,"velocity":0.8267716535433071,"duration":0.17812499999999432},{"name":"F#2","midi":42,"time":122.81250000000007,"velocity":0.4645669291338583,"duration":0.05781249999999716},{"name":"F#3","midi":54,"time":122.81250000000007,"velocity":0.2283464566929134,"duration":0.06406249999999147},{"name":"A#4","midi":70,"time":122.81250000000007,"velocity":0.4409448818897638,"duration":0.265625},{"name":"A#3","midi":58,"time":122.81250000000007,"velocity":0.5826771653543307,"duration":0.5546875000000142},{"name":"G4","midi":67,"time":122.81250000000007,"velocity":0.6456692913385826,"duration":0.5546875000000142},{"name":"D#2","midi":39,"time":123.00000000000007,"velocity":0.7322834645669292,"duration":1.142187500000034},{"name":"D#3","midi":51,"time":123.00000000000007,"velocity":0.28346456692913385,"duration":1.3828125000000284},{"name":"D#5","midi":75,"time":123.00000000000007,"velocity":0.7795275590551181,"duration":1.4453125000000284},{"name":"A4","midi":69,"time":123.00000000000007,"velocity":0.33070866141732286,"duration":0.09375},{"name":"F#3","midi":54,"time":123.00000000000007,"velocity":0.6535433070866141,"duration":0.10000000000000853},{"name":"F#2","midi":42,"time":123.00000000000007,"velocity":0.6850393700787402,"duration":0.09531250000000568},{"name":"F#3","midi":54,"time":123.18750000000009,"velocity":0.2047244094488189,"duration":0.040625000000005684},{"name":"F#2","midi":42,"time":123.18750000000009,"velocity":0.5039370078740157,"duration":0.05000000000001137},{"name":"A#4","midi":70,"time":123.18750000000009,"velocity":0.4251968503937008,"duration":0.13750000000000284},{"name":"G4","midi":67,"time":123.18750000000009,"velocity":0.3858267716535433,"duration":0.24843749999999432},{"name":"D#4","midi":63,"time":123.18750000000009,"velocity":0.29133858267716534,"duration":0.265625},{"name":"A#3","midi":58,"time":123.18750000000009,"velocity":0.5196850393700787,"duration":0.5531250000000085},{"name":"G4","midi":67,"time":123.18750000000009,"velocity":0.5039370078740157,"duration":0.5531250000000085},{"name":"D#2","midi":39,"time":123.37500000000009,"velocity":0.7795275590551181,"duration":1.0296875000000085},{"name":"F4","midi":65,"time":123.37500000000009,"velocity":0.7795275590551181,"duration":0.5609375000000085},{"name":"F3","midi":53,"time":123.37500000000009,"velocity":0.4015748031496063,"duration":0.5843750000000085},{"name":"F4","midi":65,"time":123.37500000000009,"velocity":0.7795275590551181,"duration":0.6218750000000028},{"name":"F#3","midi":54,"time":123.37500000000009,"velocity":0.6141732283464567,"duration":0.09375},{"name":"A#2","midi":46,"time":123.37500000000009,"velocity":0.7795275590551181,"duration":0.17343750000000568},{"name":"C2","midi":36,"time":123.37500000000009,"velocity":0.8976377952755905,"duration":0.19687500000000568},{"name":"A4","midi":69,"time":123.37500000000009,"velocity":0.3937007874015748,"duration":0.08750000000000568},{"name":"G4","midi":67,"time":123.37500000000009,"velocity":0.7322834645669292,"duration":0.6343750000000057},{"name":"D#4","midi":63,"time":123.37500000000009,"velocity":0.7086614173228346,"duration":0.6328125},{"name":"A#4","midi":70,"time":123.37500000000009,"velocity":0.7322834645669292,"duration":0.3296875000000057},{"name":"G4","midi":67,"time":123.37500000000009,"velocity":0.6299212598425197,"duration":1.0765625000000085},{"name":"A#3","midi":58,"time":123.37500000000009,"velocity":0.6850393700787402,"duration":1.0375000000000085},{"name":"F4","midi":65,"time":123.37500000000009,"velocity":0.7795275590551181,"duration":0.6218750000000028},{"name":"F#3","midi":54,"time":123.56250000000009,"velocity":0.2755905511811024,"duration":0.05781250000001137},{"name":"A#4","midi":70,"time":123.56250000000009,"velocity":0.4409448818897638,"duration":0.45781250000000284},{"name":"F#2","midi":42,"time":123.7500000000001,"velocity":0.5511811023622047,"duration":0.053124999999994316},{"name":"D2","midi":38,"time":123.7500000000001,"velocity":0.8976377952755905,"duration":0.3031249999999943},{"name":"F#3","midi":54,"time":123.7500000000001,"velocity":0.6141732283464567,"duration":0.09999999999999432},{"name":"A4","midi":69,"time":123.7500000000001,"velocity":0.3228346456692913,"duration":0.07656249999999432},{"name":"A#3","midi":58,"time":123.7500000000001,"velocity":0.7795275590551181,"duration":0.737499999999983},{"name":"G4","midi":67,"time":123.7500000000001,"velocity":0.7086614173228346,"duration":0.729687499999983},{"name":"G4","midi":67,"time":123.9375000000001,"velocity":0.7559055118110236,"duration":0.549999999999983},{"name":"G3","midi":55,"time":123.9375000000001,"velocity":0.4645669291338583,"duration":0.581249999999983},{"name":"G4","midi":67,"time":123.9375000000001,"velocity":0.6850393700787402,"duration":0.5859374999999858},{"name":"F#3","midi":54,"time":123.9375000000001,"velocity":0.2125984251968504,"duration":0.05937499999998863},{"name":"F#2","midi":42,"time":123.9375000000001,"velocity":0.4881889763779528,"duration":0.053124999999994316},{"name":"A#4","midi":70,"time":123.9375000000001,"velocity":0.3779527559055118,"duration":0.15156249999999716},{"name":"G4","midi":67,"time":123.9375000000001,"velocity":0.6850393700787402,"duration":0.6249999999999858},{"name":"A#1","midi":34,"time":124.1250000000001,"velocity":0.7559055118110236,"duration":0.4140624999999858},{"name":"A4","midi":69,"time":124.1250000000001,"velocity":0.41732283464566927,"duration":0.11093750000000568},{"name":"A#2","midi":46,"time":124.1250000000001,"velocity":0.7086614173228346,"duration":0.17343750000000568},{"name":"C2","midi":36,"time":124.1250000000001,"velocity":0.7086614173228346,"duration":0.08750000000000568},{"name":"F#3","midi":54,"time":124.1250000000001,"velocity":0.6141732283464567,"duration":0.10000000000000853},{"name":"G4","midi":67,"time":124.1250000000001,"velocity":0.6614173228346457,"duration":0.4374999999999858},{"name":"A#4","midi":70,"time":124.1250000000001,"velocity":0.5354330708661418,"duration":0.35468749999998295},{"name":"D#4","midi":63,"time":124.1250000000001,"velocity":0.6614173228346457,"duration":0.34843749999998863},{"name":"F#3","midi":54,"time":124.3125000000001,"velocity":0.23622047244094488,"duration":0.04999999999999716},{"name":"A#3","midi":58,"time":124.3125000000001,"velocity":0.4094488188976378,"duration":0.2406249999999801},{"name":"G#1","midi":32,"time":124.50000000000009,"velocity":0.8740157480314961,"duration":1.1781250000000085},{"name":"G#2","midi":44,"time":124.50000000000009,"velocity":0.6850393700787402,"duration":1.1703125000000085},{"name":"G#3","midi":56,"time":124.50000000000009,"velocity":0.6456692913385826,"duration":0.6046875000000256},{"name":"D#3","midi":51,"time":124.50000000000009,"velocity":0.6299212598425197,"duration":0.8218750000000199},{"name":"C4","midi":60,"time":124.50000000000009,"velocity":0.6456692913385826,"duration":0.3359375000000142},{"name":"C4","midi":60,"time":124.50000000000009,"velocity":0.44881889763779526,"duration":0.7375000000000114},{"name":"G#3","midi":56,"time":124.50000000000009,"velocity":0.3700787401574803,"duration":0.7375000000000114},{"name":"C5","midi":72,"time":124.50000000000009,"velocity":0.6141732283464567,"duration":1.6140625000000313},{"name":"D#4","midi":63,"time":124.50000000000009,"velocity":0.5826771653543307,"duration":0.7375000000000114},{"name":"D#4","midi":63,"time":124.50000000000009,"velocity":0.7322834645669292,"duration":1.2812500000000142},{"name":"A4","midi":69,"time":124.50000000000009,"velocity":0.4015748031496063,"duration":0.1250000000000142},{"name":"F#2","midi":42,"time":124.50000000000009,"velocity":0.8267716535433071,"duration":0.08281250000000284},{"name":"F#3","midi":54,"time":124.50000000000009,"velocity":0.7007874015748031,"duration":0.09218750000000853},{"name":"C2","midi":36,"time":124.50000000000009,"velocity":0.9212598425196851,"duration":0.5453125000000227},{"name":"C4","midi":60,"time":124.50000000000009,"velocity":0.3937007874015748,"duration":1.2953125000000227},{"name":"D#4","midi":63,"time":124.50000000000009,"velocity":0.4566929133858268,"duration":1.3187500000000227},{"name":"D#4","midi":63,"time":124.50000000000009,"velocity":0.6299212598425197,"duration":1.6125000000000256},{"name":"C4","midi":60,"time":124.50000000000009,"velocity":0.6614173228346457,"duration":1.40781250000002},{"name":"G#3","midi":56,"time":124.50000000000009,"velocity":0.8031496062992126,"duration":0.8890625000000227},{"name":"D#4","midi":63,"time":124.50000000000009,"velocity":0.7322834645669292,"duration":1.6125000000000256},{"name":"F#3","midi":54,"time":124.6875000000001,"velocity":0.2440944881889764,"duration":0.06562499999999716},{"name":"A#4","midi":70,"time":124.6875000000001,"velocity":0.4251968503937008,"duration":0.14531250000000284},{"name":"F#2","midi":42,"time":124.6875000000001,"velocity":0.6299212598425197,"duration":0.09375},{"name":"D#4","midi":63,"time":124.8750000000001,"velocity":0.6299212598425197,"duration":1.2500000000000142},{"name":"D#5","midi":75,"time":124.8750000000001,"velocity":0.9212598425196851,"duration":0.3359375},{"name":"F#2","midi":42,"time":124.8750000000001,"velocity":0.4645669291338583,"duration":0.09062500000000284},{"name":"F#3","midi":54,"time":124.8750000000001,"velocity":0.5511811023622047,"duration":0.10468749999999716},{"name":"A4","midi":69,"time":124.8750000000001,"velocity":0.3464566929133858,"duration":0.11406250000000284},{"name":"C4","midi":60,"time":124.8750000000001,"velocity":0.6614173228346457,"duration":1.0421875000000114},{"name":"A#4","midi":70,"time":124.8750000000001,"velocity":0.8031496062992126,"duration":0.34687499999999716},{"name":"G#3","midi":56,"time":124.8750000000001,"velocity":0.4330708661417323,"duration":0.9187500000000028},{"name":"F#3","midi":54,"time":125.06250000000011,"velocity":0.3858267716535433,"duration":0.056249999999991473},{"name":"F#2","midi":42,"time":125.06250000000011,"velocity":0.4645669291338583,"duration":0.053124999999994316},{"name":"A#4","midi":70,"time":125.06250000000011,"velocity":0.4409448818897638,"duration":0.34843749999998863},{"name":"A#5","midi":82,"time":125.2500000000001,"velocity":0.8740157480314961,"duration":0.2265625},{"name":"F#2","midi":42,"time":125.2500000000001,"velocity":0.8267716535433071,"duration":0.07968750000000568},{"name":"F#3","midi":54,"time":125.2500000000001,"velocity":0.6771653543307087,"duration":0.11093750000000568},{"name":"A4","midi":69,"time":125.2500000000001,"velocity":0.25196850393700787,"duration":0.12343750000000853},{"name":"D2","midi":38,"time":125.2500000000001,"velocity":0.8976377952755905,"duration":0.4453125},{"name":"G#3","midi":56,"time":125.2500000000001,"velocity":0.6299212598425197,"duration":0.7593750000000199},{"name":"C4","midi":60,"time":125.2500000000001,"velocity":0.7322834645669292,"duration":0.7656250000000142},{"name":"D#4","midi":63,"time":125.2500000000001,"velocity":0.7322834645669292,"duration":0.9234375000000199},{"name":"G5","midi":79,"time":125.4375000000001,"velocity":0.8031496062992126,"duration":0.2718750000000085},{"name":"F#3","midi":54,"time":125.4375000000001,"velocity":0.2677165354330709,"duration":0.056250000000005684},{"name":"A#4","midi":70,"time":125.4375000000001,"velocity":0.41732283464566927,"duration":0.13750000000000284},{"name":"F#2","midi":42,"time":125.4375000000001,"velocity":0.2677165354330709,"duration":0.0546875},{"name":"G#3","midi":56,"time":125.6250000000001,"velocity":0.3858267716535433,"duration":0.4203125000000085},{"name":"D#3","midi":51,"time":125.6250000000001,"velocity":0.4330708661417323,"duration":0.08281250000000284},{"name":"F#3","midi":54,"time":125.6250000000001,"velocity":0.5669291338582677,"duration":0.10000000000000853},{"name":"A4","midi":69,"time":125.6250000000001,"velocity":0.3543307086614173,"duration":0.11093750000000568},{"name":"F#2","midi":42,"time":125.6250000000001,"velocity":0.6456692913385826,"duration":0.07500000000000284},{"name":"A#4","midi":70,"time":125.6250000000001,"velocity":0.6850393700787402,"duration":0.31875000000002274},{"name":"G#1","midi":32,"time":125.81250000000011,"velocity":0.5826771653543307,"duration":0.10625000000000284},{"name":"G5","midi":79,"time":125.81250000000011,"velocity":0.8031496062992126,"duration":0.4984374999999943},{"name":"A#4","midi":70,"time":125.81250000000011,"velocity":0.4015748031496063,"duration":0.15781250000000568},{"name":"F#2","midi":42,"time":125.81250000000011,"velocity":0.4015748031496063,"duration":0.040624999999991473},{"name":"F#3","midi":54,"time":125.81250000000011,"velocity":0.33858267716535434,"duration":0.04687499999998579},{"name":"C4","midi":60,"time":125.81250000000011,"velocity":0.33070866141732286,"duration":0.3609375000000057},{"name":"G#3","midi":56,"time":125.81250000000011,"velocity":0.5039370078740157,"duration":0.3609375000000057},{"name":"A#1","midi":34,"time":126.00000000000011,"velocity":0.6850393700787402,"duration":0.33906249999998295},{"name":"A#2","midi":46,"time":126.00000000000011,"velocity":0.7322834645669292,"duration":0.49687499999998863},{"name":"F4","midi":65,"time":126.00000000000011,"velocity":0.5984251968503937,"duration":0.31718749999998863},{"name":"D4","midi":62,"time":126.00000000000011,"velocity":0.6456692913385826,"duration":0.36249999999998295},{"name":"A#3","midi":58,"time":126.00000000000011,"velocity":0.5354330708661418,"duration":0.3671874999999858},{"name":"A#3","midi":58,"time":126.00000000000011,"velocity":0.4409448818897638,"duration":0.7406249999999801},{"name":"F3","midi":53,"time":126.00000000000011,"velocity":0.33858267716535434,"duration":1.4109374999999886},{"name":"F5","midi":77,"time":126.00000000000011,"velocity":0.6614173228346457,"duration":1.22499999999998},{"name":"G#4","midi":68,"time":126.00000000000011,"velocity":0.48031496062992124,"duration":1.1968749999999773},{"name":"F#2","midi":42,"time":126.00000000000011,"velocity":0.7559055118110236,"duration":0.07343749999999716},{"name":"F#3","midi":54,"time":126.00000000000011,"velocity":0.6771653543307087,"duration":0.10468749999999716},{"name":"C2","midi":36,"time":126.00000000000011,"velocity":0.8267716535433071,"duration":0.22187499999999716},{"name":"A4","midi":69,"time":126.00000000000011,"velocity":0.25196850393700787,"duration":0.11406250000000284},{"name":"D4","midi":62,"time":126.00000000000011,"velocity":0.6614173228346457,"duration":0.3671874999999858},{"name":"F4","midi":65,"time":126.00000000000011,"velocity":0.7559055118110236,"duration":0.3671874999999858},{"name":"A#4","midi":70,"time":126.00000000000011,"velocity":0.6850393700787402,"duration":0.35468749999998295},{"name":"F#3","midi":54,"time":126.18750000000011,"velocity":0.33858267716535434,"duration":0.048437499999991473},{"name":"A#4","midi":70,"time":126.18750000000011,"velocity":0.3228346456692913,"duration":0.21249999999999147},{"name":"F#2","midi":42,"time":126.18750000000011,"velocity":0.5511811023622047,"duration":0.06406249999999147},{"name":"A#3","midi":58,"time":126.18750000000011,"velocity":0.4881889763779528,"duration":1.206249999999983},{"name":"D4","midi":62,"time":126.18750000000011,"velocity":0.6456692913385826,"duration":0.5531249999999801},{"name":"F4","midi":65,"time":126.18750000000011,"velocity":0.5511811023622047,"duration":0.5531249999999801},{"name":"A#1","midi":34,"time":126.3750000000001,"velocity":0.7795275590551181,"duration":0.7406249999999943},{"name":"F4","midi":65,"time":126.3750000000001,"velocity":0.7322834645669292,"duration":0.6796874999999858},{"name":"A#5","midi":82,"time":126.3750000000001,"velocity":0.8267716535433071,"duration":0.7437499999999915},{"name":"F4","midi":65,"time":126.3750000000001,"velocity":0.6850393700787402,"duration":1},{"name":"A#2","midi":46,"time":126.3750000000001,"velocity":0.7795275590551181,"duration":1.0359375000000028},{"name":"C2","midi":36,"time":126.3750000000001,"velocity":0.8740157480314961,"duration":0.3031249999999943},{"name":"A4","midi":69,"time":126.3750000000001,"velocity":0.3464566929133858,"duration":0.11093750000000568},{"name":"F#3","midi":54,"time":126.3750000000001,"velocity":0.6141732283464567,"duration":0.10625000000000284},{"name":"D4","midi":62,"time":126.3750000000001,"velocity":0.6850393700787402,"duration":0.5093749999999915},{"name":"C5","midi":72,"time":126.3750000000001,"velocity":0.7559055118110236,"duration":0.7374999999999972},{"name":"D4","midi":62,"time":126.3750000000001,"velocity":0.4566929133858268,"duration":0.6187499999999915},{"name":"A#3","midi":58,"time":126.3750000000001,"velocity":0.6141732283464567,"duration":1.0671875000000028},{"name":"F4","midi":65,"time":126.3750000000001,"velocity":0.5196850393700787,"duration":1.0249999999999915},{"name":"F4","midi":65,"time":126.3750000000001,"velocity":0.6850393700787402,"duration":1.0265624999999972},{"name":"A#4","midi":70,"time":126.5625000000001,"velocity":0.4015748031496063,"duration":0.15156249999999716},{"name":"F#3","midi":54,"time":126.5625000000001,"velocity":0.28346456692913385,"duration":0.04218749999999716},{"name":"F#3","midi":54,"time":126.7500000000001,"velocity":0.7165354330708661,"duration":0.10312499999999147},{"name":"D2","midi":38,"time":126.7500000000001,"velocity":0.8503937007874016,"duration":0.3031249999999801},{"name":"F#2","midi":42,"time":126.7500000000001,"velocity":0.5984251968503937,"duration":0.06562499999999716},{"name":"A4","midi":69,"time":126.7500000000001,"velocity":0.25984251968503935,"duration":0.12499999999998579},{"name":"D4","midi":62,"time":126.7500000000001,"velocity":0.7795275590551181,"duration":0.6687500000000028},{"name":"F4","midi":65,"time":126.7500000000001,"velocity":0.7086614173228346,"duration":0.6515624999999972},{"name":"A#3","midi":58,"time":126.7500000000001,"velocity":0.8740157480314961,"duration":0.7374999999999972},{"name":"A#4","midi":70,"time":126.93750000000009,"velocity":0.33858267716535434,"duration":0.13437500000000568},{"name":"F#3","midi":54,"time":126.93750000000009,"velocity":0.25984251968503935,"duration":0.0703125},{"name":"F#2","midi":42,"time":126.93750000000009,"velocity":0.48031496062992124,"duration":0.0546875},{"name":"D2","midi":38,"time":127.12500000000009,"velocity":0.8031496062992126,"duration":0.42500000000001137},{"name":"F3","midi":53,"time":127.12500000000009,"velocity":0.36220472440944884,"duration":0.37031250000001137},{"name":"D4","midi":62,"time":127.12500000000009,"velocity":0.4566929133858268,"duration":0.3140625000000199},{"name":"D#5","midi":75,"time":127.12500000000009,"velocity":0.8503937007874016,"duration":1.0374999999999943},{"name":"D5","midi":74,"time":127.12500000000009,"velocity":0.5511811023622047,"duration":0.45781250000000284},{"name":"F4","midi":65,"time":127.12500000000009,"velocity":0.5354330708661418,"duration":0.36250000000001137},{"name":"F#3","midi":54,"time":127.12500000000009,"velocity":0.6141732283464567,"duration":0.10156250000001421},{"name":"F#2","midi":42,"time":127.12500000000009,"velocity":0.7086614173228346,"duration":0.0703125},{"name":"A4","midi":69,"time":127.12500000000009,"velocity":0.3779527559055118,"duration":0.09843750000000284},{"name":"F4","midi":65,"time":127.12500000000009,"velocity":0.5039370078740157,"duration":0.4390625000000057},{"name":"A#4","midi":70,"time":127.12500000000009,"velocity":0.6456692913385826,"duration":0.3593750000000142},{"name":"D4","midi":62,"time":127.12500000000009,"velocity":0.5984251968503937,"duration":0.36250000000001137},{"name":"F#3","midi":54,"time":127.3125000000001,"velocity":0.2125984251968504,"duration":0.04999999999999716},{"name":"A#4","midi":70,"time":127.3125000000001,"velocity":0.4409448818897638,"duration":0.3437499999999858},{"name":"F#2","midi":42,"time":127.3125000000001,"velocity":0.5354330708661418,"duration":0.060937499999994316},{"name":"A#3","midi":58,"time":127.3125000000001,"velocity":0.2992125984251969,"duration":0.8390624999999687},{"name":"D#2","midi":39,"time":127.5000000000001,"velocity":0.8503937007874016,"duration":1.070312499999929},{"name":"G4","midi":67,"time":127.5000000000001,"velocity":0.7086614173228346,"duration":0.7374999999999687},{"name":"A#3","midi":58,"time":127.5000000000001,"velocity":0.6614173228346457,"duration":0.7374999999999687},{"name":"D#3","midi":51,"time":127.5000000000001,"velocity":0.5826771653543307,"duration":0.939062499999963},{"name":"D#4","midi":63,"time":127.5000000000001,"velocity":0.6299212598425197,"duration":0.5999999999999801},{"name":"D#2","midi":39,"time":127.5000000000001,"velocity":0.6850393700787402,"duration":1.4281249999999233},{"name":"G3","midi":55,"time":127.5000000000001,"velocity":0.44881889763779526,"duration":1.3624999999999403},{"name":"D#5","midi":75,"time":127.5000000000001,"velocity":0.6141732283464567,"duration":2.842187499999895},{"name":"G4","midi":67,"time":127.5000000000001,"velocity":0.5984251968503937,"duration":0.8359374999999574},{"name":"G4","midi":67,"time":127.5000000000001,"velocity":0.6456692913385826,"duration":1.5921874999999517},{"name":"C2","midi":36,"time":127.5000000000001,"velocity":0.9212598425196851,"duration":0.5015624999999915},{"name":"A4","midi":69,"time":127.5000000000001,"velocity":0.2125984251968504,"duration":0.13437499999999147},{"name":"F#2","midi":42,"time":127.5000000000001,"velocity":0.7795275590551181,"duration":0.08749999999999147},{"name":"F#3","midi":54,"time":127.5000000000001,"velocity":0.6771653543307087,"duration":0.09374999999998579},{"name":"A#3","midi":58,"time":127.5000000000001,"velocity":0.8031496062992126,"duration":1.590624999999946},{"name":"G4","midi":67,"time":127.5000000000001,"velocity":0.7086614173228346,"duration":1.6468749999999517},{"name":"D#4","midi":63,"time":127.5000000000001,"velocity":0.7086614173228346,"duration":0.7374999999999687},{"name":"G4","midi":67,"time":127.5000000000001,"velocity":0.6456692913385826,"duration":1.6468749999999517},{"name":"F#3","midi":54,"time":127.68750000000009,"velocity":0.2755905511811024,"duration":0.040625000000005684},{"name":"F#2","midi":42,"time":127.68750000000009,"velocity":0.5196850393700787,"duration":0.05000000000001137},{"name":"A#4","midi":70,"time":127.68750000000009,"velocity":0.3543307086614173,"duration":0.15000000000000568},{"name":"F#3","midi":54,"time":127.87500000000009,"velocity":0.5905511811023622,"duration":0.09375},{"name":"F#2","midi":42,"time":127.87500000000009,"velocity":0.6456692913385826,"duration":0.078125},{"name":"A4","midi":69,"time":127.87500000000009,"velocity":0.25984251968503935,"duration":0.1015625},{"name":"G4","midi":67,"time":127.87500000000009,"velocity":0.7086614173228346,"duration":1.2984374999999488},{"name":"A#4","midi":70,"time":127.87500000000009,"velocity":0.6850393700787402,"duration":0.3421874999999943},{"name":"D#4","midi":63,"time":127.87500000000009,"velocity":0.7086614173228346,"duration":0.44687499999997726},{"name":"A#3","midi":58,"time":127.87500000000009,"velocity":0.4645669291338583,"duration":1.2984374999999488},{"name":"F#3","midi":54,"time":128.06250000000009,"velocity":0.1968503937007874,"duration":0.06562499999998295},{"name":"A#4","midi":70,"time":128.06250000000009,"velocity":0.4251968503937008,"duration":0.4718749999999545},{"name":"F#2","midi":42,"time":128.06250000000009,"velocity":0.3464566929133858,"duration":0.04999999999998295},{"name":"D#4","midi":63,"time":128.25000000000006,"velocity":0.5196850393700787,"duration":0.589062499999983},{"name":"G3","midi":55,"time":128.25000000000006,"velocity":0.3464566929133858,"duration":0.901562499999983},{"name":"F#2","midi":42,"time":128.25000000000006,"velocity":0.7795275590551181,"duration":0.07968750000000568},{"name":"A4","midi":69,"time":128.25000000000006,"velocity":0.30708661417322836,"duration":0.11562499999999432},{"name":"F#3","midi":54,"time":128.25000000000006,"velocity":0.6535433070866141,"duration":0.09218749999999432},{"name":"D2","midi":38,"time":128.25000000000006,"velocity":0.8740157480314961,"duration":0.3499999999999659},{"name":"D#4","midi":63,"time":128.25000000000006,"velocity":0.5669291338582677,"duration":0.9234374999999773},{"name":"A#3","midi":58,"time":128.25000000000006,"velocity":0.8031496062992126,"duration":0.9281249999999659},{"name":"G4","midi":67,"time":128.25000000000006,"velocity":0.7322834645669292,"duration":1.1171875},{"name":"F#3","midi":54,"time":128.43750000000006,"velocity":0.2677165354330709,"duration":0.053124999999994316},{"name":"F#2","midi":42,"time":128.43750000000006,"velocity":0.3858267716535433,"duration":0.05781249999998295},{"name":"A#4","midi":70,"time":128.43750000000006,"velocity":0.4015748031496063,"duration":0.14843749999997158},{"name":"D#2","midi":39,"time":128.62500000000003,"velocity":0.6614173228346457,"duration":0.7453125000000398},{"name":"F#2","midi":42,"time":128.62500000000003,"velocity":0.5511811023622047,"duration":0.08906250000001137},{"name":"A4","midi":69,"time":128.62500000000003,"velocity":0.3464566929133858,"duration":0.09687500000001137},{"name":"F#3","midi":54,"time":128.62500000000003,"velocity":0.6377952755905512,"duration":0.09531250000000568},{"name":"A#4","midi":70,"time":128.62500000000003,"velocity":0.5826771653543307,"duration":0.32499999999998863},{"name":"G4","midi":67,"time":128.62500000000003,"velocity":0.6850393700787402,"duration":1.1156250000000227},{"name":"D#4","midi":63,"time":128.62500000000003,"velocity":0.6850393700787402,"duration":0.5734375000000114},{"name":"F#3","midi":54,"time":128.81250000000003,"velocity":0.23622047244094488,"duration":0.046875},{"name":"A#4","midi":70,"time":128.81250000000003,"velocity":0.4409448818897638,"duration":0.34062500000001705},{"name":"F#2","midi":42,"time":128.81250000000003,"velocity":0.4094488188976378,"duration":0.0625},{"name":"C2","midi":36,"time":128.81250000000003,"velocity":0.6141732283464567,"duration":0.0625},{"name":"A#3","midi":58,"time":128.81250000000003,"velocity":0.5039370078740157,"duration":0.5546875000000284},{"name":"D#2","midi":39,"time":129.00000000000003,"velocity":0.7086614173228346,"duration":1.0718750000000057},{"name":"D#3","midi":51,"time":129.00000000000003,"velocity":0.4566929133858268,"duration":1.334374999999966},{"name":"D#4","midi":63,"time":129.00000000000003,"velocity":0.4881889763779528,"duration":0.31875000000002274},{"name":"G3","midi":55,"time":129.00000000000003,"velocity":0.33858267716535434,"duration":0.4015625000000398},{"name":"F#3","midi":54,"time":129.00000000000003,"velocity":0.6141732283464567,"duration":0.08906250000001137},{"name":"C2","midi":36,"time":129.00000000000003,"velocity":0.8503937007874016,"duration":0.24531250000001137},{"name":"F#2","midi":42,"time":129.00000000000003,"velocity":0.7086614173228346,"duration":0.09375000000002842},{"name":"A4","midi":69,"time":129.00000000000003,"velocity":0.33070866141732286,"duration":0.09375000000002842},{"name":"F#2","midi":42,"time":129.18750000000003,"velocity":0.4251968503937008,"duration":0.056250000000005684},{"name":"A#4","midi":70,"time":129.18750000000003,"velocity":0.4251968503937008,"duration":0.13750000000001705},{"name":"F#3","midi":54,"time":129.18750000000003,"velocity":0.23622047244094488,"duration":0.04218750000001137},{"name":"A#3","midi":58,"time":129.18750000000003,"velocity":0.5196850393700787,"duration":0.5531250000000227},{"name":"G4","midi":67,"time":129.18750000000003,"velocity":0.31496062992125984,"duration":0.8515625},{"name":"A#2","midi":46,"time":129.37500000000006,"velocity":0.6614173228346457,"duration":0.1328125},{"name":"F4","midi":65,"time":129.37500000000006,"velocity":0.8503937007874016,"duration":0.5609374999999943},{"name":"F3","midi":53,"time":129.37500000000006,"velocity":0.7086614173228346,"duration":0.421875},{"name":"F3","midi":53,"time":129.37500000000006,"velocity":0.44881889763779526,"duration":0.5406250000000057},{"name":"F4","midi":65,"time":129.37500000000006,"velocity":0.7322834645669292,"duration":0.5609374999999943},{"name":"A4","midi":69,"time":129.37500000000006,"velocity":0.3937007874015748,"duration":0.08750000000000568},{"name":"F#3","midi":54,"time":129.37500000000006,"velocity":0.6377952755905512,"duration":0.08750000000000568},{"name":"C2","midi":36,"time":129.37500000000006,"velocity":0.7795275590551181,"duration":0.19062500000001137},{"name":"A#2","midi":46,"time":129.37500000000006,"velocity":0.8267716535433071,"duration":0.37968749999998863},{"name":"D#4","midi":63,"time":129.37500000000006,"velocity":0.7322834645669292,"duration":0.3656249999999943},{"name":"A#4","midi":70,"time":129.37500000000006,"velocity":0.7795275590551181,"duration":0.3296875000000057},{"name":"G4","midi":67,"time":129.37500000000006,"velocity":0.6850393700787402,"duration":1.0749999999999034},{"name":"A#3","midi":58,"time":129.37500000000006,"velocity":0.7086614173228346,"duration":0.8999999999999488},{"name":"D#4","midi":63,"time":129.37500000000006,"velocity":0.7086614173228346,"duration":0.4296875},{"name":"F4","midi":65,"time":129.37500000000006,"velocity":0.7322834645669292,"duration":0.578125},{"name":"F#3","midi":54,"time":129.56250000000006,"velocity":0.23622047244094488,"duration":0.07187500000000568},{"name":"A#4","midi":70,"time":129.56250000000006,"velocity":0.4409448818897638,"duration":0.3031249999999943},{"name":"D#2","midi":39,"time":129.75000000000006,"velocity":0.6614173228346457,"duration":0.6421874999999204},{"name":"D2","midi":38,"time":129.75000000000006,"velocity":0.8976377952755905,"duration":0.35468749999998295},{"name":"A4","midi":69,"time":129.75000000000006,"velocity":0.3228346456692913,"duration":0.07656249999999432},{"name":"F#3","midi":54,"time":129.75000000000006,"velocity":0.6377952755905512,"duration":0.09218749999999432},{"name":"A#2","midi":46,"time":129.75000000000006,"velocity":0.5196850393700787,"duration":0.078125},{"name":"A#3","midi":58,"time":129.75000000000006,"velocity":0.7086614173228346,"duration":0.7374999999998977},{"name":"G4","midi":67,"time":129.75000000000006,"velocity":0.7086614173228346,"duration":0.7374999999998977},{"name":"G4","midi":67,"time":129.93750000000006,"velocity":0.8267716535433071,"duration":0.5703124999998863},{"name":"G3","midi":55,"time":129.93750000000006,"velocity":0.5039370078740157,"duration":0.514062499999909},{"name":"G3","midi":55,"time":129.93750000000006,"velocity":0.4881889763779528,"duration":0.564062499999892},{"name":"G4","midi":67,"time":129.93750000000006,"velocity":0.7795275590551181,"duration":0.5828124999999034},{"name":"A#4","midi":70,"time":129.93750000000006,"velocity":0.3779527559055118,"duration":0.15156249999998295},{"name":"F#3","midi":54,"time":129.93750000000006,"velocity":0.1889763779527559,"duration":0.05937499999998863},{"name":"D#4","midi":63,"time":129.93750000000006,"velocity":0.3543307086614173,"duration":0.07187499999997726},{"name":"G4","midi":67,"time":129.93750000000006,"velocity":0.7795275590551181,"duration":0.6468749999998806},{"name":"D#2","midi":39,"time":130.12500000000003,"velocity":0.7322834645669292,"duration":0.4015624999999261},{"name":"D#5","midi":75,"time":130.12500000000003,"velocity":0.8503937007874016,"duration":0.3859374999999261},{"name":"A4","midi":69,"time":130.12500000000003,"velocity":0.41732283464566927,"duration":0.11093749999997726},{"name":"C2","midi":36,"time":130.12500000000003,"velocity":0.7795275590551181,"duration":0.09062499999998863},{"name":"F#3","midi":54,"time":130.12500000000003,"velocity":0.6141732283464567,"duration":0.08437499999999432},{"name":"F#2","midi":42,"time":130.12500000000003,"velocity":0.8031496062992126,"duration":0.0625},{"name":"G4","midi":67,"time":130.12500000000003,"velocity":0.6141732283464567,"duration":0.45937499999990905},{"name":"D#4","midi":63,"time":130.12500000000003,"velocity":0.5984251968503937,"duration":0.32031249999994316},{"name":"A#4","midi":70,"time":130.12500000000003,"velocity":0.6850393700787402,"duration":0.31093749999993747},{"name":"A#3","midi":58,"time":130.12500000000003,"velocity":0.5826771653543307,"duration":0.39687499999993747},{"name":"A#5","midi":82,"time":130.3125,"velocity":0.9212598425196851,"duration":0.6015624999999432},{"name":"F#2","midi":42,"time":130.3125,"velocity":0.5196850393700787,"duration":0.05156249999998863},{"name":"F#3","midi":54,"time":130.3125,"velocity":0.30708661417322836,"duration":0.06562499999998295},{"name":"G#1","midi":32,"time":130.49999999999994,"velocity":0.8503937007874016,"duration":1.2750000000000057},{"name":"D#4","midi":63,"time":130.49999999999994,"velocity":0.6614173228346457,"duration":0.614062500000017},{"name":"G#2","midi":44,"time":130.49999999999994,"velocity":0.7559055118110236,"duration":1.1312500000000227},{"name":"C4","midi":60,"time":130.49999999999994,"velocity":0.6299212598425197,"duration":0.31406249999997726},{"name":"G#3","midi":56,"time":130.49999999999994,"velocity":0.5984251968503937,"duration":0.42500000000001137},{"name":"C4","midi":60,"time":130.49999999999994,"velocity":0.44881889763779526,"duration":0.6265625000000057},{"name":"G#3","midi":56,"time":130.49999999999994,"velocity":0.4409448818897638,"duration":1.0843750000000227},{"name":"C5","midi":72,"time":130.49999999999994,"velocity":0.6299212598425197,"duration":1.5421875000000398},{"name":"G#4","midi":68,"time":130.49999999999994,"velocity":0.5511811023622047,"duration":0.7375000000000114},{"name":"D#4","midi":63,"time":130.49999999999994,"velocity":0.7559055118110236,"duration":1.0562500000000057},{"name":"F#2","midi":42,"time":130.49999999999994,"velocity":0.7559055118110236,"duration":0.08906249999998295},{"name":"F#3","midi":54,"time":130.49999999999994,"velocity":0.7007874015748031,"duration":0.078125},{"name":"C2","midi":36,"time":130.49999999999994,"velocity":0.9212598425196851,"duration":0.5453125000000227},{"name":"A4","midi":69,"time":130.49999999999994,"velocity":0.4015748031496063,"duration":0.12499999999997158},{"name":"D#4","midi":63,"time":130.49999999999994,"velocity":0.4566929133858268,"duration":1.1781250000000227},{"name":"C4","midi":60,"time":130.49999999999994,"velocity":0.4330708661417323,"duration":0.7375000000000114},{"name":"C4","midi":60,"time":130.49999999999994,"velocity":0.7086614173228346,"duration":0.8921875000000057},{"name":"G#4","midi":68,"time":130.49999999999994,"velocity":0.7322834645669292,"duration":1.540625000000034},{"name":"D#4","midi":63,"time":130.49999999999994,"velocity":0.7559055118110236,"duration":1.1781250000000227},{"name":"F#3","midi":54,"time":130.68749999999991,"velocity":0.29133858267716534,"duration":0.053124999999994316},{"name":"A#4","midi":70,"time":130.68749999999991,"velocity":0.4251968503937008,"duration":0.14531250000001705},{"name":"F#2","midi":42,"time":130.68749999999991,"velocity":0.5354330708661418,"duration":0.05156249999998863},{"name":"G5","midi":79,"time":130.87499999999994,"velocity":0.8267716535433071,"duration":0.7281250000000341},{"name":"F#2","midi":42,"time":130.87499999999994,"velocity":0.6141732283464567,"duration":0.08281250000001705},{"name":"F#3","midi":54,"time":130.87499999999994,"velocity":0.5511811023622047,"duration":0.08437500000002274},{"name":"A4","midi":69,"time":130.87499999999994,"velocity":0.3464566929133858,"duration":0.11406250000001705},{"name":"C4","midi":60,"time":130.87499999999994,"velocity":0.7322834645669292,"duration":0.6453124999999886},{"name":"A#4","midi":70,"time":130.87499999999994,"velocity":0.7322834645669292,"duration":0.34687500000001137},{"name":"C4","midi":60,"time":130.87499999999994,"velocity":0.5354330708661418,"duration":0.903125000000017},{"name":"G#3","midi":56,"time":131.06249999999997,"velocity":0.25196850393700787,"duration":0.6499999999999773},{"name":"A#4","midi":70,"time":131.06249999999997,"velocity":0.4409448818897638,"duration":0.4843749999999716},{"name":"F#3","midi":54,"time":131.06249999999997,"velocity":0.25196850393700787,"duration":0.09062499999998863},{"name":"F#2","midi":42,"time":131.06249999999997,"velocity":0.5354330708661418,"duration":0.05937499999998863},{"name":"D#4","midi":63,"time":131.24999999999994,"velocity":0.36220472440944884,"duration":0.5656250000000398},{"name":"D#3","midi":51,"time":131.24999999999994,"velocity":0.3464566929133858,"duration":0.30937500000001705},{"name":"D2","midi":38,"time":131.24999999999994,"velocity":0.8976377952755905,"duration":0.4453125000000284},{"name":"A4","midi":69,"time":131.24999999999994,"velocity":0.25196850393700787,"duration":0.12343749999999432},{"name":"F#2","midi":42,"time":131.24999999999994,"velocity":0.8267716535433071,"duration":0.08437499999999432},{"name":"F#3","midi":54,"time":131.24999999999994,"velocity":0.7007874015748031,"duration":0.07968750000000568},{"name":"C4","midi":60,"time":131.24999999999994,"velocity":0.7795275590551181,"duration":0.6078125000000227},{"name":"D#4","midi":63,"time":131.24999999999994,"velocity":0.6614173228346457,"duration":0.6031250000000341},{"name":"G#4","midi":68,"time":131.24999999999994,"velocity":0.7559055118110236,"duration":0.9234375000000341},{"name":"F#2","midi":42,"time":131.43749999999994,"velocity":0.5039370078740157,"duration":0.05937499999998863},{"name":"F#3","midi":54,"time":131.43749999999994,"velocity":0.33070866141732286,"duration":0.06406249999997726},{"name":"A#4","midi":70,"time":131.43749999999994,"velocity":0.41732283464566927,"duration":0.13750000000001705},{"name":"C4","midi":60,"time":131.43749999999994,"velocity":0.31496062992125984,"duration":0.5578125000000398},{"name":"G#3","midi":56,"time":131.62499999999997,"velocity":0.2047244094488189,"duration":0.42500000000001137},{"name":"D#5","midi":75,"time":131.62499999999997,"velocity":0.8976377952755905,"duration":0.528125000000017},{"name":"F#3","midi":54,"time":131.62499999999997,"velocity":0.6141732283464567,"duration":0.08281249999998863},{"name":"A4","midi":69,"time":131.62499999999997,"velocity":0.3543307086614173,"duration":0.11093749999997726},{"name":"F#2","midi":42,"time":131.62499999999997,"velocity":0.6141732283464567,"duration":0.078125},{"name":"C4","midi":60,"time":131.62499999999997,"velocity":0.5984251968503937,"duration":0.41093750000001705},{"name":"D#4","midi":63,"time":131.62499999999997,"velocity":0.6299212598425197,"duration":0.5484375000000057},{"name":"A#4","midi":70,"time":131.62499999999997,"velocity":0.7322834645669292,"duration":0.3187499999999943},{"name":"G#1","midi":32,"time":131.81249999999997,"velocity":0.5984251968503937,"duration":0.21406250000001137},{"name":"A#4","midi":70,"time":131.81249999999997,"velocity":0.4015748031496063,"duration":0.15781250000000568},{"name":"F#2","midi":42,"time":131.81249999999997,"velocity":0.48031496062992124,"duration":0.04999999999998295},{"name":"F#3","midi":54,"time":131.81249999999997,"velocity":0.2677165354330709,"duration":0.053124999999994316},{"name":"C4","midi":60,"time":131.81249999999997,"velocity":0.5039370078740157,"duration":0.3609375000000057},{"name":"A#1","midi":34,"time":131.99999999999997,"velocity":0.6456692913385826,"duration":0.33906250000001137},{"name":"A#3","midi":58,"time":131.99999999999997,"velocity":0.5826771653543307,"duration":0.41093749999998863},{"name":"A#2","midi":46,"time":131.99999999999997,"velocity":0.7322834645669292,"duration":0.5062499999999943},{"name":"D4","midi":62,"time":131.99999999999997,"velocity":0.6614173228346457,"duration":0.34375},{"name":"A#3","midi":58,"time":131.99999999999997,"velocity":0.44881889763779526,"duration":0.653125000000017},{"name":"F3","midi":53,"time":131.99999999999997,"velocity":0.3779527559055118,"duration":1.3718750000000455},{"name":"D5","midi":74,"time":131.99999999999997,"velocity":0.6850393700787402,"duration":1.6078125000000796},{"name":"A#4","midi":70,"time":131.99999999999997,"velocity":0.5826771653543307,"duration":0.35468750000001137},{"name":"F4","midi":65,"time":131.99999999999997,"velocity":0.5511811023622047,"duration":0.7390624999999886},{"name":"C2","midi":36,"time":131.99999999999997,"velocity":0.8267716535433071,"duration":0.22187500000001137},{"name":"A4","midi":69,"time":131.99999999999997,"velocity":0.25196850393700787,"duration":0.11406250000001705},{"name":"F#2","midi":42,"time":131.99999999999997,"velocity":0.7086614173228346,"duration":0.08906250000001137},{"name":"F#3","midi":54,"time":131.99999999999997,"velocity":0.5669291338582677,"duration":0.0859375},{"name":"F4","midi":65,"time":131.99999999999997,"velocity":0.6850393700787402,"duration":1.3546875000000398},{"name":"D4","midi":62,"time":131.99999999999997,"velocity":0.6614173228346457,"duration":0.6343750000000057},{"name":"A#4","midi":70,"time":131.99999999999997,"velocity":0.5196850393700787,"duration":0.3687500000000057},{"name":"F4","midi":65,"time":131.99999999999997,"velocity":0.5511811023622047,"duration":1.4875000000000682},{"name":"F#2","midi":42,"time":132.18749999999997,"velocity":0.2992125984251969,"duration":0.05781250000001137},{"name":"F#3","midi":54,"time":132.18749999999997,"velocity":0.4015748031496063,"duration":0.05781250000001137},{"name":"A#4","midi":70,"time":132.18749999999997,"velocity":0.3228346456692913,"duration":0.526562499999983},{"name":"D4","midi":62,"time":132.18749999999997,"velocity":0.5826771653543307,"duration":0.4859375000000057},{"name":"A#3","midi":58,"time":132.18749999999997,"velocity":0.5826771653543307,"duration":0.542187499999983},{"name":"F4","midi":65,"time":132.18749999999997,"velocity":0.5196850393700787,"duration":1.3515625000000853},{"name":"A#1","midi":34,"time":132.37499999999997,"velocity":0.6850393700787402,"duration":0.7328124999999943},{"name":"A4","midi":69,"time":132.37499999999997,"velocity":0.3464566929133858,"duration":0.11093750000000568},{"name":"F#3","midi":54,"time":132.37499999999997,"velocity":0.6377952755905512,"duration":0.08437499999999432},{"name":"C2","midi":36,"time":132.37499999999997,"velocity":0.8740157480314961,"duration":0.3031249999999943},{"name":"A#2","midi":46,"time":132.37499999999997,"velocity":0.7795275590551181,"duration":1.001562500000034},{"name":"C5","midi":72,"time":132.37499999999997,"velocity":0.8267716535433071,"duration":0.7593750000000057},{"name":"D4","midi":62,"time":132.37499999999997,"velocity":0.7795275590551181,"duration":0.36406249999998863},{"name":"A#3","midi":58,"time":132.37499999999997,"velocity":0.5984251968503937,"duration":0.36406249999998863},{"name":"D4","midi":62,"time":132.37499999999997,"velocity":0.5984251968503937,"duration":0.6640625},{"name":"A#3","midi":58,"time":132.56249999999997,"velocity":0.1968503937007874,"duration":0.8234375000000398},{"name":"F#3","midi":54,"time":132.56249999999997,"velocity":0.2047244094488189,"duration":0.06874999999999432},{"name":"A#4","midi":70,"time":132.56249999999997,"velocity":0.4015748031496063,"duration":0.5093750000000057},{"name":"F3","midi":53,"time":132.74999999999997,"velocity":0.4330708661417323,"duration":0.6593750000000398},{"name":"D#4","midi":63,"time":132.74999999999997,"velocity":0.5984251968503937,"duration":0.6531250000000455},{"name":"A#3","midi":58,"time":132.74999999999997,"velocity":0.4330708661417323,"duration":0.6843750000000455},{"name":"A4","midi":69,"time":132.74999999999997,"velocity":0.25984251968503935,"duration":0.125},{"name":"D2","midi":38,"time":132.74999999999997,"velocity":0.8503937007874016,"duration":0.3031249999999943},{"name":"F#3","midi":54,"time":132.74999999999997,"velocity":0.6141732283464567,"duration":0.078125},{"name":"F#2","midi":42,"time":132.74999999999997,"velocity":0.5984251968503937,"duration":0.08750000000000568},{"name":"D4","midi":62,"time":132.74999999999997,"velocity":0.7322834645669292,"duration":0.582812500000017},{"name":"F4","midi":65,"time":132.74999999999997,"velocity":0.6614173228346457,"duration":0.7890625000000853},{"name":"A#3","midi":58,"time":132.74999999999997,"velocity":0.8031496062992126,"duration":0.7375000000000682},{"name":"F#2","midi":42,"time":132.93749999999997,"velocity":0.5039370078740157,"duration":0.05156249999998863},{"name":"F#3","midi":54,"time":132.93749999999997,"velocity":0.28346456692913385,"duration":0.08437499999999432},{"name":"A#4","midi":70,"time":132.93749999999997,"velocity":0.33858267716535434,"duration":0.4062500000000284},{"name":"D2","midi":38,"time":133.12499999999997,"velocity":0.6850393700787402,"duration":0.3718750000000739},{"name":"D#5","midi":75,"time":133.12499999999997,"velocity":0.8976377952755905,"duration":0.11718750000002842},{"name":"F#2","midi":42,"time":133.12499999999997,"velocity":0.7559055118110236,"duration":0.07500000000001705},{"name":"F#3","midi":54,"time":133.12499999999997,"velocity":0.5905511811023622,"duration":0.08593750000002842},{"name":"A4","midi":69,"time":133.12499999999997,"velocity":0.3779527559055118,"duration":0.09843750000001705},{"name":"A#4","midi":70,"time":133.12499999999997,"velocity":0.5984251968503937,"duration":0.35937500000005684},{"name":"D4","midi":62,"time":133.12499999999997,"velocity":0.5669291338582677,"duration":0.3625000000000682},{"name":"D#5","midi":75,"time":133.3125,"velocity":0.8267716535433071,"duration":0.17656250000004547},{"name":"F#3","midi":54,"time":133.3125,"velocity":0.2125984251968504,"duration":0.06718750000001705},{"name":"F#2","midi":42,"time":133.3125,"velocity":0.6141732283464567,"duration":0.05312500000002274},{"name":"A#4","midi":70,"time":133.3125,"velocity":0.4409448818897638,"duration":0.2546875000000455},{"name":"A#3","midi":58,"time":133.3125,"velocity":0.4251968503937008,"duration":0.28750000000005116},{"name":"D#2","midi":39,"time":133.50000000000006,"velocity":0.8740157480314961,"duration":0.39531250000001705},{"name":"G4","midi":67,"time":133.50000000000006,"velocity":0.6850393700787402,"duration":0.5234375000000568},{"name":"D#4","midi":63,"time":133.50000000000006,"velocity":0.6456692913385826,"duration":0.47500000000005116},{"name":"A#3","midi":58,"time":133.50000000000006,"velocity":0.6456692913385826,"duration":0.4375000000000284},{"name":"D#2","midi":39,"time":133.50000000000006,"velocity":0.6456692913385826,"duration":0.7703125000000739},{"name":"D#3","midi":51,"time":133.50000000000006,"velocity":0.5354330708661418,"duration":0.36406250000001705},{"name":"A#5","midi":82,"time":133.50000000000006,"velocity":0.8740157480314961,"duration":0.3046875},{"name":"D#4","midi":63,"time":133.50000000000006,"velocity":0.47244094488188976,"duration":0.5828125000000455},{"name":"G3","midi":55,"time":133.50000000000006,"velocity":0.3543307086614173,"duration":0.6234375000000512},{"name":"D#5","midi":75,"time":133.50000000000006,"velocity":0.6456692913385826,"duration":0.8109375000000796},{"name":"G4","midi":67,"time":133.50000000000006,"velocity":0.5826771653543307,"duration":0.6640625000000568},{"name":"G4","midi":67,"time":133.50000000000006,"velocity":0.5984251968503937,"duration":0.7375000000000682},{"name":"F#2","midi":42,"time":133.50000000000006,"velocity":0.7795275590551181,"duration":0.08124999999998295},{"name":"F#3","midi":54,"time":133.50000000000006,"velocity":0.6377952755905512,"duration":0.08281249999998863},{"name":"A4","midi":69,"time":133.50000000000006,"velocity":0.2125984251968504,"duration":0.13437500000000568},{"name":"C2","midi":36,"time":133.50000000000006,"velocity":0.8740157480314961,"duration":0.3062500000000057},{"name":"A#4","midi":70,"time":133.50000000000006,"velocity":0.6850393700787402,"duration":0.3375000000000057},{"name":"G4","midi":67,"time":133.50000000000006,"velocity":0.7086614173228346,"duration":0.7515625000000625},{"name":"D#4","midi":63,"time":133.50000000000006,"velocity":0.6850393700787402,"duration":0.6406250000000568},{"name":"G4","midi":67,"time":133.50000000000006,"velocity":0.6850393700787402,"duration":0.7515625000000625},{"name":"D#4","midi":63,"time":133.50000000000006,"velocity":0.7559055118110236,"duration":0.7375000000000682},{"name":"A#3","midi":58,"time":133.50000000000006,"velocity":0.8267716535433071,"duration":0.6328125000000568},{"name":"G4","midi":67,"time":133.50000000000006,"velocity":0.5984251968503937,"duration":0.8015625000000739},{"name":"F#2","midi":42,"time":133.68750000000006,"velocity":0.4330708661417323,"duration":0.06874999999999432},{"name":"A#4","midi":70,"time":133.68750000000006,"velocity":0.3543307086614173,"duration":0.37343750000005116},{"name":"F#3","midi":54,"time":133.68750000000006,"velocity":0.1968503937007874,"duration":0.06406250000000568},{"name":"G5","midi":79,"time":133.87500000000009,"velocity":0.8503937007874016,"duration":0.4031250000000455},{"name":"F#3","midi":54,"time":133.87500000000009,"velocity":0.5669291338582677,"duration":0.08125000000001137},{"name":"A4","midi":69,"time":133.87500000000009,"velocity":0.25984251968503935,"duration":0.10156250000002842},{"name":"F#2","midi":42,"time":133.87500000000009,"velocity":0.4251968503937008,"duration":0.08906250000001137},{"name":"A#3","midi":58,"time":133.87500000000009,"velocity":0.25196850393700787,"duration":0.2921875000000398},{"name":"F#3","midi":54,"time":134.0625000000001,"velocity":0.30708661417322836,"duration":0.046875},{"name":"F#2","midi":42,"time":134.0625000000001,"velocity":0.3464566929133858,"duration":0.07499999999998863},{"name":"A#4","midi":70,"time":134.0625000000001,"velocity":0.4251968503937008,"duration":0.15468750000002274},{"name":"D#4","midi":63,"time":134.0625000000001,"velocity":0.33858267716535434,"duration":0.20000000000001705},{"name":"A#3","midi":58,"time":134.0625000000001,"velocity":0.4094488188976378,"duration":0.17500000000001137},{"name":"D2","midi":38,"time":134.2500000000001,"velocity":0.8267716535433071,"duration":0.27812500000001705},{"name":"F4","midi":65,"time":134.2500000000001,"velocity":0.6456692913385826,"duration":0.3437500000000284},{"name":"D4","midi":62,"time":134.2500000000001,"velocity":0.6614173228346457,"duration":0.31875000000002274},{"name":"A#3","midi":58,"time":134.2500000000001,"velocity":0.5826771653543307,"duration":0.3703125000000398},{"name":"D2","midi":38,"time":134.2500000000001,"velocity":0.6850393700787402,"duration":0.3609375000000341},{"name":"D3","midi":50,"time":134.2500000000001,"velocity":0.5984251968503937,"duration":0.3515625000000284},{"name":"F5","midi":77,"time":134.2500000000001,"velocity":0.8740157480314961,"duration":0.33437500000002274},{"name":"D4","midi":62,"time":134.2500000000001,"velocity":0.47244094488188976,"duration":0.806250000000091},{"name":"A#3","midi":58,"time":134.2500000000001,"velocity":0.4251968503937008,"duration":0.7687500000000966},{"name":"F3","midi":53,"time":134.2500000000001,"velocity":0.4251968503937008,"duration":0.7968750000000853},{"name":"F4","midi":65,"time":134.2500000000001,"velocity":0.5984251968503937,"duration":0.4640625000000398},{"name":"D5","midi":74,"time":134.2500000000001,"velocity":0.6614173228346457,"duration":0.8109375000000796},{"name":"F4","midi":65,"time":134.2500000000001,"velocity":0.6456692913385826,"duration":0.6671875000000682},{"name":"A#2","midi":46,"time":134.2500000000001,"velocity":0.8031496062992126,"duration":0.16250000000002274},{"name":"D2","midi":38,"time":134.2500000000001,"velocity":0.8740157480314961,"duration":0.4968750000000455},{"name":"A4","midi":69,"time":134.2500000000001,"velocity":0.30708661417322836,"duration":0.11562500000002274},{"name":"F#3","midi":54,"time":134.2500000000001,"velocity":0.6377952755905512,"duration":0.07812500000002842},{"name":"A#4","midi":70,"time":134.2500000000001,"velocity":0.7559055118110236,"duration":0.3359375000000284},{"name":"F4","midi":65,"time":134.2500000000001,"velocity":0.7086614173228346,"duration":0.7843750000000966},{"name":"D4","midi":62,"time":134.2500000000001,"velocity":0.7322834645669292,"duration":0.923437500000091},{"name":"A#3","midi":58,"time":134.2500000000001,"velocity":0.7559055118110236,"duration":0.8406250000000739},{"name":"F4","midi":65,"time":134.2500000000001,"velocity":0.6850393700787402,"duration":0.829687500000091},{"name":"F4","midi":65,"time":134.2500000000001,"velocity":0.6456692913385826,"duration":0.829687500000091},{"name":"A#4","midi":70,"time":134.43750000000014,"velocity":0.4015748031496063,"duration":0.4875000000000398},{"name":"F#3","midi":54,"time":134.43750000000014,"velocity":0.28346456692913385,"duration":0.07656249999999432},{"name":"D#5","midi":75,"time":134.62500000000014,"velocity":0.8503937007874016,"duration":0.7453125000000966},{"name":"A#2","midi":46,"time":134.62500000000014,"velocity":0.8031496062992126,"duration":0.14062500000002842},{"name":"F#3","midi":54,"time":134.62500000000014,"velocity":0.5196850393700787,"duration":0.08750000000000568},{"name":"A4","midi":69,"time":134.62500000000014,"velocity":0.3464566929133858,"duration":0.09687500000001137},{"name":"D2","midi":38,"time":134.81250000000017,"velocity":0.6850393700787402,"duration":0.2140625000000398},{"name":"F#3","midi":54,"time":134.81250000000017,"velocity":0.2047244094488189,"duration":0.05781250000001137},{"name":"C2","midi":36,"time":134.81250000000017,"velocity":0.48031496062992124,"duration":0.05937500000001705},{"name":"A#4","midi":70,"time":134.81250000000017,"velocity":0.4409448818897638,"duration":0.13750000000001705},{"name":"F4","midi":65,"time":134.81250000000017,"velocity":0.5039370078740157,"duration":0.3609375000000341},{"name":"A#3","midi":58,"time":134.81250000000017,"velocity":0.6141732283464567,"duration":0.3609375000000341},{"name":"C2","midi":36,"time":135.0000000000002,"velocity":0.8031496062992126,"duration":0.33281250000001705},{"name":"G3","midi":55,"time":135.0000000000002,"velocity":0.5196850393700787,"duration":1.5406250000000625},{"name":"C4","midi":60,"time":135.0000000000002,"velocity":0.6456692913385826,"duration":0.3671875000000284},{"name":"D#4","midi":63,"time":135.0000000000002,"velocity":0.6850393700787402,"duration":0.3671875000000284},{"name":"C3","midi":48,"time":135.0000000000002,"velocity":0.6299212598425197,"duration":1.5140625000000512},{"name":"C2","midi":36,"time":135.0000000000002,"velocity":0.7086614173228346,"duration":1.290625000000091},{"name":"G3","midi":55,"time":135.0000000000002,"velocity":0.3858267716535433,"duration":2.971875000000182},{"name":"C4","midi":60,"time":135.0000000000002,"velocity":0.4881889763779528,"duration":0.7406250000000796},{"name":"C5","midi":72,"time":135.0000000000002,"velocity":0.6614173228346457,"duration":2.8093750000001307},{"name":"D#4","midi":63,"time":135.0000000000002,"velocity":0.5984251968503937,"duration":0.7406250000000796},{"name":"D#4","midi":63,"time":135.0000000000002,"velocity":0.6299212598425197,"duration":0.7578125000000853},{"name":"F#3","midi":54,"time":135.0000000000002,"velocity":0.6771653543307087,"duration":0.08437499999999432},{"name":"F#2","midi":42,"time":135.0000000000002,"velocity":0.7795275590551181,"duration":0.09218749999999432},{"name":"A4","midi":69,"time":135.0000000000002,"velocity":0.33070866141732286,"duration":0.09375},{"name":"C2","midi":36,"time":135.0000000000002,"velocity":0.8740157480314961,"duration":1.4859375000000625},{"name":"A#4","midi":70,"time":135.0000000000002,"velocity":0.6299212598425197,"duration":0.32500000000001705},{"name":"G4","midi":67,"time":135.0000000000002,"velocity":0.7086614173228346,"duration":0.3671875000000284},{"name":"D#4","midi":63,"time":135.0000000000002,"velocity":0.6299212598425197,"duration":1.0593750000001023},{"name":"A#4","midi":70,"time":135.1875000000002,"velocity":0.4251968503937008,"duration":0.3218750000000341},{"name":"F#3","midi":54,"time":135.1875000000002,"velocity":0.2125984251968504,"duration":0.046875},{"name":"F#2","midi":42,"time":135.1875000000002,"velocity":0.4251968503937008,"duration":0.06406250000000568},{"name":"C4","midi":60,"time":135.1875000000002,"velocity":0.6299212598425197,"duration":1.207812500000074},{"name":"D#4","midi":63,"time":135.1875000000002,"velocity":0.5984251968503937,"duration":1.1390625000000796},{"name":"G4","midi":67,"time":135.1875000000002,"velocity":0.5826771653543307,"duration":0.2281250000000341},{"name":"A4","midi":69,"time":135.37500000000023,"velocity":0.3937007874015748,"duration":0.08750000000000568},{"name":"F#2","midi":42,"time":135.37500000000023,"velocity":0.6614173228346457,"duration":0.07343750000001137},{"name":"F#3","midi":54,"time":135.37500000000023,"velocity":0.5354330708661418,"duration":0.08125000000001137},{"name":"C4","midi":60,"time":135.37500000000023,"velocity":0.6850393700787402,"duration":1.1125000000000398},{"name":"G4","midi":67,"time":135.37500000000023,"velocity":0.7322834645669292,"duration":0.36562500000005116},{"name":"D#4","midi":63,"time":135.37500000000023,"velocity":0.6850393700787402,"duration":1.0437500000000455},{"name":"F#3","midi":54,"time":135.56250000000023,"velocity":0.18110236220472442,"duration":0.10000000000002274},{"name":"F#2","midi":42,"time":135.56250000000023,"velocity":0.4251968503937008,"duration":0.05781250000001137},{"name":"A#4","midi":70,"time":135.56250000000023,"velocity":0.4409448818897638,"duration":0.1421875000000341},{"name":"G4","midi":67,"time":135.56250000000023,"velocity":0.6850393700787402,"duration":0.9250000000000398},{"name":"A#4","midi":70,"time":135.56250000000023,"velocity":0.5826771653543307,"duration":0.5125000000000739},{"name":"D#4","midi":63,"time":135.56250000000023,"velocity":0.5826771653543307,"duration":0.9250000000000398},{"name":"D3","midi":50,"time":135.73750000000027,"velocity":0.5511811023622047,"duration":0.10625000000001705},{"name":"A4","midi":69,"time":135.75000000000028,"velocity":0.3228346456692913,"duration":0.07656249999999432},{"name":"F#3","midi":54,"time":135.75000000000028,"velocity":0.6535433070866141,"duration":0.07656249999999432},{"name":"F#2","midi":42,"time":135.75000000000028,"velocity":0.7795275590551181,"duration":0.10468750000001137},{"name":"D2","midi":38,"time":135.75000000000028,"velocity":0.8740157480314961,"duration":0.22187500000001137},{"name":"C4","midi":60,"time":135.75000000000028,"velocity":0.7322834645669292,"duration":0.7828124999999773},{"name":"G4","midi":67,"time":135.75000000000028,"velocity":0.7086614173228346,"duration":1.4609375000000284},{"name":"D#4","midi":63,"time":135.75000000000028,"velocity":0.5669291338582677,"duration":0.7859374999999886},{"name":"D4","midi":62,"time":135.77187500000028,"velocity":0.6850393700787402,"duration":0.10625000000001705},{"name":"D#4","midi":63,"time":135.79687500000028,"velocity":0.7795275590551181,"duration":1.0374999999999943},{"name":"D#3","midi":51,"time":135.80312500000028,"velocity":0.5354330708661418,"duration":0.6703124999999943},{"name":"A#4","midi":70,"time":135.93750000000028,"velocity":0.3779527559055118,"duration":0.15156250000001137},{"name":"F#3","midi":54,"time":135.93750000000028,"velocity":0.23622047244094488,"duration":0.05000000000001137},{"name":"F#2","midi":42,"time":135.93750000000028,"velocity":0.29133858267716534,"duration":0.06562500000001137},{"name":"A4","midi":69,"time":136.12500000000028,"velocity":0.41732283464566927,"duration":0.11093750000000568},{"name":"F#3","midi":54,"time":136.12500000000028,"velocity":0.5905511811023622,"duration":0.08125000000001137},{"name":"F#2","midi":42,"time":136.12500000000028,"velocity":0.6614173228346457,"duration":0.07968750000000568},{"name":"C2","midi":36,"time":136.31250000000028,"velocity":0.8267716535433071,"duration":0.21249999999997726},{"name":"C2","midi":36,"time":136.31250000000028,"velocity":0.8503937007874016,"duration":0.3343749999999659},{"name":"F#2","midi":42,"time":136.31250000000028,"velocity":0.33070866141732286,"duration":0.04374999999998863},{"name":"F#3","midi":54,"time":136.31250000000028,"velocity":0.28346456692913385,"duration":0.0390625},{"name":"C4","midi":60,"time":136.31250000000028,"velocity":0.44881889763779526,"duration":0.9250000000000114},{"name":"A#4","midi":70,"time":136.3296875000003,"velocity":0.8031496062992126,"duration":0.5078125},{"name":"C3","midi":48,"time":136.50000000000026,"velocity":0.4881889763779528,"duration":0.4953125000000398},{"name":"D4","midi":62,"time":136.50000000000026,"velocity":0.5826771653543307,"duration":0.5281250000000455},{"name":"C2","midi":36,"time":136.50000000000026,"velocity":0.5984251968503937,"duration":0.24531250000001137},{"name":"F#2","midi":42,"time":136.50000000000026,"velocity":0.6850393700787402,"duration":0.0859375},{"name":"F#3","midi":54,"time":136.50000000000026,"velocity":0.6141732283464567,"duration":0.09062499999998863},{"name":"A4","midi":69,"time":136.50000000000026,"velocity":0.2125984251968504,"duration":0.13437500000000568},{"name":"C4","midi":60,"time":136.50000000000026,"velocity":0.6614173228346457,"duration":1.317187500000074},{"name":"G4","midi":67,"time":136.50000000000026,"velocity":0.6850393700787402,"duration":0.7375000000000398},{"name":"D3","midi":50,"time":136.53593750000027,"velocity":0.3700787401574803,"duration":0.08749999999997726},{"name":"D#3","midi":51,"time":136.56406250000026,"velocity":0.5039370078740157,"duration":1.506250000000108},{"name":"C2","midi":36,"time":136.68750000000026,"velocity":0.6850393700787402,"duration":0.07656250000002274},{"name":"D#4","midi":63,"time":136.68750000000026,"velocity":0.5826771653543307,"duration":0.41406250000005684},{"name":"C2","midi":36,"time":136.68750000000026,"velocity":0.6456692913385826,"duration":0.4015625000000682},{"name":"A#4","midi":70,"time":136.68750000000026,"velocity":0.3543307086614173,"duration":0.23281250000002274},{"name":"F#2","midi":42,"time":136.68750000000026,"velocity":0.4015748031496063,"duration":0.05937500000001705},{"name":"F#3","midi":54,"time":136.68750000000026,"velocity":0.2992125984251969,"duration":0.05000000000001137},{"name":"D#4","midi":63,"time":136.68750000000026,"velocity":0.3464566929133858,"duration":0.7671875000000625},{"name":"A#4","midi":70,"time":136.68750000000026,"velocity":0.4015748031496063,"duration":0.5296875000000512},{"name":"C2","midi":36,"time":136.87500000000028,"velocity":0.7795275590551181,"duration":0.7265625000000284},{"name":"A#4","midi":70,"time":136.87500000000028,"velocity":0.7086614173228346,"duration":0.7109375000000284},{"name":"F#3","midi":54,"time":136.87500000000028,"velocity":0.5511811023622047,"duration":0.07968750000000568},{"name":"A4","midi":69,"time":136.87500000000028,"velocity":0.25984251968503935,"duration":0.1015625},{"name":"F#2","midi":42,"time":136.87500000000028,"velocity":0.5826771653543307,"duration":0.08437499999999432},{"name":"C2","midi":36,"time":136.87500000000028,"velocity":0.8503937007874016,"duration":0.8343750000000512},{"name":"A#4","midi":70,"time":137.0625000000003,"velocity":0.4251968503937008,"duration":0.6125000000000114},{"name":"F#2","midi":42,"time":137.0625000000003,"velocity":0.4645669291338583,"duration":0.05937499999998863},{"name":"F#3","midi":54,"time":137.0625000000003,"velocity":0.25984251968503935,"duration":0.053124999999994316},{"name":"D#4","midi":63,"time":137.0625000000003,"velocity":0.2283464566929134,"duration":0.637500000000017},{"name":"C3","midi":48,"time":137.25000000000028,"velocity":0.4330708661417323,"duration":0.6468750000000796},{"name":"D2","midi":38,"time":137.25000000000028,"velocity":0.8976377952755905,"duration":0.2203125000000341},{"name":"A#2","midi":46,"time":137.25000000000028,"velocity":0.8267716535433071,"duration":0.10625000000001705},{"name":"F#3","midi":54,"time":137.25000000000028,"velocity":0.6535433070866141,"duration":0.07968750000000568},{"name":"A4","midi":69,"time":137.25000000000028,"velocity":0.30708661417322836,"duration":0.11562500000002274},{"name":"G4","midi":67,"time":137.25000000000028,"velocity":0.4015748031496063,"duration":0.4781250000000341},{"name":"D#4","midi":63,"time":137.25000000000028,"velocity":0.5511811023622047,"duration":0.7843750000000966},{"name":"A#4","midi":70,"time":137.25000000000028,"velocity":0.7322834645669292,"duration":0.5703125000000568},{"name":"C4","midi":60,"time":137.25000000000028,"velocity":0.7086614173228346,"duration":0.6234375000000796},{"name":"G4","midi":67,"time":137.25000000000028,"velocity":0.7322834645669292,"duration":0.6390625000000796},{"name":"A#4","midi":70,"time":137.4375000000003,"velocity":0.4015748031496063,"duration":0.44687500000006253},{"name":"F#3","midi":54,"time":137.4375000000003,"velocity":0.25984251968503935,"duration":0.06406250000000568},{"name":"G1","midi":31,"time":137.6250000000003,"velocity":0.8031496062992126,"duration":0.3953125000000739},{"name":"C4","midi":60,"time":137.6250000000003,"velocity":0.5354330708661418,"duration":0.3718750000000739},{"name":"C5","midi":72,"time":137.6250000000003,"velocity":0.8740157480314961,"duration":0.4046875000000796},{"name":"F#2","midi":42,"time":137.6250000000003,"velocity":0.6456692913385826,"duration":0.09062500000001705},{"name":"A4","midi":69,"time":137.6250000000003,"velocity":0.3464566929133858,"duration":0.09687500000001137},{"name":"F#3","midi":54,"time":137.6250000000003,"velocity":0.5354330708661418,"duration":0.08125000000001137},{"name":"C2","midi":36,"time":137.6250000000003,"velocity":0.7559055118110236,"duration":0.27343750000005684},{"name":"D4","midi":62,"time":137.81250000000034,"velocity":0.5039370078740157,"duration":0.1281250000000398},{"name":"D5","midi":74,"time":137.81250000000034,"velocity":0.8503937007874016,"duration":0.20156250000005116},{"name":"A#4","midi":70,"time":137.81250000000034,"velocity":0.4409448818897638,"duration":0.13750000000004547},{"name":"F#2","midi":42,"time":137.81250000000034,"velocity":0.6456692913385826,"duration":0.05000000000001137},{"name":"F#3","midi":54,"time":137.81250000000034,"velocity":0.33070866141732286,"duration":0.05937500000001705},{"name":"G4","midi":67,"time":137.81250000000034,"velocity":0.4330708661417323,"duration":0.9171875000000114},{"name":"C4","midi":60,"time":137.81250000000034,"velocity":0.3937007874015748,"duration":0.4359374999999659},{"name":"G#1","midi":32,"time":138.0000000000004,"velocity":0.8740157480314961,"duration":1.490624999999909},{"name":"D#4","midi":63,"time":138.0000000000004,"velocity":0.6614173228346457,"duration":0.6515624999999545},{"name":"G#2","midi":44,"time":138.0000000000004,"velocity":0.7086614173228346,"duration":1.2656249999999432},{"name":"C4","midi":60,"time":138.0000000000004,"velocity":0.6141732283464567,"duration":0.3859374999999261},{"name":"D#5","midi":75,"time":138.0000000000004,"velocity":0.9212598425196851,"duration":0.3374999999999204},{"name":"C4","midi":60,"time":138.0000000000004,"velocity":0.4094488188976378,"duration":0.6718749999999432},{"name":"G#3","midi":56,"time":138.0000000000004,"velocity":0.4015748031496063,"duration":0.29687499999991473},{"name":"D#4","midi":63,"time":138.0000000000004,"velocity":0.5511811023622047,"duration":1.1609374999999602},{"name":"C4","midi":60,"time":138.0000000000004,"velocity":0.4330708661417323,"duration":0.6890624999999488},{"name":"A4","midi":69,"time":138.0000000000004,"velocity":0.4015748031496063,"duration":0.12499999999994316},{"name":"F#2","midi":42,"time":138.0000000000004,"velocity":0.8031496062992126,"duration":0.08749999999994884},{"name":"C2","midi":36,"time":138.0000000000004,"velocity":0.8740157480314961,"duration":0.3218749999999204},{"name":"F#3","midi":54,"time":138.0000000000004,"velocity":0.6771653543307087,"duration":0.08749999999994884},{"name":"D#4","midi":63,"time":138.0000000000004,"velocity":0.44881889763779526,"duration":1.4734374999999318},{"name":"C4","midi":60,"time":138.0000000000004,"velocity":0.4251968503937008,"duration":0.7296874999999545},{"name":"D#4","midi":63,"time":138.0000000000004,"velocity":0.6456692913385826,"duration":1.5484374999999204},{"name":"C4","midi":60,"time":138.0000000000004,"velocity":0.6850393700787402,"duration":0.8093749999999318},{"name":"G#3","midi":56,"time":138.0000000000004,"velocity":0.8503937007874016,"duration":0.5999999999999375},{"name":"F#2","midi":42,"time":138.18750000000034,"velocity":0.5984251968503937,"duration":0.05156249999998863},{"name":"F#3","midi":54,"time":138.18750000000034,"velocity":0.30708661417322836,"duration":0.05624999999997726},{"name":"A#4","midi":70,"time":138.18750000000034,"velocity":0.4251968503937008,"duration":0.14531249999998863},{"name":"C4","midi":60,"time":138.3750000000003,"velocity":0.3543307086614173,"duration":0.8218750000000341},{"name":"G5","midi":79,"time":138.3750000000003,"velocity":0.8503937007874016,"duration":0.35000000000005116},{"name":"F#3","midi":54,"time":138.3750000000003,"velocity":0.48031496062992124,"duration":0.08125000000001137},{"name":"A4","midi":69,"time":138.3750000000003,"velocity":0.3464566929133858,"duration":0.11406250000001705},{"name":"F#2","midi":42,"time":138.3750000000003,"velocity":0.6614173228346457,"duration":0.07968750000000568},{"name":"C4","midi":60,"time":138.3750000000003,"velocity":0.3858267716535433,"duration":0.8421875000000227},{"name":"G#3","midi":56,"time":138.3750000000003,"velocity":0.5039370078740157,"duration":0.6718750000000284},{"name":"F#3","midi":54,"time":138.56250000000034,"velocity":0.23622047244094488,"duration":0.078125},{"name":"F#2","midi":42,"time":138.56250000000034,"velocity":0.5511811023622047,"duration":0.05156249999998863},{"name":"A#4","midi":70,"time":138.56250000000034,"velocity":0.4409448818897638,"duration":0.15937500000001137},{"name":"G#3","midi":56,"time":138.75000000000034,"velocity":0.5196850393700787,"duration":0.7421874999999716},{"name":"A#4","midi":70,"time":138.75000000000034,"velocity":0.7086614173228346,"duration":0.32343750000001137},{"name":"F5","midi":77,"time":138.75000000000034,"velocity":0.7795275590551181,"duration":0.2734375},{"name":"A#4","midi":70,"time":138.75000000000034,"velocity":0.6850393700787402,"duration":0.32500000000001705},{"name":"F#2","midi":42,"time":138.75000000000034,"velocity":0.8031496062992126,"duration":0.0859375},{"name":"A4","midi":69,"time":138.75000000000034,"velocity":0.25196850393700787,"duration":0.12343749999999432},{"name":"D2","midi":38,"time":138.75000000000034,"velocity":0.8740157480314961,"duration":0.26093750000001137},{"name":"F#3","midi":54,"time":138.75000000000034,"velocity":0.6141732283464567,"duration":0.08750000000000568},{"name":"D#4","midi":63,"time":138.75000000000034,"velocity":0.6850393700787402,"duration":0.7984374999999773},{"name":"C4","midi":60,"time":138.75000000000034,"velocity":0.7086614173228346,"duration":0.6062499999999886},{"name":"A#4","midi":70,"time":138.75000000000034,"velocity":0.7559055118110236,"duration":0.6937499999999943},{"name":"C4","midi":60,"time":138.75000000000034,"velocity":0.5984251968503937,"duration":0.682812499999983},{"name":"G#3","midi":56,"time":138.75000000000034,"velocity":0.7086614173228346,"duration":0.7437499999999773},{"name":"G#4","midi":68,"time":138.75000000000034,"velocity":0.7322834645669292,"duration":0.9234375000000057},{"name":"A#4","midi":70,"time":138.75000000000034,"velocity":0.6850393700787402,"duration":1.020312500000017},{"name":"A#4","midi":70,"time":138.93750000000034,"velocity":0.41732283464566927,"duration":0.9171875000000114},{"name":"F#2","midi":42,"time":138.93750000000034,"velocity":0.29133858267716534,"duration":0.05781250000001137},{"name":"F#3","midi":54,"time":138.93750000000034,"velocity":0.2125984251968504,"duration":0.06093750000002274},{"name":"C4","midi":60,"time":139.12500000000037,"velocity":0.4015748031496063,"duration":0.4171874999999545},{"name":"D#3","midi":51,"time":139.12500000000037,"velocity":0.44881889763779526,"duration":0.3187499999999659},{"name":"F5","midi":77,"time":139.12500000000037,"velocity":0.8740157480314961,"duration":0.7234374999999886},{"name":"F#2","midi":42,"time":139.12500000000037,"velocity":0.6614173228346457,"duration":0.08281249999996021},{"name":"A4","midi":69,"time":139.12500000000037,"velocity":0.3543307086614173,"duration":0.11093749999997726},{"name":"F#3","midi":54,"time":139.12500000000037,"velocity":0.5354330708661418,"duration":0.0765624999999659},{"name":"F#3","midi":54,"time":139.31250000000034,"velocity":0.31496062992125984,"duration":0.05781249999998295},{"name":"A#4","midi":70,"time":139.31250000000034,"velocity":0.4015748031496063,"duration":0.6812499999999773},{"name":"F#2","midi":42,"time":139.31250000000034,"velocity":0.5511811023622047,"duration":0.05156249999998863},{"name":"C4","midi":60,"time":139.31250000000034,"velocity":0.28346456692913385,"duration":0.24531249999998295},{"name":"G#3","midi":56,"time":139.31250000000034,"velocity":0.4330708661417323,"duration":0.3609375000000057},{"name":"C4","midi":60,"time":139.31250000000034,"velocity":0.2677165354330709,"duration":0.3609375000000057},{"name":"A#1","midi":34,"time":139.5000000000003,"velocity":0.8031496062992126,"duration":0.33593750000005684},{"name":"D4","midi":62,"time":139.5000000000003,"velocity":0.6456692913385826,"duration":0.5546875},{"name":"A#2","midi":46,"time":139.5000000000003,"velocity":0.6614173228346457,"duration":1.0500000000000398},{"name":"F4","midi":65,"time":139.5000000000003,"velocity":0.6850393700787402,"duration":0.7390625000000455},{"name":"F3","midi":53,"time":139.5000000000003,"velocity":0.3700787401574803,"duration":1.3656250000000227},{"name":"A#3","midi":58,"time":139.5000000000003,"velocity":0.5354330708661418,"duration":0.6125000000000114},{"name":"F4","midi":65,"time":139.5000000000003,"velocity":0.6141732283464567,"duration":0.8375000000000341},{"name":"D4","midi":62,"time":139.5000000000003,"velocity":0.5826771653543307,"duration":0.7390625000000455},{"name":"C2","midi":36,"time":139.5000000000003,"velocity":0.8503937007874016,"duration":0.2203125000000341},{"name":"A4","midi":69,"time":139.5000000000003,"velocity":0.25196850393700787,"duration":0.11406250000001705},{"name":"F#3","midi":54,"time":139.5000000000003,"velocity":0.7007874015748031,"duration":0.08125000000001137},{"name":"F#2","midi":42,"time":139.5000000000003,"velocity":0.7795275590551181,"duration":0.11250000000001137},{"name":"F#3","midi":54,"time":139.68750000000034,"velocity":0.14173228346456693,"duration":0.040625000000005684},{"name":"F#2","midi":42,"time":139.68750000000034,"velocity":0.2677165354330709,"duration":0.06718750000001705},{"name":"A#4","midi":70,"time":139.68750000000034,"velocity":0.3228346456692913,"duration":0.30624999999997726},{"name":"A#3","midi":58,"time":139.68750000000034,"velocity":0.5669291338582677,"duration":0.48906250000001705},{"name":"D4","midi":62,"time":139.68750000000034,"velocity":0.5984251968503937,"duration":0.6281250000000114},{"name":"F4","midi":65,"time":139.68750000000034,"velocity":0.5826771653543307,"duration":1.1234374999999943},{"name":"A#1","midi":34,"time":139.87500000000034,"velocity":0.7559055118110236,"duration":0.6859375000000227},{"name":"A#3","midi":58,"time":139.87500000000034,"velocity":0.4094488188976378,"duration":0.36406250000001705},{"name":"D5","midi":74,"time":139.87500000000034,"velocity":0.8976377952755905,"duration":0.42812500000002274},{"name":"C2","midi":36,"time":139.87500000000034,"velocity":0.8503937007874016,"duration":0.19843749999998295},{"name":"F#3","midi":54,"time":139.87500000000034,"velocity":0.5354330708661418,"duration":0.07499999999998863},{"name":"F#2","midi":42,"time":139.87500000000034,"velocity":0.6614173228346457,"duration":0.10312499999997726},{"name":"A4","midi":69,"time":139.87500000000034,"velocity":0.3464566929133858,"duration":0.11093749999997726},{"name":"F4","midi":65,"time":139.87500000000034,"velocity":0.6850393700787402,"duration":0.9437499999999943},{"name":"D4","midi":62,"time":139.87500000000034,"velocity":0.6850393700787402,"duration":0.6328125},{"name":"A#4","midi":70,"time":139.87500000000034,"velocity":0.6850393700787402,"duration":0.33906250000001137},{"name":"A#3","midi":58,"time":139.87500000000034,"velocity":0.6614173228346457,"duration":0.6328125},{"name":"F#2","midi":42,"time":140.0625000000003,"velocity":0.4645669291338583,"duration":0.0718750000000341},{"name":"A#4","midi":70,"time":140.0625000000003,"velocity":0.4015748031496063,"duration":0.3375000000000341},{"name":"F#3","midi":54,"time":140.0625000000003,"velocity":0.3543307086614173,"duration":0.06875000000002274},{"name":"D4","midi":62,"time":140.25000000000037,"velocity":0.5826771653543307,"duration":0.31562499999998295},{"name":"F3","midi":53,"time":140.25000000000037,"velocity":0.6141732283464567,"duration":0.7343749999999716},{"name":"C5","midi":72,"time":140.25000000000037,"velocity":0.8267716535433071,"duration":0.33749999999997726},{"name":"A#3","midi":58,"time":140.25000000000037,"velocity":0.6456692913385826,"duration":0.6421874999999773},{"name":"D2","midi":38,"time":140.25000000000037,"velocity":0.8976377952755905,"duration":0.2874999999999943},{"name":"F#2","midi":42,"time":140.25000000000037,"velocity":0.7086614173228346,"duration":0.09374999999997158},{"name":"A4","midi":69,"time":140.25000000000037,"velocity":0.25984251968503935,"duration":0.12499999999997158},{"name":"F#3","midi":54,"time":140.25000000000037,"velocity":0.6535433070866141,"duration":0.08281249999998863},{"name":"D4","midi":62,"time":140.25000000000037,"velocity":0.5354330708661418,"duration":0.3593749999999716},{"name":"F4","midi":65,"time":140.25000000000037,"velocity":0.6141732283464567,"duration":0.6703124999999659},{"name":"A#3","midi":58,"time":140.25000000000037,"velocity":0.7795275590551181,"duration":0.737499999999983},{"name":"D4","midi":62,"time":140.25000000000037,"velocity":0.6456692913385826,"duration":0.5609374999999659},{"name":"C4","midi":60,"time":140.43750000000034,"velocity":0.3464566929133858,"duration":0.1953125},{"name":"F#3","midi":54,"time":140.43750000000034,"velocity":0.3464566929133858,"duration":0.07343750000001137},{"name":"F#2","midi":42,"time":140.43750000000034,"velocity":0.5669291338582677,"duration":0.08437500000002274},{"name":"A#4","midi":70,"time":140.43750000000034,"velocity":0.33858267716535434,"duration":0.13437500000000568},{"name":"F4","midi":65,"time":140.43750000000034,"velocity":0.2440944881889764,"duration":0.5500000000000114},{"name":"D4","midi":62,"time":140.43750000000034,"velocity":0.3937007874015748,"duration":0.4671874999999943},{"name":"D#4","midi":63,"time":140.43750000000034,"velocity":0.3464566929133858,"duration":0.1953125},{"name":"A#1","midi":34,"time":140.62500000000034,"velocity":0.5354330708661418,"duration":0.18437499999998863},{"name":"C4","midi":60,"time":140.62500000000034,"velocity":0.3858267716535433,"duration":0.15312499999998863},{"name":"C5","midi":72,"time":140.62500000000034,"velocity":0.8740157480314961,"duration":0.9953125000000398},{"name":"D4","midi":62,"time":140.62500000000034,"velocity":0.5039370078740157,"duration":0.34843749999998863},{"name":"A#2","midi":46,"time":140.62500000000034,"velocity":0.7559055118110236,"duration":0.09375},{"name":"F#3","midi":54,"time":140.62500000000034,"velocity":0.5511811023622047,"duration":0.078125},{"name":"A4","midi":69,"time":140.62500000000034,"velocity":0.3779527559055118,"duration":0.09843749999998863},{"name":"A#4","midi":70,"time":140.62500000000034,"velocity":0.6614173228346457,"duration":0.23593750000000568},{"name":"D4","midi":62,"time":140.62500000000034,"velocity":0.6456692913385826,"duration":0.36250000000001137},{"name":"F4","midi":65,"time":140.62500000000034,"velocity":0.5039370078740157,"duration":0.4375000000000284},{"name":"C2","midi":36,"time":140.81250000000034,"velocity":0.5984251968503937,"duration":0.12812499999998295},{"name":"D4","midi":62,"time":140.81250000000034,"velocity":0.48031496062992124,"duration":0.22656250000002842},{"name":"C4","midi":60,"time":140.81250000000034,"velocity":0.48031496062992124,"duration":0.13906249999999432},{"name":"A#4","midi":70,"time":140.81250000000034,"velocity":0.4409448818897638,"duration":0.171875},{"name":"F#3","midi":54,"time":140.81250000000034,"velocity":0.2755905511811024,"duration":0.07187500000000568},{"name":"A#3","midi":58,"time":140.81250000000034,"velocity":0.3700787401574803,"duration":0.17656250000001705},{"name":"D#4","midi":63,"time":140.81250000000034,"velocity":0.48031496062992124,"duration":0.13906249999999432},{"name":"C2","midi":36,"time":141.00000000000037,"velocity":0.8503937007874016,"duration":0.3046875},{"name":"C3","midi":48,"time":141.00000000000037,"velocity":0.6141732283464567,"duration":1.2968750000000284},{"name":"C2","midi":36,"time":141.00000000000037,"velocity":0.8031496062992126,"duration":1.2000000000000455},{"name":"D#4","midi":63,"time":141.00000000000037,"velocity":0.6850393700787402,"duration":0.6468750000000227},{"name":"C4","midi":60,"time":141.00000000000037,"velocity":0.6614173228346457,"duration":0.6953125000000284},{"name":"G3","midi":55,"time":141.00000000000037,"velocity":0.5039370078740157,"duration":0.7609375000000114},{"name":"C4","midi":60,"time":141.00000000000037,"velocity":0.5669291338582677,"duration":0.7375000000000114},{"name":"G4","midi":67,"time":141.00000000000037,"velocity":0.5984251968503937,"duration":0.7375000000000114},{"name":"D#4","midi":63,"time":141.00000000000037,"velocity":0.5039370078740157,"duration":0.6562500000000284},{"name":"F#2","midi":42,"time":141.00000000000037,"velocity":0.8267716535433071,"duration":0.0859375},{"name":"F#3","midi":54,"time":141.00000000000037,"velocity":0.6535433070866141,"duration":0.07968750000000568},{"name":"A4","midi":69,"time":141.00000000000037,"velocity":0.2125984251968504,"duration":0.13437500000000568},{"name":"C2","midi":36,"time":141.00000000000037,"velocity":0.8740157480314961,"duration":1.4187500000000455},{"name":"D#4","midi":63,"time":141.00000000000037,"velocity":0.6456692913385826,"duration":0.7375000000000114},{"name":"G4","midi":67,"time":141.00000000000037,"velocity":0.6850393700787402,"duration":1.6734375000000625},{"name":"C4","midi":60,"time":141.00000000000037,"velocity":0.7322834645669292,"duration":1.4093750000000398},{"name":"A#4","midi":70,"time":141.18750000000037,"velocity":0.3543307086614173,"duration":0.15000000000000568},{"name":"F#2","midi":42,"time":141.18750000000037,"velocity":0.48031496062992124,"duration":0.056250000000005684},{"name":"F#3","midi":54,"time":141.18750000000037,"velocity":0.31496062992125984,"duration":0.06406250000000568},{"name":"G3","midi":55,"time":141.37500000000037,"velocity":0.4015748031496063,"duration":0.38593750000001137},{"name":"G3","midi":55,"time":141.37500000000037,"velocity":0.44881889763779526,"duration":1.0187500000000398},{"name":"A4","midi":69,"time":141.37500000000037,"velocity":0.25984251968503935,"duration":0.1015625},{"name":"F#2","midi":42,"time":141.37500000000037,"velocity":0.6614173228346457,"duration":0.08750000000000568},{"name":"F#3","midi":54,"time":141.37500000000037,"velocity":0.5039370078740157,"duration":0.07656249999999432},{"name":"D#4","midi":63,"time":141.37500000000037,"velocity":0.25984251968503935,"duration":0.7765625000000398},{"name":"G4","midi":67,"time":141.37500000000037,"velocity":0.29133858267716534,"duration":1.392187500000034},{"name":"C4","midi":60,"time":141.37500000000037,"velocity":0.4015748031496063,"duration":1.2093750000000512},{"name":"G3","midi":55,"time":141.37500000000037,"velocity":0.44881889763779526,"duration":1.978125000000091},{"name":"A#4","midi":70,"time":141.56250000000037,"velocity":0.4251968503937008,"duration":0.15468750000002274},{"name":"F#2","midi":42,"time":141.56250000000037,"velocity":0.33858267716535434,"duration":0.06093750000002274},{"name":"F#3","midi":54,"time":141.56250000000037,"velocity":0.2755905511811024,"duration":0.05781250000001137},{"name":"D#4","midi":63,"time":141.75000000000037,"velocity":0.4330708661417323,"duration":0.4015625000000398},{"name":"D#4","midi":63,"time":141.75000000000037,"velocity":0.8267716535433071,"duration":0.4953125000000398},{"name":"D2","midi":38,"time":141.75000000000037,"velocity":0.8976377952755905,"duration":0.2046875000000341},{"name":"F#2","midi":42,"time":141.75000000000037,"velocity":0.7322834645669292,"duration":0.09218750000002274},{"name":"A4","midi":69,"time":141.75000000000037,"velocity":0.30708661417322836,"duration":0.11562500000002274},{"name":"F#3","midi":54,"time":141.75000000000037,"velocity":0.6535433070866141,"duration":0.07343750000001137},{"name":"D#4","midi":63,"time":141.75000000000037,"velocity":0.7086614173228346,"duration":0.6750000000000398},{"name":"A#4","midi":70,"time":141.75000000000037,"velocity":0.7322834645669292,"duration":0.3359375000000284},{"name":"C4","midi":60,"time":141.75000000000037,"velocity":0.7322834645669292,"duration":0.9234375000000625},{"name":"G4","midi":67,"time":141.75000000000037,"velocity":0.8031496062992126,"duration":1.1171875000000568},{"name":"D#4","midi":63,"time":141.75000000000037,"velocity":0.8267716535433071,"duration":1.0359375000000455},{"name":"F#2","midi":42,"time":141.9375000000004,"velocity":0.4645669291338583,"duration":0.07187500000000568},{"name":"A#4","midi":70,"time":141.9375000000004,"velocity":0.4015748031496063,"duration":0.3296875000000057},{"name":"F#3","midi":54,"time":141.9375000000004,"velocity":0.2047244094488189,"duration":0.03593750000001705},{"name":"D4","midi":62,"time":142.1250000000004,"velocity":0.8031496062992126,"duration":0.7515625000000341},{"name":"F#3","midi":54,"time":142.1250000000004,"velocity":0.5511811023622047,"duration":0.07500000000001705},{"name":"F#2","midi":42,"time":142.1250000000004,"velocity":0.7322834645669292,"duration":0.07656250000002274},{"name":"A4","midi":69,"time":142.1250000000004,"velocity":0.3464566929133858,"duration":0.09687500000001137},{"name":"D4","midi":62,"time":142.1250000000004,"velocity":0.8031496062992126,"duration":0.7515625000000341},{"name":"C2","midi":36,"time":142.3125000000004,"velocity":0.7795275590551181,"duration":0.3203125000000284},{"name":"C2","midi":36,"time":142.3125000000004,"velocity":0.7322834645669292,"duration":0.41093750000001705},{"name":"F#2","midi":42,"time":142.3125000000004,"velocity":0.5669291338582677,"duration":0.05937500000001705},{"name":"F#3","midi":54,"time":142.3125000000004,"velocity":0.25984251968503935,"duration":0.05000000000001137},{"name":"A#4","midi":70,"time":142.3125000000004,"velocity":0.4409448818897638,"duration":0.13750000000001705},{"name":"C4","midi":60,"time":142.3125000000004,"velocity":0.5669291338582677,"duration":0.5546875000000284},{"name":"C4","midi":60,"time":142.50000000000043,"velocity":0.5984251968503937,"duration":0.46875},{"name":"D#4","midi":63,"time":142.50000000000043,"velocity":0.6299212598425197,"duration":0.3671875},{"name":"C3","midi":48,"time":142.50000000000043,"velocity":0.5196850393700787,"duration":1.3875000000000455},{"name":"A4","midi":69,"time":142.50000000000043,"velocity":0.33070866141732286,"duration":0.09375},{"name":"F#2","midi":42,"time":142.50000000000043,"velocity":0.7086614173228346,"duration":0.09687500000001137},{"name":"F#3","midi":54,"time":142.50000000000043,"velocity":0.5748031496062992,"duration":0.07968750000000568},{"name":"D#4","midi":63,"time":142.50000000000043,"velocity":0.5984251968503937,"duration":0.4156250000000057},{"name":"A#4","midi":70,"time":142.50000000000043,"velocity":0.6614173228346457,"duration":0.32499999999998863},{"name":"C2","midi":36,"time":142.68750000000043,"velocity":0.6456692913385826,"duration":0.109375},{"name":"A#4","midi":70,"time":142.68750000000043,"velocity":0.4251968503937008,"duration":0.17812499999999432},{"name":"F#2","midi":42,"time":142.68750000000043,"velocity":0.4645669291338583,"duration":0.06562499999998295},{"name":"F#3","midi":54,"time":142.68750000000043,"velocity":0.25196850393700787,"duration":0.060937499999994316},{"name":"C2","midi":36,"time":142.68750000000043,"velocity":0.5354330708661418,"duration":0.22968750000001137},{"name":"D#4","midi":63,"time":142.68750000000043,"velocity":0.3858267716535433,"duration":0.45156250000002274},{"name":"G4","midi":67,"time":142.68750000000043,"velocity":0.44881889763779526,"duration":0.5531250000000227},{"name":"C4","midi":60,"time":142.68750000000043,"velocity":0.2677165354330709,"duration":0.5531250000000227},{"name":"C2","midi":36,"time":142.87500000000043,"velocity":0.8031496062992126,"duration":0.171875},{"name":"G3","midi":55,"time":142.87500000000043,"velocity":0.3858267716535433,"duration":1.1187500000000625},{"name":"D#4","midi":63,"time":142.87500000000043,"velocity":0.7795275590551181,"duration":0.36562500000002274},{"name":"F#3","midi":54,"time":142.87500000000043,"velocity":0.5905511811023622,"duration":0.078125},{"name":"C2","midi":36,"time":142.87500000000043,"velocity":0.8740157480314961,"duration":0.7875000000000227},{"name":"A4","midi":69,"time":142.87500000000043,"velocity":0.3937007874015748,"duration":0.08750000000000568},{"name":"A#2","midi":46,"time":142.87500000000043,"velocity":0.7795275590551181,"duration":0.11093750000000568},{"name":"G4","midi":67,"time":142.87500000000043,"velocity":0.4330708661417323,"duration":0.7093750000000227},{"name":"D#4","midi":63,"time":142.87500000000043,"velocity":0.2440944881889764,"duration":0.5093750000000341},{"name":"D#4","midi":63,"time":142.87500000000043,"velocity":0.7322834645669292,"duration":0.645312500000017},{"name":"G4","midi":67,"time":142.87500000000043,"velocity":0.7559055118110236,"duration":0.8453125000000057},{"name":"C4","midi":60,"time":142.87500000000043,"velocity":0.7322834645669292,"duration":0.9562500000000114},{"name":"D#4","midi":63,"time":142.87500000000043,"velocity":0.7795275590551181,"duration":0.6515625000000114},{"name":"A#4","midi":70,"time":143.06250000000043,"velocity":0.4409448818897638,"duration":0.1421875000000341},{"name":"F#3","midi":54,"time":143.06250000000043,"velocity":0.2125984251968504,"duration":0.07343750000001137},{"name":"C2","midi":36,"time":143.25000000000045,"velocity":0.7086614173228346,"duration":0.46406249999998295},{"name":"D#4","midi":63,"time":143.25000000000045,"velocity":0.5826771653543307,"duration":0.44687499999997726},{"name":"C4","midi":60,"time":143.25000000000045,"velocity":0.5511811023622047,"duration":0.5921874999999943},{"name":"C5","midi":72,"time":143.25000000000045,"velocity":0.8976377952755905,"duration":0.18593749999999432},{"name":"C3","midi":48,"time":143.25000000000045,"velocity":0.3858267716535433,"duration":0.7343750000000284},{"name":"F#3","midi":54,"time":143.25000000000045,"velocity":0.5354330708661418,"duration":0.07656249999999432},{"name":"A4","midi":69,"time":143.25000000000045,"velocity":0.3228346456692913,"duration":0.07656249999999432},{"name":"D2","midi":38,"time":143.25000000000045,"velocity":0.8976377952755905,"duration":0.203125},{"name":"F#2","midi":42,"time":143.25000000000045,"velocity":0.4881889763779528,"duration":0.05937499999998863},{"name":"A#4","midi":70,"time":143.25000000000045,"velocity":0.6614173228346457,"duration":0.3187499999999943},{"name":"D#4","midi":63,"time":143.25000000000045,"velocity":0.6456692913385826,"duration":0.692187500000017},{"name":"G4","midi":67,"time":143.25000000000045,"velocity":0.7795275590551181,"duration":0.7015625000000227},{"name":"C4","midi":60,"time":143.25000000000045,"velocity":0.7086614173228346,"duration":0.6406250000000284},{"name":"G3","midi":55,"time":143.43750000000045,"velocity":0.44881889763779526,"duration":0.6015625000000284},{"name":"D5","midi":74,"time":143.43750000000045,"velocity":0.8503937007874016,"duration":0.3828124999999716},{"name":"F#2","midi":42,"time":143.43750000000045,"velocity":0.5196850393700787,"duration":0.07499999999998863},{"name":"F#3","midi":54,"time":143.43750000000045,"velocity":0.2204724409448819,"duration":0.06718749999998863},{"name":"A#4","midi":70,"time":143.43750000000045,"velocity":0.3779527559055118,"duration":0.15156249999998295},{"name":"D#4","midi":63,"time":143.43750000000045,"velocity":0.3937007874015748,"duration":0.5078125000000284},{"name":"D4","midi":62,"time":143.43750000000045,"velocity":0.5826771653543307,"duration":0.17812499999999432},{"name":"A#1","midi":34,"time":143.62500000000045,"velocity":0.7795275590551181,"duration":0.3921875000000341},{"name":"F#3","midi":54,"time":143.62500000000045,"velocity":0.5748031496062992,"duration":0.07968749999997726},{"name":"A4","midi":69,"time":143.62500000000045,"velocity":0.41732283464566927,"duration":0.11093749999997726},{"name":"F#2","midi":42,"time":143.62500000000045,"velocity":0.5984251968503937,"duration":0.06718749999998863},{"name":"C2","midi":36,"time":143.62500000000045,"velocity":0.8031496062992126,"duration":0.33437500000002274},{"name":"G4","midi":67,"time":143.62500000000045,"velocity":0.48031496062992124,"duration":0.34062500000001705},{"name":"A#4","midi":70,"time":143.62500000000045,"velocity":0.4566929133858268,"duration":0.10624999999998863},{"name":"D#4","midi":63,"time":143.62500000000045,"velocity":0.44881889763779526,"duration":0.35625000000001705},{"name":"C4","midi":60,"time":143.62500000000045,"velocity":0.48031496062992124,"duration":0.32500000000001705},{"name":"D#5","midi":75,"time":143.81250000000043,"velocity":0.8740157480314961,"duration":0.5140625000000796},{"name":"F#2","midi":42,"time":143.81250000000043,"velocity":0.5511811023622047,"duration":0.040625000000034106},{"name":"F#3","midi":54,"time":143.81250000000043,"velocity":0.23622047244094488,"duration":0.06562500000003979},{"name":"A#4","midi":70,"time":143.81250000000043,"velocity":0.5196850393700787,"duration":0.14531250000004547},{"name":"G4","midi":67,"time":143.81250000000043,"velocity":0.5669291338582677,"duration":0.1750000000000682},{"name":"D#4","midi":63,"time":143.81250000000043,"velocity":0.4330708661417323,"duration":0.17187500000005684},{"name":"C4","midi":60,"time":143.81250000000043,"velocity":0.5039370078740157,"duration":0.1750000000000682},{"name":"A#3","midi":58,"time":143.81250000000043,"velocity":0.48031496062992124,"duration":0.16093750000004547},{"name":"G#1","midi":32,"time":144.00000000000048,"velocity":0.8503937007874016,"duration":1.4578125000001023},{"name":"G#3","midi":56,"time":144.00000000000048,"velocity":0.5826771653543307,"duration":0.4875000000000398},{"name":"D#3","midi":51,"time":144.00000000000048,"velocity":0.5826771653543307,"duration":0.5281250000000455},{"name":"G#2","midi":44,"time":144.00000000000048,"velocity":0.6614173228346457,"duration":1.1593750000000966},{"name":"C4","midi":60,"time":144.00000000000048,"velocity":0.6614173228346457,"duration":0.32656250000002274},{"name":"D#4","midi":63,"time":144.00000000000048,"velocity":0.6614173228346457,"duration":0.6890625000000625},{"name":"G#3","midi":56,"time":144.00000000000048,"velocity":0.44881889763779526,"duration":0.9687500000000568},{"name":"D#3","midi":51,"time":144.00000000000048,"velocity":0.4330708661417323,"duration":1.521875000000108},{"name":"D#5","midi":75,"time":144.00000000000048,"velocity":0.5669291338582677,"duration":1.514062500000108},{"name":"C5","midi":72,"time":144.00000000000048,"velocity":0.4881889763779528,"duration":1.5156250000001137},{"name":"F#3","midi":54,"time":144.00000000000048,"velocity":0.6141732283464567,"duration":0.0859375},{"name":"C2","midi":36,"time":144.00000000000048,"velocity":0.8976377952755905,"duration":0.27656250000001137},{"name":"F#2","midi":42,"time":144.00000000000048,"velocity":0.7795275590551181,"duration":0.0859375},{"name":"A4","midi":69,"time":144.00000000000048,"velocity":0.4015748031496063,"duration":0.125},{"name":"C4","midi":60,"time":144.00000000000048,"velocity":0.5826771653543307,"duration":0.5703125000000568},{"name":"D#4","midi":63,"time":144.00000000000048,"velocity":0.6456692913385826,"duration":0.7375000000000682},{"name":"C4","midi":60,"time":144.00000000000048,"velocity":0.7086614173228346,"duration":0.6250000000000568},{"name":"D#4","midi":63,"time":144.00000000000048,"velocity":0.6850393700787402,"duration":1.1437500000000966},{"name":"G#4","midi":68,"time":144.00000000000048,"velocity":0.8031496062992126,"duration":0.7375000000000682},{"name":"F#3","midi":54,"time":144.18750000000048,"velocity":0.2125984251968504,"duration":0.07187500000000568},{"name":"F#2","midi":42,"time":144.18750000000048,"velocity":0.3543307086614173,"duration":0.06406250000000568},{"name":"A#4","midi":70,"time":144.18750000000048,"velocity":0.4251968503937008,"duration":0.14531250000001705},{"name":"C4","midi":60,"time":144.3750000000005,"velocity":0.3858267716535433,"duration":0.2906250000000341},{"name":"G5","midi":79,"time":144.3750000000005,"velocity":0.8503937007874016,"duration":0.4000000000000341},{"name":"A4","midi":69,"time":144.3750000000005,"velocity":0.3464566929133858,"duration":0.11406250000001705},{"name":"F#3","midi":54,"time":144.3750000000005,"velocity":0.5905511811023622,"duration":0.07968750000000568},{"name":"F#2","midi":42,"time":144.3750000000005,"velocity":0.6141732283464567,"duration":0.078125},{"name":"C4","midi":60,"time":144.3750000000005,"velocity":0.5511811023622047,"duration":0.3625000000000398},{"name":"F#3","midi":54,"time":144.56250000000054,"velocity":0.2125984251968504,"duration":0.056250000000005684},{"name":"F#2","midi":42,"time":144.56250000000054,"velocity":0.5826771653543307,"duration":0.06562500000001137},{"name":"A#4","midi":70,"time":144.56250000000054,"velocity":0.4409448818897638,"duration":0.15937500000001137},{"name":"C4","midi":60,"time":144.75000000000054,"velocity":0.5354330708661418,"duration":0.2718749999999943},{"name":"G#3","midi":56,"time":144.75000000000054,"velocity":0.3858267716535433,"duration":0.8062500000000625},{"name":"A#4","midi":70,"time":144.75000000000054,"velocity":0.7322834645669292,"duration":0.32500000000001705},{"name":"F5","midi":77,"time":144.75000000000054,"velocity":0.7795275590551181,"duration":0.2828125000000057},{"name":"A#4","midi":70,"time":144.75000000000054,"velocity":0.8740157480314961,"duration":0.35000000000002274},{"name":"F#2","midi":42,"time":144.75000000000054,"velocity":0.8267716535433071,"duration":0.07656249999999432},{"name":"D2","midi":38,"time":144.75000000000054,"velocity":0.9212598425196851,"duration":0.3062500000000057},{"name":"F#3","midi":54,"time":144.75000000000054,"velocity":0.6141732283464567,"duration":0.0859375},{"name":"A4","midi":69,"time":144.75000000000054,"velocity":0.25196850393700787,"duration":0.12343749999999432},{"name":"D#4","midi":63,"time":144.75000000000054,"velocity":0.5196850393700787,"duration":0.6031250000000625},{"name":"C4","midi":60,"time":144.75000000000054,"velocity":0.6141732283464567,"duration":0.6078125000000512},{"name":"A#4","midi":70,"time":144.75000000000054,"velocity":0.7322834645669292,"duration":0.5953125000000625},{"name":"C4","midi":60,"time":144.75000000000054,"velocity":0.7086614173228346,"duration":0.6703125000000512},{"name":"D#4","midi":63,"time":144.75000000000054,"velocity":0.6850393700787402,"duration":0.923437500000091},{"name":"G#4","midi":68,"time":144.75000000000054,"velocity":0.7322834645669292,"duration":0.923437500000091},{"name":"A#4","midi":70,"time":144.75000000000054,"velocity":0.8740157480314961,"duration":0.6937500000000512},{"name":"A#4","midi":70,"time":144.93750000000054,"velocity":0.41732283464566927,"duration":0.9171875000000966},{"name":"F#2","midi":42,"time":144.93750000000054,"velocity":0.3464566929133858,"duration":0.0703125},{"name":"F#3","midi":54,"time":144.93750000000054,"velocity":0.14173228346456693,"duration":0.07499999999998863},{"name":"F5","midi":77,"time":145.12500000000057,"velocity":0.8740157480314961,"duration":0.5531250000000512},{"name":"A4","midi":69,"time":145.12500000000057,"velocity":0.3543307086614173,"duration":0.1109375000000341},{"name":"F#2","midi":42,"time":145.12500000000057,"velocity":0.6614173228346457,"duration":0.08593750000002842},{"name":"F#3","midi":54,"time":145.12500000000057,"velocity":0.5905511811023622,"duration":0.08281250000001705},{"name":"A#4","midi":70,"time":145.3125000000006,"velocity":0.4015748031496063,"duration":0.8421875000000227},{"name":"F#3","midi":54,"time":145.3125000000006,"velocity":0.30708661417322836,"duration":0.048437500000005684},{"name":"F#2","midi":42,"time":145.3125000000006,"velocity":0.4645669291338583,"duration":0.078125},{"name":"C4","midi":60,"time":145.3125000000006,"velocity":0.31496062992125984,"duration":0.3609375000000341},{"name":"A#1","midi":34,"time":145.5000000000006,"velocity":0.8503937007874016,"duration":1.1562500000001137},{"name":"D4","midi":62,"time":145.5000000000006,"velocity":0.6614173228346457,"duration":0.6968750000000341},{"name":"A#2","midi":46,"time":145.5000000000006,"velocity":0.6614173228346457,"duration":0.5218750000000227},{"name":"F3","midi":53,"time":145.5000000000006,"velocity":0.6456692913385826,"duration":0.6484375000000284},{"name":"A#3","midi":58,"time":145.5000000000006,"velocity":0.5669291338582677,"duration":0.6640625000000284},{"name":"F4","midi":65,"time":145.5000000000006,"velocity":0.6299212598425197,"duration":0.7390625000000455},{"name":"F3","midi":53,"time":145.5000000000006,"velocity":0.4881889763779528,"duration":1.4343750000001592},{"name":"A#3","midi":58,"time":145.5000000000006,"velocity":0.5984251968503937,"duration":0.7390625000000455},{"name":"F5","midi":77,"time":145.5000000000006,"velocity":0.5826771653543307,"duration":0.8531250000000625},{"name":"D5","midi":74,"time":145.5000000000006,"velocity":0.5669291338582677,"duration":1.1218750000001023},{"name":"F#2","midi":42,"time":145.5000000000006,"velocity":0.7322834645669292,"duration":0.08281250000001705},{"name":"F#3","midi":54,"time":145.5000000000006,"velocity":0.6141732283464567,"duration":0.08125000000001137},{"name":"C2","midi":36,"time":145.5000000000006,"velocity":0.8503937007874016,"duration":0.12500000000002842},{"name":"A4","midi":69,"time":145.5000000000006,"velocity":0.25196850393700787,"duration":0.11406250000001705},{"name":"F4","midi":65,"time":145.5000000000006,"velocity":0.6299212598425197,"duration":1.265625000000142},{"name":"D4","midi":62,"time":145.5000000000006,"velocity":0.6456692913385826,"duration":0.7390625000000455},{"name":"A#4","midi":70,"time":145.5000000000006,"velocity":0.5984251968503937,"duration":0.6546875000000227},{"name":"F#3","midi":54,"time":145.68750000000063,"velocity":0.23622047244094488,"duration":0.08906250000001137},{"name":"A#4","midi":70,"time":145.68750000000063,"velocity":0.3228346456692913,"duration":0.5265625000000114},{"name":"F#2","midi":42,"time":145.68750000000063,"velocity":0.4330708661417323,"duration":0.06562500000001137},{"name":"D4","midi":62,"time":145.68750000000063,"velocity":0.5669291338582677,"duration":0.9921875000000853},{"name":"A#3","midi":58,"time":145.68750000000063,"velocity":0.6614173228346457,"duration":1.2625000000001307},{"name":"F4","midi":65,"time":145.68750000000063,"velocity":0.5826771653543307,"duration":1.2265625000001137},{"name":"D5","midi":74,"time":145.87500000000063,"velocity":0.9212598425196851,"duration":1.0828125000001307},{"name":"G4","midi":67,"time":145.87500000000063,"velocity":0.5826771653543307,"duration":0.6812500000000625},{"name":"A#2","midi":46,"time":145.87500000000063,"velocity":0.7559055118110236,"duration":0.8515625000001137},{"name":"A4","midi":69,"time":145.87500000000063,"velocity":0.3464566929133858,"duration":0.11093750000000568},{"name":"B2","midi":47,"time":145.87500000000063,"velocity":0.9212598425196851,"duration":0.22187500000001137},{"name":"F#3","midi":54,"time":145.87500000000063,"velocity":0.5748031496062992,"duration":0.0859375},{"name":"D4","midi":62,"time":145.87500000000063,"velocity":0.5039370078740157,"duration":0.8046875000000853},{"name":"A#3","midi":58,"time":145.87500000000063,"velocity":0.6456692913385826,"duration":1.0750000000001307},{"name":"A#4","midi":70,"time":146.06250000000063,"velocity":0.4015748031496063,"duration":0.5093750000000625},{"name":"F#3","midi":54,"time":146.06250000000063,"velocity":0.2204724409448819,"duration":0.07343750000001137},{"name":"F3","midi":53,"time":146.25000000000065,"velocity":0.4645669291338583,"duration":0.775000000000091},{"name":"A#4","midi":70,"time":146.25000000000065,"velocity":0.5826771653543307,"duration":0.3718750000000455},{"name":"D#4","midi":63,"time":146.25000000000065,"velocity":0.8503937007874016,"duration":0.18750000000002842},{"name":"A4","midi":69,"time":146.25000000000065,"velocity":0.25984251968503935,"duration":0.12500000000002842},{"name":"F#2","midi":42,"time":146.25000000000065,"velocity":0.6850393700787402,"duration":0.10625000000001705},{"name":"D2","midi":38,"time":146.25000000000065,"velocity":0.8267716535433071,"duration":0.0859375},{"name":"F#3","midi":54,"time":146.25000000000065,"velocity":0.5354330708661418,"duration":0.0859375},{"name":"F4","midi":65,"time":146.25000000000065,"velocity":0.6299212598425197,"duration":0.6984375000000966},{"name":"D4","midi":62,"time":146.25000000000065,"velocity":0.8031496062992126,"duration":0.532812500000091},{"name":"A#3","midi":58,"time":146.25000000000065,"velocity":0.8267716535433071,"duration":0.7703125000001023},{"name":"D#4","midi":63,"time":146.25000000000065,"velocity":0.8503937007874016,"duration":0.18750000000002842},{"name":"D4","midi":62,"time":146.43750000000068,"velocity":0.6456692913385826,"duration":0.4984375000000796},{"name":"F#3","midi":54,"time":146.43750000000068,"velocity":0.1968503937007874,"duration":0.05000000000001137},{"name":"A#4","midi":70,"time":146.43750000000068,"velocity":0.33858267716535434,"duration":0.48593750000006253},{"name":"D2","midi":38,"time":146.43750000000068,"velocity":0.8503937007874016,"duration":0.08906250000001137},{"name":"D4","midi":62,"time":146.43750000000068,"velocity":0.6456692913385826,"duration":0.5093750000000625},{"name":"D2","midi":38,"time":146.6250000000007,"velocity":0.6614173228346457,"duration":0.4187500000000455},{"name":"D#5","midi":75,"time":146.6250000000007,"velocity":0.8740157480314961,"duration":0.8500000000000796},{"name":"D#4","midi":63,"time":146.6250000000007,"velocity":0.5511811023622047,"duration":0.6515625000000398},{"name":"A4","midi":69,"time":146.6250000000007,"velocity":0.3779527559055118,"duration":0.09843750000001705},{"name":"F#3","midi":54,"time":146.6250000000007,"velocity":0.6141732283464567,"duration":0.08750000000000568},{"name":"A#2","midi":46,"time":146.6250000000007,"velocity":0.6850393700787402,"duration":0.3156250000000398},{"name":"G2","midi":43,"time":146.6250000000007,"velocity":0.8976377952755905,"duration":0.18750000000002842},{"name":"D#4","midi":63,"time":146.81250000000074,"velocity":0.8267716535433071,"duration":1.0078125000000284},{"name":"F#3","midi":54,"time":146.81250000000074,"velocity":0.2204724409448819,"duration":0.05937499999998863},{"name":"A#4","midi":70,"time":146.81250000000074,"velocity":0.4409448818897638,"duration":0.17187500000002842},{"name":"D#4","midi":63,"time":146.81250000000074,"velocity":0.8267716535433071,"duration":1.0078125000000284},{"name":"D#2","midi":39,"time":147.00000000000077,"velocity":0.8503937007874016,"duration":1.2578125},{"name":"A#3","midi":58,"time":147.00000000000077,"velocity":0.5826771653543307,"duration":0.45625000000001137},{"name":"G3","midi":55,"time":147.00000000000077,"velocity":0.5984251968503937,"duration":0.9937500000000057},{"name":"D#4","midi":63,"time":147.00000000000077,"velocity":0.6456692913385826,"duration":0.8390625000000114},{"name":"D#3","midi":51,"time":147.00000000000077,"velocity":0.6299212598425197,"duration":1.1687499999999886},{"name":"D#4","midi":63,"time":147.00000000000077,"velocity":0.6299212598425197,"duration":1.046875},{"name":"G3","midi":55,"time":147.00000000000077,"velocity":0.6850393700787402,"duration":1.3687499999999773},{"name":"G4","midi":67,"time":147.00000000000077,"velocity":0.6614173228346457,"duration":0.45937500000002274},{"name":"D#4","midi":63,"time":147.00000000000077,"velocity":0.5826771653543307,"duration":1.328125},{"name":"D#5","midi":75,"time":147.00000000000077,"velocity":0.4566929133858268,"duration":0.4921875000000284},{"name":"C2","midi":36,"time":147.00000000000077,"velocity":0.8740157480314961,"duration":0.32187499999997726},{"name":"A4","midi":69,"time":147.00000000000077,"velocity":0.4015748031496063,"duration":0.125},{"name":"F#2","midi":42,"time":147.00000000000077,"velocity":0.8031496062992126,"duration":0.08749999999997726},{"name":"F#3","midi":54,"time":147.00000000000077,"velocity":0.6771653543307087,"duration":0.08749999999997726},{"name":"D#5","midi":75,"time":147.00000000000077,"velocity":0.6141732283464567,"duration":1.2609375000000114},{"name":"G4","midi":67,"time":147.00000000000077,"velocity":0.6614173228346457,"duration":0.6250000000000284},{"name":"A#4","midi":70,"time":147.00000000000077,"velocity":0.6456692913385826,"duration":0.33281249999998863},{"name":"G4","midi":67,"time":147.00000000000077,"velocity":0.5826771653543307,"duration":0.8812499999999943},{"name":"A#3","midi":58,"time":147.00000000000077,"velocity":0.7322834645669292,"duration":0.8671875},{"name":"D#4","midi":63,"time":147.00000000000077,"velocity":0.7559055118110236,"duration":2.2062500000000114},{"name":"A#4","midi":70,"time":147.18750000000077,"velocity":0.4251968503937008,"duration":0.48125000000001705},{"name":"F#3","midi":54,"time":147.18750000000077,"velocity":0.30708661417322836,"duration":0.05624999999997726},{"name":"F#2","midi":42,"time":147.18750000000077,"velocity":0.5984251968503937,"duration":0.05156249999998863},{"name":"F#3","midi":54,"time":147.37500000000077,"velocity":0.48031496062992124,"duration":0.08125000000001137},{"name":"A4","midi":69,"time":147.37500000000077,"velocity":0.3464566929133858,"duration":0.11406250000001705},{"name":"F#2","midi":42,"time":147.37500000000077,"velocity":0.6614173228346457,"duration":0.07968750000000568},{"name":"A#4","midi":70,"time":147.5625000000008,"velocity":0.4409448818897638,"duration":0.15937499999998295},{"name":"F#2","midi":42,"time":147.5625000000008,"velocity":0.5511811023622047,"duration":0.05156249999998863},{"name":"F#3","midi":54,"time":147.5625000000008,"velocity":0.23622047244094488,"duration":0.078125},{"name":"G4","midi":67,"time":147.5625000000008,"velocity":0.6456692913385826,"duration":0.5062499999999659},{"name":"A#3","midi":58,"time":147.5625000000008,"velocity":0.5984251968503937,"duration":0.47812499999997726},{"name":"F#3","midi":54,"time":147.75000000000077,"velocity":0.6141732283464567,"duration":0.08750000000000568},{"name":"A4","midi":69,"time":147.75000000000077,"velocity":0.25196850393700787,"duration":0.12343749999999432},{"name":"D2","midi":38,"time":147.75000000000077,"velocity":0.8740157480314961,"duration":0.26093750000001137},{"name":"F#2","midi":42,"time":147.75000000000077,"velocity":0.8031496062992126,"duration":0.0859375},{"name":"G4","midi":67,"time":147.75000000000077,"velocity":0.6850393700787402,"duration":0.4593749999999943},{"name":"A#4","midi":70,"time":147.75000000000077,"velocity":0.6850393700787402,"duration":0.32499999999998863},{"name":"D#5","midi":75,"time":147.75000000000077,"velocity":0.7322834645669292,"duration":0.9000000000000057},{"name":"A#4","midi":70,"time":147.93750000000077,"velocity":0.41732283464566927,"duration":0.26874999999998295},{"name":"F#3","midi":54,"time":147.93750000000077,"velocity":0.2125984251968504,"duration":0.06093750000002274},{"name":"F#2","midi":42,"time":147.93750000000077,"velocity":0.29133858267716534,"duration":0.05781250000001137},{"name":"G4","midi":67,"time":147.93750000000077,"velocity":0.5826771653543307,"duration":0.7046875000000057},{"name":"A#3","midi":58,"time":147.93750000000077,"velocity":0.5669291338582677,"duration":0.36250000000001137},{"name":"D#4","midi":63,"time":147.93750000000077,"velocity":0.3543307086614173,"duration":1.650000000000091},{"name":"G3","midi":55,"time":148.12500000000077,"velocity":0.3464566929133858,"duration":0.59375},{"name":"G4","midi":67,"time":148.12500000000077,"velocity":0.5669291338582677,"duration":0.5250000000000057},{"name":"F#2","midi":42,"time":148.12500000000077,"velocity":0.6614173228346457,"duration":0.08281249999998863},{"name":"A4","midi":69,"time":148.12500000000077,"velocity":0.3543307086614173,"duration":0.11093750000000568},{"name":"F#3","midi":54,"time":148.12500000000077,"velocity":0.5354330708661418,"duration":0.07656249999999432},{"name":"D#4","midi":63,"time":148.12500000000077,"velocity":0.5196850393700787,"duration":1.760937500000125},{"name":"G4","midi":67,"time":148.12500000000077,"velocity":0.5669291338582677,"duration":0.703125},{"name":"A#3","midi":58,"time":148.12500000000077,"velocity":0.5826771653543307,"duration":0.5078125},{"name":"D#2","midi":39,"time":148.31250000000077,"velocity":0.5511811023622047,"duration":0.11718749999997158},{"name":"F#2","midi":42,"time":148.31250000000077,"velocity":0.5511811023622047,"duration":0.05156249999998863},{"name":"A#4","midi":70,"time":148.31250000000077,"velocity":0.4015748031496063,"duration":0.1312499999999659},{"name":"F#3","midi":54,"time":148.31250000000077,"velocity":0.31496062992125984,"duration":0.05781249999998295},{"name":"G4","midi":67,"time":148.31250000000077,"velocity":0.5984251968503937,"duration":0.5687499999999943},{"name":"D#5","midi":75,"time":148.31250000000077,"velocity":0.4251968503937008,"duration":0.6468749999999943},{"name":"A#4","midi":70,"time":148.31250000000077,"velocity":0.6456692913385826,"duration":0.3218750000000057},{"name":"D#2","midi":39,"time":148.50000000000074,"velocity":0.7086614173228346,"duration":0.2906250000000341},{"name":"D#3","midi":51,"time":148.50000000000074,"velocity":0.5669291338582677,"duration":0.876562500000091},{"name":"G3","midi":55,"time":148.50000000000074,"velocity":0.5196850393700787,"duration":0.8156250000000682},{"name":"D#4","midi":63,"time":148.50000000000074,"velocity":0.5826771653543307,"duration":1.4125000000001648},{"name":"A#3","midi":58,"time":148.50000000000074,"velocity":0.5196850393700787,"duration":0.5375000000000227},{"name":"C2","midi":36,"time":148.50000000000074,"velocity":0.8503937007874016,"duration":0.2203125000000341},{"name":"F#2","midi":42,"time":148.50000000000074,"velocity":0.7795275590551181,"duration":0.11250000000001137},{"name":"F#3","midi":54,"time":148.50000000000074,"velocity":0.7007874015748031,"duration":0.08125000000001137},{"name":"A4","midi":69,"time":148.50000000000074,"velocity":0.25196850393700787,"duration":0.11406250000001705},{"name":"F#3","midi":54,"time":148.68750000000077,"velocity":0.14173228346456693,"duration":0.040625000000005684},{"name":"F#2","midi":42,"time":148.68750000000077,"velocity":0.2677165354330709,"duration":0.06718750000001705},{"name":"A#4","midi":70,"time":148.68750000000077,"velocity":0.3228346456692913,"duration":0.16718750000001137},{"name":"D#5","midi":75,"time":148.68750000000077,"velocity":0.5984251968503937,"duration":1.0984375000001023},{"name":"G4","midi":67,"time":148.68750000000077,"velocity":0.6456692913385826,"duration":0.22187499999998295},{"name":"A#4","midi":70,"time":148.68750000000077,"velocity":0.6456692913385826,"duration":0.17500000000001137},{"name":"G4","midi":67,"time":148.68750000000077,"velocity":0.5669291338582677,"duration":0.40468750000002274},{"name":"A#3","midi":58,"time":148.68750000000077,"velocity":0.7086614173228346,"duration":0.8671875000000853},{"name":"D#2","midi":39,"time":148.87500000000077,"velocity":0.6614173228346457,"duration":0.3125000000000284},{"name":"F3","midi":53,"time":148.87500000000077,"velocity":0.6141732283464567,"duration":0.35781250000002274},{"name":"F4","midi":65,"time":148.87500000000077,"velocity":0.5196850393700787,"duration":0.31875000000002274},{"name":"F#3","midi":54,"time":148.87500000000077,"velocity":0.5354330708661418,"duration":0.07499999999998863},{"name":"F#2","midi":42,"time":148.87500000000077,"velocity":0.6614173228346457,"duration":0.10312500000000568},{"name":"A4","midi":69,"time":148.87500000000077,"velocity":0.3464566929133858,"duration":0.11093750000000568},{"name":"C2","midi":36,"time":148.87500000000077,"velocity":0.8503937007874016,"duration":0.19843750000001137},{"name":"A#4","midi":70,"time":148.87500000000077,"velocity":0.5669291338582677,"duration":0.24687500000001705},{"name":"G4","midi":67,"time":148.87500000000077,"velocity":0.3858267716535433,"duration":0.7031250000000853},{"name":"F4","midi":65,"time":148.87500000000077,"velocity":0.36220472440944884,"duration":0.3921875000000341},{"name":"F#2","midi":42,"time":149.06250000000077,"velocity":0.4645669291338583,"duration":0.0718750000000341},{"name":"A#4","midi":70,"time":149.06250000000077,"velocity":0.4015748031496063,"duration":0.15156250000001137},{"name":"F#3","midi":54,"time":149.06250000000077,"velocity":0.3543307086614173,"duration":0.06875000000002274},{"name":"D#2","midi":39,"time":149.2500000000008,"velocity":0.8267716535433071,"duration":0.3718750000000739},{"name":"G3","midi":55,"time":149.2500000000008,"velocity":0.7086614173228346,"duration":0.6500000000001194},{"name":"A#3","midi":58,"time":149.2500000000008,"velocity":0.6456692913385826,"duration":0.6218750000001023},{"name":"G4","midi":67,"time":149.2500000000008,"velocity":0.5984251968503937,"duration":0.3406250000000739},{"name":"A4","midi":69,"time":149.2500000000008,"velocity":0.25984251968503935,"duration":0.12500000000002842},{"name":"F#2","midi":42,"time":149.2500000000008,"velocity":0.7086614173228346,"duration":0.09375000000002842},{"name":"D2","midi":38,"time":149.2500000000008,"velocity":0.8976377952755905,"duration":0.28750000000005116},{"name":"F#3","midi":54,"time":149.2500000000008,"velocity":0.6535433070866141,"duration":0.08281250000001705},{"name":"G4","midi":67,"time":149.2500000000008,"velocity":0.8267716535433071,"duration":0.40156250000009663},{"name":"D#5","midi":75,"time":149.2500000000008,"velocity":0.8267716535433071,"duration":0.7531250000001251},{"name":"A#4","midi":70,"time":149.2500000000008,"velocity":0.7559055118110236,"duration":0.32187500000006253},{"name":"G4","midi":67,"time":149.2500000000008,"velocity":0.7086614173228346,"duration":0.5265625000000682},{"name":"D#4","midi":63,"time":149.2500000000008,"velocity":0.36220472440944884,"duration":0.6921875000001023},{"name":"A#3","midi":58,"time":149.2500000000008,"velocity":0.7795275590551181,"duration":0.654687500000108},{"name":"A#4","midi":70,"time":149.43750000000082,"velocity":0.33858267716535434,"duration":0.1359375000000398},{"name":"F#2","midi":42,"time":149.43750000000082,"velocity":0.5669291338582677,"duration":0.08437500000002274},{"name":"F#3","midi":54,"time":149.43750000000082,"velocity":0.3464566929133858,"duration":0.07343750000001137},{"name":"A#1","midi":34,"time":149.62500000000088,"velocity":0.8031496062992126,"duration":0.3906250000000284},{"name":"D#3","midi":51,"time":149.62500000000088,"velocity":0.6850393700787402,"duration":0.35625000000001705},{"name":"D#4","midi":63,"time":149.62500000000088,"velocity":0.6141732283464567,"duration":0.34218750000002274},{"name":"D2","midi":38,"time":149.62500000000088,"velocity":0.8976377952755905,"duration":0.07968750000000568},{"name":"F#3","midi":54,"time":149.62500000000088,"velocity":0.5511811023622047,"duration":0.078125},{"name":"A4","midi":69,"time":149.62500000000088,"velocity":0.3779527559055118,"duration":0.09843749999998863},{"name":"A#2","midi":46,"time":149.62500000000088,"velocity":0.7559055118110236,"duration":0.09375},{"name":"A#4","midi":70,"time":149.62500000000088,"velocity":0.5826771653543307,"duration":0.21406250000001137},{"name":"G4","midi":67,"time":149.62500000000088,"velocity":0.4645669291338583,"duration":0.1953125},{"name":"D#4","midi":63,"time":149.62500000000088,"velocity":0.4566929133858268,"duration":0.3687500000000341},{"name":"A#3","midi":58,"time":149.62500000000088,"velocity":0.4645669291338583,"duration":0.30000000000001137},{"name":"G4","midi":67,"time":149.62500000000088,"velocity":0.6141732283464567,"duration":0.36562500000002274},{"name":"D2","midi":38,"time":149.81250000000088,"velocity":0.7795275590551181,"duration":0.08437500000002274},{"name":"A#4","midi":70,"time":149.81250000000088,"velocity":0.4409448818897638,"duration":0.17187500000002842},{"name":"F#3","midi":54,"time":149.81250000000088,"velocity":0.2755905511811024,"duration":0.07187500000000568},{"name":"G#1","midi":32,"time":150.0000000000009,"velocity":0.8031496062992126,"duration":0.3062500000000057},{"name":"C4","midi":60,"time":150.0000000000009,"velocity":0.6141732283464567,"duration":0.3828125000000284},{"name":"D#4","midi":63,"time":150.0000000000009,"velocity":0.6850393700787402,"duration":0.06718749999998863},{"name":"G#3","midi":56,"time":150.0000000000009,"velocity":0.5354330708661418,"duration":0.08750000000000568},{"name":"G#2","midi":44,"time":150.0000000000009,"velocity":0.8031496062992126,"duration":1.0000000000000853},{"name":"C4","midi":60,"time":150.0000000000009,"velocity":0.6614173228346457,"duration":0.6203125000000682},{"name":"G#3","midi":56,"time":150.0000000000009,"velocity":0.7322834645669292,"duration":0.23125000000001705},{"name":"D#3","midi":51,"time":150.0000000000009,"velocity":0.6456692913385826,"duration":1.2109375000000853},{"name":"G#4","midi":68,"time":150.0000000000009,"velocity":0.7244094488188977,"duration":0.09218750000002274},{"name":"C5","midi":72,"time":150.0000000000009,"velocity":0.7480314960629921,"duration":0.06874999999999432},{"name":"D#4","midi":63,"time":150.0000000000009,"velocity":0.7244094488188977,"duration":0.3750000000000284},{"name":"G#3","midi":56,"time":150.0000000000009,"velocity":0.8740157480314961,"duration":0.3218750000000057},{"name":"F#3","midi":54,"time":150.0000000000009,"velocity":0.6614173228346457,"duration":0.0953125000000341},{"name":"C2","midi":36,"time":150.0000000000009,"velocity":0.8740157480314961,"duration":0.33281250000001705},{"name":"C#3","midi":49,"time":150.0000000000009,"velocity":0.7795275590551181,"duration":0.12031250000003979},{"name":"A4","midi":69,"time":150.0000000000009,"velocity":0.4015748031496063,"duration":0.12500000000002842},{"name":"G#4","midi":68,"time":150.0000000000009,"velocity":0.8267716535433071,"duration":0.42812500000002274},{"name":"D#4","midi":63,"time":150.0000000000009,"velocity":0.36220472440944884,"duration":0.4531250000000284},{"name":"C4","midi":60,"time":150.0000000000009,"velocity":0.6614173228346457,"duration":1.2046875000000625},{"name":"G#3","midi":56,"time":150.0000000000009,"velocity":0.7322834645669292,"duration":0.46718750000005116},{"name":"D#4","midi":63,"time":150.0000000000009,"velocity":0.7322834645669292,"duration":0.6078125000000512},{"name":"D#5","midi":75,"time":150.0000000000009,"velocity":0.4094488188976378,"duration":0.0953125000000341},{"name":"A#5","midi":82,"time":150.0000000000009,"velocity":0.3937007874015748,"duration":0.08906250000001137},{"name":"F#3","midi":54,"time":150.18750000000094,"velocity":0.3228346456692913,"duration":0.07968749999997726},{"name":"F#2","midi":42,"time":150.18750000000094,"velocity":0.3937007874015748,"duration":0.06718749999998863},{"name":"A#4","midi":70,"time":150.18750000000094,"velocity":0.4251968503937008,"duration":0.14531249999998863},{"name":"G#1","midi":32,"time":150.37500000000094,"velocity":0.6299212598425197,"duration":0.6390625000000512},{"name":"G#3","midi":56,"time":150.37500000000094,"velocity":0.4881889763779528,"duration":0.2593750000000341},{"name":"C5","midi":72,"time":150.37500000000094,"velocity":0.7244094488188977,"duration":0.08125000000001137},{"name":"G#4","midi":68,"time":150.37500000000094,"velocity":0.7007874015748031,"duration":0.09843750000001705},{"name":"D#4","midi":63,"time":150.37500000000094,"velocity":0.7244094488188977,"duration":0.4375000000000284},{"name":"G#3","midi":56,"time":150.37500000000094,"velocity":0.8740157480314961,"duration":0.3171875000000455},{"name":"A4","midi":69,"time":150.37500000000094,"velocity":0.3464566929133858,"duration":0.11406250000001705},{"name":"F#3","midi":54,"time":150.37500000000094,"velocity":0.2755905511811024,"duration":0.20312500000002842},{"name":"F#2","midi":42,"time":150.37500000000094,"velocity":0.4015748031496063,"duration":0.06718749999998863},{"name":"A#4","midi":70,"time":150.37500000000094,"velocity":0.6850393700787402,"duration":0.3468750000000398},{"name":"G#3","midi":56,"time":150.37500000000094,"velocity":0.5354330708661418,"duration":0.4578125000000455},{"name":"A#5","midi":82,"time":150.37500000000094,"velocity":0.4251968503937008,"duration":0.09062500000001705},{"name":"D#5","midi":75,"time":150.37500000000094,"velocity":0.31496062992125984,"duration":0.06562499999998295},{"name":"F#2","midi":42,"time":150.56250000000097,"velocity":0.4330708661417323,"duration":0.048437500000005684},{"name":"A#4","midi":70,"time":150.56250000000097,"velocity":0.4409448818897638,"duration":0.512500000000017},{"name":"D#4","midi":63,"time":150.75000000000097,"velocity":0.6456692913385826,"duration":0.2656250000000284},{"name":"C4","midi":60,"time":150.75000000000097,"velocity":0.6614173228346457,"duration":0.609375},{"name":"D#3","midi":51,"time":150.75000000000097,"velocity":0.48031496062992124,"duration":2.1328125000000284},{"name":"C5","midi":72,"time":150.75000000000097,"velocity":0.8740157480314961,"duration":0.07343750000001137},{"name":"C5","midi":72,"time":150.75000000000097,"velocity":0.6929133858267716,"duration":0.37031250000001137},{"name":"C5","midi":72,"time":150.75000000000097,"velocity":0.7952755905511811,"duration":0.37031250000001137},{"name":"G#4","midi":68,"time":150.75000000000097,"velocity":0.7244094488188977,"duration":0.078125},{"name":"D#4","midi":63,"time":150.75000000000097,"velocity":0.7480314960629921,"duration":0.4390625000000057},{"name":"G#3","midi":56,"time":150.75000000000097,"velocity":0.8188976377952756,"duration":0.31875000000002274},{"name":"A4","midi":69,"time":150.75000000000097,"velocity":0.25196850393700787,"duration":0.12343750000002274},{"name":"F#3","midi":54,"time":150.75000000000097,"velocity":0.8031496062992126,"duration":0.10937500000002842},{"name":"F#2","midi":42,"time":150.75000000000097,"velocity":0.7559055118110236,"duration":0.07968750000000568},{"name":"D2","midi":38,"time":150.75000000000097,"velocity":0.8740157480314961,"duration":0.4140625},{"name":"G#3","midi":56,"time":150.75000000000097,"velocity":0.5039370078740157,"duration":0.3687500000000057},{"name":"G#3","midi":56,"time":150.75000000000097,"velocity":0.6614173228346457,"duration":0.46562500000001705},{"name":"D#4","midi":63,"time":150.75000000000097,"velocity":0.7322834645669292,"duration":0.48125000000001705},{"name":"C4","midi":60,"time":150.75000000000097,"velocity":0.7322834645669292,"duration":0.7859374999999886},{"name":"A#5","midi":82,"time":150.75000000000097,"velocity":0.4645669291338583,"duration":0.11406250000001705},{"name":"D#5","midi":75,"time":150.75000000000097,"velocity":0.3464566929133858,"duration":0.10156250000002842},{"name":"A#4","midi":70,"time":150.937500000001,"velocity":0.41732283464566927,"duration":0.41718749999998295},{"name":"F#2","midi":42,"time":150.937500000001,"velocity":0.2440944881889764,"duration":0.08437499999999432},{"name":"F#3","midi":54,"time":150.937500000001,"velocity":0.29133858267716534,"duration":0.032812500000005684},{"name":"G#1","midi":32,"time":151.12500000000097,"velocity":0.7086614173228346,"duration":0.19843750000001137},{"name":"G#3","midi":56,"time":151.12500000000097,"velocity":0.5039370078740157,"duration":0.11406250000001705},{"name":"G#2","midi":44,"time":151.12500000000097,"velocity":0.4094488188976378,"duration":0.18125000000000568},{"name":"D5","midi":74,"time":151.12500000000097,"velocity":0.7795275590551181,"duration":0.234375},{"name":"D5","midi":74,"time":151.12500000000097,"velocity":0.6220472440944882,"duration":0.234375},{"name":"C5","midi":72,"time":151.12500000000097,"velocity":0.7716535433070866,"duration":0.08281250000001705},{"name":"D#4","midi":63,"time":151.12500000000097,"velocity":0.7244094488188977,"duration":0.22187500000001137},{"name":"G#4","midi":68,"time":151.12500000000097,"velocity":0.7480314960629921,"duration":0.08125000000001137},{"name":"G#3","midi":56,"time":151.12500000000097,"velocity":0.7244094488188977,"duration":0.25468750000001705},{"name":"F#3","midi":54,"time":151.12500000000097,"velocity":0.4094488188976378,"duration":0.09375000000002842},{"name":"F#2","midi":42,"time":151.12500000000097,"velocity":0.3858267716535433,"duration":0.09375000000002842},{"name":"A4","midi":69,"time":151.12500000000097,"velocity":0.3543307086614173,"duration":0.11093750000000568},{"name":"A#3","midi":58,"time":151.12500000000097,"velocity":0.4251968503937008,"duration":0.14375000000001137},{"name":"D#4","midi":63,"time":151.12500000000097,"velocity":0.4566929133858268,"duration":0.5156250000000284},{"name":"G#3","midi":56,"time":151.12500000000097,"velocity":0.3543307086614173,"duration":0.3062500000000341},{"name":"D#5","midi":75,"time":151.12500000000097,"velocity":0.4330708661417323,"duration":0.07968750000000568},{"name":"A#5","midi":82,"time":151.12500000000097,"velocity":0.44881889763779526,"duration":0.08125000000001137},{"name":"A#1","midi":34,"time":151.31250000000097,"velocity":0.6456692913385826,"duration":0.15000000000000568},{"name":"G3","midi":55,"time":151.31250000000097,"velocity":0.28346456692913385,"duration":0.234375},{"name":"D#5","midi":75,"time":151.31250000000097,"velocity":0.8267716535433071,"duration":0.2421875},{"name":"D#5","midi":75,"time":151.31250000000097,"velocity":0.6614173228346457,"duration":0.2421875},{"name":"G4","midi":67,"time":151.31250000000097,"velocity":0.6771653543307087,"duration":0.056250000000005684},{"name":"C2","midi":36,"time":151.31250000000097,"velocity":0.5196850393700787,"duration":0.053124999999994316},{"name":"F#2","midi":42,"time":151.31250000000097,"velocity":0.5984251968503937,"duration":0.06875000000002274},{"name":"A#4","midi":70,"time":151.31250000000097,"velocity":0.4015748031496063,"duration":0.13125000000002274},{"name":"C4","midi":60,"time":151.31250000000097,"velocity":0.44881889763779526,"duration":0.29218750000001137},{"name":"D4","midi":62,"time":151.31250000000097,"velocity":0.5826771653543307,"duration":0.14375000000001137},{"name":"C2","midi":36,"time":151.50000000000097,"velocity":0.8031496062992126,"duration":0.24687500000004547},{"name":"D#4","midi":63,"time":151.50000000000097,"velocity":0.6614173228346457,"duration":0.33437500000002274},{"name":"C3","midi":48,"time":151.50000000000097,"velocity":0.7322834645669292,"duration":1.0953125000000057},{"name":"C4","midi":60,"time":151.50000000000097,"velocity":0.6614173228346457,"duration":0.4390625000000057},{"name":"G3","midi":55,"time":151.50000000000097,"velocity":0.6850393700787402,"duration":0.40156250000001137},{"name":"C4","midi":60,"time":151.50000000000097,"velocity":0.6614173228346457,"duration":0.48124999999998863},{"name":"G4","midi":67,"time":151.50000000000097,"velocity":0.7244094488188977,"duration":0.08437499999999432},{"name":"C5","midi":72,"time":151.50000000000097,"velocity":0.7007874015748031,"duration":0.06718749999998863},{"name":"D#5","midi":75,"time":151.50000000000097,"velocity":0.7716535433070866,"duration":0.08437499999999432},{"name":"F#3","midi":54,"time":151.50000000000097,"velocity":0.6141732283464567,"duration":0.11718750000002842},{"name":"A4","midi":69,"time":151.50000000000097,"velocity":0.25196850393700787,"duration":0.11406250000001705},{"name":"F#2","midi":42,"time":151.50000000000097,"velocity":0.7559055118110236,"duration":0.12500000000002842},{"name":"C2","midi":36,"time":151.50000000000097,"velocity":0.8503937007874016,"duration":0.2968750000000284},{"name":"A#4","midi":70,"time":151.50000000000097,"velocity":0.8503937007874016,"duration":0.35468750000001137},{"name":"D#4","midi":63,"time":151.50000000000097,"velocity":0.6456692913385826,"duration":0.4140625},{"name":"C4","midi":60,"time":151.50000000000097,"velocity":0.6456692913385826,"duration":0.7062500000000114},{"name":"G3","midi":55,"time":151.50000000000097,"velocity":0.8503937007874016,"duration":0.7046875000000057},{"name":"C6","midi":84,"time":151.50000000000097,"velocity":0.4251968503937008,"duration":0.12968750000001705},{"name":"G5","midi":79,"time":151.50000000000097,"velocity":0.3779527559055118,"duration":0.10312500000000568},{"name":"F#2","midi":42,"time":151.687500000001,"velocity":0.48031496062992124,"duration":0.06406250000000568},{"name":"A#4","midi":70,"time":151.687500000001,"velocity":0.3228346456692913,"duration":0.526562499999983},{"name":"F#3","midi":54,"time":151.687500000001,"velocity":0.2440944881889764,"duration":0.05781250000001137},{"name":"G3","midi":55,"time":151.687500000001,"velocity":0.33070866141732286,"duration":0.5328124999999773},{"name":"C2","midi":36,"time":151.87500000000097,"velocity":0.7795275590551181,"duration":0.20468749999997726},{"name":"G3","midi":55,"time":151.87500000000097,"velocity":0.5039370078740157,"duration":0.6453124999999886},{"name":"D#5","midi":75,"time":151.87500000000097,"velocity":0.8976377952755905,"duration":0.06874999999999432},{"name":"D#5","midi":75,"time":151.87500000000097,"velocity":0.7165354330708661,"duration":0.44218749999998863},{"name":"C5","midi":72,"time":151.87500000000097,"velocity":0.7007874015748031,"duration":0.08281249999998863},{"name":"G4","midi":67,"time":151.87500000000097,"velocity":0.6771653543307087,"duration":0.08906249999998295},{"name":"C4","midi":60,"time":151.87500000000097,"velocity":0.6299212598425197,"duration":0.4749999999999659},{"name":"D#5","midi":75,"time":151.87500000000097,"velocity":0.7244094488188977,"duration":0.6390624999999943},{"name":"A#2","midi":46,"time":151.87500000000097,"velocity":0.7795275590551181,"duration":0.2265625},{"name":"C2","midi":36,"time":151.87500000000097,"velocity":0.8503937007874016,"duration":0.7046875000000057},{"name":"A4","midi":69,"time":151.87500000000097,"velocity":0.3464566929133858,"duration":0.11093749999997726},{"name":"F#3","midi":54,"time":151.87500000000097,"velocity":0.3228346456692913,"duration":0.08749999999997726},{"name":"C4","midi":60,"time":151.87500000000097,"velocity":0.4881889763779528,"duration":0.7906250000000057},{"name":"G4","midi":67,"time":151.87500000000097,"velocity":0.6456692913385826,"duration":0.46249999999997726},{"name":"D#4","midi":63,"time":151.87500000000097,"velocity":0.5511811023622047,"duration":0.2828125000000057},{"name":"G5","midi":79,"time":151.87500000000097,"velocity":0.3937007874015748,"duration":0.07656249999999432},{"name":"C6","midi":84,"time":151.87500000000097,"velocity":0.44881889763779526,"duration":0.0703125},{"name":"A#4","midi":70,"time":152.06250000000094,"velocity":0.4015748031496063,"duration":0.5093750000000341},{"name":"F#3","midi":54,"time":152.06250000000094,"velocity":0.1968503937007874,"duration":0.03593750000001705},{"name":"D#4","midi":63,"time":152.25000000000097,"velocity":0.5984251968503937,"duration":0.36250000000001137},{"name":"C4","midi":60,"time":152.25000000000097,"velocity":0.6299212598425197,"duration":0.47500000000002274},{"name":"G4","midi":67,"time":152.25000000000097,"velocity":0.6299212598425197,"duration":0.45625000000001137},{"name":"D#5","midi":75,"time":152.25000000000097,"velocity":0.7007874015748031,"duration":0.2640624999999943},{"name":"C5","midi":72,"time":152.25000000000097,"velocity":0.6456692913385826,"duration":0.060937499999994316},{"name":"C4","midi":60,"time":152.25000000000097,"velocity":0.7007874015748031,"duration":0.49687500000001705},{"name":"A4","midi":69,"time":152.25000000000097,"velocity":0.25984251968503935,"duration":0.12499999999997158},{"name":"F#2","midi":42,"time":152.25000000000097,"velocity":0.48031496062992124,"duration":0.10156249999997158},{"name":"D2","midi":38,"time":152.25000000000097,"velocity":0.9212598425196851,"duration":0.2890625},{"name":"F#3","midi":54,"time":152.25000000000097,"velocity":0.8267716535433071,"duration":0.10624999999996021},{"name":"D#5","midi":75,"time":152.25000000000097,"velocity":0.8031496062992126,"duration":0.4546875000000057},{"name":"C4","midi":60,"time":152.25000000000097,"velocity":0.6614173228346457,"duration":0.5687500000000227},{"name":"G3","midi":55,"time":152.25000000000097,"velocity":0.7559055118110236,"duration":0.614062500000017},{"name":"D#4","midi":63,"time":152.25000000000097,"velocity":0.7559055118110236,"duration":0.46406250000001137},{"name":"G5","midi":79,"time":152.25000000000097,"velocity":0.4094488188976378,"duration":0.07499999999998863},{"name":"C6","midi":84,"time":152.25000000000097,"velocity":0.3779527559055118,"duration":0.05156249999998863},{"name":"F#3","midi":54,"time":152.43750000000094,"velocity":0.48031496062992124,"duration":0.05000000000001137},{"name":"A#4","midi":70,"time":152.43750000000094,"velocity":0.33858267716535434,"duration":0.5468750000000568},{"name":"C2","midi":36,"time":152.62500000000097,"velocity":0.8031496062992126,"duration":0.3781250000000398},{"name":"G3","midi":55,"time":152.62500000000097,"velocity":0.5984251968503937,"duration":0.3078125000000398},{"name":"D#5","midi":75,"time":152.62500000000097,"velocity":0.7007874015748031,"duration":0.3156250000000398},{"name":"C4","midi":60,"time":152.62500000000097,"velocity":0.7244094488188977,"duration":0.8578125000000227},{"name":"C5","midi":72,"time":152.62500000000097,"velocity":0.6614173228346457,"duration":0.05156250000001705},{"name":"G4","midi":67,"time":152.62500000000097,"velocity":0.6299212598425197,"duration":0.3515625000000284},{"name":"F#3","midi":54,"time":152.62500000000097,"velocity":0.3937007874015748,"duration":0.08437500000002274},{"name":"A4","midi":69,"time":152.62500000000097,"velocity":0.3779527559055118,"duration":0.09843750000001705},{"name":"F#2","midi":42,"time":152.62500000000097,"velocity":0.6850393700787402,"duration":0.07656249999999432},{"name":"G3","midi":55,"time":152.62500000000097,"velocity":0.5669291338582677,"duration":0.3296875000000341},{"name":"C6","midi":84,"time":152.62500000000097,"velocity":0.4566929133858268,"duration":0.07187500000000568},{"name":"G5","midi":79,"time":152.62500000000097,"velocity":0.36220472440944884,"duration":0.06406250000000568},{"name":"A#4","midi":70,"time":152.812500000001,"velocity":0.4409448818897638,"duration":0.520312500000017},{"name":"F#3","midi":54,"time":152.812500000001,"velocity":0.3543307086614173,"duration":0.03125},{"name":"C4","midi":60,"time":152.812500000001,"velocity":0.4881889763779528,"duration":0.6859374999999943},{"name":"D#4","midi":63,"time":152.812500000001,"velocity":0.4645669291338583,"duration":0.078125},{"name":"G#1","midi":32,"time":153.000000000001,"velocity":0.8267716535433071,"duration":1.0046874999999318},{"name":"D#4","midi":63,"time":153.000000000001,"velocity":0.6299212598425197,"duration":0.08281250000001705},{"name":"G#2","midi":44,"time":153.000000000001,"velocity":0.7795275590551181,"duration":1.3890624999999375},{"name":"G#3","midi":56,"time":153.000000000001,"velocity":0.5511811023622047,"duration":0.10000000000002274},{"name":"C4","midi":60,"time":153.000000000001,"velocity":0.6456692913385826,"duration":1.3546874999999545},{"name":"G#3","midi":56,"time":153.000000000001,"velocity":0.6299212598425197,"duration":0.22500000000002274},{"name":"D#3","midi":51,"time":153.000000000001,"velocity":0.6850393700787402,"duration":1.3156249999999545},{"name":"G#4","midi":68,"time":153.000000000001,"velocity":0.7007874015748031,"duration":0.08281250000001705},{"name":"D#4","midi":63,"time":153.000000000001,"velocity":0.6299212598425197,"duration":0.44687499999997726},{"name":"C5","midi":72,"time":153.000000000001,"velocity":0.7007874015748031,"duration":0.08593750000002842},{"name":"G#3","midi":56,"time":153.000000000001,"velocity":0.7007874015748031,"duration":0.25468750000001705},{"name":"C2","midi":36,"time":153.000000000001,"velocity":0.9212598425196851,"duration":0.30156250000001705},{"name":"A4","midi":69,"time":153.000000000001,"velocity":0.4015748031496063,"duration":0.12500000000002842},{"name":"F#3","midi":54,"time":153.000000000001,"velocity":0.7559055118110236,"duration":0.10156250000002842},{"name":"F#2","midi":42,"time":153.000000000001,"velocity":0.8031496062992126,"duration":0.09218750000002274},{"name":"D#4","midi":63,"time":153.000000000001,"velocity":0.7795275590551181,"duration":0.4671874999999943},{"name":"D#4","midi":63,"time":153.000000000001,"velocity":0.6850393700787402,"duration":0.4984374999999943},{"name":"G#3","midi":56,"time":153.000000000001,"velocity":0.7322834645669292,"duration":0.42656249999998863},{"name":"A#5","midi":82,"time":153.000000000001,"velocity":0.4330708661417323,"duration":0.07500000000001705},{"name":"F#3","midi":54,"time":153.18750000000102,"velocity":0.25984251968503935,"duration":0.040625000000005684},{"name":"A#4","midi":70,"time":153.18750000000102,"velocity":0.4251968503937008,"duration":0.15156249999998295},{"name":"F#2","midi":42,"time":153.18750000000102,"velocity":0.5511811023622047,"duration":0.053124999999994316},{"name":"G#3","midi":56,"time":153.375000000001,"velocity":0.4881889763779528,"duration":0.29999999999998295},{"name":"D#4","midi":63,"time":153.375000000001,"velocity":0.6614173228346457,"duration":0.4437499999999659},{"name":"C5","midi":72,"time":153.375000000001,"velocity":0.7480314960629921,"duration":0.09375},{"name":"G#3","midi":56,"time":153.375000000001,"velocity":0.5275590551181102,"duration":0.44687499999997726},{"name":"G#4","midi":68,"time":153.375000000001,"velocity":0.7244094488188977,"duration":0.09218749999999432},{"name":"F#3","midi":54,"time":153.375000000001,"velocity":0.4251968503937008,"duration":0.08749999999997726},{"name":"A4","midi":69,"time":153.375000000001,"velocity":0.3464566929133858,"duration":0.11406249999998863},{"name":"F#2","midi":42,"time":153.375000000001,"velocity":0.4645669291338583,"duration":0.08281249999998863},{"name":"A#4","midi":70,"time":153.375000000001,"velocity":0.8267716535433071,"duration":0.34687499999998295},{"name":"G#3","midi":56,"time":153.375000000001,"velocity":0.4330708661417323,"duration":0.5187499999999545},{"name":"A#5","midi":82,"time":153.375000000001,"velocity":0.4330708661417323,"duration":0.07499999999998863},{"name":"D#5","midi":75,"time":153.375000000001,"velocity":0.3858267716535433,"duration":0.08906249999998295},{"name":"F#3","midi":54,"time":153.562500000001,"velocity":0.31496062992125984,"duration":0.03593749999998863},{"name":"F#2","midi":42,"time":153.562500000001,"velocity":0.3779527559055118,"duration":0.03593749999998863},{"name":"A#4","midi":70,"time":153.562500000001,"velocity":0.4409448818897638,"duration":0.5124999999999318},{"name":"D#4","midi":63,"time":153.75000000000097,"velocity":0.5669291338582677,"duration":0.42968749999994316},{"name":"C4","midi":60,"time":153.75000000000097,"velocity":0.6141732283464567,"duration":0.6140624999999602},{"name":"C5","midi":72,"time":153.75000000000097,"velocity":0.8740157480314961,"duration":0.08125000000001137},{"name":"C5","midi":72,"time":153.75000000000097,"velocity":0.6929133858267716,"duration":0.3703124999999545},{"name":"C5","midi":72,"time":153.75000000000097,"velocity":0.7480314960629921,"duration":0.3703124999999545},{"name":"D#4","midi":63,"time":153.75000000000097,"velocity":0.6456692913385826,"duration":0.4999999999999716},{"name":"G#3","midi":56,"time":153.75000000000097,"velocity":0.6299212598425197,"duration":0.2640624999999659},{"name":"G#4","midi":68,"time":153.75000000000097,"velocity":0.6614173228346457,"duration":0.07187500000000568},{"name":"D2","midi":38,"time":153.75000000000097,"velocity":0.8976377952755905,"duration":0.4031249999999318},{"name":"F#2","midi":42,"time":153.75000000000097,"velocity":0.8503937007874016,"duration":0.11406249999998863},{"name":"A4","midi":69,"time":153.75000000000097,"velocity":0.25196850393700787,"duration":0.12343749999999432},{"name":"F#3","midi":54,"time":153.75000000000097,"velocity":0.8267716535433071,"duration":0.09999999999999432},{"name":"G#3","midi":56,"time":153.75000000000097,"velocity":0.4330708661417323,"duration":0.3203124999999716},{"name":"C4","midi":60,"time":153.75000000000097,"velocity":0.5984251968503937,"duration":0.7406249999999943},{"name":"G#3","midi":56,"time":153.75000000000097,"velocity":0.7086614173228346,"duration":0.4765624999999716},{"name":"D#4","midi":63,"time":153.75000000000097,"velocity":0.6614173228346457,"duration":0.5484374999999773},{"name":"A#5","midi":82,"time":153.75000000000097,"velocity":0.4251968503937008,"duration":0.08750000000000568},{"name":"D#5","midi":75,"time":153.75000000000097,"velocity":0.33858267716535434,"duration":0.08125000000001137},{"name":"F#3","midi":54,"time":153.93750000000094,"velocity":0.31496062992125984,"duration":0.03593749999998863},{"name":"F#2","midi":42,"time":153.93750000000094,"velocity":0.3858267716535433,"duration":0.060937499999994316},{"name":"A#4","midi":70,"time":153.93750000000094,"velocity":0.41732283464566927,"duration":0.4703125000000057},{"name":"G#1","midi":32,"time":154.1250000000009,"velocity":0.7559055118110236,"duration":0.2125000000000341},{"name":"D#3","midi":51,"time":154.1250000000009,"velocity":0.48031496062992124,"duration":3.2031250000000853},{"name":"D5","midi":74,"time":154.1250000000009,"velocity":0.7795275590551181,"duration":0.23437500000002842},{"name":"D5","midi":74,"time":154.1250000000009,"velocity":0.6220472440944882,"duration":0.23437500000002842},{"name":"G#4","midi":68,"time":154.1250000000009,"velocity":0.7244094488188977,"duration":0.07343750000001137},{"name":"C5","midi":72,"time":154.1250000000009,"velocity":0.7480314960629921,"duration":0.0859375},{"name":"G#3","midi":56,"time":154.1250000000009,"velocity":0.6614173228346457,"duration":0.10468750000003979},{"name":"D#4","midi":63,"time":154.1250000000009,"velocity":0.7007874015748031,"duration":0.18593750000002274},{"name":"A4","midi":69,"time":154.1250000000009,"velocity":0.3543307086614173,"duration":0.1109375000000341},{"name":"F#3","midi":54,"time":154.1250000000009,"velocity":0.3937007874015748,"duration":0.09062500000001705},{"name":"F#2","midi":42,"time":154.1250000000009,"velocity":0.5669291338582677,"duration":0.07968750000000568},{"name":"A#3","midi":58,"time":154.1250000000009,"velocity":0.3543307086614173,"duration":0.1734375000000341},{"name":"C4","midi":60,"time":154.1250000000009,"velocity":0.5039370078740157,"duration":0.42343750000006253},{"name":"G#3","midi":56,"time":154.1250000000009,"velocity":0.4881889763779528,"duration":0.2921875000000398},{"name":"A#5","midi":82,"time":154.1250000000009,"velocity":0.4251968503937008,"duration":0.08906250000001137},{"name":"D#5","midi":75,"time":154.1250000000009,"velocity":0.3858267716535433,"duration":0.08906250000001137},{"name":"A#1","midi":34,"time":154.31250000000094,"velocity":0.5354330708661418,"duration":0.15937500000001137},{"name":"G3","midi":55,"time":154.31250000000094,"velocity":0.4881889763779528,"duration":0.2578125000000284},{"name":"D#5","midi":75,"time":154.31250000000094,"velocity":0.8267716535433071,"duration":0.24218750000002842},{"name":"D#5","midi":75,"time":154.31250000000094,"velocity":0.6614173228346457,"duration":0.24218750000002842},{"name":"G4","midi":67,"time":154.31250000000094,"velocity":0.7007874015748031,"duration":0.053124999999994316},{"name":"C2","midi":36,"time":154.31250000000094,"velocity":0.4881889763779528,"duration":0.07187500000000568},{"name":"A#4","midi":70,"time":154.31250000000094,"velocity":0.4015748031496063,"duration":0.13124999999999432},{"name":"F#3","midi":54,"time":154.31250000000094,"velocity":0.28346456692913385,"duration":0.040625000000005684},{"name":"F#2","midi":42,"time":154.31250000000094,"velocity":0.4015748031496063,"duration":0.03593750000001705},{"name":"C4","midi":60,"time":154.31250000000094,"velocity":0.48031496062992124,"duration":0.2953125000000796},{"name":"A#3","midi":58,"time":154.31250000000094,"velocity":0.5039370078740157,"duration":0.12656250000000568},{"name":"C2","midi":36,"time":154.50000000000097,"velocity":0.6614173228346457,"duration":0.10000000000002274},{"name":"C3","midi":48,"time":154.50000000000097,"velocity":0.7086614173228346,"duration":1.440624999999926},{"name":"D#4","midi":63,"time":154.50000000000097,"velocity":0.6456692913385826,"duration":0.4140625},{"name":"C4","midi":60,"time":154.50000000000097,"velocity":0.6850393700787402,"duration":0.4671874999999659},{"name":"G3","midi":55,"time":154.50000000000097,"velocity":0.6850393700787402,"duration":0.390625},{"name":"D#5","midi":75,"time":154.50000000000097,"velocity":0.7007874015748031,"duration":0.10156250000002842},{"name":"C5","midi":72,"time":154.50000000000097,"velocity":0.7244094488188977,"duration":0.08906250000001137},{"name":"G4","midi":67,"time":154.50000000000097,"velocity":0.5275590551181102,"duration":0.10468750000003979},{"name":"C4","midi":60,"time":154.50000000000097,"velocity":0.6771653543307087,"duration":0.4828124999999659},{"name":"C2","midi":36,"time":154.50000000000097,"velocity":0.8031496062992126,"duration":0.1828125000000398},{"name":"A4","midi":69,"time":154.50000000000097,"velocity":0.25196850393700787,"duration":0.11406250000004547},{"name":"F#3","midi":54,"time":154.50000000000097,"velocity":0.6614173228346457,"duration":0.09687500000001137},{"name":"F#2","midi":42,"time":154.50000000000097,"velocity":0.8267716535433071,"duration":0.10156250000002842},{"name":"A#4","midi":70,"time":154.50000000000097,"velocity":0.8267716535433071,"duration":0.35468750000001137},{"name":"D#4","midi":63,"time":154.50000000000097,"velocity":0.5984251968503937,"duration":0.4140625},{"name":"C4","midi":60,"time":154.50000000000097,"velocity":0.7086614173228346,"duration":0.48906249999998863},{"name":"D#4","midi":63,"time":154.50000000000097,"velocity":0.7322834645669292,"duration":0.7093749999999943},{"name":"G5","midi":79,"time":154.50000000000097,"velocity":0.33070866141732286,"duration":0.10000000000002274},{"name":"C6","midi":84,"time":154.50000000000097,"velocity":0.4015748031496063,"duration":0.09687500000001137},{"name":"G1","midi":31,"time":154.687500000001,"velocity":0.5354330708661418,"duration":0.13906249999999432},{"name":"A#4","midi":70,"time":154.687500000001,"velocity":0.3228346456692913,"duration":0.5265624999999545},{"name":"C2","midi":36,"time":154.687500000001,"velocity":0.5984251968503937,"duration":0.07499999999998863},{"name":"F#3","midi":54,"time":154.687500000001,"velocity":0.33858267716535434,"duration":0.046875},{"name":"F#2","midi":42,"time":154.687500000001,"velocity":0.48031496062992124,"duration":0.04218750000001137},{"name":"G3","midi":55,"time":154.687500000001,"velocity":0.33070866141732286,"duration":0.4812499999999602},{"name":"C2","midi":36,"time":154.87500000000097,"velocity":0.7795275590551181,"duration":0.2421875},{"name":"G3","midi":55,"time":154.87500000000097,"velocity":0.5354330708661418,"duration":0.36093749999997726},{"name":"D#5","midi":75,"time":154.87500000000097,"velocity":0.8976377952755905,"duration":0.08593749999997158},{"name":"D#5","midi":75,"time":154.87500000000097,"velocity":0.7165354330708661,"duration":0.45468749999994884},{"name":"C5","midi":72,"time":154.87500000000097,"velocity":0.7480314960629921,"duration":0.07968749999997726},{"name":"D#5","midi":75,"time":154.87500000000097,"velocity":0.7480314960629921,"duration":0.6390624999999659},{"name":"G4","midi":67,"time":154.87500000000097,"velocity":0.7007874015748031,"duration":0.07968749999997726},{"name":"C4","midi":60,"time":154.87500000000097,"velocity":0.5984251968503937,"duration":0.47812499999997726},{"name":"F#3","midi":54,"time":154.87500000000097,"velocity":0.3779527559055118,"duration":0.09531249999997726},{"name":"C2","midi":36,"time":154.87500000000097,"velocity":0.8503937007874016,"duration":0.6937499999999659},{"name":"A#2","midi":46,"time":154.87500000000097,"velocity":0.7322834645669292,"duration":0.18593749999999432},{"name":"A4","midi":69,"time":154.87500000000097,"velocity":0.3464566929133858,"duration":0.11093749999997726},{"name":"C4","midi":60,"time":154.87500000000097,"velocity":0.44881889763779526,"duration":0.6421874999999773},{"name":"G4","midi":67,"time":154.87500000000097,"velocity":0.5826771653543307,"duration":0.4562499999999545},{"name":"G3","midi":55,"time":154.87500000000097,"velocity":0.2992125984251969,"duration":0.6390624999999659},{"name":"G5","midi":79,"time":154.87500000000097,"velocity":0.4094488188976378,"duration":0.07968749999997726},{"name":"C6","midi":84,"time":154.87500000000097,"velocity":0.4330708661417323,"duration":0.07499999999998863},{"name":"A#4","midi":70,"time":155.06250000000097,"velocity":0.4015748031496063,"duration":0.5093749999999773},{"name":"F#3","midi":54,"time":155.06250000000097,"velocity":0.3543307086614173,"duration":0.03593749999998863},{"name":"D#4","midi":63,"time":155.25000000000094,"velocity":0.6456692913385826,"duration":0.3609375000000057},{"name":"C4","midi":60,"time":155.25000000000094,"velocity":0.6614173228346457,"duration":0.44843750000001137},{"name":"D#5","midi":75,"time":155.25000000000094,"velocity":0.7244094488188977,"duration":0.2640624999999943},{"name":"C4","midi":60,"time":155.25000000000094,"velocity":0.6771653543307087,"duration":0.48749999999998295},{"name":"G4","midi":67,"time":155.25000000000094,"velocity":0.7007874015748031,"duration":0.2890625},{"name":"C5","midi":72,"time":155.25000000000094,"velocity":0.7007874015748031,"duration":0.07499999999998863},{"name":"F#2","midi":42,"time":155.25000000000094,"velocity":0.7559055118110236,"duration":0.11250000000001137},{"name":"F#3","midi":54,"time":155.25000000000094,"velocity":0.8267716535433071,"duration":0.1015625},{"name":"A4","midi":69,"time":155.25000000000094,"velocity":0.25984251968503935,"duration":0.125},{"name":"D2","midi":38,"time":155.25000000000094,"velocity":0.8503937007874016,"duration":0.2953124999999943},{"name":"D#5","midi":75,"time":155.25000000000094,"velocity":0.8267716535433071,"duration":0.4468750000000057},{"name":"C4","midi":60,"time":155.25000000000094,"velocity":0.6614173228346457,"duration":0.6468749999999659},{"name":"G3","midi":55,"time":155.25000000000094,"velocity":0.7322834645669292,"duration":0.5093749999999773},{"name":"D#4","midi":63,"time":155.25000000000094,"velocity":0.7559055118110236,"duration":0.3890624999999943},{"name":"G5","midi":79,"time":155.25000000000094,"velocity":0.36220472440944884,"duration":0.09375},{"name":"C6","midi":84,"time":155.25000000000094,"velocity":0.44881889763779526,"duration":0.08281249999998863},{"name":"F#3","midi":54,"time":155.43750000000094,"velocity":0.4881889763779528,"duration":0.04374999999998863},{"name":"F#2","midi":42,"time":155.43750000000094,"velocity":0.30708661417322836,"duration":0.05781249999998295},{"name":"A#4","midi":70,"time":155.43750000000094,"velocity":0.33858267716535434,"duration":0.31406249999997726},{"name":"C2","midi":36,"time":155.62500000000094,"velocity":0.8031496062992126,"duration":0.3578124999999659},{"name":"G3","midi":55,"time":155.62500000000094,"velocity":0.5039370078740157,"duration":0.23437499999997158},{"name":"G4","midi":67,"time":155.62500000000094,"velocity":0.6771653543307087,"duration":0.078125},{"name":"C4","midi":60,"time":155.62500000000094,"velocity":0.7007874015748031,"duration":0.9015625000000682},{"name":"C5","midi":72,"time":155.62500000000094,"velocity":0.7007874015748031,"duration":0.0703125},{"name":"D#5","midi":75,"time":155.62500000000094,"velocity":0.7007874015748031,"duration":0.12187499999998863},{"name":"A4","midi":69,"time":155.62500000000094,"velocity":0.3779527559055118,"duration":0.09843749999998863},{"name":"F#2","midi":42,"time":155.62500000000094,"velocity":0.6850393700787402,"duration":0.09218749999999432},{"name":"F#3","midi":54,"time":155.62500000000094,"velocity":0.3779527559055118,"duration":0.08750000000000568},{"name":"G3","midi":55,"time":155.62500000000094,"velocity":0.2992125984251969,"duration":0.2859374999999602},{"name":"G4","midi":67,"time":155.62500000000094,"velocity":0.3543307086614173,"duration":0.3468749999999545},{"name":"G3","midi":55,"time":155.62500000000094,"velocity":0.5669291338582677,"duration":0.29843749999994884},{"name":"G5","midi":79,"time":155.62500000000094,"velocity":0.3700787401574803,"duration":0.09375},{"name":"C6","midi":84,"time":155.62500000000094,"velocity":0.3937007874015748,"duration":0.0703125},{"name":"A#4","midi":70,"time":155.8125000000009,"velocity":0.4409448818897638,"duration":0.171875},{"name":"F#3","midi":54,"time":155.8125000000009,"velocity":0.3543307086614173,"duration":0.04218750000001137},{"name":"F#2","midi":42,"time":155.8125000000009,"velocity":0.4330708661417323,"duration":0.040625000000005684},{"name":"G3","midi":55,"time":155.8125000000009,"velocity":0.5354330708661418,"duration":0.12031249999998295},{"name":"G#1","midi":32,"time":156.0000000000009,"velocity":0.8740157480314961,"duration":0.9953125000001251},{"name":"D#4","midi":63,"time":156.0000000000009,"velocity":0.6456692913385826,"duration":0.0953125000000341},{"name":"C4","midi":60,"time":156.0000000000009,"velocity":0.5354330708661418,"duration":0.579687500000091},{"name":"G#3","midi":56,"time":156.0000000000009,"velocity":0.5669291338582677,"duration":0.10000000000005116},{"name":"G#2","midi":44,"time":156.0000000000009,"velocity":0.7086614173228346,"duration":1.4140625000000853},{"name":"G#3","midi":56,"time":156.0000000000009,"velocity":0.6850393700787402,"duration":0.24375000000006253},{"name":"D#4","midi":63,"time":156.0000000000009,"velocity":0.5826771653543307,"duration":0.45468750000009095},{"name":"C5","midi":72,"time":156.0000000000009,"velocity":0.7480314960629921,"duration":0.09687500000003979},{"name":"G#4","midi":68,"time":156.0000000000009,"velocity":0.7007874015748031,"duration":0.08281250000001705},{"name":"G#3","midi":56,"time":156.0000000000009,"velocity":0.7244094488188977,"duration":0.2609375000000682},{"name":"F#2","midi":42,"time":156.0000000000009,"velocity":0.8031496062992126,"duration":0.09218750000002274},{"name":"F#3","midi":54,"time":156.0000000000009,"velocity":0.6614173228346457,"duration":0.08906250000001137},{"name":"A4","midi":69,"time":156.0000000000009,"velocity":0.4015748031496063,"duration":0.12500000000005684},{"name":"C2","midi":36,"time":156.0000000000009,"velocity":0.8740157480314961,"duration":0.3390625000000682},{"name":"A#4","midi":70,"time":156.0000000000009,"velocity":0.7322834645669292,"duration":0.3328125000000739},{"name":"D#4","midi":63,"time":156.0000000000009,"velocity":0.5669291338582677,"duration":0.4578125000001023},{"name":"C4","midi":60,"time":156.0000000000009,"velocity":0.5984251968503937,"duration":0.6593750000000966},{"name":"C4","midi":60,"time":156.0000000000009,"velocity":0.6614173228346457,"duration":1.2578125000000853},{"name":"G#3","midi":56,"time":156.0000000000009,"velocity":0.7559055118110236,"duration":0.47031250000009095},{"name":"D#4","midi":63,"time":156.0000000000009,"velocity":0.7086614173228346,"duration":0.47968750000009663},{"name":"A#5","midi":82,"time":156.0000000000009,"velocity":0.4566929133858268,"duration":0.10781250000005116},{"name":"D#5","midi":75,"time":156.0000000000009,"velocity":0.3779527559055118,"duration":0.07968750000000568},{"name":"F#2","midi":42,"time":156.18750000000097,"velocity":0.5511811023622047,"duration":0.053124999999994316},{"name":"F#3","midi":54,"time":156.18750000000097,"velocity":0.4330708661417323,"duration":0.0546875},{"name":"A#4","midi":70,"time":156.18750000000097,"velocity":0.4251968503937008,"duration":0.16093750000001705},{"name":"G#3","midi":56,"time":156.375000000001,"velocity":0.4881889763779528,"duration":0.22500000000002274},{"name":"D#4","midi":63,"time":156.375000000001,"velocity":0.6614173228346457,"duration":0.15937500000001137},{"name":"G#3","midi":56,"time":156.375000000001,"velocity":0.7007874015748031,"duration":0.46562500000001705},{"name":"C5","midi":72,"time":156.375000000001,"velocity":0.7007874015748031,"duration":0.09531250000000568},{"name":"G#4","midi":68,"time":156.375000000001,"velocity":0.7244094488188977,"duration":0.07968750000000568},{"name":"F#2","midi":42,"time":156.375000000001,"velocity":0.4645669291338583,"duration":0.08281250000001705},{"name":"F#3","midi":54,"time":156.375000000001,"velocity":0.4330708661417323,"duration":0.08281250000001705},{"name":"A4","midi":69,"time":156.375000000001,"velocity":0.3464566929133858,"duration":0.11406250000001705},{"name":"A#4","midi":70,"time":156.375000000001,"velocity":0.7086614173228346,"duration":0.34687500000001137},{"name":"G#3","midi":56,"time":156.375000000001,"velocity":0.5039370078740157,"duration":0.4781250000000057},{"name":"A#5","midi":82,"time":156.375000000001,"velocity":0.4094488188976378,"duration":0.078125},{"name":"D#5","midi":75,"time":156.375000000001,"velocity":0.33858267716535434,"duration":0.07187500000000568},{"name":"F#3","midi":54,"time":156.562500000001,"velocity":0.33070866141732286,"duration":0.032812500000005684},{"name":"F#2","midi":42,"time":156.562500000001,"velocity":0.3779527559055118,"duration":0.03593750000001705},{"name":"A#4","midi":70,"time":156.562500000001,"velocity":0.4409448818897638,"duration":0.48281250000005116},{"name":"D#4","midi":63,"time":156.750000000001,"velocity":0.6614173228346457,"duration":0.07968750000000568},{"name":"C4","midi":60,"time":156.750000000001,"velocity":0.6456692913385826,"duration":0.6421875000000057},{"name":"C5","midi":72,"time":156.750000000001,"velocity":0.8740157480314961,"duration":0.09843750000001705},{"name":"C5","midi":72,"time":156.750000000001,"velocity":0.6929133858267716,"duration":0.3703125000000398},{"name":"C4","midi":60,"time":156.750000000001,"velocity":0.6614173228346457,"duration":0.6421875000000057},{"name":"G#4","midi":68,"time":156.750000000001,"velocity":0.7007874015748031,"duration":0.07187500000000568},{"name":"G#3","midi":56,"time":156.750000000001,"velocity":0.6456692913385826,"duration":0.3156250000000398},{"name":"D#4","midi":63,"time":156.750000000001,"velocity":0.7244094488188977,"duration":0.44218750000001705},{"name":"C5","midi":72,"time":156.750000000001,"velocity":0.7480314960629921,"duration":0.3703125000000398},{"name":"D2","midi":38,"time":156.750000000001,"velocity":0.8976377952755905,"duration":0.2375000000000398},{"name":"A4","midi":69,"time":156.750000000001,"velocity":0.25196850393700787,"duration":0.12343750000002274},{"name":"F#3","midi":54,"time":156.750000000001,"velocity":0.8267716535433071,"duration":0.09687500000001137},{"name":"F#2","midi":42,"time":156.750000000001,"velocity":0.8503937007874016,"duration":0.11406250000001705},{"name":"G#3","midi":56,"time":156.750000000001,"velocity":0.4645669291338583,"duration":0.3390625000000398},{"name":"D#4","midi":63,"time":156.750000000001,"velocity":0.4251968503937008,"duration":0.5390625},{"name":"C4","midi":60,"time":156.750000000001,"velocity":0.6614173228346457,"duration":0.8171874999999602},{"name":"D#4","midi":63,"time":156.750000000001,"velocity":0.7322834645669292,"duration":0.5984374999999886},{"name":"G#3","midi":56,"time":156.750000000001,"velocity":0.7086614173228346,"duration":0.46718750000002274},{"name":"A#5","midi":82,"time":156.750000000001,"velocity":0.4330708661417323,"duration":0.078125},{"name":"D#5","midi":75,"time":156.750000000001,"velocity":0.3228346456692913,"duration":0.0703125},{"name":"A#4","midi":70,"time":156.93750000000102,"velocity":0.41732283464566927,"duration":0.13750000000001705},{"name":"F#3","midi":54,"time":156.93750000000102,"velocity":0.25196850393700787,"duration":0.032812500000005684},{"name":"F#2","midi":42,"time":156.93750000000102,"velocity":0.3858267716535433,"duration":0.06093750000002274},{"name":"G#1","midi":32,"time":157.12500000000102,"velocity":0.7559055118110236,"duration":0.21093749999997158},{"name":"D#3","midi":51,"time":157.12500000000102,"velocity":0.4330708661417323,"duration":1.7109375000001705},{"name":"G#3","midi":56,"time":157.12500000000102,"velocity":0.3464566929133858,"duration":0.09843749999998863},{"name":"D5","midi":74,"time":157.12500000000102,"velocity":0.7795275590551181,"duration":0.23437499999997158},{"name":"D5","midi":74,"time":157.12500000000102,"velocity":0.6220472440944882,"duration":0.23437499999997158},{"name":"G#4","midi":68,"time":157.12500000000102,"velocity":0.6771653543307087,"duration":0.08593749999997158},{"name":"D#4","midi":63,"time":157.12500000000102,"velocity":0.5984251968503937,"duration":0.25312499999998295},{"name":"C5","midi":72,"time":157.12500000000102,"velocity":0.7244094488188977,"duration":0.08906249999998295},{"name":"G#3","midi":56,"time":157.12500000000102,"velocity":0.6456692913385826,"duration":0.16562499999997726},{"name":"A4","midi":69,"time":157.12500000000102,"velocity":0.3543307086614173,"duration":0.11093749999997726},{"name":"F#2","midi":42,"time":157.12500000000102,"velocity":0.5669291338582677,"duration":0.07968749999997726},{"name":"F#3","midi":54,"time":157.12500000000102,"velocity":0.4645669291338583,"duration":0.0843749999999659},{"name":"A#3","midi":58,"time":157.12500000000102,"velocity":0.3858267716535433,"duration":0.18906249999997726},{"name":"A#4","midi":70,"time":157.12500000000102,"velocity":0.3937007874015748,"duration":0.26874999999998295},{"name":"G#3","midi":56,"time":157.12500000000102,"velocity":0.5826771653543307,"duration":0.2953124999999659},{"name":"A#5","midi":82,"time":157.12500000000102,"velocity":0.4330708661417323,"duration":0.07187499999997726},{"name":"D#5","midi":75,"time":157.12500000000102,"velocity":0.31496062992125984,"duration":0.06718749999998863},{"name":"A#1","midi":34,"time":157.312500000001,"velocity":0.6141732283464567,"duration":0.13281249999997158},{"name":"G3","midi":55,"time":157.312500000001,"velocity":0.5039370078740157,"duration":0.36406249999998863},{"name":"D#5","midi":75,"time":157.312500000001,"velocity":0.8267716535433071,"duration":0.24218749999997158},{"name":"D#5","midi":75,"time":157.312500000001,"velocity":0.6614173228346457,"duration":0.24218749999997158},{"name":"G4","midi":67,"time":157.312500000001,"velocity":0.6299212598425197,"duration":0.05000000000001137},{"name":"C2","midi":36,"time":157.312500000001,"velocity":0.6299212598425197,"duration":0.0625},{"name":"F#2","midi":42,"time":157.312500000001,"velocity":0.4015748031496063,"duration":0.03593749999998863},{"name":"F#3","midi":54,"time":157.312500000001,"velocity":0.2755905511811024,"duration":0.0234375},{"name":"A#4","midi":70,"time":157.312500000001,"velocity":0.4015748031496063,"duration":0.1312499999999659},{"name":"C4","midi":60,"time":157.312500000001,"velocity":0.5039370078740157,"duration":0.30156249999998863},{"name":"A#3","midi":58,"time":157.312500000001,"velocity":0.5511811023622047,"duration":0.11874999999997726},{"name":"C2","midi":36,"time":157.50000000000097,"velocity":0.7559055118110236,"duration":0.18593750000002274},{"name":"D#4","midi":63,"time":157.50000000000097,"velocity":0.6299212598425197,"duration":0.3718750000000455},{"name":"C4","midi":60,"time":157.50000000000097,"velocity":0.5511811023622047,"duration":0.4343750000000739},{"name":"C3","midi":48,"time":157.50000000000097,"velocity":0.7559055118110236,"duration":1.3718750000002444},{"name":"G3","midi":55,"time":157.50000000000097,"velocity":0.6614173228346457,"duration":0.3250000000000455},{"name":"C4","midi":60,"time":157.50000000000097,"velocity":0.6456692913385826,"duration":0.475000000000108},{"name":"G4","midi":67,"time":157.50000000000097,"velocity":0.7007874015748031,"duration":0.13125000000002274},{"name":"C5","midi":72,"time":157.50000000000097,"velocity":0.7244094488188977,"duration":0.08906249999998295},{"name":"D#5","midi":75,"time":157.50000000000097,"velocity":0.7007874015748031,"duration":0.11093750000000568},{"name":"F#2","midi":42,"time":157.50000000000097,"velocity":0.8267716535433071,"duration":0.1015625},{"name":"F#3","midi":54,"time":157.50000000000097,"velocity":0.6141732283464567,"duration":0.08906249999998295},{"name":"C2","midi":36,"time":157.50000000000097,"velocity":0.8031496062992126,"duration":0.2828125000000341},{"name":"A4","midi":69,"time":157.50000000000097,"velocity":0.25196850393700787,"duration":0.11406250000001705},{"name":"A#4","midi":70,"time":157.50000000000097,"velocity":0.8267716535433071,"duration":0.3546875000000398},{"name":"D#4","midi":63,"time":157.50000000000097,"velocity":0.7086614173228346,"duration":0.4093750000000682},{"name":"C4","midi":60,"time":157.50000000000097,"velocity":0.7086614173228346,"duration":0.560937500000108},{"name":"D#4","midi":63,"time":157.50000000000097,"velocity":0.6850393700787402,"duration":0.7687500000001251},{"name":"G3","midi":55,"time":157.50000000000097,"velocity":0.8503937007874016,"duration":0.35000000000005116},{"name":"C6","midi":84,"time":157.50000000000097,"velocity":0.3700787401574803,"duration":0.109375},{"name":"G5","midi":79,"time":157.50000000000097,"velocity":0.3228346456692913,"duration":0.09843749999998863},{"name":"F#2","midi":42,"time":157.687500000001,"velocity":0.48031496062992124,"duration":0.04218750000001137},{"name":"A#4","midi":70,"time":157.687500000001,"velocity":0.3228346456692913,"duration":0.5265625000000966},{"name":"F#3","midi":54,"time":157.687500000001,"velocity":0.29133858267716534,"duration":0.04218750000001137},{"name":"G3","midi":55,"time":157.687500000001,"velocity":0.33070866141732286,"duration":0.44687500000009095},{"name":"C2","midi":36,"time":157.87500000000102,"velocity":0.8503937007874016,"duration":0.19687500000006253},{"name":"G3","midi":55,"time":157.87500000000102,"velocity":0.5196850393700787,"duration":0.4328125000000682},{"name":"D#5","midi":75,"time":157.87500000000102,"velocity":0.8976377952755905,"duration":0.08437500000005116},{"name":"D#5","midi":75,"time":157.87500000000102,"velocity":0.7165354330708661,"duration":0.46406250000009663},{"name":"C5","midi":72,"time":157.87500000000102,"velocity":0.7480314960629921,"duration":0.07343750000001137},{"name":"C4","midi":60,"time":157.87500000000102,"velocity":0.6614173228346457,"duration":0.4765625000001137},{"name":"G4","midi":67,"time":157.87500000000102,"velocity":0.6771653543307087,"duration":0.08593750000005684},{"name":"D#5","midi":75,"time":157.87500000000102,"velocity":0.7007874015748031,"duration":0.6390625000001364},{"name":"F#3","midi":54,"time":157.87500000000102,"velocity":0.4881889763779528,"duration":0.07500000000001705},{"name":"A4","midi":69,"time":157.87500000000102,"velocity":0.3464566929133858,"duration":0.11093750000006253},{"name":"A#2","midi":46,"time":157.87500000000102,"velocity":0.7322834645669292,"duration":0.18593750000005116},{"name":"C2","midi":36,"time":157.87500000000102,"velocity":0.8503937007874016,"duration":0.7078125000001592},{"name":"C4","midi":60,"time":157.87500000000102,"velocity":0.5196850393700787,"duration":0.8531250000001762},{"name":"G4","midi":67,"time":157.87500000000102,"velocity":0.7086614173228346,"duration":0.28125000000005684},{"name":"G3","midi":55,"time":157.87500000000102,"velocity":0.5511811023622047,"duration":0.6546875000001364},{"name":"G5","midi":79,"time":157.87500000000102,"velocity":0.4251968503937008,"duration":0.08125000000003979},{"name":"C6","midi":84,"time":157.87500000000102,"velocity":0.4645669291338583,"duration":0.07812500000002842},{"name":"F#3","midi":54,"time":158.06250000000108,"velocity":0.29133858267716534,"duration":0.04375000000001705},{"name":"A#4","midi":70,"time":158.06250000000108,"velocity":0.4015748031496063,"duration":0.509375000000091},{"name":"D#4","midi":63,"time":158.25000000000108,"velocity":0.7086614173228346,"duration":0.4109375000001023},{"name":"C4","midi":60,"time":158.25000000000108,"velocity":0.6299212598425197,"duration":0.48593750000011937},{"name":"C5","midi":72,"time":158.25000000000108,"velocity":0.7007874015748031,"duration":0.09062500000004547},{"name":"D#5","midi":75,"time":158.25000000000108,"velocity":0.7244094488188977,"duration":0.2640625000000796},{"name":"G4","midi":67,"time":158.25000000000108,"velocity":0.7480314960629921,"duration":0.10156250000005684},{"name":"C4","midi":60,"time":158.25000000000108,"velocity":0.6771653543307087,"duration":0.498437500000108},{"name":"D2","midi":38,"time":158.25000000000108,"velocity":0.8976377952755905,"duration":0.30625000000009095},{"name":"F#3","midi":54,"time":158.25000000000108,"velocity":0.8031496062992126,"duration":0.09218750000005116},{"name":"F#2","midi":42,"time":158.25000000000108,"velocity":0.7559055118110236,"duration":0.11250000000006821},{"name":"A4","midi":69,"time":158.25000000000108,"velocity":0.25984251968503935,"duration":0.12500000000005684},{"name":"G4","midi":67,"time":158.25000000000108,"velocity":0.7322834645669292,"duration":0.2718750000000796},{"name":"D#5","midi":75,"time":158.25000000000108,"velocity":0.8267716535433071,"duration":0.47812500000011937},{"name":"C4","midi":60,"time":158.25000000000108,"velocity":0.5984251968503937,"duration":0.6125000000001251},{"name":"G3","midi":55,"time":158.25000000000108,"velocity":0.7086614173228346,"duration":0.5437500000001023},{"name":"D#4","midi":63,"time":158.25000000000108,"velocity":0.7795275590551181,"duration":0.506250000000108},{"name":"G5","midi":79,"time":158.25000000000108,"velocity":0.3700787401574803,"duration":0.0796875000000341},{"name":"C6","midi":84,"time":158.25000000000108,"velocity":0.44881889763779526,"duration":0.07656250000002274},{"name":"A#4","midi":70,"time":158.43750000000114,"velocity":0.33858267716535434,"duration":0.47968750000009663},{"name":"F#3","midi":54,"time":158.43750000000114,"velocity":0.29133858267716534,"duration":0.04218750000001137},{"name":"F#2","midi":42,"time":158.43750000000114,"velocity":0.30708661417322836,"duration":0.05781250000001137},{"name":"C2","midi":36,"time":158.6250000000012,"velocity":0.8503937007874016,"duration":0.0625},{"name":"G3","midi":55,"time":158.6250000000012,"velocity":0.6614173228346457,"duration":0.2859375000000455},{"name":"D#5","midi":75,"time":158.6250000000012,"velocity":0.8740157480314961,"duration":0.2578125000000284},{"name":"D#5","midi":75,"time":158.6250000000012,"velocity":0.6850393700787402,"duration":0.38281250000005684},{"name":"C4","midi":60,"time":158.6250000000012,"velocity":0.6771653543307087,"duration":0.3390625000000682},{"name":"G4","midi":67,"time":158.6250000000012,"velocity":0.7480314960629921,"duration":0.08906250000001137},{"name":"C5","midi":72,"time":158.6250000000012,"velocity":0.7244094488188977,"duration":0.10468750000001137},{"name":"D#5","midi":75,"time":158.6250000000012,"velocity":0.7480314960629921,"duration":0.4234375000000341},{"name":"C2","midi":36,"time":158.6250000000012,"velocity":0.6614173228346457,"duration":0.3953125000000455},{"name":"A4","midi":69,"time":158.6250000000012,"velocity":0.3779527559055118,"duration":0.09843750000001705},{"name":"F#2","midi":42,"time":158.6250000000012,"velocity":0.6850393700787402,"duration":0.09218750000002274},{"name":"F#3","midi":54,"time":158.6250000000012,"velocity":0.4881889763779528,"duration":0.07656250000002274},{"name":"G4","midi":67,"time":158.6250000000012,"velocity":0.5669291338582677,"duration":0.31093750000005116},{"name":"G3","midi":55,"time":158.6250000000012,"velocity":0.5826771653543307,"duration":0.32187500000006253},{"name":"G5","midi":79,"time":158.6250000000012,"velocity":0.3779527559055118,"duration":0.07812500000002842},{"name":"C6","midi":84,"time":158.6250000000012,"velocity":0.4251968503937008,"duration":0.06562500000001137},{"name":"F#3","midi":54,"time":158.8125000000012,"velocity":0.3937007874015748,"duration":0.037499999999994316},{"name":"A#4","midi":70,"time":158.8125000000012,"velocity":0.4409448818897638,"duration":0.17187500000005684},{"name":"F#2","midi":42,"time":158.8125000000012,"velocity":0.4330708661417323,"duration":0.040625000000005684},{"name":"D#4","midi":63,"time":158.8125000000012,"velocity":0.4645669291338583,"duration":0.0953125000000341},{"name":"C4","midi":60,"time":158.8125000000012,"velocity":0.4645669291338583,"duration":0.47031250000009095},{"name":"C4","midi":60,"time":158.99843750000124,"velocity":0.7086614173228346,"duration":0.5828125000001023},{"name":"F2","midi":41,"time":159.00000000000125,"velocity":0.8503937007874016,"duration":0.3343750000000796},{"name":"D#4","midi":63,"time":159.00000000000125,"velocity":0.6141732283464567,"duration":0.26406250000002274},{"name":"C4","midi":60,"time":159.00000000000125,"velocity":0.5984251968503937,"duration":0.662500000000108},{"name":"G#3","midi":56,"time":159.00000000000125,"velocity":0.4881889763779528,"duration":0.24843750000002274},{"name":"F3","midi":53,"time":159.00000000000125,"velocity":0.4645669291338583,"duration":0.234375},{"name":"F5","midi":77,"time":159.00000000000125,"velocity":0.8267716535433071,"duration":0.31875000000005116},{"name":"F5","midi":77,"time":159.00000000000125,"velocity":0.6456692913385826,"duration":0.6046875000000966},{"name":"G#3","midi":56,"time":159.00000000000125,"velocity":0.7322834645669292,"duration":0.5703125000000853},{"name":"F4","midi":65,"time":159.00000000000125,"velocity":0.8267716535433071,"duration":1.5359375000001307},{"name":"F3","midi":53,"time":159.00000000000125,"velocity":0.7795275590551181,"duration":0.5046875000000739},{"name":"C5","midi":72,"time":159.00000000000125,"velocity":0.6299212598425197,"duration":0.23750000000001137},{"name":"D#5","midi":75,"time":159.00000000000125,"velocity":0.8740157480314961,"duration":0.20624999999998295},{"name":"A#3","midi":58,"time":159.00000000000125,"velocity":0.8188976377952756,"duration":0.14374999999998295},{"name":"F#2","midi":42,"time":159.00000000000125,"velocity":0.8503937007874016,"duration":0.09374999999997158},{"name":"A4","midi":69,"time":159.00000000000125,"velocity":0.4015748031496063,"duration":0.12499999999997158},{"name":"F#3","midi":54,"time":159.00000000000125,"velocity":0.6456692913385826,"duration":0.09687499999998295},{"name":"C2","midi":36,"time":159.00000000000125,"velocity":0.9448818897637795,"duration":0.3000000000000398},{"name":"F3","midi":53,"time":159.00000000000125,"velocity":0.5196850393700787,"duration":0.5468750000000853},{"name":"D#4","midi":63,"time":159.00000000000125,"velocity":0.7795275590551181,"duration":0.5453125000000796},{"name":"F3","midi":53,"time":159.00000000000125,"velocity":0.6141732283464567,"duration":0.6640625000001137},{"name":"D#4","midi":63,"time":159.00000000000125,"velocity":0.7559055118110236,"duration":0.5812500000000966},{"name":"C4","midi":60,"time":159.00000000000125,"velocity":0.7086614173228346,"duration":0.6953125000001137},{"name":"D#5","midi":75,"time":159.00000000000125,"velocity":0.3779527559055118,"duration":0.21562499999998863},{"name":"G#4","midi":68,"time":159.00156250000126,"velocity":0.7322834645669292,"duration":0.6734375000001194},{"name":"F5","midi":77,"time":159.18750000000122,"velocity":0.7007874015748031,"duration":0.45000000000013074},{"name":"D5","midi":74,"time":159.18750000000122,"velocity":0.6771653543307087,"duration":0.11250000000006821},{"name":"A#3","midi":58,"time":159.18750000000122,"velocity":0.7007874015748031,"duration":0.13437500000009095},{"name":"F#3","midi":54,"time":159.18750000000122,"velocity":0.3228346456692913,"duration":0.05312500000005116},{"name":"A#4","midi":70,"time":159.18750000000122,"velocity":0.4251968503937008,"duration":0.14531250000010232},{"name":"F5","midi":77,"time":159.18750000000122,"velocity":0.4566929133858268,"duration":1.9890625000001307},{"name":"F2","midi":41,"time":159.37500000000134,"velocity":0.6614173228346457,"duration":0.3046875000000284},{"name":"D#4","midi":63,"time":159.37500000000134,"velocity":0.4330708661417323,"duration":0.3046875000000284},{"name":"C4","midi":60,"time":159.37500000000134,"velocity":0.31496062992125984,"duration":0.6703125000000512},{"name":"F3","midi":53,"time":159.37500000000134,"velocity":0.2047244094488189,"duration":0.6468750000000227},{"name":"G#3","midi":56,"time":159.37500000000134,"velocity":0.4094488188976378,"duration":0.645312500000017},{"name":"A#3","midi":58,"time":159.37500000000134,"velocity":0.6299212598425197,"duration":0.12968749999998863},{"name":"F5","midi":77,"time":159.37500000000134,"velocity":0.7716535433070866,"duration":1.8718749999999886},{"name":"D5","midi":74,"time":159.37500000000134,"velocity":0.7244094488188977,"duration":0.2359375000000341},{"name":"F#2","midi":42,"time":159.37500000000134,"velocity":0.5826771653543307,"duration":0.08437499999999432},{"name":"A4","midi":69,"time":159.37500000000134,"velocity":0.3464566929133858,"duration":0.11406249999998863},{"name":"F#3","midi":54,"time":159.37500000000134,"velocity":0.48031496062992124,"duration":0.08437499999999432},{"name":"A#3","midi":58,"time":159.56250000000134,"velocity":0.7007874015748031,"duration":0.15312500000001705},{"name":"D#5","midi":75,"time":159.56250000000134,"velocity":0.7480314960629921,"duration":0.13281250000002842},{"name":"C5","midi":72,"time":159.56250000000134,"velocity":0.6456692913385826,"duration":0.1281250000000398},{"name":"A#4","midi":70,"time":159.56250000000134,"velocity":0.4409448818897638,"duration":0.15937500000001137},{"name":"F#2","midi":42,"time":159.56250000000134,"velocity":0.5669291338582677,"duration":0.05468750000002842},{"name":"F#3","midi":54,"time":159.56250000000134,"velocity":0.33858267716535434,"duration":0.04531250000002274},{"name":"F3","midi":53,"time":159.56250000000134,"velocity":0.5196850393700787,"duration":0.6750000000000398},{"name":"F2","midi":41,"time":159.75000000000134,"velocity":0.7322834645669292,"duration":0.2921875000000398},{"name":"G#3","midi":56,"time":159.75000000000134,"velocity":0.5826771653543307,"duration":0.47968750000001137},{"name":"F3","midi":53,"time":159.75000000000134,"velocity":0.5354330708661418,"duration":0.5390625000000284},{"name":"D#4","midi":63,"time":159.75000000000134,"velocity":0.5669291338582677,"duration":0.2812500000000284},{"name":"C4","midi":60,"time":159.75000000000134,"velocity":0.5826771653543307,"duration":0.3375000000000341},{"name":"A#3","midi":58,"time":159.75000000000134,"velocity":0.7480314960629921,"duration":0.2921875000000398},{"name":"D#5","midi":75,"time":159.75000000000134,"velocity":0.7244094488188977,"duration":0.4234375000000341},{"name":"C5","midi":72,"time":159.75000000000134,"velocity":0.7952755905511811,"duration":0.3937500000000398},{"name":"F#3","midi":54,"time":159.75000000000134,"velocity":0.8267716535433071,"duration":0.09843750000001705},{"name":"A4","midi":69,"time":159.75000000000134,"velocity":0.25196850393700787,"duration":0.12343750000002274},{"name":"D2","midi":38,"time":159.75000000000134,"velocity":0.8976377952755905,"duration":0.3453125000000341},{"name":"F#2","midi":42,"time":159.75000000000134,"velocity":0.7322834645669292,"duration":0.09531250000000568},{"name":"C4","midi":60,"time":159.75000000000134,"velocity":0.7559055118110236,"duration":0.48281250000002274},{"name":"G#4","midi":68,"time":159.75000000000134,"velocity":0.7559055118110236,"duration":0.6968750000000341},{"name":"D#4","midi":63,"time":159.75000000000134,"velocity":0.7322834645669292,"duration":0.3296875000000341},{"name":"C4","midi":60,"time":159.75000000000134,"velocity":0.5826771653543307,"duration":0.5109375000000398},{"name":"F3","midi":53,"time":159.75000000000134,"velocity":0.7795275590551181,"duration":0.6984375000000398},{"name":"D#4","midi":63,"time":159.75000000000134,"velocity":0.8031496062992126,"duration":0.4875000000000398},{"name":"D#5","midi":75,"time":159.75000000000134,"velocity":0.33858267716535434,"duration":0.45937500000002274},{"name":"A#4","midi":70,"time":159.93750000000136,"velocity":0.41732283464566927,"duration":0.13750000000001705},{"name":"F#2","midi":42,"time":159.93750000000136,"velocity":0.14173228346456693,"duration":0.05624999999997726},{"name":"F#3","midi":54,"time":159.93750000000136,"velocity":0.3228346456692913,"duration":0.04374999999998863},{"name":"F2","midi":41,"time":160.12500000000136,"velocity":0.8267716535433071,"duration":0.35468750000001137},{"name":"F3","midi":53,"time":160.12500000000136,"velocity":0.4645669291338583,"duration":0.38593750000001137},{"name":"D#4","midi":63,"time":160.12500000000136,"velocity":0.5196850393700787,"duration":0.26875000000001137},{"name":"C4","midi":60,"time":160.12500000000136,"velocity":0.3858267716535433,"duration":0.3140625000000057},{"name":"G#3","midi":56,"time":160.12500000000136,"velocity":0.5196850393700787,"duration":0.19062500000001137},{"name":"A#3","midi":58,"time":160.12500000000136,"velocity":0.6456692913385826,"duration":0.24687500000001705},{"name":"A#4","midi":70,"time":160.12500000000136,"velocity":0.6771653543307087,"duration":0.26406250000002274},{"name":"D5","midi":74,"time":160.12500000000136,"velocity":0.7007874015748031,"duration":0.22031250000000568},{"name":"F#3","midi":54,"time":160.12500000000136,"velocity":0.4094488188976378,"duration":0.078125},{"name":"F#2","midi":42,"time":160.12500000000136,"velocity":0.6456692913385826,"duration":0.07968750000000568},{"name":"A4","midi":69,"time":160.12500000000136,"velocity":0.3543307086614173,"duration":0.11093750000000568},{"name":"D#4","midi":63,"time":160.12500000000136,"velocity":0.5669291338582677,"duration":0.2906250000000057},{"name":"C4","midi":60,"time":160.12500000000136,"velocity":0.5826771653543307,"duration":0.3296875000000057},{"name":"D5","midi":74,"time":160.12500000000136,"velocity":0.48031496062992124,"duration":0.23281250000002274},{"name":"C4","midi":60,"time":160.31250000000136,"velocity":0.6614173228346457,"duration":0.22812500000000568},{"name":"C5","midi":72,"time":160.31250000000136,"velocity":0.7007874015748031,"duration":0.26093750000001137},{"name":"D#5","midi":75,"time":160.31250000000136,"velocity":0.7007874015748031,"duration":0.23281249999999432},{"name":"F#3","midi":54,"time":160.31250000000136,"velocity":0.28346456692913385,"duration":0.04375000000001705},{"name":"A#4","midi":70,"time":160.31250000000136,"velocity":0.4015748031496063,"duration":0.13124999999999432},{"name":"F#2","midi":42,"time":160.31250000000136,"velocity":0.4330708661417323,"duration":0.04218750000001137},{"name":"C4","midi":60,"time":160.31250000000136,"velocity":0.5826771653543307,"duration":0.23281249999999432},{"name":"F3","midi":53,"time":160.31250000000136,"velocity":0.6614173228346457,"duration":0.5578124999999545},{"name":"D#5","midi":75,"time":160.31250000000136,"velocity":0.4094488188976378,"duration":0.2578125},{"name":"D2","midi":38,"time":160.50000000000136,"velocity":0.8031496062992126,"duration":0.37656249999997726},{"name":"D4","midi":62,"time":160.50000000000136,"velocity":0.6614173228346457,"duration":0.3468749999999545},{"name":"D3","midi":50,"time":160.50000000000136,"velocity":0.5669291338582677,"duration":0.3421874999999659},{"name":"F3","midi":53,"time":160.50000000000136,"velocity":0.6141732283464567,"duration":0.6484375},{"name":"A#3","midi":58,"time":160.50000000000136,"velocity":0.6850393700787402,"duration":0.3468749999999545},{"name":"D4","midi":62,"time":160.50000000000136,"velocity":0.6850393700787402,"duration":0.48906249999998863},{"name":"A#3","midi":58,"time":160.50000000000136,"velocity":0.7086614173228346,"duration":0.659374999999983},{"name":"A#3","midi":58,"time":160.50000000000136,"velocity":0.7480314960629921,"duration":0.682812499999983},{"name":"F5","midi":77,"time":160.50000000000136,"velocity":0.6456692913385826,"duration":1.4671875000002217},{"name":"D5","midi":74,"time":160.50000000000136,"velocity":0.8188976377952756,"duration":1.4671875000002217},{"name":"F#3","midi":54,"time":160.50000000000136,"velocity":0.6299212598425197,"duration":0.1015625},{"name":"A#2","midi":46,"time":160.50000000000136,"velocity":0.6614173228346457,"duration":0.15781249999997726},{"name":"C2","midi":36,"time":160.50000000000136,"velocity":0.8976377952755905,"duration":0.19531249999997158},{"name":"A4","midi":69,"time":160.50000000000136,"velocity":0.25196850393700787,"duration":0.11406249999998863},{"name":"A#3","midi":58,"time":160.50000000000136,"velocity":0.5984251968503937,"duration":0.9828125000000796},{"name":"A#4","midi":70,"time":160.50000000000136,"velocity":0.8267716535433071,"duration":0.3546874999999545},{"name":"D4","midi":62,"time":160.50000000000136,"velocity":0.7874015748031497,"duration":0.674999999999983},{"name":"D4","midi":62,"time":160.50000000000136,"velocity":0.7795275590551181,"duration":1.0656250000000966},{"name":"F3","midi":53,"time":160.50000000000136,"velocity":0.7086614173228346,"duration":0.6734374999999773},{"name":"A#3","midi":58,"time":160.50000000000136,"velocity":0.7322834645669292,"duration":1.0937500000001137},{"name":"F5","midi":77,"time":160.50000000000136,"velocity":0.48031496062992124,"duration":1.4718750000002103},{"name":"F4","midi":65,"time":160.50156250000137,"velocity":0.7322834645669292,"duration":0.7093749999999659},{"name":"F#3","midi":54,"time":160.68750000000134,"velocity":0.31496062992125984,"duration":0.048437500000005684},{"name":"A#4","midi":70,"time":160.68750000000134,"velocity":0.3228346456692913,"duration":0.17343749999997726},{"name":"D4","midi":62,"time":160.87343750000133,"velocity":0.5669291338582677,"duration":0.8500000000001933},{"name":"A#4","midi":70,"time":160.87343750000133,"velocity":0.4015748031496063,"duration":0.29218750000001137},{"name":"A#1","midi":34,"time":160.87500000000134,"velocity":0.8267716535433071,"duration":0.3203125},{"name":"A#2","midi":46,"time":160.87500000000134,"velocity":0.5826771653543307,"duration":1.0828125000002444},{"name":"A#3","midi":58,"time":160.87500000000134,"velocity":0.48031496062992124,"duration":0.8734375000001648},{"name":"F3","midi":53,"time":160.87500000000134,"velocity":0.2204724409448819,"duration":0.6765625000001307},{"name":"F#2","midi":42,"time":160.87500000000134,"velocity":0.6299212598425197,"duration":0.13125000000002274},{"name":"A4","midi":69,"time":160.87500000000134,"velocity":0.3464566929133858,"duration":0.11093750000000568},{"name":"F#3","midi":54,"time":160.87500000000134,"velocity":0.4566929133858268,"duration":0.09062500000001705},{"name":"D2","midi":38,"time":160.87500000000134,"velocity":0.7322834645669292,"duration":0.07343750000001137},{"name":"F#2","midi":42,"time":161.06250000000134,"velocity":0.5984251968503937,"duration":0.048437500000005684},{"name":"F#3","midi":54,"time":161.06250000000134,"velocity":0.29133858267716534,"duration":0.04218750000001137},{"name":"A#4","midi":70,"time":161.06250000000134,"velocity":0.4015748031496063,"duration":0.15156250000001137},{"name":"D2","midi":38,"time":161.06250000000134,"velocity":0.7795275590551181,"duration":0.07656250000002274},{"name":"A#1","midi":34,"time":161.25000000000134,"velocity":0.7322834645669292,"duration":0.3515625000001421},{"name":"A#3","midi":58,"time":161.25000000000134,"velocity":0.5669291338582677,"duration":0.5875000000001762},{"name":"F3","midi":53,"time":161.25000000000134,"velocity":0.4251968503937008,"duration":0.34062500000013074},{"name":"F#3","midi":54,"time":161.25000000000134,"velocity":0.8267716535433071,"duration":0.10156250000005684},{"name":"A4","midi":69,"time":161.25000000000134,"velocity":0.25984251968503935,"duration":0.12500000000008527},{"name":"F#2","midi":42,"time":161.25000000000134,"velocity":0.7559055118110236,"duration":0.07500000000004547},{"name":"D2","midi":38,"time":161.25000000000134,"velocity":0.8976377952755905,"duration":0.10000000000005116},{"name":"A#4","midi":70,"time":161.25000000000134,"velocity":0.7322834645669292,"duration":0.31718750000013074},{"name":"D4","midi":62,"time":161.25000000000134,"velocity":0.7795275590551181,"duration":0.5109375000001535},{"name":"D4","midi":62,"time":161.25000000000134,"velocity":0.7795275590551181,"duration":0.6546875000002217},{"name":"F3","midi":53,"time":161.25000000000134,"velocity":0.8031496062992126,"duration":0.46093750000017053},{"name":"A#3","midi":58,"time":161.25000000000134,"velocity":0.6850393700787402,"duration":0.6359375000002103},{"name":"F4","midi":65,"time":161.25156250000134,"velocity":0.8031496062992126,"duration":0.648437500000199},{"name":"F#3","midi":54,"time":161.43750000000145,"velocity":0.2755905511811024,"duration":0.040625000000005684},{"name":"B2","midi":47,"time":161.43750000000145,"velocity":0.6850393700787402,"duration":0.12031250000001137},{"name":"A#4","midi":70,"time":161.43750000000145,"velocity":0.33858267716535434,"duration":0.13437500000000568},{"name":"F2","midi":41,"time":161.62500000000148,"velocity":0.6456692913385826,"duration":0.17812500000002274},{"name":"A#3","midi":58,"time":161.62500000000148,"velocity":0.6141732283464567,"duration":0.32812500000008527},{"name":"F#2","midi":42,"time":161.62500000000148,"velocity":0.6850393700787402,"duration":0.0875000000000341},{"name":"F#3","midi":54,"time":161.62500000000148,"velocity":0.48031496062992124,"duration":0.08593750000002842},{"name":"A4","midi":69,"time":161.62500000000148,"velocity":0.3779527559055118,"duration":0.09843750000004547},{"name":"A2","midi":45,"time":161.62500000000148,"velocity":0.5196850393700787,"duration":0.1421875000000341},{"name":"A#4","midi":70,"time":161.62500000000148,"velocity":0.6141732283464567,"duration":0.13906250000002274},{"name":"D4","midi":62,"time":161.62500000000148,"velocity":0.5669291338582677,"duration":0.31250000000008527},{"name":"A#3","midi":58,"time":161.62500000000148,"velocity":0.4330708661417323,"duration":0.33125000000009663},{"name":"F3","midi":53,"time":161.62500000000148,"velocity":0.5039370078740157,"duration":0.31406250000009095},{"name":"A#1","midi":34,"time":161.8125000000015,"velocity":0.6614173228346457,"duration":0.20937500000007958},{"name":"F3","midi":53,"time":161.8125000000015,"velocity":0.44881889763779526,"duration":0.18906250000009095},{"name":"F#3","midi":54,"time":161.8125000000015,"velocity":0.29133858267716534,"duration":0.04218750000001137},{"name":"G2","midi":43,"time":161.8125000000015,"velocity":0.4881889763779528,"duration":0.09062500000004547},{"name":"A#4","midi":70,"time":161.8125000000015,"velocity":0.4409448818897638,"duration":0.09218750000005116},{"name":"D4","midi":62,"time":161.8125000000015,"velocity":0.7086614173228346,"duration":0.13906250000005116},{"name":"A#4","midi":70,"time":161.8125000000015,"velocity":0.7086614173228346,"duration":0.17187500000008527},{"name":"A#3","midi":58,"time":161.8125000000015,"velocity":0.5984251968503937,"duration":0.25312500000009663},{"name":"F3","midi":53,"time":161.8125000000015,"velocity":0.6299212598425197,"duration":0.256250000000108},{"name":"D4","midi":62,"time":161.8125000000015,"velocity":0.7795275590551181,"duration":0.25000000000008527},{"name":"G#1","midi":32,"time":162.0000000000016,"velocity":0.8740157480314961,"duration":1.1781250000000796},{"name":"D#3","midi":51,"time":162.0000000000016,"velocity":0.7086614173228346,"duration":0.6328125000000568},{"name":"G#3","midi":56,"time":162.0000000000016,"velocity":0.5984251968503937,"duration":0.5515625000000455},{"name":"G#2","midi":44,"time":162.0000000000016,"velocity":0.7086614173228346,"duration":1.262500000000074},{"name":"C4","midi":60,"time":162.0000000000016,"velocity":0.6456692913385826,"duration":0.7375000000000682},{"name":"D#4","midi":63,"time":162.0000000000016,"velocity":0.6614173228346457,"duration":0.2906250000000341},{"name":"C4","midi":60,"time":162.0000000000016,"velocity":0.6535433070866141,"duration":1.035937500000074},{"name":"D#4","midi":63,"time":162.0000000000016,"velocity":0.6141732283464567,"duration":0.7375000000000682},{"name":"G#3","midi":56,"time":162.0000000000016,"velocity":0.5905511811023622,"duration":0.7375000000000682},{"name":"D#3","midi":51,"time":162.0000000000016,"velocity":0.44881889763779526,"duration":1.2328125000000796},{"name":"G#4","midi":68,"time":162.0000000000016,"velocity":0.7322834645669292,"duration":1.553125000000108},{"name":"C5","midi":72,"time":162.0000000000016,"velocity":0.7322834645669292,"duration":1.407812500000091},{"name":"C6","midi":84,"time":162.0000000000016,"velocity":0.4094488188976378,"duration":1.545312500000108},{"name":"D#4","midi":63,"time":162.0000000000016,"velocity":0.6614173228346457,"duration":1.0546875000000853},{"name":"C#3","midi":49,"time":162.0000000000016,"velocity":0.7086614173228346,"duration":0.08437500000002274},{"name":"F#3","midi":54,"time":162.0000000000016,"velocity":0.6771653543307087,"duration":0.0796875000000341},{"name":"A4","midi":69,"time":162.0000000000016,"velocity":0.4015748031496063,"duration":0.12500000000002842},{"name":"C2","midi":36,"time":162.0000000000016,"velocity":0.9212598425196851,"duration":0.5453125000000512},{"name":"C4","midi":60,"time":162.0000000000016,"velocity":0.7086614173228346,"duration":1.228125000000091},{"name":"G#3","midi":56,"time":162.0000000000016,"velocity":0.7795275590551181,"duration":0.9531250000000568},{"name":"D#4","midi":63,"time":162.0000000000016,"velocity":0.7086614173228346,"duration":1.2421875000000853},{"name":"D#5","midi":75,"time":162.0000000000016,"velocity":0.5354330708661418,"duration":0.7265625000000568},{"name":"C5","midi":72,"time":162.0000000000016,"velocity":0.5039370078740157,"duration":1.4531250000001137},{"name":"D#4","midi":63,"time":162.0000000000016,"velocity":0.6614173228346457,"duration":1.4343750000001023},{"name":"F#3","midi":54,"time":162.18750000000162,"velocity":0.18110236220472442,"duration":0.053124999999994316},{"name":"A#4","midi":70,"time":162.18750000000162,"velocity":0.4251968503937008,"duration":0.14531250000001705},{"name":"F#2","midi":42,"time":162.18750000000162,"velocity":0.4645669291338583,"duration":0.046875},{"name":"D#4","midi":63,"time":162.37500000000165,"velocity":0.6456692913385826,"duration":1.1250000000000568},{"name":"D#5","midi":75,"time":162.37500000000165,"velocity":0.8740157480314961,"duration":1.0703125000000568},{"name":"F#3","midi":54,"time":162.37500000000165,"velocity":0.3543307086614173,"duration":0.09218749999999432},{"name":"A4","midi":69,"time":162.37500000000165,"velocity":0.3464566929133858,"duration":0.11406249999998863},{"name":"F#2","midi":42,"time":162.37500000000165,"velocity":0.4330708661417323,"duration":0.07187500000000568},{"name":"D#4","midi":63,"time":162.37500000000165,"velocity":0.6614173228346457,"duration":1.2578125000000568},{"name":"C4","midi":60,"time":162.37500000000165,"velocity":0.6850393700787402,"duration":1.0687500000000512},{"name":"A#4","midi":70,"time":162.37500000000165,"velocity":0.7559055118110236,"duration":0.34687500000001137},{"name":"G#3","midi":56,"time":162.37500000000165,"velocity":0.2440944881889764,"duration":0.879687500000017},{"name":"F#3","midi":54,"time":162.56250000000165,"velocity":0.29133858267716534,"duration":0.06874999999999432},{"name":"F#2","midi":42,"time":162.56250000000165,"velocity":0.33858267716535434,"duration":0.0390625},{"name":"A#4","midi":70,"time":162.56250000000165,"velocity":0.4409448818897638,"duration":0.36406249999998863},{"name":"A#5","midi":82,"time":162.75000000000165,"velocity":0.8267716535433071,"duration":0.2515625000000057},{"name":"F#3","midi":54,"time":162.75000000000165,"velocity":0.7007874015748031,"duration":0.08750000000000568},{"name":"A4","midi":69,"time":162.75000000000165,"velocity":0.25196850393700787,"duration":0.12343749999999432},{"name":"D2","midi":38,"time":162.75000000000165,"velocity":0.8976377952755905,"duration":0.4453125000000284},{"name":"F#2","midi":42,"time":162.75000000000165,"velocity":0.7086614173228346,"duration":0.11093750000000568},{"name":"G#3","midi":56,"time":162.75000000000165,"velocity":0.7795275590551181,"duration":0.6046875000000398},{"name":"D#4","midi":63,"time":162.75000000000165,"velocity":0.7559055118110236,"duration":0.8828125000000568},{"name":"G5","midi":79,"time":162.93750000000165,"velocity":0.7559055118110236,"duration":0.23125000000001705},{"name":"A#4","midi":70,"time":162.93750000000165,"velocity":0.41732283464566927,"duration":0.09531250000000568},{"name":"F#3","midi":54,"time":162.93750000000165,"velocity":0.2125984251968504,"duration":0.06874999999999432},{"name":"F#2","midi":42,"time":162.93750000000165,"velocity":0.4251968503937008,"duration":0.056250000000005684},{"name":"A#4","midi":70,"time":162.93750000000165,"velocity":0.5196850393700787,"duration":0.13750000000001705},{"name":"D#3","midi":51,"time":163.12500000000168,"velocity":0.3700787401574803,"duration":0.34218750000002274},{"name":"G#3","midi":56,"time":163.12500000000168,"velocity":0.4881889763779528,"duration":0.4218750000000284},{"name":"F#3","midi":54,"time":163.12500000000168,"velocity":0.5196850393700787,"duration":0.09531250000000568},{"name":"A4","midi":69,"time":163.12500000000168,"velocity":0.3543307086614173,"duration":0.11093750000000568},{"name":"F#2","midi":42,"time":163.12500000000168,"velocity":0.5984251968503937,"duration":0.09843750000001705},{"name":"D#4","midi":63,"time":163.12500000000168,"velocity":0.5984251968503937,"duration":0.5484375000000341},{"name":"C4","midi":60,"time":163.12500000000168,"velocity":0.5354330708661418,"duration":0.38906250000002274},{"name":"A#4","midi":70,"time":163.12500000000168,"velocity":0.6614173228346457,"duration":0.13437499999997726},{"name":"G#1","midi":32,"time":163.31250000000168,"velocity":0.5826771653543307,"duration":0.10625000000001705},{"name":"G5","midi":79,"time":163.31250000000168,"velocity":0.8267716535433071,"duration":0.30000000000001137},{"name":"F#2","midi":42,"time":163.31250000000168,"velocity":0.3858267716535433,"duration":0.048437500000005684},{"name":"A#4","midi":70,"time":163.31250000000168,"velocity":0.4015748031496063,"duration":0.13125000000002274},{"name":"F#3","midi":54,"time":163.31250000000168,"velocity":0.29133858267716534,"duration":0.05781250000001137},{"name":"G#3","midi":56,"time":163.31250000000168,"velocity":0.44881889763779526,"duration":0.3609375000000341},{"name":"A#1","midi":34,"time":163.5000000000017,"velocity":0.6850393700787402,"duration":0.3390625000000398},{"name":"A#3","midi":58,"time":163.5000000000017,"velocity":0.5354330708661418,"duration":0.27812500000001705},{"name":"F4","midi":65,"time":163.5000000000017,"velocity":0.48031496062992124,"duration":0.26875000000001137},{"name":"A#2","midi":46,"time":163.5000000000017,"velocity":0.7086614173228346,"duration":1.4515625000000227},{"name":"D4","midi":62,"time":163.5000000000017,"velocity":0.6456692913385826,"duration":0.33437500000002274},{"name":"D#5","midi":75,"time":163.5000000000017,"velocity":0.8267716535433071,"duration":0.3484375000000455},{"name":"F4","midi":65,"time":163.5000000000017,"velocity":0.6141732283464567,"duration":0.7390625000000455},{"name":"A#3","midi":58,"time":163.5000000000017,"velocity":0.5354330708661418,"duration":0.6156250000000512},{"name":"D4","midi":62,"time":163.5000000000017,"velocity":0.6535433070866141,"duration":0.3359375000000284},{"name":"F3","midi":53,"time":163.5000000000017,"velocity":0.4330708661417323,"duration":1.5390625000000568},{"name":"D5","midi":74,"time":163.5000000000017,"velocity":0.6299212598425197,"duration":1.3437500000000284},{"name":"A#4","midi":70,"time":163.5000000000017,"velocity":0.6614173228346457,"duration":0.3546875000000398},{"name":"D6","midi":86,"time":163.5000000000017,"velocity":0.4881889763779528,"duration":1.5390625000000568},{"name":"F#3","midi":54,"time":163.5000000000017,"velocity":0.5905511811023622,"duration":0.09999999999999432},{"name":"C2","midi":36,"time":163.5000000000017,"velocity":0.8267716535433071,"duration":0.22187500000001137},{"name":"A4","midi":69,"time":163.5000000000017,"velocity":0.25196850393700787,"duration":0.11406249999998863},{"name":"F#2","midi":42,"time":163.5000000000017,"velocity":0.8031496062992126,"duration":0.09062499999998863},{"name":"D4","midi":62,"time":163.5000000000017,"velocity":0.6141732283464567,"duration":0.7390625000000455},{"name":"F4","midi":65,"time":163.5000000000017,"velocity":0.5511811023622047,"duration":0.9156250000000341},{"name":"A#4","midi":70,"time":163.5000000000017,"velocity":0.6456692913385826,"duration":0.37343750000005116},{"name":"F5","midi":77,"time":163.5000000000017,"velocity":0.3937007874015748,"duration":1.5187500000000398},{"name":"D5","midi":74,"time":163.5000000000017,"velocity":0.3700787401574803,"duration":1.4218750000000284},{"name":"F#2","midi":42,"time":163.6875000000017,"velocity":0.3464566929133858,"duration":0.04218750000001137},{"name":"A#4","midi":70,"time":163.6875000000017,"velocity":0.3228346456692913,"duration":0.5265625000000398},{"name":"F#3","midi":54,"time":163.6875000000017,"velocity":0.31496062992125984,"duration":0.07343750000001137},{"name":"A#3","midi":58,"time":163.6875000000017,"velocity":0.6299212598425197,"duration":0.5515625000000455},{"name":"D4","midi":62,"time":163.6875000000017,"velocity":0.6850393700787402,"duration":0.7156250000000455},{"name":"F4","midi":65,"time":163.6875000000017,"velocity":0.6850393700787402,"duration":1.114062500000017},{"name":"A#1","midi":34,"time":163.87500000000176,"velocity":0.7795275590551181,"duration":0.7406249999999659},{"name":"A#3","midi":58,"time":163.87500000000176,"velocity":0.5984251968503937,"duration":0.6421874999999773},{"name":"F4","midi":65,"time":163.87500000000176,"velocity":0.6614173228346457,"duration":1.0874999999999773},{"name":"D4","midi":62,"time":163.87500000000176,"velocity":0.6850393700787402,"duration":0.6906249999999545},{"name":"A4","midi":69,"time":163.87500000000176,"velocity":0.3464566929133858,"duration":0.11093750000000568},{"name":"F#2","midi":42,"time":163.87500000000176,"velocity":0.5826771653543307,"duration":0.09375},{"name":"C2","midi":36,"time":163.87500000000176,"velocity":0.8740157480314961,"duration":0.3031249999999943},{"name":"F#3","midi":54,"time":163.87500000000176,"velocity":0.5511811023622047,"duration":0.10468750000001137},{"name":"C5","midi":72,"time":163.87500000000176,"velocity":0.8031496062992126,"duration":0.5874999999999773},{"name":"D4","midi":62,"time":163.87500000000176,"velocity":0.7795275590551181,"duration":0.9265624999999602},{"name":"A#3","midi":58,"time":163.87500000000176,"velocity":0.48031496062992124,"duration":0.9265624999999602},{"name":"F#2","midi":42,"time":164.06250000000176,"velocity":0.31496062992125984,"duration":0.05781249999998295},{"name":"F#3","midi":54,"time":164.06250000000176,"velocity":0.25984251968503935,"duration":0.06562499999998295},{"name":"A#4","midi":70,"time":164.06250000000176,"velocity":0.4015748031496063,"duration":0.5093749999999488},{"name":"A4","midi":69,"time":164.25000000000176,"velocity":0.25984251968503935,"duration":0.125},{"name":"D2","midi":38,"time":164.25000000000176,"velocity":0.8503937007874016,"duration":0.3031249999999659},{"name":"F#3","midi":54,"time":164.25000000000176,"velocity":0.5196850393700787,"duration":0.109375},{"name":"F#2","midi":42,"time":164.25000000000176,"velocity":0.7322834645669292,"duration":0.09843749999998863},{"name":"D4","midi":62,"time":164.25000000000176,"velocity":0.7086614173228346,"duration":0.6953124999999716},{"name":"F4","midi":65,"time":164.25000000000176,"velocity":0.6850393700787402,"duration":0.7421874999999716},{"name":"A#3","midi":58,"time":164.25000000000176,"velocity":0.8267716535433071,"duration":0.7421874999999716},{"name":"D#4","midi":63,"time":164.43750000000173,"velocity":0.5039370078740157,"duration":0.16874999999998863},{"name":"F#3","midi":54,"time":164.43750000000173,"velocity":0.2204724409448819,"duration":0.04218750000001137},{"name":"A#4","midi":70,"time":164.43750000000173,"velocity":0.33858267716535434,"duration":0.49687499999998863},{"name":"F#2","midi":42,"time":164.43750000000173,"velocity":0.33858267716535434,"duration":0.05156250000001705},{"name":"A#4","midi":70,"time":164.43750000000173,"velocity":0.7322834645669292,"duration":0.546875},{"name":"D4","midi":62,"time":164.43750000000173,"velocity":0.7559055118110236,"duration":0.5546875},{"name":"D2","midi":38,"time":164.62500000000173,"velocity":0.8031496062992126,"duration":0.4250000000000398},{"name":"D4","midi":62,"time":164.62500000000173,"velocity":0.4251968503937008,"duration":0.3765625000000057},{"name":"F4","midi":65,"time":164.62500000000173,"velocity":0.7322834645669292,"duration":0.4000000000000057},{"name":"A#3","midi":58,"time":164.62500000000173,"velocity":0.5984251968503937,"duration":0.40312500000001705},{"name":"A4","midi":69,"time":164.62500000000173,"velocity":0.3779527559055118,"duration":0.09843749999998863},{"name":"F#3","midi":54,"time":164.62500000000173,"velocity":0.6141732283464567,"duration":0.09843749999998863},{"name":"F#2","midi":42,"time":164.62500000000173,"velocity":0.6614173228346457,"duration":0.0703125},{"name":"F#3","midi":54,"time":164.81250000000173,"velocity":0.14173228346456693,"duration":0.060937499999994316},{"name":"F#2","midi":42,"time":164.81250000000173,"velocity":0.4094488188976378,"duration":0.04374999999998863},{"name":"A#4","midi":70,"time":164.81250000000173,"velocity":0.4409448818897638,"duration":0.2296875000000398},{"name":"A#3","midi":58,"time":164.81250000000173,"velocity":0.4094488188976378,"duration":0.7234375000000455},{"name":"D4","midi":62,"time":164.81250000000173,"velocity":0.44881889763779526,"duration":0.2703125000000455},{"name":"F4","midi":65,"time":164.81250000000173,"velocity":0.3779527559055118,"duration":0.25625000000005116},{"name":"D#2","midi":39,"time":165.00000000000173,"velocity":0.8503937007874016,"duration":1.2109375000000568},{"name":"D#3","midi":51,"time":165.00000000000173,"velocity":0.5826771653543307,"duration":1.0812500000000682},{"name":"D#2","midi":39,"time":165.00000000000173,"velocity":0.6614173228346457,"duration":1.4281250000000796},{"name":"D#4","midi":63,"time":165.00000000000173,"velocity":0.5984251968503937,"duration":0.06093750000005116},{"name":"G4","midi":67,"time":165.00000000000173,"velocity":0.6850393700787402,"duration":0.09218750000005116},{"name":"A#3","midi":58,"time":165.00000000000173,"velocity":0.6456692913385826,"duration":0.7375000000000682},{"name":"G4","midi":67,"time":165.00000000000173,"velocity":0.6141732283464567,"duration":0.7375000000000682},{"name":"D#4","midi":63,"time":165.00000000000173,"velocity":0.6141732283464567,"duration":0.3156250000000682},{"name":"D#3","midi":51,"time":165.00000000000173,"velocity":0.5748031496062992,"duration":2.8828125000001137},{"name":"D#6","midi":87,"time":165.00000000000173,"velocity":0.4645669291338583,"duration":2.9875000000000966},{"name":"G4","midi":67,"time":165.00000000000173,"velocity":0.6614173228346457,"duration":1.0234375000000568},{"name":"D#5","midi":75,"time":165.00000000000173,"velocity":0.5826771653543307,"duration":0.7421875000000568},{"name":"F#2","midi":42,"time":165.00000000000173,"velocity":0.8267716535433071,"duration":0.07343750000003979},{"name":"C2","midi":36,"time":165.00000000000173,"velocity":0.8740157480314961,"duration":0.36093750000006253},{"name":"A4","midi":69,"time":165.00000000000173,"velocity":0.2125984251968504,"duration":0.13437500000006253},{"name":"F#3","midi":54,"time":165.00000000000173,"velocity":0.6141732283464567,"duration":0.09375000000005684},{"name":"G4","midi":67,"time":165.00000000000173,"velocity":0.3464566929133858,"duration":1.301562500000074},{"name":"D#4","midi":63,"time":165.00000000000173,"velocity":0.30708661417322836,"duration":0.7375000000000682},{"name":"D#4","midi":63,"time":165.00000000000173,"velocity":0.5354330708661418,"duration":0.7921875000000682},{"name":"A#3","midi":58,"time":165.00000000000173,"velocity":0.6614173228346457,"duration":1.301562500000074},{"name":"G4","midi":67,"time":165.00000000000173,"velocity":0.7795275590551181,"duration":1.6343750000000625},{"name":"D#5","midi":75,"time":165.00000000000173,"velocity":0.4330708661417323,"duration":1.806250000000091},{"name":"G5","midi":79,"time":165.00000000000173,"velocity":0.44881889763779526,"duration":1.1593750000000682},{"name":"F#2","midi":42,"time":165.1875000000018,"velocity":0.4881889763779528,"duration":0.048437500000005684},{"name":"A#4","midi":70,"time":165.1875000000018,"velocity":0.3543307086614173,"duration":0.15000000000000568},{"name":"F#3","midi":54,"time":165.1875000000018,"velocity":0.33070866141732286,"duration":0.06562500000001137},{"name":"D#4","midi":63,"time":165.3750000000018,"velocity":0.4251968503937008,"duration":0.6453124999999886},{"name":"G3","midi":55,"time":165.3750000000018,"velocity":0.3858267716535433,"duration":2.468750000000057},{"name":"D#5","midi":75,"time":165.3750000000018,"velocity":0.8740157480314961,"duration":2.468750000000057},{"name":"A4","midi":69,"time":165.3750000000018,"velocity":0.25984251968503935,"duration":0.1015625},{"name":"F#3","midi":54,"time":165.3750000000018,"velocity":0.5354330708661418,"duration":0.09531250000000568},{"name":"F#2","midi":42,"time":165.3750000000018,"velocity":0.5354330708661418,"duration":0.07656249999999432},{"name":"G4","midi":67,"time":165.3750000000018,"velocity":0.6850393700787402,"duration":1.3031249999999943},{"name":"A#4","midi":70,"time":165.3750000000018,"velocity":0.6850393700787402,"duration":0.34218750000002274},{"name":"D#4","midi":63,"time":165.3750000000018,"velocity":0.6614173228346457,"duration":0.926562500000017},{"name":"A#3","midi":58,"time":165.3750000000018,"velocity":0.4645669291338583,"duration":1.2375000000000114},{"name":"F#2","midi":42,"time":165.5625000000018,"velocity":0.48031496062992124,"duration":0.04218750000001137},{"name":"A#4","midi":70,"time":165.5625000000018,"velocity":0.4251968503937008,"duration":0.44843749999998295},{"name":"F#3","midi":54,"time":165.5625000000018,"velocity":0.25984251968503935,"duration":0.06093750000002274},{"name":"A#5","midi":82,"time":165.7500000000018,"velocity":0.7795275590551181,"duration":0.25468749999998863},{"name":"A4","midi":69,"time":165.7500000000018,"velocity":0.30708661417322836,"duration":0.11562499999999432},{"name":"F#2","midi":42,"time":165.7500000000018,"velocity":0.7322834645669292,"duration":0.07500000000001705},{"name":"D2","midi":38,"time":165.7500000000018,"velocity":0.8976377952755905,"duration":0.3984375},{"name":"F#3","midi":54,"time":165.7500000000018,"velocity":0.6141732283464567,"duration":0.10312500000000568},{"name":"D#4","midi":63,"time":165.7500000000018,"velocity":0.6456692913385826,"duration":0.8812499999999943},{"name":"G4","midi":67,"time":165.7500000000018,"velocity":0.7086614173228346,"duration":1.0187500000000114},{"name":"A#3","midi":58,"time":165.7500000000018,"velocity":0.8031496062992126,"duration":0.9281249999999943},{"name":"D#4","midi":63,"time":165.9375000000018,"velocity":0.5826771653543307,"duration":0.7906250000000057},{"name":"G5","midi":79,"time":165.9375000000018,"velocity":0.8031496062992126,"duration":0.6812500000000057},{"name":"F#2","midi":42,"time":165.9375000000018,"velocity":0.4566929133858268,"duration":0.046875},{"name":"F#3","midi":54,"time":165.9375000000018,"velocity":0.1889763779527559,"duration":0.07343749999998295},{"name":"A#4","midi":70,"time":165.9375000000018,"velocity":0.4015748031496063,"duration":0.1484375},{"name":"A4","midi":69,"time":166.1250000000018,"velocity":0.3464566929133858,"duration":0.09687500000001137},{"name":"F#2","midi":42,"time":166.1250000000018,"velocity":0.5196850393700787,"duration":0.08750000000000568},{"name":"F#3","midi":54,"time":166.1250000000018,"velocity":0.5039370078740157,"duration":0.12968750000001705},{"name":"G4","midi":67,"time":166.1250000000018,"velocity":0.6614173228346457,"duration":0.7421875000000568},{"name":"A#4","midi":70,"time":166.1250000000018,"velocity":0.7086614173228346,"duration":0.32500000000001705},{"name":"D#4","midi":63,"time":166.1250000000018,"velocity":0.6141732283464567,"duration":0.8281250000000568},{"name":"D#2","midi":39,"time":166.31250000000182,"velocity":0.5984251968503937,"duration":0.4906249999999943},{"name":"G5","midi":79,"time":166.31250000000182,"velocity":0.8267716535433071,"duration":1.6578125000000057},{"name":"C2","midi":36,"time":166.31250000000182,"velocity":0.8267716535433071,"duration":0.17812499999999432},{"name":"F#2","midi":42,"time":166.31250000000182,"velocity":0.4645669291338583,"duration":0.05781250000001137},{"name":"F#3","midi":54,"time":166.31250000000182,"velocity":0.2283464566929134,"duration":0.06406250000000568},{"name":"A#4","midi":70,"time":166.31250000000182,"velocity":0.4409448818897638,"duration":0.265625},{"name":"A#3","midi":58,"time":166.31250000000182,"velocity":0.5826771653543307,"duration":0.5546875000000284},{"name":"G4","midi":67,"time":166.31250000000182,"velocity":0.6456692913385826,"duration":0.6234375000000227},{"name":"D#2","midi":39,"time":166.50000000000182,"velocity":0.7322834645669292,"duration":1.142187500000034},{"name":"D#3","midi":51,"time":166.50000000000182,"velocity":0.28346456692913385,"duration":1.4921875},{"name":"D#5","midi":75,"time":166.50000000000182,"velocity":0.7795275590551181,"duration":1.4640625000000114},{"name":"A4","midi":69,"time":166.50000000000182,"velocity":0.33070866141732286,"duration":0.09375},{"name":"F#3","midi":54,"time":166.50000000000182,"velocity":0.6535433070866141,"duration":0.09999999999999432},{"name":"F#2","midi":42,"time":166.50000000000182,"velocity":0.6850393700787402,"duration":0.09531250000000568},{"name":"F#3","midi":54,"time":166.6875000000018,"velocity":0.2047244094488189,"duration":0.040625000000005684},{"name":"F#2","midi":42,"time":166.6875000000018,"velocity":0.5039370078740157,"duration":0.05000000000001137},{"name":"A#4","midi":70,"time":166.6875000000018,"velocity":0.4251968503937008,"duration":0.13750000000004547},{"name":"G4","midi":67,"time":166.6875000000018,"velocity":0.3858267716535433,"duration":0.5531250000000512},{"name":"D#4","midi":63,"time":166.6875000000018,"velocity":0.29133858267716534,"duration":0.8203125000000568},{"name":"A#3","midi":58,"time":166.6875000000018,"velocity":0.5196850393700787,"duration":0.5531250000000512},{"name":"G4","midi":67,"time":166.6875000000018,"velocity":0.5039370078740157,"duration":0.8218750000000625},{"name":"D#2","midi":39,"time":166.87500000000185,"velocity":0.7795275590551181,"duration":1.0296874999999943},{"name":"F4","midi":65,"time":166.87500000000185,"velocity":0.7795275590551181,"duration":0.5609374999999943},{"name":"F4","midi":65,"time":166.87500000000185,"velocity":0.7795275590551181,"duration":0.6218749999999886},{"name":"F#3","midi":54,"time":166.87500000000185,"velocity":0.6141732283464567,"duration":0.09375},{"name":"A#2","midi":46,"time":166.87500000000185,"velocity":0.7795275590551181,"duration":0.17343750000000568},{"name":"C2","midi":36,"time":166.87500000000185,"velocity":0.8976377952755905,"duration":0.19687500000000568},{"name":"A4","midi":69,"time":166.87500000000185,"velocity":0.3937007874015748,"duration":0.08750000000000568},{"name":"G4","midi":67,"time":166.87500000000185,"velocity":0.7322834645669292,"duration":1.0999999999999943},{"name":"D#4","midi":63,"time":166.87500000000185,"velocity":0.7086614173228346,"duration":1.0984374999999886},{"name":"A#4","midi":70,"time":166.87500000000185,"velocity":0.7322834645669292,"duration":0.3296875000000057},{"name":"G4","midi":67,"time":166.87500000000185,"velocity":0.6299212598425197,"duration":1.104687499999983},{"name":"A#3","midi":58,"time":166.87500000000185,"velocity":0.6850393700787402,"duration":1.0374999999999943},{"name":"F4","midi":65,"time":166.87500000000185,"velocity":0.7795275590551181,"duration":0.6218749999999886},{"name":"F#3","midi":54,"time":167.06250000000185,"velocity":0.2755905511811024,"duration":0.05781250000001137},{"name":"A#4","midi":70,"time":167.06250000000185,"velocity":0.4409448818897638,"duration":0.45781250000001705},{"name":"F#2","midi":42,"time":167.25000000000185,"velocity":0.5511811023622047,"duration":0.053124999999994316},{"name":"D2","midi":38,"time":167.25000000000185,"velocity":0.8976377952755905,"duration":0.30312500000002274},{"name":"F#3","midi":54,"time":167.25000000000185,"velocity":0.6141732283464567,"duration":0.09999999999999432},{"name":"A4","midi":69,"time":167.25000000000185,"velocity":0.3228346456692913,"duration":0.07656249999999432},{"name":"A#3","midi":58,"time":167.25000000000185,"velocity":0.7795275590551181,"duration":0.737499999999983},{"name":"G4","midi":67,"time":167.25000000000185,"velocity":0.7086614173228346,"duration":0.737499999999983},{"name":"G4","midi":67,"time":167.43750000000185,"velocity":0.7559055118110236,"duration":0.5859374999999716},{"name":"G4","midi":67,"time":167.43750000000185,"velocity":0.6850393700787402,"duration":0.5953124999999773},{"name":"F#3","midi":54,"time":167.43750000000185,"velocity":0.2125984251968504,"duration":0.05937499999998863},{"name":"F#2","midi":42,"time":167.43750000000185,"velocity":0.4881889763779528,"duration":0.053124999999994316},{"name":"A#4","midi":70,"time":167.43750000000185,"velocity":0.3779527559055118,"duration":0.15156250000001137},{"name":"G4","midi":67,"time":167.43750000000185,"velocity":0.6850393700787402,"duration":0.6249999999999716},{"name":"A#1","midi":34,"time":167.62500000000185,"velocity":0.7559055118110236,"duration":0.4140624999999716},{"name":"A4","midi":69,"time":167.62500000000185,"velocity":0.41732283464566927,"duration":0.11093750000000568},{"name":"A#2","midi":46,"time":167.62500000000185,"velocity":0.7086614173228346,"duration":0.17343750000000568},{"name":"C2","midi":36,"time":167.62500000000185,"velocity":0.7086614173228346,"duration":0.08750000000000568},{"name":"F#3","midi":54,"time":167.62500000000185,"velocity":0.6141732283464567,"duration":0.09999999999999432},{"name":"G4","midi":67,"time":167.62500000000185,"velocity":0.6614173228346457,"duration":0.4374999999999716},{"name":"A#4","midi":70,"time":167.62500000000185,"velocity":0.5354330708661418,"duration":0.35468749999998295},{"name":"D#4","midi":63,"time":167.62500000000185,"velocity":0.6614173228346457,"duration":0.4203124999999659},{"name":"F#3","midi":54,"time":167.81250000000185,"velocity":0.23622047244094488,"duration":0.05000000000001137},{"name":"A#3","midi":58,"time":167.81250000000185,"velocity":0.4094488188976378,"duration":0.2656249999999716},{"name":"G#1","midi":32,"time":168.00000000000182,"velocity":0.8740157480314961,"duration":1.1781250000000512},{"name":"G#2","midi":44,"time":168.00000000000182,"velocity":0.6850393700787402,"duration":1.1703125000000512},{"name":"G#3","midi":56,"time":168.00000000000182,"velocity":0.6456692913385826,"duration":0.6046875000000114},{"name":"D#3","midi":51,"time":168.00000000000182,"velocity":0.6299212598425197,"duration":0.8218750000000341},{"name":"C4","midi":60,"time":168.00000000000182,"velocity":0.6456692913385826,"duration":0.3359375},{"name":"C4","midi":60,"time":168.00000000000182,"velocity":0.5905511811023622,"duration":0.7375000000000398},{"name":"D#4","midi":63,"time":168.00000000000182,"velocity":0.5905511811023622,"duration":0.7375000000000398},{"name":"G#4","midi":68,"time":168.00000000000182,"velocity":0.6141732283464567,"duration":0.8062500000000341},{"name":"G#3","midi":56,"time":168.00000000000182,"velocity":0.7401574803149606,"duration":0.7375000000000398},{"name":"C6","midi":84,"time":168.00000000000182,"velocity":0.36220472440944884,"duration":1.5531250000001364},{"name":"D#5","midi":75,"time":168.00000000000182,"velocity":0.4881889763779528,"duration":0.7109375000000284},{"name":"C4","midi":60,"time":168.00000000000182,"velocity":0.7086614173228346,"duration":0.8093750000000455},{"name":"G#4","midi":68,"time":168.00000000000182,"velocity":0.7795275590551181,"duration":1.4656250000001023},{"name":"D#4","midi":63,"time":168.00000000000182,"velocity":0.7322834645669292,"duration":1.2812500000000568},{"name":"A4","midi":69,"time":168.00000000000182,"velocity":0.4015748031496063,"duration":0.125},{"name":"F#2","midi":42,"time":168.00000000000182,"velocity":0.8267716535433071,"duration":0.08281249999998863},{"name":"F#3","midi":54,"time":168.00000000000182,"velocity":0.7007874015748031,"duration":0.09218749999999432},{"name":"C2","midi":36,"time":168.00000000000182,"velocity":0.9212598425196851,"duration":0.5453124999999943},{"name":"C4","midi":60,"time":168.00000000000182,"velocity":0.3937007874015748,"duration":1.2953125000000512},{"name":"D#4","midi":63,"time":168.00000000000182,"velocity":0.4566929133858268,"duration":1.3187500000000512},{"name":"D#4","midi":63,"time":168.00000000000182,"velocity":0.6299212598425197,"duration":1.462500000000091},{"name":"C4","midi":60,"time":168.00000000000182,"velocity":0.6614173228346457,"duration":1.4078125000000625},{"name":"G#3","midi":56,"time":168.00000000000182,"velocity":0.8031496062992126,"duration":0.8890625000000227},{"name":"C5","midi":72,"time":168.00000000000182,"velocity":0.4566929133858268,"duration":1.506250000000108},{"name":"D#5","midi":75,"time":168.00000000000182,"velocity":0.5669291338582677,"duration":1.3750000000000568},{"name":"D#4","midi":63,"time":168.00000000000182,"velocity":0.7322834645669292,"duration":1.518750000000125},{"name":"F#3","midi":54,"time":168.18750000000182,"velocity":0.2440944881889764,"duration":0.06562500000001137},{"name":"A#4","midi":70,"time":168.18750000000182,"velocity":0.4251968503937008,"duration":0.14531249999998863},{"name":"F#2","midi":42,"time":168.18750000000182,"velocity":0.6299212598425197,"duration":0.09375},{"name":"D#4","midi":63,"time":168.37500000000182,"velocity":0.6299212598425197,"duration":1.237500000000125},{"name":"D#5","midi":75,"time":168.37500000000182,"velocity":0.9212598425196851,"duration":1.103125000000091},{"name":"F#2","midi":42,"time":168.37500000000182,"velocity":0.4645669291338583,"duration":0.09062499999998863},{"name":"F#3","midi":54,"time":168.37500000000182,"velocity":0.5511811023622047,"duration":0.10468749999998295},{"name":"A4","midi":69,"time":168.37500000000182,"velocity":0.3464566929133858,"duration":0.11406249999998863},{"name":"C4","midi":60,"time":168.37500000000182,"velocity":0.6614173228346457,"duration":1.0421875000000682},{"name":"A#4","midi":70,"time":168.37500000000182,"velocity":0.8031496062992126,"duration":0.3468750000000398},{"name":"G#3","midi":56,"time":168.37500000000182,"velocity":0.4330708661417323,"duration":0.9187500000000455},{"name":"F#3","midi":54,"time":168.56250000000182,"velocity":0.3858267716535433,"duration":0.056250000000034106},{"name":"F#2","midi":42,"time":168.56250000000182,"velocity":0.4645669291338583,"duration":0.05312500000002274},{"name":"A#4","midi":70,"time":168.56250000000182,"velocity":0.4409448818897638,"duration":0.34843750000001705},{"name":"A#5","midi":82,"time":168.75000000000185,"velocity":0.8740157480314961,"duration":0.2265625},{"name":"A#4","midi":70,"time":168.75000000000185,"velocity":0.7559055118110236,"duration":0.32500000000001705},{"name":"D4","midi":62,"time":168.75000000000185,"velocity":0.7559055118110236,"duration":0.39687500000002274},{"name":"F#2","midi":42,"time":168.75000000000185,"velocity":0.8267716535433071,"duration":0.07968750000000568},{"name":"F#3","midi":54,"time":168.75000000000185,"velocity":0.6771653543307087,"duration":0.11093750000000568},{"name":"A4","midi":69,"time":168.75000000000185,"velocity":0.25196850393700787,"duration":0.12343749999999432},{"name":"D2","midi":38,"time":168.75000000000185,"velocity":0.8976377952755905,"duration":0.4453125000000284},{"name":"G#3","midi":56,"time":168.75000000000185,"velocity":0.6299212598425197,"duration":0.7390625000000739},{"name":"C4","midi":60,"time":168.75000000000185,"velocity":0.7322834645669292,"duration":0.7359375000000625},{"name":"D#4","midi":63,"time":168.75000000000185,"velocity":0.7322834645669292,"duration":0.8625000000000966},{"name":"G5","midi":79,"time":168.93750000000185,"velocity":0.8031496062992126,"duration":0.10625000000001705},{"name":"F#3","midi":54,"time":168.93750000000185,"velocity":0.2677165354330709,"duration":0.056250000000005684},{"name":"A#4","midi":70,"time":168.93750000000185,"velocity":0.41732283464566927,"duration":0.21093750000002842},{"name":"F#2","midi":42,"time":168.93750000000185,"velocity":0.2677165354330709,"duration":0.0546875},{"name":"G#3","midi":56,"time":169.12500000000188,"velocity":0.3858267716535433,"duration":0.38437500000006253},{"name":"D#3","midi":51,"time":169.12500000000188,"velocity":0.4330708661417323,"duration":0.08281249999998863},{"name":"G5","midi":79,"time":169.12500000000188,"velocity":0.8031496062992126,"duration":0.6562500000000284},{"name":"D#4","midi":63,"time":169.12500000000188,"velocity":0.7795275590551181,"duration":0.5484375000000625},{"name":"C5","midi":72,"time":169.12500000000188,"velocity":0.7559055118110236,"duration":0.38281250000005684},{"name":"F#3","midi":54,"time":169.12500000000188,"velocity":0.5669291338582677,"duration":0.09999999999999432},{"name":"A4","midi":69,"time":169.12500000000188,"velocity":0.3543307086614173,"duration":0.11093750000000568},{"name":"F#2","midi":42,"time":169.12500000000188,"velocity":0.6456692913385826,"duration":0.07499999999998863},{"name":"A#4","midi":70,"time":169.12500000000188,"velocity":0.6850393700787402,"duration":0.31875000000002274},{"name":"G#1","midi":32,"time":169.31250000000188,"velocity":0.5826771653543307,"duration":0.10625000000001705},{"name":"A#4","midi":70,"time":169.31250000000188,"velocity":0.4015748031496063,"duration":0.1578125000000341},{"name":"F#2","midi":42,"time":169.31250000000188,"velocity":0.4015748031496063,"duration":0.040625000000005684},{"name":"F#3","midi":54,"time":169.31250000000188,"velocity":0.33858267716535434,"duration":0.046875},{"name":"C4","midi":60,"time":169.31250000000188,"velocity":0.33070866141732286,"duration":0.36093750000006253},{"name":"G#3","midi":56,"time":169.31250000000188,"velocity":0.5039370078740157,"duration":0.36093750000006253},{"name":"A#1","midi":34,"time":169.50000000000193,"velocity":0.6850393700787402,"duration":0.3390624999999545},{"name":"A#2","midi":46,"time":169.50000000000193,"velocity":0.7322834645669292,"duration":0.4968749999999602},{"name":"F4","midi":65,"time":169.50000000000193,"velocity":0.5984251968503937,"duration":0.3171874999999602},{"name":"D4","midi":62,"time":169.50000000000193,"velocity":0.6456692913385826,"duration":0.3624999999999545},{"name":"A#3","midi":58,"time":169.50000000000193,"velocity":0.5354330708661418,"duration":0.36718749999994316},{"name":"D4","midi":62,"time":169.50000000000193,"velocity":0.6377952755905512,"duration":0.36718749999994316},{"name":"F4","midi":65,"time":169.50000000000193,"velocity":0.6377952755905512,"duration":0.36718749999994316},{"name":"F3","midi":53,"time":169.50000000000193,"velocity":0.6377952755905512,"duration":1.410937500000017},{"name":"A#3","midi":58,"time":169.50000000000193,"velocity":0.7165354330708661,"duration":0.7406249999999659},{"name":"A#5","midi":82,"time":169.50000000000193,"velocity":0.3779527559055118,"duration":1.1187499999999773},{"name":"A#4","midi":70,"time":169.50000000000193,"velocity":0.8031496062992126,"duration":0.3546874999999545},{"name":"D4","midi":62,"time":169.50000000000193,"velocity":0.7086614173228346,"duration":0.5765624999999659},{"name":"F#2","midi":42,"time":169.50000000000193,"velocity":0.7559055118110236,"duration":0.07343750000001137},{"name":"F#3","midi":54,"time":169.50000000000193,"velocity":0.6771653543307087,"duration":0.10468750000001137},{"name":"C2","midi":36,"time":169.50000000000193,"velocity":0.8267716535433071,"duration":0.22187499999998295},{"name":"A4","midi":69,"time":169.50000000000193,"velocity":0.25196850393700787,"duration":0.11406250000001705},{"name":"D4","midi":62,"time":169.50000000000193,"velocity":0.6614173228346457,"duration":0.7406249999999659},{"name":"F4","midi":65,"time":169.50000000000193,"velocity":0.7559055118110236,"duration":0.7406249999999659},{"name":"A#4","midi":70,"time":169.50000000000193,"velocity":0.6850393700787402,"duration":0.39999999999994884},{"name":"F5","midi":77,"time":169.50000000000193,"velocity":0.48031496062992124,"duration":1.5484374999999773},{"name":"D5","midi":74,"time":169.50000000000193,"velocity":0.4251968503937008,"duration":1.1734374999999773},{"name":"F#3","midi":54,"time":169.68750000000193,"velocity":0.33858267716535434,"duration":0.04843749999997726},{"name":"A#4","midi":70,"time":169.68750000000193,"velocity":0.3228346456692913,"duration":0.4187499999999602},{"name":"F#2","midi":42,"time":169.68750000000193,"velocity":0.5511811023622047,"duration":0.06406249999997726},{"name":"A#3","midi":58,"time":169.68750000000193,"velocity":0.4881889763779528,"duration":1.2062500000000114},{"name":"D4","midi":62,"time":169.68750000000193,"velocity":0.6456692913385826,"duration":0.6968749999999488},{"name":"F4","midi":65,"time":169.68750000000193,"velocity":0.5511811023622047,"duration":0.8671874999999432},{"name":"A#1","midi":34,"time":169.87500000000188,"velocity":0.7795275590551181,"duration":0.7406250000000227},{"name":"F4","midi":65,"time":169.87500000000188,"velocity":0.7322834645669292,"duration":0.8187500000000227},{"name":"A#5","midi":82,"time":169.87500000000188,"velocity":0.8267716535433071,"duration":1.1203125000000682},{"name":"F4","midi":65,"time":169.87500000000188,"velocity":0.6850393700787402,"duration":1.0000000000000568},{"name":"A#2","midi":46,"time":169.87500000000188,"velocity":0.7795275590551181,"duration":1.035937500000074},{"name":"C2","midi":36,"time":169.87500000000188,"velocity":0.8740157480314961,"duration":0.30312500000002274},{"name":"A4","midi":69,"time":169.87500000000188,"velocity":0.3464566929133858,"duration":0.11093750000000568},{"name":"F#3","midi":54,"time":169.87500000000188,"velocity":0.6141732283464567,"duration":0.10625000000001705},{"name":"D4","midi":62,"time":169.87500000000188,"velocity":0.6850393700787402,"duration":0.6187500000000057},{"name":"C5","midi":72,"time":169.87500000000188,"velocity":0.7559055118110236,"duration":0.40312500000001705},{"name":"D4","midi":62,"time":169.87500000000188,"velocity":0.4566929133858268,"duration":1.043750000000074},{"name":"A#3","midi":58,"time":169.87500000000188,"velocity":0.6141732283464567,"duration":1.067187500000074},{"name":"F4","midi":65,"time":169.87500000000188,"velocity":0.5196850393700787,"duration":1.0250000000000625},{"name":"F4","midi":65,"time":169.87500000000188,"velocity":0.6850393700787402,"duration":1.0265625000000682},{"name":"D#4","midi":63,"time":170.0625000000019,"velocity":0.8031496062992126,"duration":0.22343749999998863},{"name":"C5","midi":72,"time":170.0625000000019,"velocity":0.7086614173228346,"duration":0.549999999999983},{"name":"A#4","midi":70,"time":170.0625000000019,"velocity":0.4015748031496063,"duration":0.15156249999998295},{"name":"F#3","midi":54,"time":170.0625000000019,"velocity":0.28346456692913385,"duration":0.04218749999998295},{"name":"F4","midi":65,"time":170.2500000000019,"velocity":0.5826771653543307,"duration":0.6515625000000398},{"name":"D5","midi":74,"time":170.2500000000019,"velocity":0.7322834645669292,"duration":0.7421875000000284},{"name":"F#3","midi":54,"time":170.2500000000019,"velocity":0.7165354330708661,"duration":0.10312499999997726},{"name":"D2","midi":38,"time":170.2500000000019,"velocity":0.8503937007874016,"duration":0.3031249999999659},{"name":"F#2","midi":42,"time":170.2500000000019,"velocity":0.5984251968503937,"duration":0.06562499999998295},{"name":"A4","midi":69,"time":170.2500000000019,"velocity":0.25984251968503935,"duration":0.12499999999997158},{"name":"D4","midi":62,"time":170.2500000000019,"velocity":0.7795275590551181,"duration":0.6890625000000341},{"name":"F4","midi":65,"time":170.2500000000019,"velocity":0.7086614173228346,"duration":0.7375000000000398},{"name":"A#3","midi":58,"time":170.2500000000019,"velocity":0.8740157480314961,"duration":0.7375000000000398},{"name":"A#4","midi":70,"time":170.43750000000188,"velocity":0.33858267716535434,"duration":0.13437500000000568},{"name":"F#3","midi":54,"time":170.43750000000188,"velocity":0.25984251968503935,"duration":0.0703125},{"name":"F#2","midi":42,"time":170.43750000000188,"velocity":0.48031496062992124,"duration":0.0546875},{"name":"D2","midi":38,"time":170.6250000000019,"velocity":0.8031496062992126,"duration":0.42500000000001137},{"name":"F3","midi":53,"time":170.6250000000019,"velocity":0.36220472440944884,"duration":0.3750000000000284},{"name":"D4","midi":62,"time":170.6250000000019,"velocity":0.4566929133858268,"duration":0.3468750000000398},{"name":"D#5","midi":75,"time":170.6250000000019,"velocity":0.8503937007874016,"duration":1.0375000000000227},{"name":"A#4","midi":70,"time":170.6250000000019,"velocity":0.7322834645669292,"duration":0.3593750000000284},{"name":"D4","midi":62,"time":170.6250000000019,"velocity":0.8267716535433071,"duration":0.3625000000000398},{"name":"F#3","midi":54,"time":170.6250000000019,"velocity":0.6141732283464567,"duration":0.1015625},{"name":"F#2","midi":42,"time":170.6250000000019,"velocity":0.7086614173228346,"duration":0.0703125},{"name":"A4","midi":69,"time":170.6250000000019,"velocity":0.3779527559055118,"duration":0.09843749999998863},{"name":"F4","midi":65,"time":170.6250000000019,"velocity":0.5039370078740157,"duration":0.43593750000002274},{"name":"A#4","midi":70,"time":170.6250000000019,"velocity":0.6456692913385826,"duration":0.39375000000001137},{"name":"D4","midi":62,"time":170.6250000000019,"velocity":0.5984251968503937,"duration":0.40937500000001137},{"name":"F#3","midi":54,"time":170.8125000000019,"velocity":0.2125984251968504,"duration":0.05000000000001137},{"name":"A#4","midi":70,"time":170.8125000000019,"velocity":0.4409448818897638,"duration":0.3437500000000284},{"name":"F#2","midi":42,"time":170.8125000000019,"velocity":0.5354330708661418,"duration":0.06093750000002274},{"name":"A#3","midi":58,"time":170.8125000000019,"velocity":0.2992125984251969,"duration":0.8390625000000114},{"name":"D#2","midi":39,"time":171.00000000000193,"velocity":0.8503937007874016,"duration":1.0703124999999432},{"name":"G4","midi":67,"time":171.00000000000193,"velocity":0.7086614173228346,"duration":0.737499999999983},{"name":"A#3","midi":58,"time":171.00000000000193,"velocity":0.6614173228346457,"duration":0.737499999999983},{"name":"D#3","midi":51,"time":171.00000000000193,"velocity":0.5826771653543307,"duration":0.9390624999999773},{"name":"D#4","midi":63,"time":171.00000000000193,"velocity":0.6299212598425197,"duration":0.5999999999999943},{"name":"D#2","midi":39,"time":171.00000000000193,"velocity":0.6850393700787402,"duration":1.4281249999999375},{"name":"G4","midi":67,"time":171.00000000000193,"velocity":0.5905511811023622,"duration":0.8359374999999716},{"name":"D#4","midi":63,"time":171.00000000000193,"velocity":0.6141732283464567,"duration":0.737499999999983},{"name":"G3","midi":55,"time":171.00000000000193,"velocity":0.4645669291338583,"duration":1.3359374999999432},{"name":"D#5","midi":75,"time":171.00000000000193,"velocity":0.7795275590551181,"duration":2.8421874999999375},{"name":"G4","midi":67,"time":171.00000000000193,"velocity":0.5984251968503937,"duration":1.592187499999966},{"name":"G5","midi":79,"time":171.00000000000193,"velocity":0.2677165354330709,"duration":2.31718749999996},{"name":"G4","midi":67,"time":171.00000000000193,"velocity":0.6456692913385826,"duration":1.646874999999966},{"name":"C2","midi":36,"time":171.00000000000193,"velocity":0.9212598425196851,"duration":0.5015625000000057},{"name":"A4","midi":69,"time":171.00000000000193,"velocity":0.2125984251968504,"duration":0.13437500000000568},{"name":"F#2","midi":42,"time":171.00000000000193,"velocity":0.7795275590551181,"duration":0.08750000000000568},{"name":"F#3","midi":54,"time":171.00000000000193,"velocity":0.6771653543307087,"duration":0.09375},{"name":"A#3","midi":58,"time":171.00000000000193,"velocity":0.8031496062992126,"duration":1.5906249999999602},{"name":"G4","midi":67,"time":171.00000000000193,"velocity":0.7086614173228346,"duration":1.646874999999966},{"name":"D#4","midi":63,"time":171.00000000000193,"velocity":0.7086614173228346,"duration":0.8218749999999773},{"name":"G5","midi":79,"time":171.00000000000193,"velocity":0.5826771653543307,"duration":2.943749999999909},{"name":"D#5","midi":75,"time":171.00000000000193,"velocity":0.5039370078740157,"duration":2.9140624999999147},{"name":"G4","midi":67,"time":171.00000000000193,"velocity":0.6456692913385826,"duration":1.6734374999999488},{"name":"F#3","midi":54,"time":171.18750000000193,"velocity":0.2755905511811024,"duration":0.040625000000005684},{"name":"F#2","midi":42,"time":171.18750000000193,"velocity":0.5196850393700787,"duration":0.05000000000001137},{"name":"A#4","midi":70,"time":171.18750000000193,"velocity":0.3543307086614173,"duration":0.15000000000000568},{"name":"F#3","midi":54,"time":171.37500000000193,"velocity":0.5905511811023622,"duration":0.09375},{"name":"F#2","midi":42,"time":171.37500000000193,"velocity":0.6456692913385826,"duration":0.078125},{"name":"A4","midi":69,"time":171.37500000000193,"velocity":0.25984251968503935,"duration":0.1015625},{"name":"G4","midi":67,"time":171.37500000000193,"velocity":0.7086614173228346,"duration":1.4921874999999716},{"name":"A#4","midi":70,"time":171.37500000000193,"velocity":0.6850393700787402,"duration":0.3421874999999943},{"name":"D#4","midi":63,"time":171.37500000000193,"velocity":0.7086614173228346,"duration":0.9640624999999545},{"name":"A#3","midi":58,"time":171.37500000000193,"velocity":0.4645669291338583,"duration":1.2984374999999488},{"name":"F#3","midi":54,"time":171.56250000000193,"velocity":0.1968503937007874,"duration":0.06562499999998295},{"name":"A#4","midi":70,"time":171.56250000000193,"velocity":0.4251968503937008,"duration":0.4718749999999545},{"name":"F#2","midi":42,"time":171.56250000000193,"velocity":0.3464566929133858,"duration":0.04999999999998295},{"name":"D#4","midi":63,"time":171.7500000000019,"velocity":0.5196850393700787,"duration":0.9234374999999773},{"name":"G3","midi":55,"time":171.7500000000019,"velocity":0.3464566929133858,"duration":0.612499999999983},{"name":"F#2","midi":42,"time":171.7500000000019,"velocity":0.7795275590551181,"duration":0.07968750000000568},{"name":"A4","midi":69,"time":171.7500000000019,"velocity":0.30708661417322836,"duration":0.11562499999999432},{"name":"F#3","midi":54,"time":171.7500000000019,"velocity":0.6535433070866141,"duration":0.09218749999999432},{"name":"D2","midi":38,"time":171.7500000000019,"velocity":0.8740157480314961,"duration":0.3499999999999659},{"name":"D#4","midi":63,"time":171.7500000000019,"velocity":0.5669291338582677,"duration":0.948437499999983},{"name":"A#3","midi":58,"time":171.7500000000019,"velocity":0.8031496062992126,"duration":0.9281249999999659},{"name":"G4","midi":67,"time":171.7500000000019,"velocity":0.7322834645669292,"duration":1.1593750000000114},{"name":"F#3","midi":54,"time":171.9375000000019,"velocity":0.2677165354330709,"duration":0.053124999999994316},{"name":"F#2","midi":42,"time":171.9375000000019,"velocity":0.3858267716535433,"duration":0.05781249999998295},{"name":"A#4","midi":70,"time":171.9375000000019,"velocity":0.4015748031496063,"duration":0.14843749999997158},{"name":"D#2","midi":39,"time":172.12500000000188,"velocity":0.6614173228346457,"duration":0.7453125000000398},{"name":"F#2","midi":42,"time":172.12500000000188,"velocity":0.5511811023622047,"duration":0.08906250000001137},{"name":"A4","midi":69,"time":172.12500000000188,"velocity":0.3464566929133858,"duration":0.09687500000001137},{"name":"F#3","midi":54,"time":172.12500000000188,"velocity":0.6377952755905512,"duration":0.09531250000000568},{"name":"A#4","midi":70,"time":172.12500000000188,"velocity":0.5826771653543307,"duration":0.32499999999998863},{"name":"G4","midi":67,"time":172.12500000000188,"velocity":0.6850393700787402,"duration":1.1156250000000227},{"name":"D#4","midi":63,"time":172.12500000000188,"velocity":0.6850393700787402,"duration":0.6937500000000227},{"name":"F#3","midi":54,"time":172.31250000000188,"velocity":0.23622047244094488,"duration":0.046875},{"name":"A#4","midi":70,"time":172.31250000000188,"velocity":0.4409448818897638,"duration":0.34062500000001705},{"name":"F#2","midi":42,"time":172.31250000000188,"velocity":0.4094488188976378,"duration":0.0625},{"name":"C2","midi":36,"time":172.31250000000188,"velocity":0.6141732283464567,"duration":0.0625},{"name":"A#3","midi":58,"time":172.31250000000188,"velocity":0.5039370078740157,"duration":0.5546875000000284},{"name":"D#2","midi":39,"time":172.50000000000188,"velocity":0.7086614173228346,"duration":1.071875000000034},{"name":"D#3","midi":51,"time":172.50000000000188,"velocity":0.4566929133858268,"duration":1.3343749999999943},{"name":"D#4","midi":63,"time":172.50000000000188,"velocity":0.4881889763779528,"duration":0.7406250000000227},{"name":"G3","midi":55,"time":172.50000000000188,"velocity":0.33858267716535434,"duration":0.15156250000001137},{"name":"G3","midi":55,"time":172.50000000000188,"velocity":0.5748031496062992,"duration":1.451562499999966},{"name":"F#3","midi":54,"time":172.50000000000188,"velocity":0.6141732283464567,"duration":0.08906250000001137},{"name":"C2","midi":36,"time":172.50000000000188,"velocity":0.8503937007874016,"duration":0.24531250000001137},{"name":"F#2","midi":42,"time":172.50000000000188,"velocity":0.7086614173228346,"duration":0.09375000000002842},{"name":"A4","midi":69,"time":172.50000000000188,"velocity":0.33070866141732286,"duration":0.09375000000002842},{"name":"F#2","midi":42,"time":172.68750000000188,"velocity":0.4251968503937008,"duration":0.056250000000005684},{"name":"A#4","midi":70,"time":172.68750000000188,"velocity":0.4251968503937008,"duration":0.13750000000001705},{"name":"F#3","midi":54,"time":172.68750000000188,"velocity":0.23622047244094488,"duration":0.04218750000001137},{"name":"A#3","midi":58,"time":172.68750000000188,"velocity":0.5196850393700787,"duration":0.5531250000000227},{"name":"G4","midi":67,"time":172.68750000000188,"velocity":0.31496062992125984,"duration":0.8515625000000284},{"name":"A#2","midi":46,"time":172.8750000000019,"velocity":0.6614173228346457,"duration":0.1328125},{"name":"F4","midi":65,"time":172.8750000000019,"velocity":0.8503937007874016,"duration":0.5609374999999943},{"name":"F3","midi":53,"time":172.8750000000019,"velocity":0.7086614173228346,"duration":0.421875},{"name":"F4","midi":65,"time":172.8750000000019,"velocity":0.6377952755905512,"duration":0.5609374999999943},{"name":"F4","midi":65,"time":172.8750000000019,"velocity":0.7322834645669292,"duration":0.578125},{"name":"A4","midi":69,"time":172.8750000000019,"velocity":0.3937007874015748,"duration":0.08750000000000568},{"name":"F#3","midi":54,"time":172.8750000000019,"velocity":0.6377952755905512,"duration":0.08750000000000568},{"name":"C2","midi":36,"time":172.8750000000019,"velocity":0.7795275590551181,"duration":0.19062500000001137},{"name":"A#2","midi":46,"time":172.8750000000019,"velocity":0.8267716535433071,"duration":0.37968749999998863},{"name":"D#4","midi":63,"time":172.8750000000019,"velocity":0.7322834645669292,"duration":0.4296875},{"name":"A#4","midi":70,"time":172.8750000000019,"velocity":0.7795275590551181,"duration":0.3296875000000057},{"name":"G4","midi":67,"time":172.8750000000019,"velocity":0.6850393700787402,"duration":1.0749999999999318},{"name":"A#3","midi":58,"time":172.8750000000019,"velocity":0.7086614173228346,"duration":0.8999999999999773},{"name":"D#4","midi":63,"time":172.8750000000019,"velocity":0.7086614173228346,"duration":0.6343750000000057},{"name":"F4","midi":65,"time":172.8750000000019,"velocity":0.7322834645669292,"duration":0.5890625000000114},{"name":"F#3","midi":54,"time":173.0625000000019,"velocity":0.23622047244094488,"duration":0.07187500000000568},{"name":"A#4","midi":70,"time":173.0625000000019,"velocity":0.4409448818897638,"duration":0.3031249999999943},{"name":"D#2","midi":39,"time":173.2500000000019,"velocity":0.6614173228346457,"duration":0.6421874999999488},{"name":"D#6","midi":87,"time":173.2500000000019,"velocity":0.1889763779527559,"duration":0.6406249999999432},{"name":"D2","midi":38,"time":173.2500000000019,"velocity":0.8976377952755905,"duration":0.35468750000001137},{"name":"A4","midi":69,"time":173.2500000000019,"velocity":0.3228346456692913,"duration":0.07656249999999432},{"name":"F#3","midi":54,"time":173.2500000000019,"velocity":0.6377952755905512,"duration":0.09218749999999432},{"name":"A#2","midi":46,"time":173.2500000000019,"velocity":0.5196850393700787,"duration":0.078125},{"name":"A#3","midi":58,"time":173.2500000000019,"velocity":0.7086614173228346,"duration":0.7046874999999488},{"name":"G4","midi":67,"time":173.2500000000019,"velocity":0.7086614173228346,"duration":0.7078124999999602},{"name":"G4","midi":67,"time":173.4375000000019,"velocity":0.8267716535433071,"duration":0.5499999999999545},{"name":"G3","midi":55,"time":173.4375000000019,"velocity":0.5039370078740157,"duration":0.5671874999999602},{"name":"G4","midi":67,"time":173.4375000000019,"velocity":0.7401574803149606,"duration":0.5656249999999545},{"name":"G4","midi":67,"time":173.4375000000019,"velocity":0.7795275590551181,"duration":0.5703124999999716},{"name":"A#4","midi":70,"time":173.4375000000019,"velocity":0.3779527559055118,"duration":0.15156250000001137},{"name":"F#3","midi":54,"time":173.4375000000019,"velocity":0.1889763779527559,"duration":0.05937500000001705},{"name":"D#4","midi":63,"time":173.4375000000019,"velocity":0.3543307086614173,"duration":0.5078124999999432},{"name":"G4","midi":67,"time":173.4375000000019,"velocity":0.7795275590551181,"duration":0.6468749999999659},{"name":"D#2","midi":39,"time":173.6250000000019,"velocity":0.7322834645669292,"duration":0.40156249999998295},{"name":"D#5","midi":75,"time":173.6250000000019,"velocity":0.8503937007874016,"duration":1.6812499999999773},{"name":"A4","midi":69,"time":173.6250000000019,"velocity":0.41732283464566927,"duration":0.11093749999997726},{"name":"C2","midi":36,"time":173.6250000000019,"velocity":0.7795275590551181,"duration":0.09062499999998863},{"name":"F#3","midi":54,"time":173.6250000000019,"velocity":0.6141732283464567,"duration":0.08437499999999432},{"name":"F#2","midi":42,"time":173.6250000000019,"velocity":0.8031496062992126,"duration":0.0625},{"name":"G4","midi":67,"time":173.6250000000019,"velocity":0.6141732283464567,"duration":0.4593749999999659},{"name":"D#4","midi":63,"time":173.6250000000019,"velocity":0.5984251968503937,"duration":0.3421874999999659},{"name":"A#4","midi":70,"time":173.6250000000019,"velocity":0.6850393700787402,"duration":0.31093749999993747},{"name":"A#3","midi":58,"time":173.6250000000019,"velocity":0.5826771653543307,"duration":0.3624999999999545},{"name":"A#5","midi":82,"time":173.81250000000188,"velocity":0.9212598425196851,"duration":0.6015625},{"name":"F#2","midi":42,"time":173.81250000000188,"velocity":0.5196850393700787,"duration":0.05156249999998863},{"name":"F#3","midi":54,"time":173.81250000000188,"velocity":0.30708661417322836,"duration":0.06562499999998295},{"name":"G#1","midi":32,"time":174.00000000000185,"velocity":0.8503937007874016,"duration":1.275000000000034},{"name":"D#4","midi":63,"time":174.00000000000185,"velocity":0.6614173228346457,"duration":0.6140625000000455},{"name":"G#2","midi":44,"time":174.00000000000185,"velocity":0.7559055118110236,"duration":1.1312500000000512},{"name":"C4","midi":60,"time":174.00000000000185,"velocity":0.6299212598425197,"duration":0.3140625000000057},{"name":"G#3","midi":56,"time":174.00000000000185,"velocity":0.5984251968503937,"duration":0.4250000000000398},{"name":"D#4","midi":63,"time":174.00000000000185,"velocity":0.6535433070866141,"duration":1.056250000000034},{"name":"D#3","midi":51,"time":174.00000000000185,"velocity":0.48031496062992124,"duration":1.0593750000000455},{"name":"G#3","midi":56,"time":174.00000000000185,"velocity":0.6535433070866141,"duration":1.0843750000000512},{"name":"C4","midi":60,"time":174.00000000000185,"velocity":0.6771653543307087,"duration":0.6265625000000341},{"name":"D#6","midi":87,"time":174.00000000000185,"velocity":0.5039370078740157,"duration":1.6093750000000568},{"name":"C5","midi":72,"time":174.00000000000185,"velocity":0.6614173228346457,"duration":1.5078125000000284},{"name":"D#5","midi":75,"time":174.00000000000185,"velocity":0.6850393700787402,"duration":1.410937500000017},{"name":"D#4","midi":63,"time":174.00000000000185,"velocity":0.7559055118110236,"duration":1.1781250000000512},{"name":"F#2","midi":42,"time":174.00000000000185,"velocity":0.7559055118110236,"duration":0.08906250000001137},{"name":"F#3","midi":54,"time":174.00000000000185,"velocity":0.7007874015748031,"duration":0.07812500000002842},{"name":"C2","midi":36,"time":174.00000000000185,"velocity":0.9212598425196851,"duration":0.5453125000000512},{"name":"A4","midi":69,"time":174.00000000000185,"velocity":0.4015748031496063,"duration":0.125},{"name":"D#4","midi":63,"time":174.00000000000185,"velocity":0.4566929133858268,"duration":1.1781250000000512},{"name":"C4","midi":60,"time":174.00000000000185,"velocity":0.4330708661417323,"duration":0.7375000000000398},{"name":"C4","midi":60,"time":174.00000000000185,"velocity":0.7086614173228346,"duration":0.8921875000000341},{"name":"G#4","midi":68,"time":174.00000000000185,"velocity":0.7322834645669292,"duration":0.7375000000000398},{"name":"C5","midi":72,"time":174.00000000000185,"velocity":0.5196850393700787,"duration":1.5765625000000512},{"name":"D#4","midi":63,"time":174.00000000000185,"velocity":0.7559055118110236,"duration":1.3156250000000398},{"name":"F#3","midi":54,"time":174.18750000000185,"velocity":0.29133858267716534,"duration":0.053124999999994316},{"name":"A#4","midi":70,"time":174.18750000000185,"velocity":0.4251968503937008,"duration":0.14531250000001705},{"name":"F#2","midi":42,"time":174.18750000000185,"velocity":0.5354330708661418,"duration":0.05156249999998863},{"name":"G5","midi":79,"time":174.37500000000188,"velocity":0.8267716535433071,"duration":0.7281250000000341},{"name":"F#2","midi":42,"time":174.37500000000188,"velocity":0.6141732283464567,"duration":0.08281250000001705},{"name":"F#3","midi":54,"time":174.37500000000188,"velocity":0.5511811023622047,"duration":0.08437500000002274},{"name":"A4","midi":69,"time":174.37500000000188,"velocity":0.3464566929133858,"duration":0.11406250000001705},{"name":"C4","midi":60,"time":174.37500000000188,"velocity":0.7322834645669292,"duration":0.6453124999999886},{"name":"A#4","midi":70,"time":174.37500000000188,"velocity":0.7322834645669292,"duration":0.34687500000001137},{"name":"C4","midi":60,"time":174.37500000000188,"velocity":0.5354330708661418,"duration":0.903125000000017},{"name":"G#3","midi":56,"time":174.5625000000019,"velocity":0.25196850393700787,"duration":0.6499999999999773},{"name":"A#4","midi":70,"time":174.5625000000019,"velocity":0.4409448818897638,"duration":0.4843749999999716},{"name":"F#3","midi":54,"time":174.5625000000019,"velocity":0.25196850393700787,"duration":0.09062499999998863},{"name":"F#2","midi":42,"time":174.5625000000019,"velocity":0.5354330708661418,"duration":0.05937499999998863},{"name":"D#4","midi":63,"time":174.75000000000188,"velocity":0.36220472440944884,"duration":0.6031250000000057},{"name":"D#3","midi":51,"time":174.75000000000188,"velocity":0.3464566929133858,"duration":0.6953125},{"name":"D2","midi":38,"time":174.75000000000188,"velocity":0.8976377952755905,"duration":0.4453125000000284},{"name":"A4","midi":69,"time":174.75000000000188,"velocity":0.25196850393700787,"duration":0.12343749999999432},{"name":"F#2","midi":42,"time":174.75000000000188,"velocity":0.8267716535433071,"duration":0.08437499999999432},{"name":"F#3","midi":54,"time":174.75000000000188,"velocity":0.7007874015748031,"duration":0.07968750000000568},{"name":"C4","midi":60,"time":174.75000000000188,"velocity":0.7795275590551181,"duration":0.6078124999999943},{"name":"D#4","midi":63,"time":174.75000000000188,"velocity":0.6614173228346457,"duration":0.75},{"name":"G#4","midi":68,"time":174.75000000000188,"velocity":0.7559055118110236,"duration":0.9234375000000057},{"name":"F#2","midi":42,"time":174.93750000000188,"velocity":0.5039370078740157,"duration":0.05937499999998863},{"name":"F#3","midi":54,"time":174.93750000000188,"velocity":0.33070866141732286,"duration":0.06406249999997726},{"name":"A#4","midi":70,"time":174.93750000000188,"velocity":0.41732283464566927,"duration":0.13750000000001705},{"name":"C4","midi":60,"time":174.93750000000188,"velocity":0.31496062992125984,"duration":0.5578125000000114},{"name":"G#3","midi":56,"time":175.1250000000019,"velocity":0.2047244094488189,"duration":0.36406249999998863},{"name":"D#5","midi":75,"time":175.1250000000019,"velocity":0.8976377952755905,"duration":0.3421874999999659},{"name":"F#3","midi":54,"time":175.1250000000019,"velocity":0.6141732283464567,"duration":0.08281249999998863},{"name":"A4","midi":69,"time":175.1250000000019,"velocity":0.3543307086614173,"duration":0.11093749999997726},{"name":"F#2","midi":42,"time":175.1250000000019,"velocity":0.6141732283464567,"duration":0.078125},{"name":"C4","midi":60,"time":175.1250000000019,"velocity":0.5984251968503937,"duration":0.3749999999999716},{"name":"D#4","midi":63,"time":175.1250000000019,"velocity":0.6299212598425197,"duration":0.5484374999999773},{"name":"A#4","midi":70,"time":175.1250000000019,"velocity":0.7322834645669292,"duration":0.3187499999999659},{"name":"G#1","midi":32,"time":175.31250000000188,"velocity":0.5984251968503937,"duration":0.21406250000001137},{"name":"A#4","midi":70,"time":175.31250000000188,"velocity":0.8976377952755905,"duration":0.15781250000000568},{"name":"A#4","midi":70,"time":175.31250000000188,"velocity":0.4015748031496063,"duration":0.18125000000000568},{"name":"F#2","midi":42,"time":175.31250000000188,"velocity":0.48031496062992124,"duration":0.04999999999998295},{"name":"F#3","midi":54,"time":175.31250000000188,"velocity":0.2677165354330709,"duration":0.053124999999994316},{"name":"C4","midi":60,"time":175.31250000000188,"velocity":0.5039370078740157,"duration":0.3609375000000057},{"name":"A#1","midi":34,"time":175.50000000000188,"velocity":0.6456692913385826,"duration":0.33906250000001137},{"name":"A#3","midi":58,"time":175.50000000000188,"velocity":0.5826771653543307,"duration":0.41093749999998863},{"name":"A#2","midi":46,"time":175.50000000000188,"velocity":0.7322834645669292,"duration":0.5062499999999943},{"name":"D4","midi":62,"time":175.50000000000188,"velocity":0.6614173228346457,"duration":0.34375},{"name":"A#4","midi":70,"time":175.50000000000188,"velocity":0.8976377952755905,"duration":0.35468750000001137},{"name":"D4","midi":62,"time":175.50000000000188,"velocity":0.6377952755905512,"duration":0.6343750000000057},{"name":"A#3","midi":58,"time":175.50000000000188,"velocity":0.5511811023622047,"duration":0.653125000000017},{"name":"F4","midi":65,"time":175.50000000000188,"velocity":0.6377952755905512,"duration":0.7390624999999886},{"name":"F3","midi":53,"time":175.50000000000188,"velocity":0.5905511811023622,"duration":1.3718750000000455},{"name":"F6","midi":89,"time":175.50000000000188,"velocity":0.4881889763779528,"duration":1.5421875000000966},{"name":"D5","midi":74,"time":175.50000000000188,"velocity":0.6456692913385826,"duration":1.4265625000000455},{"name":"F5","midi":77,"time":175.50000000000188,"velocity":0.7322834645669292,"duration":1.4750000000000512},{"name":"F4","midi":65,"time":175.50000000000188,"velocity":0.5511811023622047,"duration":1.3546875000000398},{"name":"C2","midi":36,"time":175.50000000000188,"velocity":0.8267716535433071,"duration":0.22187500000001137},{"name":"A4","midi":69,"time":175.50000000000188,"velocity":0.25196850393700787,"duration":0.11406250000001705},{"name":"F#2","midi":42,"time":175.50000000000188,"velocity":0.7086614173228346,"duration":0.08906250000003979},{"name":"F#3","midi":54,"time":175.50000000000188,"velocity":0.5669291338582677,"duration":0.08593750000002842},{"name":"F4","midi":65,"time":175.50000000000188,"velocity":0.6850393700787402,"duration":1.4875000000000682},{"name":"D4","midi":62,"time":175.50000000000188,"velocity":0.6614173228346457,"duration":0.6734375000000057},{"name":"A#4","midi":70,"time":175.50000000000188,"velocity":0.5196850393700787,"duration":0.3687500000000057},{"name":"D5","midi":74,"time":175.50000000000188,"velocity":0.44881889763779526,"duration":1.540625000000091},{"name":"F5","midi":77,"time":175.50000000000188,"velocity":0.5196850393700787,"duration":1.489062500000074},{"name":"F4","midi":65,"time":175.50000000000188,"velocity":0.5511811023622047,"duration":1.5390625000000853},{"name":"F#2","midi":42,"time":175.68750000000188,"velocity":0.2992125984251969,"duration":0.05781250000001137},{"name":"F#3","midi":54,"time":175.68750000000188,"velocity":0.4015748031496063,"duration":0.05781250000001137},{"name":"A#4","midi":70,"time":175.68750000000188,"velocity":0.3228346456692913,"duration":0.2734375},{"name":"D4","midi":62,"time":175.68750000000188,"velocity":0.5826771653543307,"duration":0.5515624999999886},{"name":"A#3","midi":58,"time":175.68750000000188,"velocity":0.5826771653543307,"duration":0.542187499999983},{"name":"F4","midi":65,"time":175.68750000000188,"velocity":0.5196850393700787,"duration":1.3515625000000853},{"name":"A#1","midi":34,"time":175.87500000000188,"velocity":0.6850393700787402,"duration":0.7328124999999943},{"name":"A4","midi":69,"time":175.87500000000188,"velocity":0.3464566929133858,"duration":0.11093750000000568},{"name":"F#3","midi":54,"time":175.87500000000188,"velocity":0.6377952755905512,"duration":0.08437499999999432},{"name":"C2","midi":36,"time":175.87500000000188,"velocity":0.8740157480314961,"duration":0.3031249999999943},{"name":"A#2","midi":46,"time":175.87500000000188,"velocity":0.7795275590551181,"duration":1.001562500000034},{"name":"C5","midi":72,"time":175.87500000000188,"velocity":0.8267716535433071,"duration":0.7593750000000057},{"name":"D4","midi":62,"time":175.87500000000188,"velocity":0.7795275590551181,"duration":0.6640625},{"name":"A#3","midi":58,"time":175.87500000000188,"velocity":0.5984251968503937,"duration":0.36406249999998863},{"name":"D4","midi":62,"time":175.87500000000188,"velocity":0.5984251968503937,"duration":0.957812500000017},{"name":"A#3","midi":58,"time":176.06250000000188,"velocity":0.1968503937007874,"duration":0.8234375000000398},{"name":"F#3","midi":54,"time":176.06250000000188,"velocity":0.2047244094488189,"duration":0.06874999999999432},{"name":"A#4","midi":70,"time":176.06250000000188,"velocity":0.4015748031496063,"duration":0.15156249999998295},{"name":"F3","midi":53,"time":176.25000000000188,"velocity":0.4330708661417323,"duration":0.7531250000000966},{"name":"D#4","midi":63,"time":176.25000000000188,"velocity":0.5984251968503937,"duration":0.6531250000000455},{"name":"A#3","midi":58,"time":176.25000000000188,"velocity":0.4330708661417323,"duration":0.6843750000000455},{"name":"A4","midi":69,"time":176.25000000000188,"velocity":0.25984251968503935,"duration":0.125},{"name":"D2","midi":38,"time":176.25000000000188,"velocity":0.8503937007874016,"duration":0.3031249999999943},{"name":"F#3","midi":54,"time":176.25000000000188,"velocity":0.6141732283464567,"duration":0.078125},{"name":"F#2","midi":42,"time":176.25000000000188,"velocity":0.5984251968503937,"duration":0.08750000000000568},{"name":"D4","midi":62,"time":176.25000000000188,"velocity":0.7322834645669292,"duration":0.7375000000000682},{"name":"F4","midi":65,"time":176.25000000000188,"velocity":0.6614173228346457,"duration":0.8250000000001023},{"name":"A#3","midi":58,"time":176.25000000000188,"velocity":0.8031496062992126,"duration":0.7375000000000682},{"name":"F#2","midi":42,"time":176.43750000000188,"velocity":0.5039370078740157,"duration":0.05156249999998863},{"name":"F#3","midi":54,"time":176.43750000000188,"velocity":0.28346456692913385,"duration":0.08437499999999432},{"name":"A#4","midi":70,"time":176.43750000000188,"velocity":0.33858267716535434,"duration":0.13437500000000568},{"name":"D2","midi":38,"time":176.62500000000188,"velocity":0.6850393700787402,"duration":0.3718750000000739},{"name":"A#4","midi":70,"time":176.62500000000188,"velocity":0.8976377952755905,"duration":0.11718750000002842},{"name":"F#2","midi":42,"time":176.62500000000188,"velocity":0.7559055118110236,"duration":0.07500000000001705},{"name":"F#3","midi":54,"time":176.62500000000188,"velocity":0.5905511811023622,"duration":0.08593750000002842},{"name":"A4","midi":69,"time":176.62500000000188,"velocity":0.3779527559055118,"duration":0.09843750000001705},{"name":"A#4","midi":70,"time":176.62500000000188,"velocity":0.5984251968503937,"duration":0.21875000000002842},{"name":"D4","midi":62,"time":176.62500000000188,"velocity":0.5669291338582677,"duration":0.43125000000009095},{"name":"A#4","midi":70,"time":176.8125000000019,"velocity":0.8267716535433071,"duration":0.17187500000002842},{"name":"F#3","midi":54,"time":176.8125000000019,"velocity":0.2125984251968504,"duration":0.06718750000001705},{"name":"F#2","midi":42,"time":176.8125000000019,"velocity":0.6141732283464567,"duration":0.05312500000002274},{"name":"A#4","midi":70,"time":176.8125000000019,"velocity":0.4409448818897638,"duration":0.17656250000004547},{"name":"A#3","midi":58,"time":176.8125000000019,"velocity":0.4251968503937008,"duration":0.6250000000000853},{"name":"D#2","midi":39,"time":177.00000000000196,"velocity":0.8740157480314961,"duration":0.39531250000001705},{"name":"G4","midi":67,"time":177.00000000000196,"velocity":0.6850393700787402,"duration":0.5234375000000568},{"name":"D#4","midi":63,"time":177.00000000000196,"velocity":0.6456692913385826,"duration":0.47500000000005116},{"name":"A#3","midi":58,"time":177.00000000000196,"velocity":0.6456692913385826,"duration":0.6328125000000568},{"name":"D#2","midi":39,"time":177.00000000000196,"velocity":0.6456692913385826,"duration":0.7703125000001023},{"name":"D#3","midi":51,"time":177.00000000000196,"velocity":0.5354330708661418,"duration":0.36406250000001705},{"name":"A#5","midi":82,"time":177.00000000000196,"velocity":0.8740157480314961,"duration":0.3046875},{"name":"G4","midi":67,"time":177.00000000000196,"velocity":0.6771653543307087,"duration":0.6640625000000568},{"name":"D#4","midi":63,"time":177.00000000000196,"velocity":0.7165354330708661,"duration":0.5828125000000455},{"name":"G3","midi":55,"time":177.00000000000196,"velocity":0.5748031496062992,"duration":0.7546875000000739},{"name":"G4","midi":67,"time":177.00000000000196,"velocity":0.6614173228346457,"duration":0.7250000000000512},{"name":"D#5","midi":75,"time":177.00000000000196,"velocity":0.6850393700787402,"duration":0.6875000000000568},{"name":"D#6","midi":87,"time":177.00000000000196,"velocity":0.3937007874015748,"duration":0.8078125000001251},{"name":"G4","midi":67,"time":177.00000000000196,"velocity":0.5984251968503937,"duration":0.7375000000000398},{"name":"F#2","midi":42,"time":177.00000000000196,"velocity":0.7795275590551181,"duration":0.08125000000001137},{"name":"F#3","midi":54,"time":177.00000000000196,"velocity":0.6377952755905512,"duration":0.08281250000001705},{"name":"A4","midi":69,"time":177.00000000000196,"velocity":0.2125984251968504,"duration":0.13437500000000568},{"name":"C2","midi":36,"time":177.00000000000196,"velocity":0.8740157480314961,"duration":0.3062500000000057},{"name":"A#4","midi":70,"time":177.00000000000196,"velocity":0.6850393700787402,"duration":0.3375000000000057},{"name":"G4","midi":67,"time":177.00000000000196,"velocity":0.7086614173228346,"duration":0.7515625000000625},{"name":"D#4","midi":63,"time":177.00000000000196,"velocity":0.6850393700787402,"duration":0.6406250000000568},{"name":"G4","midi":67,"time":177.00000000000196,"velocity":0.6850393700787402,"duration":0.7515625000000625},{"name":"D#4","midi":63,"time":177.00000000000196,"velocity":0.7559055118110236,"duration":0.7375000000000398},{"name":"A#3","midi":58,"time":177.00000000000196,"velocity":0.8267716535433071,"duration":0.6671875000000682},{"name":"G5","midi":79,"time":177.00000000000196,"velocity":0.5826771653543307,"duration":0.6750000000000682},{"name":"D#5","midi":75,"time":177.00000000000196,"velocity":0.5826771653543307,"duration":0.771875000000108},{"name":"G4","midi":67,"time":177.00000000000196,"velocity":0.5984251968503937,"duration":0.8500000000001364},{"name":"F#2","midi":42,"time":177.18750000000196,"velocity":0.4330708661417323,"duration":0.06874999999999432},{"name":"A#4","midi":70,"time":177.18750000000196,"velocity":0.3543307086614173,"duration":0.37343750000005116},{"name":"F#3","midi":54,"time":177.18750000000196,"velocity":0.1968503937007874,"duration":0.06406250000000568},{"name":"G5","midi":79,"time":177.375000000002,"velocity":0.8503937007874016,"duration":0.4531250000001137},{"name":"F#3","midi":54,"time":177.375000000002,"velocity":0.5669291338582677,"duration":0.08125000000001137},{"name":"A4","midi":69,"time":177.375000000002,"velocity":0.25984251968503935,"duration":0.10156250000002842},{"name":"F#2","midi":42,"time":177.375000000002,"velocity":0.4251968503937008,"duration":0.08906250000001137},{"name":"A#3","midi":58,"time":177.375000000002,"velocity":0.25196850393700787,"duration":0.36250000000001137},{"name":"F#3","midi":54,"time":177.56250000000202,"velocity":0.30708661417322836,"duration":0.046875},{"name":"F#2","midi":42,"time":177.56250000000202,"velocity":0.3464566929133858,"duration":0.07499999999998863},{"name":"A#4","midi":70,"time":177.56250000000202,"velocity":0.4251968503937008,"duration":0.15468749999999432},{"name":"D#4","midi":63,"time":177.56250000000202,"velocity":0.33858267716535434,"duration":0.1968750000000341},{"name":"A#3","midi":58,"time":177.56250000000202,"velocity":0.4094488188976378,"duration":0.5578125000000966},{"name":"D2","midi":38,"time":177.75000000000202,"velocity":0.8267716535433071,"duration":0.2781250000000739},{"name":"F4","midi":65,"time":177.75000000000202,"velocity":0.6456692913385826,"duration":0.34375000000008527},{"name":"D4","midi":62,"time":177.75000000000202,"velocity":0.6614173228346457,"duration":0.3187500000000796},{"name":"A#3","midi":58,"time":177.75000000000202,"velocity":0.5826771653543307,"duration":0.7687500000001251},{"name":"D2","midi":38,"time":177.75000000000202,"velocity":0.6850393700787402,"duration":0.36093750000009095},{"name":"D3","midi":50,"time":177.75000000000202,"velocity":0.5984251968503937,"duration":0.35156250000008527},{"name":"G5","midi":79,"time":177.75000000000202,"velocity":0.8740157480314961,"duration":0.3343750000000796},{"name":"F4","midi":65,"time":177.75000000000202,"velocity":0.5905511811023622,"duration":0.46406250000009663},{"name":"D4","midi":62,"time":177.75000000000202,"velocity":0.5905511811023622,"duration":0.7937500000001307},{"name":"F3","midi":53,"time":177.75000000000202,"velocity":0.5748031496062992,"duration":0.7875000000001364},{"name":"D5","midi":74,"time":177.75000000000202,"velocity":0.6299212598425197,"duration":0.7468750000001307},{"name":"F4","midi":65,"time":177.75000000000202,"velocity":0.7086614173228346,"duration":0.5562500000001194},{"name":"D6","midi":86,"time":177.75000000000202,"velocity":0.4566929133858268,"duration":0.7453125000001251},{"name":"F4","midi":65,"time":177.75000000000202,"velocity":0.6456692913385826,"duration":0.6671875000001251},{"name":"A#2","midi":46,"time":177.75000000000202,"velocity":0.8031496062992126,"duration":0.16250000000007958},{"name":"D2","midi":38,"time":177.75000000000202,"velocity":0.8740157480314961,"duration":0.4968750000001023},{"name":"A4","midi":69,"time":177.75000000000202,"velocity":0.30708661417322836,"duration":0.11562500000007958},{"name":"F#3","midi":54,"time":177.75000000000202,"velocity":0.6377952755905512,"duration":0.07812500000008527},{"name":"A#4","midi":70,"time":177.75000000000202,"velocity":0.7559055118110236,"duration":0.33593750000008527},{"name":"F4","midi":65,"time":177.75000000000202,"velocity":0.7086614173228346,"duration":0.8296875000001194},{"name":"D4","midi":62,"time":177.75000000000202,"velocity":0.7322834645669292,"duration":0.9234375000001194},{"name":"A#3","midi":58,"time":177.75000000000202,"velocity":0.7559055118110236,"duration":0.8140625000001194},{"name":"F4","midi":65,"time":177.75000000000202,"velocity":0.6850393700787402,"duration":0.8296875000001194},{"name":"F5","midi":77,"time":177.75000000000202,"velocity":0.5826771653543307,"duration":0.7796875000001364},{"name":"D5","midi":74,"time":177.75000000000202,"velocity":0.5669291338582677,"duration":0.7546875000001307},{"name":"F4","midi":65,"time":177.75000000000202,"velocity":0.6456692913385826,"duration":0.834375000000108},{"name":"A#4","midi":70,"time":177.9375000000021,"velocity":0.4015748031496063,"duration":0.4875000000000398},{"name":"F#3","midi":54,"time":177.9375000000021,"velocity":0.28346456692913385,"duration":0.07656249999999432},{"name":"D#5","midi":75,"time":178.1250000000021,"velocity":0.8503937007874016,"duration":0.7453125000000682},{"name":"A#2","midi":46,"time":178.1250000000021,"velocity":0.8031496062992126,"duration":0.14062500000002842},{"name":"F#3","midi":54,"time":178.1250000000021,"velocity":0.5196850393700787,"duration":0.08750000000000568},{"name":"A4","midi":69,"time":178.1250000000021,"velocity":0.3464566929133858,"duration":0.09687500000001137},{"name":"D2","midi":38,"time":178.31250000000213,"velocity":0.6850393700787402,"duration":0.21406250000001137},{"name":"F#3","midi":54,"time":178.31250000000213,"velocity":0.2047244094488189,"duration":0.05781250000001137},{"name":"C2","midi":36,"time":178.31250000000213,"velocity":0.48031496062992124,"duration":0.05937500000001705},{"name":"A#4","midi":70,"time":178.31250000000213,"velocity":0.4409448818897638,"duration":0.13750000000001705},{"name":"F4","midi":65,"time":178.31250000000213,"velocity":0.5039370078740157,"duration":0.3609375000000057},{"name":"A#3","midi":58,"time":178.31250000000213,"velocity":0.6141732283464567,"duration":0.3609375000000057},{"name":"C2","midi":36,"time":178.50000000000216,"velocity":0.8031496062992126,"duration":0.33281249999998863},{"name":"G3","midi":55,"time":178.50000000000216,"velocity":0.5196850393700787,"duration":1.540625000000034},{"name":"C4","midi":60,"time":178.50000000000216,"velocity":0.6456692913385826,"duration":0.3671875},{"name":"D#4","midi":63,"time":178.50000000000216,"velocity":0.6850393700787402,"duration":0.3671875},{"name":"C3","midi":48,"time":178.50000000000216,"velocity":0.6299212598425197,"duration":1.5140625000000227},{"name":"C2","midi":36,"time":178.50000000000216,"velocity":0.7086614173228346,"duration":1.2906250000000625},{"name":"G3","midi":55,"time":178.50000000000216,"velocity":0.5748031496062992,"duration":3.003125000000125},{"name":"D#4","midi":63,"time":178.50000000000216,"velocity":0.6771653543307087,"duration":0.7406250000000512},{"name":"C4","midi":60,"time":178.50000000000216,"velocity":0.6377952755905512,"duration":0.7406250000000512},{"name":"D#4","midi":63,"time":178.50000000000216,"velocity":0.7322834645669292,"duration":0.7578125000000568},{"name":"C5","midi":72,"time":178.50000000000216,"velocity":0.6299212598425197,"duration":2.8109375000000796},{"name":"C6","midi":84,"time":178.50000000000216,"velocity":0.5669291338582677,"duration":2.6546875000000796},{"name":"D#4","midi":63,"time":178.50000000000216,"velocity":0.6299212598425197,"duration":1.059375000000074},{"name":"F#3","midi":54,"time":178.50000000000216,"velocity":0.6771653543307087,"duration":0.0843749999999659},{"name":"F#2","midi":42,"time":178.50000000000216,"velocity":0.7795275590551181,"duration":0.0921874999999659},{"name":"A4","midi":69,"time":178.50000000000216,"velocity":0.33070866141732286,"duration":0.09374999999997158},{"name":"C2","midi":36,"time":178.50000000000216,"velocity":0.8740157480314961,"duration":1.485937500000034},{"name":"A#4","midi":70,"time":178.50000000000216,"velocity":0.6299212598425197,"duration":0.32499999999998863},{"name":"G4","midi":67,"time":178.50000000000216,"velocity":0.7086614173228346,"duration":0.3671875},{"name":"C5","midi":72,"time":178.50000000000216,"velocity":0.5354330708661418,"duration":2.901562500000125},{"name":"D#5","midi":75,"time":178.50000000000216,"velocity":0.5826771653543307,"duration":2.707812500000074},{"name":"D#4","midi":63,"time":178.50000000000216,"velocity":0.6299212598425197,"duration":1.3265625000000512},{"name":"A#4","midi":70,"time":178.68750000000213,"velocity":0.4251968503937008,"duration":0.3218750000000341},{"name":"F#3","midi":54,"time":178.68750000000213,"velocity":0.2125984251968504,"duration":0.046875},{"name":"F#2","midi":42,"time":178.68750000000213,"velocity":0.4251968503937008,"duration":0.06406250000000568},{"name":"C4","midi":60,"time":178.68750000000213,"velocity":0.6299212598425197,"duration":1.207812500000074},{"name":"D#4","midi":63,"time":178.68750000000213,"velocity":0.5984251968503937,"duration":1.231250000000074},{"name":"G4","midi":67,"time":178.68750000000213,"velocity":0.5826771653543307,"duration":0.2281250000000341},{"name":"A4","midi":69,"time":178.87500000000216,"velocity":0.3937007874015748,"duration":0.08750000000000568},{"name":"F#2","midi":42,"time":178.87500000000216,"velocity":0.6614173228346457,"duration":0.07343750000001137},{"name":"F#3","midi":54,"time":178.87500000000216,"velocity":0.5354330708661418,"duration":0.08125000000001137},{"name":"C4","midi":60,"time":178.87500000000216,"velocity":0.6850393700787402,"duration":1.1125000000000398},{"name":"G4","midi":67,"time":178.87500000000216,"velocity":0.7322834645669292,"duration":0.36562500000005116},{"name":"D#4","midi":63,"time":178.87500000000216,"velocity":0.6850393700787402,"duration":1.1125000000000398},{"name":"F#3","midi":54,"time":179.06250000000216,"velocity":0.18110236220472442,"duration":0.10000000000002274},{"name":"F#2","midi":42,"time":179.06250000000216,"velocity":0.4251968503937008,"duration":0.05781250000001137},{"name":"A#4","midi":70,"time":179.06250000000216,"velocity":0.4409448818897638,"duration":0.1421875000000341},{"name":"G4","midi":67,"time":179.06250000000216,"velocity":0.6850393700787402,"duration":0.9250000000000398},{"name":"A#4","midi":70,"time":179.06250000000216,"velocity":0.5826771653543307,"duration":0.5125000000000739},{"name":"D#4","midi":63,"time":179.06250000000216,"velocity":0.5826771653543307,"duration":0.9734375000000455},{"name":"D3","midi":50,"time":179.2375000000022,"velocity":0.5511811023622047,"duration":0.10625000000001705},{"name":"A4","midi":69,"time":179.25000000000222,"velocity":0.3228346456692913,"duration":0.07656249999999432},{"name":"F#3","midi":54,"time":179.25000000000222,"velocity":0.6535433070866141,"duration":0.07656249999999432},{"name":"F#2","midi":42,"time":179.25000000000222,"velocity":0.7795275590551181,"duration":0.10468750000001137},{"name":"D2","midi":38,"time":179.25000000000222,"velocity":0.8740157480314961,"duration":0.22187500000001137},{"name":"C4","midi":60,"time":179.25000000000222,"velocity":0.7322834645669292,"duration":0.7828124999999773},{"name":"G4","midi":67,"time":179.25000000000222,"velocity":0.7086614173228346,"duration":1.4609375000000284},{"name":"D#4","midi":63,"time":179.25000000000222,"velocity":0.5669291338582677,"duration":1.0843749999999943},{"name":"D4","midi":62,"time":179.2718750000022,"velocity":0.6850393700787402,"duration":0.10625000000001705},{"name":"D#4","midi":63,"time":179.29687500000222,"velocity":0.7795275590551181,"duration":1.3046875000000284},{"name":"D#3","midi":51,"time":179.3031250000022,"velocity":0.5354330708661418,"duration":0.6703124999999943},{"name":"A#4","midi":70,"time":179.43750000000222,"velocity":0.3779527559055118,"duration":0.15156250000001137},{"name":"F#3","midi":54,"time":179.43750000000222,"velocity":0.23622047244094488,"duration":0.05000000000001137},{"name":"F#2","midi":42,"time":179.43750000000222,"velocity":0.29133858267716534,"duration":0.06562500000001137},{"name":"A4","midi":69,"time":179.62500000000222,"velocity":0.41732283464566927,"duration":0.11093750000000568},{"name":"F#3","midi":54,"time":179.62500000000222,"velocity":0.5905511811023622,"duration":0.08125000000001137},{"name":"F#2","midi":42,"time":179.62500000000222,"velocity":0.6614173228346457,"duration":0.07968750000000568},{"name":"C2","midi":36,"time":179.81250000000222,"velocity":0.8267716535433071,"duration":0.21249999999997726},{"name":"C2","midi":36,"time":179.81250000000222,"velocity":0.8503937007874016,"duration":0.3343749999999659},{"name":"F#2","midi":42,"time":179.81250000000222,"velocity":0.33070866141732286,"duration":0.04374999999998863},{"name":"F#3","midi":54,"time":179.81250000000222,"velocity":0.28346456692913385,"duration":0.0390625},{"name":"C4","midi":60,"time":179.81250000000222,"velocity":0.44881889763779526,"duration":0.9250000000000114},{"name":"A#4","midi":70,"time":179.82968750000222,"velocity":0.8031496062992126,"duration":0.5078125},{"name":"C3","midi":48,"time":180.0000000000022,"velocity":0.4881889763779528,"duration":0.4953125000000398},{"name":"D4","midi":62,"time":180.0000000000022,"velocity":0.5826771653543307,"duration":0.5281250000000455},{"name":"C2","midi":36,"time":180.0000000000022,"velocity":0.5984251968503937,"duration":0.24531250000001137},{"name":"F#2","midi":42,"time":180.0000000000022,"velocity":0.6850393700787402,"duration":0.0859375},{"name":"F#3","midi":54,"time":180.0000000000022,"velocity":0.6141732283464567,"duration":0.09062499999998863},{"name":"A4","midi":69,"time":180.0000000000022,"velocity":0.2125984251968504,"duration":0.13437500000000568},{"name":"C4","midi":60,"time":180.0000000000022,"velocity":0.6614173228346457,"duration":1.3171875000000455},{"name":"G4","midi":67,"time":180.0000000000022,"velocity":0.6850393700787402,"duration":0.7375000000000398},{"name":"D3","midi":50,"time":180.0359375000022,"velocity":0.3700787401574803,"duration":0.08749999999997726},{"name":"D#3","midi":51,"time":180.0640625000022,"velocity":0.5039370078740157,"duration":1.4765625000000568},{"name":"C2","midi":36,"time":180.1875000000022,"velocity":0.6850393700787402,"duration":0.07656250000002274},{"name":"D#4","midi":63,"time":180.1875000000022,"velocity":0.5826771653543307,"duration":0.7671875000000625},{"name":"C2","midi":36,"time":180.1875000000022,"velocity":0.6456692913385826,"duration":0.4015625000000682},{"name":"A#4","midi":70,"time":180.1875000000022,"velocity":0.3543307086614173,"duration":0.23281250000002274},{"name":"F#2","midi":42,"time":180.1875000000022,"velocity":0.4015748031496063,"duration":0.05937500000001705},{"name":"F#3","midi":54,"time":180.1875000000022,"velocity":0.2992125984251969,"duration":0.05000000000001137},{"name":"D#4","midi":63,"time":180.1875000000022,"velocity":0.3464566929133858,"duration":1.0125000000000455},{"name":"A#4","midi":70,"time":180.1875000000022,"velocity":0.4015748031496063,"duration":0.5296875000000512},{"name":"C2","midi":36,"time":180.37500000000222,"velocity":0.7795275590551181,"duration":0.7265625000000284},{"name":"A#4","midi":70,"time":180.37500000000222,"velocity":0.7086614173228346,"duration":0.7109375000000284},{"name":"F#3","midi":54,"time":180.37500000000222,"velocity":0.5511811023622047,"duration":0.07968750000000568},{"name":"A4","midi":69,"time":180.37500000000222,"velocity":0.25984251968503935,"duration":0.1015625},{"name":"F#2","midi":42,"time":180.37500000000222,"velocity":0.5826771653543307,"duration":0.08437499999999432},{"name":"C2","midi":36,"time":180.37500000000222,"velocity":0.8503937007874016,"duration":0.8343750000000227},{"name":"A#4","midi":70,"time":180.56250000000225,"velocity":0.4251968503937008,"duration":0.612499999999983},{"name":"F#2","midi":42,"time":180.56250000000225,"velocity":0.4645669291338583,"duration":0.05937499999998863},{"name":"F#3","midi":54,"time":180.56250000000225,"velocity":0.25984251968503935,"duration":0.053124999999994316},{"name":"D#4","midi":63,"time":180.56250000000225,"velocity":0.2283464566929134,"duration":0.8921875000000341},{"name":"C3","midi":48,"time":180.75000000000222,"velocity":0.4330708661417323,"duration":0.6468750000000512},{"name":"D2","midi":38,"time":180.75000000000222,"velocity":0.8976377952755905,"duration":0.2203125000000341},{"name":"A#2","midi":46,"time":180.75000000000222,"velocity":0.8267716535433071,"duration":0.10625000000001705},{"name":"F#3","midi":54,"time":180.75000000000222,"velocity":0.6535433070866141,"duration":0.07968750000000568},{"name":"A4","midi":69,"time":180.75000000000222,"velocity":0.30708661417322836,"duration":0.11562500000002274},{"name":"G4","midi":67,"time":180.75000000000222,"velocity":0.4015748031496063,"duration":0.4781250000000057},{"name":"D#4","midi":63,"time":180.75000000000222,"velocity":0.5511811023622047,"duration":0.7656250000000568},{"name":"A#4","midi":70,"time":180.75000000000222,"velocity":0.7322834645669292,"duration":0.5703125000000284},{"name":"C4","midi":60,"time":180.75000000000222,"velocity":0.7086614173228346,"duration":0.6234375000000512},{"name":"G4","midi":67,"time":180.75000000000222,"velocity":0.7322834645669292,"duration":0.6390625000000512},{"name":"D#3","midi":51,"time":180.93750000000225,"velocity":0.08661417322834646,"duration":0.6328125},{"name":"A#4","midi":70,"time":180.93750000000225,"velocity":0.4015748031496063,"duration":0.4468750000000341},{"name":"F#3","midi":54,"time":180.93750000000225,"velocity":0.25984251968503935,"duration":0.06406250000000568},{"name":"G1","midi":31,"time":181.12500000000225,"velocity":0.8031496062992126,"duration":0.39531250000001705},{"name":"C4","midi":60,"time":181.12500000000225,"velocity":0.5354330708661418,"duration":0.4000000000000057},{"name":"D#5","midi":75,"time":181.12500000000225,"velocity":0.8503937007874016,"duration":0.35781250000002274},{"name":"F#2","midi":42,"time":181.12500000000225,"velocity":0.6456692913385826,"duration":0.09062499999998863},{"name":"A4","midi":69,"time":181.12500000000225,"velocity":0.3464566929133858,"duration":0.09687499999998295},{"name":"F#3","midi":54,"time":181.12500000000225,"velocity":0.5354330708661418,"duration":0.08124999999998295},{"name":"C2","midi":36,"time":181.12500000000225,"velocity":0.7559055118110236,"duration":0.2734375000000284},{"name":"D4","midi":62,"time":181.31250000000225,"velocity":0.5039370078740157,"duration":0.1281250000000398},{"name":"D#5","midi":75,"time":181.31250000000225,"velocity":0.8503937007874016,"duration":1.278125000000017},{"name":"A#4","midi":70,"time":181.31250000000225,"velocity":0.4409448818897638,"duration":0.13750000000004547},{"name":"F#2","midi":42,"time":181.31250000000225,"velocity":0.6456692913385826,"duration":0.05000000000001137},{"name":"F#3","midi":54,"time":181.31250000000225,"velocity":0.33070866141732286,"duration":0.05937500000001705},{"name":"G4","midi":67,"time":181.31250000000225,"velocity":0.4330708661417323,"duration":0.9171875000000114},{"name":"C4","midi":60,"time":181.31250000000225,"velocity":0.3937007874015748,"duration":0.4359374999999659},{"name":"G#1","midi":32,"time":181.50000000000227,"velocity":0.8740157480314961,"duration":1.490624999999966},{"name":"D#4","midi":63,"time":181.50000000000227,"velocity":0.6614173228346457,"duration":0.651562499999983},{"name":"G#2","midi":44,"time":181.50000000000227,"velocity":0.7086614173228346,"duration":1.2656249999999716},{"name":"C4","midi":60,"time":181.50000000000227,"velocity":0.6141732283464567,"duration":0.38593749999998295},{"name":"A#5","midi":82,"time":181.50000000000227,"velocity":0.8976377952755905,"duration":0.23749999999995453},{"name":"D#4","midi":63,"time":181.50000000000227,"velocity":0.6377952755905512,"duration":1.1609374999999886},{"name":"C4","midi":60,"time":181.50000000000227,"velocity":0.5905511811023622,"duration":0.6718749999999716},{"name":"G#3","midi":56,"time":181.50000000000227,"velocity":0.5511811023622047,"duration":0.29687499999994316},{"name":"D#3","midi":51,"time":181.50000000000227,"velocity":0.6141732283464567,"duration":1.443749999999966},{"name":"D#5","midi":75,"time":181.50000000000227,"velocity":0.6614173228346457,"duration":1.4718749999999545},{"name":"C5","midi":72,"time":181.50000000000227,"velocity":0.6850393700787402,"duration":1.514062499999966},{"name":"D#6","midi":87,"time":181.50000000000227,"velocity":0.29133858267716534,"duration":1.4843749999999716},{"name":"A4","midi":69,"time":181.50000000000227,"velocity":0.4015748031496063,"duration":0.12499999999994316},{"name":"F#2","midi":42,"time":181.50000000000227,"velocity":0.8031496062992126,"duration":0.08749999999994884},{"name":"C2","midi":36,"time":181.50000000000227,"velocity":0.8740157480314961,"duration":0.32187499999994884},{"name":"F#3","midi":54,"time":181.50000000000227,"velocity":0.6771653543307087,"duration":0.08749999999994884},{"name":"D#4","midi":63,"time":181.50000000000227,"velocity":0.44881889763779526,"duration":1.4734374999999602},{"name":"C4","midi":60,"time":181.50000000000227,"velocity":0.4251968503937008,"duration":0.6890624999999773},{"name":"D#4","midi":63,"time":181.50000000000227,"velocity":0.6456692913385826,"duration":1.482812499999966},{"name":"C4","midi":60,"time":181.50000000000227,"velocity":0.6850393700787402,"duration":0.729687499999983},{"name":"G#3","midi":56,"time":181.50000000000227,"velocity":0.8503937007874016,"duration":0.5999999999999943},{"name":"C5","midi":72,"time":181.50000000000227,"velocity":0.48031496062992124,"duration":1.529687499999966},{"name":"G5","midi":79,"time":181.68750000000222,"velocity":0.8031496062992126,"duration":0.07656249999999432},{"name":"F#2","midi":42,"time":181.68750000000222,"velocity":0.5984251968503937,"duration":0.05156250000001705},{"name":"F#3","midi":54,"time":181.68750000000222,"velocity":0.30708661417322836,"duration":0.056250000000005684},{"name":"A#4","midi":70,"time":181.68750000000222,"velocity":0.4251968503937008,"duration":0.14531250000001705},{"name":"C4","midi":60,"time":181.87500000000225,"velocity":0.3543307086614173,"duration":0.43437499999998863},{"name":"G5","midi":79,"time":181.87500000000225,"velocity":0.7559055118110236,"duration":0.056250000000005684},{"name":"F#3","midi":54,"time":181.87500000000225,"velocity":0.48031496062992124,"duration":0.08125000000001137},{"name":"A4","midi":69,"time":181.87500000000225,"velocity":0.3464566929133858,"duration":0.11406250000001705},{"name":"F#2","midi":42,"time":181.87500000000225,"velocity":0.6614173228346457,"duration":0.07968750000000568},{"name":"C4","midi":60,"time":181.87500000000225,"velocity":0.3858267716535433,"duration":0.8218750000000057},{"name":"G#3","midi":56,"time":181.87500000000225,"velocity":0.5039370078740157,"duration":0.671875},{"name":"G5","midi":79,"time":182.06250000000227,"velocity":0.8031496062992126,"duration":0.03125},{"name":"G5","midi":79,"time":182.06250000000227,"velocity":0.8031496062992126,"duration":0.06406249999997726},{"name":"F#3","midi":54,"time":182.06250000000227,"velocity":0.23622047244094488,"duration":0.07812499999997158},{"name":"F#2","midi":42,"time":182.06250000000227,"velocity":0.5511811023622047,"duration":0.05156249999998863},{"name":"A#4","midi":70,"time":182.06250000000227,"velocity":0.4409448818897638,"duration":0.15937499999998295},{"name":"G#3","midi":56,"time":182.25000000000225,"velocity":0.5196850393700787,"duration":0.6296874999999886},{"name":"A#4","midi":70,"time":182.25000000000225,"velocity":0.7086614173228346,"duration":0.32343750000001137},{"name":"A#5","midi":82,"time":182.25000000000225,"velocity":0.8503937007874016,"duration":0.1953125},{"name":"A#4","midi":70,"time":182.25000000000225,"velocity":0.6850393700787402,"duration":0.32500000000001705},{"name":"F#2","midi":42,"time":182.25000000000225,"velocity":0.8031496062992126,"duration":0.0859375},{"name":"A4","midi":69,"time":182.25000000000225,"velocity":0.25196850393700787,"duration":0.12343749999999432},{"name":"D2","midi":38,"time":182.25000000000225,"velocity":0.8740157480314961,"duration":0.26093750000001137},{"name":"F#3","midi":54,"time":182.25000000000225,"velocity":0.6141732283464567,"duration":0.08750000000000568},{"name":"D#4","midi":63,"time":182.25000000000225,"velocity":0.6850393700787402,"duration":0.7984375000000057},{"name":"C4","midi":60,"time":182.25000000000225,"velocity":0.7086614173228346,"duration":0.4671874999999943},{"name":"A#4","midi":70,"time":182.25000000000225,"velocity":0.7559055118110236,"duration":0.6937499999999943},{"name":"C4","midi":60,"time":182.25000000000225,"velocity":0.5984251968503937,"duration":0.6062499999999886},{"name":"G#3","midi":56,"time":182.25000000000225,"velocity":0.7086614173228346,"duration":0.7421875},{"name":"G#4","midi":68,"time":182.25000000000225,"velocity":0.7322834645669292,"duration":0.9234375000000341},{"name":"A#4","midi":70,"time":182.25000000000225,"velocity":0.6850393700787402,"duration":1.0203125000000455},{"name":"D#5","midi":75,"time":182.43750000000225,"velocity":0.8267716535433071,"duration":0.589062499999983},{"name":"A#4","midi":70,"time":182.43750000000225,"velocity":0.41732283464566927,"duration":0.9171875000000682},{"name":"F#2","midi":42,"time":182.43750000000225,"velocity":0.29133858267716534,"duration":0.05781250000001137},{"name":"F#3","midi":54,"time":182.43750000000225,"velocity":0.2125984251968504,"duration":0.06093750000002274},{"name":"C4","midi":60,"time":182.62500000000227,"velocity":0.4015748031496063,"duration":0.3078124999999545},{"name":"D#3","midi":51,"time":182.62500000000227,"velocity":0.44881889763779526,"duration":0.3953124999999602},{"name":"D#5","midi":75,"time":182.62500000000227,"velocity":0.8267716535433071,"duration":0.47968749999998295},{"name":"F#2","midi":42,"time":182.62500000000227,"velocity":0.6614173228346457,"duration":0.08281249999996021},{"name":"A4","midi":69,"time":182.62500000000227,"velocity":0.3543307086614173,"duration":0.11093749999997726},{"name":"F#3","midi":54,"time":182.62500000000227,"velocity":0.5354330708661418,"duration":0.0765624999999659},{"name":"F#3","midi":54,"time":182.81250000000225,"velocity":0.31496062992125984,"duration":0.05781249999998295},{"name":"A#4","midi":70,"time":182.81250000000225,"velocity":0.4015748031496063,"duration":0.6812500000000341},{"name":"F#2","midi":42,"time":182.81250000000225,"velocity":0.5511811023622047,"duration":0.05156249999998863},{"name":"C4","midi":60,"time":182.81250000000225,"velocity":0.28346456692913385,"duration":0.23593750000000568},{"name":"G#3","midi":56,"time":182.81250000000225,"velocity":0.4330708661417323,"duration":0.3609375000000341},{"name":"C4","midi":60,"time":182.81250000000225,"velocity":0.2677165354330709,"duration":0.3609375000000341},{"name":"A#1","midi":34,"time":183.00000000000225,"velocity":0.8031496062992126,"duration":0.33593750000005684},{"name":"D4","midi":62,"time":183.00000000000225,"velocity":0.6456692913385826,"duration":0.5546875000000284},{"name":"A#2","midi":46,"time":183.00000000000225,"velocity":0.6614173228346457,"duration":1.0500000000000966},{"name":"F4","midi":65,"time":183.00000000000225,"velocity":0.6850393700787402,"duration":0.7390625000000739},{"name":"F4","midi":65,"time":183.00000000000225,"velocity":0.5748031496062992,"duration":0.837500000000091},{"name":"A#3","midi":58,"time":183.00000000000225,"velocity":0.5511811023622047,"duration":0.6125000000000398},{"name":"D4","midi":62,"time":183.00000000000225,"velocity":0.6377952755905512,"duration":0.7390625000000739},{"name":"F3","midi":53,"time":183.00000000000225,"velocity":0.7795275590551181,"duration":1.3656250000000796},{"name":"F5","midi":77,"time":183.00000000000225,"velocity":0.6299212598425197,"duration":1.470312500000091},{"name":"D5","midi":74,"time":183.00000000000225,"velocity":0.6614173228346457,"duration":1.5140625000001364},{"name":"F6","midi":89,"time":183.00000000000225,"velocity":0.2677165354330709,"duration":1.4937500000001194},{"name":"C2","midi":36,"time":183.00000000000225,"velocity":0.8503937007874016,"duration":0.2203125000000341},{"name":"A4","midi":69,"time":183.00000000000225,"velocity":0.25196850393700787,"duration":0.11406250000001705},{"name":"F#3","midi":54,"time":183.00000000000225,"velocity":0.7007874015748031,"duration":0.08125000000001137},{"name":"F#2","midi":42,"time":183.00000000000225,"velocity":0.7795275590551181,"duration":0.11250000000001137},{"name":"D5","midi":74,"time":183.00000000000225,"velocity":0.5511811023622047,"duration":1.5296875000001364},{"name":"A#4","midi":70,"time":183.00000000000225,"velocity":0.4251968503937008,"duration":0.4937500000000341},{"name":"F#3","midi":54,"time":183.18750000000227,"velocity":0.14173228346456693,"duration":0.040625000000005684},{"name":"F#2","midi":42,"time":183.18750000000227,"velocity":0.2677165354330709,"duration":0.06718750000001705},{"name":"A#4","midi":70,"time":183.18750000000227,"velocity":0.3228346456692913,"duration":0.5265625000000398},{"name":"A#3","midi":58,"time":183.18750000000227,"velocity":0.5669291338582677,"duration":0.4890625000000455},{"name":"D4","midi":62,"time":183.18750000000227,"velocity":0.5984251968503937,"duration":0.6281250000000682},{"name":"F4","midi":65,"time":183.18750000000227,"velocity":0.5826771653543307,"duration":1.1234375000000512},{"name":"A#1","midi":34,"time":183.3750000000023,"velocity":0.7559055118110236,"duration":0.6859375000000512},{"name":"A#3","midi":58,"time":183.3750000000023,"velocity":0.4094488188976378,"duration":0.36406250000001705},{"name":"C2","midi":36,"time":183.3750000000023,"velocity":0.8503937007874016,"duration":0.19843749999998295},{"name":"F#3","midi":54,"time":183.3750000000023,"velocity":0.5354330708661418,"duration":0.07499999999998863},{"name":"F#2","midi":42,"time":183.3750000000023,"velocity":0.6614173228346457,"duration":0.10312499999997726},{"name":"A4","midi":69,"time":183.3750000000023,"velocity":0.3464566929133858,"duration":0.11093749999997726},{"name":"F4","midi":65,"time":183.3750000000023,"velocity":0.6850393700787402,"duration":0.9437500000000227},{"name":"D4","midi":62,"time":183.3750000000023,"velocity":0.6850393700787402,"duration":0.6328125000000284},{"name":"A#4","midi":70,"time":183.3750000000023,"velocity":0.6850393700787402,"duration":0.5250000000000341},{"name":"A#3","midi":58,"time":183.3750000000023,"velocity":0.6614173228346457,"duration":0.6328125000000284},{"name":"F#2","midi":42,"time":183.56250000000227,"velocity":0.4645669291338583,"duration":0.0718750000000341},{"name":"A#4","midi":70,"time":183.56250000000227,"velocity":0.4015748031496063,"duration":0.5093750000000625},{"name":"F#3","midi":54,"time":183.56250000000227,"velocity":0.3543307086614173,"duration":0.06875000000002274},{"name":"D4","midi":62,"time":183.75000000000233,"velocity":0.5826771653543307,"duration":0.31562500000001137},{"name":"F3","midi":53,"time":183.75000000000233,"velocity":0.6141732283464567,"duration":0.7812500000000568},{"name":"A#3","midi":58,"time":183.75000000000233,"velocity":0.6456692913385826,"duration":0.6421875000000057},{"name":"D2","midi":38,"time":183.75000000000233,"velocity":0.8976377952755905,"duration":0.28750000000002274},{"name":"F#2","midi":42,"time":183.75000000000233,"velocity":0.7086614173228346,"duration":0.09375},{"name":"A4","midi":69,"time":183.75000000000233,"velocity":0.25984251968503935,"duration":0.125},{"name":"F#3","midi":54,"time":183.75000000000233,"velocity":0.6535433070866141,"duration":0.08281250000001705},{"name":"D4","midi":62,"time":183.75000000000233,"velocity":0.5354330708661418,"duration":0.359375},{"name":"F4","midi":65,"time":183.75000000000233,"velocity":0.6141732283464567,"duration":0.6703124999999943},{"name":"A#3","midi":58,"time":183.75000000000233,"velocity":0.7795275590551181,"duration":0.7375000000000398},{"name":"D4","midi":62,"time":183.75000000000233,"velocity":0.6456692913385826,"duration":0.5609374999999943},{"name":"C4","midi":60,"time":183.93750000000233,"velocity":0.3464566929133858,"duration":0.1953125},{"name":"F#3","midi":54,"time":183.93750000000233,"velocity":0.3464566929133858,"duration":0.07343750000001137},{"name":"F#2","midi":42,"time":183.93750000000233,"velocity":0.5669291338582677,"duration":0.08437500000002274},{"name":"A#4","midi":70,"time":183.93750000000233,"velocity":0.33858267716535434,"duration":0.18906250000000568},{"name":"F4","midi":65,"time":183.93750000000233,"velocity":0.2440944881889764,"duration":0.5500000000000398},{"name":"D4","midi":62,"time":183.93750000000233,"velocity":0.3937007874015748,"duration":0.4671874999999943},{"name":"D#4","midi":63,"time":183.93750000000233,"velocity":0.3464566929133858,"duration":0.1953125},{"name":"A#1","midi":34,"time":184.12500000000233,"velocity":0.5354330708661418,"duration":0.18437499999998863},{"name":"C4","midi":60,"time":184.12500000000233,"velocity":0.3858267716535433,"duration":0.15312499999998863},{"name":"D4","midi":62,"time":184.12500000000233,"velocity":0.5039370078740157,"duration":0.34843750000001705},{"name":"A#2","midi":46,"time":184.12500000000233,"velocity":0.7559055118110236,"duration":0.09375},{"name":"F#3","midi":54,"time":184.12500000000233,"velocity":0.5511811023622047,"duration":0.078125},{"name":"A4","midi":69,"time":184.12500000000233,"velocity":0.3779527559055118,"duration":0.09843749999998863},{"name":"A#4","midi":70,"time":184.12500000000233,"velocity":0.6614173228346457,"duration":0.23593750000000568},{"name":"D4","midi":62,"time":184.12500000000233,"velocity":0.6456692913385826,"duration":0.3625000000000398},{"name":"F5","midi":77,"time":184.12500000000233,"velocity":0.5669291338582677,"duration":0.3781250000000398},{"name":"F4","midi":65,"time":184.12500000000233,"velocity":0.5039370078740157,"duration":0.45937500000005116},{"name":"C2","midi":36,"time":184.31250000000233,"velocity":0.5984251968503937,"duration":0.12812499999998295},{"name":"D4","midi":62,"time":184.31250000000233,"velocity":0.48031496062992124,"duration":0.27343750000005684},{"name":"C4","midi":60,"time":184.31250000000233,"velocity":0.48031496062992124,"duration":0.13906249999999432},{"name":"A#4","midi":70,"time":184.31250000000233,"velocity":0.4409448818897638,"duration":0.17187500000002842},{"name":"F#3","midi":54,"time":184.31250000000233,"velocity":0.2755905511811024,"duration":0.07187500000000568},{"name":"A#3","midi":58,"time":184.31250000000233,"velocity":0.3700787401574803,"duration":0.2625000000000455},{"name":"D#4","midi":63,"time":184.31250000000233,"velocity":0.48031496062992124,"duration":0.13906249999999432},{"name":"D#2","midi":39,"time":184.50000000000236,"velocity":0.8267716535433071,"duration":0.723437500000017},{"name":"G4","midi":67,"time":184.50000000000236,"velocity":0.6614173228346457,"duration":0.30156250000001705},{"name":"A#4","midi":70,"time":184.50000000000236,"velocity":0.6614173228346457,"duration":0.32500000000001705},{"name":"D#3","midi":51,"time":184.50000000000236,"velocity":0.7795275590551181,"duration":0.4437499999999943},{"name":"D#4","midi":63,"time":184.50000000000236,"velocity":0.6614173228346457,"duration":0.40937500000001137},{"name":"G3","midi":55,"time":184.50000000000236,"velocity":0.8267716535433071,"duration":0.7687500000000114},{"name":"D#4","midi":63,"time":184.50000000000236,"velocity":0.6614173228346457,"duration":0.4749999999999943},{"name":"A#3","midi":58,"time":184.50000000000236,"velocity":0.7086614173228346,"duration":0.30312500000002274},{"name":"D#5","midi":75,"time":184.50000000000236,"velocity":0.6850393700787402,"duration":0.7578125},{"name":"G5","midi":79,"time":184.50000000000236,"velocity":0.6614173228346457,"duration":0.7687500000000114},{"name":"G6","midi":91,"time":184.50000000000236,"velocity":0.4094488188976378,"duration":0.7375000000000114},{"name":"G3","midi":55,"time":184.50000000000236,"velocity":0.5511811023622047,"duration":0.7968750000000284},{"name":"F#3","midi":54,"time":184.50000000000236,"velocity":0.6771653543307087,"duration":0.08437500000002274},{"name":"A4","midi":69,"time":184.50000000000236,"velocity":0.33070866141732286,"duration":0.09375000000002842},{"name":"C#3","midi":49,"time":184.50000000000236,"velocity":0.7795275590551181,"duration":0.11406250000001705},{"name":"C2","midi":36,"time":184.50000000000236,"velocity":0.8740157480314961,"duration":0.38750000000001705},{"name":"D#4","midi":63,"time":184.50000000000236,"velocity":0.6850393700787402,"duration":0.6406249999999716},{"name":"A#4","midi":70,"time":184.50000000000236,"velocity":0.6850393700787402,"duration":0.5609374999999943},{"name":"G4","midi":67,"time":184.50000000000236,"velocity":0.7086614173228346,"duration":0.3671875000000284},{"name":"G4","midi":67,"time":184.50000000000236,"velocity":0.6614173228346457,"duration":0.6546874999999943},{"name":"A#3","midi":58,"time":184.50000000000236,"velocity":0.6850393700787402,"duration":0.46562499999998863},{"name":"D#4","midi":63,"time":184.50000000000236,"velocity":0.6299212598425197,"duration":0.643749999999983},{"name":"G5","midi":79,"time":184.50000000000236,"velocity":0.6456692913385826,"duration":0.778125000000017},{"name":"D#5","midi":75,"time":184.50000000000236,"velocity":0.6141732283464567,"duration":0.7609375000000114},{"name":"A#4","midi":70,"time":184.6875000000024,"velocity":0.4251968503937008,"duration":0.3796874999999602},{"name":"F#3","midi":54,"time":184.6875000000024,"velocity":0.2125984251968504,"duration":0.046875},{"name":"F4","midi":65,"time":184.8750000000024,"velocity":0.6141732283464567,"duration":0.1687499999999602},{"name":"F#3","midi":54,"time":184.8750000000024,"velocity":0.5354330708661418,"duration":0.08124999999995453},{"name":"F#2","midi":42,"time":184.8750000000024,"velocity":0.48031496062992124,"duration":0.04062499999997726},{"name":"A4","midi":69,"time":184.8750000000024,"velocity":0.3937007874015748,"duration":0.08749999999994884},{"name":"A#3","midi":58,"time":184.8750000000024,"velocity":0.30708661417322836,"duration":0.29843749999997726},{"name":"G4","midi":67,"time":185.06250000000236,"velocity":0.4881889763779528,"duration":0.1015625},{"name":"F#3","midi":54,"time":185.06250000000236,"velocity":0.18110236220472442,"duration":0.09999999999999432},{"name":"A#4","midi":70,"time":185.06250000000236,"velocity":0.4409448818897638,"duration":0.14218750000000568},{"name":"F#2","midi":42,"time":185.06250000000236,"velocity":0.3700787401574803,"duration":0.03281249999997726},{"name":"D#4","midi":63,"time":185.06250000000236,"velocity":0.33858267716535434,"duration":0.1875},{"name":"A#3","midi":58,"time":185.06250000000236,"velocity":0.4881889763779528,"duration":0.5171875000000341},{"name":"G4","midi":67,"time":185.06250000000236,"velocity":0.4881889763779528,"duration":0.13750000000001705},{"name":"D2","midi":38,"time":185.25000000000236,"velocity":0.8031496062992126,"duration":0.3015625000000455},{"name":"A#4","midi":70,"time":185.25000000000236,"velocity":0.6299212598425197,"duration":0.3390625000000398},{"name":"D3","midi":50,"time":185.25000000000236,"velocity":0.7795275590551181,"duration":0.7109375000000568},{"name":"F4","midi":65,"time":185.25000000000236,"velocity":0.7322834645669292,"duration":0.3234375000000398},{"name":"F3","midi":53,"time":185.25000000000236,"velocity":0.7559055118110236,"duration":0.7515625000000625},{"name":"D4","midi":62,"time":185.25000000000236,"velocity":0.6614173228346457,"duration":0.2859375000000455},{"name":"F5","midi":77,"time":185.25000000000236,"velocity":0.7322834645669292,"duration":0.7953125000000796},{"name":"D5","midi":74,"time":185.25000000000236,"velocity":0.6456692913385826,"duration":0.7468750000000455},{"name":"F6","midi":89,"time":185.25000000000236,"velocity":0.5039370078740157,"duration":0.7843750000000682},{"name":"F3","midi":53,"time":185.25000000000236,"velocity":0.5039370078740157,"duration":0.7750000000000625},{"name":"A4","midi":69,"time":185.25000000000236,"velocity":0.3228346456692913,"duration":0.07656250000002274},{"name":"F#3","midi":54,"time":185.25000000000236,"velocity":0.6535433070866141,"duration":0.07656250000002274},{"name":"D2","midi":38,"time":185.25000000000236,"velocity":0.8740157480314961,"duration":0.7500000000000568},{"name":"A3","midi":57,"time":185.25000000000236,"velocity":0.7086614173228346,"duration":0.13125000000002274},{"name":"F4","midi":65,"time":185.25000000000236,"velocity":0.7086614173228346,"duration":0.36562500000005116},{"name":"A#4","midi":70,"time":185.25000000000236,"velocity":0.7559055118110236,"duration":0.5859375000000568},{"name":"A#3","midi":58,"time":185.25000000000236,"velocity":0.6299212598425197,"duration":0.4500000000000739},{"name":"F4","midi":65,"time":185.25000000000236,"velocity":0.6850393700787402,"duration":0.4640625000000682},{"name":"D4","midi":62,"time":185.25000000000236,"velocity":0.6614173228346457,"duration":0.5078125000000568},{"name":"F5","midi":77,"time":185.25000000000236,"velocity":0.5669291338582677,"duration":0.8125000000000853},{"name":"D5","midi":74,"time":185.25000000000236,"velocity":0.5511811023622047,"duration":0.8015625000000739},{"name":"A#4","midi":70,"time":185.4375000000024,"velocity":0.3779527559055118,"duration":0.4875000000000398},{"name":"F#3","midi":54,"time":185.4375000000024,"velocity":0.23622047244094488,"duration":0.05000000000001137},{"name":"D4","midi":62,"time":185.62500000000242,"velocity":0.5669291338582677,"duration":0.24843750000002274},{"name":"F#2","midi":42,"time":185.62500000000242,"velocity":0.4881889763779528,"duration":0.07187500000000568},{"name":"A4","midi":69,"time":185.62500000000242,"velocity":0.41732283464566927,"duration":0.11093750000000568},{"name":"F#3","midi":54,"time":185.62500000000242,"velocity":0.5905511811023622,"duration":0.08125000000001137},{"name":"D4","midi":62,"time":185.62500000000242,"velocity":0.29133858267716534,"duration":0.3062500000000057},{"name":"A#3","midi":58,"time":185.62500000000242,"velocity":0.2677165354330709,"duration":0.24531250000001137},{"name":"F4","midi":65,"time":185.81250000000242,"velocity":0.4566929133858268,"duration":0.07500000000001705},{"name":"F#3","midi":54,"time":185.81250000000242,"velocity":0.28346456692913385,"duration":0.0390625},{"name":"F#2","midi":42,"time":185.81250000000242,"velocity":0.5354330708661418,"duration":0.06093750000002274},{"name":"F4","midi":65,"time":185.81250000000242,"velocity":0.5039370078740157,"duration":0.09843750000001705},{"name":"D4","midi":62,"time":185.81250000000242,"velocity":0.4566929133858268,"duration":0.23437500000002842},{"name":"A#3","midi":58,"time":185.81250000000242,"velocity":0.5669291338582677,"duration":0.08750000000000568},{"name":"F4","midi":65,"time":185.81250000000242,"velocity":0.4645669291338583,"duration":0.10468750000001137},{"name":"C2","midi":36,"time":186.00000000000242,"velocity":0.8267716535433071,"duration":0.5187500000000398},{"name":"C3","midi":48,"time":186.00000000000242,"velocity":0.7322834645669292,"duration":1.500000000000142},{"name":"G4","midi":67,"time":186.00000000000242,"velocity":0.6299212598425197,"duration":0.3609375000000341},{"name":"D#4","midi":63,"time":186.00000000000242,"velocity":0.5826771653543307,"duration":0.4390625000000341},{"name":"G3","midi":55,"time":186.00000000000242,"velocity":0.7322834645669292,"duration":1.542187500000125},{"name":"D#4","midi":63,"time":186.00000000000242,"velocity":0.5669291338582677,"duration":0.5281250000000455},{"name":"C4","midi":60,"time":186.00000000000242,"velocity":0.5984251968503937,"duration":0.5062500000000227},{"name":"C5","midi":72,"time":186.00000000000242,"velocity":0.6299212598425197,"duration":1.5140625000001364},{"name":"D#6","midi":87,"time":186.00000000000242,"velocity":0.5039370078740157,"duration":1.4750000000001364},{"name":"D#5","midi":75,"time":186.00000000000242,"velocity":0.5984251968503937,"duration":1.5015625000001478},{"name":"D#3","midi":51,"time":186.00000000000242,"velocity":0.4881889763779528,"duration":0.7468750000000739},{"name":"F#3","midi":54,"time":186.00000000000242,"velocity":0.6141732283464567,"duration":0.09062500000001705},{"name":"A4","midi":69,"time":186.00000000000242,"velocity":0.2125984251968504,"duration":0.13437500000000568},{"name":"C#3","midi":49,"time":186.00000000000242,"velocity":0.7322834645669292,"duration":0.23906250000001705},{"name":"C2","midi":36,"time":186.00000000000242,"velocity":0.8740157480314961,"duration":1.3593750000000853},{"name":"A#4","midi":70,"time":186.00000000000242,"velocity":0.6299212598425197,"duration":0.3375000000000341},{"name":"G4","midi":67,"time":186.00000000000242,"velocity":0.7086614173228346,"duration":0.3703125000000398},{"name":"G4","midi":67,"time":186.00000000000242,"velocity":0.6614173228346457,"duration":0.4156250000000341},{"name":"D#4","midi":63,"time":186.00000000000242,"velocity":0.6299212598425197,"duration":0.6734375000000625},{"name":"C4","midi":60,"time":186.00000000000242,"velocity":0.7559055118110236,"duration":0.6484375000000568},{"name":"C5","midi":72,"time":186.00000000000242,"velocity":0.4881889763779528,"duration":4.478125000000119},{"name":"D#5","midi":75,"time":186.00000000000242,"velocity":0.5984251968503937,"duration":5.923437500000205},{"name":"F#3","midi":54,"time":186.18750000000242,"velocity":0.2992125984251969,"duration":0.05000000000001137},{"name":"A#4","midi":70,"time":186.18750000000242,"velocity":0.3543307086614173,"duration":0.3218750000000341},{"name":"C4","midi":60,"time":186.37500000000244,"velocity":0.48031496062992124,"duration":0.3531250000000341},{"name":"A4","midi":69,"time":186.37500000000244,"velocity":0.25984251968503935,"duration":0.1015625},{"name":"F#2","midi":42,"time":186.37500000000244,"velocity":0.4881889763779528,"duration":0.0625},{"name":"F#3","midi":54,"time":186.37500000000244,"velocity":0.5511811023622047,"duration":0.07968750000000568},{"name":"G4","midi":67,"time":186.37500000000244,"velocity":0.2677165354330709,"duration":0.0546875},{"name":"A#4","midi":70,"time":186.56250000000247,"velocity":0.4251968503937008,"duration":0.15468749999999432},{"name":"F#3","midi":54,"time":186.56250000000247,"velocity":0.25984251968503935,"duration":0.053124999999994316},{"name":"F#2","midi":42,"time":186.56250000000247,"velocity":0.4251968503937008,"duration":0.07187500000000568},{"name":"G4","midi":67,"time":186.56250000000247,"velocity":0.6850393700787402,"duration":0.606250000000017},{"name":"A#4","midi":70,"time":186.56250000000247,"velocity":0.5826771653543307,"duration":0.512500000000017},{"name":"D#4","midi":63,"time":186.56250000000247,"velocity":0.5826771653543307,"duration":0.49687500000001705},{"name":"D#4","midi":63,"time":186.56250000000247,"velocity":0.4251968503937008,"duration":0.676562500000017},{"name":"C4","midi":60,"time":186.56250000000247,"velocity":0.4015748031496063,"duration":0.567187500000017},{"name":"G4","midi":67,"time":186.7500000000025,"velocity":0.6456692913385826,"duration":0.7484375000000512},{"name":"D#4","midi":63,"time":186.7500000000025,"velocity":0.5669291338582677,"duration":0.5765624999999943},{"name":"D4","midi":62,"time":186.7500000000025,"velocity":0.6614173228346457,"duration":0.21406249999998295},{"name":"F#3","midi":54,"time":186.7500000000025,"velocity":0.6535433070866141,"duration":0.07968749999997726},{"name":"F#2","midi":42,"time":186.7500000000025,"velocity":0.4330708661417323,"duration":0.07499999999998863},{"name":"D2","midi":38,"time":186.7500000000025,"velocity":0.8740157480314961,"duration":0.23437499999997158},{"name":"A4","midi":69,"time":186.7500000000025,"velocity":0.30708661417322836,"duration":0.1156249999999659},{"name":"C4","midi":60,"time":186.7500000000025,"velocity":0.6614173228346457,"duration":0.6828125000000398},{"name":"G4","midi":67,"time":186.7500000000025,"velocity":0.6850393700787402,"duration":1.231250000000017},{"name":"D#4","midi":63,"time":186.7500000000025,"velocity":0.5354330708661418,"duration":0.5765624999999943},{"name":"D4","midi":62,"time":186.7500000000025,"velocity":0.6614173228346457,"duration":0.21406249999998295},{"name":"D#4","midi":63,"time":186.93750000000247,"velocity":0.5984251968503937,"duration":0.45937500000005116},{"name":"F#3","midi":54,"time":186.93750000000247,"velocity":0.25984251968503935,"duration":0.06406250000000568},{"name":"A#4","midi":70,"time":186.93750000000247,"velocity":0.4015748031496063,"duration":0.14843750000002842},{"name":"D#4","midi":63,"time":186.93750000000247,"velocity":0.5984251968503937,"duration":0.8968750000000512},{"name":"C4","midi":60,"time":187.1250000000025,"velocity":0.3464566929133858,"duration":0.36093750000006253},{"name":"F#2","midi":42,"time":187.1250000000025,"velocity":0.3700787401574803,"duration":0.08437499999999432},{"name":"A4","midi":69,"time":187.1250000000025,"velocity":0.3464566929133858,"duration":0.09687499999998295},{"name":"F#3","midi":54,"time":187.1250000000025,"velocity":0.5354330708661418,"duration":0.08124999999998295},{"name":"A#4","midi":70,"time":187.3125000000025,"velocity":0.6850393700787402,"duration":0.13750000000004547},{"name":"A#4","midi":70,"time":187.3125000000025,"velocity":0.4409448818897638,"duration":0.520312500000017},{"name":"F#3","midi":54,"time":187.3125000000025,"velocity":0.33070866141732286,"duration":0.05937500000001705},{"name":"C2","midi":36,"time":187.3125000000025,"velocity":0.6141732283464567,"duration":0.12968750000004547},{"name":"F#2","midi":42,"time":187.3125000000025,"velocity":0.3700787401574803,"duration":0.05781250000001137},{"name":"C4","midi":60,"time":187.3125000000025,"velocity":0.25984251968503935,"duration":0.6625000000000227},{"name":"A#4","midi":70,"time":187.3125000000025,"velocity":0.6850393700787402,"duration":0.6078125000000227},{"name":"C2","midi":36,"time":187.50000000000256,"velocity":0.6850393700787402,"duration":0.14374999999998295},{"name":"A#4","midi":70,"time":187.50000000000256,"velocity":0.4645669291338583,"duration":0.5281249999999602},{"name":"G3","midi":55,"time":187.50000000000256,"velocity":0.30708661417322836,"duration":4.373437500000051},{"name":"G4","midi":67,"time":187.50000000000256,"velocity":0.5669291338582677,"duration":0.5499999999999545},{"name":"C3","midi":48,"time":187.50000000000256,"velocity":0.5354330708661418,"duration":0.5890624999999545},{"name":"C2","midi":36,"time":187.50000000000256,"velocity":0.5354330708661418,"duration":0.3281249999999716},{"name":"D5","midi":74,"time":187.50000000000256,"velocity":0.6141732283464567,"duration":1.3234375000000114},{"name":"D5","midi":74,"time":187.50000000000256,"velocity":0.7086614173228346,"duration":1.564062500000034},{"name":"A#4","midi":70,"time":187.50000000000256,"velocity":0.5511811023622047,"duration":0.721874999999983},{"name":"D6","midi":86,"time":187.50000000000256,"velocity":0.06299212598425197,"duration":1.525000000000034},{"name":"A4","midi":69,"time":187.50000000000256,"velocity":0.4015748031496063,"duration":0.12499999999997158},{"name":"F#2","midi":42,"time":187.50000000000256,"velocity":0.6141732283464567,"duration":0.12656249999997726},{"name":"C2","midi":36,"time":187.50000000000256,"velocity":0.8740157480314961,"duration":0.5562499999999488},{"name":"F#3","midi":54,"time":187.50000000000256,"velocity":0.6771653543307087,"duration":0.08749999999997726},{"name":"G4","midi":67,"time":187.50000000000256,"velocity":0.7086614173228346,"duration":0.7109374999999716},{"name":"C4","midi":60,"time":187.50000000000256,"velocity":0.6299212598425197,"duration":0.6874999999999716},{"name":"D#4","midi":63,"time":187.50000000000256,"velocity":0.5984251968503937,"duration":0.6015624999999432},{"name":"F#2","midi":42,"time":187.68750000000253,"velocity":0.3543307086614173,"duration":0.0703125},{"name":"A#4","midi":70,"time":187.68750000000253,"velocity":0.4251968503937008,"duration":0.8687500000000341},{"name":"F#3","midi":54,"time":187.68750000000253,"velocity":0.30708661417322836,"duration":0.056250000000005684},{"name":"A#4","midi":70,"time":187.68750000000253,"velocity":0.4015748031496063,"duration":0.8875000000000455},{"name":"D#4","midi":63,"time":187.68750000000253,"velocity":0.3464566929133858,"duration":0.5265625000000114},{"name":"C2","midi":36,"time":187.87500000000253,"velocity":0.7795275590551181,"duration":0.6156250000000227},{"name":"F#2","midi":42,"time":187.87500000000253,"velocity":0.4330708661417323,"duration":0.11093749999997726},{"name":"C2","midi":36,"time":187.87500000000253,"velocity":0.8503937007874016,"duration":0.7140625000000398},{"name":"A4","midi":69,"time":187.87500000000253,"velocity":0.3464566929133858,"duration":0.11406249999998863},{"name":"F#3","midi":54,"time":187.87500000000253,"velocity":0.48031496062992124,"duration":0.08124999999998295},{"name":"A#4","midi":70,"time":188.0625000000025,"velocity":0.4409448818897638,"duration":0.7578125000000568},{"name":"F#2","midi":42,"time":188.0625000000025,"velocity":0.3858267716535433,"duration":0.06718750000001705},{"name":"F#3","midi":54,"time":188.0625000000025,"velocity":0.23622047244094488,"duration":0.07812500000002842},{"name":"D#4","midi":63,"time":188.0625000000025,"velocity":0.2283464566929134,"duration":0.6375000000000455},{"name":"C4","midi":60,"time":188.0625000000025,"velocity":0.29133858267716534,"duration":0.5218750000000796},{"name":"A#4","midi":70,"time":188.25000000000253,"velocity":0.44881889763779526,"duration":0.6937500000000512},{"name":"G4","midi":67,"time":188.25000000000253,"velocity":0.4015748031496063,"duration":0.4000000000000341},{"name":"C3","midi":48,"time":188.25000000000253,"velocity":0.36220472440944884,"duration":0.32656250000005116},{"name":"D2","midi":38,"time":188.25000000000253,"velocity":0.8267716535433071,"duration":0.23281250000002274},{"name":"A#2","midi":46,"time":188.25000000000253,"velocity":0.5984251968503937,"duration":0.1171875},{"name":"F#3","midi":54,"time":188.25000000000253,"velocity":0.6141732283464567,"duration":0.08749999999997726},{"name":"A4","midi":69,"time":188.25000000000253,"velocity":0.25196850393700787,"duration":0.12343749999999432},{"name":"A#4","midi":70,"time":188.25000000000253,"velocity":0.7322834645669292,"duration":0.7859375000000739},{"name":"G4","midi":67,"time":188.25000000000253,"velocity":0.4015748031496063,"duration":0.4781250000000341},{"name":"D#4","midi":63,"time":188.25000000000253,"velocity":0.5511811023622047,"duration":0.551562500000017},{"name":"C4","midi":60,"time":188.25000000000253,"velocity":0.5984251968503937,"duration":0.6750000000000398},{"name":"D#4","midi":63,"time":188.25000000000253,"velocity":0.5826771653543307,"duration":0.6218750000000455},{"name":"G4","midi":67,"time":188.25000000000253,"velocity":0.6850393700787402,"duration":0.5000000000000284},{"name":"F#3","midi":54,"time":188.43750000000253,"velocity":0.2125984251968504,"duration":0.06093750000002274},{"name":"A#4","midi":70,"time":188.43750000000253,"velocity":0.41732283464566927,"duration":0.9171875000000398},{"name":"G1","midi":31,"time":188.62500000000256,"velocity":0.7795275590551181,"duration":0.38906250000002274},{"name":"D#4","midi":63,"time":188.62500000000256,"velocity":0.3228346456692913,"duration":0.4156250000000341},{"name":"A4","midi":69,"time":188.62500000000256,"velocity":0.3543307086614173,"duration":0.11093750000000568},{"name":"C2","midi":36,"time":188.62500000000256,"velocity":0.5511811023622047,"duration":0.07656249999999432},{"name":"F#3","midi":54,"time":188.62500000000256,"velocity":0.5354330708661418,"duration":0.07656249999999432},{"name":"A#2","midi":46,"time":188.62500000000256,"velocity":0.7086614173228346,"duration":0.09999999999999432},{"name":"G4","midi":67,"time":188.81250000000256,"velocity":0.48031496062992124,"duration":0.07656250000002274},{"name":"F#3","midi":54,"time":188.81250000000256,"velocity":0.31496062992125984,"duration":0.05781250000001137},{"name":"A#4","midi":70,"time":188.81250000000256,"velocity":0.4015748031496063,"duration":0.65625},{"name":"G4","midi":67,"time":188.81250000000256,"velocity":0.4330708661417323,"duration":0.32500000000001705},{"name":"C4","midi":60,"time":188.81250000000256,"velocity":0.4251968503937008,"duration":0.6328125},{"name":"C2","midi":36,"time":189.0000000000026,"velocity":0.8267716535433071,"duration":0.21875},{"name":"A#4","midi":70,"time":189.0000000000026,"velocity":0.5984251968503937,"duration":0.5703124999999716},{"name":"C2","midi":36,"time":189.0000000000026,"velocity":0.4566929133858268,"duration":1.4812499999999602},{"name":"D#3","midi":51,"time":189.0000000000026,"velocity":0.4251968503937008,"duration":2.3437499999999716},{"name":"G4","midi":67,"time":189.0000000000026,"velocity":0.5826771653543307,"duration":0.47812499999997726},{"name":"C6","midi":84,"time":189.0000000000026,"velocity":0.4881889763779528,"duration":1.506249999999966},{"name":"C5","midi":72,"time":189.0000000000026,"velocity":0.5826771653543307,"duration":2.440624999999983},{"name":"F#2","midi":42,"time":189.0000000000026,"velocity":0.7795275590551181,"duration":0.08750000000000568},{"name":"C2","midi":36,"time":189.0000000000026,"velocity":0.8740157480314961,"duration":1.7749999999999488},{"name":"F#3","midi":54,"time":189.0000000000026,"velocity":0.7007874015748031,"duration":0.08125000000001137},{"name":"A4","midi":69,"time":189.0000000000026,"velocity":0.25196850393700787,"duration":0.11406249999998863},{"name":"D#4","midi":63,"time":189.0000000000026,"velocity":0.36220472440944884,"duration":0.48593749999997726},{"name":"G4","midi":67,"time":189.0000000000026,"velocity":0.6141732283464567,"duration":0.6390624999999659},{"name":"C4","midi":60,"time":189.0000000000026,"velocity":0.5511811023622047,"duration":0.6624999999999659},{"name":"F#3","midi":54,"time":189.1875000000026,"velocity":0.14173228346456693,"duration":0.040625000000005684},{"name":"F#2","midi":42,"time":189.1875000000026,"velocity":0.3228346456692913,"duration":0.0859375},{"name":"A#4","midi":70,"time":189.1875000000026,"velocity":0.3228346456692913,"duration":0.3828124999999716},{"name":"G4","midi":67,"time":189.1875000000026,"velocity":0.29133858267716534,"duration":0.9203124999999943},{"name":"A#4","midi":70,"time":189.1875000000026,"velocity":0.3464566929133858,"duration":0.4734374999999602},{"name":"D#4","midi":63,"time":189.37500000000256,"velocity":0.2440944881889764,"duration":0.2671875000000057},{"name":"F#2","midi":42,"time":189.37500000000256,"velocity":0.44881889763779526,"duration":0.09062499999998863},{"name":"F#3","midi":54,"time":189.37500000000256,"velocity":0.5354330708661418,"duration":0.07499999999998863},{"name":"A4","midi":69,"time":189.37500000000256,"velocity":0.3464566929133858,"duration":0.11093750000000568},{"name":"A#4","midi":70,"time":189.56250000000256,"velocity":0.4015748031496063,"duration":0.15156250000001137},{"name":"F#3","midi":54,"time":189.56250000000256,"velocity":0.3543307086614173,"duration":0.06874999999999432},{"name":"F#2","midi":42,"time":189.56250000000256,"velocity":0.3779527559055118,"duration":0.05156249999998863},{"name":"D#4","midi":63,"time":189.56250000000256,"velocity":0.4251968503937008,"duration":0.140625},{"name":"C4","midi":60,"time":189.56250000000256,"velocity":0.5196850393700787,"duration":0.6203125000000114},{"name":"G4","midi":67,"time":189.7500000000026,"velocity":0.3858267716535433,"duration":0.421875},{"name":"A#4","midi":70,"time":189.7500000000026,"velocity":0.4251968503937008,"duration":0.3218750000000057},{"name":"C3","midi":48,"time":189.7500000000026,"velocity":0.33858267716535434,"duration":0.3921875000000057},{"name":"D4","midi":62,"time":189.7500000000026,"velocity":0.5669291338582677,"duration":0.2750000000000057},{"name":"A4","midi":69,"time":189.7500000000026,"velocity":0.25984251968503935,"duration":0.12499999999997158},{"name":"F#2","midi":42,"time":189.7500000000026,"velocity":0.8031496062992126,"duration":0.09999999999999432},{"name":"D2","midi":38,"time":189.7500000000026,"velocity":0.8976377952755905,"duration":0.17656249999998863},{"name":"F#3","midi":54,"time":189.7500000000026,"velocity":0.6535433070866141,"duration":0.08281249999998863},{"name":"A#4","midi":70,"time":189.7500000000026,"velocity":0.3779527559055118,"duration":0.33906250000001137},{"name":"G4","midi":67,"time":189.7500000000026,"velocity":0.5039370078740157,"duration":0.4593749999999943},{"name":"D#4","midi":63,"time":189.7500000000026,"velocity":0.5984251968503937,"duration":0.44999999999998863},{"name":"C4","midi":60,"time":189.7500000000026,"velocity":0.5511811023622047,"duration":0.7281249999999488},{"name":"G4","midi":67,"time":189.7500000000026,"velocity":0.7086614173228346,"duration":0.6906249999999545},{"name":"D4","midi":62,"time":189.7500000000026,"velocity":0.5669291338582677,"duration":0.2750000000000057},{"name":"D#4","midi":63,"time":189.9375000000026,"velocity":0.48031496062992124,"duration":0.42968749999994316},{"name":"F#2","midi":42,"time":189.9375000000026,"velocity":0.2677165354330709,"duration":0.09531250000000568},{"name":"F#3","midi":54,"time":189.9375000000026,"velocity":0.3464566929133858,"duration":0.07343750000001137},{"name":"A#4","midi":70,"time":189.9375000000026,"velocity":0.33858267716535434,"duration":0.33749999999994884},{"name":"D#4","midi":63,"time":189.9375000000026,"velocity":0.48031496062992124,"duration":0.42968749999994316},{"name":"D#4","midi":63,"time":190.1250000000026,"velocity":0.25984251968503935,"duration":0.31406249999994884},{"name":"A4","midi":69,"time":190.1250000000026,"velocity":0.3779527559055118,"duration":0.09843749999996021},{"name":"F#2","midi":42,"time":190.1250000000026,"velocity":0.29133858267716534,"duration":0.09374999999997158},{"name":"F#3","midi":54,"time":190.1250000000026,"velocity":0.5511811023622047,"duration":0.078125},{"name":"A#4","midi":70,"time":190.31250000000253,"velocity":0.5669291338582677,"duration":0.17187500000002842},{"name":"F#3","midi":54,"time":190.31250000000253,"velocity":0.2755905511811024,"duration":0.07187500000000568},{"name":"A#4","midi":70,"time":190.31250000000253,"velocity":0.4409448818897638,"duration":0.512500000000017},{"name":"F#2","midi":42,"time":190.31250000000253,"velocity":0.4251968503937008,"duration":0.07187500000000568},{"name":"C2","midi":36,"time":190.31250000000253,"velocity":0.8503937007874016,"duration":0.7062500000000114},{"name":"G4","midi":67,"time":190.31250000000253,"velocity":0.2204724409448819,"duration":0.6281250000000114},{"name":"C4","midi":60,"time":190.31250000000253,"velocity":0.3700787401574803,"duration":0.6484375},{"name":"A#4","midi":70,"time":190.31250000000253,"velocity":0.5669291338582677,"duration":0.7421875000000568},{"name":"A#4","midi":70,"time":190.50000000000256,"velocity":0.5669291338582677,"duration":0.7046875000000057},{"name":"G4","midi":67,"time":190.50000000000256,"velocity":0.5196850393700787,"duration":0.5015624999999773},{"name":"C3","midi":48,"time":190.50000000000256,"velocity":0.3779527559055118,"duration":0.543750000000017},{"name":"A#5","midi":82,"time":190.50000000000256,"velocity":0.2992125984251969,"duration":1.481250000000074},{"name":"A#4","midi":70,"time":190.50000000000256,"velocity":0.5669291338582677,"duration":1.0890625000000114},{"name":"F#2","midi":42,"time":190.50000000000256,"velocity":0.6456692913385826,"duration":0.10312500000000568},{"name":"A4","midi":69,"time":190.50000000000256,"velocity":0.33070866141732286,"duration":0.09375},{"name":"F#3","midi":54,"time":190.50000000000256,"velocity":0.6771653543307087,"duration":0.08437499999999432},{"name":"G4","midi":67,"time":190.50000000000256,"velocity":0.3937007874015748,"duration":0.5250000000000057},{"name":"A#4","midi":70,"time":190.50000000000256,"velocity":0.5196850393700787,"duration":1.3187500000000227},{"name":"C4","midi":60,"time":190.50000000000256,"velocity":0.28346456692913385,"duration":0.6953125},{"name":"G4","midi":67,"time":190.50000000000256,"velocity":0.6614173228346457,"duration":0.6750000000000114},{"name":"D#4","midi":63,"time":190.50000000000256,"velocity":0.44881889763779526,"duration":0.707812500000017},{"name":"F#2","midi":42,"time":190.68750000000256,"velocity":0.4094488188976378,"duration":0.07499999999998863},{"name":"A#4","midi":70,"time":190.68750000000256,"velocity":0.4251968503937008,"duration":1.1312500000000227},{"name":"F#3","midi":54,"time":190.68750000000256,"velocity":0.2125984251968504,"duration":0.046875},{"name":"C2","midi":36,"time":190.87500000000253,"velocity":0.7086614173228346,"duration":0.7609375000000398},{"name":"A4","midi":69,"time":190.87500000000253,"velocity":0.3937007874015748,"duration":0.08750000000000568},{"name":"F#3","midi":54,"time":190.87500000000253,"velocity":0.5354330708661418,"duration":0.08125000000001137},{"name":"C2","midi":36,"time":190.87500000000253,"velocity":0.7559055118110236,"duration":1.0390625000001137},{"name":"A#2","midi":46,"time":190.87500000000253,"velocity":0.6456692913385826,"duration":0.1500000000000341},{"name":"A#4","midi":70,"time":191.0625000000026,"velocity":0.4409448818897638,"duration":0.8328125000000455},{"name":"F#3","midi":54,"time":191.0625000000026,"velocity":0.18110236220472442,"duration":0.09999999999999432},{"name":"G4","midi":67,"time":191.0625000000026,"velocity":0.29133858267716534,"duration":0.5765624999999943},{"name":"C4","midi":60,"time":191.0625000000026,"velocity":0.3228346456692913,"duration":0.5140624999999943},{"name":"G4","midi":67,"time":191.25000000000256,"velocity":0.4566929133858268,"duration":0.4875000000000398},{"name":"C3","midi":48,"time":191.25000000000256,"velocity":0.3779527559055118,"duration":0.6140625000000455},{"name":"C5","midi":72,"time":191.25000000000256,"velocity":0.8503937007874016,"duration":0.7062500000000398},{"name":"C3","midi":48,"time":191.25000000000256,"velocity":0.5039370078740157,"duration":0.7078125000000455},{"name":"A4","midi":69,"time":191.25000000000256,"velocity":0.3228346456692913,"duration":0.07656249999999432},{"name":"F#3","midi":54,"time":191.25000000000256,"velocity":0.6535433070866141,"duration":0.07656249999999432},{"name":"F#2","midi":42,"time":191.25000000000256,"velocity":0.5826771653543307,"duration":0.125},{"name":"D2","midi":38,"time":191.25000000000256,"velocity":0.8976377952755905,"duration":0.30000000000001137},{"name":"A#4","midi":70,"time":191.25000000000256,"velocity":0.44881889763779526,"duration":0.7140625000000682},{"name":"G4","midi":67,"time":191.25000000000256,"velocity":0.28346456692913385,"duration":0.6125000000000398},{"name":"C4","midi":60,"time":191.25000000000256,"velocity":0.5354330708661418,"duration":0.4765625000000284},{"name":"D#4","midi":63,"time":191.25000000000256,"velocity":0.48031496062992124,"duration":0.35468750000001137},{"name":"G4","midi":67,"time":191.25000000000256,"velocity":0.6614173228346457,"duration":0.6687500000000739},{"name":"D5","midi":74,"time":191.43750000000256,"velocity":0.8031496062992126,"duration":0.24375000000000568},{"name":"A#4","midi":70,"time":191.43750000000256,"velocity":0.3779527559055118,"duration":0.5437500000000739},{"name":"F#3","midi":54,"time":191.43750000000256,"velocity":0.23622047244094488,"duration":0.05000000000001137},{"name":"G1","midi":31,"time":191.6250000000026,"velocity":0.6141732283464567,"duration":0.3468750000000398},{"name":"D#4","midi":63,"time":191.6250000000026,"velocity":0.2755905511811024,"duration":0.12656250000000568},{"name":"F#2","midi":42,"time":191.6250000000026,"velocity":0.4645669291338583,"duration":0.08281249999998863},{"name":"A4","midi":69,"time":191.6250000000026,"velocity":0.41732283464566927,"duration":0.11093750000000568},{"name":"F#3","midi":54,"time":191.6250000000026,"velocity":0.5905511811023622,"duration":0.08124999999998295},{"name":"D#4","midi":63,"time":191.6250000000026,"velocity":0.29133858267716534,"duration":0.2984375000000341},{"name":"C4","midi":60,"time":191.6250000000026,"velocity":0.4251968503937008,"duration":0.2593750000000341},{"name":"D#5","midi":75,"time":191.8125000000026,"velocity":0.8503937007874016,"duration":0.5218750000000227},{"name":"F#3","midi":54,"time":191.8125000000026,"velocity":0.28346456692913385,"duration":0.0390625},{"name":"G4","midi":67,"time":191.8125000000026,"velocity":0.3543307086614173,"duration":0.12343750000002274},{"name":"C4","midi":60,"time":191.8125000000026,"velocity":0.5039370078740157,"duration":0.13593750000001137},{"name":"G4","midi":67,"time":191.8125000000026,"velocity":0.36220472440944884,"duration":0.17031250000005116},{"name":"G#1","midi":32,"time":192.00000000000264,"velocity":0.8267716535433071,"duration":1.3046875},{"name":"G#3","midi":56,"time":192.00000000000264,"velocity":0.3779527559055118,"duration":0.2171874999999659},{"name":"D#4","midi":63,"time":192.00000000000264,"velocity":0.48031496062992124,"duration":0.39374999999998295},{"name":"A#3","midi":58,"time":192.00000000000264,"velocity":0.3779527559055118,"duration":0.42499999999998295},{"name":"G#2","midi":44,"time":192.00000000000264,"velocity":0.5984251968503937,"duration":1.2859374999999886},{"name":"A#3","midi":58,"time":192.00000000000264,"velocity":0.28346456692913385,"duration":1.2281250000000057},{"name":"G#2","midi":44,"time":192.00000000000264,"velocity":0.2047244094488189,"duration":1.4906249999999943},{"name":"D#3","midi":51,"time":192.00000000000264,"velocity":0.23622047244094488,"duration":0.9062499999999716},{"name":"A#4","midi":70,"time":192.00000000000264,"velocity":0.4566929133858268,"duration":0.33749999999997726},{"name":"F#3","midi":54,"time":192.00000000000264,"velocity":0.6141732283464567,"duration":0.09062499999998863},{"name":"A4","midi":69,"time":192.00000000000264,"velocity":0.2125984251968504,"duration":0.13437499999997726},{"name":"F#2","midi":42,"time":192.00000000000264,"velocity":0.7322834645669292,"duration":0.14843749999997158},{"name":"C2","midi":36,"time":192.00000000000264,"velocity":0.8740157480314961,"duration":0.2531249999999545},{"name":"G#3","midi":56,"time":192.00000000000264,"velocity":0.4881889763779528,"duration":0.48749999999998295},{"name":"C4","midi":60,"time":192.00000000000264,"velocity":0.5669291338582677,"duration":1.0296874999999943},{"name":"D#3","midi":51,"time":192.00000000000264,"velocity":0.5196850393700787,"duration":1.0328125000000057},{"name":"G#2","midi":44,"time":192.00000000000264,"velocity":0.8267716535433071,"duration":3.0046875000001023},{"name":"F#3","midi":54,"time":192.18750000000261,"velocity":0.2992125984251969,"duration":0.04999999999998295},{"name":"A#4","midi":70,"time":192.18750000000261,"velocity":0.3543307086614173,"duration":0.5296874999999943},{"name":"G#3","midi":56,"time":192.37500000000261,"velocity":0.25196850393700787,"duration":0.629687500000017},{"name":"G5","midi":79,"time":192.37500000000261,"velocity":0.8503937007874016,"duration":0.453125},{"name":"D#3","midi":51,"time":192.37500000000261,"velocity":0.3779527559055118,"duration":0.8078125000000398},{"name":"F#3","midi":54,"time":192.37500000000261,"velocity":0.5511811023622047,"duration":0.07968750000000568},{"name":"A4","midi":69,"time":192.37500000000261,"velocity":0.25984251968503935,"duration":0.1015625},{"name":"F#2","midi":42,"time":192.37500000000261,"velocity":0.4094488188976378,"duration":0.07343750000001137},{"name":"D#3","midi":51,"time":192.37500000000261,"velocity":0.48031496062992124,"duration":1.0609375000000512},{"name":"F#2","midi":42,"time":192.56250000000261,"velocity":0.4881889763779528,"duration":0.046875},{"name":"A#4","midi":70,"time":192.56250000000261,"velocity":0.4251968503937008,"duration":0.5234375000000284},{"name":"F#3","midi":54,"time":192.56250000000261,"velocity":0.25984251968503935,"duration":0.053124999999994316},{"name":"A#3","midi":58,"time":192.75000000000261,"velocity":0.4566929133858268,"duration":0.5390625000000284},{"name":"D#4","midi":63,"time":192.75000000000261,"velocity":0.5354330708661418,"duration":0.26406250000002274},{"name":"D#3","midi":51,"time":192.75000000000261,"velocity":0.5039370078740157,"duration":0.723437500000017},{"name":"F5","midi":77,"time":192.75000000000261,"velocity":0.7322834645669292,"duration":0.30312500000002274},{"name":"C4","midi":60,"time":192.75000000000261,"velocity":0.48031496062992124,"duration":0.48281250000002274},{"name":"D2","midi":38,"time":192.75000000000261,"velocity":0.8740157480314961,"duration":0.30312500000002274},{"name":"F#2","midi":42,"time":192.75000000000261,"velocity":0.5826771653543307,"duration":0.1015625},{"name":"F#3","midi":54,"time":192.75000000000261,"velocity":0.6535433070866141,"duration":0.07968750000000568},{"name":"A4","midi":69,"time":192.75000000000261,"velocity":0.30708661417322836,"duration":0.11562499999999432},{"name":"C4","midi":60,"time":192.75000000000261,"velocity":0.7559055118110236,"duration":0.7171875000000227},{"name":"A#4","midi":70,"time":192.93750000000261,"velocity":0.4015748031496063,"duration":0.5125000000000455},{"name":"F#3","midi":54,"time":192.93750000000261,"velocity":0.25984251968503935,"duration":0.06406250000000568},{"name":"F#2","midi":42,"time":192.93750000000261,"velocity":0.4330708661417323,"duration":0.04218750000001137},{"name":"G#3","midi":56,"time":193.12500000000264,"velocity":0.29133858267716534,"duration":0.13124999999999432},{"name":"F5","midi":77,"time":193.12500000000264,"velocity":0.8503937007874016,"duration":0.6531249999999886},{"name":"A#3","midi":58,"time":193.12500000000264,"velocity":0.4094488188976378,"duration":0.6687499999999886},{"name":"F#3","midi":54,"time":193.12500000000264,"velocity":0.5354330708661418,"duration":0.08125000000001137},{"name":"A4","midi":69,"time":193.12500000000264,"velocity":0.3464566929133858,"duration":0.09687500000001137},{"name":"F#2","midi":42,"time":193.12500000000264,"velocity":0.3937007874015748,"duration":0.08437500000002274},{"name":"C4","midi":60,"time":193.12500000000264,"velocity":0.3937007874015748,"duration":0.3921875000000057},{"name":"G#3","midi":56,"time":193.12500000000264,"velocity":0.33858267716535434,"duration":0.17343750000000568},{"name":"G#3","midi":56,"time":193.12500000000264,"velocity":0.4330708661417323,"duration":0.29375000000001705},{"name":"A#1","midi":34,"time":193.31250000000264,"velocity":0.48031496062992124,"duration":0.15468749999999432},{"name":"F3","midi":53,"time":193.31250000000264,"velocity":0.3543307086614173,"duration":0.375},{"name":"G#3","midi":56,"time":193.31250000000264,"velocity":0.4251968503937008,"duration":0.15000000000000568},{"name":"A#4","midi":70,"time":193.31250000000264,"velocity":0.4409448818897638,"duration":0.5203124999999886},{"name":"F#3","midi":54,"time":193.31250000000264,"velocity":0.33070866141732286,"duration":0.05937500000001705},{"name":"F#2","midi":42,"time":193.31250000000264,"velocity":0.28346456692913385,"duration":0.02656250000001137},{"name":"D#3","midi":51,"time":193.31250000000264,"velocity":0.6141732283464567,"duration":1.7281250000001194},{"name":"A#1","midi":34,"time":193.50000000000264,"velocity":0.6614173228346457,"duration":1.4375000000001137},{"name":"A#2","midi":46,"time":193.50000000000264,"velocity":0.5354330708661418,"duration":0.895312500000017},{"name":"F4","midi":65,"time":193.50000000000264,"velocity":0.3937007874015748,"duration":1.284375000000125},{"name":"A#3","midi":58,"time":193.50000000000264,"velocity":0.30708661417322836,"duration":0.9515625000000227},{"name":"D4","midi":62,"time":193.50000000000264,"velocity":0.5826771653543307,"duration":0.47500000000002274},{"name":"C2","midi":36,"time":193.50000000000264,"velocity":0.8503937007874016,"duration":0.16093749999998863},{"name":"F#2","midi":42,"time":193.50000000000264,"velocity":0.6456692913385826,"duration":0.15625},{"name":"A4","midi":69,"time":193.50000000000264,"velocity":0.4015748031496063,"duration":0.125},{"name":"F#3","midi":54,"time":193.50000000000264,"velocity":0.6771653543307087,"duration":0.08750000000000568},{"name":"A#3","midi":58,"time":193.50000000000264,"velocity":0.5354330708661418,"duration":1.0234375000000284},{"name":"D4","midi":62,"time":193.50000000000264,"velocity":0.6850393700787402,"duration":0.9390625000000341},{"name":"F3","midi":53,"time":193.50000000000264,"velocity":0.4881889763779528,"duration":0.9046875000000227},{"name":"A#2","midi":46,"time":193.50000000000264,"velocity":0.6850393700787402,"duration":0.973437500000017},{"name":"F#3","midi":54,"time":193.68750000000264,"velocity":0.30708661417322836,"duration":0.05624999999997726},{"name":"A#4","midi":70,"time":193.68750000000264,"velocity":0.4251968503937008,"duration":0.5343750000000114},{"name":"D5","midi":74,"time":193.87500000000264,"velocity":0.8031496062992126,"duration":0.4765625},{"name":"F3","midi":53,"time":193.87500000000264,"velocity":0.3937007874015748,"duration":0.7562500000000796},{"name":"F#3","midi":54,"time":193.87500000000264,"velocity":0.48031496062992124,"duration":0.08125000000001137},{"name":"C2","midi":36,"time":193.87500000000264,"velocity":0.7795275590551181,"duration":0.14218750000000568},{"name":"F#2","midi":42,"time":193.87500000000264,"velocity":0.4566929133858268,"duration":0.09687500000001137},{"name":"A4","midi":69,"time":193.87500000000264,"velocity":0.3464566929133858,"duration":0.11406250000001705},{"name":"F3","midi":53,"time":193.87500000000264,"velocity":0.5669291338582677,"duration":0.8156250000000966},{"name":"A#4","midi":70,"time":194.06250000000264,"velocity":0.4409448818897638,"duration":0.5125000000000455},{"name":"F3","midi":53,"time":194.25000000000264,"velocity":0.4330708661417323,"duration":0.6578125000001194},{"name":"D4","midi":62,"time":194.25000000000264,"velocity":0.48031496062992124,"duration":0.35156250000005684},{"name":"C5","midi":72,"time":194.25000000000264,"velocity":0.6850393700787402,"duration":0.3062500000000341},{"name":"D4","midi":62,"time":194.25000000000264,"velocity":0.6456692913385826,"duration":0.3781250000000682},{"name":"D2","midi":38,"time":194.25000000000264,"velocity":0.8740157480314961,"duration":0.3140625000000341},{"name":"A#2","midi":46,"time":194.25000000000264,"velocity":0.6850393700787402,"duration":0.467187500000108},{"name":"F#3","midi":54,"time":194.25000000000264,"velocity":0.6141732283464567,"duration":0.08750000000000568},{"name":"A4","midi":69,"time":194.25000000000264,"velocity":0.25196850393700787,"duration":0.12343749999999432},{"name":"D4","midi":62,"time":194.25000000000264,"velocity":0.6850393700787402,"duration":0.42343750000009095},{"name":"A#3","midi":58,"time":194.25000000000264,"velocity":0.6614173228346457,"duration":0.45625000000009663},{"name":"F#3","midi":54,"time":194.43750000000267,"velocity":0.2125984251968504,"duration":0.060937499999994316},{"name":"A#4","midi":70,"time":194.43750000000267,"velocity":0.41732283464566927,"duration":0.5765625000000796},{"name":"A#3","midi":58,"time":194.6250000000027,"velocity":0.33858267716535434,"duration":0.08437500000005116},{"name":"C5","midi":72,"time":194.6250000000027,"velocity":0.7795275590551181,"duration":0.4890625000000739},{"name":"C4","midi":60,"time":194.6250000000027,"velocity":0.2440944881889764,"duration":0.08593750000005684},{"name":"A#2","midi":46,"time":194.6250000000027,"velocity":0.5669291338582677,"duration":0.24062500000007958},{"name":"A4","midi":69,"time":194.6250000000027,"velocity":0.3543307086614173,"duration":0.11093750000006253},{"name":"F#3","midi":54,"time":194.6250000000027,"velocity":0.5354330708661418,"duration":0.07656250000005116},{"name":"A#3","midi":58,"time":194.6250000000027,"velocity":0.3700787401574803,"duration":0.2703125000000739},{"name":"D4","midi":62,"time":194.6250000000027,"velocity":0.48031496062992124,"duration":0.056250000000034106},{"name":"A#3","midi":58,"time":194.6250000000027,"velocity":0.5354330708661418,"duration":0.40625000000005684},{"name":"C3","midi":48,"time":195.00000000000276,"velocity":0.4645669291338583,"duration":2.965625000000074},{"name":"A#4","midi":70,"time":195.00000000000276,"velocity":0.3228346456692913,"duration":0.5656250000000114},{"name":"D#4","midi":63,"time":195.00000000000276,"velocity":0.3543307086614173,"duration":0.6203125000000114},{"name":"C2","midi":36,"time":195.00000000000276,"velocity":0.33070866141732286,"duration":2.956250000000068},{"name":"D#4","midi":63,"time":195.00000000000276,"velocity":0.5984251968503937,"duration":1.0625000000000284},{"name":"A#4","midi":70,"time":195.00000000000276,"velocity":0.6614173228346457,"duration":1.1640625000000284},{"name":"C4","midi":60,"time":195.00000000000276,"velocity":0.5669291338582677,"duration":0.5796875000000057},{"name":"G4","midi":67,"time":195.00000000000276,"velocity":0.5826771653543307,"duration":2.9953125000000966},{"name":"D#4","midi":63,"time":195.00000000000276,"velocity":0.5669291338582677,"duration":1.251562500000034},{"name":"C4","midi":60,"time":195.74843750000278,"velocity":0.3779527559055118,"duration":0.2874999999999943},{"name":"A#4","midi":70,"time":195.75000000000279,"velocity":0.6614173228346457,"duration":0.9078125000000057},{"name":"D#4","midi":63,"time":195.75000000000279,"velocity":0.33070866141732286,"duration":0.9171875000000114},{"name":"D#4","midi":63,"time":196.12500000000279,"velocity":0.18110236220472442,"duration":0.6765624999999886},{"name":"C4","midi":60,"time":196.12500000000279,"velocity":0.18110236220472442,"duration":0.07343750000001137},{"name":"A#4","midi":70,"time":196.31093750000278,"velocity":0.6141732283464567,"duration":0.4312500000000057},{"name":"C4","midi":60,"time":196.31093750000278,"velocity":0.5196850393700787,"duration":0.34687500000001137},{"name":"D#4","midi":63,"time":196.31250000000279,"velocity":0.5354330708661418,"duration":1.6171875000000284},{"name":"C4","midi":60,"time":196.68750000000279,"velocity":0.5039370078740157,"duration":0.11406249999998863},{"name":"D#4","midi":63,"time":196.68750000000279,"velocity":0.5039370078740157,"duration":1.2875000000000512},{"name":"A#4","midi":70,"time":196.68750000000279,"velocity":0.25984251968503935,"duration":0.7187499999999716},{"name":"D#4","midi":63,"time":196.87031250000277,"velocity":0.5984251968503937,"duration":1.1234375000000796},{"name":"A#4","midi":70,"time":196.87500000000276,"velocity":0.6614173228346457,"duration":0.9953125000000398},{"name":"C4","midi":60,"time":196.87500000000276,"velocity":0.5826771653543307,"duration":0.5421875000000114},{"name":"C5","midi":72,"time":197.25000000000276,"velocity":0.8031496062992126,"duration":0.21250000000000568},{"name":"D5","midi":74,"time":197.43750000000276,"velocity":0.8031496062992126,"duration":0.35625000000001705},{"name":"A#4","midi":70,"time":197.43750000000276,"velocity":0.6141732283464567,"duration":0.5625000000000853},{"name":"C4","midi":60,"time":197.43750000000276,"velocity":0.36220472440944884,"duration":0.4500000000000455},{"name":"D#5","midi":75,"time":197.81250000000279,"velocity":0.8503937007874016,"duration":0.5281250000000739},{"name":"G#2","midi":44,"time":197.98281250000284,"velocity":0.5196850393700787,"duration":1.267187500000091},{"name":"G#2","midi":44,"time":198.00000000000284,"velocity":0.44881889763779526,"duration":1.2609375000000966},{"name":"D#4","midi":63,"time":198.00000000000284,"velocity":0.33070866141732286,"duration":0.9375000000000284},{"name":"G#3","midi":56,"time":198.00000000000284,"velocity":0.3464566929133858,"duration":1.2015625000000512},{"name":"G#2","midi":44,"time":198.00000000000284,"velocity":0.4645669291338583,"duration":1.303125000000108},{"name":"C4","midi":60,"time":198.00000000000284,"velocity":0.5511811023622047,"duration":0.9296875000000284},{"name":"D#4","midi":63,"time":198.00000000000284,"velocity":0.5826771653543307,"duration":1.2140625000000682},{"name":"G#3","midi":56,"time":198.00000000000284,"velocity":0.5511811023622047,"duration":1.365625000000108},{"name":"A#4","midi":70,"time":198.00000000000284,"velocity":0.4645669291338583,"duration":0.9468750000000341},{"name":"D#4","midi":63,"time":198.00000000000284,"velocity":0.4645669291338583,"duration":1.271875000000108},{"name":"C4","midi":60,"time":198.00000000000284,"velocity":0.36220472440944884,"duration":1.2250000000000796},{"name":"G#3","midi":56,"time":198.00937500000285,"velocity":0.4330708661417323,"duration":1.473437500000074},{"name":"C4","midi":60,"time":198.02500000000285,"velocity":0.48031496062992124,"duration":1.2468750000001023},{"name":"D#3","midi":51,"time":198.03750000000284,"velocity":0.5511811023622047,"duration":1.3718750000001307},{"name":"D#4","midi":63,"time":198.04062500000285,"velocity":0.5826771653543307,"duration":1.3484375000001307},{"name":"G5","midi":79,"time":198.37500000000287,"velocity":0.8267716535433071,"duration":0.4046874999999943},{"name":"F5","midi":77,"time":198.75000000000287,"velocity":0.7086614173228346,"duration":0.3031249999999943},{"name":"F5","midi":77,"time":199.12500000000287,"velocity":0.8267716535433071,"duration":0.6500000000000625},{"name":"A#4","midi":70,"time":199.12500000000287,"velocity":0.4251968503937008,"duration":0.11562500000005116},{"name":"C4","midi":60,"time":199.12500000000287,"velocity":0.2677165354330709,"duration":0.25000000000008527},{"name":"D#4","midi":63,"time":199.12500000000287,"velocity":0.29133858267716534,"duration":0.32812500000005684},{"name":"A#2","midi":46,"time":199.43281250000294,"velocity":0.48031496062992124,"duration":1.4812499999999886},{"name":"A#3","midi":58,"time":199.4718750000029,"velocity":0.4330708661417323,"duration":1.4406250000000114},{"name":"F3","midi":53,"time":199.49687500000292,"velocity":0.6456692913385826,"duration":1.410937500000017},{"name":"A#2","midi":46,"time":199.50000000000293,"velocity":0.5354330708661418,"duration":1.421875},{"name":"A#3","midi":58,"time":199.50000000000293,"velocity":0.3937007874015748,"duration":1.4390625000000057},{"name":"F4","midi":65,"time":199.50000000000293,"velocity":0.3779527559055118,"duration":1.4171875000000114},{"name":"A#2","midi":46,"time":199.50000000000293,"velocity":0.3858267716535433,"duration":1.4921875000000284},{"name":"D4","midi":62,"time":199.50000000000293,"velocity":0.5039370078740157,"duration":1.4406250000000114},{"name":"A#3","midi":58,"time":199.50000000000293,"velocity":0.5984251968503937,"duration":1.4593750000000227},{"name":"F4","midi":65,"time":199.50000000000293,"velocity":0.5039370078740157,"duration":1.4375},{"name":"F4","midi":65,"time":199.50156250000293,"velocity":0.6456692913385826,"duration":1.4390625000000057},{"name":"D4","midi":62,"time":199.50781250000293,"velocity":0.6456692913385826,"duration":1.434375000000017},{"name":"D5","midi":74,"time":199.87500000000293,"velocity":0.7559055118110236,"duration":0.41718750000001137},{"name":"D#5","midi":75,"time":200.62500000000293,"velocity":0.7086614173228346,"duration":0.7421875000000284},{"name":"D#3","midi":51,"time":200.92500000000294,"velocity":0.29133858267716534,"duration":3.082812500000017},{"name":"A#3","midi":58,"time":200.93281250000294,"velocity":0.5039370078740157,"duration":3.0921874999999943},{"name":"D#2","midi":39,"time":200.94218750000294,"velocity":0.4881889763779528,"duration":3.1171874999999716},{"name":"G3","midi":55,"time":200.95156250000295,"velocity":0.25984251968503935,"duration":3.0609374999999943},{"name":"D#3","midi":51,"time":200.96093750000296,"velocity":0.30708661417322836,"duration":3.065624999999983},{"name":"D#3","midi":51,"time":200.96562500000294,"velocity":0.5039370078740157,"duration":3.240624999999966},{"name":"G3","midi":55,"time":200.97187500000294,"velocity":0.3937007874015748,"duration":3.078125},{"name":"D#4","midi":63,"time":200.97968750000294,"velocity":0.4566929133858268,"duration":3.0578125000000114},{"name":"D#4","midi":63,"time":200.98125000000294,"velocity":0.3464566929133858,"duration":3.073437499999983},{"name":"G3","midi":55,"time":200.98593750000293,"velocity":0.5196850393700787,"duration":3.2343749999999716},{"name":"A#3","midi":58,"time":200.98906250000294,"velocity":0.5039370078740157,"duration":3.0703124999999716},{"name":"D#1","midi":27,"time":201.00000000000296,"velocity":0.4015748031496063,"duration":3.071874999999949},{"name":"G3","midi":55,"time":201.00000000000296,"velocity":0.2755905511811024,"duration":3.248437499999966},{"name":"D#4","midi":63,"time":201.00000000000296,"velocity":0.25196850393700787,"duration":3.19218749999996},{"name":"C#3","midi":49,"time":201.00000000000296,"velocity":0.23622047244094488,"duration":0.44062500000001137},{"name":"C2","midi":36,"time":201.00000000000296,"velocity":0.25984251968503935,"duration":0.4453125},{"name":"D#2","midi":39,"time":201.00000000000296,"velocity":0.5669291338582677,"duration":3.24687499999996},{"name":"G4","midi":67,"time":201.01718750000296,"velocity":0.5984251968503937,"duration":2.9999999999999716},{"name":"D#4","midi":63,"time":201.02343750000296,"velocity":0.5984251968503937,"duration":3.2218749999999545}],"controlChanges":[{"number":1,"time":1.2609375000000007,"value":0,"command":"1"},{"number":1,"time":1.2656250000000007,"value":0,"command":"1"},{"number":1,"time":1.2687500000000007,"value":0,"command":"1"},{"number":1,"time":1.2687500000000007,"value":0,"command":"1"},{"number":1,"time":1.2765625000000007,"value":0,"command":"1"},{"number":1,"time":1.2812500000000007,"value":0,"command":"1"},{"number":1,"time":1.2890625000000007,"value":0,"command":"1"},{"number":1,"time":1.2921875000000007,"value":0,"command":"1"},{"number":1,"time":1.2968750000000007,"value":0,"command":"1"},{"number":1,"time":1.3000000000000007,"value":0,"command":"1"},{"number":1,"time":1.3046875000000007,"value":0,"command":"1"},{"number":1,"time":1.3078125000000007,"value":0,"command":"1"},{"number":1,"time":1.3078125000000007,"value":0,"command":"1"},{"number":1,"time":6.6390625,"value":0.05511811023622047,"command":"1"},{"number":1,"time":6.6390625,"value":0.05511811023622047,"command":"1"},{"number":1,"time":6.871875,"value":0.11811023622047244,"command":"1"},{"number":1,"time":6.871875,"value":0.11811023622047244,"command":"1"},{"number":1,"time":7.071875,"value":0.1732283464566929,"command":"1"},{"number":1,"time":7.071875,"value":0.1732283464566929,"command":"1"},{"number":1,"time":7.535937500000001,"value":0.11023622047244094,"command":"1"},{"number":1,"time":7.535937500000001,"value":0.11023622047244094,"command":"1"},{"number":1,"time":7.570312500000001,"value":0.023622047244094488,"command":"1"},{"number":1,"time":7.570312500000001,"value":0.023622047244094488,"command":"1"},{"number":1,"time":7.585937500000001,"value":0,"command":"1"},{"number":1,"time":7.585937500000001,"value":0,"command":"1"},{"number":1,"time":12.570312500000007,"value":0.007874015748031496,"command":"1"},{"number":1,"time":12.570312500000007,"value":0.007874015748031496,"command":"1"},{"number":1,"time":12.620312500000006,"value":0.07874015748031496,"command":"1"},{"number":1,"time":12.620312500000006,"value":0.07874015748031496,"command":"1"},{"number":1,"time":12.720312500000004,"value":0.13385826771653545,"command":"1"},{"number":1,"time":12.720312500000004,"value":0.13385826771653545,"command":"1"},{"number":1,"time":13.168750000000003,"value":0.1968503937007874,"command":"1"},{"number":1,"time":13.168750000000003,"value":0.1968503937007874,"command":"1"},{"number":1,"time":13.350000000000003,"value":0.14173228346456693,"command":"1"},{"number":1,"time":13.350000000000003,"value":0.14173228346456693,"command":"1"},{"number":1,"time":13.384375000000004,"value":0.07874015748031496,"command":"1"},{"number":1,"time":13.384375000000004,"value":0.07874015748031496,"command":"1"},{"number":1,"time":13.434375000000005,"value":0,"command":"1"},{"number":1,"time":13.434375000000005,"value":0,"command":"1"},{"number":1,"time":14.54218750000001,"value":0.05511811023622047,"command":"1"},{"number":1,"time":14.54218750000001,"value":0.05511811023622047,"command":"1"},{"number":1,"time":14.642187500000011,"value":0,"command":"1"},{"number":1,"time":14.642187500000011,"value":0,"command":"1"},{"number":1,"time":16.00312500000001,"value":0.023622047244094488,"command":"1"},{"number":1,"time":16.00312500000001,"value":0.023622047244094488,"command":"1"},{"number":1,"time":16.601562500000007,"value":0,"command":"1"},{"number":1,"time":16.601562500000007,"value":0,"command":"1"},{"number":1,"time":18.6390625,"value":0.05511811023622047,"command":"1"},{"number":1,"time":18.6390625,"value":0.05511811023622047,"command":"1"},{"number":1,"time":18.871875,"value":0.11811023622047244,"command":"1"},{"number":1,"time":18.871875,"value":0.11811023622047244,"command":"1"},{"number":1,"time":19.071875000000002,"value":0.1732283464566929,"command":"1"},{"number":1,"time":19.071875000000002,"value":0.1732283464566929,"command":"1"},{"number":1,"time":19.53593750000001,"value":0.11023622047244094,"command":"1"},{"number":1,"time":19.53593750000001,"value":0.11023622047244094,"command":"1"},{"number":1,"time":19.57031250000001,"value":0.023622047244094488,"command":"1"},{"number":1,"time":19.57031250000001,"value":0.023622047244094488,"command":"1"},{"number":1,"time":19.58593750000001,"value":0,"command":"1"},{"number":1,"time":19.58593750000001,"value":0,"command":"1"},{"number":1,"time":24.570312499999975,"value":0.007874015748031496,"command":"1"},{"number":1,"time":24.570312499999975,"value":0.007874015748031496,"command":"1"},{"number":1,"time":24.620312499999976,"value":0.07874015748031496,"command":"1"},{"number":1,"time":24.620312499999976,"value":0.07874015748031496,"command":"1"},{"number":1,"time":24.720312499999974,"value":0.13385826771653545,"command":"1"},{"number":1,"time":24.720312499999974,"value":0.13385826771653545,"command":"1"},{"number":1,"time":25.16874999999997,"value":0.1968503937007874,"command":"1"},{"number":1,"time":25.16874999999997,"value":0.1968503937007874,"command":"1"},{"number":1,"time":25.349999999999973,"value":0.14173228346456693,"command":"1"},{"number":1,"time":25.349999999999973,"value":0.14173228346456693,"command":"1"},{"number":1,"time":25.384374999999974,"value":0.07874015748031496,"command":"1"},{"number":1,"time":25.384374999999974,"value":0.07874015748031496,"command":"1"},{"number":1,"time":25.434374999999974,"value":0,"command":"1"},{"number":1,"time":25.434374999999974,"value":0,"command":"1"},{"number":1,"time":26.54218749999997,"value":0.05511811023622047,"command":"1"},{"number":1,"time":26.54218749999997,"value":0.05511811023622047,"command":"1"},{"number":1,"time":26.642187499999967,"value":0,"command":"1"},{"number":1,"time":26.642187499999967,"value":0,"command":"1"},{"number":1,"time":28.003124999999965,"value":0.023622047244094488,"command":"1"},{"number":1,"time":28.003124999999965,"value":0.023622047244094488,"command":"1"},{"number":1,"time":28.60156249999996,"value":0,"command":"1"},{"number":1,"time":28.60156249999996,"value":0,"command":"1"},{"number":1,"time":85.81250000000013,"value":0.06299212598425197,"command":"1"},{"number":1,"time":85.84687500000013,"value":0.14960629921259844,"command":"1"},{"number":1,"time":85.88125000000012,"value":0.2047244094488189,"command":"1"},{"number":1,"time":85.91718750000013,"value":0.12598425196850394,"command":"1"},{"number":1,"time":85.93281250000013,"value":0,"command":"1"},{"number":1,"time":86.35468750000013,"value":0.015748031496062992,"command":"1"},{"number":1,"time":86.37187500000012,"value":0.08661417322834646,"command":"1"},{"number":1,"time":86.48750000000013,"value":0.15748031496062992,"command":"1"},{"number":1,"time":86.52187500000014,"value":0.2755905511811024,"command":"1"},{"number":1,"time":86.53906250000014,"value":0.3464566929133858,"command":"1"},{"number":1,"time":86.57187500000015,"value":0.4015748031496063,"command":"1"},{"number":1,"time":86.72343750000014,"value":0.48031496062992124,"command":"1"},{"number":1,"time":86.75781250000014,"value":0.5433070866141733,"command":"1"},{"number":1,"time":86.82500000000014,"value":0.5984251968503937,"command":"1"},{"number":1,"time":87.09375000000014,"value":0.4881889763779528,"command":"1"},{"number":1,"time":87.22812500000013,"value":0.4251968503937008,"command":"1"},{"number":1,"time":87.27968750000014,"value":0.33070866141732286,"command":"1"},{"number":1,"time":87.29687500000013,"value":0.25196850393700787,"command":"1"},{"number":1,"time":87.31250000000013,"value":0.1732283464566929,"command":"1"},{"number":1,"time":87.32968750000013,"value":0.07086614173228346,"command":"1"},{"number":1,"time":87.34687500000014,"value":0,"command":"1"},{"number":1,"time":89.14062500000016,"value":0.03937007874015748,"command":"1"},{"number":1,"time":89.17500000000015,"value":0.08661417322834646,"command":"1"},{"number":1,"time":89.24062500000016,"value":0.14173228346456693,"command":"1"},{"number":1,"time":89.42656250000016,"value":0.2047244094488189,"command":"1"},{"number":1,"time":89.45937500000015,"value":0.25984251968503935,"command":"1"},{"number":1,"time":89.51093750000015,"value":0.3228346456692913,"command":"1"},{"number":1,"time":89.71250000000016,"value":0.3858267716535433,"command":"1"},{"number":1,"time":89.99843750000016,"value":0.4409448818897638,"command":"1"},{"number":1,"time":90.16562500000018,"value":0.3858267716535433,"command":"1"},{"number":1,"time":90.30000000000017,"value":0.25196850393700787,"command":"1"},{"number":1,"time":90.31718750000017,"value":0.14173228346456693,"command":"1"},{"number":1,"time":90.33437500000018,"value":0,"command":"1"},{"number":1,"time":92.1906250000002,"value":0.031496062992125984,"command":"1"},{"number":1,"time":92.1906250000002,"value":0.031496062992125984,"command":"1"},{"number":1,"time":92.2250000000002,"value":0.08661417322834646,"command":"1"},{"number":1,"time":92.2250000000002,"value":0.08661417322834646,"command":"1"},{"number":1,"time":92.2750000000002,"value":0.14173228346456693,"command":"1"},{"number":1,"time":92.2750000000002,"value":0.14173228346456693,"command":"1"},{"number":1,"time":92.3406250000002,"value":0.2283464566929134,"command":"1"},{"number":1,"time":92.3406250000002,"value":0.2283464566929134,"command":"1"},{"number":1,"time":92.49375000000019,"value":0.28346456692913385,"command":"1"},{"number":1,"time":92.49375000000019,"value":0.28346456692913385,"command":"1"},{"number":1,"time":92.92968750000021,"value":0.2047244094488189,"command":"1"},{"number":1,"time":92.92968750000021,"value":0.2047244094488189,"command":"1"},{"number":1,"time":92.9812500000002,"value":0.14173228346456693,"command":"1"},{"number":1,"time":92.9812500000002,"value":0.14173228346456693,"command":"1"},{"number":1,"time":93.0140625000002,"value":0.08661417322834646,"command":"1"},{"number":1,"time":93.04687500000018,"value":0,"command":"1"},{"number":6,"time":0.5640625,"value":0.047244094488188976,"command":"6"},{"number":11,"time":1.1828125000000007,"value":1,"command":"11"},{"number":11,"time":1.1875000000000007,"value":1,"command":"11"},{"number":11,"time":1.1906250000000007,"value":1,"command":"11"},{"number":11,"time":1.1906250000000007,"value":1,"command":"11"},{"number":11,"time":1.1984375000000007,"value":1,"command":"11"},{"number":11,"time":1.2031250000000007,"value":1,"command":"11"},{"number":11,"time":1.2109375000000007,"value":1,"command":"11"},{"number":11,"time":1.2140625000000007,"value":1,"command":"11"},{"number":11,"time":1.2187500000000007,"value":1,"command":"11"},{"number":11,"time":1.2218750000000007,"value":1,"command":"11"},{"number":11,"time":1.2265625000000007,"value":1,"command":"11"},{"number":11,"time":1.2296875000000007,"value":1,"command":"11"},{"number":11,"time":1.2296875000000007,"value":1,"command":"11"},{"number":11,"time":92.3453125000002,"value":0.968503937007874,"command":"11"},{"number":11,"time":92.4046875000002,"value":0.9606299212598425,"command":"11"},{"number":11,"time":92.4640625000002,"value":0.952755905511811,"command":"11"},{"number":11,"time":92.51093750000018,"value":0.9448818897637795,"command":"11"},{"number":11,"time":92.57031250000018,"value":0.937007874015748,"command":"11"},{"number":11,"time":92.61875000000019,"value":0.9291338582677166,"command":"11"},{"number":11,"time":92.67812500000018,"value":0.9212598425196851,"command":"11"},{"number":11,"time":92.72500000000018,"value":0.9133858267716536,"command":"11"},{"number":11,"time":92.78593750000022,"value":0.905511811023622,"command":"11"},{"number":11,"time":92.83281250000022,"value":0.8976377952755905,"command":"11"},{"number":11,"time":92.89218750000022,"value":0.889763779527559,"command":"11"},{"number":11,"time":92.95156250000021,"value":0.8818897637795275,"command":"11"},{"number":11,"time":93.0000000000002,"value":0.8740157480314961,"command":"11"},{"number":11,"time":93.05937500000019,"value":0.8661417322834646,"command":"11"},{"number":11,"time":93.10625000000019,"value":0.8582677165354331,"command":"11"},{"number":11,"time":93.16562500000022,"value":0.8503937007874016,"command":"11"},{"number":11,"time":93.21406250000022,"value":0.84251968503937,"command":"11"},{"number":11,"time":93.27343750000023,"value":0.8346456692913385,"command":"11"},{"number":11,"time":93.32031250000023,"value":0.8267716535433071,"command":"11"},{"number":11,"time":93.37968750000023,"value":0.8188976377952756,"command":"11"},{"number":11,"time":93.42812500000024,"value":0.8110236220472441,"command":"11"},{"number":11,"time":93.48750000000025,"value":0.8031496062992126,"command":"11"},{"number":11,"time":93.54687500000024,"value":0.7952755905511811,"command":"11"},{"number":11,"time":93.59531250000025,"value":0.7874015748031497,"command":"11"},{"number":11,"time":93.65468750000025,"value":0.7795275590551181,"command":"11"},{"number":11,"time":93.70156250000025,"value":0.7716535433070866,"command":"11"},{"number":11,"time":93.76093750000025,"value":0.7637795275590551,"command":"11"},{"number":11,"time":93.80937500000026,"value":0.7559055118110236,"command":"11"},{"number":11,"time":93.86875000000026,"value":0.7480314960629921,"command":"11"},{"number":11,"time":93.91562500000026,"value":0.7401574803149606,"command":"11"},{"number":11,"time":93.97500000000028,"value":0.7322834645669292,"command":"11"},{"number":11,"time":94.03593750000029,"value":0.7244094488188977,"command":"11"},{"number":11,"time":94.08281250000029,"value":0.7165354330708661,"command":"11"},{"number":11,"time":94.1421875000003,"value":0.7086614173228346,"command":"11"},{"number":11,"time":94.19062500000031,"value":0.7007874015748031,"command":"11"},{"number":11,"time":94.2500000000003,"value":0.6929133858267716,"command":"11"},{"number":11,"time":94.29687500000031,"value":0.6850393700787402,"command":"11"},{"number":11,"time":94.35625000000032,"value":0.6771653543307087,"command":"11"},{"number":11,"time":94.4046875000003,"value":0.6692913385826772,"command":"11"},{"number":11,"time":94.46406250000032,"value":0.6614173228346457,"command":"11"},{"number":11,"time":94.51093750000032,"value":0.6535433070866141,"command":"11"},{"number":11,"time":94.57031250000031,"value":0.6456692913385826,"command":"11"},{"number":11,"time":94.6296875000003,"value":0.6377952755905512,"command":"11"},{"number":11,"time":94.6781250000003,"value":0.6299212598425197,"command":"11"},{"number":11,"time":94.73750000000031,"value":0.6220472440944882,"command":"11"},{"number":11,"time":94.7859375000003,"value":0.6141732283464567,"command":"11"},{"number":11,"time":94.8453125000003,"value":0.6062992125984252,"command":"11"},{"number":11,"time":94.8921875000003,"value":0.5984251968503937,"command":"11"},{"number":11,"time":94.9515625000003,"value":0.5905511811023622,"command":"11"},{"number":11,"time":95.0000000000003,"value":0.5826771653543307,"command":"11"},{"number":11,"time":95.0593750000003,"value":0.5748031496062992,"command":"11"},{"number":11,"time":95.11875000000029,"value":0.5669291338582677,"command":"11"},{"number":11,"time":95.16562500000029,"value":0.5590551181102362,"command":"11"},{"number":11,"time":95.22500000000029,"value":0.5511811023622047,"command":"11"},{"number":11,"time":95.2734375000003,"value":0.5433070866141733,"command":"11"},{"number":11,"time":95.3328125000003,"value":0.5354330708661418,"command":"11"},{"number":11,"time":95.3796875000003,"value":0.5275590551181102,"command":"11"},{"number":11,"time":95.4406250000003,"value":0.5196850393700787,"command":"11"},{"number":11,"time":95.4875000000003,"value":0.5118110236220472,"command":"11"},{"number":11,"time":95.5468750000003,"value":0.5039370078740157,"command":"11"},{"number":11,"time":95.5953125000003,"value":0.49606299212598426,"command":"11"},{"number":11,"time":95.65468750000029,"value":0.4881889763779528,"command":"11"},{"number":11,"time":95.71406250000028,"value":0.48031496062992124,"command":"11"},{"number":11,"time":95.76093750000028,"value":0.47244094488188976,"command":"11"},{"number":11,"time":95.82031250000028,"value":0.4645669291338583,"command":"11"},{"number":11,"time":95.86875000000029,"value":0.4566929133858268,"command":"11"},{"number":11,"time":95.92812500000029,"value":0.44881889763779526,"command":"11"},{"number":11,"time":95.97500000000029,"value":0.4409448818897638,"command":"11"},{"number":11,"time":96.0359375000003,"value":0.4330708661417323,"command":"11"},{"number":11,"time":96.0828125000003,"value":0.4251968503937008,"command":"11"},{"number":11,"time":96.1421875000003,"value":0.41732283464566927,"command":"11"},{"number":11,"time":96.20156250000029,"value":0.4094488188976378,"command":"11"},{"number":11,"time":96.2500000000003,"value":0.4015748031496063,"command":"11"},{"number":11,"time":96.30937500000029,"value":0.3937007874015748,"command":"11"},{"number":11,"time":96.35625000000029,"value":0.3858267716535433,"command":"11"},{"number":11,"time":96.41562500000028,"value":0.3779527559055118,"command":"11"},{"number":11,"time":96.4640625000003,"value":0.3700787401574803,"command":"11"},{"number":11,"time":96.5234375000003,"value":0.36220472440944884,"command":"11"},{"number":11,"time":96.5703125000003,"value":0.3543307086614173,"command":"11"},{"number":11,"time":96.6296875000003,"value":0.3464566929133858,"command":"11"},{"number":11,"time":96.6781250000003,"value":0.33858267716535434,"command":"11"},{"number":11,"time":97.27031250000029,"value":0.9921259842519685,"command":"11"},{"number":11,"time":101.0250000000003,"value":0.984251968503937,"command":"11"},{"number":11,"time":101.0437500000003,"value":0.9763779527559056,"command":"11"},{"number":11,"time":101.0625000000003,"value":0.968503937007874,"command":"11"},{"number":11,"time":101.0812500000003,"value":0.9606299212598425,"command":"11"},{"number":11,"time":101.10000000000029,"value":0.952755905511811,"command":"11"},{"number":11,"time":101.11875000000029,"value":0.9448818897637795,"command":"11"},{"number":11,"time":101.1375000000003,"value":0.937007874015748,"command":"11"},{"number":11,"time":101.1562500000003,"value":0.9291338582677166,"command":"11"},{"number":11,"time":101.1750000000003,"value":0.9212598425196851,"command":"11"},{"number":11,"time":101.19375000000029,"value":0.9133858267716536,"command":"11"},{"number":11,"time":101.21250000000029,"value":0.905511811023622,"command":"11"},{"number":11,"time":101.23125000000029,"value":0.8976377952755905,"command":"11"},{"number":11,"time":101.25000000000028,"value":0.889763779527559,"command":"11"},{"number":11,"time":101.26875000000028,"value":0.8818897637795275,"command":"11"},{"number":11,"time":101.28750000000028,"value":0.8740157480314961,"command":"11"},{"number":11,"time":101.30625000000028,"value":0.8661417322834646,"command":"11"},{"number":11,"time":101.32500000000027,"value":0.8582677165354331,"command":"11"},{"number":11,"time":101.34375000000027,"value":0.8503937007874016,"command":"11"},{"number":11,"time":101.36250000000027,"value":0.84251968503937,"command":"11"},{"number":11,"time":101.38125000000026,"value":0.8346456692913385,"command":"11"},{"number":11,"time":101.40000000000026,"value":0.8267716535433071,"command":"11"},{"number":11,"time":101.41875000000026,"value":0.8188976377952756,"command":"11"},{"number":11,"time":101.43750000000026,"value":0.8110236220472441,"command":"11"},{"number":11,"time":101.45625000000025,"value":0.8031496062992126,"command":"11"},{"number":11,"time":101.47500000000025,"value":0.7952755905511811,"command":"11"},{"number":11,"time":101.49375000000025,"value":0.7874015748031497,"command":"11"},{"number":11,"time":101.51250000000026,"value":0.7716535433070866,"command":"11"},{"number":11,"time":101.53125000000026,"value":0.7637795275590551,"command":"11"},{"number":11,"time":101.55000000000025,"value":0.7559055118110236,"command":"11"},{"number":11,"time":101.56875000000025,"value":0.7480314960629921,"command":"11"},{"number":11,"time":101.58750000000025,"value":0.7401574803149606,"command":"11"},{"number":11,"time":101.60625000000024,"value":0.7322834645669292,"command":"11"},{"number":11,"time":101.62500000000024,"value":0.7244094488188977,"command":"11"},{"number":11,"time":101.64375000000024,"value":0.7165354330708661,"command":"11"},{"number":11,"time":101.66250000000024,"value":0.7086614173228346,"command":"11"},{"number":11,"time":101.68125000000023,"value":0.7007874015748031,"command":"11"},{"number":11,"time":101.70000000000023,"value":0.6929133858267716,"command":"11"},{"number":11,"time":101.71875000000023,"value":0.6850393700787402,"command":"11"},{"number":11,"time":101.73750000000024,"value":0.6771653543307087,"command":"11"},{"number":11,"time":101.75625000000025,"value":0.6692913385826772,"command":"11"},{"number":11,"time":101.77500000000026,"value":0.6614173228346457,"command":"11"},{"number":11,"time":101.79375000000026,"value":0.6535433070866141,"command":"11"},{"number":11,"time":101.81250000000026,"value":0.6456692913385826,"command":"11"},{"number":11,"time":101.83125000000025,"value":0.6377952755905512,"command":"11"},{"number":11,"time":101.85000000000025,"value":0.6299212598425197,"command":"11"},{"number":11,"time":101.86875000000025,"value":0.6220472440944882,"command":"11"},{"number":11,"time":101.88750000000024,"value":0.6141732283464567,"command":"11"},{"number":11,"time":101.90625000000024,"value":0.6062992125984252,"command":"11"},{"number":11,"time":101.92500000000024,"value":0.5984251968503937,"command":"11"},{"number":11,"time":101.94375000000024,"value":0.5905511811023622,"command":"11"},{"number":11,"time":101.96250000000023,"value":0.5826771653543307,"command":"11"},{"number":11,"time":101.98125000000023,"value":0.5748031496062992,"command":"11"},{"number":11,"time":102.00000000000023,"value":0.5590551181102362,"command":"11"},{"number":11,"time":102.01875000000022,"value":0.5511811023622047,"command":"11"},{"number":11,"time":102.03750000000022,"value":0.5433070866141733,"command":"11"},{"number":11,"time":102.05625000000022,"value":0.5354330708661418,"command":"11"},{"number":11,"time":102.07500000000022,"value":0.5275590551181102,"command":"11"},{"number":11,"time":102.09375000000021,"value":0.5196850393700787,"command":"11"},{"number":11,"time":102.11250000000022,"value":0.5118110236220472,"command":"11"},{"number":11,"time":102.13125000000022,"value":0.5039370078740157,"command":"11"},{"number":11,"time":102.15000000000022,"value":0.49606299212598426,"command":"11"},{"number":11,"time":102.16875000000022,"value":0.4881889763779528,"command":"11"},{"number":11,"time":102.18750000000021,"value":0.48031496062992124,"command":"11"},{"number":11,"time":102.20625000000021,"value":0.47244094488188976,"command":"11"},{"number":11,"time":102.22500000000021,"value":0.4645669291338583,"command":"11"},{"number":11,"time":102.24375000000022,"value":0.4566929133858268,"command":"11"},{"number":11,"time":102.26250000000022,"value":0.44881889763779526,"command":"11"},{"number":11,"time":102.28125000000021,"value":0.4409448818897638,"command":"11"},{"number":11,"time":102.30000000000021,"value":0.4330708661417323,"command":"11"},{"number":11,"time":102.31875000000021,"value":0.4251968503937008,"command":"11"},{"number":11,"time":102.3375000000002,"value":0.41732283464566927,"command":"11"},{"number":11,"time":102.3562500000002,"value":0.4094488188976378,"command":"11"},{"number":11,"time":102.3750000000002,"value":0.4015748031496063,"command":"11"},{"number":11,"time":102.3937500000002,"value":0.3937007874015748,"command":"11"},{"number":11,"time":102.4125000000002,"value":0.3858267716535433,"command":"11"},{"number":11,"time":102.43125000000019,"value":0.3779527559055118,"command":"11"},{"number":11,"time":102.45000000000019,"value":0.3700787401574803,"command":"11"},{"number":11,"time":102.4687500000002,"value":0.36220472440944884,"command":"11"},{"number":11,"time":102.4875000000002,"value":0.3464566929133858,"command":"11"},{"number":11,"time":102.5062500000002,"value":0.33858267716535434,"command":"11"},{"number":11,"time":102.52500000000019,"value":0.33070866141732286,"command":"11"},{"number":11,"time":102.54375000000019,"value":0.3228346456692913,"command":"11"},{"number":11,"time":102.56250000000018,"value":0.31496062992125984,"command":"11"},{"number":11,"time":102.58125000000018,"value":0.30708661417322836,"command":"11"},{"number":11,"time":102.60000000000018,"value":0.2992125984251969,"command":"11"},{"number":11,"time":102.61875000000018,"value":0.29133858267716534,"command":"11"},{"number":11,"time":102.63750000000017,"value":0.28346456692913385,"command":"11"},{"number":11,"time":102.65625000000018,"value":0.2755905511811024,"command":"11"},{"number":11,"time":102.67500000000018,"value":0.2677165354330709,"command":"11"},{"number":11,"time":102.69375000000018,"value":0.25984251968503935,"command":"11"},{"number":11,"time":102.71250000000018,"value":0.25196850393700787,"command":"11"},{"number":11,"time":102.73125000000017,"value":0.2440944881889764,"command":"11"},{"number":11,"time":102.75000000000017,"value":0.23622047244094488,"command":"11"},{"number":11,"time":102.76875000000018,"value":0.2283464566929134,"command":"11"},{"number":11,"time":102.78750000000018,"value":0.2204724409448819,"command":"11"},{"number":11,"time":102.80625000000018,"value":0.2125984251968504,"command":"11"},{"number":11,"time":102.82500000000017,"value":0.2047244094488189,"command":"11"},{"number":11,"time":102.84375000000017,"value":0.1968503937007874,"command":"11"},{"number":11,"time":102.86250000000017,"value":0.1889763779527559,"command":"11"},{"number":11,"time":102.88125000000016,"value":0.18110236220472442,"command":"11"},{"number":11,"time":102.90000000000016,"value":0.1732283464566929,"command":"11"},{"number":11,"time":102.91875000000016,"value":0.16535433070866143,"command":"11"},{"number":11,"time":102.93750000000017,"value":0.15748031496062992,"command":"11"},{"number":11,"time":102.95625000000017,"value":0.14173228346456693,"command":"11"},{"number":11,"time":103.38750000000019,"value":0.9921259842519685,"command":"11"},{"number":11,"time":103.83750000000019,"value":0.9921259842519685,"command":"11"},{"number":11,"time":103.89375000000018,"value":0.984251968503937,"command":"11"},{"number":11,"time":103.93125000000018,"value":0.9763779527559056,"command":"11"},{"number":11,"time":103.96875000000017,"value":0.968503937007874,"command":"11"},{"number":11,"time":104.00625000000018,"value":0.9606299212598425,"command":"11"},{"number":11,"time":104.04375000000017,"value":0.952755905511811,"command":"11"},{"number":11,"time":104.08125000000017,"value":0.9448818897637795,"command":"11"},{"number":11,"time":104.11875000000016,"value":0.937007874015748,"command":"11"},{"number":11,"time":104.15625000000017,"value":0.9291338582677166,"command":"11"},{"number":11,"time":104.19375000000016,"value":0.9212598425196851,"command":"11"},{"number":11,"time":104.23125000000016,"value":0.9133858267716536,"command":"11"},{"number":11,"time":104.26875000000015,"value":0.905511811023622,"command":"11"},{"number":11,"time":104.30625000000015,"value":0.8976377952755905,"command":"11"},{"number":11,"time":104.34375000000014,"value":0.889763779527559,"command":"11"},{"number":11,"time":104.40000000000015,"value":0.8818897637795275,"command":"11"},{"number":11,"time":104.43750000000014,"value":0.8740157480314961,"command":"11"},{"number":11,"time":104.47500000000014,"value":0.8661417322834646,"command":"11"},{"number":11,"time":104.51250000000013,"value":0.8582677165354331,"command":"11"},{"number":11,"time":104.55000000000013,"value":0.8503937007874016,"command":"11"},{"number":11,"time":104.58750000000012,"value":0.84251968503937,"command":"11"},{"number":11,"time":104.62500000000011,"value":0.8346456692913385,"command":"11"},{"number":11,"time":104.66250000000011,"value":0.8267716535433071,"command":"11"},{"number":11,"time":104.7000000000001,"value":0.8188976377952756,"command":"11"},{"number":11,"time":104.73750000000011,"value":0.8110236220472441,"command":"11"},{"number":11,"time":104.77500000000012,"value":0.8031496062992126,"command":"11"},{"number":11,"time":104.81250000000011,"value":0.7952755905511811,"command":"11"},{"number":11,"time":104.85000000000011,"value":0.7874015748031497,"command":"11"},{"number":11,"time":104.8875000000001,"value":0.7795275590551181,"command":"11"},{"number":11,"time":104.9437500000001,"value":0.7716535433070866,"command":"11"},{"number":11,"time":104.98125000000009,"value":0.7637795275590551,"command":"11"},{"number":11,"time":105.0187500000001,"value":0.7559055118110236,"command":"11"},{"number":11,"time":105.05625000000009,"value":0.7480314960629921,"command":"11"},{"number":11,"time":105.09375000000009,"value":0.7401574803149606,"command":"11"},{"number":11,"time":105.13125000000008,"value":0.7322834645669292,"command":"11"},{"number":11,"time":105.16875000000007,"value":0.7244094488188977,"command":"11"},{"number":11,"time":105.20625000000007,"value":0.7165354330708661,"command":"11"},{"number":11,"time":105.24375000000008,"value":0.7086614173228346,"command":"11"},{"number":11,"time":105.28125000000009,"value":0.7007874015748031,"command":"11"},{"number":11,"time":105.3187500000001,"value":0.6929133858267716,"command":"11"},{"number":11,"time":105.35625000000009,"value":0.6850393700787402,"command":"11"},{"number":11,"time":105.39375000000008,"value":0.6771653543307087,"command":"11"},{"number":11,"time":105.45000000000009,"value":0.6692913385826772,"command":"11"},{"number":11,"time":105.48750000000008,"value":0.6614173228346457,"command":"11"},{"number":11,"time":105.52500000000008,"value":0.6535433070866141,"command":"11"},{"number":11,"time":105.56250000000007,"value":0.6456692913385826,"command":"11"},{"number":11,"time":105.60000000000008,"value":0.6377952755905512,"command":"11"},{"number":11,"time":105.63750000000007,"value":0.6299212598425197,"command":"11"},{"number":11,"time":105.67500000000007,"value":0.6220472440944882,"command":"11"},{"number":11,"time":105.71250000000006,"value":0.6141732283464567,"command":"11"},{"number":11,"time":105.75000000000006,"value":0.6062992125984252,"command":"11"},{"number":11,"time":105.78750000000007,"value":0.5984251968503937,"command":"11"},{"number":11,"time":105.82500000000007,"value":0.5905511811023622,"command":"11"},{"number":11,"time":105.86250000000008,"value":0.5826771653543307,"command":"11"},{"number":11,"time":105.90000000000008,"value":0.5748031496062992,"command":"11"},{"number":11,"time":105.93750000000007,"value":0.5669291338582677,"command":"11"},{"number":11,"time":105.99375000000008,"value":0.5590551181102362,"command":"11"},{"number":11,"time":106.03125000000007,"value":0.5511811023622047,"command":"11"},{"number":11,"time":106.06875000000007,"value":0.5433070866141733,"command":"11"},{"number":11,"time":106.10625000000006,"value":0.5354330708661418,"command":"11"},{"number":11,"time":106.14375000000005,"value":0.5275590551181102,"command":"11"},{"number":11,"time":106.18125000000005,"value":0.5196850393700787,"command":"11"},{"number":11,"time":106.21875000000006,"value":0.5118110236220472,"command":"11"},{"number":11,"time":106.25625000000005,"value":0.5039370078740157,"command":"11"},{"number":11,"time":106.29375000000005,"value":0.49606299212598426,"command":"11"},{"number":11,"time":106.33125000000004,"value":0.4881889763779528,"command":"11"},{"number":11,"time":106.36875000000003,"value":0.48031496062992124,"command":"11"},{"number":11,"time":106.40625000000003,"value":0.47244094488188976,"command":"11"},{"number":11,"time":106.44375000000004,"value":0.4645669291338583,"command":"11"},{"number":11,"time":106.50000000000004,"value":0.4566929133858268,"command":"11"},{"number":11,"time":106.53750000000005,"value":0.44881889763779526,"command":"11"},{"number":11,"time":106.57500000000005,"value":0.4409448818897638,"command":"11"},{"number":11,"time":106.61250000000005,"value":0.4330708661417323,"command":"11"},{"number":11,"time":106.65000000000005,"value":0.4251968503937008,"command":"11"},{"number":11,"time":106.68750000000004,"value":0.41732283464566927,"command":"11"},{"number":11,"time":106.72500000000004,"value":0.4094488188976378,"command":"11"},{"number":11,"time":106.76250000000003,"value":0.4015748031496063,"command":"11"},{"number":11,"time":106.80000000000004,"value":0.3937007874015748,"command":"11"},{"number":11,"time":106.83750000000003,"value":0.3858267716535433,"command":"11"},{"number":11,"time":106.87500000000003,"value":0.3779527559055118,"command":"11"},{"number":11,"time":106.91250000000004,"value":0.3700787401574803,"command":"11"},{"number":11,"time":106.95000000000003,"value":0.36220472440944884,"command":"11"},{"number":11,"time":106.98750000000004,"value":0.3543307086614173,"command":"11"},{"number":11,"time":107.04375000000005,"value":0.3464566929133858,"command":"11"},{"number":11,"time":107.08125000000004,"value":0.33858267716535434,"command":"11"},{"number":11,"time":107.11875000000003,"value":0.33070866141732286,"command":"11"},{"number":11,"time":107.15625000000003,"value":0.3228346456692913,"command":"11"},{"number":11,"time":107.19375000000002,"value":0.31496062992125984,"command":"11"},{"number":11,"time":107.23125000000002,"value":0.30708661417322836,"command":"11"},{"number":11,"time":107.26875000000001,"value":0.2992125984251969,"command":"11"},{"number":11,"time":107.30625,"value":0.29133858267716534,"command":"11"},{"number":11,"time":107.34375,"value":0.28346456692913385,"command":"11"},{"number":11,"time":107.38125000000001,"value":0.2755905511811024,"command":"11"},{"number":11,"time":107.41875,"value":0.2677165354330709,"command":"11"},{"number":11,"time":107.45625,"value":0.25984251968503935,"command":"11"},{"number":11,"time":107.49374999999999,"value":0.25196850393700787,"command":"11"},{"number":11,"time":107.53124999999999,"value":0.2440944881889764,"command":"11"},{"number":11,"time":108.37499999999999,"value":0.9921259842519685,"command":"11"},{"number":11,"time":113.025,"value":0.984251968503937,"command":"11"},{"number":11,"time":113.04375,"value":0.9763779527559056,"command":"11"},{"number":11,"time":113.0625,"value":0.968503937007874,"command":"11"},{"number":11,"time":113.08125,"value":0.9606299212598425,"command":"11"},{"number":11,"time":113.1,"value":0.952755905511811,"command":"11"},{"number":11,"time":113.11874999999999,"value":0.9448818897637795,"command":"11"},{"number":11,"time":113.13749999999999,"value":0.937007874015748,"command":"11"},{"number":11,"time":113.15624999999999,"value":0.9291338582677166,"command":"11"},{"number":11,"time":113.17499999999998,"value":0.9212598425196851,"command":"11"},{"number":11,"time":113.19374999999998,"value":0.9133858267716536,"command":"11"},{"number":11,"time":113.21249999999998,"value":0.905511811023622,"command":"11"},{"number":11,"time":113.23124999999997,"value":0.8976377952755905,"command":"11"},{"number":11,"time":113.24999999999997,"value":0.889763779527559,"command":"11"},{"number":11,"time":113.26874999999998,"value":0.8818897637795275,"command":"11"},{"number":11,"time":113.28749999999998,"value":0.8740157480314961,"command":"11"},{"number":11,"time":113.30624999999998,"value":0.8661417322834646,"command":"11"},{"number":11,"time":113.32499999999997,"value":0.8582677165354331,"command":"11"},{"number":11,"time":113.34374999999999,"value":0.8503937007874016,"command":"11"},{"number":11,"time":113.3625,"value":0.84251968503937,"command":"11"},{"number":11,"time":113.38125,"value":0.8346456692913385,"command":"11"},{"number":11,"time":113.39999999999999,"value":0.8267716535433071,"command":"11"},{"number":11,"time":113.41874999999999,"value":0.8188976377952756,"command":"11"},{"number":11,"time":113.43749999999999,"value":0.8110236220472441,"command":"11"},{"number":11,"time":113.45624999999998,"value":0.8031496062992126,"command":"11"},{"number":11,"time":113.47499999999998,"value":0.7952755905511811,"command":"11"},{"number":11,"time":113.49374999999998,"value":0.7874015748031497,"command":"11"},{"number":11,"time":113.51249999999997,"value":0.7716535433070866,"command":"11"},{"number":11,"time":113.53124999999997,"value":0.7637795275590551,"command":"11"},{"number":11,"time":113.54999999999997,"value":0.7559055118110236,"command":"11"},{"number":11,"time":113.56874999999997,"value":0.7480314960629921,"command":"11"},{"number":11,"time":113.58749999999996,"value":0.7401574803149606,"command":"11"},{"number":11,"time":113.60624999999996,"value":0.7322834645669292,"command":"11"},{"number":11,"time":113.62499999999996,"value":0.7244094488188977,"command":"11"},{"number":11,"time":113.64374999999995,"value":0.7165354330708661,"command":"11"},{"number":11,"time":113.66249999999997,"value":0.7086614173228346,"command":"11"},{"number":11,"time":113.68124999999996,"value":0.7007874015748031,"command":"11"},{"number":11,"time":113.69999999999996,"value":0.6929133858267716,"command":"11"},{"number":11,"time":113.71874999999997,"value":0.6850393700787402,"command":"11"},{"number":11,"time":113.73749999999997,"value":0.6771653543307087,"command":"11"},{"number":11,"time":113.75624999999998,"value":0.6692913385826772,"command":"11"},{"number":11,"time":113.77499999999998,"value":0.6614173228346457,"command":"11"},{"number":11,"time":113.79374999999999,"value":0.6535433070866141,"command":"11"},{"number":11,"time":113.81249999999999,"value":0.6456692913385826,"command":"11"},{"number":11,"time":113.83125,"value":0.6377952755905512,"command":"11"},{"number":11,"time":113.85,"value":0.6299212598425197,"command":"11"},{"number":11,"time":113.86874999999999,"value":0.6220472440944882,"command":"11"},{"number":11,"time":113.88749999999999,"value":0.6141732283464567,"command":"11"},{"number":11,"time":113.90624999999999,"value":0.6062992125984252,"command":"11"},{"number":11,"time":113.925,"value":0.5984251968503937,"command":"11"},{"number":11,"time":113.94375,"value":0.5905511811023622,"command":"11"},{"number":11,"time":113.96249999999999,"value":0.5826771653543307,"command":"11"},{"number":11,"time":113.98124999999999,"value":0.5748031496062992,"command":"11"},{"number":11,"time":113.99999999999999,"value":0.5590551181102362,"command":"11"},{"number":11,"time":114.01874999999998,"value":0.5511811023622047,"command":"11"},{"number":11,"time":114.0375,"value":0.5433070866141733,"command":"11"},{"number":11,"time":114.05624999999999,"value":0.5354330708661418,"command":"11"},{"number":11,"time":114.07499999999999,"value":0.5275590551181102,"command":"11"},{"number":11,"time":114.09375,"value":0.5196850393700787,"command":"11"},{"number":11,"time":114.1125,"value":0.5118110236220472,"command":"11"},{"number":11,"time":114.13125,"value":0.5039370078740157,"command":"11"},{"number":11,"time":114.14999999999999,"value":0.49606299212598426,"command":"11"},{"number":11,"time":114.16874999999999,"value":0.4881889763779528,"command":"11"},{"number":11,"time":114.18749999999999,"value":0.48031496062992124,"command":"11"},{"number":11,"time":114.20624999999998,"value":0.47244094488188976,"command":"11"},{"number":11,"time":114.22499999999998,"value":0.4645669291338583,"command":"11"},{"number":11,"time":114.24374999999999,"value":0.4566929133858268,"command":"11"},{"number":11,"time":114.26249999999999,"value":0.44881889763779526,"command":"11"},{"number":11,"time":114.28124999999999,"value":0.4409448818897638,"command":"11"},{"number":11,"time":114.29999999999998,"value":0.4330708661417323,"command":"11"},{"number":11,"time":114.31874999999998,"value":0.4251968503937008,"command":"11"},{"number":11,"time":114.33749999999998,"value":0.41732283464566927,"command":"11"},{"number":11,"time":114.35624999999997,"value":0.4094488188976378,"command":"11"},{"number":11,"time":114.37499999999997,"value":0.4015748031496063,"command":"11"},{"number":11,"time":114.39374999999997,"value":0.3937007874015748,"command":"11"},{"number":11,"time":114.41249999999997,"value":0.3858267716535433,"command":"11"},{"number":11,"time":114.43124999999996,"value":0.3779527559055118,"command":"11"},{"number":11,"time":114.44999999999996,"value":0.3700787401574803,"command":"11"},{"number":11,"time":114.46874999999996,"value":0.36220472440944884,"command":"11"},{"number":11,"time":114.48749999999995,"value":0.3464566929133858,"command":"11"},{"number":11,"time":114.50624999999995,"value":0.33858267716535434,"command":"11"},{"number":11,"time":114.52499999999996,"value":0.33070866141732286,"command":"11"},{"number":11,"time":114.54374999999996,"value":0.3228346456692913,"command":"11"},{"number":11,"time":114.56249999999996,"value":0.31496062992125984,"command":"11"},{"number":11,"time":114.58124999999995,"value":0.30708661417322836,"command":"11"},{"number":11,"time":114.59999999999997,"value":0.2992125984251969,"command":"11"},{"number":11,"time":114.61874999999996,"value":0.29133858267716534,"command":"11"},{"number":11,"time":114.63749999999996,"value":0.28346456692913385,"command":"11"},{"number":11,"time":114.65624999999996,"value":0.2755905511811024,"command":"11"},{"number":11,"time":114.67499999999997,"value":0.2677165354330709,"command":"11"},{"number":11,"time":114.69374999999997,"value":0.25984251968503935,"command":"11"},{"number":11,"time":114.71249999999996,"value":0.25196850393700787,"command":"11"},{"number":11,"time":114.73124999999997,"value":0.2440944881889764,"command":"11"},{"number":11,"time":114.74999999999997,"value":0.23622047244094488,"command":"11"},{"number":11,"time":114.76874999999997,"value":0.2283464566929134,"command":"11"},{"number":11,"time":114.78749999999997,"value":0.2204724409448819,"command":"11"},{"number":11,"time":114.80624999999996,"value":0.2125984251968504,"command":"11"},{"number":11,"time":114.82499999999996,"value":0.2047244094488189,"command":"11"},{"number":11,"time":114.84374999999996,"value":0.1968503937007874,"command":"11"},{"number":11,"time":114.86249999999997,"value":0.1889763779527559,"command":"11"},{"number":11,"time":114.88124999999997,"value":0.18110236220472442,"command":"11"},{"number":11,"time":114.89999999999996,"value":0.1732283464566929,"command":"11"},{"number":11,"time":114.91874999999996,"value":0.16535433070866143,"command":"11"},{"number":11,"time":114.93749999999996,"value":0.15748031496062992,"command":"11"},{"number":11,"time":114.95624999999995,"value":0.14173228346456693,"command":"11"},{"number":11,"time":115.38749999999996,"value":0.9921259842519685,"command":"11"},{"number":11,"time":161.02187500000136,"value":0.9763779527559056,"command":"11"},{"number":11,"time":161.05000000000135,"value":0.968503937007874,"command":"11"},{"number":11,"time":161.06875000000133,"value":0.9606299212598425,"command":"11"},{"number":11,"time":161.08750000000134,"value":0.952755905511811,"command":"11"},{"number":11,"time":161.11718750000134,"value":0.9448818897637795,"command":"11"},{"number":11,"time":161.13593750000135,"value":0.937007874015748,"command":"11"},{"number":11,"time":161.15468750000136,"value":0.9291338582677166,"command":"11"},{"number":11,"time":161.18281250000135,"value":0.9212598425196851,"command":"11"},{"number":11,"time":161.20156250000133,"value":0.9133858267716536,"command":"11"},{"number":11,"time":161.22031250000134,"value":0.905511811023622,"command":"11"},{"number":11,"time":161.24062500000133,"value":0.8976377952755905,"command":"11"},{"number":11,"time":161.26875000000135,"value":0.889763779527559,"command":"11"},{"number":11,"time":161.28750000000136,"value":0.8818897637795275,"command":"11"},{"number":11,"time":161.30625000000137,"value":0.8740157480314961,"command":"11"},{"number":11,"time":161.3343750000014,"value":0.8661417322834646,"command":"11"},{"number":11,"time":161.3546875000014,"value":0.8582677165354331,"command":"11"},{"number":11,"time":161.37343750000142,"value":0.8503937007874016,"command":"11"},{"number":11,"time":161.40156250000143,"value":0.84251968503937,"command":"11"},{"number":11,"time":161.42031250000144,"value":0.8346456692913385,"command":"11"},{"number":11,"time":161.43906250000146,"value":0.8267716535433071,"command":"11"},{"number":11,"time":161.45781250000147,"value":0.8188976377952756,"command":"11"},{"number":11,"time":161.48750000000143,"value":0.8110236220472441,"command":"11"},{"number":11,"time":161.50625000000144,"value":0.8031496062992126,"command":"11"},{"number":11,"time":161.52500000000146,"value":0.7952755905511811,"command":"11"},{"number":11,"time":161.55312500000147,"value":0.7874015748031497,"command":"11"},{"number":11,"time":161.57187500000146,"value":0.7795275590551181,"command":"11"},{"number":11,"time":161.59062500000147,"value":0.7716535433070866,"command":"11"},{"number":11,"time":161.6203125000015,"value":0.7637795275590551,"command":"11"},{"number":11,"time":161.6390625000015,"value":0.7559055118110236,"command":"11"},{"number":11,"time":161.6578125000015,"value":0.7480314960629921,"command":"11"},{"number":11,"time":161.67656250000152,"value":0.7401574803149606,"command":"11"},{"number":11,"time":161.7046875000015,"value":0.7322834645669292,"command":"11"},{"number":11,"time":161.72343750000152,"value":0.7244094488188977,"command":"11"},{"number":11,"time":161.7437500000015,"value":0.7165354330708661,"command":"11"},{"number":11,"time":161.7718750000015,"value":0.7086614173228346,"command":"11"},{"number":11,"time":161.7906250000015,"value":0.7007874015748031,"command":"11"},{"number":11,"time":161.8093750000015,"value":0.6929133858267716,"command":"11"},{"number":11,"time":161.8375000000015,"value":0.6850393700787402,"command":"11"},{"number":11,"time":161.85781250000153,"value":0.6771653543307087,"command":"11"},{"number":11,"time":161.87656250000154,"value":0.6692913385826772,"command":"11"},{"number":11,"time":161.89531250000155,"value":0.6614173228346457,"command":"11"},{"number":11,"time":161.98125000000158,"value":1,"command":"11"},{"number":11,"time":188.0406250000025,"value":0.9606299212598425,"command":"11"},{"number":11,"time":188.0875000000025,"value":0.952755905511811,"command":"11"},{"number":11,"time":188.1265625000025,"value":0.9448818897637795,"command":"11"},{"number":11,"time":188.16406250000253,"value":0.937007874015748,"command":"11"},{"number":11,"time":188.20156250000252,"value":0.9291338582677166,"command":"11"},{"number":11,"time":188.25000000000253,"value":0.9212598425196851,"command":"11"},{"number":11,"time":188.28750000000252,"value":0.9133858267716536,"command":"11"},{"number":11,"time":188.32500000000252,"value":0.905511811023622,"command":"11"},{"number":11,"time":188.36406250000252,"value":0.8976377952755905,"command":"11"},{"number":11,"time":188.41093750000252,"value":0.889763779527559,"command":"11"},{"number":11,"time":188.44843750000254,"value":0.8818897637795275,"command":"11"},{"number":11,"time":188.48750000000254,"value":0.8740157480314961,"command":"11"},{"number":11,"time":188.52500000000256,"value":0.8661417322834646,"command":"11"},{"number":11,"time":188.57187500000256,"value":0.8582677165354331,"command":"11"},{"number":11,"time":188.61093750000256,"value":0.8503937007874016,"command":"11"},{"number":11,"time":188.64843750000256,"value":0.84251968503937,"command":"11"},{"number":11,"time":188.68593750000255,"value":0.8346456692913385,"command":"11"},{"number":11,"time":188.73437500000256,"value":0.8267716535433071,"command":"11"},{"number":11,"time":188.77187500000255,"value":0.8188976377952756,"command":"11"},{"number":11,"time":188.80937500000255,"value":0.8110236220472441,"command":"11"},{"number":11,"time":188.84687500000257,"value":0.8031496062992126,"command":"11"},{"number":11,"time":188.89531250000258,"value":0.7952755905511811,"command":"11"},{"number":11,"time":188.93281250000257,"value":0.7874015748031497,"command":"11"},{"number":11,"time":188.9703125000026,"value":0.7795275590551181,"command":"11"},{"number":11,"time":189.0093750000026,"value":0.7716535433070866,"command":"11"},{"number":11,"time":189.0468750000026,"value":0.7637795275590551,"command":"11"},{"number":11,"time":189.0937500000026,"value":0.7559055118110236,"command":"11"},{"number":11,"time":189.1328125000026,"value":0.7480314960629921,"command":"11"},{"number":11,"time":189.17031250000258,"value":0.7401574803149606,"command":"11"},{"number":11,"time":189.20781250000258,"value":0.7322834645669292,"command":"11"},{"number":11,"time":189.25625000000258,"value":0.7244094488188977,"command":"11"},{"number":11,"time":189.29375000000258,"value":0.7165354330708661,"command":"11"},{"number":11,"time":189.33125000000257,"value":0.7086614173228346,"command":"11"},{"number":11,"time":189.37031250000257,"value":0.7007874015748031,"command":"11"},{"number":11,"time":189.41718750000257,"value":0.6929133858267716,"command":"11"},{"number":11,"time":189.45468750000254,"value":0.6850393700787402,"command":"11"},{"number":11,"time":189.49375000000256,"value":0.6771653543307087,"command":"11"},{"number":11,"time":189.53125000000256,"value":0.6692913385826772,"command":"11"},{"number":11,"time":189.57812500000256,"value":0.6614173228346457,"command":"11"},{"number":11,"time":189.61718750000256,"value":0.6535433070866141,"command":"11"},{"number":11,"time":189.65468750000255,"value":0.6456692913385826,"command":"11"},{"number":11,"time":189.69218750000255,"value":0.6377952755905512,"command":"11"},{"number":11,"time":189.74062500000258,"value":0.6299212598425197,"command":"11"},{"number":11,"time":189.77812500000258,"value":0.6220472440944882,"command":"11"},{"number":11,"time":189.81562500000257,"value":0.6141732283464567,"command":"11"},{"number":11,"time":189.85468750000257,"value":0.6062992125984252,"command":"11"},{"number":11,"time":189.90156250000257,"value":0.5984251968503937,"command":"11"},{"number":11,"time":189.9390625000026,"value":0.5905511811023622,"command":"11"},{"number":11,"time":189.9781250000026,"value":0.5826771653543307,"command":"11"},{"number":11,"time":190.0156250000026,"value":0.5748031496062992,"command":"11"},{"number":11,"time":190.05312500000258,"value":0.5669291338582677,"command":"11"},{"number":11,"time":190.1015625000026,"value":0.5590551181102362,"command":"11"},{"number":11,"time":190.13906250000258,"value":0.5511811023622047,"command":"11"},{"number":11,"time":190.17656250000258,"value":0.5433070866141733,"command":"11"},{"number":11,"time":190.21406250000257,"value":0.5354330708661418,"command":"11"},{"number":11,"time":190.26250000000255,"value":0.5275590551181102,"command":"11"},{"number":11,"time":190.30000000000254,"value":0.5196850393700787,"command":"11"},{"number":11,"time":190.33750000000254,"value":0.5118110236220472,"command":"11"},{"number":11,"time":190.37656250000254,"value":0.5039370078740157,"command":"11"},{"number":11,"time":190.42343750000254,"value":0.49606299212598426,"command":"11"},{"number":11,"time":190.46093750000253,"value":0.4881889763779528,"command":"11"},{"number":11,"time":190.50000000000256,"value":0.48031496062992124,"command":"11"},{"number":11,"time":190.53750000000255,"value":0.47244094488188976,"command":"11"},{"number":11,"time":190.58437500000255,"value":0.4645669291338583,"command":"11"},{"number":11,"time":190.62343750000255,"value":0.4566929133858268,"command":"11"},{"number":11,"time":190.66093750000255,"value":0.44881889763779526,"command":"11"},{"number":11,"time":190.69843750000257,"value":0.4409448818897638,"command":"11"},{"number":11,"time":190.74687500000255,"value":0.4330708661417323,"command":"11"},{"number":11,"time":190.78437500000254,"value":0.4251968503937008,"command":"11"},{"number":11,"time":190.82187500000254,"value":0.41732283464566927,"command":"11"},{"number":11,"time":190.86093750000254,"value":0.4094488188976378,"command":"11"},{"number":11,"time":190.90781250000254,"value":0.4015748031496063,"command":"11"},{"number":11,"time":190.94531250000253,"value":0.3937007874015748,"command":"11"},{"number":11,"time":190.98437500000253,"value":0.3858267716535433,"command":"11"},{"number":11,"time":191.02187500000255,"value":0.3779527559055118,"command":"11"},{"number":11,"time":191.05937500000258,"value":0.3700787401574803,"command":"11"},{"number":11,"time":191.10781250000258,"value":0.36220472440944884,"command":"11"},{"number":11,"time":191.14531250000258,"value":0.3543307086614173,"command":"11"},{"number":11,"time":191.18281250000257,"value":0.3464566929133858,"command":"11"},{"number":11,"time":191.22031250000256,"value":0.33858267716535434,"command":"11"},{"number":11,"time":191.26875000000257,"value":0.33070866141732286,"command":"11"},{"number":11,"time":191.30625000000256,"value":0.3228346456692913,"command":"11"},{"number":11,"time":191.34375000000256,"value":0.31496062992125984,"command":"11"},{"number":11,"time":191.38281250000256,"value":0.30708661417322836,"command":"11"},{"number":11,"time":191.42968750000256,"value":0.2992125984251969,"command":"11"},{"number":11,"time":191.46718750000258,"value":0.29133858267716534,"command":"11"},{"number":11,"time":191.50625000000258,"value":0.28346456692913385,"command":"11"},{"number":11,"time":191.54375000000258,"value":0.2755905511811024,"command":"11"},{"number":11,"time":191.59062500000258,"value":0.2677165354330709,"command":"11"},{"number":11,"time":191.62968750000258,"value":0.25984251968503935,"command":"11"},{"number":11,"time":191.66718750000257,"value":0.25196850393700787,"command":"11"},{"number":11,"time":191.70468750000256,"value":0.2440944881889764,"command":"11"},{"number":11,"time":191.7531250000026,"value":0.23622047244094488,"command":"11"},{"number":11,"time":191.7906250000026,"value":0.2283464566929134,"command":"11"},{"number":11,"time":191.8281250000026,"value":0.2204724409448819,"command":"11"},{"number":11,"time":191.86718750000261,"value":0.2125984251968504,"command":"11"},{"number":11,"time":191.90468750000264,"value":0.2047244094488189,"command":"11"},{"number":11,"time":191.96093750000261,"value":1,"command":"11"},{"number":32,"time":0.7562500000000001,"value":0.007874015748031496,"command":"32"},{"number":32,"time":0.7609375,"value":0.007874015748031496,"command":"32"},{"number":32,"time":0.7640625000000001,"value":0.007874015748031496,"command":"32"},{"number":32,"time":0.7687500000000002,"value":0.007874015748031496,"command":"32"},{"number":32,"time":0.7718750000000002,"value":0.007874015748031496,"command":"32"},{"number":32,"time":0.7765625000000003,"value":0.007874015748031496,"command":"32"},{"number":32,"time":0.7843750000000004,"value":0.007874015748031496,"command":"32"},{"number":32,"time":0.7875000000000004,"value":0.007874015748031496,"command":"32"},{"number":32,"time":0.7921875000000005,"value":0.007874015748031496,"command":"32"},{"number":32,"time":0.7953125000000005,"value":0.007874015748031496,"command":"32"},{"number":32,"time":0.8000000000000006,"value":0.007874015748031496,"command":"32"},{"number":38,"time":0.565625,"value":0.25196850393700787,"command":"38"},{"number":64,"time":1.1046875000000007,"value":0,"command":"64"},{"number":64,"time":1.1093750000000007,"value":0,"command":"64"},{"number":64,"time":1.1125000000000007,"value":0,"command":"64"},{"number":64,"time":1.1125000000000007,"value":0,"command":"64"},{"number":64,"time":1.1203125000000007,"value":0,"command":"64"},{"number":64,"time":1.1250000000000007,"value":0,"command":"64"},{"number":64,"time":1.1328125000000007,"value":0,"command":"64"},{"number":64,"time":1.1359375000000007,"value":0,"command":"64"},{"number":64,"time":1.1406250000000007,"value":0,"command":"64"},{"number":64,"time":1.1437500000000007,"value":0,"command":"64"},{"number":64,"time":1.1484375000000007,"value":0,"command":"64"},{"number":64,"time":1.1515625000000007,"value":0,"command":"64"},{"number":64,"time":1.1515625000000007,"value":0,"command":"64"},{"number":64,"time":54.062499999999936,"value":1,"command":"64"},{"number":64,"time":55.47812499999991,"value":0,"command":"64"},{"number":64,"time":55.48593749999991,"value":1,"command":"64"},{"number":64,"time":55.52812499999992,"value":0,"command":"64"},{"number":64,"time":55.71249999999991,"value":1,"command":"64"},{"number":64,"time":56.83437499999991,"value":0,"command":"64"},{"number":64,"time":57.0828124999999,"value":1,"command":"64"},{"number":64,"time":59.765624999999886,"value":0,"command":"64"},{"number":64,"time":60.082812499999896,"value":1,"command":"64"},{"number":64,"time":61.50781249999987,"value":0,"command":"64"},{"number":64,"time":61.69218749999988,"value":1,"command":"64"},{"number":64,"time":63.00468749999986,"value":0,"command":"64"},{"number":64,"time":63.078124999999865,"value":1,"command":"64"},{"number":64,"time":63.68281249999987,"value":0,"command":"64"},{"number":64,"time":63.69062499999987,"value":1,"command":"64"},{"number":64,"time":65.70468749999988,"value":0,"command":"64"},{"number":64,"time":66.07968749999988,"value":1,"command":"64"},{"number":64,"time":67.5015624999999,"value":0,"command":"64"},{"number":64,"time":67.66874999999992,"value":1,"command":"64"},{"number":64,"time":68.96093749999991,"value":0,"command":"64"},{"number":64,"time":69.11093749999992,"value":1,"command":"64"},{"number":64,"time":69.79374999999993,"value":0,"command":"64"},{"number":64,"time":69.92812499999992,"value":1,"command":"64"},{"number":64,"time":70.52968749999995,"value":0,"command":"64"},{"number":64,"time":72.18749999999997,"value":1,"command":"64"},{"number":64,"time":73.28593749999995,"value":0,"command":"64"},{"number":64,"time":73.57499999999995,"value":1,"command":"64"},{"number":64,"time":74.20781249999995,"value":0,"command":"64"},{"number":64,"time":74.21718749999995,"value":1,"command":"64"},{"number":64,"time":74.98593749999996,"value":0,"command":"64"},{"number":64,"time":75.15624999999997,"value":1,"command":"64"},{"number":64,"time":76.31874999999995,"value":0,"command":"64"},{"number":64,"time":76.65156249999995,"value":1,"command":"64"},{"number":64,"time":79.34531249999998,"value":0,"command":"64"},{"number":64,"time":79.54999999999997,"value":1,"command":"64"},{"number":64,"time":81.0203125,"value":0,"command":"64"},{"number":64,"time":81.22187500000003,"value":1,"command":"64"},{"number":64,"time":82.24843750000004,"value":0,"command":"64"},{"number":64,"time":82.73593750000006,"value":1,"command":"64"},{"number":64,"time":85.50781250000011,"value":0,"command":"64"},{"number":64,"time":86.20625000000013,"value":1,"command":"64"},{"number":64,"time":88.51093750000017,"value":0,"command":"64"},{"number":64,"time":89.16562500000016,"value":1,"command":"64"},{"number":64,"time":91.4953125000002,"value":0,"command":"64"},{"number":64,"time":92.2218750000002,"value":1,"command":"64"},{"number":64,"time":93.73437500000026,"value":0,"command":"64"},{"number":64,"time":95.2750000000003,"value":1,"command":"64"},{"number":64,"time":95.50156250000029,"value":0,"command":"64"},{"number":64,"time":95.5109375000003,"value":1,"command":"64"},{"number":64,"time":95.72968750000028,"value":0,"command":"64"},{"number":64,"time":95.73750000000028,"value":1,"command":"64"},{"number":64,"time":95.9406250000003,"value":0,"command":"64"},{"number":64,"time":95.94687500000029,"value":1,"command":"64"},{"number":64,"time":95.95781250000029,"value":0,"command":"64"},{"number":64,"time":96.41250000000028,"value":1,"command":"64"},{"number":64,"time":96.45000000000029,"value":0,"command":"64"},{"number":64,"time":96.48281250000029,"value":1,"command":"64"},{"number":64,"time":96.6843750000003,"value":0,"command":"64"},{"number":64,"time":96.7171875000003,"value":1,"command":"64"},{"number":64,"time":96.76093750000031,"value":0,"command":"64"},{"number":64,"time":98.23593750000028,"value":1,"command":"64"},{"number":64,"time":98.97500000000026,"value":0,"command":"64"},{"number":64,"time":98.98437500000027,"value":1,"command":"64"},{"number":64,"time":99.00937500000028,"value":0,"command":"64"},{"number":64,"time":99.02187500000028,"value":1,"command":"64"},{"number":64,"time":99.05625000000028,"value":0,"command":"64"},{"number":64,"time":99.08125000000028,"value":1,"command":"64"},{"number":64,"time":99.09843750000029,"value":0,"command":"64"},{"number":64,"time":99.10625000000029,"value":1,"command":"64"},{"number":64,"time":99.3500000000003,"value":0,"command":"64"},{"number":64,"time":99.3578125000003,"value":1,"command":"64"},{"number":64,"time":99.39375000000031,"value":0,"command":"64"},{"number":64,"time":107.51249999999999,"value":1,"command":"64"},{"number":64,"time":109.421875,"value":0,"command":"64"},{"number":64,"time":109.4296875,"value":1,"command":"64"},{"number":64,"time":109.4734375,"value":0,"command":"64"},{"number":64,"time":110.25468749999997,"value":1,"command":"64"},{"number":64,"time":111.70625,"value":0,"command":"64"},{"number":64,"time":113.32656249999998,"value":1,"command":"64"},{"number":64,"time":114.47656249999996,"value":0,"command":"64"},{"number":64,"time":114.66249999999997,"value":1,"command":"64"},{"number":64,"time":115.13749999999996,"value":0,"command":"64"},{"number":64,"time":116.24687499999996,"value":1,"command":"64"},{"number":64,"time":117.93281249999998,"value":0,"command":"64"},{"number":64,"time":118.56249999999997,"value":1,"command":"64"},{"number":64,"time":119.978125,"value":0,"command":"64"},{"number":64,"time":119.9859375,"value":1,"command":"64"},{"number":64,"time":120.028125,"value":0,"command":"64"},{"number":64,"time":120.21250000000002,"value":1,"command":"64"},{"number":64,"time":121.33437500000005,"value":0,"command":"64"},{"number":64,"time":121.58281250000005,"value":1,"command":"64"},{"number":64,"time":124.2656250000001,"value":0,"command":"64"},{"number":64,"time":124.58281250000009,"value":1,"command":"64"},{"number":64,"time":126.00781250000011,"value":0,"command":"64"},{"number":64,"time":126.19218750000012,"value":1,"command":"64"},{"number":64,"time":127.5046875000001,"value":0,"command":"64"},{"number":64,"time":127.57812500000009,"value":1,"command":"64"},{"number":64,"time":128.18281250000007,"value":0,"command":"64"},{"number":64,"time":128.19062500000007,"value":1,"command":"64"},{"number":64,"time":130.20468750000003,"value":0,"command":"64"},{"number":64,"time":130.57968749999995,"value":1,"command":"64"},{"number":64,"time":132.00156249999998,"value":0,"command":"64"},{"number":64,"time":132.16875,"value":1,"command":"64"},{"number":64,"time":133.46093750000003,"value":0,"command":"64"},{"number":64,"time":133.61093750000006,"value":1,"command":"64"},{"number":64,"time":134.29375000000013,"value":0,"command":"64"},{"number":64,"time":134.42812500000014,"value":1,"command":"64"},{"number":64,"time":135.02968750000022,"value":0,"command":"64"},{"number":64,"time":136.68750000000026,"value":1,"command":"64"},{"number":64,"time":137.78593750000033,"value":0,"command":"64"},{"number":64,"time":138.07500000000036,"value":1,"command":"64"},{"number":64,"time":138.70781250000036,"value":0,"command":"64"},{"number":64,"time":138.71718750000036,"value":1,"command":"64"},{"number":64,"time":139.48593750000032,"value":0,"command":"64"},{"number":64,"time":139.65625000000034,"value":1,"command":"64"},{"number":64,"time":140.81875000000034,"value":0,"command":"64"},{"number":64,"time":141.15156250000038,"value":1,"command":"64"},{"number":64,"time":143.84531250000046,"value":0,"command":"64"},{"number":64,"time":144.0500000000005,"value":1,"command":"64"},{"number":64,"time":145.52031250000059,"value":0,"command":"64"},{"number":64,"time":145.72187500000064,"value":1,"command":"64"},{"number":64,"time":146.74843750000073,"value":0,"command":"64"},{"number":64,"time":147.09843750000076,"value":1,"command":"64"},{"number":64,"time":149.6890625000009,"value":0,"command":"64"},{"number":64,"time":150.0843750000009,"value":1,"command":"64"},{"number":64,"time":151.53750000000096,"value":0,"command":"64"},{"number":64,"time":151.782812500001,"value":1,"command":"64"},{"number":64,"time":152.968750000001,"value":0,"command":"64"},{"number":64,"time":152.979687500001,"value":1,"command":"64"},{"number":64,"time":153.025000000001,"value":0,"command":"64"},{"number":64,"time":153.28125000000102,"value":1,"command":"64"},{"number":64,"time":154.45156250000093,"value":0,"command":"64"},{"number":64,"time":154.46093750000094,"value":1,"command":"64"},{"number":64,"time":154.47031250000094,"value":0,"command":"64"},{"number":64,"time":154.47968750000095,"value":1,"command":"64"},{"number":64,"time":154.51406250000096,"value":0,"command":"64"},{"number":64,"time":154.81562500000098,"value":1,"command":"64"},{"number":64,"time":156.01093750000092,"value":0,"command":"64"},{"number":64,"time":156.27656250000098,"value":1,"command":"64"},{"number":64,"time":157.42500000000098,"value":0,"command":"64"},{"number":64,"time":157.43593750000096,"value":1,"command":"64"},{"number":64,"time":157.47968750000098,"value":0,"command":"64"},{"number":64,"time":157.784375000001,"value":1,"command":"64"},{"number":64,"time":158.02187500000107,"value":0,"command":"64"},{"number":64,"time":158.03125000000108,"value":1,"command":"64"},{"number":64,"time":158.6562500000012,"value":0,"command":"64"},{"number":64,"time":158.6640625000012,"value":1,"command":"64"},{"number":64,"time":158.7078125000012,"value":0,"command":"64"},{"number":64,"time":159.14062500000122,"value":1,"command":"64"},{"number":64,"time":160.45000000000138,"value":0,"command":"64"},{"number":64,"time":160.66562500000134,"value":1,"command":"64"},{"number":64,"time":161.6359375000015,"value":0,"command":"64"},{"number":64,"time":162.0625000000016,"value":1,"command":"64"},{"number":64,"time":163.4781250000017,"value":0,"command":"64"},{"number":64,"time":163.4859375000017,"value":1,"command":"64"},{"number":64,"time":163.5281250000017,"value":0,"command":"64"},{"number":64,"time":163.7125000000017,"value":1,"command":"64"},{"number":64,"time":164.83437500000173,"value":0,"command":"64"},{"number":64,"time":165.08281250000178,"value":1,"command":"64"},{"number":64,"time":167.76562500000185,"value":0,"command":"64"},{"number":64,"time":168.0828125000018,"value":1,"command":"64"},{"number":64,"time":169.50781250000193,"value":0,"command":"64"},{"number":64,"time":169.69218750000192,"value":1,"command":"64"},{"number":64,"time":171.00468750000192,"value":0,"command":"64"},{"number":64,"time":171.07812500000193,"value":1,"command":"64"},{"number":64,"time":171.68281250000192,"value":0,"command":"64"},{"number":64,"time":171.69062500000192,"value":1,"command":"64"},{"number":64,"time":173.7046875000019,"value":0,"command":"64"},{"number":64,"time":174.07968750000188,"value":1,"command":"64"},{"number":64,"time":175.50156250000188,"value":0,"command":"64"},{"number":64,"time":175.6687500000019,"value":1,"command":"64"},{"number":64,"time":176.96093750000193,"value":0,"command":"64"},{"number":64,"time":177.11093750000197,"value":1,"command":"64"},{"number":64,"time":177.7937500000021,"value":0,"command":"64"},{"number":64,"time":177.9281250000021,"value":1,"command":"64"},{"number":64,"time":178.52968750000215,"value":0,"command":"64"},{"number":64,"time":180.1875000000022,"value":1,"command":"64"},{"number":64,"time":181.28593750000223,"value":0,"command":"64"},{"number":64,"time":181.57500000000223,"value":1,"command":"64"},{"number":64,"time":182.20781250000226,"value":0,"command":"64"},{"number":64,"time":182.21718750000227,"value":1,"command":"64"},{"number":64,"time":182.98593750000225,"value":0,"command":"64"},{"number":64,"time":183.15625000000227,"value":1,"command":"64"},{"number":64,"time":184.31875000000232,"value":0,"command":"64"},{"number":64,"time":184.58281250000238,"value":1,"command":"64"},{"number":64,"time":185.24375000000236,"value":0,"command":"64"},{"number":64,"time":185.4781250000024,"value":1,"command":"64"},{"number":64,"time":186.0140625000024,"value":0,"command":"64"},{"number":64,"time":186.26562500000244,"value":1,"command":"64"},{"number":64,"time":187.40781250000254,"value":0,"command":"64"},{"number":64,"time":187.80625000000254,"value":1,"command":"64"},{"number":64,"time":191.60781250000258,"value":0,"command":"64"},{"number":64,"time":192.14218750000262,"value":1,"command":"64"},{"number":64,"time":193.49375000000265,"value":0,"command":"64"},{"number":64,"time":193.71562500000263,"value":1,"command":"64"},{"number":64,"time":194.37656250000265,"value":0,"command":"64"},{"number":91,"time":0.7562500000000001,"value":0,"command":"91"},{"number":91,"time":0.7640625000000001,"value":0.8267716535433071,"command":"91"},{"number":91,"time":0.7671875000000001,"value":0.6771653543307087,"command":"91"},{"number":91,"time":0.7718750000000002,"value":0.5748031496062992,"command":"91"},{"number":91,"time":0.7750000000000002,"value":0.6771653543307087,"command":"91"},{"number":91,"time":0.7796875000000003,"value":0.8031496062992126,"command":"91"},{"number":91,"time":0.7828125000000004,"value":0.6299212598425197,"command":"91"},{"number":91,"time":0.7875000000000004,"value":0.6535433070866141,"command":"91"},{"number":91,"time":0.7906250000000005,"value":0.47244094488188976,"command":"91"},{"number":91,"time":0.7953125000000005,"value":0.6456692913385826,"command":"91"},{"number":91,"time":0.7984375000000006,"value":0.5826771653543307,"command":"91"},{"number":91,"time":0.8031250000000006,"value":0.8110236220472441,"command":"91"},{"number":91,"time":0.8062500000000007,"value":0.4566929133858268,"command":"91"},{"number":93,"time":0.7562500000000001,"value":0,"command":"93"},{"number":93,"time":0.7640625000000001,"value":0,"command":"93"},{"number":93,"time":0.7671875000000001,"value":0.15748031496062992,"command":"93"},{"number":93,"time":0.7718750000000002,"value":0.1732283464566929,"command":"93"},{"number":93,"time":0.7750000000000002,"value":0.1889763779527559,"command":"93"},{"number":93,"time":0.7796875000000003,"value":0.15748031496062992,"command":"93"},{"number":93,"time":0.7828125000000004,"value":0.15748031496062992,"command":"93"},{"number":93,"time":0.7875000000000004,"value":0,"command":"93"},{"number":93,"time":0.7906250000000005,"value":0.1732283464566929,"command":"93"},{"number":93,"time":0.7953125000000005,"value":0.09448818897637795,"command":"93"},{"number":93,"time":0.7984375000000006,"value":0.15748031496062992,"command":"93"},{"number":93,"time":0.8031250000000006,"value":0.2204724409448819,"command":"93"},{"number":93,"time":0.8062500000000007,"value":0.2204724409448819,"command":"93"},{"number":100,"time":0.5625,"value":0,"command":"100"},{"number":101,"time":0.5609375,"value":0,"command":"101"},{"number":121,"time":0.4921875,"value":0,"command":"121"},{"number":121,"time":0.4953125,"value":0,"command":"121"},{"number":121,"time":0.5,"value":0,"command":"121"},{"number":121,"time":0.5,"value":0,"command":"121"},{"number":121,"time":0.5078125,"value":0,"command":"121"},{"number":121,"time":0.5109375,"value":0,"command":"121"},{"number":121,"time":0.51875,"value":0,"command":"121"},{"number":121,"time":0.5234375,"value":0,"command":"121"},{"number":121,"time":0.5265625,"value":0,"command":"121"},{"number":121,"time":0.53125,"value":0,"command":"121"},{"number":121,"time":0.534375,"value":0,"command":"121"},{"number":121,"time":0.5390625,"value":0,"command":"121"},{"number":121,"time":0.5390625,"value":0,"command":"121"}],"instrumentNumber":18}]}